<?xml version="1.0" encoding="UTF-8"?>
<svg id="Layer_1" data-name="Layer 1" xmlns="http://www.w3.org/2000/svg" viewBox="0 0 404.78 459.59">
  <defs>
    <style>
      .cls-1 {
        fill: #c3ba97;
        fill-rule: evenodd;
        stroke-width: 0px;
      }
    </style>
  </defs>
  <path class="cls-1" d="M202.4,0c21.13,0,39.08,27.27,51.05,71.32,4.15,15.3,7.7,32.76,10.51,51.88,17.95-7.11,34.86-12.75,50.16-16.83,44.1-11.67,76.67-9.72,87.26,8.56,10.55,18.29-4.08,47.46-36.24,79.81-11.15,11.22-24.5,23.04-39.68,35.05,6.06,4.79,11.86,9.57,17.32,14.29-4.97,3.48-9.05,8.08-11.89,13.46-6.28-5.42-13.02-10.92-20.12-16.49-1.46,1.08-2.95,2.17-4.45,3.29-3.22,23.15-13.99,43.87-29.73,59.62l-.9.82c-2.77,2.69-5.65,5.24-8.68,7.59-.19,1.87-.41,3.74-.64,5.61,18.81,7.63,36.47,13.61,52.32,17.8,35.94,9.5,61.11,10.21,67.1-.11,3.18-5.5.94-14.14-5.76-24.98,5.42-2.36,10.21-5.95,14.03-10.4,10.81,17.69,13.84,33.06,7.33,44.32-10.55,18.33-43.09,20.27-87.22,8.6-15.3-4.04-32.2-9.72-50.19-16.83-2.81,19.11-6.36,36.58-10.51,51.88-11.97,44.06-29.92,71.32-51.05,71.32s-39.08-27.27-51.05-71.32c-4.15-15.3-7.7-32.76-10.51-51.88-6.51,2.58-12.87,4.97-19.04,7.14-.49-6.25-2.47-12.04-5.57-17.09,7.18-2.54,14.59-5.35,22.22-8.45-.22-1.83-.41-3.7-.64-5.57-3.33-2.62-6.51-5.42-9.5-8.42l-.07-.07c-15.75-15.75-26.52-36.47-29.73-59.62-1.5-1.08-2.99-2.21-4.45-3.29-16.05,12.49-30.07,24.8-41.63,36.43-26.26,26.48-39.46,47.95-33.47,58.31,3.33,5.76,12.6,8.08,26.37,7.37-.11,1.12-.15,2.28-.15,3.44,0,4.9.94,9.57,2.58,13.88-21.95.97-37.63-4.04-44.36-15.71-10.55-18.33,4.08-47.5,36.24-79.85,11.18-11.22,24.5-23.04,39.68-35.05-15.15-12.01-28.5-23.82-39.68-35.05C7.47,162.44-7.16,133.26,3.39,114.97c10.58-18.29,43.12-20.23,87.26-8.56,15.3,4.04,32.2,9.69,50.19,16.83,1.01-6.92,2.13-13.61,3.33-20.05,5.2,2.62,11.03,4.08,17.24,4.08h.34c-1.38,7.37-2.62,15.11-3.74,23.11,1.68.71,3.33,1.46,5.01,2.21,12.16-4.94,25.43-7.67,39.35-7.67s27.23,2.73,39.38,7.63c1.65-.75,3.33-1.46,4.97-2.17-2.81-20.16-6.43-38.45-10.73-54.27-9.72-35.83-21.69-58.01-33.62-58.01-6.62,0-13.28,6.84-19.52,19.04-4.82-3.25-10.4-5.46-16.46-6.25C176.6,11.18,188.83,0,202.4,0h0ZM202.4,169.06c26.41,0,47.84,10.02,47.84,22.37s-21.43,22.37-47.84,22.37-47.84-10.02-47.84-22.37,21.43-22.37,47.84-22.37h0ZM154.57,252.98v17.17c8.53,30.22,92.57,24.39,95.67-1.53v-17.17c-4.19,28.46-88.94,30.52-95.67,1.53h0ZM154.34,202.19v16.79c8.53,29.51,93.06,25.55,96.16.22v-16.76c-4.23,27.79-89.43,28.05-96.16-.26h0ZM154.34,226.92v17.17c8.53,30.22,93.06,26.14,96.16.22v-17.17c-4.23,28.46-89.43,28.76-96.16-.22h0ZM202.4,139.92c49.63,0,89.88,40.24,89.88,89.88s-40.24,89.88-89.88,89.88-89.88-40.24-89.88-89.88,40.24-89.88,89.88-89.88h0ZM266.99,147.14c3.37,2.62,6.58,5.46,9.57,8.49,15.75,15.75,26.52,36.5,29.73,59.66,1.5,1.08,2.99,2.17,4.45,3.29,16.05-12.49,30.07-24.8,41.63-36.43,26.18-26.37,39.38-47.84,33.44-58.2-5.98-10.32-31.16-9.61-67.1-.11-15.86,4.19-33.51,10.17-52.32,17.84.19,1.76.41,3.63.6,5.46h0ZM241.64,327.11c-12.12,4.9-25.36,7.59-39.2,7.59s-27.12-2.69-39.23-7.63c-1.72.75-3.44,1.53-5.16,2.24,2.81,20.16,6.43,38.45,10.73,54.27,9.72,35.83,21.69,58.01,33.66,58.01s23.94-22.18,33.62-58.01c4.26-15.82,7.89-34.15,10.7-54.27h0c-1.72-.71-3.44-1.46-5.12-2.21h0ZM98.54,215.21c3.22-23.11,13.99-43.87,29.73-59.58l.9-.82c2.73-2.66,5.61-5.2,8.6-7.56.19-1.87.41-3.74.64-5.61-18.85-7.63-36.47-13.61-52.32-17.84-35.94-9.5-61.11-10.21-67.1.11-6.02,10.36,7.18,31.83,33.4,58.2,11.56,11.63,25.58,23.94,41.63,36.43h0c1.5-1.12,2.99-2.21,4.53-3.33h0ZM362.03,249.66c13.73,0,24.87,11.15,24.87,24.87s-11.15,24.87-24.87,24.87-24.87-11.15-24.87-24.87,11.11-24.87,24.87-24.87h0ZM83.58,320.91c13.73,0,24.87,11.15,24.87,24.87s-11.15,24.87-24.87,24.87-24.87-11.15-24.87-24.87,11.15-24.87,24.87-24.87h0ZM161.37,43.98c13.73,0,24.87,11.15,24.87,24.87s-11.15,24.87-24.87,24.87-24.87-11.15-24.87-24.87,11.15-24.87,24.87-24.87h0Z"/>
</svg>