<?xml version="1.0" encoding="UTF-8"?>
<svg id="Layer_1" data-name="Layer 1" xmlns="http://www.w3.org/2000/svg" viewBox="0 0 438.54 363.55">
  <defs>
    <style>
      .cls-1 {
        fill: #b6c0dd;
        stroke-width: 0px;
      }
    </style>
  </defs>
  <path class="cls-1" d="M286.21,193.82l-37.46-6.12c-2.19-7.52-5.19-14.74-8.94-21.58l21.87-31.16c1.77-2.52,1.46-5.95-.71-8.13l-24.65-24.64c-2.2-2.19-5.66-2.48-8.18-.66l-30.7,22.06c-6.9-3.82-14.19-6.85-21.75-9.04l-6.53-37.31c-.53-3.03-3.16-5.25-6.24-5.25h-34.86c-3.11,0-5.75,2.25-6.26,5.32l-6.06,37.1c-7.61,2.19-14.91,5.18-21.78,8.95l-30.61-21.87c-2.53-1.81-5.97-1.51-8.17.67l-24.64,24.64c-2.17,2.17-2.48,5.6-.71,8.11l21.54,30.82c-3.83,6.94-6.89,14.29-9.11,21.93l-36.96,6.15c-3.05.51-5.3,3.16-5.3,6.25v34.86c0,3.07,2.21,5.7,5.23,6.24l36.96,6.55c2.21,7.62,5.27,14.97,9.11,21.93l-21.81,30.51c-1.8,2.52-1.51,5.97.67,8.17l24.64,24.66c2.17,2.17,5.6,2.48,8.12.71l30.87-21.62c6.93,3.81,14.25,6.83,21.83,9.03l6.19,37.15c.5,3.05,3.14,5.29,6.24,5.29h34.86c3.07,0,5.7-2.21,6.24-5.23l6.62-37.33c7.6-2.24,14.88-5.28,21.74-9.1l31.09,21.81c2.52,1.78,5.95,1.47,8.13-.7l24.64-24.66c2.19-2.2,2.48-5.67.66-8.19l-22.17-30.78c3.76-6.85,6.74-14.08,8.92-21.6l37.51-6.59c3.04-.53,5.24-3.17,5.24-6.24v-34.86c0-3.11-2.24-5.75-5.31-6.26ZM145.76,262.14c-24.5,0-44.37-19.86-44.37-44.37s19.86-44.37,44.37-44.37,44.37,19.86,44.37,44.37-19.86,44.37-44.37,44.37Z"/>
  <path class="cls-1" d="M435.46,70.66l-21.73-3.55c-1.27-4.36-3.01-8.55-5.19-12.52l12.68-18.08c1.03-1.46.85-3.45-.41-4.71l-14.3-14.29c-1.28-1.27-3.28-1.44-4.75-.38l-17.8,12.8c-4-2.21-8.23-3.97-12.62-5.25l-3.79-21.64c-.31-1.76-1.83-3.04-3.62-3.04h-20.22c-1.8,0-3.34,1.31-3.63,3.08l-3.51,21.52c-4.41,1.27-8.65,3.01-12.63,5.19l-17.76-12.68c-1.47-1.05-3.46-.88-4.74.39l-14.29,14.29c-1.26,1.26-1.44,3.25-.41,4.71l12.5,17.88c-2.22,4.03-4,8.29-5.29,12.72l-21.44,3.57c-1.77.29-3.07,1.83-3.07,3.62v20.22c0,1.78,1.28,3.31,3.03,3.62l21.44,3.8c1.28,4.42,3.05,8.68,5.29,12.72l-12.65,17.69c-1.04,1.46-.88,3.46.39,4.74l14.29,14.3c1.26,1.26,3.25,1.44,4.71.41l17.9-12.54c4.02,2.21,8.26,3.96,12.66,5.23l3.59,21.55c.29,1.77,1.82,3.07,3.62,3.07h20.22c1.78,0,3.31-1.28,3.62-3.03l3.84-21.65c4.41-1.3,8.63-3.06,12.61-5.28l18.03,12.65c1.46,1.03,3.45.85,4.71-.41l14.29-14.3c1.27-1.28,1.44-3.29.38-4.75l-12.86-17.85c2.18-3.97,3.91-8.17,5.17-12.53l21.76-3.82c1.76-.31,3.04-1.84,3.04-3.62v-20.22c0-1.8-1.3-3.34-3.08-3.63ZM354,110.28c-14.21,0-25.73-11.52-25.73-25.73s11.52-25.73,25.73-25.73,25.73,11.52,25.73,25.73-11.52,25.73-25.73,25.73Z"/>
</svg>