<?xml version="1.0" encoding="UTF-8"?>
<svg id="Layer_1" data-name="Layer 1" xmlns="http://www.w3.org/2000/svg" version="1.1" viewBox="0 0 600 600">
  <defs>
    <style>
      .cls-1 {
        fill: #c29c76;
      }

      .cls-1, .cls-2, .cls-3, .cls-4, .cls-5, .cls-6, .cls-7, .cls-8, .cls-9, .cls-10, .cls-11, .cls-12, .cls-13, .cls-14, .cls-15, .cls-16, .cls-17, .cls-18, .cls-19 {
        stroke-width: 0px;
      }

      .cls-2 {
        fill: #bb9168;
      }

      .cls-3 {
        fill: #ecf0f1;
        opacity: .5;
      }

      .cls-3, .cls-20, .cls-21, .cls-17 {
        isolation: isolate;
      }

      .cls-3, .cls-21 {
        display: none;
      }

      .cls-20 {
        fill: #333;
        font-family: AvenirNext-Regular, 'Avenir Next';
        font-size: 30px;
      }

      .cls-4 {
        fill: #463b48;
      }

      .cls-5 {
        fill: #000;
      }

      .cls-6 {
        fill: #362939;
      }

      .cls-7, .cls-17 {
        fill: #d4958a;
      }

      .cls-8 {
        fill: #fbe5e2;
      }

      .cls-9 {
        fill: #f3d4cf;
      }

      .cls-10 {
        fill: #cb5f6c;
      }

      .cls-11 {
        fill: #da7c87;
      }

      .cls-12 {
        fill: #e99ca5;
      }

      .cls-13 {
        fill: #c5796d;
      }

      .cls-14 {
        fill: #7d6c38;
      }

      .cls-15 {
        fill: #caa785;
      }

      .cls-16 {
        fill: #fff;
      }

      .cls-17 {
        opacity: .6;
      }

      .cls-18 {
        fill: #e4b3ab;
      }

      .cls-19 {
        fill: #565057;
      }
    </style>
  </defs>
  <g id="svga-group-wrapper">
    <g id="svga-group-humanwrap-move">
      <g id="svga-group-humanwrap">
        <g id="svga-group-hair-back-move">
          <g id="svga-group-hair-back">
            <path id="SvgjsPath7700" class="cls-1" d="M402.6,152.1s17.1,3.3,31.5,36c14.4,32.7,8.4,70.2,6.6,96.3s-6,108-32.7,149.4-39.3,43.8-70.2,55.2c-30.9,11.1-109.5,7.8-142.8-22.2-33.3-30.3-19.5-80.7-11.1-99,8.4-18.6,218.7-215.7,218.7-215.7"/>
            <path id="SvgjsPath7701" class="cls-2" d="M213.6,365.1s-8.4,21.3-10.2,36,7.8,28.5,13.5,36.3c6.3,8.4,18,22.8,18.3,51.6.3,18,124.8-16.5,124.8-16.5,11.1-8.7,33.3-28.8,46.8-62.7,11.4-28.5,11.4-53.4,10.5-67.2-51.6,18.6-103.5,37.5-155.1,56.1l-8.4-12.9-40.2-20.7h0Z"/>
          </g>
        </g>
        <g id="svga-group-humanbody-back">
          <path id="SvgjsPath3152" class="cls-9" d="M505.5,658.5l-5.1-64.5s2.1-27-26.4-45.9-70.2-30.3-88.5-42.6c-18.3-12.3-27.6-13.5-27-50.7s2.7-120.9,2.7-120.9h-122.4s2.1,83.7,2.7,120.9c.6,37.2-8.7,38.4-27,50.7-18.3,12.3-60,23.7-88.5,42.6s-26.4,45.9-26.4,45.9l-4.8,64.5h410.7Z"/>
        </g>
        <g id="svga-group-chinshadow-single">
          <path id="SvgjsPath8228" class="cls-17" d="M241.2,466.2c17.7,17.4,37.8,27.9,58.8,27.9s41.1-10.5,58.8-27.9c-.3-3.3-.3-7.2-.3-11.4.6-37.2,2.7-120.9,2.7-120.9h-122.4s2.1,83.7,2.7,120.9c0,4.2,0,8.1-.3,11.4Z"/>
        </g>
        <g id="svga-group-humanbody-front">
          <path id="SvgjsPath3153" class="cls-7" d="M221.4,527.7c15.3,8.7,35.4,15.6,52.8,17.1,1.2,0,1.2-1.8.3-2.1-8.4-3.3-17.7-5.1-26.4-7.8-8.7-2.7-17.4-6-26.4-8.1-.3-.3-.9.6-.3.9h0ZM327,546.3c15.9-1.8,33.9-9,47.7-17.4.9-.6.3-1.8-.6-1.5-7.8,2.7-15.6,6-23.4,8.7-7.8,2.7-16.2,4.5-24,7.5-1.5.3-1.5,2.7.3,2.7h0Z"/>
          <path id="SvgjsPath3154" class="cls-13" d="M505.2,658.2l-6.3-64.2c0-6.6-1.5-13.5-4.5-19.8-2.7-6.3-6.9-11.7-11.7-16.5s-10.5-8.4-16.5-12-12.3-6.6-18.6-9.3c-12.6-5.7-25.8-10.8-38.7-16.2-6.6-2.7-12.9-5.7-19.2-9-3.3-1.8-6.3-3.6-9-5.7-3-1.8-6-3.6-9-5.7s-6-4.5-8.4-7.8c-2.4-3-3.9-6.6-5.1-10.2-2.1-7.2-2.4-14.4-2.4-21.6,0-14.1.6-28.2.9-42.3.6-28.2,1.8-56.1,2.7-84l1.8,1.8-61.2-.6-61.2-.3.9-.9,2.1,84c.3,14.1.9,27.9,1.2,42,0,7.2-.3,14.1-2.4,21.3-.9,3.6-2.7,6.9-4.8,9.9-2.4,3-5.1,5.4-8.1,7.5s-6,3.9-8.7,6c-2.7,1.8-5.7,3.9-9,5.7-6.3,3.6-12.6,6.3-19.2,9.3-12.9,5.7-25.8,10.8-38.4,16.8-6.3,3-12.6,6.3-18.3,9.6-6,3.6-11.4,7.2-16.2,12-4.8,4.8-8.7,10.2-11.4,16.2-1.2,3-2.4,6.3-3,9.3-.6,3.3-1.2,6.6-.9,9.6v.6l-4.5,64.5-3-3.3,102,.3c33.9,0,68.1.3,102.3.6l102.6.9,103.2,1.5h0ZM505.8,658.8l-102,1.2-102.6.9c-34.2.3-68.7.6-103.2.6l-103.2.3h-3.3l.3-3.3,5.1-64.5v.3c-.3-15.3,6.6-29.4,17.1-39.9,5.1-5.1,11.4-9.3,17.4-12.9s12.6-6.6,18.9-9.6c12.9-6,26.1-11.1,39-16.2,6.3-2.7,12.9-5.4,18.9-8.7,3-1.5,5.7-3.3,9-5.4,3-1.8,6-3.6,8.7-5.7,2.7-1.8,5.4-4.2,7.2-6.6,2.1-2.7,3.6-5.7,4.5-8.7,1.8-6.3,2.4-13.5,2.4-20.4,0-13.8-.3-27.9-.6-42l-1.8-84v-.9h.9l61.2-.3,61.2-.6h1.8v1.8c-.3,27.9-.6,56.1-1.2,84-.3,14.1-.6,28.2-.6,42,.3,6.9.6,13.8,2.4,20.1.9,3.3,2.4,6,4.2,8.7,1.8,2.4,4.2,4.8,7.2,6.6,2.7,1.8,5.7,3.9,8.7,5.7,3,2.1,5.7,3.9,8.7,5.4,6,3.3,12.3,6.3,18.9,9,12.9,5.4,25.8,10.8,38.7,16.8,6.3,3,12.6,6.3,18.6,9.9s12,7.8,17.1,12.9c10.2,10.2,16.8,24.3,16.2,39v-.3l4.2,64.8h0ZM167.4,657.6l5.7-41.4.3,41.4h-6ZM433.2,657.6l-5.7-41.4-.3,41.4h6Z"/>
        </g>
        <g id="svga-group-clothes-single">
          <path id="SvgjsPath8605" class="cls-5" d="M429.6,660l.3-10.8,80.4-7.8s-3.6-49.5-5.7-60-6.9-25.8-36.3-42-83.1-37.2-83.1-37.2c-94.8,91.5-168-.3-170.1,0,0,0-53.7,21-83.1,37.2s-34.2,31.5-36.3,42-5.7,60-5.7,60l80.4,7.8v10.8h259.2,0Z"/>
          <path id="SvgjsPath8606" class="cls-5" d="M512.1,641.4c-1.2-17.4-2.1-34.8-3.9-52.2s-2.7-18-7.8-25.8c-4.8-7.8-11.7-13.8-19.2-18.9-7.2-5.1-15.3-9.3-23.1-13.2-7.8-3.9-15.9-7.5-23.7-11.1-15.9-7.2-32.1-13.5-48.6-19.8-.6-.3-1.5,0-2.1.3-11.4,11.4-24,21.3-38.1,28.8s-29.7,12-45.6,12.3c-8.1,0-15.9-.9-23.7-2.7-7.8-2.1-15.3-5.1-22.2-8.7s-13.8-8.1-20.1-12.9c-3.3-2.4-6.3-5.1-9.3-7.8-1.5-1.2-3-2.7-4.2-4.2l-2.1-2.1-1.2-1.2-.6-.6-.3-.3-.3-.3s-.6-.3-.9-.3h-.3c-16.2,6.3-32.4,12.6-48.6,19.5-8.1,3.3-15.9,6.9-24,10.8-7.8,3.9-15.6,7.8-23.1,12.9-7.2,5.1-14.4,11.1-19.2,18.9-5.1,7.8-7.2,17.1-8.1,25.8-2.1,17.4-3.3,34.8-4.8,52.2,0,1.5,1.2,3,2.7,3.3l40.2,3.9,37.5,3.6v8.1c0,1.8,1.5,3,3,3,21.9,0,43.5,0,65.4-.3l65.1-.6,129-1.8.6-10.5,39.6-3,40.2-3.3c1.2,0,1.8-.9,1.8-1.8h0ZM469.8,643.8l-40.2,4.8c-.3,0-.6.3-.6.6l.3,10.8-130.2-1.8-64.5-.6c-20.4-.3-40.8-.3-61.2-.3v-7.8c0-1.5-1.2-3-2.7-3l-40.2-4.5-37.5-3.3c1.2-16.2,2.4-32.7,3.9-48.9.9-8.7,2.7-16.8,6.9-23.7,4.5-6.9,10.8-12.6,17.7-17.7,6.9-4.8,14.4-9,22.2-12.9s15.6-7.8,23.4-11.4c15.6-7.2,31.5-13.8,47.4-20.4l.6.3,1.2.9,2.1,2.1c1.5,1.5,3,2.7,4.5,4.2,3,2.7,6.3,5.4,9.3,7.8,6.6,4.8,13.2,9.3,20.4,13.2,14.4,7.5,30.6,11.7,46.8,11.7s32.4-4.5,47.1-11.7c14.1-7.2,27-16.8,38.4-27.6,15.6,6.3,31.2,13.2,46.8,20.1,7.8,3.6,15.9,7.2,23.4,11.1,7.8,3.9,15.3,7.8,22.2,12.6,6.9,4.8,13.5,10.5,18,17.4s6.6,15,7.2,23.7c.9,8.7,1.8,17.4,2.7,25.8l2.1,24.3-37.5,4.2h0ZM168.3,621.9l-.9-3.3-1.2-3c-2.7-8.4-6.9-16.2-11.4-23.7-4.8-7.5-10.2-14.4-16.5-20.4s-13.2-11.7-21-15.3c3.6,2.4,6.9,5.1,10.2,7.8,3.3,2.7,6.3,5.7,9.3,9,5.7,6.3,11.1,13.2,15.6,20.4,1.2,1.8,2.1,3.6,3.3,5.4,1.2,1.8,2.1,3.6,3,5.7.9,1.8,2.1,3.9,3,5.7.9,2.1,1.8,3.9,2.7,6l1.2,3,1.2,3,2.1,6c1.5,4.2,2.4,8.4,3.9,12.3-.9-4.2-1.5-8.7-2.7-12.9l-1.8-5.7h0ZM447,592.2c-4.5,7.5-8.7,15.3-11.4,23.7l-1.2,3-.9,3.3-1.8,6.3c-.9,4.2-1.8,8.4-2.7,12.9,1.5-4.2,2.4-8.4,3.9-12.3l2.1-6,1.2-3,1.2-3c.9-1.8,1.8-3.9,2.7-6,.9-1.8,1.8-3.9,3-5.7.9-1.8,1.8-3.9,3-5.7,1.2-1.8,2.1-3.6,3.3-5.4,4.5-7.2,9.9-14.1,15.6-20.4,2.7-3.3,6-6.3,9.3-9,3.3-3,6.6-5.7,10.2-7.8-7.8,3.9-14.7,9.3-21,15.3-6.3,5.4-11.7,12.6-16.5,19.8h0Z"/>
        </g>
        <g id="svga-group-head">
          <g id="svga-group-ears-left-move">
            <g id="svga-group-ears-left">
              <path id="SvgjsPath4958" class="cls-9" d="M184.2,282.6s-7.5-13.8-15-16.2-12.3,2.1-11.1,18.6,14.7,65.4,29.7,62.4c15-3,2.7-55.2-3.6-64.8h0Z"/>
              <path id="SvgjsPath4959" class="cls-18" d="M186.9,288c.9,2.1,1.5,4.2,2.4,6.3,1.5,4.2,2.7,8.7,3.9,13.5,1.2,4.5,2.1,9.6,2.7,14.4.3,2.4.6,5.1.6,7.8s0,5.1-.3,7.8c-.3,2.4-.9,5.1-1.8,6.9-.9,2.1-2.1,3.3-3.6,4.2-2.7,1.5-5.4,1.2-8.1-.3s-5.1-4.5-7.2-7.5c-2.1-3.3-3.9-7.2-5.7-11.1-1.8-3.9-3.3-8.4-4.5-12.6-1.5-4.2-2.7-8.7-3.9-13.2-1.2-4.5-2.4-9.3-3.3-14.1s-1.2-10.2-.9-15.3c.3-2.4.9-5.1,2.1-6.9.9-1.8,2.4-2.7,3.6-3.3s2.7-.3,3.9-.3c1.2.3,2.7.9,3.9,1.5,2.4,1.5,4.8,4.2,7.2,7.2,2.1,3,4.2,6,6.3,9.6.9,1.5,1.8,3.3,2.7,5.4h0ZM177.6,273.9c-2.4-2.4-4.5-4.5-6.9-5.4s-4.8-1.2-6.9-.3c-1.2.6-2.1,1.2-2.7,2.4-.9,1.2-1.2,3-1.5,5.1-.6,4.2-.3,9,.3,13.5.6,4.8,1.5,9.3,2.7,14.1,2.1,9,5.1,17.7,8.7,24.9s3.6,6.9,5.7,9.9c2.1,2.7,4.2,5.1,6.6,6.3,1.2.6,2.4.9,3.6.9s2.4-.3,3.3-.9c.9-.6,1.8-1.8,2.4-3,.6-1.5,1.2-3.3,1.5-5.4.6-4.2.3-8.7,0-13.5s-1.2-9.3-1.8-14.1c-.9-4.8-1.8-9.3-3-13.8s-2.7-8.7-4.8-12c-2.7-3.3-4.8-6.3-7.2-8.7h0Z"/>
              <path id="SvgjsPath4960" class="cls-7" d="M166.2,276.6c6.6,4.2,12.3,16.2,15.3,27.9v.3c0,.9-.6.9-.6.3-1.2-3.3-2.4-3.3-4.2,0-.3,2.1-.3,4.2.3,6.6.3,2.1,1.2,3.9,1.8,5.7,1.5,3.3,3.3,6,5.1,8.7.6.9,0,2.1-.6,1.5-3.9-3-9.6-13.2-8.4-22.2.6-4.2,2.7-6.3,4.5-4.8-2.1-6-4.8-11.4-7.8-15.6-1.8-2.4-5.7-7.8-7.8-6.9-3.6,1.5-1.5,13.5-1.2,18.6,0,.9-.6.9-.9.3-2.1-8.7-2.4-24.9,4.5-20.4h0Z"/>
              <path id="SvgjsPath4961" class="cls-7" d="M181.8,330c-6.9-2.7-11.7-13.5-14.7-25.5-1.8-7.2-5.1-24,1.5-24s.9,1.5.3,1.8c-6.3,3.3.6,25.8,2.4,31.2,2.7,7.5,6.3,12.3,10.5,15.3.3.3.3,1.5,0,1.2h0Z"/>
            </g>
          </g>
          <g id="svga-group-ears-right-move">
            <g id="svga-group-ears-right">
              <path id="SvgjsPath4962" class="cls-9" d="M415.8,282.6s7.5-13.8,15-16.2,12.3,2.1,11.1,18.6c-1.5,16.5-14.7,65.4-29.7,62.4-15.3-2.7-2.7-55.2,3.6-64.8h0Z"/>
              <path id="SvgjsPath4963" class="cls-18" d="M415.8,282.3c1.8-3.6,3.9-6.6,6.3-9.6,2.1-3,4.5-5.4,7.2-7.2,1.2-.6,2.7-1.5,3.9-1.5,1.2-.3,2.7-.3,3.9.3s2.7,1.5,3.6,3.3,1.8,4.2,2.1,6.9c.6,5.1,0,10.5-.9,15.3s-2.1,9.6-3.3,14.1c-1.2,4.5-2.4,9-3.9,13.2s-3,8.7-4.5,12.6c-1.8,3.9-3.6,7.8-5.7,11.1s-4.5,6-7.2,7.5-5.4,1.8-8.1.3c-1.2-.9-2.4-2.1-3.6-4.2-.9-2.1-1.5-4.5-1.8-6.9-.3-2.7-.3-5.1-.3-7.8s.3-5.1.6-7.8c.6-5.1,1.5-9.9,2.7-14.4s2.4-9,3.9-13.5c.9-2.1,1.5-4.2,2.4-6.3l2.7-5.4h0ZM416.1,282.6c-2.1,3.3-3.3,7.8-4.8,12-1.2,4.5-2.1,9-3,13.8s-1.5,9.3-1.8,14.1c-.3,4.5-.6,9.3,0,13.5.3,2.1.6,3.9,1.5,5.4.6,1.5,1.5,2.4,2.4,3s2.1.9,3.3.9,2.4-.3,3.6-.9c2.4-1.2,4.5-3.6,6.6-6.3,2.1-3,3.9-6.3,5.7-9.9,3.6-7.5,6.6-15.9,8.7-24.9,1.2-4.5,2.1-9.3,2.7-14.1.6-4.5.6-9.6.3-13.5-.3-2.1-.9-3.6-1.5-5.1-.9-1.2-1.8-2.1-2.7-2.4-2.1-.9-4.8-.6-6.9.3-2.4.9-4.8,3-6.9,5.4-3.3,2.4-5.4,5.4-7.2,8.7h0Z"/>
              <path id="SvgjsPath4964" class="cls-7" d="M418.2,330c6.9-2.7,11.7-13.5,14.7-25.5,1.8-7.2,5.1-24-1.5-24s-.9,1.5-.3,1.8c6.3,3.3-.6,25.8-2.4,31.2-2.7,7.5-6.3,12.3-10.5,15.3-.3.3-.3,1.5,0,1.2h0Z"/>
              <path id="SvgjsPath4965" class="cls-7" d="M433.8,276.6c-6.6,4.2-12.3,16.2-15.3,27.9v.3c0,.9.6.9.6.3,1.2-3.3,2.4-3.3,4.2,0,.3,2.1.3,4.2-.3,6.6-.3,2.1-1.2,3.9-1.8,5.7-1.5,3.3-3.3,6-5.1,8.7-.6.9,0,2.1.6,1.5,3.9-3,9.6-13.2,8.4-22.2-.6-4.2-2.7-6.3-4.5-4.8,2.1-6,4.8-11.4,7.8-15.6,1.8-2.4,5.7-7.8,7.8-6.9,3.6,1.5,1.5,13.5,1.2,18.6,0,.9.6.9.9.3,2.1-8.7,2.4-24.9-4.5-20.4h0Z"/>
            </g>
          </g>
          <g id="svga-group-faceshape-wrap">
            <g id="svga-group-faceshape-single">
              <path id="SvgjsPath8218" class="cls-9" d="M423,265.2c0,90.9-56.7,195.6-123,195.6s-123-104.7-123-195.6,56.7-141,123-141,123,49.8,123,141h0Z"/>
              <path id="SvgjsPath8219" class="cls-13" d="M300,123.9c-66.3,0-123.3,50.1-123.3,141s57,196.5,123.3,196.5,123.3-105.6,123.3-196.5-57-141-123.3-141h0ZM384.6,164.7l2.4,2.4c.9.9,1.5,1.8,2.4,2.7.9.9,1.5,1.8,2.4,2.7l2.1,2.7c.6.9,1.5,1.8,2.1,2.7l2.1,3,.9,1.5.9,1.5c1.2,2.1,2.7,3.9,3.6,6l1.8,3c.6.9,1.2,2.1,1.5,3l1.5,3.3,1.5,3.3c.6,1.2.9,2.1,1.5,3.3l1.2,3.3c6.9,17.7,9.6,37.2,9.9,56.1,0,19.2-2.7,38.4-7.8,56.7-2.4,9.3-5.7,18.3-9.3,27-3.6,8.7-7.5,17.4-12,25.8s-9.3,16.5-14.4,24.3c-2.7,3.9-5.4,7.8-8.1,11.4-2.7,3.6-5.7,7.2-9,10.8-6,6.9-12.9,13.2-20.1,18.9-7.2,5.4-15,9.9-23.4,12.9s-8.4,2.7-12.9,3c-4.5.6-8.7.6-13.2.3-9-.6-17.7-3.6-25.8-7.8-8.1-4.2-15.9-9.9-22.8-16.2-6.9-6.3-13.2-13.5-18.9-21.3s-10.8-15.9-15-24.3c-4.5-8.4-8.4-17.1-11.7-26.1-1.8-4.5-3.3-9-4.8-13.5s-2.7-9-3.9-13.8c-2.4-9.3-4.2-18.6-5.4-27.9-1.2-9.3-2.1-18.9-2.4-28.2,0-4.8,0-9.3.3-14.1,0-2.4.3-4.8.3-6.9l.6-6.9c.9-9.3,2.7-18.6,5.1-27.3,2.4-9,5.4-17.7,9.6-25.8.6-1.2.9-2.1,1.5-3l1.5-3c1.2-2.1,2.4-3.9,3.6-6,1.2-1.8,2.4-3.9,3.9-5.7l2.1-2.7.9-1.5,1.2-1.2c5.7-7.2,12.3-13.5,19.5-18.9s15-9.9,23.4-13.5,17.1-6,25.8-7.5c2.1-.6,4.5-.6,6.6-.9,1.2-.3,2.4-.3,3.3-.3l3.3-.3c2.4,0,4.5-.3,6.9-.3h6.9l3.3.3c1.2,0,2.4.3,3.3.3s2.4.3,3.3.3l3.3.6,1.8.3,1.8.3,3.3.6c1.2.3,2.1.6,3.3.9s2.1.6,3.3.9c4.2,1.2,8.7,2.7,12.9,4.5s8.4,3.6,12.3,6c8.1,4.5,15.6,9.9,22.2,16.2l1.2,1.2,1.5.9h0Z"/>
            </g>
          </g>
          <g id="svga-group-mouth-single-move">
            <g id="svga-group-mouth-single">
              <path id="SvgjsPath8100" class="cls-11" d="M262.2,393.3s8.7-.9,13.8-3,15.3-6.3,23.1-6.6,14.7,1.2,24,4.2,18.6,5.4,23.1,4.8c0,0-3.6,3.6-10.5,7.8s-17.4,8.7-29.4,9-21.9-1.5-30.3-6c-9-4.5-13.2-8.1-13.8-10.2h0Z"/>
              <path id="SvgjsPath8101" class="cls-10" d="M260.7,394.2c13.8,7.8,29.7.9,44.4,1.5,13.2.3,31.2,5.7,43.2-2.1,1.2-.6.3-2.1-.9-2.1-7.2,1.2-13.8,2.7-21,2.4-7.2-.3-14.1-1.5-21.3-1.5-14.7-.3-29.4,5.4-43.8.3-.9-.6-1.5.9-.6,1.5h0Z"/>
              <path id="SvgjsPath8102" class="cls-12" d="M277.5,401.4c14.1,5.7,33.3,6.9,46.8-1.2.6-.3.3-1.5-.3-1.5-7.8.3-15.3,2.1-23.1,2.7-7.8.3-15.6-.3-23.1-.9-.6-.3-.6.6-.3.9h0Z"/>
              <path id="SvgjsPath8103" class="cls-12" d="M295.8,387.9c6.3,0,12.3,1.5,18.6,3,.9.3,1.5-.9.6-1.5-6-3-12.9-3.3-19.2-2.4-.6,0-.6.6,0,.9h0Z"/>
            </g>
          </g>
          <g id="svga-group-eyes-left-move">
            <g id="svga-group-eyes-left">
              <g id="svga-group-eyesback-left">
                <path id="SvgjsPath5621" class="cls-16" d="M272.7,303.9s-.9-7.5-3-11.4-11.1-13.2-21-15c-14.7-3-27.9,5.1-27.9,5.1,0,0,0,7.2,4.5,12.3,4.2,5.1,11.7,7.8,14.7,8.1s13.8.9,19.5,0c3.9-.6,8.4-.6,10.2,0,1.5.6,3,.9,3,.9h0Z"/>
              </g>
              <g id="svga-group-eyesiriswrapper-left">
                <g id="svga-group-eyesiriscontrol-left">
                  <g id="svga-group-eyesiris-left">
                    <path id="SvgjsPath5875" class="cls-14" d="M246,274.5c8.1,0,14.7,6.6,14.7,14.7s-6.6,14.7-14.7,14.7-14.7-6.6-14.7-14.7,6.6-14.7,14.7-14.7Z"/>
                    <path id="SvgjsPath5876" class="cls-5" d="M246,281.4c4.2,0,7.8,3.6,7.8,7.8s-3.6,7.8-7.8,7.8-7.8-3.6-7.8-7.8,3.6-7.8,7.8-7.8Z"/>
                    <path id="SvgjsPath5877" class="cls-16" d="M243.9,282.9l-1.5-1.5c-.6-.6-1.2-.9-2.1-.9s-1.5.3-2.1.9c-.6.6-.9,1.2-.9,2.1s.3,1.5.9,2.1l1.5,1.5c.6.6,1.2.9,2.1.9s1.5-.3,2.1-.9c1.2-1.5,1.2-3,0-4.2h0ZM251.4,296.1c2.4,0,2.4-3.9,0-3.9s-2.7,3.9,0,3.9Z"/>
                  </g>
                </g>
              </g>
              <g id="svga-group-eyesfront-left">
                <path id="SvgjsPath5629" class="cls-9" d="M212.2,294.1c0,20.7,14.8,37.5,33.1,37.5s33.1-16.8,33.1-37.5-14.8-37.5-33.1-37.5-33.1,16.8-33.1,37.5h0ZM220.8,282.8s13.3-8.1,28-5.2c9.9,1.9,18.6,11.2,20.8,15.1,2.2,3.8,3.1,11.5,3.1,11.5,0,0-1.6-.4-3.3-1-1.7-.5-6.2-.6-10.2.1-5.7,1-16.4.5-19.3.1-3-.4-10.5-3.2-14.8-8.2-4.2-5.1-4.3-12.3-4.3-12.3Z"/>
                <path id="SvgjsPath5630" class="cls-5" d="M219.8,283.9c-.3,1.3-.4,2.5-.2,3.8-1.7,0-3.6.2-4.8,1.3-.4.4,0,1,.5.9.9-.2,1.7-.6,2.6-.8.6-.2,1.3-.2,1.9-.2.2.6.4,1.3.7,1.9-.5.2-1,.4-1.5.6-1.1.5-2.2,1.3-3,2.3-.3.5.3.8.7.7,1-.5,2-1.1,3.1-1.7.5-.2,1-.4,1.5-.5.5.8,1,1.6,1.7,2.4-1.2.7-2.3,1.7-2.7,3.1,0,.3.3.6.6.5,1.1-.7,2-1.7,2.9-2.6,3.3,3.7,8,6.5,11.8,7.7,5.6,1.9,11.8,2.2,17.7,1.9,5.5-.3,14.2-3.4,19.3-.6.2.1.4,0,.5,0h0c0-.1,0-.2,0-.3s0,0,0,0c-.3-12.2-7.9-22.5-19.2-26.9-6.2-2.5-13.1-3.1-19.7-2.1-7.8,1.2-14.6,5-22.6,4.3-.7,0-1,.9-.5,1.3,2.7,2.6,5.7,3.4,8.7,3.2h0ZM221.8,283.7c6-1,12.3-4.6,18.3-5,15.4-1.1,30.2,9,32.1,24.7-7.2-2.5-15.4-.3-22.8-.5-6-.1-12.4-1-17.7-4-6.6-3.8-7.8-8.8-9.9-15.2Z"/>
              </g>
            </g>
          </g>
          <g id="svga-group-eyes-right-move">
            <g id="svga-group-eyes-right">
              <g id="svga-group-eyesback-right">
                <path id="SvgjsPath5622" class="cls-16" d="M327.3,303.9s.9-7.5,3-11.4,11.1-13.2,21-15c14.7-3,27.9,5.1,27.9,5.1,0,0,0,7.2-4.5,12.3-4.2,5.1-11.7,7.8-14.7,8.1s-13.8.9-19.5,0c-3.9-.6-8.4-.6-10.2,0-1.5.6-3,.9-3,.9h0Z"/>
              </g>
              <g id="svga-group-eyesiriswrapper-right">
                <g id="svga-group-eyesiriscontrol-right">
                  <g id="svga-group-eyesiris-right">
                    <path id="SvgjsPath5878" class="cls-14" d="M354,274.5c8.1,0,14.7,6.6,14.7,14.7s-6.6,14.7-14.7,14.7-14.7-6.6-14.7-14.7,6.6-14.7,14.7-14.7Z"/>
                    <path id="SvgjsPath5879" class="cls-5" d="M354,281.4c4.2,0,7.8,3.6,7.8,7.8s-3.6,7.8-7.8,7.8-7.8-3.6-7.8-7.8,3.6-7.8,7.8-7.8Z"/>
                    <path id="SvgjsPath5880" class="cls-16" d="M352.2,282.9l-1.5-1.5c-.6-.6-1.2-.9-2.1-.9s-1.5.3-2.1.9c-.6.6-.9,1.2-.9,2.1s.3,1.5.9,2.1l1.5,1.5c.6.6,1.2.9,2.1.9s1.5-.3,2.1-.9c.9-1.5,1.2-3,0-4.2h0ZM359.4,296.1c2.4,0,2.4-3.9,0-3.9s-2.4,3.9,0,3.9Z"/>
                  </g>
                </g>
              </g>
              <g id="svga-group-eyesfront-right">
                <path id="SvgjsPath5631" class="cls-9" d="M354.8,256.6c-18.2,0-33.1,16.8-33.1,37.5s14.8,37.5,33.1,37.5,33.1-16.8,33.1-37.5-14.8-37.5-33.1-37.5h0ZM374.8,295c-4.3,5-11.8,7.8-14.8,8.2-3,.4-13.7.9-19.3-.1-4-.7-8.5-.6-10.2-.1-1.7.5-3.3,1-3.3,1,0,0,.9-7.6,3.1-11.5,2.2-3.8,11-13.1,20.8-15.1,14.8-2.9,28,5.2,28,5.2,0,0,0,7.3-4.3,12.3h0Z"/>
                <path id="SvgjsPath5634" class="cls-5" d="M388.9,280.7c.4-.5.1-1.4-.5-1.3-8,.7-14.9-3.2-22.6-4.3-6.6-1-13.5-.4-19.7,2.1-11.3,4.4-18.9,14.7-19.2,26.9,0,0,0,0,0,0,0,0,0,.1,0,.2h0c.1.2.3.3.5.1,5.1-2.8,13.7.3,19.3.6,5.9.3,12.1,0,17.7-1.9,3.8-1.2,8.4-4,11.8-7.7.9.9,1.8,1.9,2.9,2.6.3.2.7-.1.6-.5-.4-1.3-1.5-2.4-2.7-3.1.6-.8,1.2-1.6,1.7-2.4.5.2,1,.3,1.5.5,1,.5,2,1.2,3.1,1.7.4.2,1-.2.7-.7-.8-1-1.8-1.8-3-2.3-.5-.2-1-.5-1.5-.6.3-.6.5-1.3.7-1.9.6,0,1.3,0,1.9.2.9.2,1.7.6,2.6.8.5,0,.9-.5.5-.9-1.1-1.2-3.1-1.4-4.8-1.3.2-1.2.1-2.5-.2-3.8,3.1,0,6-.7,8.7-3.2h0ZM368.3,298.9c-5.3,3.1-11.7,3.9-17.7,4-7.4.2-15.6-2-22.8.5,2-15.7,16.7-25.8,32.1-24.7,5.9.4,12.3,4.1,18.3,5-2,6.4-3.2,11.4-9.9,15.2Z"/>
              </g>
            </g>
          </g>
          <g id="svga-group-eyebrows-left-move">
            <g id="svga-group-eyebrows-left-rotate">
              <g id="svga-group-eyebrows-left">
                <path id="SvgjsPath6164" class="cls-4" d="M218.7,252.6c.3-.6,1.2-.9,1.8-1.2s1.2-.6,1.8-.6c1.2-.6,2.4-1.2,3.6-1.5,1.5-.3,3.6-1.5,5.1-.6,4.8-1.8,11.1-.6,15.3,1.8,5.7.6,11.7,2.4,15.9,5.4.3.3.6.6.6.9.9.3,1.5.6,2.4.9,3,1.2,6.3,2.1,9.3,3.6.3,0,.6.3.9.3.9.3,1.2,2.1.6,2.4-.3.3-.3.6-.6.9-2.4,1.8-5.4.6-7.8-.3-2.1-.9-4.5-1.8-6-3.6-2.4-.9-4.2-2.1-6.3-3.3-.3,0-.6-.3-.9-.3-3.6-.6-7.5-2.1-11.1-3.9-2.1-.3-3.9-.9-6-.9-2.7-.3-5.4.6-8.4-.3h-.3c-.6.3-1.2.3-1.8.6-2.4.6-4.5,1.2-6.9,1.2s-.6-.3-.6-.6h-.3s-.6-.3-.3-.9h0Z"/>
                <path id="SvgjsPath6165" class="cls-19" d="M232.2,246.9c9.3-.6,18.6,4.5,27,7.8,5.1,2.1,15.6,2.7,17.7,9,.3.9-.9,1.2-1.5.6-2.7-3.6-7.2-4.2-11.4-5.4-3.6-1.2-6.9-2.4-10.5-3.9-7.2-3-14.4-4.8-21.9-6.6-.3-.3,0-1.2.6-1.5h0Z"/>
                <path id="SvgjsPath6166" class="cls-6" d="M279.9,263.7c.9-4.2-5.4-5.7-8.4-6.9-7.2-3-14.7-6.3-22.2-8.4-4.5-1.2-9.3-2.1-13.8-2.1s-6.9.3-10.5,1.5c-6,1.8-11.7,5.4-16.8,9.3-2.7,1.5-5.4,3.6-7.5,5.7-.3.3,0,.9.6.6,0,0,.3,0,.3-.3,0,.3.3.3.6.3,4.5-2.1,8.4-4.8,12.9-6.6s9.3-3,14.1-3.3h2.1c5.7,0,11.1,1.2,16.2,3.6,7.2,3.3,13.8,7.8,21,10.5,1.2.6,2.7.6,4.2.6,3.3,0,6.6-1.2,7.2-4.5h0ZM235.5,249c4.8,0,9.6,1.2,14.4,2.7,6,2.1,12,4.8,18,7.2,1.2.6,7.2,2.1,7.8,3.6.6,1.8-.6,2.4-2.4,2.7-.9,0-1.8-.3-2.4-.3-1.8-.6-3.6-1.8-5.1-2.7-9.3-4.8-18.9-10.5-29.4-11.1h-3c-3.3,0-6.9.3-10.5.9,1.5-.6,3-1.2,4.8-1.8,2.4-.9,5.1-1.2,7.8-1.2h0Z"/>
              </g>
            </g>
          </g>
          <g id="svga-group-eyebrows-right-move">
            <g id="svga-group-eyebrows-right-rotate">
              <g id="svga-group-eyebrows-right">
                <path id="SvgjsPath6167" class="cls-4" d="M381.3,252.6c-.3-.6-1.2-.9-1.8-1.2s-1.2-.6-1.8-.6c-1.2-.6-2.4-1.2-3.6-1.5-1.5-.3-3.6-1.5-5.1-.6-4.8-1.8-11.1-.6-15.3,1.8-5.7.6-11.7,2.4-15.9,5.4-.3.3-.6.6-.6.9-.9.3-1.5.6-2.4.9-3,1.2-6.3,2.1-9.3,3.6-.3,0-.6.3-.9.3-.9.3-1.2,2.1-.6,2.4.3.3.3.6.6.9,2.4,1.8,5.4.6,7.8-.3,2.1-.9,4.5-1.8,6-3.6,2.4-.9,4.2-2.1,6.3-3.3.3,0,.6-.3.9-.3,3.6-.6,7.5-2.1,11.1-3.9,2.1-.3,3.9-.9,6-.9,2.7-.3,5.4.6,8.4-.3h.3c.6.3,1.2.3,1.8.6,2.4.6,4.5,1.2,6.9,1.2s.6-.3.6-.6h.3s.6-.3.3-.9h0Z"/>
                <path id="SvgjsPath6168" class="cls-19" d="M367.8,246.9c-9.3-.6-18.6,4.5-27,7.8-5.1,2.1-15.6,2.7-17.7,9-.3.9.9,1.2,1.5.6,2.7-3.6,7.2-4.2,11.4-5.4,3.6-1.2,6.9-2.4,10.5-3.9,7.2-3,14.4-4.8,21.9-6.6.3-.3,0-1.2-.6-1.5h0Z"/>
                <path id="SvgjsPath6169" class="cls-6" d="M327,267.9c1.5,0,3-.3,4.2-.6,7.2-2.7,14.1-7.2,21-10.5,5.4-2.4,10.8-3.6,16.2-3.6h2.1c4.8.3,9.6,1.5,13.8,3.3,4.5,1.8,8.7,4.8,12.9,6.6.3,0,.6,0,.6-.3,0,0,.3,0,.3.3.6.3.9-.3.6-.6-2.1-2.1-4.8-4.2-7.5-5.7-5.1-3.9-10.8-7.2-16.8-9.3-3.3-1.2-6.9-1.5-10.5-1.5s-9.3.9-13.8,2.1c-7.5,2.1-15,5.4-22.2,8.4-2.7,1.2-9.3,2.7-8.4,6.9,1.2,3.6,4.5,4.8,7.5,4.5h0ZM372.6,250.2c1.5.6,3.3.9,4.8,1.8-3.6-.6-6.9-.9-10.5-.9h-3c-10.5.6-20.4,6.6-29.4,11.1-1.8.9-3.3,2.1-5.1,2.7-.6.3-1.5.3-2.4.3-1.5,0-3-.6-2.4-2.7.6-1.5,6.6-3,7.8-3.6,6-2.4,12-5.1,18-7.2,4.8-1.5,9.6-2.7,14.4-2.7s5.1.3,7.8,1.2h0Z"/>
              </g>
            </g>
          </g>
          <g id="svga-group-nose-single-move">
            <g id="svga-group-nose-single">
              <path id="SvgjsPath8490" class="cls-13" d="M293.2,274.1c-2.4,10-2.7,20.7-3.8,30.9-1.1,10.9-3.2,22.2-3.1,33.2,0,.9,1.3,1.1,1.6.2,2.2-10,2.5-20.7,3.5-30.9,1.1-10.9,3.2-22.2,2.8-33.2,0-.6-.8-.7-1-.2Z"/>
              <path id="SvgjsPath8491" class="cls-13" d="M284.1,332.4c-2.9,3.9-5.4,8.2-7.6,12.6-1.4,2.8-3.1,6.2-2.2,9.5,1.5,5.4,8.4,7.1,12.8,4.5,1.3-.8.7-2.8-.8-2.8-2.6,0-5.7.8-7.7-1.4-2.5-2.7,0-7.5,1.1-10.2,1.7-4,3.7-7.8,5.2-11.8.2-.6-.6-.8-.9-.4h0Z"/>
              <path id="SvgjsPath8492" class="cls-13" d="M283.7,354.6c8.1-.6,9.6,9.6,17.3,9.8,6.6.2,7.1-9.7,13.4-9.4.7,0,1-1,.4-1.3-7.1-4.2-8.4,8.2-15,7.4-3.9-.5-6.6-6.2-10.1-7.8-2.4-1.1-4.1-1-6.4,0-.6.3-.3,1.4.4,1.3h0Z"/>
              <path id="SvgjsPath8493" class="cls-13" d="M312.2,359.2c5.3,1.2,11.5-.5,12.8-6.4s-.4-5.9-1.9-8.4c-2.5-4.1-5.8-7.6-8.2-11.8-.4-.7-1.4-.4-1.4.4-.3,4.8,3.2,8.1,5.8,11.8,2.3,3.4,4.3,8.1.4,11.4-1.8,1.5-5.2,1.3-7.4,1.7-.7.2-.7,1.3,0,1.4h0Z"/>
              <path id="SvgjsPath8494" class="cls-8" d="M307,343.2c-1.2-2.1-4.2-2.4-5.9-.8s-.7.8-.8,1c-.2.2-.6.8-.6.8-.2.3-.4.6-.5.9l-.3.8s0,0,0,.2c-.2.2-.4.4-.5.6-.5.5-1,1.1-1.4,1.7-1.2,1.9-.2,4,1.4,5.2,2.5,1.9,6.1.4,7.8-1.7,2.1-2.5,2.7-5.8,1-8.7Z"/>
            </g>
          </g>
          <g id="svga-group-hair-front">
            <path id="SvgjsPath7695" class="cls-1" d="M429.3,237.9c-2.7,23.1-8.4,45-14.4,55.8,0,0-.9-42.9-11.1-63.3s-40.2-43.8-43.8-60.9c0,0,4.5,9.9,11.4,14.1s30.9,22.8,36.6,29.1,15,21.9,18.9,24c.3.3,1.5.6,2.4,1.2ZM200.7,407.1c0,1.8-.6,6.6-1.5,13.5-2.1-19.8-6.3-41.7-6.3-41.7,0,0-90.6,133.5-78.6,177.6s36.3,74.7,38.7,77.1c2.4,2.4,12,5.7,16.2,13.5,1.5,3,31.5-26.4,16.8-61.8-14.4-35.4-17.7-59.4-5.7-78,2.1-3.3,3.9-6.9,5.7-10.5-2.4,12.9-4.5,23.1-5.1,26.1-2.7,10.5-2.7,25.5,4.5,42,7.2,16.5,18.3,17.4,18.3,17.4-5.1-8.1-5.4-21.9-.6-36.3s12.6-28.5,16.8-43.5c4.5-15.6,6.6-34.2-8.1-65.1-8.1-18.3-11.1-30.3-11.1-30.3h0Z"/>
            <path id="SvgjsPath7696" class="cls-15" d="M360,169.5s-54.6,20.4-98.4,5.1-72,45.3-68.4,81.3,28.2,83.1,13.8,141.3-56.4,102.6-68.4,128.4-12,52.2,0,71.1,18,32.4,21.3,52.2c0,0-4.5-10.8-22.2-24-27.9-20.7-39.3-45.3-37.5-83.7s18.6-68.4,33.3-99.3c14.4-30.9,21.9-69.9,11.7-95.7-10.2-25.8-21.9-61.5-17.7-125.1,4.2-63.3,39.3-97.2,83.1-123s107.1-21,147.3,3.9,34.2,47.1,34.2,47.1c0,0,12-6,30,21.3s6,100.2-6.9,123.3c0,0-.9-42.9-11.1-63.3s-40.5-43.8-44.1-60.9Z"/>
            <path id="SvgjsPath7697" class="cls-1" d="M382.8,150.6c-6.9,4.5-14.1,4.5-18.3,2.4-12.3-5.4-22.2-24-32.4-35.1-17.1-18.6-21.6-28.2-60.9-30.3-27.9-1.5-50.1,5.7-63,11.4-42.6,25.5-76.5,59.4-80.7,121.8-4.2,63.3,7.2,99.3,17.7,125.1s2.7,64.8-11.7,95.7c-14.4,30.9-31.5,60.9-33.3,99.3s9.9,63,37.5,83.7c17.7,13.2,22.2,24,22.2,24-4.8-13.5-12-18.9-26.1-31.8-14.4-12.9-28.2-49.2-25.2-76.8s29.1-75,41.4-94.2,22.2-52.2,26.4-69.9c4.2-17.7.6-32.4-11.7-62.7s-18.9-109.5-16.8-123c3.3-24.9,9.3-42,28.2-61.8,28.2-29.4,64.8-33.9,86.7-34.2,35.4-.3,60,23.1,64.5,29.7s31.5,35.7,38.4,36.9c6.9,1.2,24-10.2,24-10.2l2.1-1.8s.9-3,0-7.8c-1.5,2.7-4.5,6.6-9,9.6h0ZM306.6,180c.9,0,2.1,0,3-.3.6,0,1.5,0,2.4-.3,1.2,0,2.7-.3,3.9-.3s1.5-.3,2.4-.3,2.1-.3,3-.3,1.8-.3,2.7-.3,1.8-.3,2.7-.3,1.2-.3,1.8-.3c1.2-.3,2.4-.6,3.6-.6s1.2-.3,1.8-.3c1.2-.3,2.4-.6,3.3-.6s.9-.3,1.2-.3c.9-.3,1.8-.6,2.7-.6s.6,0,.9-.3c1.2-.3,2.4-.6,3.3-.9.3,0,.6,0,.9-.3,1.2-.3,2.1-.6,3.3-.9,6.6-1.8,10.5-3.3,10.5-3.3,0,0-15,1.8-32.7-16.5-6.9-11.1-18.3-31.5-36-38.4-20.4-8.1-88.5-11.7-111.6,37.5s-8.1,91.5,1.8,112.2,25.5,60.3,24.9,86.1c-.6,26.1-6.9,63-13.8,79.2-6.9,16.2-52.8,73.2-62.4,99.9-9.9,27.9-13.2,46.8,10.5,84.9,9,14.7,15,18.9,17.4,24.3-3.6-15-9.3-27-19.5-42.6-12-18.9-12-45.3,0-71.1s54-70.2,68.4-128.4-10.2-105.3-13.8-141.3,24.9-96.6,68.4-81.3c5.7,2.1,11.7,3.3,17.4,4.2h.3c.6,0,1.2.3,2.1.3s2.4.3,3.6.3,1.8,0,2.4.3c1.2,0,2.4.3,3.9.3h12.3c.9.9,2.1.9,3,.6h0Z"/>
            <path id="SvgjsPath7698" class="cls-15" d="M189.9,445.8s-7.8,19.8-27.9,44.1c-26.7,32.1-32.1,52.2-22.2,77.4,9.9,25.2,23.4,38.4,27.9,49.5s3.3,22.8,3.3,22.8c0,0,5.7-12.3,3.3-21.6-2.1-9.3-22.2-41.7-25.2-60s.3-38.7,12.6-56.1c10.5-14.7,22.8-34.8,28.2-56.1h0ZM195.6,450.3s-7.5,34.8-18,52.2c-10.5,17.4-13.8,39-6,57.3s22.8,42.3,21.6,58.2c0,0,10.2-19.2.6-39s-12.9-49.2-5.1-69.3c7.8-19.8,8.7-45.6,6.9-59.4h0Z"/>
            <path id="SvgjsPath7699" class="cls-2" d="M279.3,179.1c.9,0,1.5.3,2.1.3,1.2,0,2.4.3,3.6.3s1.8,0,2.4.3c1.2,0,2.4.3,3.9.3h4.5c-7.2-3-15.6-7.8-22.8-16.2-14.4-17.7-25.5-25.8-48.6-23.4s-47.4,33.6-45.9,66.3c1.5,32.4,12,53.1,18.6,70.8-1.8-7.8-3.3-15-3.9-21.9-3.3-36,24.9-96.6,68.4-81.3,6,2.1,11.7,3.3,17.7,4.5h0Z"/>
          </g>
        </g>
      </g>
    </g>
    <rect id="svga-credit-rect" class="cls-3" y="555" width="600" height="45"/>
    <g id="svga-credit-text" class="cls-21">
      <text class="cls-20" transform="translate(100.2 586.8)"><tspan x="0" y="0">Created on AvatarMaker.com</tspan></text>
    </g>
  </g>
</svg>