<?xml version="1.0" encoding="UTF-8"?>
<svg id="Layer_1" data-name="Layer 1" xmlns="http://www.w3.org/2000/svg" version="1.1" viewBox="0 0 600 600">
  <defs>
    <style>
      .cls-1 {
        fill: #f5f7ff;
      }

      .cls-1, .cls-2, .cls-3, .cls-4, .cls-5, .cls-6, .cls-7, .cls-8, .cls-9, .cls-10, .cls-11, .cls-12, .cls-13, .cls-14, .cls-15, .cls-16, .cls-17, .cls-18, .cls-19, .cls-20, .cls-21, .cls-22, .cls-23, .cls-24 {
        stroke-width: 0px;
      }

      .cls-2 {
        opacity: .6;
      }

      .cls-2, .cls-3, .cls-7, .cls-25, .cls-26, .cls-24 {
        isolation: isolate;
      }

      .cls-2, .cls-22 {
        fill: #d19271;
      }

      .cls-3 {
        fill: #ecf0f1;
        opacity: .5;
      }

      .cls-3, .cls-26 {
        display: none;
      }

      .cls-4 {
        fill: #f8d5c3;
      }

      .cls-5 {
        fill: #3a353a;
      }

      .cls-6 {
        fill: #abb5e0;
      }

      .cls-7 {
        opacity: .7;
      }

      .cls-7, .cls-23, .cls-24 {
        fill: #fff;
      }

      .cls-25 {
        fill: #333;
        font-family: AvenirNext-Regular, 'Avenir Next';
        font-size: 30px;
      }

      .cls-8 {
        fill: #1b141c;
      }

      .cls-9 {
        fill: #000;
      }

      .cls-10 {
        fill: #a44974;
      }

      .cls-11 {
        fill: #26120b;
      }

      .cls-12 {
        fill: #852150;
      }

      .cls-13 {
        fill: #ced5f0;
      }

      .cls-14 {
        fill: #070201;
      }

      .cls-15 {
        fill: #cb5f6c;
      }

      .cls-16 {
        fill: #e1ac8f;
      }

      .cls-17 {
        fill: #da7c87;
      }

      .cls-18 {
        fill: #2a232b;
      }

      .cls-19 {
        fill: #f0c7b1;
      }

      .cls-20 {
        fill: #4e60a3;
      }

      .cls-21 {
        fill: #c27b55;
      }

      .cls-24 {
        opacity: .3;
      }
    </style>
  </defs>
  <g id="svga-group-wrapper">
    <g id="svga-group-backs-single">
      <path id="SvgjsPath5449" class="cls-1" d="M0,0h600v600H0V0Z"/>
      <path id="SvgjsPath5450" class="cls-13" d="M496.5,71.1c35.1,0,63.3,28.5,63.3,63.3s-28.2,63.6-63.3,63.6-63.3-28.5-63.3-63.3,28.2-63.6,63.3-63.6ZM264.6,330.6c35.1,0,63.3,28.5,63.3,63.3s-28.5,63.3-63.3,63.3-63.3-28.5-63.3-63.3,28.2-63.3,63.3-63.3h0ZM151.2,477.3c27.3,0,49.8,22.2,49.8,49.8s-22.2,49.8-49.8,49.8-49.8-22.2-49.8-49.8,22.5-49.8,49.8-49.8h0ZM150.3,78.9c27.3,0,49.8,22.2,49.8,49.8s-22.2,49.8-49.8,49.8-49.8-22.5-49.8-50.1,22.2-49.5,49.8-49.5h0ZM331.2,57.3c8.1,0,14.4,6.6,14.4,14.4s-6.6,14.4-14.4,14.4-14.4-6.6-14.4-14.4,6.3-14.4,14.4-14.4ZM56.7,348.6c8.1,0,14.4,6.6,14.4,14.4s-6.6,14.4-14.4,14.4-14.4-6.6-14.4-14.4,6.3-14.4,14.4-14.4ZM416.7,331.5c14.4,0,26.4,11.7,26.4,26.4s-11.7,26.4-26.4,26.4-26.4-11.7-26.4-26.4,12-26.4,26.4-26.4Z"/>
      <path id="SvgjsPath5451" class="cls-6" d="M305.4,136.2c42.6,0,77.4,34.5,77.4,77.4s-34.8,77.4-77.4,77.4-77.4-34.8-77.4-77.4,34.5-77.4,77.4-77.4h0ZM370.2,489.3c22.5,0,40.8,18.3,40.8,40.8s-18.3,40.8-40.8,40.8-40.8-18.3-40.8-40.8,18-40.8,40.8-40.8ZM104.4,381.6c21.6,0,39,17.4,39,38.7s-17.4,38.7-39,38.7-39-17.4-39-38.7,17.4-38.7,39-38.7h0ZM165,266.4c6.3,0,11.4,5.1,11.4,11.4s-5.1,11.4-11.4,11.4-11.4-5.1-11.4-11.4,5.1-11.4,11.4-11.4ZM299.7,501.6c6.3,0,11.4,5.1,11.4,11.4s-5.1,11.4-11.4,11.4-11.4-5.1-11.4-11.4,5.1-11.4,11.4-11.4ZM539.4,255.3c6.3,0,11.4,5.1,11.4,11.4s-5.1,11.4-11.4,11.4-11.4-5.1-11.4-11.4,5.1-11.4,11.4-11.4ZM200.1,49.5c6.3,0,11.4,5.1,11.4,11.4s-5.1,11.4-11.4,11.4-11.4-5.1-11.4-11.4,5.1-11.4,11.4-11.4ZM59.7,36.6c8.1,0,14.4,6.6,14.4,14.4s-6.6,14.4-14.4,14.4-14.4-6.6-14.4-14.4,6.3-14.4,14.4-14.4ZM46.5,540c8.1,0,14.4,6.6,14.4,14.4s-6.6,14.4-14.4,14.4-14.4-6.6-14.4-14.4,6.6-14.4,14.4-14.4ZM447.3,231.6c14.1,0,25.2,11.4,25.2,25.2s-11.4,25.2-25.2,25.2-25.2-11.4-25.2-25.2,11.1-25.2,25.2-25.2ZM437.4,15c14.1,0,25.2,11.4,25.2,25.2s-11.4,25.2-25.2,25.2-25.2-11.4-25.2-25.2,11.1-25.2,25.2-25.2ZM105.9,210.9c14.4,0,26.4,11.7,26.4,26.4s-11.7,26.4-26.4,26.4-26.4-11.7-26.4-26.4,12-26.4,26.4-26.4ZM489.3,387.6c42,0,75.9,33.9,75.9,75.9s-33.9,75.9-75.9,75.9-75.9-33.9-75.9-75.9,34.2-75.9,75.9-75.9Z"/>
    </g>
    <g id="svga-group-humanwrap-move">
      <g id="svga-group-humanwrap">
        <g id="svga-group-humanbody-back">
          <path id="SvgjsPath5164" class="cls-19" d="M499.5,543.3c-32.7-19.8-82.8-25.2-105-36.3-14.7-7.5-27.3-14.1-26.7-53.4s5.7-127.2,5.7-127.2h-147.3s4.8,88.2,5.7,127.2-12.6,46.8-26.7,53.4c-22.2,10.5-72.3,16.2-105,36.3-32.4,19.8-30,56.7-30,56.7v59.1h459.9v-59.1c-.3,0,2.1-36.9-30.6-56.7h0Z"/>
        </g>
        <g id="svga-group-chinshadow-single">
          <path id="SvgjsPath5160" class="cls-2" d="M231.6,467.7c20.7,24.9,39.9,46.2,51.6,44.4,0,0,13.2-2.7,16.8-2.7s16.8,3,16.8,3c11.7,1.8,30.6-19.5,51.6-44.4-.3-4.2-.6-9-.6-14.4.6-39.3,5.7-127.2,5.7-127.2h-147.3s4.8,88.2,5.7,127.2c0,5.1,0,9.9-.3,14.1h0Z"/>
        </g>
        <g id="svga-group-humanbody-front">
          <path id="SvgjsPath5165" class="cls-22" d="M236.1,470.4c1.5,14.4,5.1,28.2,9.3,41.7,2.4,6.9,4.8,13.8,7.8,20.7,2.4,6,5.1,12.6,9.3,17.7.9,1.2,3,0,2.7-1.5-1.5-6.6-4.8-12.9-7.2-19.2-2.7-6.6-5.1-13.2-7.5-19.8-4.5-13.2-8.4-26.7-12.3-39.9-.6-1.2-2.4-.9-2.1.3h0ZM360,467.4c-3.9,24.6-11.7,48.3-16.2,72.6-.3,1.2,1.2,1.5,1.8.6,9.3-23.1,12.3-48.3,15.3-72.9-.3-.6-.9-.6-.9-.3h0ZM282.6,503.1c-2.7,10.8,5.7,25.8,18.6,22.8,1.5-.3,1.2-2.4,0-3-4.2-1.5-8.7-2.7-11.7-6.3-3.3-3.6-4.5-8.7-4.2-13.5,0-1.2-2.4-1.5-2.7,0h0Z"/>
          <path id="SvgjsPath5166" class="cls-21" d="M531.9,659.1c-.3-19.8-.9-39.3-.9-59.1l-.9-.9q.3,0,.6.3c.3.3.3.6.3.3v-4.2c0-1.5-.3-2.7-.3-4.2-.3-2.7-.9-5.7-1.5-8.4-1.5-5.4-3.3-10.8-6-15.9-5.1-10.2-13.2-18.6-23.1-24.3-10.8-6.6-22.8-11.4-34.8-15.3s-24.3-7.2-36.3-10.5c-12-3.6-24.3-6.6-35.4-12.6-5.7-3-10.8-6.3-14.4-10.8-3.6-4.8-5.7-10.5-6.9-16.5-2.4-12-1.2-24.6-.9-37.2l2.1-37.8,4.5-75.6.3-4.2h-4.2c-24.6,0-49.2,0-73.8.3l-73.8.9h-2.7l.3,2.7c2.4,35.7,4.8,71.4,6.3,107.1.3,9,.9,18,.6,26.7-.3,8.7-1.2,17.7-4.8,25.8-1.8,3.9-4.2,7.5-7.2,10.5s-6.9,5.4-10.8,7.2c-7.8,3.9-16.2,6.6-24.9,9-17.4,4.5-34.8,8.4-51.9,14.1-8.4,2.7-17.1,6-25.2,10.2-3.9,2.1-8.1,4.2-12,7.2-3.9,2.7-7.2,5.7-10.5,9.3-6.3,6.9-10.8,15.6-13.5,24.3-1.5,4.5-2.4,9-3,13.8s-.3,4.8-.3,7.2v6.9l-.6,53.7v3.9h4.2l114.9.6c38.4.3,76.5.3,114.9,0s76.8-.3,114.9-.9c38.4-.6,76.8-1.5,114.9-2.1h1.8v-1.5h0ZM300.3,654.3h-114.9l-111,.6-.3-49.8v-6.6c0-2.1,0-4.2.3-6.3.3-4.2,1.2-8.4,2.4-12.6,2.4-8.1,6.3-15.9,11.7-22.5,2.7-3.3,6-6.3,9.3-8.7,3.3-2.7,7.2-4.8,11.1-6.9,7.8-4.2,15.9-7.5,24.3-10.5,16.8-6,34.2-10.2,51.3-15.3,8.7-2.4,17.4-5.1,25.5-9.3,3.9-2.1,8.1-4.5,11.4-7.8,3.3-3.3,6-7.2,7.8-11.7,3.6-8.7,4.5-17.7,4.8-26.7,0-9-.3-18-.6-27l-3.9-104.4,70.5,1.2c23.1.3,46.2.3,69.3.3-1.2,23.7-2.4,47.7-3.3,71.4-.6,12.6-.6,25.2-.9,37.8,0,12.6-.6,25.5,2.4,38.4,1.5,6.3,3.9,12.6,8.4,18,4.2,5.1,10.2,8.7,15.9,11.4,11.7,5.7,24,8.4,36.3,11.4s24.6,6,36.6,9.9,23.7,8.4,34.5,15c9.6,5.7,17.4,14.1,22.5,24,2.7,4.8,4.5,10.2,5.7,15.6.6,2.7,1.2,5.4,1.2,8.1.3,1.5.3,2.7.3,4.2v4.5l-.9,57c-37.8-.6-75.3-1.5-113.1-2.1-38.1-.3-76.5-.3-114.6-.6h0Z"/>
        </g>
        <g id="svga-group-clothes-single">
          <path id="SvgjsPath6515" class="cls-10" d="M537.9,660.3c0-52.5-4.8-80.1-4.8-80.1-9-42-65.7-54.6-92.1-60.3-45.6-9-60.3-21.6-60.3-21.6,0,0-19.2,48-82.5,48s-80.4-49.8-80.4-49.8c0,0-15.9,12.3-63.6,21.3-26.1,5.7-78.9,20.7-87.9,62.7,0,0-4.8,27.6-4.8,80.1h476.4v-.3Z"/>
          <path id="SvgjsPath6516" class="cls-12" d="M538.8,627.6c-.3-10.8-.6-21.9-1.5-32.7l-.9-8.1c-.3-2.7-.6-5.4-1.2-8.4-1.2-5.7-3.3-10.8-6.3-15.9-5.7-9.9-14.7-17.7-24-23.7-9.6-6-19.8-10.5-30.3-14.1s-21.3-6.3-31.8-8.7c-10.5-2.1-21-4.8-31.2-8.1-5.1-1.8-9.9-3.6-14.7-5.7-2.4-1.2-4.8-2.1-7.2-3.3-1.2-.6-2.4-1.2-3.3-1.8-.9-.6-2.1-1.5-3-1.8-.3-.3-.6-.3-.9-.6-2.1-.9-4.5,0-5.4,2.1-1.5,3.3-3.6,6.9-5.7,10.2-2.4,3.3-4.8,6.3-7.5,9.3-5.4,5.7-11.7,10.8-18.6,15-13.8,8.1-30.3,12-46.5,12.3s-33-3-47.1-11.4-25.8-21.3-32.1-36.3c0,0,0-.3-.3-.3-.6-.6-1.5-.9-2.1-.3-4.2,3-9.3,5.4-14.1,7.2-5.1,2.1-10.2,3.9-15.3,5.4-10.5,3.3-21,5.7-31.5,7.8-21.3,4.5-42.9,10.5-61.8,22.8-9.3,6-18,13.8-23.7,23.7-3,4.8-5.1,10.2-6.6,15.9-.3.6-.3,1.5-.6,2.1l-.3,2.1-.6,4.2-.9,8.1c-2.4,21.9-3.3,43.8-3.6,65.7,0,2.1,1.8,4.2,3.9,4.2l120,.6c39.9,0,80.1-.3,119.7-.6l119.4-.9,110.7-1.8,6.6-1.2c.3-11.4.3-21.9.3-33h0ZM477.3,658.8l-60-.9-119.1-1.5c-39.6-.3-78.9-.6-118.2-.6l-114,.6c0-20.4.3-40.8,2.1-60.9l.9-8.1.3-3.9.3-2.1c0-.6.3-1.2.3-1.8,1.2-4.8,3-9.9,5.4-14.4,5.1-9,12.6-16.8,21.3-22.8s18.6-10.8,28.5-14.7,20.4-6.9,31.2-9,21.3-4.8,31.8-8.1c5.1-1.8,10.5-3.6,15.6-5.7,4.5-1.8,9-3.9,13.5-6.6,3.3,7.5,7.5,14.1,12.6,20.4,5.4,6.6,12,12.3,19.5,16.8,14.7,9.3,32.1,13.2,49.2,13.5,17.1.3,34.8-3,50.1-11.4,7.8-4.2,14.7-9.6,20.7-15.9,5.1-5.4,9.3-10.8,12.9-17.4,1.2.6,2.4,1.5,3.6,2.1,2.4,1.2,5.1,2.7,7.5,3.6,5.1,2.4,10.2,4.2,15.6,6,10.5,3.3,21.3,6,32.1,8.1,21,4.2,42,9.9,60.3,20.7,9,5.4,17.1,12.3,22.8,21,2.7,4.2,4.8,9.3,6.3,14.1.6,2.4.9,5.1,1.2,7.8l.9,8.1c1.2,10.8,2.4,21.6,3,32.4s1.2,21.9,1.8,32.4l-60-1.8h0ZM114.9,565.5c4.2,9.6,7.2,19.5,9.6,29.7,1.2,5.1,2.4,10.2,3.3,15.3.9,5.1,1.8,10.2,2.7,15.6,1.5,9.6,3,19.2,4.2,28.8h.6c.6-9.6.6-19.5,0-29.4-.9-10.5-2.4-21.3-4.8-31.8-1.2-5.1-2.7-10.5-4.5-15.6s-3.9-10.2-6.6-14.7c-2.4-4.8-5.4-9.3-9-13.5-3-3.3-6-6.6-9.6-9.3-.3,0-.3.3-.6.3,3,3.3,5.4,6.9,7.8,10.5,2.4,4.5,4.8,9.3,6.9,14.1ZM469.8,625.8c.9-5.1,1.8-10.5,2.7-15.6.9-5.1,1.8-10.2,3.3-15.3,2.4-10.2,5.4-20.1,9.6-29.7,2.1-4.8,4.5-9.3,7.2-13.8,2.1-3.3,4.5-6.9,7.2-9.9-.3-.3-.6-.3-.6-.6-3.3,2.4-6.3,5.4-9,8.7-3.3,4.2-6.3,8.7-9,13.5s-4.8,9.6-6.6,14.7c-1.8,5.1-3.3,10.2-4.5,15.6-2.4,10.5-3.9,21-4.8,31.8-.6,10.5-.9,21.3,0,31.8,1.5-10.5,3-20.7,4.5-31.2h0ZM348,551.4c-15.6,8.7-33.9,11.7-51.9,10.5-4.5-.3-9-.6-13.5-1.2s-8.7-1.5-13.2-2.7c-4.2-1.2-8.4-2.7-12.6-4.5-3.9-1.8-8.1-3.9-11.7-6.3-7.5-4.8-14.4-10.8-20.1-17.4-6-6.6-11.1-14.1-15-21.9,6,16.8,17.4,32.1,32.7,42.9,7.5,5.4,16.2,9.6,25.2,12.3,4.5,1.2,9.3,2.4,13.8,3,4.8.6,9.3,1.2,14.1,1.2,9.3.3,18.9,0,28.2-2.1s18.3-5.4,26.4-10.2c8.1-4.8,15.3-10.8,21.6-17.4s12-13.8,16.8-21.3c-12,13.5-24.9,26.4-40.8,35.1h0Z"/>
        </g>
        <g id="svga-group-head">
          <g id="svga-group-ears-left-move">
            <g id="svga-group-ears-left">
              <path id="SvgjsPath5063" class="cls-19" d="M186,278.7c-.6-.9-9.9-12.9-17.7-20.1-7.8-7.2-10.2-7.2-13.8-2.7-3.9,4.5-8.7,27.3-7.5,37.2,1.2,10.2,10.8,26.1,15.6,35.1,5.1,9,9.9,20.1,15.3,18.9,5.7-1.2,13.2-13.8,17.1-23.1,3.9-9.3,1.5-32.4-9-45.3h0Z"/>
              <path id="SvgjsPath5064" class="cls-16" d="M197.4,306c.3,2.7.6,5.1.6,7.8s0,5.1-.6,7.8c-.3,1.2-.6,2.7-.9,3.9-.3,1.2-.9,2.1-1.2,3.3-.9,2.1-1.8,4.2-3,6.3-2.1,3.9-4.5,7.8-7.8,10.8-1.5,1.5-3.3,3-5.4,3.9-1.2.3-2.7.3-3.9,0-1.2-.6-2.4-1.5-3.3-2.4-3.6-3.9-5.7-8.4-8.1-12.9-2.1-4.5-4.5-8.7-6.6-12.9-2.1-4.5-4.5-8.7-6.3-13.2-.9-2.4-2.1-4.5-2.7-6.9-.9-2.4-1.5-4.8-1.8-7.5-.6-5.1,0-10.2.3-15,.6-4.8,1.5-9.6,2.4-14.4.6-2.4,1.2-4.8,2.4-6.9l.9-1.8c.3-.6.9-1.2,1.2-1.5.6-.9,1.5-1.8,2.7-2.4.9-.6,2.4-.9,3.6-.9,1.2.3,2.4.9,3.3,1.5,2.1,1.2,3.6,3,5.4,4.5,6.6,6.6,12,14.4,17.7,21.6,5.7,7.2,9.6,17.1,11.1,27.3h0ZM167.1,259.2c-3.3-2.7-7.2-5.7-9.3-3.6-.6.3-1.2,1.2-1.8,1.8l-.9.9c-.3.3-.3.9-.6,1.2-.9,1.8-1.5,3.9-2.4,6-1.5,4.2-2.7,8.7-3.3,13.5-.9,4.5-1.5,9.3-1.2,14.1.3,2.4.9,4.8,1.8,6.9.9,2.4,1.8,4.5,2.7,6.6,2.1,4.5,4.5,8.4,6.9,12.6,2.4,4.2,5.1,8.1,7.5,12.3,1.2,2.1,2.4,4.2,3.6,6s2.4,3.9,3.9,5.1c1.5,1.2,2.7,1.8,3.9,1.2,1.5-.6,2.7-1.8,4.2-3.3,2.7-3,4.8-6.3,6.9-10.2,1.2-1.8,2.1-3.9,3-5.7.6-.9.9-2.1,1.2-3l.6-1.5c0-.6.3-.9.3-1.5.9-4.2,1.2-9,.9-13.8s-1.2-9.6-2.7-14.4c-1.5-4.8-3.6-9-6.6-12.6-5.7-6.3-12-12.9-18.6-18.6h0Z"/>
              <path id="SvgjsPath5065" class="cls-22" d="M153.6,298.2c-.9-6.9-1.5-23.4,2.4-28.8,6.6-8.7,18,19.2,20.7,27.9,0,.3.3.6.3.9.6.9-.3,2.1-1.2,1.8-1.2-.6-2.7-1.8-3.9-2.4-3.3-1.5-4.8,1.5-3.9,5.4,1.2,5.4,4.2,8.7,6.6,12.9.3.6,0,1.2-.6.9-4.8-2.7-10.5-13.5-9.3-19.8.9-6,5.7-5.4,9.3-2.4-2.1-5.1-4.5-9.9-7.5-14.4-1.8-2.7-3.6-6-6.6-6.6-3.6-.6-3,.9-3.6,5.4-2.4,14.4-.9,31.2,7.5,43.5.3.3,0,.6-.3.3-5.4-6.9-9-14.7-9.9-24.6h0Z"/>
            </g>
          </g>
          <g id="svga-group-ears-right-move">
            <g id="svga-group-ears-right">
              <path id="SvgjsPath5066" class="cls-19" d="M414,278.7c.6-.9,9.9-12.9,17.7-20.1,7.8-7.2,10.2-7.2,13.8-2.7,3.9,4.5,8.7,27.3,7.5,37.2s-10.8,26.1-15.6,35.1c-5.1,9-9.9,20.1-15.3,18.9-5.7-1.2-13.2-13.8-17.1-23.1s-1.5-32.4,9-45.3h0Z"/>
              <path id="SvgjsPath5067" class="cls-16" d="M414,278.7c5.7-7.2,11.4-15,17.7-21.6,1.5-1.5,3.3-3.3,5.4-4.5.9-.6,2.1-1.2,3.3-1.5,1.2-.3,2.7.3,3.6.9.9.6,1.8,1.5,2.7,2.4.3.3.6.9,1.2,1.5l.9,1.8c.9,2.1,1.8,4.5,2.4,6.9,1.2,4.8,2.1,9.6,2.4,14.4.6,4.8.9,9.9.3,15-.3,2.7-1.2,5.1-1.8,7.5-.9,2.4-1.8,4.8-2.7,6.9-2.1,4.5-4.2,9-6.3,13.2-2.4,4.5-4.5,8.7-6.6,12.9-2.4,4.2-4.2,9-8.1,12.9s-2.1,1.8-3.3,2.4-2.7.6-3.9,0c-2.4-.9-3.9-2.4-5.4-3.9-3-3.3-5.4-6.9-7.8-10.8-1.2-2.1-2.1-4.2-3-6.3-.6-1.2-.9-2.1-1.2-3.3-.3-1.2-.9-2.4-.9-3.9-.3-2.7-.6-5.1-.6-7.8s.3-5.1.6-7.8c1.2-10.2,5.1-20.1,11.1-27.3h0ZM414.3,279c-3,3.6-5.1,8.1-6.6,12.6-1.5,4.8-2.4,9.6-2.7,14.4-.3,4.8,0,9.6.9,13.8,0,.6.3.9.3,1.5l.6,1.5c.3.9.9,2.1,1.2,3,.9,2.1,1.8,3.9,3,5.7,2.1,3.6,4.5,7.2,6.9,10.2,1.2,1.5,2.7,2.7,4.2,3.3,1.2.6,2.4,0,3.9-1.2s2.7-3,3.9-5.1c1.2-1.8,2.4-3.9,3.6-6,2.4-4.2,5.1-8.4,7.5-12.3,2.4-4.2,4.8-8.4,6.9-12.6,1.2-2.1,2.1-4.5,2.7-6.6.9-2.4,1.5-4.8,1.8-6.9.3-4.8-.3-9.6-1.2-14.1-.9-4.5-2.1-9-3.3-13.5-.6-2.1-1.5-4.2-2.4-6-.3-.3-.3-.9-.6-1.2-.3-.3-.3-.6-.9-.9-.6-.6-1.2-1.5-1.8-1.8-2.1-1.8-6,1.2-9.3,3.6-6.6,4.5-12.9,11.1-18.6,18.6Z"/>
              <path id="SvgjsPath5068" class="cls-22" d="M446.4,298.2c.9-6.9,1.5-23.4-2.4-28.8-6.6-8.7-18,19.2-20.7,27.9,0,.3-.3.6-.3.9-.6.9.3,2.1,1.2,1.8,1.2-.6,2.7-1.8,3.9-2.4,3.3-1.5,4.8,1.5,3.9,5.4-1.2,5.4-4.2,8.7-6.6,12.9-.3.6,0,1.2.6.9,4.8-2.7,10.5-13.5,9.3-19.8-.9-6-5.7-5.4-9.3-2.4,2.1-5.1,4.5-9.9,7.5-14.4,1.8-2.7,3.6-6,6.6-6.6,3.6-.6,3,.9,3.6,5.4,2.4,14.4.9,31.2-7.5,43.5-.3.3,0,.6.3.3,5.4-6.9,9-14.7,9.9-24.6h0Z"/>
            </g>
          </g>
          <g id="svga-group-faceshape-wrap">
            <g id="svga-group-faceshape-single">
              <path id="SvgjsPath5145" class="cls-19" d="M429.6,246v-.9c-3.9-89.7-62.1-139.2-129.6-139.2s-125.7,49.2-129.6,139.2v.9c0,6,0,53.1,5.1,85.2,5.4,35.1,17.1,47.4,42.9,78.3,25.8,30.9,50.7,59.4,64.8,57.6,0,0,13.2-2.7,16.8-2.7s16.8,2.7,16.8,2.7c14.1,2.1,39.3-26.4,64.8-57.6s37.5-43.2,42.9-78.3c4.8-32.4,5.1-79.2,5.1-85.2Z"/>
              <path id="SvgjsPath5146" class="cls-21" d="M316.8,467.1c14.1,2.1,39.3-26.4,64.8-57.6s37.5-43.2,42.9-78.3c4.8-32.4,5.1-79.2,5.1-85.2v-.9c-3.9-89.7-62.1-139.2-129.6-139.2s-125.7,49.2-129.6,139.2v.9c0,6,0,53.1,5.1,85.2,5.4,35.1,17.1,47.4,42.9,78.3,25.8,30.9,50.7,59.4,64.8,57.6,0,0,13.2-2.7,16.8-2.7s16.8,2.7,16.8,2.7ZM285.3,458.4c-3.3.6-6.6.3-9.6-1.5-8.7-4.8-17.4-15.3-21.3-19.5-9.6-10.2-18.9-18.3-28.2-29.4s-19.2-21.6-27.3-32.7c-8.4-11.1-14.1-23.4-17.1-36.9-3.3-13.5-5.1-27.9-6.3-42.3-1.2-14.4-2.1-28.8-2.4-42.9-.6-28.5,5.4-57.3,20.1-81.9,14.1-24.3,37.5-42.3,63.3-51.3,39.6-12.6,67.5-5.4,80.7-1.5,26.4,7.2,50.1,24.3,66.3,47.4s24.3,52.2,25.5,80.7c-.3,24.9-1.8,50.1-5.7,74.7-.9,6.3-2.1,12.3-3.6,18.3s-3.6,11.7-6,17.1c-4.8,10.8-12.3,20.4-20.4,29.7-3.9,4.8-24.6,28.5-24.6,28.5-8.1,9.3-16.2,16.2-24.6,24.9-4.2,4.5-17.1,16.5-19.5,17.7-6.3,3-12,1.5-12,1.5-3-.6-13.2-3.3-27.3-.6h0Z"/>
            </g>
          </g>
          <g id="svga-group-mouth-single-move">
            <g id="svga-group-mouth-single">
              <path id="SvgjsPath5235" class="cls-17" d="M259.9,388.7s6.2,7.8,16.9,12.4,40.4,13.1,68.8-12c0,0-5.5-3-12.8-7.8s-11.4-7.2-17.6-8.1-9.7,1.7-13.8,1.9c-4.1.2-8.6-2.4-13.5-2-10.7.9-28.1,13.5-28.1,13.5l.2,2.1h0Z"/>
              <path id="SvgjsPath5236" class="cls-15" d="M257.7,388.1c5.8,4.1,11.8,2.4,18.2.6,3.3-.9,5.5-1.3,9.1-1.2,4.2.2,5,1,8.3,2.5,2.5,1.1,4.9,1.8,7.7,1.4,3.2-.4,5.7-2.5,8.7-3.6,7-2.6,12.5.6,19,2.6,6.2,1.8,13,3,18.5-.9,1.5-1.1.2-3.1-1.4-2.4-8.6,3.7-16.9-.8-25.3-2-6.7-1-10.5,1.4-16.9,2.4-7.3,1.2-13.4-3.1-20.8-3.1-7.8,0-15.5,4.8-22.9,0-2.3-1.6-4.4,2.1-2.2,3.7h0Z"/>
            </g>
          </g>
          <g id="svga-group-eyes-left-move">
            <g id="svga-group-eyes-left">
              <g id="svga-group-eyesback-left">
                <path id="SvgjsPath5103" class="cls-23" d="M267.6,294s-.3-7.2-3.9-12.6c-3.6-5.4-11.1-14.1-25.2-14.7s-25.5,5.7-25.5,5.7c0,0,1.5,10.5,6.6,14.7s13.8,10.5,27.9,9.9c14.4-.3,20.1-3,20.1-3h0Z"/>
              </g>
              <g id="svga-group-eyesiriswrapper-left">
                <g id="svga-group-eyesiriscontrol-left">
                  <g id="svga-group-eyesiris-left">
                    <path id="SvgjsPath5181" class="cls-20" d="M240.3,265.2c8.4,0,15.6,6.9,15.6,15.6s-6.9,15.6-15.6,15.6-15.6-6.9-15.6-15.6,6.9-15.6,15.6-15.6Z"/>
                    <path id="SvgjsPath5182" class="cls-9" d="M240.3,272.4c4.5,0,8.4,3.6,8.4,8.4s-3.6,8.4-8.4,8.4-8.4-3.6-8.4-8.4,3.6-8.4,8.4-8.4Z"/>
                    <path id="SvgjsPath5183" class="cls-23" d="M238.2,273.9l-1.8-1.8c-.6-.6-1.2-.9-2.1-.9s-1.5.3-2.1.9c-.6.6-.9,1.2-.9,2.1s.3,1.5.9,2.1l1.8,1.8c.6.6,1.2.9,2.1.9s1.5-.3,2.1-.9c.9-1.5,1.2-3.3,0-4.2h0ZM245.7,288c2.7,0,2.7-4.2,0-4.2s-2.4,4.2,0,4.2Z"/>
                  </g>
                </g>
              </g>
              <g id="svga-group-eyesfront-left">
                <path id="SvgjsPath5111" class="cls-19" d="M208.2,283.8c0,19.2,14.1,34.5,31.8,34.5s31.8-15.6,31.8-34.5-14.1-34.5-31.8-34.5-31.8,15.3-31.8,34.5ZM213,272.4s11.1-6.3,25.5-5.7,21.9,9,25.2,14.7c3.6,5.4,3.9,12.6,3.9,12.6,0,0-6,2.7-20.1,3s-22.8-5.7-27.9-9.9c-5.1-4.2-6.6-14.7-6.6-14.7h0Z"/>
                <path id="SvgjsPath5112" class="cls-16" d="M271.8,287.7c-6-10.8-12.3-19.8-24.9-23.7-12.9-4.2-24.3-.6-35.7,5.7-.6.3-1.5-.6-.9-1.2,18.9-17.1,56.4-6.9,61.8,18.9.3.6,0,.6-.3.3h0Z"/>
                <path id="SvgjsPath5113" class="cls-9" d="M249.3,267.6c-14.4-6-31.8-2.7-43.8,7.2-1.5,1.2.3,3.3,1.8,2.4,1.5-.9,3-1.8,4.8-2.7,3.9,24.9,35.4,28.2,54.6,20.4.3,1.2.3,2.4.6,3.6,0,.9,1.5,1.2,1.8.3,2.1-13.5-7.5-26.1-19.8-31.2h0ZM235.5,294.3c-10.5-2.7-18.6-10.2-20.1-21q0-.3-.3-.3c9-4.5,18.6-6.9,29.1-3.9,12.6,3.6,20.1,12.6,22.5,24.6-10.8.6-20.7,3.6-31.2.6h0Z"/>
              </g>
            </g>
          </g>
          <g id="svga-group-eyes-right-move">
            <g id="svga-group-eyes-right">
              <g id="svga-group-eyesback-right">
                <path id="SvgjsPath5104" class="cls-23" d="M332.4,294s.3-7.2,3.9-12.6c3.6-5.4,11.1-14.1,25.2-14.7s25.5,5.7,25.5,5.7c0,0-1.5,10.5-6.6,14.7s-13.8,10.5-27.9,9.9c-14.4-.3-20.1-3-20.1-3h0Z"/>
              </g>
              <g id="svga-group-eyesiriswrapper-right">
                <g id="svga-group-eyesiriscontrol-right">
                  <g id="svga-group-eyesiris-right">
                    <path id="SvgjsPath5184" class="cls-20" d="M359.7,265.2c8.4,0,15.6,6.9,15.6,15.6s-6.9,15.6-15.6,15.6-15.6-6.9-15.6-15.6,7.2-15.6,15.6-15.6Z"/>
                    <path id="SvgjsPath5185" class="cls-9" d="M359.7,272.4c4.5,0,8.4,3.6,8.4,8.4s-3.6,8.4-8.4,8.4-8.4-3.6-8.4-8.4,3.9-8.4,8.4-8.4Z"/>
                    <path id="SvgjsPath5186" class="cls-23" d="M357.9,273.9l-1.8-1.8c-.6-.6-1.2-.9-2.1-.9s-1.5.3-2.1.9c-.6.6-.9,1.2-.9,2.1s.3,1.5.9,2.1l1.8,1.8c.6.6,1.2.9,2.1.9s1.5-.3,2.1-.9c.9-1.5,1.2-3.3,0-4.2h0ZM365.4,288c2.7,0,2.7-4.2,0-4.2s-2.7,4.2,0,4.2Z"/>
                  </g>
                </g>
              </g>
              <g id="svga-group-eyesfront-right">
                <path id="SvgjsPath5114" class="cls-19" d="M360,249.3c-17.7,0-31.8,15.6-31.8,34.5s14.1,34.5,31.8,34.5,31.8-15.6,31.8-34.5-14.4-34.5-31.8-34.5h0ZM380.4,287.1c-5.1,4.2-13.8,10.5-27.9,9.9-14.1-.3-20.1-3-20.1-3,0,0,.3-7.2,3.9-12.6,3.6-5.4,11.1-14.1,25.2-14.7,14.4-.6,25.5,5.7,25.5,5.7,0,0-1.5,10.5-6.6,14.7h0Z"/>
                <path id="SvgjsPath5117" class="cls-16" d="M328.2,287.7c6-10.8,12.3-19.8,24.9-23.7,12.9-4.2,24.3-.6,35.7,5.7.6.3,1.5-.6.9-1.2-18.9-17.1-56.4-6.9-61.8,18.9-.3.6,0,.6.3.3h0Z"/>
                <path id="SvgjsPath5118" class="cls-9" d="M394.5,274.8c-12-9.9-29.1-13.2-43.8-7.2-12,5.1-21.9,17.7-19.8,31.2.3.9,1.5.6,1.8-.3,0-1.2.3-2.4.6-3.6,19.5,7.8,51,4.2,54.6-20.4,1.5.9,3,1.8,4.8,2.7,1.2.9,3-1.5,1.8-2.4h0ZM384.9,273.3c-1.5,10.8-9.9,18.3-20.1,21-10.8,3-20.7,0-31.2-.9,2.4-11.7,9.9-21,22.5-24.6,10.5-3,20.1-.3,29.1,3.9-.3.3-.3.6-.3.6Z"/>
              </g>
            </g>
          </g>
          <g id="svga-group-eyebrows-left-move">
            <g id="svga-group-eyebrows-left-rotate">
              <g id="svga-group-eyebrows-left">
                <path id="SvgjsPath5029" class="cls-18" d="M201,247.5c.3-.9.9-1.8,1.5-2.4.3-.6.9-1.5,1.5-2.1s1.2-1.2,2.1-1.8c1.5-2.7,5.1-4.8,7.5-6.3,2.7-1.5,5.4-2.7,8.7-2.7,3-.6,6.3-.6,8.7.6,1.2,0,2.1.3,3,.9,3.3-.3,6.9.6,9.9,1.2,4.2.9,8.4,1.8,12.3,3.6,4.2,0,8.4.3,12.3,1.5h.6c.3,0,.6.3.6.3h.3c.3,0,.6.3.9.6.3.3,0,.9,0,1.2v.3c0,.6,0,1.2-.3,1.8,0,1.8-.3,3.3-1.5,4.8,0,.3,0,.6-.3.9-.3,1.5-.6,3.3-2.1,4.2-.6.6-1.5.9-2.4.9s-.6,0-.9-.3h-1.8c-1.8.6-4.2,0-5.7-.3-1.8-.3-3.6-.9-5.1-1.8-5.4-.9-10.5-2.4-15.9-3.6-4.8-1.2-12-1.2-16.2-3.9-2.1.3-3.9.6-6,.6s-2.1.3-3.3,0c-.6,0-1.5,0-2.1-.6,0,0-.3,0-.3-.3h-.3l-1.2,1.2c-.9.9-2.1,2.1-3.6,2.4-.3.6-.9,0-.9-.9h0Z"/>
                <path id="SvgjsPath5030" class="cls-5" d="M263.1,249c-.3-1.8-.6-3.6-1.2-5.1,0-.6.6-.9.9-.3,2.1,3,2.7,8.4.6,11.7-.3.6-.9.3-.9-.3.3-2.4.6-4.2.6-6h0ZM252.9,239.4c3.9,2.4,6.3,7.8,6.3,12s-.9.9-.9.3c-.6-2.1-1.2-3.9-2.1-5.7-.9-2.1-2.7-3.6-3.9-5.7-.9-.6,0-1.2.6-.9h0ZM243,237.3c6.6,2.4,11.4,9.6,12.6,15.9,0,.6-.6.6-.9.3-1.2-3-2.7-6-5.1-8.4-2.1-2.7-4.8-4.2-7.5-6.6-.6-.3.3-1.5.9-1.2ZM228.3,234.9c7.2,1.8,14.4,7.8,17.4,14.1.3.6-.9,1.2-1.2.6-2.4-3-4.8-5.7-7.8-8.1-2.7-2.1-6-3.6-9-5.4-.6-.3-.3-1.2.6-1.2h0ZM202.2,246c4.8-5.4,11.4-12.9,19.5-12,.6,0,.6.9,0,.9-7.8.6-12.9,7.5-18.9,11.7-.6.3-1.2-.3-.6-.6h0Z"/>
                <path id="SvgjsPath5031" class="cls-8" d="M272.7,241.8c-.3-.9-1.5-.9-1.8,0-.9,3.3-.9,7.2-3.6,9.9-1.8,2.1-4.5,2.4-7.2,2.1.9-4.5.6-11.1-2.4-14.7-.6-.6-1.5-.3-1.2.6,0,2.4,1.2,4.8,1.5,7.2s.6,4.5.6,6.9c-.3,0-.6,0-.9-.3-.9-6-3.9-12.3-8.4-16.5,6.9,1.5,13.8,2.7,20.7,3.3.3,0,.6-.6.3-.6-7.8-2.7-15.9-4.2-24-6-7.2-1.5-15.3-4.2-22.8-4.5-6.3-.3-10.8,2.7-15,6.6-4.5,4.2-9.3,9.3-12.3,14.7l-.6.6c-.3.3-.6.9-.3,1.2,0,0,0,.3-.3.3-.6,1.2.9,2.1,1.8,1.2.3,0,.6,0,.9-.3,4.2-2.1,7.5-4.2,12.3-4.8,3.9-.6,8.1-.3,12,.3,8.7,1.2,16.8,3.9,24.9,6.3,6.3,1.8,14.7,5.1,20.7.6,5.1-3,5.7-9.3,5.1-14.1ZM232.5,245.7c-1.5-.3-3.3-.6-5.1-.9.3-3.3-.9-6.9-2.4-9.9,2.1,1.8,4.2,3.6,6,5.7,1.8,1.8,2.7,4.2,4.5,6-1.2-.3-2.1-.6-3-.9h0ZM210,238.5c3.6-3.3,7.5-5.1,12-5.7.6,2.4,1.8,4.8,2.1,7.2l.9,4.5c-.9,0-2.1-.3-3-.3-1.5-2.7-3.9-5.4-6.9-6.3-.6-.3-.9.6-.6,1.2,1.2,1.2,2.7,2.4,3.9,3.6.3.6.6.9,1.2,1.5-5.7-.3-11.4.3-16.2,2.4,1.8-3,3.9-5.7,6.6-8.1h0ZM255.6,252.9c-.6-.3-1.2-.3-1.8-.6-1.2-.3-2.7-.9-3.9-1.2-2.4-5.4-6.3-10.8-11.1-14.4-.6-.3-1.2.3-.9.6,3.6,4.2,6.6,8.7,9.9,13.2-3.3-1.2-6.6-2.1-9.6-3.3-.6-3.3-3.6-6.6-5.7-9-2.1-2.1-4.5-4.2-7.2-5.7,1.2,0,2.4.3,3.9.3,6,.9,12,2.4,18,3.6v.3c2.1,3.3,4.5,6.6,6.3,9.9.6,2.1,1.2,4.2,2.1,6.3h0Z"/>
              </g>
            </g>
          </g>
          <g id="svga-group-eyebrows-right-move">
            <g id="svga-group-eyebrows-right-rotate">
              <g id="svga-group-eyebrows-right">
                <path id="SvgjsPath5032" class="cls-18" d="M399,247.5c-.3-.9-.9-1.8-1.5-2.4-.3-.6-.9-1.5-1.5-2.1s-1.2-1.2-2.1-1.8c-1.5-2.7-5.1-4.8-7.5-6.3-2.7-1.5-5.4-2.7-8.7-2.7-3-.6-6.3-.6-8.7.6-1.2,0-2.1.3-3,.9-3.3-.3-6.9.6-9.9,1.2-4.2.9-8.4,1.8-12.3,3.6-4.2,0-8.4.3-12.3,1.5h-.6c-.3,0-.6.3-.6.3h-.3c-.3,0-.6.3-.9.6-.3.3,0,.9,0,1.2v.3c0,.6,0,1.2.3,1.8,0,1.8.3,3.3,1.5,4.8,0,.3,0,.6.3.9.3,1.5.6,3.3,2.1,4.2.6.6,1.5.9,2.4.9s.6,0,.9-.3h1.8c1.8.6,4.2,0,5.7-.3,1.8-.3,3.6-.9,5.1-1.8,5.4-.9,10.5-2.4,15.9-3.6,4.8-1.2,12-1.2,16.2-3.9,2.1.3,4.2.6,6,.6s2.1.3,3.3,0c.6,0,1.5,0,2.1-.6,0,0,.3,0,.3-.3h.3l1.2,1.2c.9.9,2.1,2.1,3.6,2.4.3.6.9,0,.9-.9h0Z"/>
                <path id="SvgjsPath5033" class="cls-5" d="M336.9,249c.3-1.8.6-3.6,1.2-5.1,0-.6-.6-.9-.9-.3-2.1,3-2.7,8.4-.6,11.7.3.6.9.3.9-.3-.3-2.4-.6-4.2-.6-6h0ZM347.1,239.4c-3.9,2.4-6.3,7.8-6.3,12s.9.9.9.3c.6-2.1,1.2-3.9,2.1-5.7.9-2.1,2.7-3.6,3.9-5.7.9-.6,0-1.2-.6-.9h0ZM357,237.3c-6.6,2.4-11.4,9.6-12.6,15.9,0,.6.6.6.9.3,1.2-3,2.7-6,5.1-8.4,2.1-2.7,4.8-4.2,7.5-6.6.6-.3-.3-1.5-.9-1.2ZM371.7,234.9c-7.2,1.8-14.4,7.8-17.4,14.1-.3.6.9,1.2,1.2.6,2.4-3,4.8-5.7,7.8-8.1,2.7-2.1,6-3.6,9-5.4.6-.3.3-1.2-.6-1.2h0ZM397.8,246c-4.8-5.4-11.4-12.9-19.5-12-.6,0-.6.9,0,.9,7.8.6,12.9,7.5,18.9,11.7.6.3,1.2-.3.6-.6h0Z"/>
                <path id="SvgjsPath5034" class="cls-8" d="M331.8,255.9c6,4.5,14.4,1.2,20.7-.6,8.4-2.4,16.5-5.4,24.9-6.3,3.9-.6,8.1-.9,12-.3,4.8.6,8.1,2.7,12.3,4.8.3.3.6.3.9.3.9.9,2.4,0,1.8-1.2,0,0,0-.3-.3-.3,0-.3,0-.9-.3-1.2l-.6-.6c-3-5.4-7.8-10.5-12.3-14.7-4.2-3.9-8.7-6.9-15-6.6-7.5.3-15.6,3-22.8,4.5-8.1,1.8-16.2,3.3-24,6-.6.3-.3.6.3.6,6.9-.6,13.8-1.8,20.7-3.3-4.5,4.2-7.5,10.5-8.4,16.5-.3,0-.6,0-.9.3.3-2.4.3-4.5.6-6.9s1.5-4.8,1.5-7.2-.9-.9-1.2-.6c-3,3.6-3.3,10.2-2.4,14.7-2.7.3-5.1,0-7.2-2.1-2.4-2.7-2.7-6.6-3.6-10.2-.3-.9-1.5-.9-1.8,0,0,5.1.6,11.4,5.1,14.4h0ZM364.5,246.3c1.5-1.8,2.7-4.2,4.5-6,1.8-2.1,3.9-3.9,6-5.7-1.5,3-2.7,6.9-2.4,9.9-1.8.3-3.6.6-5.1.9-.9.6-1.8.9-3,.9h0ZM396.9,246.3c-4.8-2.1-10.8-2.7-16.2-2.4.3-.6.6-.9,1.2-1.5,1.2-1.5,2.7-2.4,3.9-3.6.3-.3.3-1.2-.6-1.2-3,.9-5.4,3.6-6.9,6.3-.9,0-2.1.3-3,.3l.9-4.5c.6-2.4,1.5-4.8,2.1-7.2,4.2.6,8.1,2.4,12,5.7,2.4,2.7,4.5,5.4,6.6,8.1h0ZM346.8,246.9c1.8-3.6,4.2-6.6,6.3-9.9v-.3c6-1.2,12-2.7,18-3.6,1.2-.3,2.7-.3,3.9-.3-2.7,1.5-5.1,3.6-7.2,5.7-2.1,2.4-5.1,5.7-5.7,9-3.3.9-6.6,2.1-9.6,3.3,3-4.5,6.3-8.7,9.9-13.2.3-.6-.3-.9-.9-.6-4.8,3.6-8.7,9-11.1,14.4-1.2.3-2.7.9-3.9,1.2-.6.3-1.2.3-1.8.6.6-2.4,1.2-4.5,2.1-6.3h0Z"/>
              </g>
            </g>
          </g>
          <g id="svga-group-nose-single-move">
            <g id="svga-group-nose-single">
              <path id="SvgjsPath5216" class="cls-19" d="M315.2,323c1.7,2.8,7.9,10.8,9.3,14.7s-.4,9.7-4.4,10.8-10.8-1.2-11.8-.6c-1,.6-5.6,6.2-7.7,5.8s-7.9-6.4-9.1-6.4-6.4,1.3-8.9,1.3-8.7-2.1-7.9-7.5c.8-5.4,7.3-16.6,8.7-18.2,1.3-1.6,4.4-7,5.2-10.3s1.7-21.1,2.1-25.1,4-8.9,7.7-9.3c3.7-.4,10,2.3,10.7,8.7.6,6.4,1.7,19.1,2.3,24.4.6,5.2,1.7,8.1,3.9,11.6h0Z"/>
              <path id="SvgjsPath5217" class="cls-21" d="M292.9,260.3c-2.5,10.5-2.9,21.7-4,32.4-1.2,11.5-3.4,23.3-3.3,34.9,0,.9,1.4,1.2,1.7.2,2.3-10.6,2.6-21.8,3.7-32.5,1.2-11.5,3.3-23.4,2.9-34.9,0-.5-.9-.7-1-.1h0Z"/>
              <path id="SvgjsPath5218" class="cls-21" d="M283.4,321.6c-3.1,4.1-5.7,8.6-8,13.2-1.5,3-3.3,6.5-2.3,10,1.6,5.7,8.8,7.5,13.5,4.7,1.4-.8.8-3-.8-3-2.8,0-5.9.8-8.2-1.5-2.6-2.8,0-7.9,1.1-10.7,1.7-4.2,3.8-8.2,5.5-12.4.2-.6-.6-.8-.9-.4Z"/>
              <path id="SvgjsPath5219" class="cls-21" d="M282.9,344.9c8.5-.6,10.1,10.1,18.2,10.3,6.9.2,7.5-10.2,14.1-9.9.8,0,1-1,.4-1.4-7.5-4.4-8.8,8.6-15.7,7.8-4.1-.5-7-6.5-10.6-8.2-2.5-1.2-4.3-1.1-6.7,0-.7.3-.3,1.4.4,1.3h0Z"/>
              <path id="SvgjsPath5220" class="cls-21" d="M312.9,349.8c5.6,1.3,12.2-.5,13.5-6.7.7-3.1-.4-6.2-2-8.8-2.7-4.3-6.1-8-8.6-12.5-.4-.8-1.5-.4-1.5.4-.3,5,3.4,8.5,6.1,12.4,2.5,3.6,4.6,8.5.5,12-1.9,1.6-5.5,1.3-7.8,1.8-.8.1-.8,1.3,0,1.5h0Z"/>
              <path id="SvgjsPath5221" class="cls-4" d="M307.3,332.9c-1.2-2.2-4.4-2.5-6.2-.8s-.7.9-.9,1.1c-.2.3-.6.8-.7.9-.2.3-.4.6-.5,1l-.4.8s0,0,0,.2c-.2.2-.4.4-.5.6-.5.6-1.1,1.1-1.5,1.8-1.3,2-.2,4.3,1.4,5.5,2.6,2,6.4.4,8.2-1.8,2.3-2.7,2.9-6.1,1.1-9.2h0Z"/>
            </g>
          </g>
          <g id="svga-group-hair-front">
            <path id="SvgjsPath5985" class="cls-18" d="M177.3,286.5c-3.6-6.3-8.4-23.1-11.1-31.5,0,0-.3-5.1-.9-25.2s8.7-54.9,24.9-79.2,45.6-48.6,54.9-60,30.3-33.3,31.8-40.5l.6,18s8.7-13.5,9.9-24.3l.6,16.2s5.7-19.2,5.1-24.9c0,0,5.1,13.5,5.1,16.5l2.1-8.7s7.2,11.4,15,20.7c0,0,2.1-17.1,2.1-22.2.9,1.2,11.1,21,21.6,34.2,7.2,9.3,36.6,32.4,45.9,42.6,9.3,9.9,34.8,42,41.1,72s8.7,65.1,7.2,68.7-.6,11.4-5.1,21.3-6.3,17.1-9.3,12.3c-2.7-5.1.9-48-7.8-56.4-12.6-12-20.1-73.2-36.6-77.4-25.5-6.6-54.3,13.8-75.6,13.8s-53.7-24.6-74.7-9.9c-12.9,9.3-17.1,42.9-28.8,65.4-4.8,9.3-10.5,11.7-11.1,14.4-1.2,5.1-.9,31.2-1.2,42.9,0,3-4.2,3.9-5.7,1.2h0Z"/>
            <path id="SvgjsPath5986" class="cls-8" d="M296.1,47.1c-.3-1.2-2.4-.9-2.1.3,2.7,26.1-12.6,45.3-21.9,68.4-6,15.3-8.4,32.7,1.8,46.8.6.9,1.8,0,1.2-.9-21.3-41.1,28.2-73.2,21-114.6ZM288.3,61.5c.3-.9-1.2-1.2-1.5-.3-10.2,26.4-57.3,64.2-27,94.2.6.6,2.1-.3,1.5-1.2-24.3-38.7,19.2-59.4,27-92.7ZM260.7,83.1c-18,19.5-47.4,48-33.6,77.1.6,1.2,2.7.3,2.1-.9-12-30,16.8-53.4,32.7-75,.9-.9-.6-2.1-1.2-1.2ZM209.1,139.2c.6-.9-.6-1.8-1.5-.9-10.5,11.7-16.2,39-3,51.3.3.3.9.6,1.5.3l.9-.6c.6-.3.6-.9.3-1.5,0-.3-.3-.3-.3-.6-.3-.3-.6-.6-.9,0-.3.6-5.1-11.4-5.4-13.5-.6-3.6-.6-7.5-.6-11.1.9-8.7,4.5-16.2,9-23.4ZM189.9,234.9c-16.5-13.5-8.7-40.5-1.5-56.4.6-1.2-1.2-2.4-1.8-.9-8.4,14.4-16.5,48.6,2.4,58.8.6.3,1.8-.9.9-1.5ZM179.7,287.1c-19.5-24.6-12.3-66-5.1-94.2,0-.6-.6-.9-.9-.3-5.7,18.6-8.4,38.4-8.4,57.6s2.4,28.5,13.5,37.8c.6.9,1.5,0,.9-.9ZM331.5,110.7c-3.6-22.5-18.9-40.5-27.9-61.2-.6-1.2-2.1-.3-1.8.9,5.1,18,18,32.1,24,49.8,6.9,21.3,3.6,42.9-5.7,63-.6.9.9,1.8,1.5.9,9.6-16.2,12.9-34.8,9.9-53.4ZM351,107.7c-11.4-20.1-21.9-37.8-28.5-60.3-.3-.9-1.5-.6-1.2.3,2.4,15.3,7.8,29.7,15.6,43.2,10.8,19.2,24,35.4,18.6,58.8-.3,1.8,2.1,2.4,2.7.6,6-14.7.3-29.4-7.2-42.6h0ZM346.2,92.7c-.6-.6-1.5.3-.9.9,22.2,21.3,63,51,45.9,86.1-.6,1.2.9,1.8,1.5.9,22.8-33-24.3-70.2-46.5-87.9ZM412.5,168.6c-.3-.6-1.5-.3-1.2.6,7.2,23.1,15,45.9,4.5,69.3-.3.6.6,1.2.9.6,13.5-22.5,5.4-48.3-4.2-70.5h0ZM429.3,222c-.3-.9-1.8-.6-1.5.6,3.9,25.8,7.2,47.4-9,69.6-.6.6.6,1.5,1.2.9,19.2-17.7,16.8-48.6,9.3-71.1Z"/>
            <path id="SvgjsPath5987" class="cls-5" d="M301.8,60.9c-.3-.9-1.8-.6-1.5.3,7.5,31.8,22.8,62.1,6.9,94.2-.9,1.5,1.5,3,2.4,1.5,20.1-27.9,3.9-67.8-7.8-96h0ZM328.2,81.3c-.3-.9-1.8-.6-1.5.3,2.7,10.2,7.2,19.8,9.6,30,3.3,13.8.6,26.7-3.3,39.9-.3.9,1.2,1.5,1.5.3,9.9-24.9,3.9-46.2-6.3-70.5h0ZM353.4,105.6c-.3-.6-1.2,0-.9.6,11.7,15.6,23.4,29.4,26.4,49.5.3,1.5,2.1.9,2.4-.3,1.5-20.4-15.9-35.7-27.9-49.8ZM367.5,118.5c-.6-.6-1.2,0-.9.6,6.6,9.6,17.1,21,18.3,33.3,0,.9,1.8,1.2,1.8,0-.3-12.6-11.1-24.9-19.2-33.9h0ZM292.8,96.9c.3-.6-.9-1.2-1.2-.6-10.2,19.8-23.1,43.8-9,64.8.6.6,1.8,0,1.2-.6-12.3-21.9,1.5-43.2,9-63.6ZM198.9,195.6c-3.3-9-5.7-17.4-4.2-27.3,0-.6-.9-.9-1.2,0-2.1,9.3-1.5,19.8,3.6,28.2.6.6,2.1,0,1.8-.9h0ZM402,151.8c-.3-.3-.6,0-.6.3,6.9,18,11.1,36.6,13.5,55.8,0,.6,1.2.6,1.2,0-.9-19.8-5.7-38.4-14.1-56.1h0Z"/>
          </g>
          <g id="svga-group-glasses-single-move">
            <g id="svga-group-glasses-single">
              <path id="SvgjsPath7511" class="cls-7" d="M232.8,303.6l-.3-.6,37.8-33,.3.6-37.8,33ZM244.5,317.4l-.6-.6,29.4-25.5.6.6-29.4,25.5ZM225,292.2l-.3-.6,29.4-25.5.3.6-29.4,25.5ZM235.2,290.7l-.6-.6,29.7-25.5.3.6-29.4,25.5Z"/>
              <path id="SvgjsPath7512" class="cls-7" d="M367.2,303.6l.3-.6-37.8-33-.3.6,37.8,33ZM355.5,317.4l.6-.6-29.4-25.5-.6.6,29.4,25.5ZM375,292.2l.3-.6-29.4-25.5-.3.6,29.4,25.5ZM364.8,290.7l.6-.6-29.7-25.5-.3.6,29.4,25.5Z"/>
              <path id="SvgjsPath7513" class="cls-24" d="M251.7,257.7c17.7,0,32.1,14.4,32.1,32.1s-14.4,32.1-32.1,32.1-32.1-14.4-32.1-32.1,14.4-32.1,32.1-32.1Z"/>
              <path id="SvgjsPath7514" class="cls-24" d="M348.3,257.7c17.7,0,32.1,14.4,32.1,32.1s-14.4,32.1-32.1,32.1-32.1-14.4-32.1-32.1,14.4-32.1,32.1-32.1Z"/>
              <path id="SvgjsPath7515" class="cls-11" d="M251.7,256.2c-14.1,0-26.1,8.7-31.2,21-1.8,0-5.7-.3-8.4.3l.3,8.4,6.3-.3c-.3,1.5-.3,2.7-.3,4.2,0,18.6,15,33.6,33.6,33.6s33.6-15,33.6-33.6-15.3-33.6-33.9-33.6h0ZM251.7,320.4c-16.8,0-30.6-13.8-30.6-30.6s13.8-30.6,30.6-30.6,30.6,13.8,30.6,30.6-13.8,30.6-30.6,30.6h0Z"/>
              <path id="SvgjsPath7516" class="cls-14" d="M251.7,256.2c-6.6,0-13.2,2.1-18.6,6-5.4,3.9-9.6,9.3-12,15.3l-.3.3h-.6c-2.7,0-5.7,0-8.4.3l.6-.6.3,8.4-.6-.6h6.9v.6c-.9,6.6.3,13.5,3.3,19.5s3.6,5.7,6,8.1c2.4,2.4,5.1,4.2,8.1,6,6,3,12.9,4.2,19.5,3.3s12.9-3.6,17.7-8.1c2.4-2.1,4.5-4.8,6.3-7.5s3-6,3.9-9c1.8-6.3,1.2-13.2-.9-19.5-2.1-6.3-6.6-11.7-12-15.6-2.7-1.8-5.7-3.6-9-4.5-3.6-1.8-6.9-2.1-10.2-2.4h0ZM251.7,256.2c3.3,0,6.9.6,9.9,1.5,3.3.9,6.3,2.4,9.3,4.2,5.7,3.9,10.2,9.3,12.9,15.9,1.2,3.3,2.1,6.6,2.4,10.2.3,3.6,0,6.9-.9,10.2s-2.1,6.6-3.9,9.6c-1.8,3-3.9,5.7-6.6,7.8-5.1,4.5-11.7,7.5-18.6,8.1-6.9.6-13.8-.6-19.8-3.9-3-1.8-5.7-3.6-8.1-6.3-2.4-2.4-4.5-5.1-6-8.1-3.3-6-4.5-12.9-3.9-19.8l.6.6-6.3.3h-.6v-.6l-.3-8.4v-.6h.6c3-.6,5.7-.3,8.7-.3l-.6.3c2.4-6.3,7.2-11.7,12.9-15.3,4.8-3.6,11.7-5.4,18.3-5.4h0Z"/>
              <path id="SvgjsPath7517" class="cls-14" d="M251.7,320.4c-8.1,0-16.2-3-21.9-8.7-6-5.7-9.3-13.8-9.3-21.9s3.6-16.2,9.3-21.9,13.8-9.3,21.9-9.3,16.2,3,22.2,9c6,5.7,9.3,13.8,9.3,22.2s-3.6,16.5-9.3,21.9c-6.3,5.7-14.1,9-22.2,8.7ZM251.7,320.4c8.1,0,15.9-3.6,21.3-9.3,5.4-5.7,8.7-13.5,8.4-21.3s-3.3-15.6-8.7-21.3-13.2-9-21.3-9-15.9,3-21.6,8.7c-5.7,5.7-8.7,13.5-8.4,21.6,0,7.8,3.3,15.6,8.7,21.3,5.7,5.7,13.5,9.3,21.6,9.3Z"/>
              <path id="SvgjsPath7518" class="cls-11" d="M314.7,289.8c0,18.6,15,33.6,33.6,33.6s33.6-15,33.6-33.6,0-2.7-.3-4.2l6,.3.3-8.4c-2.7-.6-6.6-.3-8.4-.3-5.1-12.3-17.1-21-31.2-21s-33.6,15-33.6,33.6h0ZM317.7,289.8c0-16.8,13.8-30.6,30.6-30.6s30.6,13.8,30.6,30.6-13.8,30.6-30.6,30.6-30.6-13.8-30.6-30.6Z"/>
              <path id="SvgjsPath7519" class="cls-14" d="M314.7,289.8c0,9.3,4.2,18.3,10.8,24.3s15.6,9.3,24.6,8.7c9-.3,17.7-4.8,23.7-11.7s8.4-16.5,7.2-25.5v-.6h6.9l-.3.6v-8.4l.3.6c-2.7-.3-5.7-.3-8.4-.3h-.6l-.3-.3c-3-6.9-8.1-12.9-15-16.5-6.6-3.6-14.4-4.8-21.9-3.6s-14.4,5.4-19.5,11.1c-4.5,6.3-7.2,13.8-7.5,21.6h0ZM314.7,289.8c0-7.8,2.7-15.6,7.5-21.6s12-10.5,19.8-12,15.9-.3,23.1,3.6c6.9,3.9,12.3,10.2,15.3,17.4l-.6-.3c3,0,5.7,0,8.7.3h.6v.6l-.3,8.4v.6h-.3l-6.3-.3.3-.3c1.2,9.3-1.8,18.6-7.8,25.8-5.7,7.2-14.7,12-24,12.6s-18.9-2.7-25.5-9.3c-6.9-7.2-10.5-16.2-10.5-25.5h0Z"/>
              <path id="SvgjsPath7520" class="cls-14" d="M317.7,289.8c0-8.1,3-16.2,8.7-21.9,5.7-6,13.8-9.3,21.9-9.3s16.2,3.6,21.9,9.3,9.3,13.8,9.3,21.9-3,16.2-9,22.2c-5.7,6-13.8,9.3-22.2,9.3s-16.5-3.6-21.9-9.3c-5.7-6-8.7-14.1-8.7-22.2ZM317.7,289.8c0,8.1,3.6,15.9,9.3,21.3,5.7,5.4,13.5,8.7,21.3,8.4s15.6-3.3,21.3-8.7,9-13.2,9-21.3-3-15.9-8.7-21.6c-5.7-5.7-13.5-8.7-21.6-8.4-7.8,0-15.6,3.3-21.3,8.7-5.7,5.7-9.3,13.5-9.3,21.6Z"/>
              <path id="SvgjsPath7521" class="cls-14" d="M280.5,286.5h39.3v4.2h-39.3v-4.2Z"/>
            </g>
          </g>
        </g>
      </g>
    </g>
    <rect id="svga-credit-rect" class="cls-3" y="555" width="600" height="45"/>
    <g id="svga-credit-text" class="cls-26">
      <text class="cls-25" transform="translate(100.2 586.8)"><tspan x="0" y="0">Created on AvatarMaker.com</tspan></text>
    </g>
  </g>
</svg>