<?xml version="1.0" encoding="UTF-8"?>
<svg id="Layer_1" data-name="Layer 1" xmlns="http://www.w3.org/2000/svg" version="1.1" viewBox="0 0 600 600">
  <defs>
    <style>
      .cls-1 {
        fill: #384b94;
      }

      .cls-1, .cls-2, .cls-3, .cls-4, .cls-5, .cls-6, .cls-7, .cls-8, .cls-9, .cls-10, .cls-11, .cls-12, .cls-13, .cls-14, .cls-15, .cls-16, .cls-17, .cls-18, .cls-19, .cls-20, .cls-21, .cls-22, .cls-23, .cls-24, .cls-25, .cls-26, .cls-27, .cls-28 {
        stroke-width: 0px;
      }

      .cls-2 {
        opacity: .6;
      }

      .cls-2, .cls-3, .cls-6, .cls-29, .cls-30 {
        isolation: isolate;
      }

      .cls-2, .cls-25 {
        fill: #d19271;
      }

      .cls-3 {
        opacity: .5;
      }

      .cls-3, .cls-13 {
        fill: #ecf0f1;
      }

      .cls-3, .cls-30 {
        display: none;
      }

      .cls-4 {
        fill: #253984;
      }

      .cls-5 {
        fill: #43559b;
      }

      .cls-6 {
        opacity: .4;
      }

      .cls-6, .cls-26 {
        fill: #fff;
      }

      .cls-7 {
        fill: #f8d5c3;
      }

      .cls-8 {
        fill: #3a353a;
      }

      .cls-29 {
        fill: #333;
        font-family: AvenirNext-Regular, 'Avenir Next';
        font-size: 30px;
      }

      .cls-9 {
        fill: #1b141c;
      }

      .cls-10 {
        fill: #543c32;
      }

      .cls-11 {
        fill: #000;
      }

      .cls-12 {
        fill: #26120b;
      }

      .cls-14 {
        fill: #070201;
      }

      .cls-15 {
        fill: #4c342a;
      }

      .cls-16 {
        fill: #386e77;
      }

      .cls-17 {
        fill: #cb5f6c;
      }

      .cls-18 {
        fill: #e1ac8f;
      }

      .cls-19 {
        fill: #da7c87;
      }

      .cls-20 {
        fill: #634e45;
      }

      .cls-21 {
        fill: #2a232b;
      }

      .cls-22 {
        fill: #f0c7b1;
      }

      .cls-23 {
        fill: #4e60a3;
      }

      .cls-24 {
        fill: #c27b55;
      }

      .cls-27 {
        fill: #184f58;
      }

      .cls-28 {
        fill: #452c22;
      }
    </style>
  </defs>
  <g id="svga-group-wrapper">
    <g id="svga-group-backs-single">
      <path id="SvgjsPath3520" class="cls-13" d="M0,0h600v600H0V0Z"/>
    </g>
    <g id="svga-group-humanwrap-move">
      <g id="svga-group-humanwrap">
        <g id="svga-group-humanbody-back">
          <path id="SvgjsPath3473" class="cls-22" d="M499.5,525.3c-32.7-19.8-82.8-25.2-105-36.3-14.7-7.5-27.3-14.1-26.7-53.4s5.7-127.2,5.7-127.2h-147.3s4.8,88.2,5.7,127.2-12.6,46.8-26.7,53.4c-22.2,10.5-72.3,16.2-105,36.3-32.4,19.8-30,56.7-30,56.7v59.1h459.9v-59.1c-.3,0,2.1-36.9-30.6-56.7h0Z"/>
        </g>
        <g id="svga-group-chinshadow-single">
          <path id="SvgjsPath4203" class="cls-2" d="M231.6,449.7c21,15.9,48,33.3,68.4,33.3s47.4-17.4,68.4-33c-.3-4.2-.6-9-.6-14.4.6-39.3,5.7-127.2,5.7-127.2h-147.3s4.8,88.2,5.7,127.2c0,5.4,0,9.9-.3,14.1h0Z"/>
        </g>
        <g id="svga-group-humanbody-front">
          <path id="SvgjsPath3474" class="cls-25" d="M236.1,452.4c1.5,14.4,5.1,28.2,9.3,41.7,2.4,6.9,4.8,13.8,7.8,20.7,2.4,6,5.1,12.6,9.3,17.7.9,1.2,3,0,2.7-1.5-1.5-6.6-4.8-12.9-7.2-19.2-2.7-6.6-5.1-13.2-7.5-19.8-4.5-13.2-8.4-26.7-12.3-39.9-.6-1.2-2.4-.9-2.1.3h0ZM360,449.4c-3.9,24.6-11.7,48.3-16.2,72.6-.3,1.2,1.2,1.5,1.8.6,9.3-23.1,12.3-48.3,15.3-72.9-.3-.6-.9-.6-.9-.3h0ZM282.6,485.1c-2.7,10.8,5.7,25.8,18.6,22.8,1.5-.3,1.2-2.4,0-3-4.2-1.5-8.7-2.7-11.7-6.3-3.3-3.6-4.5-8.7-4.2-13.5,0-1.2-2.4-1.5-2.7,0h0Z"/>
          <path id="SvgjsPath3475" class="cls-24" d="M531.9,641.1c-.3-19.8-.9-39.3-.9-59.1l-.9-.9q.3,0,.6.3c.3.3.3.6.3.3v-4.2c0-1.5-.3-2.7-.3-4.2-.3-2.7-.9-5.7-1.5-8.4-1.5-5.4-3.3-10.8-6-15.9-5.1-10.2-13.2-18.6-23.1-24.3-10.8-6.6-22.8-11.4-34.8-15.3s-24.3-7.2-36.3-10.5c-12-3.6-24.3-6.6-35.4-12.6-5.7-3-10.8-6.3-14.4-10.8-3.6-4.8-5.7-10.5-6.9-16.5-2.4-12-1.2-24.6-.9-37.2l2.1-37.8,4.5-75.6.3-4.2h-4.2c-24.6,0-49.2,0-73.8.3l-73.8.9h-2.7l.3,2.7c2.4,35.7,4.8,71.4,6.3,107.1.3,9,.9,18,.6,26.7-.3,8.7-1.2,17.7-4.8,25.8-1.8,3.9-4.2,7.5-7.2,10.5s-6.9,5.4-10.8,7.2c-7.8,3.9-16.2,6.6-24.9,9-17.4,4.5-34.8,8.4-51.9,14.1-8.4,2.7-17.1,6-25.2,10.2-3.9,2.1-8.1,4.2-12,7.2-3.9,2.7-7.2,5.7-10.5,9.3-6.3,6.9-10.8,15.6-13.5,24.3-1.5,4.5-2.4,9-3,13.8s-.3,4.8-.3,7.2v6.9l-.6,53.7v3.9h4.2l114.9.6c38.4.3,76.5.3,114.9,0s76.8-.3,114.9-.9c38.4-.6,76.8-1.5,114.9-2.1h1.8v-1.5h0ZM300.3,636.3h-114.9l-111,.6-.3-49.8v-6.6c0-2.1,0-4.2.3-6.3.3-4.2,1.2-8.4,2.4-12.6,2.4-8.1,6.3-15.9,11.7-22.5,2.7-3.3,6-6.3,9.3-8.7,3.3-2.7,7.2-4.8,11.1-6.9,7.8-4.2,15.9-7.5,24.3-10.5,16.8-6,34.2-10.2,51.3-15.3,8.7-2.4,17.4-5.1,25.5-9.3,3.9-2.1,8.1-4.5,11.4-7.8,3.3-3.3,6-7.2,7.8-11.7,3.6-8.7,4.5-17.7,4.8-26.7,0-9-.3-18-.6-27l-3.9-104.4,70.5,1.2c23.1.3,46.2.3,69.3.3-1.2,23.7-2.4,47.7-3.3,71.4-.6,12.6-.6,25.2-.9,37.8,0,12.6-.6,25.5,2.4,38.4,1.5,6.3,3.9,12.6,8.4,18,4.2,5.1,10.2,8.7,15.9,11.4,11.7,5.7,24,8.4,36.3,11.4s24.6,6,36.6,9.9,23.7,8.4,34.5,15c9.6,5.7,17.4,14.1,22.5,24,2.7,4.8,4.5,10.2,5.7,15.6.6,2.7,1.2,5.4,1.2,8.1.3,1.5.3,2.7.3,4.2v4.5l-.9,57c-37.8-.6-75.3-1.5-113.1-2.1-38.1-.3-76.5-.3-114.6-.6h0Z"/>
        </g>
        <g id="svga-group-clothes-single">
          <path id="SvgjsPath3363" class="cls-16" d="M537.9,642.3c0-52.5-4.8-80.1-4.8-80.1-9-42-65.7-54.6-92.1-60.3-45.6-9-60.3-21.6-60.3-21.6,0,0-19.2,48-82.5,48s-80.4-49.8-80.4-49.8c0,0-15.9,12.3-63.6,21.3-26.1,5.7-78.9,20.7-87.9,62.7,0,0-4.8,27.6-4.8,80.1h476.4v-.3Z"/>
          <path id="SvgjsPath3364" class="cls-27" d="M538.8,609.6c-.3-10.8-.6-21.9-1.5-32.7l-.9-8.1c-.3-2.7-.6-5.4-1.2-8.4-1.2-5.7-3.3-10.8-6.3-15.9-5.7-9.9-14.7-17.7-24-23.7-9.6-6-19.8-10.5-30.3-14.1s-21.3-6.3-31.8-8.7c-10.5-2.1-21-4.8-31.2-8.1-5.1-1.8-9.9-3.6-14.7-5.7-2.4-1.2-4.8-2.1-7.2-3.3-1.2-.6-2.4-1.2-3.3-1.8-.9-.6-2.1-1.5-3-1.8-.3-.3-.6-.3-.9-.6-2.1-.9-4.5,0-5.4,2.1-1.5,3.3-3.6,6.9-5.7,10.2-2.4,3.3-4.8,6.3-7.5,9.3-5.4,5.7-11.7,10.8-18.6,15-13.8,8.1-30.3,12-46.5,12.3s-33-3-47.1-11.4-25.8-21.3-32.1-36.3c0,0,0-.3-.3-.3-.6-.6-1.5-.9-2.1-.3-4.2,3-9.3,5.4-14.1,7.2-5.1,2.1-10.2,3.9-15.3,5.4-10.5,3.3-21,5.7-31.5,7.8-21.3,4.5-42.9,10.5-61.8,22.8-9.3,6-18,13.8-23.7,23.7-3,4.8-5.1,10.2-6.6,15.9-.3.6-.3,1.5-.6,2.1l-.3,2.1-.6,4.2-.9,8.1c-2.4,21.9-3.3,43.8-3.6,65.7,0,2.1,1.8,4.2,3.9,4.2l120,.6c39.9,0,80.1-.3,119.7-.6l119.4-.9,110.7-1.8,6.6-1.2c.3-11.4.3-21.9.3-33h0ZM477.3,640.8l-60-.9-119.1-1.5c-39.6-.3-78.9-.6-118.2-.6l-114,.6c0-20.4.3-40.8,2.1-60.9l.9-8.1.3-3.9.3-2.1c0-.6.3-1.2.3-1.8,1.2-4.8,3-9.9,5.4-14.4,5.1-9,12.6-16.8,21.3-22.8s18.6-10.8,28.5-14.7,20.4-6.9,31.2-9,21.3-4.8,31.8-8.1c5.1-1.8,10.5-3.6,15.6-5.7,4.5-1.8,9-3.9,13.5-6.6,3.3,7.5,7.5,14.1,12.6,20.4,5.4,6.6,12,12.3,19.5,16.8,14.7,9.3,32.1,13.2,49.2,13.5,17.1.3,34.8-3,50.1-11.4,7.8-4.2,14.7-9.6,20.7-15.9,5.1-5.4,9.3-10.8,12.9-17.4,1.2.6,2.4,1.5,3.6,2.1,2.4,1.2,5.1,2.7,7.5,3.6,5.1,2.4,10.2,4.2,15.6,6,10.5,3.3,21.3,6,32.1,8.1,21,4.2,42,9.9,60.3,20.7,9,5.4,17.1,12.3,22.8,21,2.7,4.2,4.8,9.3,6.3,14.1.6,2.4.9,5.1,1.2,7.8l.9,8.1c1.2,10.8,2.4,21.6,3,32.4s1.2,21.9,1.8,32.4l-60-1.8h0ZM114.9,547.5c4.2,9.6,7.2,19.5,9.6,29.7,1.2,5.1,2.4,10.2,3.3,15.3.9,5.1,1.8,10.2,2.7,15.6,1.5,9.6,3,19.2,4.2,28.8h.6c.6-9.6.6-19.5,0-29.4-.9-10.5-2.4-21.3-4.8-31.8-1.2-5.1-2.7-10.5-4.5-15.6s-3.9-10.2-6.6-14.7c-2.4-4.8-5.4-9.3-9-13.5-3-3.3-6-6.6-9.6-9.3-.3,0-.3.3-.6.3,3,3.3,5.4,6.9,7.8,10.5,2.4,4.5,4.8,9.3,6.9,14.1ZM469.8,607.8c.9-5.1,1.8-10.5,2.7-15.6.9-5.1,1.8-10.2,3.3-15.3,2.4-10.2,5.4-20.1,9.6-29.7,2.1-4.8,4.5-9.3,7.2-13.8,2.1-3.3,4.5-6.9,7.2-9.9-.3-.3-.6-.3-.6-.6-3.3,2.4-6.3,5.4-9,8.7-3.3,4.2-6.3,8.7-9,13.5s-4.8,9.6-6.6,14.7c-1.8,5.1-3.3,10.2-4.5,15.6-2.4,10.5-3.9,21-4.8,31.8-.6,10.5-.9,21.3,0,31.8,1.5-10.5,3-20.7,4.5-31.2h0ZM348,533.4c-15.6,8.7-33.9,11.7-51.9,10.5-4.5-.3-9-.6-13.5-1.2s-8.7-1.5-13.2-2.7c-4.2-1.2-8.4-2.7-12.6-4.5-3.9-1.8-8.1-3.9-11.7-6.3-7.5-4.8-14.4-10.8-20.1-17.4-6-6.6-11.1-14.1-15-21.9,6,16.8,17.4,32.1,32.7,42.9,7.5,5.4,16.2,9.6,25.2,12.3,4.5,1.2,9.3,2.4,13.8,3,4.8.6,9.3,1.2,14.1,1.2,9.3.3,18.9,0,28.2-2.1s18.3-5.4,26.4-10.2c8.1-4.8,15.3-10.8,21.6-17.4s12-13.8,16.8-21.3c-12,13.5-24.9,26.4-40.8,35.1h0Z"/>
        </g>
        <g id="svga-group-head">
          <g id="svga-group-ears-left-move">
            <g id="svga-group-ears-left">
              <path id="SvgjsPath3373" class="cls-22" d="M195,260.7c-.6-.9-9.9-12.9-17.7-20.1-7.8-7.2-10.2-7.2-13.8-2.7-3.9,4.5-8.7,27.3-7.5,37.2,1.2,10.2,10.8,26.1,15.6,35.1,5.1,9,9.9,20.1,15.3,18.9,5.7-1.2,13.2-13.8,17.1-23.1,3.9-9.3,1.5-32.4-9-45.3h0Z"/>
              <path id="SvgjsPath3374" class="cls-18" d="M206.4,288c.3,2.7.6,5.1.6,7.8s0,5.1-.6,7.8c-.3,1.2-.6,2.7-.9,3.9-.3,1.2-.9,2.1-1.2,3.3-.9,2.1-1.8,4.2-3,6.3-2.1,3.9-4.5,7.8-7.8,10.8-1.5,1.5-3.3,3-5.4,3.9-1.2.3-2.7.3-3.9,0-1.2-.6-2.4-1.5-3.3-2.4-3.6-3.9-5.7-8.4-8.1-12.9-2.1-4.5-4.5-8.7-6.6-12.9-2.1-4.5-4.5-8.7-6.3-13.2-.9-2.4-2.1-4.5-2.7-6.9-.9-2.4-1.5-4.8-1.8-7.5-.6-5.1,0-10.2.3-15,.6-4.8,1.5-9.6,2.4-14.4.6-2.4,1.2-4.8,2.4-6.9l.9-1.8c.3-.6.9-1.2,1.2-1.5.6-.9,1.5-1.8,2.7-2.4.9-.6,2.4-.9,3.6-.9,1.2.3,2.4.9,3.3,1.5,2.1,1.2,3.6,3,5.4,4.5,6.6,6.6,12,14.4,17.7,21.6,5.7,7.2,9.6,17.1,11.1,27.3h0ZM176.1,241.2c-3.3-2.7-7.2-5.7-9.3-3.6-.6.3-1.2,1.2-1.8,1.8l-.9.9c-.3.3-.3.9-.6,1.2-.9,1.8-1.5,3.9-2.4,6-1.5,4.2-2.7,8.7-3.3,13.5-.9,4.5-1.5,9.3-1.2,14.1.3,2.4.9,4.8,1.8,6.9.9,2.4,1.8,4.5,2.7,6.6,2.1,4.5,4.5,8.4,6.9,12.6,2.4,4.2,5.1,8.1,7.5,12.3,1.2,2.1,2.4,4.2,3.6,6s2.4,3.9,3.9,5.1c1.5,1.2,2.7,1.8,3.9,1.2,1.5-.6,2.7-1.8,4.2-3.3,2.7-3,4.8-6.3,6.9-10.2,1.2-1.8,2.1-3.9,3-5.7.6-.9.9-2.1,1.2-3l.6-1.5c0-.6.3-.9.3-1.5.9-4.2,1.2-9,.9-13.8s-1.2-9.6-2.7-14.4c-1.5-4.8-3.6-9-6.6-12.6-5.7-6.3-12-12.9-18.6-18.6h0Z"/>
              <path id="SvgjsPath3375" class="cls-25" d="M162.6,280.2c-.9-6.9-1.5-23.4,2.4-28.8,6.6-8.7,18,19.2,20.7,27.9,0,.3.3.6.3.9.6.9-.3,2.1-1.2,1.8-1.2-.6-2.7-1.8-3.9-2.4-3.3-1.5-4.8,1.5-3.9,5.4,1.2,5.4,4.2,8.7,6.6,12.9.3.6,0,1.2-.6.9-4.8-2.7-10.5-13.5-9.3-19.8.9-6,5.7-5.4,9.3-2.4-2.1-5.1-4.5-9.9-7.5-14.4-1.8-2.7-3.6-6-6.6-6.6-3.6-.6-3,.9-3.6,5.4-2.4,14.4-.9,31.2,7.5,43.5.3.3,0,.6-.3.3-5.4-6.9-9-14.7-9.9-24.6h0Z"/>
            </g>
          </g>
          <g id="svga-group-ears-right-move">
            <g id="svga-group-ears-right">
              <path id="SvgjsPath3376" class="cls-22" d="M405,260.7c.6-.9,9.9-12.9,17.7-20.1,7.8-7.2,10.2-7.2,13.8-2.7,3.9,4.5,8.7,27.3,7.5,37.2s-10.8,26.1-15.6,35.1c-5.1,9-9.9,20.1-15.3,18.9-5.7-1.2-13.2-13.8-17.1-23.1s-1.5-32.4,9-45.3h0Z"/>
              <path id="SvgjsPath3377" class="cls-18" d="M405,260.7c5.7-7.2,11.4-15,17.7-21.6,1.5-1.5,3.3-3.3,5.4-4.5.9-.6,2.1-1.2,3.3-1.5,1.2-.3,2.7.3,3.6.9.9.6,1.8,1.5,2.7,2.4.3.3.6.9,1.2,1.5l.9,1.8c.9,2.1,1.8,4.5,2.4,6.9,1.2,4.8,2.1,9.6,2.4,14.4.6,4.8.9,9.9.3,15-.3,2.7-1.2,5.1-1.8,7.5-.9,2.4-1.8,4.8-2.7,6.9-2.1,4.5-4.2,9-6.3,13.2-2.4,4.5-4.5,8.7-6.6,12.9-2.4,4.2-4.2,9-8.1,12.9s-2.1,1.8-3.3,2.4-2.7.6-3.9,0c-2.4-.9-3.9-2.4-5.4-3.9-3-3.3-5.4-6.9-7.8-10.8-1.2-2.1-2.1-4.2-3-6.3-.6-1.2-.9-2.1-1.2-3.3-.3-1.2-.9-2.4-.9-3.9-.3-2.7-.6-5.1-.6-7.8s.3-5.1.6-7.8c1.2-10.2,5.1-20.1,11.1-27.3h0ZM405.3,261c-3,3.6-5.1,8.1-6.6,12.6-1.5,4.8-2.4,9.6-2.7,14.4-.3,4.8,0,9.6.9,13.8,0,.6.3.9.3,1.5l.6,1.5c.3.9.9,2.1,1.2,3,.9,2.1,1.8,3.9,3,5.7,2.1,3.6,4.5,7.2,6.9,10.2,1.2,1.5,2.7,2.7,4.2,3.3,1.2.6,2.4,0,3.9-1.2s2.7-3,3.9-5.1c1.2-1.8,2.4-3.9,3.6-6,2.4-4.2,5.1-8.4,7.5-12.3,2.4-4.2,4.8-8.4,6.9-12.6,1.2-2.1,2.1-4.5,2.7-6.6.9-2.4,1.5-4.8,1.8-6.9.3-4.8-.3-9.6-1.2-14.1-.9-4.5-2.1-9-3.3-13.5-.6-2.1-1.5-4.2-2.4-6-.3-.3-.3-.9-.6-1.2-.3-.3-.3-.6-.9-.9-.6-.6-1.2-1.5-1.8-1.8-2.1-1.8-6,1.2-9.3,3.6-6.6,4.5-12.9,11.1-18.6,18.6Z"/>
              <path id="SvgjsPath3378" class="cls-25" d="M437.4,280.2c.9-6.9,1.5-23.4-2.4-28.8-6.6-8.7-18,19.2-20.7,27.9,0,.3-.3.6-.3.9-.6.9.3,2.1,1.2,1.8,1.2-.6,2.7-1.8,3.9-2.4,3.3-1.5,4.8,1.5,3.9,5.4-1.2,5.4-4.2,8.7-6.6,12.9-.3.6,0,1.2.6.9,4.8-2.7,10.5-13.5,9.3-19.8-.9-6-5.7-5.4-9.3-2.4,2.1-5.1,4.5-9.9,7.5-14.4,1.8-2.7,3.6-6,6.6-6.6,3.6-.6,3,.9,3.6,5.4,2.4,14.4.9,31.2-7.5,43.5-.3.3,0,.6.3.3,5.4-6.9,9-14.7,9.9-24.6h0Z"/>
            </g>
          </g>
          <g id="svga-group-faceshape-wrap">
            <g id="svga-group-faceshape-single">
              <path id="SvgjsPath4193" class="cls-22" d="M300,87.9c-64.8,0-120.7,49.2-124.4,139.2v.9c0,7.8-.3,74.1,6.9,115.5,4.6,25.2,12.1,33.3,32,50.4,19.6,16.8,58.5,49.8,85.5,49.8s65.7-33,85.5-49.8c19.6-16.8,27.4-25.2,32-50.4,7.5-41.4,6.9-107.7,6.9-115.5v-.9c-3.7-89.7-59.6-139.2-124.4-139.2h0Z"/>
              <path id="SvgjsPath4194" class="cls-24" d="M424.4,228v-.9c-3.7-89.7-59.6-139.2-124.4-139.2s-120.7,49.2-124.4,139.2v.9c0,7.8-.3,74.1,6.9,115.5,4.6,25.2,12.1,33.3,32,50.4,19.6,16.8,58.5,49.8,85.5,49.8s65.7-33,85.5-49.8c19.6-16.8,27.4-25.2,32-50.4,7.5-41.4,6.9-107.7,6.9-115.5ZM414.9,260.7c-.6,20.1-1.7,43.5-3.7,63.3-.6,5.1-1.2,9.9-2,14.7-.6,4.8-1.7,9.6-2.9,13.8-1.2,4.5-2.9,8.4-4.9,12s-4.9,7.2-8.1,10.5c-6.3,6.6-14.1,13.2-21.6,19.8-7.5,6.6-15,12.6-22.8,18.6s-15.6,11.4-23.9,16.2c-8.4,4.5-17,8.4-25.6,9-8.6,0-17.9-2.7-26.5-6.9-8.6-4.2-17-9.3-25.3-14.7-8.1-5.7-15.8-11.7-23.6-18-7.5-6.3-15.3-12.9-22.2-19.8-3.5-3.6-6.3-7.5-8.6-11.4-2.3-4.2-4-8.7-5.2-13.2-1.2-4.8-2-9.6-2.6-14.7-.6-5.1-1.2-9.9-1.4-15-1.4-20.1-1.4-43.5-1.4-63.9v-30.6c.3-9.6,1.2-19.5,2.9-29.1,3.2-19.2,8.9-38.1,18.4-55.2,9.5-16.8,23-31.8,39.7-42,16.7-9.9,36.3-15.3,55.9-15.3,19.6.3,38.9,5.4,55.6,15.6,16.7,10.2,30,25.2,39.5,42,9.5,17.1,15,36,17.9,55.2,1.4,9.6,2.3,19.2,2.3,28.8.9,10.2.6,20.1.3,30.3Z"/>
            </g>
          </g>
          <g id="svga-group-mouth-single-move">
            <g id="svga-group-mouth-single">
              <path id="SvgjsPath3544" class="cls-19" d="M259.9,370.6s6.2,7.8,16.9,12.4,40.4,13.1,68.8-12c0,0-5.5-3-12.7-7.8s-11.4-7.2-17.6-8.1-9.7,1.7-13.8,1.9c-4.1.2-8.6-2.4-13.5-2-10.7.9-28.1,13.5-28.1,13.5l.2,2.1h0Z"/>
              <path id="SvgjsPath3545" class="cls-17" d="M257.7,370.1c5.8,4.1,11.8,2.4,18.2.6,3.3-.9,5.5-1.3,9.1-1.2,4.2.2,5,1,8.3,2.5,2.5,1.1,4.9,1.8,7.7,1.4,3.2-.4,5.7-2.5,8.7-3.6,7-2.6,12.5.6,19,2.6,6.2,1.8,13,3,18.5-.9,1.5-1.1.2-3.1-1.4-2.4-8.6,3.7-16.9-.8-25.3-2-6.7-1-10.5,1.4-16.9,2.4-7.3,1.2-13.4-3.1-20.8-3.1-7.8,0-15.5,4.8-22.9,0-2.3-1.6-4.4,2.1-2.2,3.7h0Z"/>
            </g>
          </g>
          <g id="svga-group-eyes-left-move">
            <g id="svga-group-eyes-left">
              <g id="svga-group-eyesback-left">
                <path id="SvgjsPath5475" class="cls-26" d="M261.3,277.5s.9,2.7,3.9,2.1c3-.6,3.3-6.9,3-8.7s-1.5-9-5.1-12.6-9.3-5.1-9.3-5.1l-41.4,1.8s-3.3,10.2.9,15c3.9,5.1,12,9.9,20.7,9.9,8.7.3,20.1-.3,27.3-2.4h0Z"/>
              </g>
              <g id="svga-group-eyesiriswrapper-left">
                <g id="svga-group-eyesiriscontrol-left">
                  <g id="svga-group-eyesiris-left">
                    <path id="SvgjsPath5744" class="cls-1" d="M240,246.3c9,0,16.5,7.2,16.5,16.2s-7.2,16.5-16.2,16.5-16.5-7.2-16.5-16.2,7.2-16.5,16.2-16.5Z"/>
                    <path id="SvgjsPath5745" class="cls-4" d="M240.3,279.9c-9.6,0-17.4-7.5-17.4-17.1s7.5-17.4,17.1-17.4,17.4,7.5,17.4,17.1-7.5,17.1-17.1,17.4ZM240,246.9c-8.7,0-15.6,7.2-15.3,15.6s7.2,15.6,15.6,15.3c8.7,0,15.6-7.2,15.3-15.6,0-8.4-6.9-15.3-15.6-15.3Z"/>
                    <path id="SvgjsPath5746" class="cls-5" d="M240,248.7c7.8,0,14.1,6.3,14.1,13.8s-6.3,14.1-13.8,14.1-14.1-6.3-14.1-13.8,6-14.1,13.8-14.1Z"/>
                    <path id="SvgjsPath5747" class="cls-23" d="M240,250.5c6.6,0,12,5.4,12.3,12,0,6.6-5.4,12-12,12.3s-12-5.4-12.3-12c0-6.9,5.4-12.3,12-12.3Z"/>
                    <path id="SvgjsPath5748" class="cls-11" d="M240,253.8c4.8,0,8.7,3.9,9,8.7,0,4.8-3.9,8.7-8.7,9s-8.7-3.9-9-8.7c0-5.1,3.9-9,8.7-9Z"/>
                    <path id="SvgjsPath5749" class="cls-26" d="M236.1,253.8c1.8,0,3,1.2,3,3s-1.2,3-3,3-3-1.2-3-3,1.5-3,3-3ZM246.3,267.6c.6,0,1.2.6,1.2,1.2s-.3,1.2-1.2,1.2-1.2-.6-1.2-1.2.6-1.2,1.2-1.2Z"/>
                  </g>
                </g>
              </g>
              <g id="svga-group-eyesfront-left">
                <path id="SvgjsPath5483" class="cls-22" d="M208.2,265.8c0,19.2,14.1,34.5,31.8,34.5s31.8-15.6,31.8-34.5-14.1-34.5-31.8-34.5-31.8,15.3-31.8,34.5ZM213,270c-3.9-5.1-.9-15-.9-15l41.4-2.1s5.7,1.5,9.3,5.1,4.8,10.8,5.1,12.6,0,8.1-3,8.7c-3,.6-3.9-2.1-3.9-2.1-7.2,2.4-18.6,3-27.6,2.7s-16.2-4.8-20.4-9.9Z"/>
                <path id="SvgjsPath5484" class="cls-11" d="M200.4,259.2c3.3-1.2,6.6-1.8,9.9-2.4-4.8,7.8,3.3,18.3,10.5,21.6,11.4,5.4,28.2,4.2,40.2,0v.3c1.8,1.8,4.8,3.3,6.9.9,2.1-2.4,1.2-7.8.9-10.5-.9-6-4.5-12.6-9.9-15.3,3,0,5.7.3,8.4,1.5,1.8.9,2.1,1.5,4.2,2.1h.3c3-10.5-24-6.9-28.2-6.6-9.3.3-18.3,1.2-27.6,1.8-5.7.3-12.6,0-16.5,4.8-.9.6-.3,2.1.9,1.8h0ZM213.3,256.5c8.1-.9,16.2-.9,24.3-1.5,5.7-.3,11.1-.6,16.8-.9,5.1,1.5,9,4.8,10.8,9.9,1.2,3.3,4.2,15.9-3,13.8.3,0,.6-.3.9-.3.9-.3.6-1.5-.3-1.5-10.8,2.1-21.9,4.5-33,2.1-5.4-1.2-10.8-3.3-14.1-8.1-3.6-4.5-3-8.4-2.4-13.5Z"/>
              </g>
            </g>
          </g>
          <g id="svga-group-eyes-right-move">
            <g id="svga-group-eyes-right">
              <g id="svga-group-eyesback-right">
                <path id="SvgjsPath5476" class="cls-26" d="M338.7,277.5s-.9,2.7-3.9,2.1c-3-.6-3.3-6.9-3-8.7s1.5-9,5.1-12.6,9.3-5.1,9.3-5.1l41.4,2.1s3.3,10.2-.9,15c-3.9,5.1-12,9.9-20.7,9.9s-20.1-.6-27.3-2.7h0Z"/>
              </g>
              <g id="svga-group-eyesiriswrapper-right">
                <g id="svga-group-eyesiriscontrol-right">
                  <g id="svga-group-eyesiris-right">
                    <path id="SvgjsPath5750" class="cls-1" d="M359.7,246.3c9,0,16.5,7.2,16.5,16.2s-7.2,16.5-16.2,16.5-16.5-7.2-16.5-16.2,7.2-16.5,16.2-16.5Z"/>
                    <path id="SvgjsPath5751" class="cls-4" d="M360,279.9c-9.6,0-17.4-7.5-17.4-17.1s7.5-17.4,17.1-17.4,17.4,7.5,17.4,17.1-7.5,17.1-17.1,17.4ZM359.7,246.9c-8.7,0-15.6,7.2-15.3,15.6,0,8.7,7.2,15.6,15.6,15.3,8.7,0,15.6-7.2,15.3-15.6,0-8.4-6.9-15.3-15.6-15.3Z"/>
                    <path id="SvgjsPath5752" class="cls-5" d="M359.7,248.7c7.8,0,14.1,6.3,14.1,13.8s-6.3,14.1-13.8,14.1-14.1-6.3-14.1-13.8,6-14.1,13.8-14.1Z"/>
                    <path id="SvgjsPath5753" class="cls-23" d="M359.7,250.5c6.6,0,12,5.4,12.3,12,0,6.6-5.4,12-12,12.3-6.6,0-12-5.4-12.3-12,0-6.9,5.4-12.3,12-12.3Z"/>
                    <path id="SvgjsPath5754" class="cls-11" d="M359.7,253.8c4.8,0,8.7,3.9,9,8.7,0,4.8-3.9,8.7-8.7,9-4.8,0-8.7-3.9-9-8.7,0-5.1,3.9-9,8.7-9Z"/>
                    <path id="SvgjsPath5755" class="cls-26" d="M355.8,253.8c1.8,0,3,1.2,3,3s-1.2,3-3,3-3-1.2-3-3,1.5-3,3-3ZM366,267.6c.6,0,1.2.6,1.2,1.2s-.3,1.2-1.2,1.2-1.2-.6-1.2-1.2.6-1.2,1.2-1.2Z"/>
                  </g>
                </g>
              </g>
              <g id="svga-group-eyesfront-right">
                <path id="SvgjsPath5485" class="cls-22" d="M360,231.3c-17.7,0-31.8,15.6-31.8,34.5s14.1,34.5,31.8,34.5,31.8-15.6,31.8-34.5-14.4-34.5-31.8-34.5h0ZM366,280.2c-8.7.3-20.4-.6-27.6-2.7,0,0-.9,2.7-3.9,2.1-3-.6-3.3-6.9-3-8.7s1.5-9,5.1-12.6,9.3-5.1,9.3-5.1l41.4,2.1s3.3,10.2-.9,15c-3.6,4.8-11.4,9.6-20.4,9.9h0Z"/>
                <path id="SvgjsPath5488" class="cls-11" d="M400.8,257.1c-3.9-4.8-10.8-4.2-16.5-4.8-9.3-.6-18.3-1.5-27.6-1.8-4.2-.3-31.2-3.9-28.2,6.6h.3c1.8-.6,2.1-.9,4.2-2.1,2.7-1.5,5.4-1.8,8.4-1.5-5.4,2.7-9,9-9.9,15.3-.3,2.7-1.5,8.1.9,10.5,2.1,2.4,5.1.9,6.9-.9v-.3c12,4.2,28.5,5.4,40.2,0,6.9-3.3,15.3-13.8,10.5-21.6,3.3.6,6.6,1.2,9.9,2.4.9.6,1.5-.9.9-1.8h0ZM384.6,270c-3.3,4.5-8.7,6.9-14.1,8.1-11.1,2.4-22.2,0-33-2.1-.9-.3-1.2,1.2-.3,1.5.3,0,.6.3.9.3-7.2,2.1-4.2-10.5-3-13.8,2.1-5.1,5.7-8.7,10.8-9.9,5.7.3,11.1.6,16.8.9,8.1.3,16.2.6,24.3,1.5.3,5.1.9,9-2.4,13.5Z"/>
              </g>
            </g>
          </g>
          <g id="svga-group-eyebrows-left-move">
            <g id="svga-group-eyebrows-left-rotate">
              <g id="svga-group-eyebrows-left">
                <path id="SvgjsPath3339" class="cls-21" d="M201,229.5c.3-.9.9-1.8,1.5-2.4.3-.6.9-1.5,1.5-2.1s1.2-1.2,2.1-1.8c1.5-2.7,5.1-4.8,7.5-6.3,2.7-1.5,5.4-2.7,8.7-2.7,3-.6,6.3-.6,8.7.6,1.2,0,2.1.3,3,.9,3.3-.3,6.9.6,9.9,1.2,4.2.9,8.4,1.8,12.3,3.6,4.2,0,8.4.3,12.3,1.5h.6c.3,0,.6.3.6.3h.3c.3,0,.6.3.9.6.3.3,0,.9,0,1.2v.3c0,.6,0,1.2-.3,1.8,0,1.8-.3,3.3-1.5,4.8,0,.3,0,.6-.3.9-.3,1.5-.6,3.3-2.1,4.2-.6.6-1.5.9-2.4.9s-.6,0-.9-.3h-1.8c-1.8.6-4.2,0-5.7-.3-1.8-.3-3.6-.9-5.1-1.8-5.4-.9-10.5-2.4-15.9-3.6-4.8-1.2-12-1.2-16.2-3.9-2.1.3-3.9.6-6,.6s-2.1.3-3.3,0c-.6,0-1.5,0-2.1-.6,0,0-.3,0-.3-.3h-.3l-1.2,1.2c-.9.9-2.1,2.1-3.6,2.4-.3.6-.9,0-.9-.9h0Z"/>
                <path id="SvgjsPath3340" class="cls-8" d="M263.1,231c-.3-1.8-.6-3.6-1.2-5.1,0-.6.6-.9.9-.3,2.1,3,2.7,8.4.6,11.7-.3.6-.9.3-.9-.3.3-2.4.6-4.2.6-6h0ZM252.9,221.4c3.9,2.4,6.3,7.8,6.3,12s-.9.9-.9.3c-.6-2.1-1.2-3.9-2.1-5.7-.9-2.1-2.7-3.6-3.9-5.7-.9-.6,0-1.2.6-.9h0ZM243,219.3c6.6,2.4,11.4,9.6,12.6,15.9,0,.6-.6.6-.9.3-1.2-3-2.7-6-5.1-8.4-2.1-2.7-4.8-4.2-7.5-6.6-.6-.3.3-1.5.9-1.2ZM228.3,216.9c7.2,1.8,14.4,7.8,17.4,14.1.3.6-.9,1.2-1.2.6-2.4-3-4.8-5.7-7.8-8.1-2.7-2.1-6-3.6-9-5.4-.6-.3-.3-1.2.6-1.2h0ZM202.2,228c4.8-5.4,11.4-12.9,19.5-12,.6,0,.6.9,0,.9-7.8.6-12.9,7.5-18.9,11.7-.6.3-1.2-.3-.6-.6h0Z"/>
                <path id="SvgjsPath3341" class="cls-9" d="M272.7,223.8c-.3-.9-1.5-.9-1.8,0-.9,3.3-.9,7.2-3.6,9.9-1.8,2.1-4.5,2.4-7.2,2.1.9-4.5.6-11.1-2.4-14.7-.6-.6-1.5-.3-1.2.6,0,2.4,1.2,4.8,1.5,7.2s.6,4.5.6,6.9c-.3,0-.6,0-.9-.3-.9-6-3.9-12.3-8.4-16.5,6.9,1.5,13.8,2.7,20.7,3.3.3,0,.6-.6.3-.6-7.8-2.7-15.9-4.2-24-6-7.2-1.5-15.3-4.2-22.8-4.5-6.3-.3-10.8,2.7-15,6.6-4.5,4.2-9.3,9.3-12.3,14.7l-.6.6c-.3.3-.6.9-.3,1.2,0,0,0,.3-.3.3-.6,1.2.9,2.1,1.8,1.2.3,0,.6,0,.9-.3,4.2-2.1,7.5-4.2,12.3-4.8,3.9-.6,8.1-.3,12,.3,8.7,1.2,16.8,3.9,24.9,6.3,6.3,1.8,14.7,5.1,20.7.6,5.1-3,5.7-9.3,5.1-14.1ZM232.5,227.7c-1.5-.3-3.3-.6-5.1-.9.3-3.3-.9-6.9-2.4-9.9,2.1,1.8,4.2,3.6,6,5.7,1.8,1.8,2.7,4.2,4.5,6-1.2-.3-2.1-.6-3-.9h0ZM210,220.5c3.6-3.3,7.5-5.1,12-5.7.6,2.4,1.8,4.8,2.1,7.2l.9,4.5c-.9,0-2.1-.3-3-.3-1.5-2.7-3.9-5.4-6.9-6.3-.6-.3-.9.6-.6,1.2,1.2,1.2,2.7,2.4,3.9,3.6.3.6.6.9,1.2,1.5-5.7-.3-11.4.3-16.2,2.4,1.8-3,3.9-5.7,6.6-8.1h0ZM255.6,234.9c-.6-.3-1.2-.3-1.8-.6-1.2-.3-2.7-.9-3.9-1.2-2.4-5.4-6.3-10.8-11.1-14.4-.6-.3-1.2.3-.9.6,3.6,4.2,6.6,8.7,9.9,13.2-3.3-1.2-6.6-2.1-9.6-3.3-.6-3.3-3.6-6.6-5.7-9-2.1-2.1-4.5-4.2-7.2-5.7,1.2,0,2.4.3,3.9.3,6,.9,12,2.4,18,3.6v.3c2.1,3.3,4.5,6.6,6.3,9.9.6,2.1,1.2,4.2,2.1,6.3h0Z"/>
              </g>
            </g>
          </g>
          <g id="svga-group-eyebrows-right-move">
            <g id="svga-group-eyebrows-right-rotate">
              <g id="svga-group-eyebrows-right">
                <path id="SvgjsPath3342" class="cls-21" d="M399,229.5c-.3-.9-.9-1.8-1.5-2.4-.3-.6-.9-1.5-1.5-2.1s-1.2-1.2-2.1-1.8c-1.5-2.7-5.1-4.8-7.5-6.3-2.7-1.5-5.4-2.7-8.7-2.7-3-.6-6.3-.6-8.7.6-1.2,0-2.1.3-3,.9-3.3-.3-6.9.6-9.9,1.2-4.2.9-8.4,1.8-12.3,3.6-4.2,0-8.4.3-12.3,1.5h-.6c-.3,0-.6.3-.6.3h-.3c-.3,0-.6.3-.9.6-.3.3,0,.9,0,1.2v.3c0,.6,0,1.2.3,1.8,0,1.8.3,3.3,1.5,4.8,0,.3,0,.6.3.9.3,1.5.6,3.3,2.1,4.2.6.6,1.5.9,2.4.9s.6,0,.9-.3h1.8c1.8.6,4.2,0,5.7-.3,1.8-.3,3.6-.9,5.1-1.8,5.4-.9,10.5-2.4,15.9-3.6,4.8-1.2,12-1.2,16.2-3.9,2.1.3,4.2.6,6,.6s2.1.3,3.3,0c.6,0,1.5,0,2.1-.6,0,0,.3,0,.3-.3h.3l1.2,1.2c.9.9,2.1,2.1,3.6,2.4.3.6.9,0,.9-.9h0Z"/>
                <path id="SvgjsPath3343" class="cls-8" d="M336.9,231c.3-1.8.6-3.6,1.2-5.1,0-.6-.6-.9-.9-.3-2.1,3-2.7,8.4-.6,11.7.3.6.9.3.9-.3-.3-2.4-.6-4.2-.6-6h0ZM347.1,221.4c-3.9,2.4-6.3,7.8-6.3,12s.9.9.9.3c.6-2.1,1.2-3.9,2.1-5.7.9-2.1,2.7-3.6,3.9-5.7.9-.6,0-1.2-.6-.9h0ZM357,219.3c-6.6,2.4-11.4,9.6-12.6,15.9,0,.6.6.6.9.3,1.2-3,2.7-6,5.1-8.4,2.1-2.7,4.8-4.2,7.5-6.6.6-.3-.3-1.5-.9-1.2ZM371.7,216.9c-7.2,1.8-14.4,7.8-17.4,14.1-.3.6.9,1.2,1.2.6,2.4-3,4.8-5.7,7.8-8.1,2.7-2.1,6-3.6,9-5.4.6-.3.3-1.2-.6-1.2h0ZM397.8,228c-4.8-5.4-11.4-12.9-19.5-12-.6,0-.6.9,0,.9,7.8.6,12.9,7.5,18.9,11.7.6.3,1.2-.3.6-.6h0Z"/>
                <path id="SvgjsPath3344" class="cls-9" d="M331.8,237.9c6,4.5,14.4,1.2,20.7-.6,8.4-2.4,16.5-5.4,24.9-6.3,3.9-.6,8.1-.9,12-.3,4.8.6,8.1,2.7,12.3,4.8.3.3.6.3.9.3.9.9,2.4,0,1.8-1.2,0,0,0-.3-.3-.3,0-.3,0-.9-.3-1.2l-.6-.6c-3-5.4-7.8-10.5-12.3-14.7-4.2-3.9-8.7-6.9-15-6.6-7.5.3-15.6,3-22.8,4.5-8.1,1.8-16.2,3.3-24,6-.6.3-.3.6.3.6,6.9-.6,13.8-1.8,20.7-3.3-4.5,4.2-7.5,10.5-8.4,16.5-.3,0-.6,0-.9.3.3-2.4.3-4.5.6-6.9s1.5-4.8,1.5-7.2-.9-.9-1.2-.6c-3,3.6-3.3,10.2-2.4,14.7-2.7.3-5.1,0-7.2-2.1-2.4-2.7-2.7-6.6-3.6-10.2-.3-.9-1.5-.9-1.8,0,0,5.1.6,11.4,5.1,14.4h0ZM364.5,228.3c1.5-1.8,2.7-4.2,4.5-6,1.8-2.1,3.9-3.9,6-5.7-1.5,3-2.7,6.9-2.4,9.9-1.8.3-3.6.6-5.1.9-.9.6-1.8.9-3,.9h0ZM396.9,228.3c-4.8-2.1-10.8-2.7-16.2-2.4.3-.6.6-.9,1.2-1.5,1.2-1.5,2.7-2.4,3.9-3.6.3-.3.3-1.2-.6-1.2-3,.9-5.4,3.6-6.9,6.3-.9,0-2.1.3-3,.3l.9-4.5c.6-2.4,1.5-4.8,2.1-7.2,4.2.6,8.1,2.4,12,5.7,2.4,2.7,4.5,5.4,6.6,8.1h0ZM346.8,228.9c1.8-3.6,4.2-6.6,6.3-9.9v-.3c6-1.2,12-2.7,18-3.6,1.2-.3,2.7-.3,3.9-.3-2.7,1.5-5.1,3.6-7.2,5.7-2.1,2.4-5.1,5.7-5.7,9-3.3.9-6.6,2.1-9.6,3.3,3-4.5,6.3-8.7,9.9-13.2.3-.6-.3-.9-.9-.6-4.8,3.6-8.7,9-11.1,14.4-1.2.3-2.7.9-3.9,1.2-.6.3-1.2.3-1.8.6.6-2.4,1.2-4.5,2.1-6.3h0Z"/>
              </g>
            </g>
          </g>
          <g id="svga-group-nose-single-move">
            <g id="svga-group-nose-single">
              <path id="SvgjsPath4276" class="cls-22" d="M314.4,304.2c1.6,2.6,7.5,10.3,8.8,14s-.4,9.2-4.2,10.3-10.3-1.1-11.2-.5c-.9.5-5.3,5.9-7.4,5.5s-7.5-6.1-8.6-6.1-6.1,1.3-8.5,1.3-8.3-2-7.5-7.2c.7-5.2,7-15.8,8.3-17.3,1.3-1.5,4.2-6.6,5-9.7s1.7-20,2-23.9,3.8-8.5,7.4-8.8c3.5-.4,9.5,2.2,10.1,8.3.5,6.1,1.7,18.2,2.2,23.1.5,5,1.7,7.7,3.7,11h0Z"/>
              <path id="SvgjsPath4277" class="cls-24" d="M293.2,244.6c-2.4,10-2.7,20.6-3.8,30.8-1.1,10.9-3.2,22.2-3.1,33.1,0,.9,1.4,1.1,1.6.2,2.2-10,2.5-20.7,3.5-30.9,1.1-10.9,3.1-22.2,2.8-33.1,0-.5-.8-.7-1-.1h0Z"/>
              <path id="SvgjsPath4278" class="cls-24" d="M284.2,302.9c-2.9,3.9-5.4,8.2-7.6,12.6-1.4,2.8-3.1,6.2-2.2,9.5,1.5,5.4,8.4,7.1,12.8,4.5,1.3-.8.7-2.8-.8-2.8-2.6,0-5.6.8-7.8-1.4-2.5-2.7,0-7.5,1.1-10.2,1.7-4,3.6-7.8,5.2-11.7.2-.5-.6-.7-.9-.3Z"/>
              <path id="SvgjsPath4279" class="cls-24" d="M283.8,325.1c8.1-.6,9.6,9.6,17.3,9.8,6.6.2,7.1-9.7,13.4-9.4.7,0,1-1,.4-1.3-7.1-4.2-8.4,8.2-14.9,7.4-3.9-.5-6.6-6.2-10.1-7.8-2.4-1.1-4.1-1-6.4,0-.6.3-.3,1.3.3,1.3h0Z"/>
              <path id="SvgjsPath4280" class="cls-24" d="M312.2,329.7c5.3,1.2,11.5-.5,12.8-6.4.6-3-.4-5.9-1.9-8.4-2.5-4.1-5.8-7.6-8.2-11.8-.4-.7-1.4-.3-1.5.4-.3,4.8,3.2,8.1,5.8,11.7,2.3,3.4,4.4,8.1.4,11.4-1.8,1.5-5.2,1.3-7.4,1.7-.7.1-.7,1.2,0,1.4h0Z"/>
              <path id="SvgjsPath4281" class="cls-7" d="M307,313.7c-1.2-2.1-4.2-2.4-5.9-.7s-.7.8-.9,1c-.2.3-.6.7-.7.8-.2.3-.3.6-.5.9l-.3.8s0,0,0,.1c-.2.2-.3.4-.5.6-.5.5-1,1.1-1.4,1.7-1.2,1.9-.2,4,1.4,5.2,2.5,1.9,6.1.4,7.8-1.7,2.2-2.5,2.7-5.8,1.1-8.7h0Z"/>
            </g>
          </g>
          <g id="svga-group-hair-front">
            <path id="SvgjsPath7571" class="cls-15" d="M403.1,180.9c-2.9,9.9-2.9,15.3-2.6,22.8.3,7.2-2.9,15.3,3.2,14.4,6-.9,12.7-2.1,16.4-12.6s8.6-24.6,8.4-30c-.3-5.4-10.7-27-10.7-27l-9.5,23.4-5.2,9Z"/>
            <path id="SvgjsPath7572" class="cls-28" d="M426.1,204c1.2-10.8,2.9-25.5.6-27.9-2.3-2.4-16.1,6.6-17.3,14.4s-1.2,22.5-1.2,22.5c-2,8.1-2.3,12-2,17.4s-2.9,11.7,2,10.8c.3,0,.6,0,.6-.3-.9,6.9-.3,11.4.6,16.2.9,6.6-2,13.5,2.9,13.8s7.8-1.8,10.1-11.4c2.3-9.6,3.7-19.2,4-28.5.3-7.5.6-18.9-.6-25.2.3-.6.3-1.2.3-1.8ZM191.1,224.4c-1.4-4.8-.9-12-2.9-15.9s-10.1-19.2-10.1-19.2c-2.6,5.4-6.6,11.7-6.6,21.3s-1.2,13.8.6,18.6c-.3,3.6-.3,7.2,0,9.3.6,3.3,5.2,24.3,9.8,27.3,4,2.4,6.9-8.7,6.3-18.6,4.6-8.7,4.3-18.3,2.9-22.8h0Z"/>
            <path id="SvgjsPath7573" class="cls-15" d="M182.8,165c-2.6,2.4-6.6,9.6-7.8,17.1s-1.2,15,.3,18.6c1.7,3.3,10.4,21.9,16.1,18.9s3.7-9,3.2-18.6.3-11.1-2-19.2c-2.3-8.4-9.8-16.8-9.8-16.8h0ZM208.4,53.7c-2-7.5,8.6,4.2,8.4,22.5-.3,18.6,2.9,31.8,10.9,39s38,33.6,38,33.6c0,0-6.9,2.1-20.7-2.1s-31.7-10.5-40.9-22.8-6.6-30.6-2.6-39.6c4-8.7,9.5-20.7,6.9-30.6h0ZM356.4,149.7c6.3-1.8,16.7-5.1,21.6-1.8,4.6,3.3,4.9,14.1,15.3,13.8,10.4-.3,19.6-19.5,18.7-28.2-.6-8.7-6.9-23.4-17-27.3s-8.9,7.8-10.1,12.3.3,7.5-10.1,15.3c-10.1,8.1-18.4,15.9-18.4,15.9h0Z"/>
            <path id="SvgjsPath7574" class="cls-10" d="M390.1,157.2c-.6,3.3-1.2,13.2,3.2,19.2s1.7,12.9,10.9,9.3c9.2-3.6,19.9-16.2,19-25.5-.6-9.3-7.8-31.8-15.3-36-7.8-3.9-8.4,13.8-8.4,13.8l-9.5,19.2h0ZM203.2,102c-5.2,6.3-14.1,8.4-12.1,19.5s15.6,23.1,28.2,24.9,22.2-.3,23.9-1.8-27.6-18.6-27.6-18.6l-12.4-24Z"/>
            <path id="SvgjsPath7575" class="cls-15" d="M192.9,118.5c-3.5,3-6.9,4.5-8.1,13.2-1.2,8.7-1.4,10.2,3.5,20.1,5.2,9.9,5.8,15.9,13.2,14.1,7.5-1.8,15.8-8.7,15-19.5s-7.8-3.9-11.2-13.5-6-11.7-6-11.7l-6.3-2.7Z"/>
            <path id="SvgjsPath7576" class="cls-28" d="M187.4,138.6c-3.5,4.8-7.5,5.7-8.4,14.7s-3.7,8.7,2,19.2c5.8,10.5,11.5,23.1,17,17.1,5.5-6,4.6-9,5.5-16.2s-1.7-14.7-4.9-21c-3.5-6.6-11.2-13.8-11.2-13.8h0ZM286.7,153.6s-18.4,0-29.1-5.4-33.4-26.1-38-40.8,1.2-43.2-2.3-56.7c0,0,4.3,11.4,8.4,17.4s12.7,6,26.5,14.4,26.2,25.5,28.2,38.4,6.3,32.7,6.3,32.7h0Z"/>
            <path id="SvgjsPath7577" class="cls-15" d="M224.3,36.3c-.3-1.5-5.8,20.1,5.8,31.8s29.4,24.9,33.1,40.5,2.6,18.3,6.6,27.9,9.2,19.2,16.7,22.8c7.5,3.6,21.3-.6,21.3-3s11.8,10.5,19.6,6.6c7.8-3.9,29.7-31.8,32.8-51.6s-6.9-40.8-19.6-44.1c-12.7-3.3-62.2-7.2-72.6-12.9s-15-11.1-16.1-15.3c0,0-.9,10.2,8.6,22.2s27.9,19.8,27.9,19.8c0,0,13.5,3.6,15.3,15,0,0-23.6-19.2-43.2-26.7s-28.8-2.7-36.3-33h0Z"/>
            <path id="SvgjsPath7578" class="cls-10" d="M313,163.2s-12.1.9-16.7-13.5-2-41.7-10.4-56.4-40-22.2-48.1-30.9c-7.8-8.7-10.9-27.9-10.9-27.9,0,0,7.8,23.7,19.3,25.2,11.2,1.5,49.8,14.7,62.5,20.7s26.2,30.9,23.6,46.5-7.2,37.8-19.3,36.3h0Z"/>
            <path id="SvgjsPath7579" class="cls-28" d="M330.5,62.1c1.7,0,31.1,8.7,45.8,13.5,14.7,4.8,49,30.9,12.7,53.4s-23,26.4-58.5,32.7c-9.8,1.8,10.4-16.8,18.1-33,7.8-16.2,7.2-43.8,2.9-49.8s-21-16.8-21-16.8h0Z"/>
            <path id="SvgjsPath7580" class="cls-20" d="M289.3,158.7c-10.1-9-15.8-20.1-18.4-33.6-1.7-9.6-.9-20.4-4.9-29.1-2.6-5.4-6.3-9-10.9-12.3-12.7-9.3-22.8-15-28.2-31.5-.3-.6-1.2-.3-.9.3,2.3,9,6.3,16.8,13.2,22.8,12.1,11.1,24.8,14.4,27.4,33.9,2.3,18.9,4.6,40.5,22.8,50.4-.3,0,.3-.6,0-.9h0ZM296.5,156.9c-17.6-8.1-23.6-25.2-25.1-43.8,0-.6-.9-.6-.9,0-.6,18.6,7.8,38.4,25.6,44.7.6,0,.9-.6.3-.9h0ZM306.6,158.4c-10.1-12-12.7-25.2-12.4-40.8.3-8.7,1.4-17.7-3.5-25.5-4-6.6-10.7-9.3-17-12.6-10.7-5.4-21-10.8-31.7-15.3-.3,0-.6.3-.3.6,10.1,6,20.7,11.1,31.1,16.5,8.1,4.2,15,7.2,18.1,18,1.7,5.7.6,12.6.6,18.3-.6,16.5,3.2,29.7,14.4,41.4.3.6,1.2-.3.6-.6ZM317,157.5c-10.7-9.6-4.6-20.7-4.3-33,0-7.8-2-14.7-5.8-21.3-.3-.6-.9,0-.6.3,3.2,7.2,4.9,14.7,4.6,22.5-.3,5.4-2.3,10.5-2.3,15.9-.3,6.9,2.9,12,8.1,15.9.3.6.6,0,.3-.3ZM369.7,80.7c-.6-.3-.9.6-.3.9,2.3.9,4.6,1.5,6.9,2.4v.3c21.9,19.8-7.8,43.8-22.2,54.3-.6.3,0,1.2.6.9,15.3-8.4,46.1-37.5,23.3-54.9,8.9,3.9,10.9,6,13.5,16.5,2.3,9.6,1.2,14.7-5.8,22.2-3.7,4.2-8.9,7.2-13.8,10.2-12.1,7.5-22.8,17.4-35.1,24.6-.3,0,0,.6.3.3,12.7-6,23.3-16.5,35.4-24,8.1-5.1,16.4-10.5,20.4-19.5,8.6-19.2-7.8-30-23.3-34.2h0ZM339.5,70.8c-.3,0-.6.6,0,.6,13.2,3,28.2,6.3,30.2,23.1,1.4,12-6,23.4-13.8,31.2-10.1,9.9-21.3,17.7-23.6,33-.3,1.2,1.4,1.8,1.7.6,4.3-25.8,36.6-32.7,38-60.9,1.2-20.4-16.1-26.4-32.5-27.6h0ZM336.3,95.4c-12.1-28.5-50.1-25.8-71.1-43.5-.3-.3-.9.3-.6.6,20.7,20.1,54.4,16.8,70,43.8.9.9,2.3,0,1.7-.9h0ZM410.6,138.3c-.3-.6-1.2-.6-1.2,0,.3,15.9-18.1,25.5-13,42,.3.6,1.2.3.9-.3-3.7-16.2,16.7-25.2,13.2-41.7h0ZM419.5,160.5c0-.6-.9-.6-1.2,0-1.7,5.4-2.9,10.8-5.5,15.9-2.3,4.2-5.5,7.5-7.5,11.7-2.9,6-3.2,12-1.4,18.3.3.6,1.2.3.9-.3-1.7-12,4-17.7,9.5-27.3,3.2-5.7,4.6-12,5.2-18.3h0ZM421.5,166.5c0-.9-1.2-.6-1.4.3-.6,6.6-1.2,12.3-3.5,18.3-.3.6.6,1.2.9.6,2.9-5.7,4.9-12.6,4-19.2h0ZM421.5,201.6c0-.6-.9-.6-1.2-.3-1.7,9-4.6,17.1-7.2,25.8-1.7,5.7-2.3,10.8,0,16.2.3.9,1.7.3,1.4-.6-2.9-8.4.9-15.3,3.5-23.1,2.3-5.7,3.5-11.7,3.5-18h0ZM421,225.6c-1.4,3.3-1.7,7.5-1.7,11.1s1.2.6,1.2,0c0-3.6.9-6.9,1.4-10.5,0-.9-.6-1.5-.9-.6h0ZM262.3,141.3c-13-4.8-23.6-11.7-30.5-24.6-7.2-13.2-6.3-27-6.6-41.7,0-.9-1.4-.9-1.4,0-2.6,29.1,8.1,60,38.3,67.2.9.3.9-.6.3-.9ZM237.5,135.3c-7.8-5.1-15.8-14.1-20.2-22.5-5.5-10.2-5.2-21.9-4.9-33.3,0-.9-1.2-.9-1.2,0-1.4,23.1,4.9,45,25.9,56.7.3.3.9-.6.3-.9h0ZM226.8,135.6c-10.9-5.4-19.3-13.2-24.2-25.2-.3-.6-1.4-.6-1.2.3,3.5,12,12.7,23.1,24.8,26.1.6.3,1.2-.9.6-1.2h0ZM214.5,140.4c-4.9-2.1-9.5-4.5-13.8-7.5-.3-.3-.6.3-.3.6,4.3,3,8.9,5.7,14.1,7.5.3-.3.3-.6,0-.6ZM202.1,154.8c-4.6-4.5-9.2-8.4-12.7-13.8-.3-.6-1.2,0-.9.6,3.5,5.4,7.8,10.8,13,14.1.3,0,.9-.6.6-.9h0ZM362.2,92.7c-1.2-10.5-8.9-18.6-18.7-20.1-.6,0-.6.6-.3.6,11.8,4.2,20.4,15.3,16.4,29.1-2.3,7.8-8.6,13.8-13.2,20.1-.3.3.3.6.6.3,7.5-8.7,16.7-17.1,15.3-30ZM332.8,82.8c-.6-.6-1.2.3-.6.6,16.1,19.5,2.3,42.9-4,63.6-.3.6.6.9.9.3,7.5-19.8,21.6-46.5,3.7-64.5h0ZM284.7,80.1c-.6,0-.9.6-.3.9,25.6,7.5,11.2,43.2,19.3,62.1.3.6.9,0,.9-.3-5.2-19.2,6.3-56.7-19.9-62.7Z"/>
          </g>
          <g id="svga-group-glasses-single-move">
            <g id="svga-group-glasses-single">
              <path id="SvgjsPath7031" class="cls-6" d="M286.1,264.1s1.1-7.1-11.5-11.4c-9.5-3.2-19.4-3.7-27.4-3.7s-33.8-.3-40.4.3c-6.5.6-16.4,1.3-19.6,11s1.1,26,14.2,34.2,40.4,8.8,57.8,3.4c17.4-5.3,25.4-17.4,26.9-33.8h0Z"/>
              <path id="SvgjsPath7032" class="cls-6" d="M313.9,264.1s-1.1-7.1,11.5-11.4c9.5-3.2,19.4-3.7,27.4-3.7s33.8-.3,40.4.3c6.5.6,16.4,1.3,19.6,11,3.3,9.7-1.1,26-14.2,34.2s-40.4,8.8-57.8,3.4c-17.4-5.3-25.4-17.4-26.9-33.8h0Z"/>
              <path id="SvgjsPath7033" class="cls-14" d="M286.1,262.1s11.8-5.6,27.8,0v3.2s-17.1-3.2-28,0l.3-3.2Z"/>
              <path id="SvgjsPath7034" class="cls-12" d="M233.4,302.6c-13.5,0-25.4-2.6-32.7-7.1-11.8-7.3-16.4-20.9-15.7-30.3v-.4s-7.9,0-7.9,0v-6.8h9.7v-.2c4.1-8.2,13.2-9,19.3-9.6h.6c2.8-.3,9.2-.5,19.7-.5s9.7,0,13.8,0c3,0,5.3,0,7,0,7.9,0,18.1.4,27.8,3.7,12.9,4.4,12.4,11.8,12.3,12.7-1.6,18-11,29.8-27.8,34.9-7.4,2.3-16.7,3.5-26.1,3.5h0ZM226.6,250.2c-10.5,0-16.9.1-19.6.4h-.6c-6.7.7-15,1.5-18,10.1-3.3,9.7,1.5,25.1,13.7,32.7,6.8,4.3,18.2,6.7,31.4,6.7s18.4-1.2,25.4-3.4c16-4.9,24.5-15.6,26-32.8,0-.7.3-6.4-10.7-10.1-9.4-3.2-19.4-3.6-27-3.6s-7.3,0-7.3,0c-3.8,0-8.6,0-13.3,0h0Z"/>
              <path id="SvgjsPath7035" class="cls-14" d="M226.4,248.1c4.8,0,9.6,0,13.8,0h.2c2.8,0,5.2,0,6.8,0,7.8,0,18,.4,27.7,3.7,12.5,4.3,12.1,11.5,12,12.2-1.6,17.9-10.9,29.5-27.5,34.6-7.4,2.2-16.6,3.5-26,3.5-13.5,0-25.3-2.6-32.5-7-11.6-7.3-16.2-20.6-15.5-29.9v-.9c0,0-7.9,0-7.9,0v-6h9.5l.2-.5c3.9-8,12.9-8.8,18.8-9.4h.6c2.8-.3,9.2-.4,19.7-.4M233.4,300.5c9.3,0,18.4-1.2,25.5-3.4,16.2-4.9,24.8-15.8,26.3-33.2,0-.7.3-6.6-10.9-10.5-9.4-3.2-19.5-3.6-27.2-3.6s-4,0-6.8,0h-.5c-3.9,0-8.6,0-13.3,0-10.5,0-17,.1-19.7.4h-.6c-6.5.7-15.3,1.5-18.3,10.4-3.3,9.8,1.5,25.5,13.8,33.2,6.9,4.3,18.4,6.7,31.6,6.7M226.4,247.3c-8.3,0-16.4,0-19.7.4h-.6c-6.2.7-15.4,1.5-19.5,9.9h-9.8v7.6h7.9c-.8,10.4,4.6,23.6,15.9,30.7,8,4.9,20.4,7.2,32.9,7.2s18.8-1.3,26.3-3.5c17-5.2,26.4-17.1,28.1-35.2,0-.9.6-8.6-12.6-13.1-9.8-3.4-20.1-3.8-28-3.8s-4,0-6.8,0c-4.2,0-9.1,0-14,0h0ZM233.4,299.7c-11.9,0-23.8-2-31.2-6.6-12-7.5-16.7-22.7-13.5-32.2,2.8-8.4,11-9.2,17.6-9.8h.6c3.2-.4,11.4-.5,19.6-.5s9.8,0,13.8,0,5.2,0,6.9,0c7.6,0,17.6.4,26.9,3.6,10.8,3.7,10.4,9.3,10.4,9.6h0c-1.5,17.1-9.9,27.7-25.7,32.5-7.1,2.2-16.2,3.4-25.3,3.4Z"/>
              <path id="SvgjsPath7036" class="cls-12" d="M366.6,302.6c-9.4,0-18.7-1.3-26.2-3.5-16.8-5.1-26.2-16.9-27.8-34.9,0-.9-.6-8.3,12.3-12.7,9.7-3.3,20-3.7,27.8-3.7s4,0,6.8,0c4.3,0,9.2,0,14,0,10.5,0,16.9.1,19.7.4h.6c6,.6,15.1,1.5,19.2,9.7v.2h9.8v6.8h-7.9v.4c.7,9.4-3.9,23-15.7,30.3-7.2,4.5-19.1,7.1-32.7,7.1h0ZM373.4,250.2c-4.7,0-9.4,0-13.3,0,0,0-5.7,0-7.3,0-7.7,0-17.7.4-27,3.6-11,3.7-10.7,9.4-10.7,10,1.6,17.3,10.1,28,26,32.8,7,2.1,16.3,3.4,25.4,3.4,13.1,0,24.6-2.4,31.4-6.7,12.2-7.6,16.9-23,13.7-32.7-2.9-8.6-11.3-9.4-18-10.1h-.6c-2.6-.3-9.1-.5-19.6-.5h0Z"/>
              <path id="SvgjsPath7037" class="cls-14" d="M373.6,247.3v.8c10.5,0,16.9.1,19.7.4h.6c5.9.6,14.9,1.5,18.8,9.4l.2.5h9.5v6h-8v.9c.8,9.3-3.8,22.7-15.4,29.9-7.2,4.5-19,7-32.5,7s-18.6-1.3-26-3.5c-16.6-5.1-25.9-16.7-27.5-34.6,0-.8-.5-8,12-12.2,9.7-3.3,19.9-3.7,27.7-3.7s4,0,6.8,0h.2c4.1,0,9,0,13.8,0v-.9M366.6,300.5c13.2,0,24.7-2.4,31.6-6.7,12.4-7.7,17.2-23.4,13.8-33.2-3-8.9-11.8-9.7-18.3-10.4h-.6c-2.7-.3-9.1-.5-19.7-.5s-9.4,0-13.3,0h-.5c-2.8,0-5.2,0-6.8,0-7.7,0-17.7.4-27.2,3.6-11.3,3.8-11,9.8-10.9,10.5,1.6,17.4,10.2,28.2,26.3,33.1,7.2,2.2,16.2,3.4,25.5,3.4M373.6,247.3c-4.9,0-9.8,0-14,0-2.8,0-5.2,0-6.8,0-7.9,0-18.2.4-28,3.8-13.2,4.5-12.7,12.2-12.6,13.1,1.6,18.2,11.1,30.1,28.1,35.2,7.5,2.3,16.9,3.5,26.3,3.5s24.9-2.2,32.9-7.2c11.3-7,16.7-20.3,15.9-30.7h7.9v-7.6h-9.8c-4.1-8.3-13.3-9.2-19.5-9.8h-.6c-3.3-.4-11.4-.5-19.7-.5h0ZM366.6,299.7c-9.1,0-18.2-1.2-25.3-3.3-15.8-4.8-24.2-15.4-25.7-32.4h0c0-.4-.4-6,10.4-9.7,9.3-3.2,19.3-3.6,26.9-3.6s4,0,6.9,0c3.9,0,8.9,0,13.8,0,8.2,0,16.4,0,19.6.4h.6c6.6.7,14.8,1.5,17.6,9.9,3.2,9.5-1.5,24.7-13.5,32.2-7.4,4.5-19.3,6.5-31.2,6.5h0Z"/>
            </g>
          </g>
        </g>
      </g>
    </g>
    <rect id="svga-credit-rect" class="cls-3" y="555" width="600" height="45"/>
    <g id="svga-credit-text" class="cls-30">
      <text class="cls-29" transform="translate(99.9 586.8)"><tspan x="0" y="0">Created on AvatarMaker.com</tspan></text>
    </g>
  </g>
</svg>