<?xml version="1.0" encoding="UTF-8"?>
<svg id="Layer_1" data-name="Layer 1" xmlns="http://www.w3.org/2000/svg" version="1.1" viewBox="0 0 600 600">
  <defs>
    <style>
      .cls-1 {
        fill: #dda78f;
      }

      .cls-1, .cls-2, .cls-3, .cls-4, .cls-5, .cls-6, .cls-7, .cls-8, .cls-9, .cls-10, .cls-11, .cls-12, .cls-13, .cls-14, .cls-15, .cls-16, .cls-17, .cls-18, .cls-19, .cls-20, .cls-21, .cls-22, .cls-23, .cls-24, .cls-25, .cls-26 {
        stroke-width: 0px;
      }

      .cls-2, .cls-7 {
        fill: #cd8d71;
      }

      .cls-3 {
        fill: #b4b4b4;
      }

      .cls-4 {
        fill: #f5f7ff;
      }

      .cls-5 {
        fill: #ecf0f1;
        opacity: .5;
      }

      .cls-5, .cls-7, .cls-27, .cls-28 {
        isolation: isolate;
      }

      .cls-5, .cls-28 {
        display: none;
      }

      .cls-6 {
        fill: #7a6155;
      }

      .cls-7 {
        opacity: .6;
      }

      .cls-8 {
        fill: #f4d2c3;
      }

      .cls-9 {
        fill: #342b27;
      }

      .cls-10 {
        fill: #abb5e0;
      }

      .cls-27 {
        fill: #333;
        font-family: AvenirNext-Regular, 'Avenir Next';
        font-size: 30px;
      }

      .cls-11 {
        fill: #36240b;
      }

      .cls-12 {
        fill: #c26a74;
      }

      .cls-13 {
        fill: #251c18;
      }

      .cls-14 {
        fill: #d18790;
      }

      .cls-15 {
        fill: #000;
      }

      .cls-16 {
        fill: #d3d3d3;
      }

      .cls-17 {
        fill: #ecc3b1;
      }

      .cls-18 {
        fill: #2f1e07;
      }

      .cls-19 {
        fill: #ced5f0;
      }

      .cls-20 {
        fill: #3e2a10;
      }

      .cls-21 {
        fill: #6b4e40;
      }

      .cls-22 {
        fill: #1f1302;
      }

      .cls-23 {
        fill: #5c3d2e;
      }

      .cls-24 {
        fill: #fff;
      }

      .cls-25 {
        fill: #160f0c;
      }

      .cls-26 {
        fill: #be7556;
      }
    </style>
  </defs>
  <g id="svga-group-wrapper">
    <g id="svga-group-backs-single">
      <path id="SvgjsPath13504" class="cls-4" d="M0,0h600v600H0V0Z"/>
      <path id="SvgjsPath13505" class="cls-19" d="M468.9,393.6l-50.4-1.2-51,1.8c-2.1,0-26.4-.9-28.2-.6-29.4,3.6-44.7,1.8-62.4,0l-32.7-.3c-4.5,0-10.5-4.8-10.5-10.8l.3-16.8c3-16.5-.6-28.2-.6-44.1l.6-10.8c0-4.5,6.9-6.9,15.3-7.2l22.5.6c11.1-.3,28.8,2.4,36,.9l33-1.5c11.4-.6,32.4-2.4,61.5-1.5,0,0,30.9,0,57.9.6l16.8-.3c4.5,0,9.6,3.6,9.6,8.1v15c-.3,9.9.3,17.7.3,30.3l.6,16.5-1.2,10.2c-.3,7.5-11.4,12.3-17.4,11.1h0ZM338.7,293.4l-50.4-1.2-51,1.8c-2.1,0-26.4-.9-28.2-.6-29.4,3.6-44.7,1.8-62.4,0l-32.7-.3c-4.5,0-10.5-4.8-10.5-10.8v-16.8c3-16.5-.6-28.2-.6-44.1l.6-10.8c0-4.5,6.9-6.9,15.3-7.2l22.5.6c11.1-.3,28.8,2.4,36,.9l33-1.5c11.4-.6,32.4-2.4,61.5-1.5,0,0,30.9,0,57.9.6l16.8-.3c4.5,0,9.6,3.6,9.6,8.1v15c-.3,9.9.3,17.7.3,30.3l.6,16.5-1.2,10.2c0,7.5-10.8,12.3-17.1,11.1h0ZM468.9,196.2l-50.4-1.2-51,1.8c-2.1,0-26.4-.9-28.2-.6-29.4,3.6-44.7,1.8-62.4,0l-32.7-.3c-4.5,0-10.5-4.8-10.5-10.8l.3-16.8c3-16.5-.6-28.2-.6-44.1l.6-10.8c0-4.5,6.9-6.9,15.3-7.2l22.5.6c11.1-.3,28.8,2.4,36,.9l33-1.5c11.4-.6,32.4-2.4,61.5-1.5,0,0,30.9,0,57.9.6l16.8-.3c4.5,0,9.6,3.6,9.6,8.1v15c-.3,9.9.3,17.7.3,30.3l.6,16.5-.9,10.2c-.6,7.5-11.7,12.3-17.7,11.1h0ZM338.7,96.3l-50.4-1.2-51,1.8c-2.1,0-26.4-.9-28.2-.6-29.4,3.6-44.7,1.8-62.4,0l-32.7-.3c-4.5,0-10.5-4.8-10.5-10.8v-16.8c3-16.5-.6-28.2-.6-44.1l.6-10.8c0-4.5,6.9-6.9,15.3-7.2l22.5.6c11.1-.3,28.8,2.4,36,.9l33-1.5c11.4-.6,32.4-2.4,61.5-1.5,0,0,30.9,0,57.9.6l16.8-.3c4.5,0,9.6,3.6,9.6,8.1v15c-.3,9.9.3,17.7.3,30.3l.6,16.5-1.2,10.2c0,7.5-10.8,12-17.1,11.1h0ZM468.9,594.9l-50.4-1.2-51,1.8c-2.1,0-26.4-.9-28.2-.6-29.4,3.6-44.7,1.8-62.4,0l-32.7-.3c-4.5,0-10.5-4.8-10.5-10.8l.3-16.8c3-16.5-.6-28.2-.6-44.1l.6-10.8c0-4.5,6.9-6.9,15.3-7.2l22.5.6c11.1-.3,28.8,2.4,36,.9l33-1.5c11.4-.6,32.4-2.4,61.5-1.5,0,0,30.9,0,57.9.6l16.8-.3c4.5,0,9.6,3.6,9.6,8.1v15c-.3,9.9.3,17.7.3,30.3l.6,16.5-1.2,10.2c-.3,7.5-11.4,12.3-17.4,11.1h0ZM338.7,495l-50.4-1.2-51,1.8c-2.1,0-26.4-.9-28.2-.6-29.4,3.6-44.7,1.8-62.4,0l-32.7-.3c-4.5,0-10.5-4.8-10.5-10.8v-16.8c3-16.5-.6-28.2-.6-44.1l.6-10.8c0-4.5,6.9-6.9,15.3-7.2l22.5.6c11.1-.3,28.8,2.4,36,.9l33-1.2c11.4-.6,32.4-2.4,61.5-1.5,0,0,30.9,0,57.9.6l16.8-.3c4.5,0,9.6,3.6,9.6,8.1v15c-.3,9.9.3,17.7.3,30.3l.6,16.5-1.2,10.2c0,7.2-10.8,12-17.1,10.8ZM77.1,293.4c6.3,1.2,17.1-3.6,17.1-11.1l1.2-10.2-.6-16.5c.3-12.6-.3-20.4-.3-30.3v-15c0-4.5-5.4-8.1-9.6-8.1l-16.8.3c-27-.6-57.9-.6-57.9-.6H.3v91.5l26.4-.9,50.4.9h0ZM94.5,411.9c0-4.5-5.4-8.1-9.6-8.1l-16.8.3c-27-.6-57.9-.6-57.9-.6-3.6,0-6.6-.3-9.9-.3v91.5l26.4-.9,50.4,1.2c6.3,1.2,17.1-3.6,17.1-11.1l1.2-10.2-.6-16.5c.3-12.6-.3-20.4-.3-30.3v-15h0ZM44.7,107.7c-7.2,1.2-24.9-1.2-36-.9l-8.7-.3v89.7l13.8.3c17.7,1.8,33,3.6,62.4,0,2.1-.3,26.4.6,28.5.6l51-1.8,50.4,1.2c6.3,1.2,17.1-3.6,17.1-11.1l1.2-10.2-.6-16.5c.3-12.6-.3-20.4-.3-30.3v-15c0-4.5-5.4-8.1-9.6-8.1l-16.8.3c-27-.6-57.9-.6-57.9-.6-29.1-.9-50.1.9-61.5,1.5l-33,1.2h0ZM223.5,325.5v-15c0-4.5-5.4-8.1-9.6-8.1l-16.8.3c-27-.6-57.9-.6-57.9-.6-29.1-.9-50.1.9-61.5,1.5l-33,1.5c-7.2,1.2-24.9-1.2-36-.9L0,303.9v89.7l13.8.3c17.7,1.8,33,3.6,62.4,0,2.1-.3,26.4.6,28.5.6l51-1.8,50.4,1.2c6.3,1.2,17.1-3.6,17.1-11.1l1.2-10.2-.6-16.5c0-12.6-.6-20.4-.3-30.6h0ZM223.5,527.1v-15c0-4.5-5.4-8.1-9.6-8.1l-16.8.3c-27-.6-57.9-.6-57.9-.6-29.1-.9-50.1.9-61.5,1.5l-33,1.5c-7.2,1.2-24.9-1.2-36-.9L0,505.2v89.7l13.8.3c17.7,1.8,33,3.6,62.4,0,2.1-.3,26.4.6,28.5.6l51-1.8,50.4,1.2c6.3,1.2,17.1-3.6,17.1-11.1l1.2-10.2-.6-16.5c0-12.6-.6-20.4-.3-30.3h0ZM0,96l26.4-.9,50.4,1.2c6.3,1.2,17.1-3.6,17.1-11.1l1.2-10.2-.6-16.5c.3-12.6-.3-20.4-.3-30.3v-15c0-4.5-5.4-8.1-9.6-8.1l-16.8.3c-27-.6-57.9-.6-57.9-.6C6.6,4.8,3.3,4.5,0,4.5,0,4.5,0,96,0,96ZM508.2,195.9l32.7.3c17.1,1.8,31.2,1.8,59.1-1.5v-88.5l-27-1.2c-7.2,1.2-23.4-.3-34.5,0l-25.2,1.2c-8.4,0-15.3,2.7-15.3,7.2l-.6,10.8c0,15.9-3,30.6.6,44.1l-.3,16.8c0,6,6,10.8,10.5,10.8h0ZM508.2,393.3l32.7.3c17.1,1.8,31.2,1.5,59.1-1.8v-88.5l-27.3-1.2c-7.2,1.2-23.4-.3-34.5,0l-25.2,1.2c-8.4.3-15.3,2.7-15.3,7.2l-.6,10.8c0,15.9-3,30.6.6,44.1l-.3,16.8c.3,6,6.3,11.1,10.8,11.1h0ZM366.3,68.1l-.3,16.8c0,6,6,10.8,10.5,10.8l32.7.3c17.7,1.8,33,3.6,62.4,0,2.1-.3,26.4.6,28.2.6l51-1.8,49.2,1.2V5.4h-7.8c-27-.6-57.9-.6-57.9-.6-29.1-.9-50.1.9-61.5,1.5l-33,1.5c-7.2,1.2-24.9-1.2-36-.9l-22.5-.9c-8.4,0-15.3,2.7-15.3,7.2l-.3,10.8c0,16.2,3.6,27.6.6,44.1h0ZM366.3,265.5l-.3,16.8c0,6,6,10.8,10.5,10.8l32.7.3c17.7,1.8,33,3.6,62.4,0,2.1-.3,26.4.6,28.2.6l51-1.8,49.2.9v-90.6l-7.8.3c-27-.6-57.9-.6-57.9-.6-29.1-.9-50.1.9-61.5,1.5l-33,1.5c-7.2,1.2-24.9-1.2-36-.9l-22.5-.6c-8.4.3-15.3,2.7-15.3,7.2l-.6,10.8c.3,15.6,3.9,27.3.9,43.8h0ZM600,504.9l-27.3-1.2c-7.2,1.2-23.4-.3-34.5,0l-25.2,1.2c-8.4.3-15.3,2.7-15.3,7.2l-.6,10.8c0,15.9-3,30.6.6,44.1l-.3,16.8c0,6,6,10.8,10.5,10.8l32.7.3c17.1,1.8,31.2,1.5,59.1-1.8l.3-88.2h0ZM550.8,493.8l49.2,1.2v-90.9l-7.8.3c-27-.6-57.9-.6-57.9-.6-29.1-.9-50.1.9-61.5,1.5l-33,1.5c-7.2,1.2-24.9-1.2-36-.9l-22.5-.6c-8.4.3-15.3,2.7-15.3,7.2l-.6,10.8c0,15.9,3.6,27.6.6,44.1l-.3,16.8c0,6,6,10.8,10.5,10.8l32.7.3c17.7,1.8,33,3.6,62.4,0,2.1-.3,26.4.6,28.2.6l51.3-2.1h0Z"/>
      <path id="SvgjsPath13506" class="cls-10" d="M103.5,68.1v16.8c0,6,6,10.8,10.5,10.8l32.7.3c17.7,1.8,33,3.6,62.4,0,2.1-.3,26.4.6,28.2.6l51-1.8,50.4,1.2c3.9.6,9.9-.9,13.5-4.2-2.4,0-5.1-.9-7.8-.9-4.2,0-18.6-3.3-27.9-4.8-3.9-3.6-8.7-6-14.1-5.1-3.9.6-6.9,2.4-11.4,3-6.3.9-12.6-.3-18.9-1.5-6.6-1.2-12.6-2.4-19.2-2.4s-.3.3,0,.3c12.3.6,23.7,5.4,35.7,5.7,4.2,0,8.1-1.5,12-1.5s4.8.3,6.9.9c-19.2,0-66.6,2.7-73.5,4.8-8.1,2.1-37.8,2.1-47.7-2.1-10.2-4.5-60.9,0-65.1-.6-4.5-.6-5.1-8.1-3-21,.6-3.6.6-7.8.3-12.6,1.5.6,2.7.9,4.2.9,4.2,0,9-2.7,12.6-4.5,6.6-3.3,13.2-6.6,19.5-10.5.3-.3,0-.6-.3-.6-7.5,3.9-15,7.2-23.1,9.6-3.9,1.2-8.1,3.3-12.3,1.5-.3,0-.6-.3-.9-.3-.9-12.3-3.6-26.1-4.5-32.7-.3-2.1-.3-4.2,0-6,11.7-4.2,24.6,3,36.3,4.5,9.6,1.2,18.9.3,28.5-1.2.6,0,.3-.9,0-.9-7.5.6-15,1.2-22.8.3-8.1-.9-15.6-3.9-23.4-5.4-6-1.2-11.7-2.1-17.1,0,.3-.9.6-1.8.9-2.4-7.2.6-12.6,3-12.6,6.9l-.6,10.8c0,16.2,3.6,27.6.6,44.1ZM317.1,186.9c-5.7-3-24.9.9-32.4,3-6.9,1.8-26.4-1.8-34.8-5.4,6.9-.3,13.8-1.5,19.2-5.1.3-.3.3-1.2-.3-1.2-7.8.9-14.7,3.3-22.5,3.9-4.5-5.1-3.6-21.6-2.7-29.7.9-8.7-3.9-21.9-4.8-31.5-.6-5.4-.3-9.9.3-13.2-3.3,1.2-5.4,3-5.4,5.4l-.6,10.8c0,15.9,3.6,27.6.6,44.1l-.3,16.8c0,6,6,10.8,10.5,10.8l32.7.3c17.7,1.8,33,3.6,62.4,0,2.1-.3,26.4.6,28.2.6l51-1.8,50.4,1.2c4.5.9,11.4-1.5,15-5.7h-1.5c-6.6,0-10.5-3-16.2-4.8-1.8-.6-6.6-.3-12.3.6-5.1-4.8-12.3-6.9-19.2-6-5.7.6-10.5,3.9-16.2,4.2-6,0-10.2-2.1-16.2-.9-.3,0-.3.6,0,.6,7.5,0,14.7,3,21.9,1.2,10.2-2.4,16.8-2.7,25.8,1.2-11.1,1.8-24.3,4.2-28.8,3.6-7.8-.9-12.3.9-21,.9s-59.4-.9-66-1.8c-6.3-.3-11.1.6-16.8-2.1h0ZM313.5,285.9c-1.2-.3-3.9-.3-7.5-.6.3-1.5-.3-3.3-1.5-4.2-1.5-1.2-4.8-2.1-5.7.3-.3.6,0,1.5.9,1.5s2.1-.3,3-.3c1.2.3,1.8,1.5,1.5,2.7-21.3-.3-68.7,1.5-76.5,1.5s-50.1-.9-73.8,1.8-37.5-6.9-39-10.2c-.3-.6-.6-1.2-.6-2.4,4.2-1.2,8.7-.9,13.2-.6,6.3.3,12.6-1.5,18.6-.9,2.4.3,4.2,1.8,6.6,1.2,3-.6,6-3.6,8.1-5.4,0,0,0-.3-.3-.3-3.9,3.3-5.4,4.5-10.2,3.6-.9-.3-1.5-1.5-2.4-1.5-6.6-.9-13.2.6-20.1-.3-5.1-.6-9.9-.9-14.1.6-.6-6.3-.6-15.6-.6-21.6s0-2.7-.3-4.2c8.7,1.2,17.4-7.2,26.1-6,.3,0,.3-.3,0-.6-5.1-1.5-9.9.3-14.4,1.8,0-.3-.3-.6-.6-.6-4.2-.3-8.1,0-12-.9-1.2-7.8-3.3-16.8-3.3-23.1s-1.8-8.4-3.9-10.5c-.9.9-1.5,2.1-1.5,3.3l-.6,10.8c0,15.9,3.6,27.6.6,44.1v16.8c0,6,6,10.8,10.5,10.8l32.7.3c17.7,1.8,33,3.6,62.4,0,2.1-.3,26.4.6,28.2.6l51-1.8,50.4,1.2c4.8.9,12.3-1.8,15.6-6.3-3.3.9-8.1,2.1-11.1,2.1-4.5.6-21.6-1.2-29.4-2.7h0ZM354.9,390.3c-13.2-.9-21.9-.9-32.4-9.6-.3-.3-.9-.6-1.2-.9,3-.6,6.3-.6,9.6.3,3,.9,5.7,2.4,9,2.7,8.4.9,16.8-1.5,24-5.1,1.2-.6.3-2.4-.9-2.1-5.4,1.2-10.5,3-16.2,3.6-6.6.9-10.5-1.5-16.2-3.3,1.8.3,3.3.9,5.1,1.5.6.3,1.8-.6.9-1.2-7.8-7.2-23.4-1.8-32.4.3-16.2-.3-36.9,3.6-41.7,4.8-6.9,1.8-10.5.9-20.1-3.6s-1.8-12.3,0-28.2c.3-1.8.3-3,.3-4.2,9,8.7,21.6,12,33.9,9.3,6-1.5,10.2-4.2,16.8-4.2s10.8,2.4,16.2,3.9c7.5,2.4,12.9,3.6,20.7,2.1.3,0,.3-.6,0-.6-13.8,1.5-25.2-7.5-38.7-7.8-5.4,0-10.2,2.1-15.6,3-12.6,2.4-23.4-1.8-33-9.3-.3-7.2-3-6.9-5.7-15.3-1.5-4.2-2.7-8.7-3.6-12.6l-.3,7.2c0,15.9,3.6,27.6.6,44.1l-.3,16.8c0,6,6,10.8,10.5,10.8l32.7.3c17.7,1.8,33,3.6,62.4,0,2.1-.3,26.4.6,28.2.6l51-1.8,50.4,1.2c3.3.6,7.8-.6,11.4-2.7-6-3.3-16.2-8.7-23.4-10.5-10.5-2.7-20.1,1.8-34.2,2.7-14.1,1.5-54.6,8.7-67.8,7.8h0ZM312.6,377.1c3.3-.6,6.3-1.2,9.6-1.5-1.8.6-3.3,1.5-5.1,2.4l-4.5-.9ZM351.3,491.7c-2.1-.3-4.2-.3-6-.3-4.5,0-10.5,0-19.5-1.8-9.3-1.8-28.2-2.7-39.9-3.3s-48.9,4.5-55.5,3.9-18.3-2.7-33.9-4.5c-15.6-1.8-52.2,2.7-58.8,3.9-4.2.9-12-.9-17.4-5.1,3.6.3,7.2.3,10.8,0,.9,0,1.2-1.2.3-1.5-4.2-1.5-9.3-1.5-13.8-1.2-1.2-1.5-2.1-3.3-2.7-5.4-1.8-9-.3-13.5,0-23.4,5.1,4.8,12.6,4.8,20.4,4.5,10.5-.3,17.7,3.6,26.7,6.9,8.7,3.3,17.1-1.2,25.8,1.8.6.3.9-.9.3-1.2-3.6-1.2-4.8-1.2-8.7-1.2-6,0-10.8,1.8-16.8-1.2-3.3-1.5-6-4.8-9.3-6.6-11.4-5.7-30.6,4.2-38.7-8.7-.6-10.5-3.3-18.3-5.7-27.3-1.2-4.8-2.1-9.3-1.8-12.9-2.1,1.2-3.6,2.7-3.6,4.8l-.6,10.8c0,15.9,3.6,27.6.6,44.1v16.8c0,6,6,10.8,10.5,10.8l32.7.3c17.7,1.8,33,3.6,62.4,0,2.1-.3,26.4.6,28.2.6l51-1.8,50.4,1.2c3.6.9,8.7-.3,12.6-3h0ZM468.3,590.4c-6.9-.6-29.1,1.5-43.2,0s-35.1-3.9-49.2-4.8-53.4,2.1-53.4,2.1c0,0-7.5-1.2-19.5-2.7s-51.3,2.1-56.7-6c-3.3-4.8-2.7-9-1.8-14.1l3.6,1.8c3.3,1.2,6.6,1.2,9.9,1.5,5.1.6,9.6,2.1,14.4,3.6.6.3,1.2-.9.6-1.2-3.9-3-7.5-4.5-12.6-5.4s-11.4-.6-15.6-3.6c.6-2.7.9-5.4,1.2-9,.3-3.3,0-6.3-.6-9.6,2.4.3,5.1.9,7.5.6.9,0,.9-1.2.3-1.5-2.4-.6-5.4-.9-8.1-1.2-1.5-7.8-4.2-15.6-6.6-25.2-.9-3.9-1.5-6.6-1.8-8.7-2.1,1.2-3.6,2.7-3.6,4.8l-.6,10.8c0,15.9,3.6,27.6.6,44.1l-.3,16.8c0,6,6,10.8,10.5,10.8l32.7.3c17.7,1.8,33,3.6,62.4,0,2.1-.3,26.4.6,28.2.6l51-1.8,50.4,1.2c4.2.6,10.8-1.2,14.4-4.8-3.3,0-9,1.2-14.1.6h0ZM594.6,90.6c-5.1-3-23.1-.6-33.3,0s-50.1-.6-56.4,0-33.3-2.1-42-3.6-42.6.6-52.8,2.1-30.9-2.1-31.5-8.1c-.6-5.7-.6-10.8.6-23.1.3-1.5.3-3,.3-4.2,2.7,1.8,7.5,1.5,9.9,1.2,3-.3,5.7-1.2,8.7-1.8,9.9-2.1,15.3-.3,24.6,1.8,16.8,4.2,33.6,4.5,51,3,.3,0,.3-.6,0-.6-19.5.6-36.6-.3-55.5-6.3-13.5-4.2-25.2,1.5-38.7-1.2-.6-7.8-2.7-13.5-3.9-21.6-.9-7.8,0-16.2,1.8-21.9-6.6.6-11.4,3-11.4,6.9l-.3,10.8c0,15.9,3.6,27.6.6,44.1l-.3,16.8c0,6,6,10.8,10.5,10.8l32.7.3c17.7,1.8,33,3.6,62.4,0,2.1-.3,26.4.6,28.2.6l51-1.8,49.2.9v-3.9c-1.8.3-3.9-.3-5.4-1.2h0ZM562.8,186.9c-5.7-2.4-28.5-.6-39.6-1.5,1.5-.3,2.7-.6,4.2-.9,3.6-.9,8.1-2.1,10.5-4.8.3-.6.3-1.5-.6-1.5-3.6.3-6.6,2.4-9.9,3-3.9.9-7.8,1.2-11.4,2.1-5.1-2.7-8.1-8.7-11.4-16.8-2.7-6.3-.9-10.2.3-15,5.4-.3,11.1,1.8,16.5,1.5,8.1,0,15.6-1.8,23.4,1.5.3,0,.3-.3.3-.3-7.2-3.9-14.4-2.4-22.2-3-6.3-.3-11.7-2.7-17.4-2.4.3-1.8.3-3.6.3-5.7-.9-9.6-3-25.8-.9-31.5.6-1.8.6-3.6,0-5.1-4.2,1.2-6.9,3.3-6.9,6l-.6,10.8c0,15.9-3,30.6.6,44.1l-.3,16.8c0,6,6,10.8,10.5,10.8l32.7.3c17.1,2.7,31.2,2.7,59.1-.6v-8.4c-5.1,0-7.8,2.7-12.3,3.3-6,.9-18.3,0-24.9-2.7h0ZM585.6,284.1c0-2.4-63.6.9-73.2,0s-13.5-.9-19.5-2.4-80.7,2.4-91.8,4.2-23.1-4.2-25.5-9.3c-2.4-4.5.9-16.2.9-26.1.9.6,1.8,1.2,2.7,1.5,1.8.6,3.9.9,6,.6,5.4-.6,10.2-3.9,15.6-4.2.3,0,.6-.6,0-.6-5.4-.6-10.2.9-15.3,1.8-3.6.6-6-1.2-9-2.4v-.3c-.9-10.2-3.3-21.3-6-29.7-1.2-3.9-2.1-7.2-3.3-9.6-.6.9-1.2,1.8-1.2,3l-.6,10.8c0,15.9,3.6,27.6.6,44.1l-.3,16.8c0,6,6,10.8,10.5,10.8l32.7.3c17.7,1.8,33,3.6,62.4,0,2.1-.3,26.4.6,28.2.6l51-1.8,48.9.9v-5.1h-.9c-5.4,1.2-12.9-1.2-12.9-3.9h0ZM586.2,381c-2.4-1.5-6.3-.6-8.1,1.5-.6.6-.3.9.3,1.2-20.4,1.5-44.7,4.5-48.6,3.9-6.3-.9-19.2-8.7-19.2-19.2v-1.8c3.3.6,6.6,2.4,9.6,2.7,1.8.3,3.6.3,5.4-.3,3-.9,6-4.2,9.9-2.4.6.3,1.2-.3.9-.9-3.3-5.7-10.2.3-14.7.3-4.2.3-7.8-1.5-11.7-1.8-1.2-6.6-5.4-8.1-8.4-17.1-3.6-10.5.9-15,.9-27.3s-1.5-10.2-3.3-12.6c-.9.9-1.8,2.1-1.8,3.3l-.6,10.8c0,15.9-3,30.6.6,44.1l-.3,16.8c0,6,6,10.8,10.5,10.8l32.7.3c17.1,1.8,31.2,1.5,59.1-1.8v-9.3c-3,0-7.2,0-11.7.3,0-.3-.6-.9-1.5-1.5h0ZM579.9,383.7c1.5-.3,2.7-1.2,4.2-1.2s1.2.3,1.8.6c-2.1.3-3.9.3-6,.6h0ZM552.3,487.8c-1.8-.6-7.8-.9-15-1.2,0-2.4,0-4.5-.3-6.6,0-.3-.6-.9-.9-.9-7.5-1.5-17.7,0-23.7,4.8-.6.3,0,1.2.6.9,4.5-1.2,8.7-3,13.2-3.6,1.8-.3,4.5-.6,6.3,0,1.5-.3,2.4.3,3,2.1.3,1.2.3,2.1.6,3.3-17.1-.6-41.7-.3-46.2.6-1.2.3-3.9.6-7.2.6-2.4-.3-5.1-.3-7.2.3h-.3c-13.5.6-31.5,1.2-35.1.6-5.1-.6-7.8-2.7-18.3-5.1s-36,1.2-41.7,0-4.5-8.4-4.5-17.7,1.2-9.9,2.7-15c1.8,1.5,4.2,2.4,6.3,2.7,2.1.3,5.1,0,7.5-1.2,1.2.3,2.4.6,3.6.6,5.7.3,11.7-1.2,17.4-.9,8.1.3,15.9,1.8,24,2.7.9,0,1.2-1.5.3-1.5-9.9-3-20.4-5.1-30.6-4.5-8.4.3-11.7,2.1-20.1-3.3-2.1-1.2-3.9-3-6-4.5.6-8.7-4.5-13.5-6.3-19.8-1.5-5.4-3.3-9.6-2.4-15-3.3,1.2-5.7,3-5.7,5.7l-.6,10.8c0,15.9,3.6,27.6.6,44.1l-.3,16.8c0,6,6,10.8,10.5,10.8l32.7.3c17.7,1.8,33,3.6,62.4,0,2.1-.3,26.4.6,28.2.6l51-1.8,49.2,1.5v-3c-2.1-.3-3.9-.9-5.4-1.5-5.1-2.7-36-.6-42.3-2.7h0ZM379.8,444.6c2.7,2.7,6,5.7,9.3,7.2-1.5.3-3-.3-4.5-.6-2.4-.6-3.9-1.8-5.7-3.3.3-.6.6-1.8.9-3.3h0ZM579,585.6c-2.1-.3-4.5-.3-6.6-.9-2.7-.6-5.1-1.8-7.2-3.6-.9-.9-2.4.6-1.5,1.5s1.5,1.2,2.4,1.8c-9.6,0-20.7,3.6-28.5,3.9-4.5.3-9.9-1.5-14.4-4.5.9-.3,1.8-.3,2.4-.6.9-.3.9-1.8-.3-1.8-1.8,0-3.6,0-5.4.3-3.9-3.3-6.6-7.2-7.8-11.4-2.1-10.2-4.2-6-7.5-18.3s-1.5-12.9.6-28.2c1.5-10.8-1.2-12.9-4.2-16.2-2.1,1.2-3.6,2.7-3.6,4.8l-.6,10.8c0,15.9-3,30.6.6,44.1l-.3,16.8c0,6,6,10.8,10.5,10.8l32.7.3c17.1,1.8,31.2,1.5,59.1-1.8v-4.8c-7.8-.6-15-1.2-20.4-2.1.6-.6.6-.9,0-.9h0ZM77.1,293.4c3,.6,6.9-.3,10.5-2.1-5.1-.6-12-2.1-18.6-3,0-.3-.3-.6-.6-.6-3.3-1.8-5.1-1.8-9-1.8-7.8,0-12.9-3.9-19.5-6-9.3-3-19.2-.6-28.8-.3-1.2,0-1.5,1.8-.3,2.1,10.5,1.8,21-2.1,30.9,2.7,1.5.9,3,1.8,4.8,2.7-11.1.3-30,.9-46.5,1.5v4.8l26.4-.9,50.7.9h0ZM76.2,393.6c2.1-.3,26.4.6,28.2.6l51-1.8,50.4,1.2c3.3.6,8.1-.6,11.7-3-4.5-1.2-9.9-2.7-11.7-3.3-2.1-.6-13.2-3-23.1-3.6-3.6-3-7.8-4.2-13.5-4.2-12,.6-22.2-4.8-34.5-3.9-.9,0-.9,1.2,0,1.2,5.4.6,10.8.6,15.9,2.1,3,.9,6.9,3,10.2,3.6,3.3.6,6.6-.3,9.9,0,1.5,0,3.3.3,4.8.6-3,.3-5.7.9-7.5,2.1-7.8,5.4-14.1.9-26.4.9s-45.6-1.8-45.6-1.8c0,0-34.2.9-47.4,2.7-3.3.3-8.4.6-14.4.9.9-.9,1.5-1.8,2.4-2.4,7.5-6.9,13.5-7.2,23.4-6.6,14.7.9,27-4.8,41.7-6.3.3,0,.3-.6,0-.6-8.1.6-15.6,1.8-23.4,3.9-9.6,2.7-18.6-.3-28.5-.3s-11.7,4.8-18.6,12.3c-10.2.3-21.9,0-31.5-.6v5.4l13.8.3c18,2.4,33.3,4.2,62.7.6h0ZM77.1,495c3.6.6,8.7-.6,12.3-3.3-4.5-.6-12.6.9-16.5-.6-5.1-1.8-15.6-1.8-24.9-.6-6,.9-28.8-.3-48-2.1v6.3l26.4-.9,50.7,1.2ZM145.5,587.4c-1.8-.3-4.5-.3-7.8-.6-.9-4.5-2.7-9.6-6.6-10.8-1.5-.6-2.7.3-4.2.3-3,.3-5.7,0-8.4-.6-3.9-.9-7.5-2.1-11.7-1.8-.6,0-.6.9,0,.9,5.7,1.2,10.8,4.2,16.5,4.8,1.5.3,3.3-.3,4.5-.3,4.5.9,6.3,3.6,7.2,7.2-17.4-1.2-46.2-2.4-58.5-2.4s-62.4.9-76.2.9v9.6l13.8.3c17.7,1.8,33,3.6,62.4,0,2.1-.3,26.4.6,28.5.6l51-1.8,50.4,1.2c3.3.6,8.1-.6,11.7-2.7-6-.3-14.4-.6-18.3-.6-6.6,0-42.9-3-54.3-4.2h0ZM77.1,96.3c3.9.6,9.6-.9,13.5-3.9-4.2-.9-10.2-1.8-14.4-2.7-10.2-16.8-38.1-12-54.3-16.5-.3,0-.3.3-.3.3,7.5,3,15.3,2.7,23.1,4.5,8.4,1.8,21,3.9,27.3,10.8-6.9-.3-19.8,1.8-28.5-.9C37.2,86.1,15,86.1,0,85.5v10.5l26.4-.9,50.7,1.2h0ZM76.2,196.2c2.1-.3,26.4.6,28.2.6l51-1.8,50.4,1.2c2.7.6,6,0,9.3-1.5-6-.3-12.9-1.8-17.7-2.4-7.5-.9-21.9-3.9-32.4-5.7-1.2-.3-3-.3-5.4-.3,3.3-.9,6.6-.6,10.2-.9,1.2,0,1.5-1.5.3-2.1-3-1.2-6.3-.9-9.3-.3-1.5.3-3,.9-4.5,1.5-.9.6-2.1,1.2-3,1.8-19.5.9-53.7,5.1-59.7,6-7.5.9-55.5-.9-65.1-3.9-3.9-1.2-11.1-1.5-18.9-2.1,13.2-5.7,29.4-.3,43.5-.9,12.6-.6,25.2-2.4,37.2-6.6.6,0,.3-.9-.3-.6-20.7,5.1-39,5.4-60.3,3-9.6-1.2-16.2-.9-24,4.8-1.8.3-3.9,0-5.7,0v10.2l13.8.3c17.7,1.5,33,3.3,62.4-.3h0ZM466.5,87c10.8-2.7,20.1-4.5,31.2-2.4,6.9,1.5,12.9,3,19.8,1.8.3,0,.3-.6,0-.6-10.2,1.2-19.8-3.6-29.7-4.2-7.5-.3-15,.6-21.9,4.2-.3.6,0,1.5.6,1.2ZM165.6,36c2.7-1.5,5.4-2.1,8.4-2.4.3,0,0-.3,0-.3-3,0-6,.9-8.7,2.4-.3,0,0,.3.3.3h0ZM182.1,33.6c3-.3,5.7-.3,8.7-.9.3,0,.3-.3,0-.3-3,0-5.7.6-8.7.9-.6-.3-.6.3,0,.3ZM275.4,152.1c1.5,0,1.5-2.4,0-2.4-2.7,0-6,.6-7.8,2.7-.6.6,0,1.5.9,1.2,2.4,0,4.5-1.2,6.9-1.5h0ZM255,167.1c-.6,0-.9,0-1.2.3-.6.3-.6,1.2,0,1.5.3.3.6.3,1.2.3,1.2,0,1.2-1.8,0-2.1h0ZM363,172.2c.3,0,.3-.3.6-.3.3-.3.3-.6,0-.9-.3,0-.3-.3-.6-.3-1.8-1.5-1.8,2.7,0,1.5h0ZM389.7,176.4c.3-.6-.3-.9-.9-.6s-.9.9-1.8.3-1.8.9-.9,1.5c1.5.3,3.3.3,3.6-1.2h0ZM467.7,155.7c.6-.3.6-1.2,0-1.5s-.9-.3-1.5-.3c-1.8-.3-1.8,2.4,0,2.1.6,0,.9,0,1.5-.3h0ZM552.3,178.2c.6-.3.6-.9,0-1.2-1.2-.3-2.1-.3-3.3-.3s-1.2,1.8,0,1.8,2.4,0,3.3-.3ZM572.7,178.8c.3,0,.3-.6,0-.6-2.1-.6-4.2-.3-6.3-.3s-.9,1.5,0,1.5c2.1-.3,4.2,0,6.3-.6ZM66.6,72c7.8,2.7,14.1-3.9,20.7-6.6.6-.3.3-.9-.3-.9-6.9,1.8-12.6,8.7-20.1,6.3-.9-.3-1.2.9-.3,1.2ZM84,46.8c.9,0,.9-1.5,0-1.5-1.2-.3-1.2,1.5,0,1.5ZM126.3,178.2c.6,0,.6-1.2,0-1.2-.9,0-.9,1.2,0,1.2ZM161.7,176.7c1.2-.6,2.7-1.2,3.9-1.8.3-.3,0-.6-.3-.6-1.5.3-2.7.9-3.9,1.5-.3.3-.3,1.2.3.9ZM117.3,148.2c-21-1.2-42.3-1.5-63.3-3.9-15.3-1.5-23.1-4.8-36.9,3.3-.3.3,0,.6.3.6,14.1-7.8,31.2-1.5,46.8-1.2,17.7.3,35.4,1.2,53.1,1.8.6,0,.6-.6,0-.6h0ZM163.2,132.6c-1.8-.3-3.6-.3-5.7-.6-1.2,0-1.2,1.8,0,1.8,1.8,0,3.9,0,5.7-.6.3,0,.3-.6,0-.6h0ZM187.5,141.3c.6,0,.6-.9,0-.9s-.6.9,0,.9ZM135,154.5c.6,0,.6-.6,0-.6s-.6.6,0,.6ZM82.2,158.7c.6,0,.6-1.2,0-1.2s-.6,1.2,0,1.2ZM166.2,246.6c.6,0,.6-.6,0-.6-3.3-1.2-6.6-1.8-10.2-2.7-.9-.3-1.2,1.2-.3,1.2,3.6.9,6.9,1.8,10.5,2.1ZM222.3,246.3c.6-.3.3-1.2-.3-1.2-2.7-.3-5.4.6-7.8,1.2-.6.3-.6,1.5.3,1.2,2.4,0,5.1,0,7.8-1.2ZM256.5,251.1c.6,0,.6-.9,0-.9s-.9,0-1.5-.3c-.9,0-.9,1.5,0,1.5s.9-.3,1.5-.3ZM319.2,271.8c-.9,0-.9,1.5,0,1.5s.9-1.5,0-1.5ZM279.9,278.7c.9,0,.9-1.5,0-1.5-1.5,0-3.3,0-4.8.3-.6,0-.6.9,0,.9,1.8.6,3.3.3,4.8.3ZM413.7,247.5c-.9-.3-1.2,1.2-.3,1.2,1.5.3,2.7.6,4.2.6s.6-.9.3-1.2c-1.8,0-3-.3-4.2-.6ZM387.6,281.4c-.9,0-.9,1.5,0,1.5,2.1,0,4.2.3,6.3-.3.6,0,.6-.9,0-.9-2.1-.6-4.2-.6-6.3-.3ZM456.3,271.8c-6.9-.3-13.5.3-19.8,3.3-.9.6-.3,2.4.6,1.8,14.7-6.3,30.9.6,45.9-1.2,1.2,0,1.5-1.8.3-2.1-8.4-1.8-18-1.5-27-1.8ZM517.8,279.9c3.6.3,7.2,1.2,10.8,1.8.6,0,.9-.6.3-.9-3.3-1.8-7.5-2.4-11.4-2.4-.9-.3-.9,1.5.3,1.5h0ZM580.5,259.8c.6,0,.6-.9,0-.9-3.6-.3-7.2-.9-10.8-.9s-.6.9,0,.9c3.3.6,7.2.6,10.8.9ZM552.3,258.3h-3.3c-.3,0-.3.3,0,.3h3.3c.3.3.3-.3,0-.3ZM522.3,258.3c-15.3,1.5-30.3,0-45.3-1.5-.9,0-.9,1.2-.3,1.5,15,3.3,30.6,3,45.6,1.5.9-.3.9-1.5,0-1.5h0ZM50.7,267.3c-.6.3,0,1.2.6.9,2.4-1.2,4.8-1.5,7.5-1.5s.6-.6,0-.6c-2.7-1.2-5.7-.3-8.1,1.2h0ZM70.5,235.8c-.3,0-.3.6,0,.6,4.2-.3,8.4-.6,12.6-.3.6,0,.6-.9,0-.9-4.2-.3-8.7-.3-12.6.6h0ZM16.5,345.3c-.6,0-.6.9,0,.9,3.3,0,6.9,0,10.2-.3.3,0,.3-.6,0-.6-3.3-.3-6.9,0-10.2,0h0ZM32.7,348.9c.9,2.7,2.4,5.7,4.8,7.2.3.3.3-.3.3-.3-1.8-2.1-3.6-4.2-4.5-7.2,0-.6-.9-.3-.6.3ZM44.1,354.9c-.6.3,0,1.2.6.9,11.1-5.1,20.7-7.2,32.7-7.8.6,0,.6-.9,0-.9-10.8-1.5-23.7,1.8-33.3,7.8ZM342.9,356.1c.3,0,.3-.3,0-.6h-1.5c-.3,0-.3.6,0,.6h1.5ZM377.7,376.5c3-.9,6-.6,9.3-.6s.9-.9.3-.9c-3-1.5-6.9-.9-9.9.3-1.2,0-.9,1.5.3,1.2h0ZM404.1,379.2c.9,0,.9-1.2,0-1.2s-.9,1.2,0,1.2ZM414.9,379.8c.6,0,.6-.9,0-.9s-.6.9,0,.9ZM422.7,338.4c9.3.9,17.7,5.4,27,2.7.9-.3.9-1.8-.3-1.8-8.7.9-16.5-1.8-24.9-2.4-9-.6-17.7,3.6-26.7,1.5-1.2-.3-1.8,1.2-.9,1.8,9,5.7,16.5-2.7,25.8-1.8ZM375.6,339.9c-8.1,1.8-15.9,2.4-24,3-.6,0-.6.9,0,.9,8.1,0,16.5-1.2,24.3-3,.6,0,.3-1.2-.3-.9ZM538.8,355.5c.6,0,.6-.9,0-.9s-.6.9,0,.9ZM540.6,344.1c-.9,0-1.5.3-2.4.3s-.6.9,0,.9c.9,0,1.5.3,2.4.3s.9-1.5,0-1.5ZM520.2,373.2c1.2,0,1.2-1.8,0-1.8s-1.2,1.8,0,1.8ZM514.5,357.6c-.6,0-.6.9,0,.9s.6-.9,0-.9ZM549.3,370.2c.6,0,.6-.9,0-.9-.6-.3-1.2-.3-1.8-.3-.9,0-.9,1.5,0,1.5s1.2,0,1.8-.3ZM563.1,370.2c-.6,0-.6.9,0,.9s.6-.9,0-.9ZM587.7,375.3c-1.2,0-1.2,1.8,0,1.8s.9-1.8,0-1.8ZM475.8,450c1.8.3,3.9.6,5.7.6s.6-.9,0-.9c-1.8-.6-3.6-.9-5.7-.9-.6-.3-.6,1.2,0,1.2h0ZM498.9,453.3c.3-.3,0-.6-.3-.6-1.5.6-3,.9-4.5.6-.6,0-.6.9,0,.9,1.8.3,3.6,0,4.8-.9ZM510.6,453c-.9,0-.9,1.5,0,1.5s.9-1.5,0-1.5ZM199.5,459.3c.6-.3.9-.6,1.5-1.2.3-.3,0-.9-.6-.9-.6.3-1.2.3-1.8.6-.6.3,0,2.1.9,1.5h0ZM225,453.6c-1.2,0-1.2,1.8,0,1.8s1.2-1.8,0-1.8ZM305.1,566.1c-.9,0-.9,1.8,0,1.5,3-.3,6.6-.3,9.6-1.2.6-.3.6-.9-.3-1.2-3,0-6.3.6-9.3.9h0ZM360.6,582c-.6.3-.6,1.2,0,1.2.6.3,1.2.3,1.8.3.9,0,.9-1.8,0-1.5-.6-.3-1.2-.3-1.8,0ZM378.9,581.4c.6,0,.6-.9,0-.9-1.5-.3-3-.3-4.8-.3s-.9,1.2,0,1.2c1.5.3,3.3.3,4.8,0h0ZM404.7,580.8c-.9,0-.9,1.5,0,1.5s.9-1.5,0-1.5ZM544.8,585.6c2.4-.6,5.4-.6,7.2-2.1.3-.3,0-.6-.3-.6-2.4-.6-5.1.6-7.5,1.2-1.2,0-.6,1.8.6,1.5h0ZM60.3,569.7c-.3,0-.3.6,0,.6,9-2.4,18.3-1.2,26.4,3.3.6.3,1.2-.6.6-.9-8.4-5.1-17.7-6.3-27-3ZM15.3,554.1c-1.2-.3-1.8,1.8-.6,1.8,8.7,2.1,18.3,2.4,26.7-1.5.9-.3.3-1.8-.6-1.5-9,1.5-16.8,2.7-25.5,1.2ZM91.8,532.5c-1.5,0-3.3.3-4.8.6-.6.3-.3,1.2.3,1.2l4.5-.9c.6,0,.6-.9,0-.9h0ZM130.8,536.7c-.6.3-.3,1.2.3,1.2,5.4-1.2,10.5-2.7,15.6-5.1.3-.3,0-.6-.3-.6-5.1,1.2-10.2,3-15.6,4.5ZM164.1,531c-2.7-.3-5.4-.3-8.1-.3s-.9,1.2,0,1.2c2.7,0,5.4.3,8.1-.3.3.3.3-.3,0-.6h0ZM178.8,530.1h.9c.3,0,.3-.3,0-.3h-.9c-.3,0-.3.3,0,.3ZM191.4,547.2c.9,0,.9-1.2,0-1.2-.9-.3-.9,1.2,0,1.2ZM161.4,567c.3,0,.3-.3,0,0,0-.3,0,0,0,0ZM88.5,540.9c.9,0,.9-1.5,0-1.5s-.9,1.5,0,1.5ZM48.6,467.1c.9,0,.9-1.5,0-1.5s-.9,1.5,0,1.5ZM54,465.6c.9,0,.9-1.5,0-1.5s-.9,1.5,0,1.5ZM31.2,475.8c.9,0,.9-1.5,0-1.5s-.9,1.5,0,1.5ZM62.4,446.7c.3,0,.3-.3.6-.3.3-.3.3-.6,0-.9s-.3-.3-.6-.3c-1.8-.9-1.8,2.4,0,1.5h0Z"/>
      <path id="SvgjsPath13507" class="cls-4" d="M196.5,215.4c-9.9-5.4-16.8-2.1-27.3-2.1s-24-2.7-36.6-.6c-.6,0-.6,1.2,0,1.2,6-.6,11.7-1.2,17.7-.6,5.7.6,11.1,3.3,16.5,3.9,10.2.9,18.6-4.2,29.1-1.2.6,0,.9-.6.6-.6h0ZM260.4,211.2c-17.1,1.8-33.6,3.6-50.7,3.6s-.6.6,0,.6c16.8.3,34.2-.6,50.7-3.9.3,0,.3-.3,0-.3h0ZM298.2,207.6c-4.8-1.8-9.9-1.2-14.4.6-.3,0,0,.3,0,.3,4.8-1.8,9.3-1.5,14.4-.3,0,0,.3-.3,0-.6ZM341.1,211.5c-4.2-2.7-9.3-2.4-14.1-2.1-.6,0-.6,1.2,0,1.2,3.6,0,7.5,0,10.8,1.2,3.9,1.5,5.4,4.2,6.6,7.8.3.6.9.6,1.2,0,.6-3.3-1.8-6.3-4.5-8.1h0ZM350.7,234.6c0-.6-.9-.6-.9,0v3.6c0,.3.6.3.9,0,.3-1.2,0-2.4,0-3.6ZM325.8,308.7c-16.5-1.5-33.3-.6-49.8-.3-11.1.3-24.3-1.8-34.5,2.7-.6.3-.3,1.5.6,1.2,12.3-5.1,29.7-1.5,42.9-1.5s27.6.6,41.1-.6c.6.3.6-1.5-.3-1.5h0ZM476.7,312.9c-18.6-3.6-37.8-3.9-56.7-4.8-21.6-.9-43.2-2.1-64.8.3-.6,0-.6,1.2,0,.9,20.7-1.8,41.1-2.1,61.8-.6,19.8,1.5,39.3,5.4,59.4,5.1.6.3.9-.6.3-.9h0ZM480.6,321.3s0,.3,0,0c.3.3.3,0,0,0ZM481.2,321.3c0-.3-.3-.3-.3,0,.3,12-.9,24.3-.6,36.3,0,.3.3.3.6,0,1.5-11.7.9-24.3.3-36.3ZM588,309.3c-7.5,0-15.3.9-22.8.3-5.7-.6-11.4-3-17.1-3.3-11.7-.6-21.9,1.5-33.6-.6-1.2-.3-1.5,1.5-.6,1.8,13.2,3.9,27.3,3,40.8,3.9,10.8.6,22.2-.3,33-.9.9-.3.9-1.2.3-1.2h0ZM480,209.7c-18.6.6-37.5,1.8-56.1.3-14.4-1.2-30.6-7.5-44.7-2.4-.6.3-.3,1.2.3.9,14.7-4.5,34.5,3.9,50.1,4.8,16.8.9,33.9-.6,50.4-2.7.3,0,.6-.9,0-.9h0ZM575.1,112.5c-9.3-6-21.3-.6-31.8-1.8-11.4-1.2-21.3-3-33,0-.9.3-.6,1.5.3,1.5,11.4-1.8,21.3,0,32.4,1.5,10.2,1.2,22.2-3.6,31.8,0,.6,0,.9-.9.3-1.2h0ZM345.3,111.6c-33,4.2-65.7-1.8-98.7,0-.9,0-.9,1.5,0,1.5,33,.6,66.6,7.2,99-.6.3,0,.3-.9-.3-.9ZM465.6,110.7c-22.5,1.5-44.4-3.9-67.2-.6-.6,0-.3.9,0,.9,15.3-1.8,28.2-.6,43.2,1.5,7.2.9,35.4-1.5,35.7,8.4,0,.9,1.2,1.2,1.5.3,2.4-9.3-5.4-10.8-13.2-10.5h0ZM345,15.3c-11.7-8.7-27.3,3-39.9,0-.6,0-.9.6-.3.9,8.4,3.6,15,1.2,23.7-.3,9.3-1.5,17.4.6,20.1,10.8,1.8,6.6,1.5,14.4,2.1,21,0,.9,1.5.9,1.5,0-.6-9.9,1.8-25.8-7.2-32.4h0ZM279.9,12.6c-11.4,0-23.1-.3-34.5-.6-.6,0-.6.6,0,.6,11.7.9,23.1.6,34.8.3.3.3.3-.3-.3-.3ZM173.1,81.6c-7.2-1.5-14.4-1.8-21.6-1.5-4.8.3-32.1,6.6-28.8-5.4.3-.6-.9-1.2-1.2-.6-3,5.7,1.5,10.5,7.2,11.4,4.5.6,9-1.2,13.5-1.8,10.2-1.8,20.4-1.8,30.9-1.5.3.6.3-.3,0-.6h0ZM181.5,82.8c-1.2,0-1.2,1.8,0,1.8s1.2-1.8,0-1.8ZM203.4,87c-6-1.5-12.3-2.4-18.3-3-.3,0-.6.6,0,.6,6,1.5,12,3,18.3,3.3.3.3.6-.6,0-.9ZM393.9,84.6c-3.3-.6-7.2-.3-9.6-2.7-3-3-1.8-7.2-.9-10.5.9-3.9,1.8-7.8-.3-11.7-.3-.6-1.5,0-1.2.6,3,6.6-3.6,13.5-1.2,20.1,1.8,5.1,8.1,6.6,12.9,6,.9,0,1.5-1.5.3-1.8ZM432.9,59.1c-7.5-1.2-15.3-4.2-22.8-4.8-8.4-.6-21.3,6.9-28.5,1.5-.6-.3-1.2.6-.6.9,4.8,4.2,9.6,2.4,15,.9,13.5-3.9,23.7,1.5,36.9,2.1.3.3.3-.3,0-.6ZM379.8,10.8c0-.6-.9-1.2-1.2-.3-1.5,7.8-1.5,15.3.9,22.8.3.6.9.3.9-.3-1.2-7.5-1.8-14.7-.6-22.2h0ZM89.1,13.5c-7.5-6-15.6-4.5-24.6-3.9-14.4,1.5-28.2.9-42.3-.6-.3,0-.6.6,0,.9,10.2,2.1,20.1,3.3,30.6,3.3s23.7-2.7,35.7,1.8c.6,0,1.2-.9.6-1.5ZM90.6,31.8c-.3-4.5.3-9.3-3-12.6-.3-.6-1.2.3-.6.6,3.6,4.8,2.4,14.1,2.7,19.8.3,5.4.3,10.8.9,15.9,0,.3.6.3.6,0,.6-7.8-.3-15.9-.6-23.7ZM91.5,75.9c0-.6-1.2-.6-1.2,0,.3,3,0,5.7-.3,8.7,0,.3.6.3.6,0,1.2-2.7,1.2-5.7.9-8.7ZM220.2,124.5c-.3-6.6-3-12.3-10.2-10.8-.6,0-.3.9,0,.9,11.7,3.3,6,28.2,6.6,36.6.6,8.1,2.1,15.3,5.1,22.5.3.3.6,0,.6-.3-6.3-16.5-1.5-32.1-2.1-48.9h0ZM206.1,113.1c-6.3.3-12.6,0-18.9-.3-.6,0-.6.9,0,.9,6.3,1.2,12.6.9,18.9,0,.6,0,.6-.6,0-.6ZM99.9,109.2c-10.2-2.4-20.4-.9-30.9,0-12.6.9-25.2,1.8-37.5,3.6-.6,0-.6.9,0,.9,21.9-.6,46.5-7.8,68.1-3.3.9,0,1.2-1.2.3-1.2ZM53.1,140.1c-8.7,3.6-17.4-3.3-26.1-.9-.3,0-.3.6.3.6,8.7-2.4,18,5.7,26.4.9.3-.3,0-.9-.6-.6ZM73.8,208.5c-20.4.9-36.9,3.9-56.7-3.6-.6-.3-1.2.9-.6,1.2,8.4,3.6,17.1,6,26.4,6.9,8.1.6,39.3-5.1,43.2,5.1.3.6,1.5.6,1.5-.3,0-8.1-6.6-9.6-13.8-9.3h0ZM91.5,238.2c0-.9-1.2-.9-1.2,0,0,3-.3,6.3,0,9.3,0,.6.9.6.9,0,.6-3,.3-6.3.3-9.3ZM160.2,312c-19.5-5.1-39.9-4.2-59.7-4.2s-.6.6,0,.6c20.1,0,39.6,1.2,59.4,4.5.6.3.9-.6.3-.9h0ZM162.6,384.6c-23.1,1.5-46.5-3.3-69.6-3.9-.6,0-.6.9,0,.9,21.9,3,48,8.4,69.9,3.9.3-.3.3-.9-.3-.9ZM216.9,326.7c.6-6.6,3.3-14.4-5.1-15.9-.9-.3-1.5.9-.6,1.5,6.9,4.5,2.7,26.7,3.6,34.5.9,10.2,2.7,20.1,4.8,30.3,0,.3.6.3.6,0-2.4-16.8-4.8-33.6-3.3-50.4ZM316.8,351.3c-11.1-10.2-22.5-10.2-36-5.4-.9.3-.6,1.8.3,1.2,6.6-2.1,13.2-4.5,20.1-3,5.4,1.2,9.9,5.1,15,7.5.6.6.9,0,.6-.3h0ZM362.7,363.9c-1.5-3-4.8-3.6-7.8-3-2.1.6-4.2,1.8-6,2.7-4.2,2.1-7.8,3.3-12.6,3.6-.9,0-.9,1.5,0,1.5,3.6,0,6.9-.6,10.2-2.1,5.1-2.1,9.9-6.6,15-1.8.9.6,1.5,0,1.2-.9h0ZM474.9,411.3c-16.8-1.2-31.5,8.4-48,5.7-16.2-2.7-31.8-5.7-48.3-7.2-.9,0-.9,1.2-.3,1.5,18,2.7,36.3,8.7,54.3,10.2,3.9.3,7.2-.3,10.8-1.2,10.8-3.3,19.5-6.3,31.2-6.9,1.5-.6,1.5-2.1.3-2.1h0ZM566.1,407.1c-18.3,0-41.1-1.2-58.8,4.5-.6.3-.3,1.2.3,1.2,18.3-5.7,39.6-3,58.5-4.8.6,0,.6-.9,0-.9h0ZM382.8,480.6c-2.4,0-3.6-.9-3.6-2.7s-.3-1.5-.3-2.4c-.3-1.2-.3-2.7-.3-3.9-.3-2.7-.3-5.4-.3-8.1s-.9-.6-.9,0c-.3,3.6-.3,7.2,0,10.8.3,2.1,0,5.4,1.5,7.2,1.2,1.8,4.5,2.1,4.8-.6-.3-.3-.6-.6-.9-.3ZM492.9,478.2c-8.7.9-17.4,3-25.8,4.5-10.8,2.1-19.8.9-30.6-.6-.6,0-1.2.9-.3,1.2,7.5,1.2,15.3,3.3,22.8,2.7,11.1-.9,23.1-3.6,33.9-6.6.9-.3.9-1.2,0-1.2ZM210.6,409.8c-16.8-.3-32.4,5.4-48.9.6-14.7-4.2-29.4-3-44.4-1.8-.3,0-.3.6,0,.6,9.6-.3,19.5-1.2,29.1-.6,9.3.6,15.9,5.7,24.6,7.2,11.7,2.1,28.5-1.8,39.9-4.8.6,0,.3-1.2-.3-1.2h0ZM347.4,409.8c-20.1-2.1-40.2-1.8-60.3-3-18.3-.9-34.8,2.7-52.8,3-.6,0-.6.9,0,.9,17.7-.3,34.8-3.6,52.8-2.4,20.1,1.2,40.2,3.6,60.3,3.9,1.5,0,1.5-2.1,0-2.4ZM352.5,439.8c-.3-.6-.9-.9-1.2-1.5-1.2-2.4-.9-4.2-.3-6.9,1.2-5.4,1.5-9.6-1.5-14.7-.6-.9-1.8,0-1.5.9,1.8,3.3,2.4,7.2,1.2,10.8-.6,2.1-2.4,4.2-2.7,6.3-.3,3.6,4.2,5.1,3.9,9,0,.9.9.9,1.5.3,1.2-1.5,1.2-2.4.6-4.2h0ZM353.1,453.3c0-.9-1.2-.9-1.2,0,0,3.3-.3,6.9.3,10.2,0,.6.9.6.9,0,.3-3.3,0-6.9,0-10.2ZM183,460.5c-8.4-.9-6.9-2.4-14.7-8.7-.6-.6-1.5-2.4-2.4-3.3-10.2-8.4-39,7.2-46.5-5.1-.3-.6-1.2,0-.9.6,7.5,14.7,30-.3,42.3,6,6.3,3.3,3,7.2,8.1,10.5,3.6,2.4,10.5,1.2,14.4.9.3,0,.3-.9-.3-.9ZM213.3,465.3c-4.8-.3-9.6.3-14.4.6-.9,0-.9,1.2,0,1.2,4.8-.3,9.9-.3,14.4-1.2.6-.3.3-.6,0-.6ZM277.2,439.2c-4.8-.6-9.6-.3-14.4-.3s-.9,1.2,0,1.2c4.8,0,9.6.3,14.4-.3.6,0,.6-.6,0-.6h0ZM68.1,412.8c-9.9-3.3-18.6-1.8-28.8-1.2-12,.6-23.4-.9-34.8-4.8-.6-.3-1.2.9-.6,1.2,21.3,9.3,41.4,4.5,63.9,6,.6,0,.9-.9.3-1.2ZM81,412.5c-.6,0-.9,1.2-.3,1.2,4.2.6,6.9,4.2,7.5,8.4,0,.3.6.3.6,0,1.2-4.8-3.3-9.3-7.8-9.6ZM90.6,432.9c0-.6-.9-.6-.9,0-.3,4.5-1.2,9.6-.3,13.8,0,.6,1.2.6,1.2,0,1.2-4.2.3-9.3,0-13.8ZM215.4,519c-.3-1.2-1.8-.9-1.8.3-.9,13.2.3,26.7.6,39.9,0,5.1,2.1,14.4.3,19.2-3.6,9.3-12.9,7.8-20.4,8.4-.6,0-.6.9,0,.9,12-.3,22.5,3.6,23.4-9.3.9-19.2,1.2-40.8-2.1-59.4ZM213,508.2c-7.5-2.1-15.9,0-23.4.6-8.4.9-16.5,1.8-24.9,3.3-.6.3-.6,1.2.3,1.2,15.9-.3,32.1-4.2,48-3.9.6.3.6-.9,0-1.2ZM140.7,508.8c-16.2-2.7-33-3.9-49.2-2.4-18.3,1.8-35.4,7.2-54,6.9-.6,0-.6.6,0,.9,14.4,1.5,28.5-1.5,42.9-3.6,20.4-3,39.6-3.3,60-.6.6,0,.9-1.2.3-1.2h0ZM160.5,540.3c-5.7.6-11.1,1.8-16.8,2.7-.6.3-.3,1.2.3,1.2,5.4-.9,11.1-1.8,16.5-3.3.6,0,.3-.6,0-.6h0ZM278.1,569.1c-4.8-7.5-15-10.8-23.7-8.4-.9.3-.6,1.5.3,1.5,8.7-1.2,15.9,1.5,22.2,7.5.9.3,1.5,0,1.2-.6ZM312.6,574.2c-4.2-.3-9,.9-13.2,1.5-.9,0-.6,1.8.3,1.5,4.2-.6,9-.6,13.2-2.1.3,0,.3-.9-.3-.9ZM334.2,573.3c-.6.3-1.5.3-2.1.6-.6.3-.3.9.3.9.6-.3,1.5-.6,2.1-.9.3-.3,0-.9-.3-.6ZM385.5,561.3c-3.9-2.7-9-3-13.5-2.1-.9.3-.6,1.8.3,1.5,4.5-.9,8.7-.3,12.9,1.2.3.3.6-.3.3-.6ZM407.4,566.1c-2.1,0-4.2,0-6.6-.3-.6,0-.6.9,0,.9,2.1,0,4.2,0,6.6-.3.6,0,.6-.3,0-.3h0ZM431.4,567.3c-1.8.3-3,.6-4.8.3-.9-.3-1.5,1.2-.3,1.5,1.8.3,3.9.3,5.7-.6.3-.6,0-1.2-.6-1.2h0ZM446.7,543c-.9,0-.9,1.5,0,1.5s.9-1.5,0-1.5ZM253.5,510.6c-3.3-2.4-7.2-2.7-11.4-2.1-.9,0-.6,1.2.3,1.2,3.6-.6,7.2.3,10.8,1.5.3.3.6-.3.3-.6h0ZM397.5,510.3c-8.4-2.7-15.6-1.2-24.3.3-13.2,2.4-25.2,1.8-38.4,2.1-9.9.3-19.2,4.2-29.4,3.9-9.9-.3-18.6-2.7-28.5-.9-.6,0-.3.9,0,.9,9.6-.6,18.6,1.8,28.2,2.4,9.6.6,17.4-2.7,26.7-3.3,10.8-.9,21.3,1.2,32.1-.3,11.1-1.8,21-4.8,32.7-3,1.8.6,2.4-1.5.9-2.1ZM473.7,509.7c-10.8-2.7-21-.9-31.8,0-9.6.9-18.9-2.4-27.9,1.2-.6.3-.3,1.5.3,1.2,9.6-2.4,19.5.6,29.4.3,9.9-.6,19.8-.3,29.7,0,1.2-.3,1.5-2.1.3-2.7ZM476.7,514.5c-.6-.6-1.5.3-1.2.9,1.2,1.5,1.8,3,2.4,4.5s.6,3,.9,4.8c.3.6,1.2.6,1.2,0,.9-3.9-.9-7.8-3.3-10.2h0ZM509.1,513c-1.5,8.1-2.4,16.2-.6,24.3,0,.6,1.2.6,1.2-.3.3-8.1,0-15.9,1.2-23.7,0-.6-1.5-1.2-1.8-.3h0ZM510.6,548.1c0-.9-1.2-.9-1.2,0-.3,3,.9,5.7,2.4,8.1,2.1,3.6,3.6,6,3.6,10.2s.6.6.9.3c3.9-6-5.7-12.6-5.7-18.6h0ZM570.6,511.5c-10.2-.9-20.4,0-30.9-1.8-.9-.3-1.2,1.2-.3,1.5,10.2,1.8,21.3,4.2,31.5,2.4,1.2,0,.6-1.8-.3-2.1h0Z"/>
    </g>
    <g id="svga-group-humanwrap-move">
      <g id="svga-group-humanwrap">
        <g id="svga-group-humanbody-back">
          <path id="SvgjsPath12389" class="cls-17" d="M499.5,543.3c-32.7-19.8-82.8-25.2-105-36.3-14.7-7.5-27.3-14.1-26.7-53.4s5.7-127.2,5.7-127.2h-147.3s4.8,88.2,5.7,127.2-12.6,46.8-26.7,53.4c-22.2,10.5-72.3,16.2-105,36.3-32.4,19.8-30,56.7-30,56.7v59.1h459.9v-59.1c-.3,0,2.1-36.9-30.6-56.7h0Z"/>
        </g>
        <g id="svga-group-chinshadow-single">
          <path id="SvgjsPath12385" class="cls-7" d="M373.5,326.7h-147.3c.3,5.4,4.8,89.1,5.7,126.9,0,4.2,0,8.1-.3,11.7,5.1,6.6,10.2,12.6,15.3,17.7,16.5,18.3,25.2,19.5,53.1,19.5s36.6-1.2,53.1-19.5c4.8-5.1,9.9-11.1,15-17.7-.3-3.6-.3-7.5-.3-11.7.6-38.1,5.4-121.5,5.7-126.9h0Z"/>
        </g>
        <g id="svga-group-humanbody-front">
          <path id="SvgjsPath12390" class="cls-2" d="M236.1,470.4c1.5,14.4,5.1,28.2,9.3,41.7,2.4,6.9,4.8,13.8,7.8,20.7,2.4,6,5.1,12.6,9.3,17.7.9,1.2,3,0,2.7-1.5-1.5-6.6-4.8-12.9-7.2-19.2-2.7-6.6-5.1-13.2-7.5-19.8-4.5-13.2-8.4-26.7-12.3-39.9-.6-1.2-2.4-.9-2.1.3h0ZM360,467.4c-3.9,24.6-11.7,48.3-16.2,72.6-.3,1.2,1.2,1.5,1.8.6,9.3-23.1,12.3-48.3,15.3-72.9-.3-.6-.9-.6-.9-.3h0ZM282.6,503.1c-2.7,10.8,5.7,25.8,18.6,22.8,1.5-.3,1.2-2.4,0-3-4.2-1.5-8.7-2.7-11.7-6.3-3.3-3.6-4.5-8.7-4.2-13.5,0-1.2-2.4-1.5-2.7,0h0Z"/>
          <path id="SvgjsPath12391" class="cls-26" d="M531.9,659.1c-.3-19.8-.9-39.3-.9-59.1l-.9-.9q.3,0,.6.3c.3.3.3.6.3.3v-4.2c0-1.5-.3-2.7-.3-4.2-.3-2.7-.9-5.7-1.5-8.4-1.5-5.4-3.3-10.8-6-15.9-5.1-10.2-13.2-18.6-23.1-24.3-10.8-6.6-22.8-11.4-34.8-15.3s-24.3-7.2-36.3-10.5c-12-3.6-24.3-6.6-35.4-12.6-5.7-3-10.8-6.3-14.4-10.8-3.6-4.8-5.7-10.5-6.9-16.5-2.4-12-1.2-24.6-.9-37.2l2.1-37.8,4.5-75.6.3-4.2h-4.2c-24.6,0-49.2,0-73.8.3l-73.8.9h-2.7l.3,2.7c2.4,35.7,4.8,71.4,6.3,107.1.3,9,.9,18,.6,26.7-.3,8.7-1.2,17.7-4.8,25.8-1.8,3.9-4.2,7.5-7.2,10.5s-6.9,5.4-10.8,7.2c-7.8,3.9-16.2,6.6-24.9,9-17.4,4.5-34.8,8.4-51.9,14.1-8.4,2.7-17.1,6-25.2,10.2-3.9,2.1-8.1,4.2-12,7.2-3.9,2.7-7.2,5.7-10.5,9.3-6.3,6.9-10.8,15.6-13.5,24.3-1.5,4.5-2.4,9-3,13.8s-.3,4.8-.3,7.2v6.9l-.6,53.7v3.9h4.2l114.9.6c38.4.3,76.5.3,114.9,0s76.8-.3,114.9-.9c38.4-.6,76.8-1.5,114.9-2.1h1.8v-1.5h0ZM300.3,654.3h-114.9l-111,.6-.3-49.8v-6.6c0-2.1,0-4.2.3-6.3.3-4.2,1.2-8.4,2.4-12.6,2.4-8.1,6.3-15.9,11.7-22.5,2.7-3.3,6-6.3,9.3-8.7,3.3-2.7,7.2-4.8,11.1-6.9,7.8-4.2,15.9-7.5,24.3-10.5,16.8-6,34.2-10.2,51.3-15.3,8.7-2.4,17.4-5.1,25.5-9.3,3.9-2.1,8.1-4.5,11.4-7.8,3.3-3.3,6-7.2,7.8-11.7,3.6-8.7,4.5-17.7,4.8-26.7,0-9-.3-18-.6-27l-3.9-104.4,70.5,1.2c23.1.3,46.2.3,69.3.3-1.2,23.7-2.4,47.7-3.3,71.4-.6,12.6-.6,25.2-.9,37.8,0,12.6-.6,25.5,2.4,38.4,1.5,6.3,3.9,12.6,8.4,18,4.2,5.1,10.2,8.7,15.9,11.4,11.7,5.7,24,8.4,36.3,11.4s24.6,6,36.6,9.9,23.7,8.4,34.5,15c9.6,5.7,17.4,14.1,22.5,24,2.7,4.8,4.5,10.2,5.7,15.6.6,2.7,1.2,5.4,1.2,8.1.3,1.5.3,2.7.3,4.2v4.5l-.9,57c-37.8-.6-75.3-1.5-113.1-2.1-38.1-.3-76.5-.3-114.6-.6h0Z"/>
        </g>
        <g id="svga-group-clothes-single">
          <path id="SvgjsPath13025" class="cls-16" d="M540.9,660.3c0-52.5-4.8-86.1-4.8-86.1-9.6-45.6-67.5-48.3-93.3-55.5-8.4-2.4-41.7-13.5-41.7-13.5-12-25.8-27.3-40.2-27.3-40.2,0,0,3.3,49.8-14.4,62.1-8.4,5.7-26.7,9.3-33.6,15-7.2,6-17.7,30.6-17.7,30.6,0,0-25.5-37.5-32.1-36.9-14.1,1.5-24,0-27.6-1.2-20.1-6-20.1-70.2-20.1-70.2,0,0-19.5,13.8-28.2,37.2-9.6,4.2-33,9.6-45,14.1-24.9,9.3-82.5,16.8-91.5,58.8,0,0-4.8,33.6-4.8,86.1l482.1-.3Z"/>
          <path id="SvgjsPath13026" class="cls-3" d="M541.8,630.3c0-9.9-.3-20.1-.9-30-.3-5.1-.6-9.9-.9-15l-.6-7.5-.3-3.9c-.3-1.2-.6-2.7-.9-3.9-2.7-10.2-8.4-19.5-16.2-26.7-7.8-6.9-17.1-12-26.7-15.3-9.6-3.6-19.5-6-29.4-8.1,0,0-52.5-13.2-60.9-17.7-3.3-7.2-7.2-14.1-11.7-20.7-2.4-3.6-4.8-6.9-7.5-10.2-2.7-3.3-5.1-5.7-8.4-8.7-.6-.6-3-2.1-3.9-2.1-2.1-.3-3,1.8-3.3,3.9v.3c-1.2,11.4-1.8,42.6-3.9,47.7-2.4,5.1-5.4,9.6-9.6,12-4.5,2.7-10.2,4.5-15.6,6.6-2.7.9-5.7,2.1-8.4,3.3-3,1.2-5.7,2.7-8.7,4.8-3,2.7-4.5,5.1-6.3,7.8-1.8,2.7-3.3,5.4-4.5,7.8l-5.4,10.8c-6.6-9-13.2-18-21-26.1-1.2-1.2-2.4-2.4-3.9-3.6-.6-.6-1.5-1.2-2.4-1.8-.9-.6-1.8-1.2-3.6-1.2h-1.8l-1.2.3-2.4.3c-1.5.3-3.3.3-4.8.3-3.3,0-6.3,0-9.6-.3-3-.3-6.6-.6-9-1.5s-4.8-3-6.6-5.4-3.6-5.1-5.1-7.8c-3-5.7-4.8-41.7-6.9-54.6,0-.3-.3-.3-.3-.6-.6-.6-1.5-.6-2.1-.3-3.3,2.4-6.3,5.1-9,8.1s-5.4,6-7.8,9c-2.4,3.3-4.5,6.6-6.6,9.9s-3.6,6.6-5.1,10.2c-11.4,5.1-32.4,9-44.1,13.2-12,4.2-24.3,6.9-36.6,10.8s-24.6,8.7-35.4,16.5-10.2,8.7-14.4,14.1c-3.9,5.4-6.9,12-8.4,18.6v.3c-.9,7.2-1.8,14.4-2.4,21.6-.6,7.2-1.2,14.4-1.5,21.6s-.9,14.4-.9,21.6c-.3,7.2-.3,14.4-.3,21.6s1.8,4.2,4.2,4.2l121.5.6c40.5,0,81-.3,121.2-.6l120.6-1.5,59.7-.9,59.4-1.2c.6-10.5.6-20.7.6-30.6h0ZM360.6,531c3-1.8,5.7-4.5,7.5-7.2,2.1-2.7,3.6-5.4,5.1-8.4,2.7-5.7,2.7-32.4,3.9-41.7.6.9,1.2,1.5,2.1,2.4,2.4,3,8.1,9,10.2,12.3,10.5,16.5,16.5,37.8,17.1,42,0,0,8.1,38.1,9.3,51.3-5.1-2.4-10.2-5.4-14.7-8.4-6.3-4.2-12.3-8.7-18.3-13.2-6-4.8-11.7-9.3-17.4-14.7-2.7-2.7-5.4-5.4-8.7-7.5-2.1-1.2-4.5-2.4-7.2-2.7,3.6-.6,7.5-2.1,11.1-4.2h0ZM294.3,588.3c-1.8-5.1-3.9-9.9-6.6-14.7-2.4-4.5-5.1-9-8.4-12.9,1.2,0,2.4.3,3.6.3,2.7.3,5.7.3,8.4.6h5.1c3,4.2,5.7,8.1,8.4,12.3-3.6,4.2-6.9,8.7-10.2,13.2q0,.6-.3,1.2ZM266.7,538.8c1.8,0,3.3,0,5.1-.3l2.4-.3h1.8s.6.3.9.6c.6.3,1.2.9,1.5,1.2,1.2.9,2.1,2.1,3.3,3.3,4.8,5.4,9.6,11.4,13.8,17.4-4.2-.6-8.4-1.5-12.9-2.1-5.4-.9-11.1-1.8-16.5-3s-10.8-2.4-16.2-3.9c-5.1-1.5-10.2-2.7-15-4.5l.3-.3c2.4-3,5.1-5.7,8.1-7.8,1.5-.9,3-1.8,4.5-2.4,3,.9,5.4,1.2,8.4,1.5,3.9.6,7.2.6,10.5.6h0ZM201.6,501.9c1.5-3.6,3-7.2,4.8-10.5s3.9-6.6,6.3-9.6,4.8-6,7.8-8.7c2.1-2.1,4.5-4.2,6.6-6,.3,18.9,2.4,47.4,5.4,53.7,1.5,3,3.3,6,5.4,8.7,2.1,2.7,4.8,5.4,8.4,6.9.6.3.9.3,1.5.3-1.5.6-3,1.2-4.2,2.1-3.3,1.8-6,4.8-8.7,7.5-5.4,5.1-11.4,9.9-17.4,14.7s-12,9.3-18.3,13.2c-4.8,3-9.9,6-15,8.4,6.6-54.9,17.1-80.4,17.4-80.7ZM178.5,655.5l-115.5.6c0-12.9.3-25.8.6-38.7.3-7.2.6-14.4,1.2-21.3.6-7.2,1.2-14.1,1.8-21.3,1.2-5.7,3.6-11.4,6.9-16.2,3.3-4.8,7.5-9.3,12.6-13.2.9-.6,1.5-1.2,2.4-1.8,4.8,8.7,9.9,17.1,15,25.5,5.4,8.7,10.8,17.4,16.5,26.1,1.5,2.4,2.7,4.2,3.3,6.6.9,2.4,1.5,4.8,1.8,7.2,1.2,4.8,1.8,9.9,2.4,15l1.8,15.3c.6,5.1.9,10.2,1.5,15.3v-15.3l-.9-15.3c-.3-5.1-1.2-10.2-2.1-15.3-.6-2.7-1.2-5.1-1.8-7.8-.6-2.7-2.1-5.1-3.6-7.2-5.7-8.7-11.1-17.4-17.1-25.8-5.4-8.1-11.1-16.2-16.8-24.3,9.3-6.6,20.1-11.1,30.9-15,12-4.2,24.3-7.2,36.6-11.7,11.7-4.8,30.3-7.8,41.7-13.2-5.4,13.2-11.7,32.1-19.8,83.4,0,.6,0,1.2.3,1.8.6,1.5,2.4,2.1,3.9,1.5,7.2-3.6,13.5-7.8,19.8-12.3,6-4.8,12-9.6,17.7-14.7,5.4-5.1,11.1-9.9,15.9-15.6,4.5,2.7,9.6,4.8,14.4,6.6,5.4,1.8,10.8,3.3,16.2,4.5,4.2.9,8.4,1.5,12.3,1.8,1.8,5.1,3.9,9.9,6.6,14.4,2.7,4.8,5.4,9.3,9,13.5-.3.3-.6.9-.6,1.5-.3,1.2-.3,2.1-.6,3.3-.3,2.1-.3,4.2-.3,6.3v12.3c.3,8.1.6,16.2,1.2,24.3l.9,12.3c.3,2.7.6,5.4.9,7.8-39-.6-78-.9-117-.9h0ZM298.2,656.4h-2.1v-20.1l-.6-24.3c0-4.2-.3-8.1-.3-12s0-3.9.3-6,.3-3.6,1.5-5.4c1.8-3.6,4.2-6.9,6.6-10.2l2.4-3.3c.3.3.6.6,1.2.9,1.8.9,3.9,0,4.8-1.8,1.8-3.9,3.9-7.8,5.7-11.7,3.6,0,6.9-.3,10.2-.9,4.2-.6,8.4-1.8,12.6-3-5.4,7.2-10.5,14.7-15.6,22.2-2.7,3.9-5.4,7.8-8.1,12l-2.1,3-.9,1.5c-.3.3-.9,1.5-.9,2.1-.6,2.7-.6,5.1-.9,7.5-.3,9.6.3,19.2.9,28.8.6,7.2,1.2,14.4,2.1,21.3l-16.8-.6h0ZM418.8,657.9l-102.9-1.2-.3-7.2-.3-14.4c-.3-9.6-.6-19.2-.3-28.5,0-2.4.3-4.8.6-6.9.3-.6,0-.6.6-1.2l.9-1.5,1.8-3c2.4-4.2,5.1-8.1,7.5-12.3,4.8-7.8,9.3-15.3,13.8-23.4,4.2-1.2,8.4-2.7,12.3-4.5,3.9-1.8,8.1-3.6,11.7-6l-12.6,3.6c-4.2,1.2-8.4,2.7-12.6,3.9l-12.6,3.6c-3,.9-6.3,1.5-9.3,2.4.6-.9.9-2.1,1.5-3,1.5-2.7,2.7-5.1,4.5-7.5,1.5-2.4,3.3-4.8,4.8-6,1.8-1.2,4.2-2.7,6.9-3.6,2.7-1.2,5.4-2.1,8.1-3,1.8-.6,3.6-1.2,5.4-2.1,2.4.6,5.1,1.8,7.2,3.3,3.3,2.1,5.7,4.8,8.1,7.8,5.1,5.7,10.8,10.8,16.2,15.9,5.7,5.1,11.4,9.9,17.7,14.7,6.3,4.5,12.6,8.7,19.8,12.3.6.3,1.2.3,1.8.3,1.5-.3,2.7-1.8,2.4-3.3-2.4-15-11.7-66.3-17.1-78.3,7.8,4.2,78.6,22.5,87.6,25.8,6.3,2.4,12.6,5.1,18.3,8.7-6,8.1-11.7,16.5-17.4,24.9-5.7,8.4-11.4,17.1-17.1,25.8-1.2,2.1-3,4.5-3.6,7.2-.9,2.7-1.5,5.1-1.8,7.8-.9,5.1-1.8,10.2-2.1,15.3l-.9,15.3c0,5.1-.3,10.2,0,15.3.6-5.1.9-10.2,1.5-15.3l1.8-15.3c.6-5.1,1.5-10.2,2.7-15l1.8-7.2c.6-2.4,1.8-4.2,3.3-6.6,5.4-8.7,11.1-17.4,16.5-26.1s10.5-17.4,15.3-26.1c2.4,1.5,4.8,3,6.9,4.8,7.2,6,12.6,14.1,15.3,23.4l.9,3.3.6,3.6.9,7.5,1.5,14.7c.9,9.9,1.8,19.8,2.4,29.7l1.5,29.7-121.5-2.1h0ZM305.4,592.2c2.1,0,3.6,1.5,3.6,3.6s-1.5,3.6-3.6,3.6-3.6-1.5-3.6-3.6,1.5-3.6,3.6-3.6ZM332.7,546.6c2.1,0,3.6,1.5,3.6,3.6s-1.5,3.6-3.6,3.6-3.6-1.5-3.6-3.6,1.8-3.6,3.6-3.6ZM306,648c2.1,0,3.6,1.5,3.6,3.6s-1.5,3.6-3.6,3.6-3.6-1.5-3.6-3.6,1.5-3.6,3.6-3.6Z"/>
        </g>
        <g id="svga-group-head">
          <g id="svga-group-ears-left-move">
            <g id="svga-group-ears-left">
              <path id="SvgjsPath12281" class="cls-17" d="M186.6,285.6s-13.2-14.1-17.4-18.6-9.3-14.1-15-12.3c-5.7,1.5-3.6,8.1-3.9,17.4-.3,9.3.9,27.3,6.6,37.2s8.7,13.5,10.5,24,8.4,12.6,12.3,9.6,12.9-21,13.2-30.6c0-9.6-3.9-22.8-6.3-26.7h0Z"/>
              <path id="SvgjsPath12282" class="cls-1" d="M189.3,291.9c.9,2.4,1.5,4.5,2.1,6.9,1.2,4.8,2.1,9.6,2.1,14.7s-.6,4.8-.9,6.9l-1.8,6.3c-1.5,3.9-3.3,7.8-5.1,11.4s-2.1,3.3-3.3,5.1c-.6.6-1.5,1.5-2.4,2.1s-1.8.9-2.7.9c-2.1.3-4.2-.3-6-2.1s-3.3-4.2-4.2-6.9l-.6-2.1-.3-2.1c-.3-1.2-.3-2.4-.6-3.3-.6-2.1-1.2-4.5-1.8-6.3-1.5-4.2-3.9-8.1-6.3-12-1.2-1.8-2.4-4.2-3-6.6-.9-2.4-1.5-4.8-2.1-7.2-.9-4.8-1.8-9.6-2.1-14.4-.6-4.8-.6-9.6-.6-14.1s-.3-4.5-.3-7.2,0-2.4.3-3.9c.3-1.2.6-2.7,1.5-3.6.6-.9,1.5-1.5,2.4-1.8s1.8-.6,3-.6c2.1.3,3.9,1.5,5.7,3,3.3,3,5.7,7.2,8.1,10.5,5.7,6.6,11.1,13.2,16.8,19.5.3,2.4,1.2,4.8,2.1,6.9h0ZM168.3,268.2c-3.3-3-5.7-6.9-8.4-9.3-1.5-1.2-2.7-2.1-4.2-2.4-1.2,0-2.7.3-3.6,1.2s-1.2,2.7-1.2,5.1v6.9c0,2.4-.3,4.5-.3,6.9s0,4.5.3,6.9c.3,4.8.9,9.3,2.1,14.1,1.2,4.5,3,9,5.4,12.6,2.4,3.9,5.1,7.5,7.2,12,.9,2.4,1.8,4.8,2.4,7.2l.9,3.6.3,1.5.6,1.5c.6,1.8,1.8,3.3,3,4.2s2.7,1.2,3.9.9c.6,0,1.2-.3,1.8-.6.6-.3.9-.9,1.5-1.5.9-1.2,2.1-3,3-4.5,1.8-3.3,3.6-6.9,5.1-10.5s3-7.5,3.6-11.4c.6-4.2,0-9-.6-13.5-.3-2.4-.9-4.8-1.5-6.9-.6-2.4-1.5-4.5-2.7-6.3-6.6-6.3-12.6-12-18.6-17.7h0Z"/>
              <path id="SvgjsPath12283" class="cls-2" d="M151.2,268.8c1.5-5.7,6.3-3,9,1.2,5.7,7.8,9.6,19.8,10.8,30,0,.3-.3.6-.3.3-.3.3-.6.3-.6-.3-3.6-1.5-4.8-.6-3.6,2.4,0,.9.3,1.8.9,2.7.6,1.5,1.8,3,2.7,4.5,1.5,2.4,3.6,4.5,5.1,6.9.6.9,0,1.8-.6,1.2-4.2-3-11.7-12.9-9.6-19.8.9-2.4,3-3.3,4.5-2.1-3.3-10.8-12-36-17.4-26.4-.6.3-.9-.3-.9-.6h0Z"/>
              <path id="SvgjsPath12284" class="cls-2" d="M159.9,270.3c-3,6-4.2,13.2-2.7,21.3.9,4.5,8.7,28.5,14.7,25.2.6-.3,1.2.9.6,1.5-6,5.4-12.6-13.5-14.7-19.5-3.3-10.2-4.2-22.5,1.5-29.1.3-.3.6,0,.6.6Z"/>
            </g>
          </g>
          <g id="svga-group-ears-right-move">
            <g id="svga-group-ears-right">
              <path id="SvgjsPath12285" class="cls-17" d="M414.2,285.5s13.2-14.1,17.4-18.6,9.3-14.1,15-12.3c5.7,1.5,3.6,8.1,3.9,17.4.3,9.3-.9,27.3-6.6,37.2s-8.7,13.5-10.5,24-8.4,12.6-12.3,9.6-12.9-21-13.2-30.6c0-9.6,3.9-22.8,6.3-26.7h0Z"/>
              <path id="SvgjsPath12286" class="cls-1" d="M413.7,285.3c5.7-6,11.4-12.9,16.8-19.5,2.7-3,4.8-7.2,8.1-10.5,1.5-1.5,3.6-3,5.7-3s2.1,0,3,.6c.9.3,1.8.9,2.4,1.8.6.9,1.2,2.4,1.5,3.6.3,1.2.3,2.7.3,3.9,0,2.4-.3,4.8-.3,7.2,0,4.5-.3,9.6-.6,14.1-.3,4.8-1.2,9.6-2.1,14.4-.6,2.4-1.2,4.8-2.1,7.2s-1.8,4.5-3,6.6c-2.1,3.9-4.5,8.1-6.3,12-.9,2.1-1.5,4.2-1.8,6.3-.3,1.2-.3,2.1-.6,3.3l-.3,2.1-.6,2.1c-.9,2.7-2.4,5.1-4.2,6.9-1.8,1.5-4.2,2.4-6,2.1-.9,0-1.8-.3-2.7-.9-.9-.6-1.8-1.5-2.4-2.1-1.2-1.5-2.4-3.3-3.3-5.1-1.8-3.6-3.6-7.2-5.1-11.4-.6-2.1-1.5-4.2-1.8-6.3-.6-2.1-.9-4.5-.9-6.9,0-5.1.9-9.9,2.1-14.7.6-2.4,1.2-4.8,2.1-6.9,0-2.4.9-4.8,2.1-6.9h0ZM414,285.6c-1.2,1.8-1.8,4.2-2.7,6.3-.6,2.4-1.2,4.5-1.5,6.9-.9,4.5-1.2,9.3-.6,13.5s2.1,7.8,3.6,11.4c1.5,3.6,3.3,7.2,5.1,10.5.9,1.5,1.8,3.3,3,4.5.6.6.9,1.2,1.5,1.5s1.2.6,1.8.6c1.2.3,2.7,0,3.9-.9s2.1-2.4,3-4.2l.6-1.5.3-1.5.9-3.6c.6-2.4,1.5-4.8,2.4-7.2,2.1-4.5,4.8-8.4,7.2-12,2.4-3.6,4.2-7.8,5.4-12.6,1.2-4.5,1.8-9.3,2.1-14.1.3-2.4.3-4.8.3-6.9s-.3-4.5-.3-6.9v-6.9c0-2.1-.3-4.2-1.2-5.1-.9-.9-2.4-1.5-3.6-1.2-1.2,0-2.7,1.2-4.2,2.4-2.7,2.4-5.4,6.3-8.4,9.3-6.9,6-12.9,11.7-18.6,17.7h0Z"/>
              <path id="SvgjsPath12287" class="cls-2" d="M448.8,268.8c-1.5-5.7-6.3-3-9,1.2-5.7,7.8-9.6,19.8-10.8,30,0,.3.3.6.3.3.3.3.6.3.6-.3,3.6-1.5,4.8-.6,3.6,2.4,0,.9-.3,1.8-.9,2.7-.6,1.5-1.8,3-2.7,4.5-1.5,2.4-3.6,4.5-5.1,6.9-.6.9,0,1.8.6,1.2,4.2-3,11.7-12.9,9.6-19.8-.9-2.4-3-3.3-4.5-2.1,3.3-10.8,12-36,17.4-26.4.6.3.9-.3.9-.6h0Z"/>
              <path id="SvgjsPath12288" class="cls-2" d="M440.1,270.3c3,6,4.2,13.2,2.7,21.3-.9,4.5-8.7,28.5-14.7,25.2-.6-.3-1.2.9-.6,1.5,6,5.4,12.6-13.5,14.7-19.5,3.3-10.2,4.2-22.5-1.5-29.1-.3-.3-.6,0-.6.6Z"/>
            </g>
          </g>
          <g id="svga-group-faceshape-wrap">
            <g id="svga-group-faceshape-single">
              <path id="SvgjsPath12371" class="cls-17" d="M429.6,246v-.9c-3.9-89.7-62.1-139.2-129.6-139.2s-125.7,49.5-129.3,139.2v.9c.3,28.2-1.8,76.5,6,94.8,3.9,9.3,41.4,71.4,70.2,102.6,16.5,18.3,25.2,19.5,53.1,19.5s36.6-1.2,53.1-19.5c28.8-31.2,66.3-93.3,70.2-102.6,7.8-18.3,5.7-66.6,6.3-94.8h0Z"/>
              <path id="SvgjsPath12372" class="cls-26" d="M353.1,443.4c28.8-31.2,66.3-93.3,70.2-102.6,7.8-18.3,5.7-66.6,6.3-94.8v-.9c-3.9-89.7-62.1-139.2-129.6-139.2s-125.7,49.5-129.3,139.2v.9c.3,28.2-1.8,76.5,6,94.8,3.9,9.3,41.4,71.4,70.2,102.6,16.5,18.3,25.2,19.5,53.1,19.5s36.6-1.2,53.1-19.5ZM262.2,447.6c-3.6-2.7-6.9-6-10.2-9.6-6.9-7.2-13.2-18-19.5-25.8-12.6-15.9-24.3-32.4-35.7-48.9-2.7-4.2-5.7-8.4-8.4-12.6-1.5-2.1-2.7-4.2-3.9-6.3l-1.8-3c-.6-.9-1.2-1.8-1.5-3-1.8-3.9-2.7-8.7-3.6-13.5s-1.5-9.9-2.1-14.7c-1.8-20.1-2.1-40.5-2.4-60.9,0-20.1,3.3-40.2,10.8-59.1.3-1.2.9-2.4,1.2-3.6l1.8-3.3,3.3-6.6c.9-2.4,2.4-4.2,3.9-6.6l3.9-6.3,4.5-6c1.5-1.8,3-3.9,4.8-5.7,3.6-3.6,6.6-7.2,10.5-10.2,1.8-1.5,3.9-3.3,5.7-4.8l6-4.2,3-2.1c.9-.6,2.1-1.2,3.3-1.8l6.3-3.6c2.1-1.2,4.5-1.8,6.6-3,2.4-.9,4.5-2.1,6.9-2.7,4.8-1.5,9.3-3,14.1-3.9,18.9-4.2,38.7-4.5,57.6-.3l7.2,1.5,6.9,2.1c4.8,1.2,9,3.3,13.5,5.1,2.4.9,4.2,2.4,6.3,3.3,2.1,1.2,4.5,2.1,6.3,3.6,3.9,2.7,8.4,5.1,12,8.4,15.3,12.3,27.9,28.5,36,46.8,8.1,18.3,12.3,38.7,13.2,58.8-.3,10.2-.3,20.4-.6,30.6-.3,10.2-.6,20.4-1.8,30.6-.9,9.9-2.4,20.4-5.4,29.4l-1.5,3.3c-.6.9-1.2,2.1-1.8,3-1.2,2.1-2.7,4.2-3.9,6.3-2.7,4.2-5.7,8.4-8.7,12.6-6,8.4-12,16.5-18,24.6-3,3.9-6,8.1-9.3,12-3,3.9-6.3,8.1-9.3,12-6.3,7.8-12.6,18.6-19.5,25.8-6.6,7.5-13.2,14.1-20.7,16.5-7.5,2.7-17.4,2.7-27.6,2.7s-20.4.3-28.2-1.8c-3.3-.6-6.6-2.4-10.2-5.1h0Z"/>
            </g>
          </g>
          <g id="svga-group-mouth-single-move">
            <g id="svga-group-mouth-single">
              <path id="SvgjsPath13415" class="cls-14" d="M256,386.8s7.1-1.5,15.9-4.6c8.6-3,18.3-6.2,26.5-6.4,11.9-.4,20.1,1,29.8,4.8,14.3,5.7,23.7,6.5,23.7,6.5,0,0-8.4,8.1-30.5,13.2s-42.3,1.1-51.8-4.4c-9.5-5.5-13.5-9.1-13.5-9.1h0Z"/>
              <path id="SvgjsPath13416" class="cls-12" d="M356.8,384.8c-2.2.6-6.5,3.3-25.7,2.2-8.7-.5-17.4-1.8-26.2-2-8.5-.2-17,1-25.5,1.7-20.3,1.7-26.2-1.7-27.9-2.2-.5-.1-.8.6-.3.8,16.2,8.8,36.4,2.2,53.7,2.7,16.9.5,37,6.2,52.6-2.8.8-.5.3-.8-.7-.5h0Z"/>
            </g>
          </g>
          <g id="svga-group-eyes-left-move">
            <g id="svga-group-eyes-left">
              <g id="svga-group-eyesback-left">
                <path id="SvgjsPath12753" class="cls-24" d="M268.5,284.1s-2.7-5.7-8.7-9.9c-6-3.9-14.4-8.1-27-5.1s-19.8,9.9-24.3,15.9c0,0,1.2,1.5,4.2,3.3s14.1,8.1,26.4,7.5c12.3-.6,23.4-7.5,25.5-8.7,2.1-.9,3.9-3,3.9-3h0Z"/>
              </g>
              <g id="svga-group-eyesiriswrapper-left">
                <g id="svga-group-eyesiriscontrol-left">
                  <g id="svga-group-eyesiris-left">
                    <path id="SvgjsPath12406" class="cls-18" d="M240,264.3c9,0,16.5,7.2,16.5,16.2s-7.2,16.5-16.2,16.5-16.5-7.2-16.5-16.2,7.2-16.5,16.2-16.5Z"/>
                    <path id="SvgjsPath12407" class="cls-22" d="M240.3,297.9c-9.6,0-17.4-7.5-17.4-17.1s7.5-17.4,17.1-17.4,17.4,7.5,17.4,17.1-7.5,17.1-17.1,17.4ZM240,264.9c-8.7,0-15.6,7.2-15.3,15.6s7.2,15.6,15.6,15.3c8.7,0,15.6-7.2,15.3-15.6,0-8.4-6.9-15.3-15.6-15.3Z"/>
                    <path id="SvgjsPath12408" class="cls-11" d="M240,266.7c7.8,0,14.1,6.3,14.1,13.8s-6.3,14.1-13.8,14.1-14.1-6.3-14.1-13.8,6-14.1,13.8-14.1Z"/>
                    <path id="SvgjsPath12409" class="cls-20" d="M240,268.5c6.6,0,12,5.4,12.3,12,0,6.6-5.4,12-12,12.3s-12-5.4-12.3-12c0-6.9,5.4-12.3,12-12.3Z"/>
                    <path id="SvgjsPath12410" class="cls-15" d="M240,271.8c4.8,0,8.7,3.9,9,8.7,0,4.8-3.9,8.7-8.7,9s-8.7-3.9-9-8.7c0-5.1,3.9-9,8.7-9Z"/>
                    <path id="SvgjsPath12411" class="cls-24" d="M236.1,271.8c1.8,0,3,1.2,3,3s-1.2,3-3,3-3-1.2-3-3,1.5-3,3-3ZM246.3,285.6c.6,0,1.2.6,1.2,1.2s-.3,1.2-1.2,1.2-1.2-.6-1.2-1.2.6-1.2,1.2-1.2Z"/>
                  </g>
                </g>
              </g>
              <g id="svga-group-eyesfront-left">
                <path id="SvgjsPath12761" class="cls-17" d="M208.2,283.8c0,19.2,14.1,34.5,31.8,34.5s31.8-15.6,31.8-34.5-14.1-34.5-31.8-34.5-31.8,15.3-31.8,34.5ZM208.5,285.3c4.5-5.7,12-12.9,24.3-15.9s21,1.2,27,5.1c6,3.9,8.7,9.9,8.7,9.9,0,0-1.8,1.8-3.9,3.3-2.1,1.2-13.2,8.1-25.5,8.7-12.3.6-23.4-5.7-26.4-7.5-2.7-2.1-4.2-3.6-4.2-3.6h0Z"/>
                <path id="SvgjsPath12762" class="cls-1" d="M267,275.1c-13.2-10.8-29.1-12.9-45-7.8-.6.3-.9-.6-.3-.9,15-6.6,33.9-2.7,45.6,8.4.3,0,0,.3-.3.3Z"/>
                <path id="SvgjsPath12763" class="cls-15" d="M206.7,288c.6-.6,1.5-1.2,2.1-1.8,15.3,15.6,45,13.5,60-1.2,0,0,0,.3.3.3.3.6,1.2,0,.9-.6,0-.3-.3-.3-.3-.6.3-.3,0-.9-.6-.9-6.3-10.8-18.9-16.2-31.2-15.6-11.7.6-27.6,8.4-32.1,19.8-.6.9.3,1.2.9.6h0ZM209.4,285.6c3.6-3.3,6.6-7.2,11.1-9.9,4.8-3,9.9-5.1,15.6-6,12.6-2.1,25.2,3.9,31.8,14.4-8.4,6.3-17.7,10.8-28.5,11.1-11.7.3-20.1-3.9-30-9.6h0Z"/>
              </g>
            </g>
          </g>
          <g id="svga-group-eyes-right-move">
            <g id="svga-group-eyes-right">
              <g id="svga-group-eyesback-right">
                <path id="SvgjsPath12754" class="cls-24" d="M331.5,284.1s2.7-5.7,8.7-9.9c6-3.9,14.4-8.1,27-5.1s19.8,9.9,24.3,15.9c0,0-1.2,1.5-4.2,3.3s-14.1,8.1-26.4,7.5c-12.3-.6-23.4-7.5-25.5-8.7-2.1-.9-3.9-3-3.9-3Z"/>
              </g>
              <g id="svga-group-eyesiriswrapper-right">
                <g id="svga-group-eyesiriscontrol-right">
                  <g id="svga-group-eyesiris-right">
                    <path id="SvgjsPath12412" class="cls-18" d="M359.7,264.3c9,0,16.5,7.2,16.5,16.2s-7.2,16.5-16.2,16.5-16.5-7.2-16.5-16.2,7.2-16.5,16.2-16.5Z"/>
                    <path id="SvgjsPath12413" class="cls-22" d="M360,297.9c-9.6,0-17.4-7.5-17.4-17.1s7.5-17.4,17.1-17.4,17.4,7.5,17.4,17.1-7.5,17.1-17.1,17.4ZM359.7,264.9c-8.7,0-15.6,7.2-15.3,15.6,0,8.7,7.2,15.6,15.6,15.3,8.7,0,15.6-7.2,15.3-15.6,0-8.4-6.9-15.3-15.6-15.3Z"/>
                    <path id="SvgjsPath12414" class="cls-11" d="M359.7,266.7c7.8,0,14.1,6.3,14.1,13.8s-6.3,14.1-13.8,14.1-14.1-6.3-14.1-13.8,6-14.1,13.8-14.1Z"/>
                    <path id="SvgjsPath12415" class="cls-20" d="M359.7,268.5c6.6,0,12,5.4,12.3,12,0,6.6-5.4,12-12,12.3-6.6,0-12-5.4-12.3-12,0-6.9,5.4-12.3,12-12.3Z"/>
                    <path id="SvgjsPath12416" class="cls-15" d="M359.7,271.8c4.8,0,8.7,3.9,9,8.7,0,4.8-3.9,8.7-8.7,9-4.8,0-8.7-3.9-9-8.7,0-5.1,3.9-9,8.7-9Z"/>
                    <path id="SvgjsPath12417" class="cls-24" d="M355.8,271.8c1.8,0,3,1.2,3,3s-1.2,3-3,3-3-1.2-3-3,1.5-3,3-3ZM366,285.6c.6,0,1.2.6,1.2,1.2s-.3,1.2-1.2,1.2-1.2-.6-1.2-1.2.6-1.2,1.2-1.2Z"/>
                  </g>
                </g>
              </g>
              <g id="svga-group-eyesfront-right">
                <path id="SvgjsPath12764" class="cls-17" d="M360,249.3c-17.7,0-31.8,15.6-31.8,34.5s14.1,34.5,31.8,34.5,31.8-15.6,31.8-34.5-14.4-34.5-31.8-34.5h0ZM387.3,288.6c-3,1.8-14.1,8.1-26.4,7.5-12.3-.6-23.4-7.5-25.5-8.7s-3.9-3.3-3.9-3.3c0,0,2.7-5.7,8.7-9.9,6-3.9,14.4-8.1,27-5.1s19.8,9.9,24.3,15.9c0,.3-1.5,1.8-4.2,3.6Z"/>
                <path id="SvgjsPath12767" class="cls-1" d="M333,275.1c13.2-10.8,29.1-12.9,45-7.8.6.3.9-.6.3-.9-15-6.6-33.9-2.7-45.6,8.4-.3,0,0,.3.3.3Z"/>
                <path id="SvgjsPath12768" class="cls-15" d="M394.5,287.4c-4.5-11.4-20.4-19.2-32.1-19.8-12.3-.6-24.9,4.8-31.2,15.6-.3,0-.9.6-.6.9,0,.3-.3.3-.3.6-.3.6.6,1.2.9.6,0,0,0-.3.3-.3,15,15,44.7,17.1,60,1.2.6.6,1.2,1.2,2.1,1.8.3.6,1.2.3.9-.6ZM360.6,295.2c-10.8-.3-20.1-5.1-28.5-11.1,6.6-10.8,19.2-16.5,31.8-14.4,5.4.9,10.8,3,15.6,6,4.5,2.7,7.5,6.6,11.1,9.9-9.9,5.7-18.3,9.9-30,9.6Z"/>
              </g>
            </g>
          </g>
          <g id="svga-group-eyebrows-left-move">
            <g id="svga-group-eyebrows-left-rotate">
              <g id="svga-group-eyebrows-left">
                <path id="SvgjsPath12247" class="cls-13" d="M201,247.5c.3-.9.9-1.8,1.5-2.4.3-.6.9-1.5,1.5-2.1s1.2-1.2,2.1-1.8c1.5-2.7,5.1-4.8,7.5-6.3,2.7-1.5,5.4-2.7,8.7-2.7,3-.6,6.3-.6,8.7.6,1.2,0,2.1.3,3,.9,3.3-.3,6.9.6,9.9,1.2,4.2.9,8.4,1.8,12.3,3.6,4.2,0,8.4.3,12.3,1.5h.6c.3,0,.6.3.6.3h.3c.3,0,.6.3.9.6.3.3,0,.9,0,1.2v.3c0,.6,0,1.2-.3,1.8,0,1.8-.3,3.3-1.5,4.8,0,.3,0,.6-.3.9-.3,1.5-.6,3.3-2.1,4.2-.6.6-1.5.9-2.4.9s-.6,0-.9-.3h-1.8c-1.8.6-4.2,0-5.7-.3-1.8-.3-3.6-.9-5.1-1.8-5.4-.9-10.5-2.4-15.9-3.6-4.8-1.2-12-1.2-16.2-3.9-2.1.3-3.9.6-6,.6s-2.1.3-3.3,0c-.6,0-1.5,0-2.1-.6,0,0-.3,0-.3-.3h-.3l-1.2,1.2c-.9.9-2.1,2.1-3.6,2.4-.3.6-.9,0-.9-.9h0Z"/>
                <path id="SvgjsPath12248" class="cls-9" d="M263.1,249c-.3-1.8-.6-3.6-1.2-5.1,0-.6.6-.9.9-.3,2.1,3,2.7,8.4.6,11.7-.3.6-.9.3-.9-.3.3-2.4.6-4.2.6-6h0ZM252.9,239.4c3.9,2.4,6.3,7.8,6.3,12s-.9.9-.9.3c-.6-2.1-1.2-3.9-2.1-5.7-.9-2.1-2.7-3.6-3.9-5.7-.9-.6,0-1.2.6-.9h0ZM243,237.3c6.6,2.4,11.4,9.6,12.6,15.9,0,.6-.6.6-.9.3-1.2-3-2.7-6-5.1-8.4-2.1-2.7-4.8-4.2-7.5-6.6-.6-.3.3-1.5.9-1.2ZM228.3,234.9c7.2,1.8,14.4,7.8,17.4,14.1.3.6-.9,1.2-1.2.6-2.4-3-4.8-5.7-7.8-8.1-2.7-2.1-6-3.6-9-5.4-.6-.3-.3-1.2.6-1.2h0ZM202.2,246c4.8-5.4,11.4-12.9,19.5-12,.6,0,.6.9,0,.9-7.8.6-12.9,7.5-18.9,11.7-.6.3-1.2-.3-.6-.6h0Z"/>
                <path id="SvgjsPath12249" class="cls-25" d="M272.7,241.8c-.3-.9-1.5-.9-1.8,0-.9,3.3-.9,7.2-3.6,9.9-1.8,2.1-4.5,2.4-7.2,2.1.9-4.5.6-11.1-2.4-14.7-.6-.6-1.5-.3-1.2.6,0,2.4,1.2,4.8,1.5,7.2s.6,4.5.6,6.9c-.3,0-.6,0-.9-.3-.9-6-3.9-12.3-8.4-16.5,6.9,1.5,13.8,2.7,20.7,3.3.3,0,.6-.6.3-.6-7.8-2.7-15.9-4.2-24-6-7.2-1.5-15.3-4.2-22.8-4.5-6.3-.3-10.8,2.7-15,6.6-4.5,4.2-9.3,9.3-12.3,14.7l-.6.6c-.3.3-.6.9-.3,1.2,0,0,0,.3-.3.3-.6,1.2.9,2.1,1.8,1.2.3,0,.6,0,.9-.3,4.2-2.1,7.5-4.2,12.3-4.8,3.9-.6,8.1-.3,12,.3,8.7,1.2,16.8,3.9,24.9,6.3,6.3,1.8,14.7,5.1,20.7.6,5.1-3,5.7-9.3,5.1-14.1ZM232.5,245.7c-1.5-.3-3.3-.6-5.1-.9.3-3.3-.9-6.9-2.4-9.9,2.1,1.8,4.2,3.6,6,5.7,1.8,1.8,2.7,4.2,4.5,6-1.2-.3-2.1-.6-3-.9h0ZM210,238.5c3.6-3.3,7.5-5.1,12-5.7.6,2.4,1.8,4.8,2.1,7.2l.9,4.5c-.9,0-2.1-.3-3-.3-1.5-2.7-3.9-5.4-6.9-6.3-.6-.3-.9.6-.6,1.2,1.2,1.2,2.7,2.4,3.9,3.6.3.6.6.9,1.2,1.5-5.7-.3-11.4.3-16.2,2.4,1.8-3,3.9-5.7,6.6-8.1h0ZM255.6,252.9c-.6-.3-1.2-.3-1.8-.6-1.2-.3-2.7-.9-3.9-1.2-2.4-5.4-6.3-10.8-11.1-14.4-.6-.3-1.2.3-.9.6,3.6,4.2,6.6,8.7,9.9,13.2-3.3-1.2-6.6-2.1-9.6-3.3-.6-3.3-3.6-6.6-5.7-9-2.1-2.1-4.5-4.2-7.2-5.7,1.2,0,2.4.3,3.9.3,6,.9,12,2.4,18,3.6v.3c2.1,3.3,4.5,6.6,6.3,9.9.6,2.1,1.2,4.2,2.1,6.3h0Z"/>
              </g>
            </g>
          </g>
          <g id="svga-group-eyebrows-right-move">
            <g id="svga-group-eyebrows-right-rotate">
              <g id="svga-group-eyebrows-right">
                <path id="SvgjsPath12250" class="cls-13" d="M399,247.5c-.3-.9-.9-1.8-1.5-2.4-.3-.6-.9-1.5-1.5-2.1s-1.2-1.2-2.1-1.8c-1.5-2.7-5.1-4.8-7.5-6.3-2.7-1.5-5.4-2.7-8.7-2.7-3-.6-6.3-.6-8.7.6-1.2,0-2.1.3-3,.9-3.3-.3-6.9.6-9.9,1.2-4.2.9-8.4,1.8-12.3,3.6-4.2,0-8.4.3-12.3,1.5h-.6c-.3,0-.6.3-.6.3h-.3c-.3,0-.6.3-.9.6-.3.3,0,.9,0,1.2v.3c0,.6,0,1.2.3,1.8,0,1.8.3,3.3,1.5,4.8,0,.3,0,.6.3.9.3,1.5.6,3.3,2.1,4.2.6.6,1.5.9,2.4.9s.6,0,.9-.3h1.8c1.8.6,4.2,0,5.7-.3,1.8-.3,3.6-.9,5.1-1.8,5.4-.9,10.5-2.4,15.9-3.6,4.8-1.2,12-1.2,16.2-3.9,2.1.3,4.2.6,6,.6s2.1.3,3.3,0c.6,0,1.5,0,2.1-.6,0,0,.3,0,.3-.3h.3l1.2,1.2c.9.9,2.1,2.1,3.6,2.4.3.6.9,0,.9-.9h0Z"/>
                <path id="SvgjsPath12251" class="cls-9" d="M336.9,249c.3-1.8.6-3.6,1.2-5.1,0-.6-.6-.9-.9-.3-2.1,3-2.7,8.4-.6,11.7.3.6.9.3.9-.3-.3-2.4-.6-4.2-.6-6h0ZM347.1,239.4c-3.9,2.4-6.3,7.8-6.3,12s.9.9.9.3c.6-2.1,1.2-3.9,2.1-5.7.9-2.1,2.7-3.6,3.9-5.7.9-.6,0-1.2-.6-.9h0ZM357,237.3c-6.6,2.4-11.4,9.6-12.6,15.9,0,.6.6.6.9.3,1.2-3,2.7-6,5.1-8.4,2.1-2.7,4.8-4.2,7.5-6.6.6-.3-.3-1.5-.9-1.2ZM371.7,234.9c-7.2,1.8-14.4,7.8-17.4,14.1-.3.6.9,1.2,1.2.6,2.4-3,4.8-5.7,7.8-8.1,2.7-2.1,6-3.6,9-5.4.6-.3.3-1.2-.6-1.2h0ZM397.8,246c-4.8-5.4-11.4-12.9-19.5-12-.6,0-.6.9,0,.9,7.8.6,12.9,7.5,18.9,11.7.6.3,1.2-.3.6-.6h0Z"/>
                <path id="SvgjsPath12252" class="cls-25" d="M331.8,255.9c6,4.5,14.4,1.2,20.7-.6,8.4-2.4,16.5-5.4,24.9-6.3,3.9-.6,8.1-.9,12-.3,4.8.6,8.1,2.7,12.3,4.8.3.3.6.3.9.3.9.9,2.4,0,1.8-1.2,0,0,0-.3-.3-.3,0-.3,0-.9-.3-1.2l-.6-.6c-3-5.4-7.8-10.5-12.3-14.7-4.2-3.9-8.7-6.9-15-6.6-7.5.3-15.6,3-22.8,4.5-8.1,1.8-16.2,3.3-24,6-.6.3-.3.6.3.6,6.9-.6,13.8-1.8,20.7-3.3-4.5,4.2-7.5,10.5-8.4,16.5-.3,0-.6,0-.9.3.3-2.4.3-4.5.6-6.9s1.5-4.8,1.5-7.2-.9-.9-1.2-.6c-3,3.6-3.3,10.2-2.4,14.7-2.7.3-5.1,0-7.2-2.1-2.4-2.7-2.7-6.6-3.6-10.2-.3-.9-1.5-.9-1.8,0,0,5.1.6,11.4,5.1,14.4h0ZM364.5,246.3c1.5-1.8,2.7-4.2,4.5-6,1.8-2.1,3.9-3.9,6-5.7-1.5,3-2.7,6.9-2.4,9.9-1.8.3-3.6.6-5.1.9-.9.6-1.8.9-3,.9h0ZM396.9,246.3c-4.8-2.1-10.8-2.7-16.2-2.4.3-.6.6-.9,1.2-1.5,1.2-1.5,2.7-2.4,3.9-3.6.3-.3.3-1.2-.6-1.2-3,.9-5.4,3.6-6.9,6.3-.9,0-2.1.3-3,.3l.9-4.5c.6-2.4,1.5-4.8,2.1-7.2,4.2.6,8.1,2.4,12,5.7,2.4,2.7,4.5,5.4,6.6,8.1h0ZM346.8,246.9c1.8-3.6,4.2-6.6,6.3-9.9v-.3c6-1.2,12-2.7,18-3.6,1.2-.3,2.7-.3,3.9-.3-2.7,1.5-5.1,3.6-7.2,5.7-2.1,2.4-5.1,5.7-5.7,9-3.3.9-6.6,2.1-9.6,3.3,3-4.5,6.3-8.7,9.9-13.2.3-.6-.3-.9-.9-.6-4.8,3.6-8.7,9-11.1,14.4-1.2.3-2.7.9-3.9,1.2-.6.3-1.2.3-1.8.6.6-2.4,1.2-4.5,2.1-6.3h0Z"/>
              </g>
            </g>
          </g>
          <g id="svga-group-nose-single-move">
            <g id="svga-group-nose-single">
              <path id="SvgjsPath12462" class="cls-17" d="M315.9,321.3c2.1,1.8,10,11.3,11.4,13.7s2,5.9-.1,8-9.2,3.1-11.6,2.8c0,0-7,6.8-10.6,7.7s-9.8.8-16-3.1-7-5.2-7-5.2c0,0-8.1-.8-9.4-1.6-1.3-.8-2.8-2.1-2-5,.9-3,6.8-13.5,9.6-16,2.8-2.5,12.8-6.1,18.3-6.3,5.5-.2,10-1.3,17.3,5h0Z"/>
              <path id="SvgjsPath12463" class="cls-26" d="M321.6,342.2c-7.4.3-10.9,9.5-18.4,10.5-10.6,1.5-17.5-6.7-25.2-12.5-.3-.2-.7.2-.5.5,1,1.3,2.1,2.6,3.3,3.9-1.7-1.1-2.9-1.1-4.9-1.2-2.4-.2-4.2-1.2-4.5-3.9-.2-1,1.8-4.5,2.4-5.6,2.7-5.4,6.6-9.6,10.2-14.3.3-.3-.3-.9-.6-.6-.5.4-1.1.9-1.6,1.3,2.5-5,4.8-10.1,6.6-15.2.2-.4-.5-.7-.7-.3-3.1,5.5-5.6,11.5-8,17.5-4.3,4.5-8.1,10.6-9.9,16-2.4,7.6,5.7,6.5,10.5,7.4.6.1.9-.5.5-.9,5,5.2,11.5,9.5,18.7,10.1,9.9.8,14.5-7.3,22.3-11.8.5-.3.3-1-.3-1h0Z"/>
              <path id="SvgjsPath12464" class="cls-26" d="M329.4,338c-.7-3.3-3.6-6.5-5.5-9-2.4-3.1-4.9-6.1-8-8.5-.6-.5-1.1.5-.8,1,2.9,3.8,6.3,7.1,9.2,11,1.9,2.6,5.2,6.3,2.3,9.9-1.7,2.1-5.5,2.5-8,3.1-.3,0-.2.5,0,.5,4.8.4,11.9-1.7,10.7-8Z"/>
              <path id="SvgjsPath12465" class="cls-26" d="M290.3,318.6c7-2,13.5-1.8,20.7-1.3.5,0,.5-.7.1-.9-6.8-2.5-14.6-1.3-21.1,1.4-.4.2-.1.8.3.7h0Z"/>
              <path id="SvgjsPath12466" class="cls-8" d="M312.2,323.4c-3.6-5-12-.2-8.3,4.9,4.6,6.4-1,11.4-7.6,11.9-1.9.2-2.8,2.2-1.5,3.7,4.5,5.2,12.3,3.8,16.7-1,4.9-5.4,4.9-13.7.7-19.5Z"/>
            </g>
          </g>
          <g id="svga-group-hair-front">
            <path id="SvgjsPath12502" class="cls-21" d="M183.9,293.7s2.7-63.9,4.5-76.2c1.5-12.6,7.5-46.8,19.2-56.1s21.3-18,50.7-12,34.2,12,55.5,7.2,33.9-9.3,33.9-9.3c0,0,16.8,3.3,27.9,6,10.8,2.7,19.5,13.5,27.3,32.7,7.5,19.2,16.8,56.7,14.7,83.4-2.1,26.7,2.7,22.8,2.7,22.8l9.9-21.9s9.3-17.4,4.8-31.5c0,0,2.1-12.6,1.8-19.2s-5.4-15.9-5.4-15.9c0,0,2.1-20.7,0-27.9s-3.9-9.9-3.9-9.9c0,0,1.8-12.6-3.9-21.9s-16.2-18-16.2-18c0,0-14.1-36-26.7-42s-18-15.3-33.9-18-34.8,1.5-34.8,1.5c0,0-7.5-6-24.6-.6,0,0-12-4.8-31.2,2.7s-26.1,19.2-26.1,19.2c0,0-19.2,6.6-24.6,15.9,0,0-24.6,12-31.2,32.7s-2.7,32.1-2.7,32.1c0,0-7.5,17.4-2.1,34.5,0,0-9.3,9.9-2.7,33.9,0,0-5.4,11.4,1.5,28.2,6.9,17.1,6.3,27,15.6,27.6h0Z"/>
            <path id="SvgjsPath12503" class="cls-23" d="M433.2,201.9c2.1-12.6.6-26.1-3.9-36.6,0-.3-.3-.6-.6-.6.3-3.9.3-7.8-.6-12-2.4-12.3-10.8-20.1-20.1-27.9-.3,0-.3-.3-.3-.3-3.9-13.2-10.8-25.8-19.8-35.7-18.9-21.3-52.5-35.1-78.6-18-.6.6-.3,1.8.6,1.5,29.7-12,59.7-.6,78.6,24.6,15.6,20.7,18.6,43.8,16.8,69-.3,1.8,2.7,2.1,3.3.6,3.3-11.7,3.3-24.3.3-36.3,4.5,5.1,9.9,9.6,12.9,15.6,8.1,16.2.3,34.5-9.3,48-1.2,1.5,1.5,3,2.4,1.5,5.7-7.8,10.5-16.5,12.6-25.8,1.8,10.2,3,19.8,1.2,30.3-1.8,10.2-6.6,18.9-10.8,28.5-.6,1.2.9,2.7,2.1,1.5,5.4-5.7,9-13.2,11.4-21.6,1.2,6,2.1,11.7,1.2,18-.6,6.6-3.6,12.3-4.5,18.6,0,.9,1.2,1.5,1.8.9,1.2-1.2,2.4-2.7,3.3-4.5,0,10.2-2.1,19.2-5.7,28.8-1.5,3.9-5.1,14.4-9,19.8,2.1-31.2-.9-66-10.5-95.4-5.1-15.6-14.1-32.7-28.5-40.5,1.8,0,3.9-.3,5.7-.6,1.5-.3,1.5-2.7,0-3-17.7-3.3-34.8-5.4-50.4-15.6-20.4-13.5-34.2-38.4-27.9-63,.3-1.5-1.8-2.1-2.4-.6-11.7,29.4,9.9,60,37.8,74.4-6.3,2.1-12.9,3.9-19.2,5.4-25.5,0-52.8-7.8-60.3-35.7-8.4-30.6,19.2-54,48.3-47.7,1.2.3,1.8-1.5.6-1.8-9-3.6-17.7-3.6-25.8-.9-19.2-2.4-39.3,3-52.8,17.1h-.6c-10.8,6.3-21.6,12.6-29.4,21.6-22.8,9.9-42.9,41.1-35.1,65.4-3.3,9.9-4.2,21.6-2.4,32.7-4.5,9-6.3,24.3-2.4,35.4-4.2,13.2,1.5,27.9,6.6,40.2,3.6,8.4,3,15.6,12,19.2.6.3,1.2.3,1.5-.3,1.2-.3,2.1-.9,2.4-2.4.3-34.2,2.4-68.4,10.8-101.4,3.6-14.4,8.4-30.9,22.2-38.4,15.6-8.7,36-3.6,52.2.6h.3c24,10.5,54.6,6.9,76.8-6.3,7.5,3,15.3,5.1,22.8,5.7,23.7,8.7,32.7,38.7,36.6,61.8,4.8,26.4,7.2,52.2,5.4,78.9-.3,2.4,2.7,2.7,3.9,1.5,7.8-3.9,7.5-10.8,10.8-18.9,5.4-12.3,10.5-27.3,6.6-40.2,5.4-10.8,3.6-26.1-.9-35.1h0ZM198.6,171c-15.9,36.3-16.8,81-17.1,120-4.2-4.8-8.1-16.5-9.9-21-3.6-9.6-6-18.6-5.7-28.8.9,1.8,2.1,3.3,3.3,4.5.6.6,2.1.3,1.8-.9-.9-6.3-3.9-12.3-4.5-18.6s0-12,1.5-18c2.1,8.1,6,15.9,11.4,21.6,1.2,1.2,2.7-.3,2.1-1.5-4.2-9.6-9-18-10.8-28.5-1.5-8.7-.9-17.1.3-25.8,2.1,3.9,5.1,7.8,9,11.1,1.2.9,3.3-.3,2.4-1.8-19.2-27-6.9-57,17.7-74.1-1.8,3-3.3,6.6-4.2,10.2-3.3,12.6,2.1,28.5,15,33.3,1.2.6,2.1-1.2,1.2-2.1-12.9-13.2-17.4-28.8-4.8-45,.6-.6.9-1.2,1.5-1.5.3,0,.3-.3.6-.3.3-.3.6-.6.6-.9,5.1-5.1,11.7-8.4,17.7-12.6-10.5,17.4-8.4,40.2,8.7,52.2.9.6,2.1-.9,1.2-1.5-15-15-16.8-36.3-3.6-53.1,4.5-5.7,9.9-9.9,15.6-12.9-16.2,15.6-14.4,45.9-.6,62.7,3.3,4.2,6.9,7.5,11.1,10.5-24-6.6-50.1-3-61.5,22.8h0ZM261.6,142.5c-24.3-18.3-26.1-54.3-.9-72,6.6-1.8,13.5-3,20.4-3.3-15.3,7.5-26.1,24.6-24.3,42.9,2.7,24.6,22.8,40.5,45.3,44.7-13.8.6-27.6-2.4-40.5-12.3Z"/>
            <path id="SvgjsPath12504" class="cls-6" d="M383.7,140.4c-16.5,0-30.9-7.2-41.7-19.2-10.2-11.1-26.4-31.2-19.5-47.4.6-1.2-.9-2.1-1.5-.9-8.4,15.6,4.5,33,14.1,45,12,15,28.8,26.4,48.6,24.3,1.2,0,1.2-1.8,0-1.8h0ZM315,133.2c-14.7-14.4-30.6-31.8-21-54.3.6-1.2-.9-2.1-1.5-.9-11.4,21.9,3.9,43.8,21.6,56.4.6.6,1.5-.6.9-1.2ZM313.8,139.5c-18.9-12.6-37.2-27.6-36.9-52.2,0-.9-1.5-.9-1.5,0-1.2,24.6,16.5,43.8,37.8,53.4.6,0,1.2-.6.6-1.2h0ZM319.8,141.9c-17.4-.9-32.4-6.9-43.8-20.4-.6-.6-1.8.3-1.2,1.2,10.8,13.2,27.6,21.9,44.7,21,1.2-.3,1.2-1.5.3-1.8h0ZM267.6,135.6c-15.6-15.6-23.4-37.5-6.6-55.8.9-1.2-.6-2.7-1.5-1.5-18.6,16.8-12.9,46.2,6.6,60,1.2.6,2.7-1.5,1.5-2.7h0ZM241.8,132c-9-12-11.7-26.7-5.4-40.5.6-.9-.9-1.8-1.5-.9-7.2,13.8-5.7,31.2,5.7,42.3.6.6,1.5,0,1.2-.9h0ZM215.7,107.1c.3-.9-.9-1.2-1.2-.3-2.1,7.8-2.4,16.8,1.2,24,.3.9,1.8.3,1.5-.6-2.1-7.8-3.3-15-1.5-23.1ZM215.7,137.7c-2.4-3-4.8-5.7-6.3-9.3-.3-.6-1.2,0-.9.3,1.5,3.6,3.6,7.2,6.9,9.6,0,.3.6-.3.3-.6ZM191.4,159c-6.3-11.7-7.2-22.2-3.6-34.8.3-1.2-1.5-1.8-1.8-.6-3.9,11.4-5.7,27.3,3.9,36.6.6,1.2,2.1,0,1.5-1.2ZM185.4,169.8c-4.5-7.5-7.2-14.4-6.6-23.1,0-.6-.9-.6-1.2,0-.9,8.4.6,17.7,6.6,24,.9.6,1.8,0,1.2-.9ZM178.8,215.1c-3.6-9.9-6-19.2-5.1-30.3,0-.6-.9-.9-1.2,0-1.5,10.5-.9,21.9,4.5,31.2.6.6,2.1,0,1.8-.9h0ZM168,223.2c-.3-.6-.9,0-.9.3,1.2,3.3,2.1,6.6,3.9,9.6.3.6,1.2.3.9-.3-.6-3.3-2.4-6.6-3.9-9.6ZM419.4,156c-.6-4.5-.9-13.5-6.6-13.8-.9,0-1.2,1.2-.3,1.5,4.8,2.4,4.5,15.6,4.5,19.8-.3,6.3-1.8,12-3.9,17.7-.3.9,1.2,1.5,1.8.6,3.9-7.8,5.4-16.8,4.5-25.8ZM426.3,185.1c-.3-1.2-1.8-.6-1.8.6,1.8,9.3-.9,17.4-5.7,25.2-.6.9.6,1.8,1.5,1.2,6.6-7.2,8.4-18,6-27h0ZM429.9,220.2c0-.9-1.5-.9-1.5,0,.6,5.4-.3,10.5-1.5,15.6,0,.6.6.9.9.3,2.4-4.8,2.7-10.5,2.1-15.9h0ZM361.8,79.8c-.9-.3-1.2.9-.3,1.2,21.6,9,34.2,40.5,40.8,60.9.3.9,1.5.6,1.2-.3-5.1-21.6-19.5-53.4-41.7-61.8h0Z"/>
          </g>
        </g>
      </g>
    </g>
    <rect id="svga-credit-rect" class="cls-5" y="555" width="600" height="45"/>
    <g id="svga-credit-text" class="cls-28">
      <text class="cls-27" transform="translate(100.2 586.8)"><tspan x="0" y="0">Created on AvatarMaker.com</tspan></text>
    </g>
  </g>
</svg>