<?xml version="1.0" encoding="UTF-8"?>
<svg id="Layer_1" data-name="Layer 1" xmlns="http://www.w3.org/2000/svg" version="1.1" viewBox="0 0 600 600">
  <defs>
    <style>
      .cls-1 {
        fill: #4a423a;
      }

      .cls-1, .cls-2, .cls-3, .cls-4, .cls-5, .cls-6, .cls-7, .cls-8, .cls-9, .cls-10, .cls-11, .cls-12, .cls-13, .cls-14, .cls-15, .cls-16, .cls-17, .cls-18, .cls-19, .cls-20, .cls-21, .cls-22, .cls-23, .cls-24, .cls-25, .cls-26, .cls-27 {
        stroke-width: 0px;
      }

      .cls-2 {
        opacity: .6;
      }

      .cls-2, .cls-4, .cls-28, .cls-29 {
        isolation: isolate;
      }

      .cls-2, .cls-23 {
        fill: #b7765e;
      }

      .cls-3 {
        fill: #f5f7ff;
      }

      .cls-4 {
        fill: #ecf0f1;
        opacity: .5;
      }

      .cls-4, .cls-29 {
        display: none;
      }

      .cls-5 {
        fill: #deb7a9;
      }

      .cls-6 {
        fill: #18120d;
      }

      .cls-7 {
        fill: #1a0f00;
      }

      .cls-8 {
        fill: #1f1913;
      }

      .cls-28 {
        fill: #333;
        font-family: AvenirNext-Regular, 'Avenir Next';
        font-size: 30px;
      }

      .cls-9 {
        fill: #362f2a;
      }

      .cls-10 {
        fill: #565f61;
      }

      .cls-11 {
        fill: #d26d79;
      }

      .cls-12 {
        fill: #d6a998;
      }

      .cls-13 {
        fill: #54473c;
      }

      .cls-14 {
        fill: #2c2219;
      }

      .cls-15 {
        fill: #c78e79;
      }

      .cls-16 {
        fill: #000;
      }

      .cls-17 {
        fill: #27201a;
      }

      .cls-18 {
        fill: #3b3128;
      }

      .cls-19 {
        fill: #2e3f42;
      }

      .cls-20 {
        fill: #291800;
      }

      .cls-21 {
        fill: #482a02;
      }

      .cls-22 {
        fill: #cb5f6c;
      }

      .cls-24 {
        fill: #da7c87;
      }

      .cls-25 {
        fill: #45362a;
      }

      .cls-26 {
        fill: #a86045;
      }

      .cls-27 {
        fill: #fff;
      }
    </style>
  </defs>
  <g id="svga-group-wrapper">
    <g id="svga-group-backs-single">
      <path id="SvgjsPath8162" class="cls-3" d="M0,0h600v600H0V0Z"/>
    </g>
    <g id="svga-group-humanwrap-move">
      <g id="svga-group-humanwrap">
        <g id="svga-group-humanbody-back">
          <path id="SvgjsPath3473" class="cls-12" d="M499.5,543.3c-32.7-19.8-82.8-25.2-105-36.3-14.7-7.5-27.3-14.1-26.7-53.4s5.7-127.2,5.7-127.2h-147.3s4.8,88.2,5.7,127.2-12.6,46.8-26.7,53.4c-22.2,10.5-72.3,16.2-105,36.3-32.4,19.8-30,56.7-30,56.7v59.1h459.9v-59.1c-.3,0,2.1-36.9-30.6-56.7h0Z"/>
        </g>
        <g id="svga-group-chinshadow-single">
          <path id="SvgjsPath3861" class="cls-2" d="M231.6,465.6c15.3,8.4,23.1,12.6,28.8,19.5,7.8,9.6,30.9,13.2,39.6,13.2s32.1-3.6,39.6-13.2c5.7-6.9,13.5-11.1,28.5-19.2-.3-3.6-.3-7.8-.3-12.3.6-39.3,5.7-127.2,5.7-127.2h-147.3s4.8,88.2,5.7,127.2c0,4.5,0,8.4-.3,12h0Z"/>
        </g>
        <g id="svga-group-humanbody-front">
          <path id="SvgjsPath3474" class="cls-23" d="M236.1,470.4c1.5,14.4,5.1,28.2,9.3,41.7,2.4,6.9,4.8,13.8,7.8,20.7,2.4,6,5.1,12.6,9.3,17.7.9,1.2,3,0,2.7-1.5-1.5-6.6-4.8-12.9-7.2-19.2-2.7-6.6-5.1-13.2-7.5-19.8-4.5-13.2-8.4-26.7-12.3-39.9-.6-1.2-2.4-.9-2.1.3h0ZM360,467.4c-3.9,24.6-11.7,48.3-16.2,72.6-.3,1.2,1.2,1.5,1.8.6,9.3-23.1,12.3-48.3,15.3-72.9-.3-.6-.9-.6-.9-.3h0ZM282.6,503.1c-2.7,10.8,5.7,25.8,18.6,22.8,1.5-.3,1.2-2.4,0-3-4.2-1.5-8.7-2.7-11.7-6.3-3.3-3.6-4.5-8.7-4.2-13.5,0-1.2-2.4-1.5-2.7,0h0Z"/>
          <path id="SvgjsPath3475" class="cls-26" d="M531.9,659.1c-.3-19.8-.9-39.3-.9-59.1l-.9-.9q.3,0,.6.3c.3.3.3.6.3.3v-4.2c0-1.5-.3-2.7-.3-4.2-.3-2.7-.9-5.7-1.5-8.4-1.5-5.4-3.3-10.8-6-15.9-5.1-10.2-13.2-18.6-23.1-24.3-10.8-6.6-22.8-11.4-34.8-15.3s-24.3-7.2-36.3-10.5c-12-3.6-24.3-6.6-35.4-12.6-5.7-3-10.8-6.3-14.4-10.8-3.6-4.8-5.7-10.5-6.9-16.5-2.4-12-1.2-24.6-.9-37.2l2.1-37.8,4.5-75.6.3-4.2h-4.2c-24.6,0-49.2,0-73.8.3l-73.8.9h-2.7l.3,2.7c2.4,35.7,4.8,71.4,6.3,107.1.3,9,.9,18,.6,26.7-.3,8.7-1.2,17.7-4.8,25.8-1.8,3.9-4.2,7.5-7.2,10.5s-6.9,5.4-10.8,7.2c-7.8,3.9-16.2,6.6-24.9,9-17.4,4.5-34.8,8.4-51.9,14.1-8.4,2.7-17.1,6-25.2,10.2-3.9,2.1-8.1,4.2-12,7.2-3.9,2.7-7.2,5.7-10.5,9.3-6.3,6.9-10.8,15.6-13.5,24.3-1.5,4.5-2.4,9-3,13.8s-.3,4.8-.3,7.2v6.9l-.6,53.7v3.9h4.2l114.9.6c38.4.3,76.5.3,114.9,0s76.8-.3,114.9-.9c38.4-.6,76.8-1.5,114.9-2.1h1.8v-1.5h0ZM300.3,654.3h-114.9l-111,.6-.3-49.8v-6.6c0-2.1,0-4.2.3-6.3.3-4.2,1.2-8.4,2.4-12.6,2.4-8.1,6.3-15.9,11.7-22.5,2.7-3.3,6-6.3,9.3-8.7,3.3-2.7,7.2-4.8,11.1-6.9,7.8-4.2,15.9-7.5,24.3-10.5,16.8-6,34.2-10.2,51.3-15.3,8.7-2.4,17.4-5.1,25.5-9.3,3.9-2.1,8.1-4.5,11.4-7.8,3.3-3.3,6-7.2,7.8-11.7,3.6-8.7,4.5-17.7,4.8-26.7,0-9-.3-18-.6-27l-3.9-104.4,70.5,1.2c23.1.3,46.2.3,69.3.3-1.2,23.7-2.4,47.7-3.3,71.4-.6,12.6-.6,25.2-.9,37.8,0,12.6-.6,25.5,2.4,38.4,1.5,6.3,3.9,12.6,8.4,18,4.2,5.1,10.2,8.7,15.9,11.4,11.7,5.7,24,8.4,36.3,11.4s24.6,6,36.6,9.9,23.7,8.4,34.5,15c9.6,5.7,17.4,14.1,22.5,24,2.7,4.8,4.5,10.2,5.7,15.6.6,2.7,1.2,5.4,1.2,8.1.3,1.5.3,2.7.3,4.2v4.5l-.9,57c-37.8-.6-75.3-1.5-113.1-2.1-38.1-.3-76.5-.3-114.6-.6h0Z"/>
        </g>
        <g id="svga-group-clothes-single">
          <path id="SvgjsPath8027" class="cls-10" d="M540.9,660.3c0-52.5-4.8-86.1-4.8-86.1-9.6-45.6-67.5-48.3-93.3-55.5-8.4-2.4-41.7-13.5-41.7-13.5-12-25.8-27.3-40.2-27.3-40.2,0,0,3.3,49.8-14.4,62.1-8.4,5.7-26.7,9.3-33.6,15-7.2,6-17.7,30.6-17.7,30.6,0,0-25.5-37.5-32.1-36.9-14.1,1.5-24,0-27.6-1.2-20.1-6-20.1-70.2-20.1-70.2,0,0-19.5,13.8-28.2,37.2-9.6,4.2-33,9.6-45,14.1-24.9,9.3-82.5,16.8-91.5,58.8,0,0-4.8,33.6-4.8,86.1l482.1-.3Z"/>
          <path id="SvgjsPath8028" class="cls-19" d="M541.8,630.3c0-9.9-.3-20.1-.9-30-.3-5.1-.6-9.9-.9-15l-.6-7.5-.3-3.9c-.3-1.2-.6-2.7-.9-3.9-2.7-10.2-8.4-19.5-16.2-26.7-7.8-6.9-17.1-12-26.7-15.3-9.6-3.6-19.5-6-29.4-8.1,0,0-52.5-13.2-60.9-17.7-3.3-7.2-7.2-14.1-11.7-20.7-2.4-3.6-4.8-6.9-7.5-10.2-2.7-3.3-5.1-5.7-8.4-8.7-.6-.6-3-2.1-3.9-2.1-2.1-.3-3,1.8-3.3,3.9v.3c-1.2,11.4-1.8,42.6-3.9,47.7-2.4,5.1-5.4,9.6-9.6,12-4.5,2.7-10.2,4.5-15.6,6.6-2.7.9-5.7,2.1-8.4,3.3-3,1.2-5.7,2.7-8.7,4.8-3,2.7-4.5,5.1-6.3,7.8-1.8,2.7-3.3,5.4-4.5,7.8l-5.4,10.8c-6.6-9-13.2-18-21-26.1-1.2-1.2-2.4-2.4-3.9-3.6-.6-.6-1.5-1.2-2.4-1.8-.9-.6-1.8-1.2-3.6-1.2h-1.8l-1.2.3-2.4.3c-1.5.3-3.3.3-4.8.3-3.3,0-6.3,0-9.6-.3-3-.3-6.6-.6-9-1.5s-4.8-3-6.6-5.4-3.6-5.1-5.1-7.8c-3-5.7-4.8-41.7-6.9-54.6,0-.3-.3-.3-.3-.6-.6-.6-1.5-.6-2.1-.3-3.3,2.4-6.3,5.1-9,8.1s-5.4,6-7.8,9c-2.4,3.3-4.5,6.6-6.6,9.9s-3.6,6.6-5.1,10.2c-11.4,5.1-32.4,9-44.1,13.2-12,4.2-24.3,6.9-36.6,10.8s-24.6,8.7-35.4,16.5-10.2,8.7-14.4,14.1c-3.9,5.4-6.9,12-8.4,18.6v.3c-.9,7.2-1.8,14.4-2.4,21.6-.6,7.2-1.2,14.4-1.5,21.6s-.9,14.4-.9,21.6c-.3,7.2-.3,14.4-.3,21.6s1.8,4.2,4.2,4.2l121.5.6c40.5,0,81-.3,121.2-.6l120.6-1.5,59.7-.9,59.4-1.2c.6-10.5.6-20.7.6-30.6h0ZM360.6,531c3-1.8,5.7-4.5,7.5-7.2,2.1-2.7,3.6-5.4,5.1-8.4,2.7-5.7,2.7-32.4,3.9-41.7.6.9,1.2,1.5,2.1,2.4,2.4,3,8.1,9,10.2,12.3,10.5,16.5,16.5,37.8,17.1,42,0,0,8.1,38.1,9.3,51.3-5.1-2.4-10.2-5.4-14.7-8.4-6.3-4.2-12.3-8.7-18.3-13.2-6-4.8-11.7-9.3-17.4-14.7-2.7-2.7-5.4-5.4-8.7-7.5-2.1-1.2-4.5-2.4-7.2-2.7,3.6-.6,7.5-2.1,11.1-4.2h0ZM294.3,588.3c-1.8-5.1-3.9-9.9-6.6-14.7-2.4-4.5-5.1-9-8.4-12.9,1.2,0,2.4.3,3.6.3,2.7.3,5.7.3,8.4.6h5.1c3,4.2,5.7,8.1,8.4,12.3-3.6,4.2-6.9,8.7-10.2,13.2q0,.6-.3,1.2ZM266.7,538.8c1.8,0,3.3,0,5.1-.3l2.4-.3h1.8s.6.3.9.6c.6.3,1.2.9,1.5,1.2,1.2.9,2.1,2.1,3.3,3.3,4.8,5.4,9.6,11.4,13.8,17.4-4.2-.6-8.4-1.5-12.9-2.1-5.4-.9-11.1-1.8-16.5-3s-10.8-2.4-16.2-3.9c-5.1-1.5-10.2-2.7-15-4.5l.3-.3c2.4-3,5.1-5.7,8.1-7.8,1.5-.9,3-1.8,4.5-2.4,3,.9,5.4,1.2,8.4,1.5,3.9.6,7.2.6,10.5.6h0ZM201.6,501.9c1.5-3.6,3-7.2,4.8-10.5s3.9-6.6,6.3-9.6,4.8-6,7.8-8.7c2.1-2.1,4.5-4.2,6.6-6,.3,18.9,2.4,47.4,5.4,53.7,1.5,3,3.3,6,5.4,8.7,2.1,2.7,4.8,5.4,8.4,6.9.6.3.9.3,1.5.3-1.5.6-3,1.2-4.2,2.1-3.3,1.8-6,4.8-8.7,7.5-5.4,5.1-11.4,9.9-17.4,14.7s-12,9.3-18.3,13.2c-4.8,3-9.9,6-15,8.4,6.6-54.9,17.1-80.4,17.4-80.7ZM178.5,655.5l-115.5.6c0-12.9.3-25.8.6-38.7.3-7.2.6-14.4,1.2-21.3.6-7.2,1.2-14.1,1.8-21.3,1.2-5.7,3.6-11.4,6.9-16.2,3.3-4.8,7.5-9.3,12.6-13.2.9-.6,1.5-1.2,2.4-1.8,4.8,8.7,9.9,17.1,15,25.5,5.4,8.7,10.8,17.4,16.5,26.1,1.5,2.4,2.7,4.2,3.3,6.6.9,2.4,1.5,4.8,1.8,7.2,1.2,4.8,1.8,9.9,2.4,15l1.8,15.3c.6,5.1.9,10.2,1.5,15.3v-15.3l-.9-15.3c-.3-5.1-1.2-10.2-2.1-15.3-.6-2.7-1.2-5.1-1.8-7.8-.6-2.7-2.1-5.1-3.6-7.2-5.7-8.7-11.1-17.4-17.1-25.8-5.4-8.1-11.1-16.2-16.8-24.3,9.3-6.6,20.1-11.1,30.9-15,12-4.2,24.3-7.2,36.6-11.7,11.7-4.8,30.3-7.8,41.7-13.2-5.4,13.2-11.7,32.1-19.8,83.4,0,.6,0,1.2.3,1.8.6,1.5,2.4,2.1,3.9,1.5,7.2-3.6,13.5-7.8,19.8-12.3,6-4.8,12-9.6,17.7-14.7,5.4-5.1,11.1-9.9,15.9-15.6,4.5,2.7,9.6,4.8,14.4,6.6,5.4,1.8,10.8,3.3,16.2,4.5,4.2.9,8.4,1.5,12.3,1.8,1.8,5.1,3.9,9.9,6.6,14.4,2.7,4.8,5.4,9.3,9,13.5-.3.3-.6.9-.6,1.5-.3,1.2-.3,2.1-.6,3.3-.3,2.1-.3,4.2-.3,6.3v12.3c.3,8.1.6,16.2,1.2,24.3l.9,12.3c.3,2.7.6,5.4.9,7.8-39-.6-78-.9-117-.9h0ZM298.2,656.4h-2.1v-20.1l-.6-24.3c0-4.2-.3-8.1-.3-12s0-3.9.3-6,.3-3.6,1.5-5.4c1.8-3.6,4.2-6.9,6.6-10.2l2.4-3.3c.3.3.6.6,1.2.9,1.8.9,3.9,0,4.8-1.8,1.8-3.9,3.9-7.8,5.7-11.7,3.6,0,6.9-.3,10.2-.9,4.2-.6,8.4-1.8,12.6-3-5.4,7.2-10.5,14.7-15.6,22.2-2.7,3.9-5.4,7.8-8.1,12l-2.1,3-.9,1.5c-.3.3-.9,1.5-.9,2.1-.6,2.7-.6,5.1-.9,7.5-.3,9.6.3,19.2.9,28.8.6,7.2,1.2,14.4,2.1,21.3l-16.8-.6h0ZM418.8,657.9l-102.9-1.2-.3-7.2-.3-14.4c-.3-9.6-.6-19.2-.3-28.5,0-2.4.3-4.8.6-6.9.3-.6,0-.6.6-1.2l.9-1.5,1.8-3c2.4-4.2,5.1-8.1,7.5-12.3,4.8-7.8,9.3-15.3,13.8-23.4,4.2-1.2,8.4-2.7,12.3-4.5,3.9-1.8,8.1-3.6,11.7-6l-12.6,3.6c-4.2,1.2-8.4,2.7-12.6,3.9l-12.6,3.6c-3,.9-6.3,1.5-9.3,2.4.6-.9.9-2.1,1.5-3,1.5-2.7,2.7-5.1,4.5-7.5,1.5-2.4,3.3-4.8,4.8-6,1.8-1.2,4.2-2.7,6.9-3.6,2.7-1.2,5.4-2.1,8.1-3,1.8-.6,3.6-1.2,5.4-2.1,2.4.6,5.1,1.8,7.2,3.3,3.3,2.1,5.7,4.8,8.1,7.8,5.1,5.7,10.8,10.8,16.2,15.9,5.7,5.1,11.4,9.9,17.7,14.7,6.3,4.5,12.6,8.7,19.8,12.3.6.3,1.2.3,1.8.3,1.5-.3,2.7-1.8,2.4-3.3-2.4-15-11.7-66.3-17.1-78.3,7.8,4.2,78.6,22.5,87.6,25.8,6.3,2.4,12.6,5.1,18.3,8.7-6,8.1-11.7,16.5-17.4,24.9-5.7,8.4-11.4,17.1-17.1,25.8-1.2,2.1-3,4.5-3.6,7.2-.9,2.7-1.5,5.1-1.8,7.8-.9,5.1-1.8,10.2-2.1,15.3l-.9,15.3c0,5.1-.3,10.2,0,15.3.6-5.1.9-10.2,1.5-15.3l1.8-15.3c.6-5.1,1.5-10.2,2.7-15l1.8-7.2c.6-2.4,1.8-4.2,3.3-6.6,5.4-8.7,11.1-17.4,16.5-26.1s10.5-17.4,15.3-26.1c2.4,1.5,4.8,3,6.9,4.8,7.2,6,12.6,14.1,15.3,23.4l.9,3.3.6,3.6.9,7.5,1.5,14.7c.9,9.9,1.8,19.8,2.4,29.7l1.5,29.7-121.5-2.1h0ZM305.4,592.2c2.1,0,3.6,1.5,3.6,3.6s-1.5,3.6-3.6,3.6-3.6-1.5-3.6-3.6,1.5-3.6,3.6-3.6ZM332.7,546.6c2.1,0,3.6,1.5,3.6,3.6s-1.5,3.6-3.6,3.6-3.6-1.5-3.6-3.6,1.8-3.6,3.6-3.6ZM306,648c2.1,0,3.6,1.5,3.6,3.6s-1.5,3.6-3.6,3.6-3.6-1.5-3.6-3.6,1.5-3.6,3.6-3.6Z"/>
        </g>
        <g id="svga-group-head">
          <g id="svga-group-ears-left-move">
            <g id="svga-group-ears-left">
              <path id="SvgjsPath4785" class="cls-12" d="M176.4,275.1s-7.8-14.7-15.9-17.1-13.2,2.1-11.7,19.8,15.6,69.6,31.8,66.6c16.2-3.3,2.7-58.8-4.2-69.3h0Z"/>
              <path id="SvgjsPath4786" class="cls-15" d="M179.4,280.8c.9,2.1,1.8,4.5,2.4,6.6,1.5,4.5,3,9.3,4.2,14.4,1.2,4.8,2.1,10.2,2.7,15.6.3,2.7.6,5.4.6,8.1s0,5.4-.3,8.4c-.3,2.7-.9,5.4-2.1,7.5-.9,2.1-2.4,3.6-3.6,4.5-2.7,1.5-5.7,1.2-8.4-.3-2.7-1.5-5.4-4.5-7.8-8.1s-4.2-7.5-6-12c-1.8-4.2-3.3-9-4.8-13.5s-3-9.3-4.2-14.1-2.4-9.9-3.3-15-1.5-10.8-.9-16.2c.3-2.7.9-5.4,2.1-7.2s2.4-3,3.9-3.6,2.7-.6,4.2-.3,2.7.9,4.2,1.8c2.7,1.8,5.1,4.5,7.5,7.5s4.5,6.6,6.6,10.2c1.2,1.5,2.1,3.6,3,5.7h0ZM169.8,265.8c-2.4-2.7-4.8-4.8-7.5-5.7-2.4-.9-5.1-1.2-7.5-.3-1.2.6-2.1,1.2-3,2.7s-1.5,3.3-1.8,5.4c-.6,4.2-.6,9.6.3,14.4.6,5.1,1.5,9.9,2.7,15,2.4,9.6,5.4,18.9,9.3,26.7,1.8,3.9,3.9,7.5,6,10.5s4.5,5.4,6.9,6.6c1.2.6,2.4.9,3.6.9s2.4-.3,3.6-1.2c.9-.6,2.1-1.8,2.7-3.3s1.2-3.6,1.5-5.7c.6-4.2.3-9.3,0-14.4-.3-5.1-1.2-9.9-2.1-15s-2.1-9.9-3.3-14.7c-1.2-4.8-3-9.3-5.1-12.9-1.8-3-3.9-6.3-6.3-9h0Z"/>
              <path id="SvgjsPath4787" class="cls-23" d="M157.2,268.8c6.9,4.5,13.2,17.1,16.2,29.7v.3c0,.9-.6,1.2-.6.3-1.2-3.6-2.7-3.6-4.5,0-.3,2.4-.3,4.5.3,6.9.6,2.1,1.2,4.2,2.1,6,1.5,3.6,3.6,6.3,5.4,9.3.6.9,0,2.1-.6,1.8-4.2-3.3-10.2-14.1-9-23.4.6-4.5,3-6.9,4.8-5.1-2.4-6.3-5.1-12-8.4-16.5-1.8-2.4-6-8.1-8.1-7.2-3.9,1.8-1.8,14.4-1.5,19.8,0,.9-.6,1.2-.9.3-2.1-9.9-2.4-27,4.8-22.2h0Z"/>
              <path id="SvgjsPath4788" class="cls-23" d="M174,325.8c-7.2-2.7-12.6-14.4-15.6-27-1.8-7.8-5.4-25.8,1.5-25.5.6,0,.9,1.5.3,1.8-6.6,3.3.6,27.6,2.7,33.3,3,7.8,6.6,13.2,11.4,16.2.3.3,0,1.5-.3,1.2Z"/>
            </g>
          </g>
          <g id="svga-group-ears-right-move">
            <g id="svga-group-ears-right">
              <path id="SvgjsPath4789" class="cls-12" d="M423.6,275.1s7.8-14.7,15.9-17.1,13.2,2.1,11.7,19.8-15.6,69.6-31.8,66.6c-16.2-3.3-2.7-58.8,4.2-69.3h0Z"/>
              <path id="SvgjsPath4790" class="cls-15" d="M423.3,275.1c2.1-3.6,4.2-7.2,6.6-10.2s4.8-5.7,7.5-7.5c1.5-.9,2.7-1.5,4.2-1.8s2.7-.3,4.2.3,2.7,1.5,3.9,3.6c1.2,1.8,1.8,4.5,2.1,7.2.6,5.4,0,11.1-.9,16.2-.9,5.1-2.1,10.2-3.3,15-1.2,4.8-2.7,9.6-4.2,14.1s-3,9.3-4.8,13.5-3.9,8.4-6,12c-2.4,3.6-4.8,6.6-7.8,8.1-2.7,1.5-5.7,2.1-8.4.3-1.5-.9-2.7-2.4-3.6-4.5s-1.5-4.8-2.1-7.5c-.3-2.7-.3-5.4-.3-8.4s.3-5.4.6-8.1c.6-5.4,1.5-10.5,2.7-15.6s2.7-9.6,4.2-14.4c.9-2.4,1.5-4.5,2.4-6.6,1.2-2.1,2.1-4.2,3-5.7h0ZM423.6,275.4c-2.1,3.6-3.6,8.1-5.1,12.9-1.2,4.8-2.4,9.6-3.3,14.7-.9,5.1-1.5,9.9-2.1,15-.3,4.8-.6,9.9,0,14.4.3,2.1.9,4.2,1.5,5.7s1.8,2.7,2.7,3.3c.9.9,2.4.9,3.6,1.2,1.2,0,2.4-.3,3.6-.9,2.4-1.2,4.8-3.6,6.9-6.6s4.2-6.6,6-10.5c3.9-7.8,6.9-17.1,9.3-26.7,1.2-4.8,2.1-9.9,2.7-15,.6-4.8.9-10.2.3-14.4-.3-2.1-.9-3.9-1.8-5.4-.9-1.2-1.8-2.1-3-2.7-2.4-.9-5.1-.6-7.5.3-2.4,1.2-5.1,3-7.5,5.7-2.1,2.1-4.2,5.4-6.3,9h0Z"/>
              <path id="SvgjsPath4791" class="cls-23" d="M442.8,268.8c-6.9,4.5-13.2,17.1-16.2,29.7v.3c0,.9.6,1.2.6.3,1.2-3.6,2.7-3.6,4.5,0,.3,2.4.3,4.5-.3,6.9-.6,2.1-1.2,4.2-2.1,6-1.5,3.6-3.6,6.3-5.4,9.3-.6.9,0,2.1.6,1.8,4.2-3.3,10.2-14.1,9-23.4-.6-4.5-3-6.9-4.8-5.1,2.4-6.3,5.1-12,8.4-16.5,1.8-2.4,6-8.1,8.1-7.2,3.9,1.8,1.8,14.4,1.5,19.8,0,.9.6,1.2.9.3,2.1-9.9,2.4-27-4.8-22.2h0Z"/>
              <path id="SvgjsPath4792" class="cls-23" d="M426,325.8c7.2-2.7,12.6-14.4,15.6-27,1.8-7.5,5.4-25.5-1.5-25.5s-.9,1.5-.3,1.8c6.6,3.3-.6,27.6-2.7,33.3-3,7.8-6.6,13.2-11.4,16.2-.3.3,0,1.5.3,1.2Z"/>
            </g>
          </g>
          <g id="svga-group-faceshape-wrap">
            <g id="svga-group-faceshape-single">
              <path id="SvgjsPath3851" class="cls-12" d="M429.6,248.1v-.9c-3.9-91.2-62.1-141.3-129.6-141.3s-125.7,49.8-129.6,141.3v.9c-.3,6-.9,51.6,4.8,92.1,4.2,29.4,8.1,58.8,36.6,76.2s40.8,21.6,48.3,31.2c7.5,9.3,30.6,13.5,39.6,13.5s32.1-3.6,39.6-13.5c7.5-9.3,19.8-14.1,48.3-31.2,28.8-17.4,32.4-46.5,36.6-76.2,6.3-40.5,5.4-86.1,5.4-92.1Z"/>
              <path id="SvgjsPath3852" class="cls-26" d="M424.2,340.2c6.3-40.5,5.4-86.1,5.4-92.1v-.9c-3.9-91.2-62.1-141.3-129.6-141.3s-125.7,49.8-129.6,141.3v.9c-.3,6-.9,51.6,4.8,92.1,4.2,29.4,8.1,58.8,36.6,76.2s40.8,21.6,48.3,31.2c7.5,9.3,30.6,13.5,39.6,13.5s32.1-3.6,39.6-13.5c7.5-9.3,19.8-14.1,48.3-31.2,28.8-17.4,32.4-46.5,36.6-76.2ZM378.6,413.4l-27,15c-4.5,2.7-9.3,5.4-14.1,9.6-1.2.9-2.4,2.1-3.3,3.3l-.9.9-.6.6-.6.6c-1.2.9-2.7,2.1-4.5,3-7.5,3.6-17.4,5.7-26.4,6.3-3.9.3-8.7-.3-13.5-1.2-4.5-.9-9.3-2.1-13.2-3.6-2.1-.9-3.9-1.8-5.7-2.7-.9-.6-1.5-.9-2.1-1.5s-.6-.6-1.8-2.1c-4.2-4.8-9.3-8.1-13.8-11.4-9.3-5.4-18.3-10.2-27-15.3-4.5-2.4-9-5.1-12.6-7.5-3.9-2.7-7.2-5.4-10.2-9-1.5-1.5-3-3.6-4.2-5.4-1.2-2.1-2.7-3.9-3.6-6-2.1-4.2-4.2-8.4-5.7-13.5-3-9.6-4.8-19.2-6.9-29.4-1.8-9.9-3.3-20.4-4.5-30.6-1.2-10.2-2.1-20.4-2.7-30.6s-.9-20.7-.9-30.9.3-10.2.9-15.6c.3-2.4.3-5.1.6-7.5l1.2-7.5c.6-2.4.6-5.1,1.2-7.5l1.8-7.2c.6-2.4,1.2-4.8,2.1-7.2l2.7-7.2c3.6-9.6,8.4-18.6,13.8-27,1.2-2.1,3-3.9,4.5-6,1.5-1.8,3-3.9,4.8-5.7l5.1-5.4,2.7-2.7,3-2.4c15-13.2,33-22.2,51.9-26.4,18.9-4.2,39-4.8,57.9-.6l7.2,1.5c2.4.6,4.5,1.5,6.9,2.1,4.8,1.2,9,3.3,13.5,5.1,2.4.9,4.2,2.1,6.6,3.3,2.1,1.2,4.5,2.1,6.3,3.6l6,4.2c.9.6,2.1,1.2,3,2.1l2.7,2.4c15.3,12.6,28.2,28.8,36.3,47.4,8.1,18.9,12.3,39.3,13.2,60,0,10.2,0,20.7-.6,30.9s-1.2,20.7-2.7,30.9c-1.2,10.2-2.7,20.4-4.8,30.6-2.1,10.2-3.9,20.4-6.9,29.7-3,9.6-7.2,18.3-12.9,25.5-9.3,10.8-20.1,16.5-22.2,18h0Z"/>
            </g>
          </g>
          <g id="svga-group-mouth-single-move">
            <g id="svga-group-mouth-single">
              <path id="SvgjsPath4741" class="cls-11" d="M301.1,394.2c-1.5.2-29.3-7.4-36.3-10.6,0,0,19.5-4,24.6-4.7,2.3-.3,10.7,4.4,10.7,4.4,0,0,8-4.8,10.3-4.7,3.7.1,28.4,2.1,28.4,2.1,0,0-28,12.5-37.8,13.5Z"/>
              <path id="SvgjsPath4742" class="cls-24" d="M265.9,384.5s6.7,14.2,10.8,19.3,13.9,8.3,25.5,8.5,20.8-6.4,23.7-9.5,12.3-21.7,12.3-21.7c0,0-32.3,14.4-37.5,14.1s-24.1-6.9-25.7-7.4-9.1-3.3-9.1-3.3h0Z"/>
              <path id="SvgjsPath4743" class="cls-22" d="M341.5,378.5c-13.6,3.5-24.4,10.3-40.8,14.5-6.6-.6-12.7-2.9-18.8-4.7-6.7-1.9-13.2-4.2-19.7-6.4-.8-.3-1.3.9-.5,1.3,6.2,3.4,12.7,6.1,19.4,8.5,6.3,2.2,13.2,4.9,19.9,5.2,1.6-.2,3.3-.9,3.8-1.1,13.4-4.3,25-9.1,37.5-15.7.8-.5.2-1.8-.7-1.6h0Z"/>
            </g>
          </g>
          <g id="svga-group-eyes-left-move">
            <g id="svga-group-eyes-left">
              <g id="svga-group-eyesback-left">
                <path id="SvgjsPath5460" class="cls-27" d="M269,288.9s-2.6,2.3-9.4,3.1-24.8,3.1-37.9-.6c-13.1-3.7-12-4.3-12.3-6-.3-1.4,2-6.8,14.2-9.1,12.3-2.3,24.2.3,30.2,2.6,5.7,2.6,15.1,10,15.1,10h0Z"/>
              </g>
              <g id="svga-group-eyesiriswrapper-left">
                <g id="svga-group-eyesiriscontrol-left">
                  <g id="svga-group-eyesiris-left">
                    <path id="SvgjsPath5812" class="cls-21" d="M240.2,265.8c8.3,0,14.8,6.6,14.8,14.8s-6.6,14.8-14.8,14.8-14.8-6.6-14.8-14.8,6.6-14.8,14.8-14.8Z"/>
                    <path id="SvgjsPath5813" class="cls-20" d="M240.2,266.7c7.7,0,14,6.3,14,14s-6.3,14-14,14-14-6.3-14-14,6-14,14-14M240.2,265.3c-8.5,0-15.7,6.8-15.7,15.7s6.8,15.7,15.7,15.7,15.7-6.8,15.7-15.7-7.1-15.7-15.7-15.7Z"/>
                    <path id="SvgjsPath5814" class="cls-7" d="M247.6,267.8c-.3.9-.9,2-1.4,2.8s-1.1,1.7-2,2.6c.3-.9.9-2,1.4-2.8.6-1.1,1.1-2,2-2.6ZM249.6,269.5l-1.7,2.6c-.6.9-1.4,1.7-2.3,2.3l1.7-2.6c.9-.9,1.4-1.7,2.3-2.3ZM247.1,275.2c.6-.9,1.1-1.4,1.7-2s1.4-1.1,2.3-1.4c-.6.9-1.1,1.4-1.7,2s-1.4,1.1-2.3,1.4ZM247.9,276.9c.9-.6,1.7-.9,2.6-1.1s1.7-.6,2.8-.9c-.9.6-1.7.9-2.6,1.1-1.1.6-2,.9-2.8.9ZM248.8,278.4c.9-.3,1.7-.6,2.6-.6s1.7-.3,2.6-.3c-.9.3-1.7.6-2.6.6-.9.3-1.7.6-2.6.3ZM249,280.4c.6,0,.9-.3,1.4-.3h1.4c.9,0,1.7.3,2.6.6-.9.3-1.7,0-2.6,0s-.9,0-1.1-.3c-.9.3-1.4.3-1.7,0ZM248.5,282.1c.9,0,1.7.3,2.6.3l2.6.9c-.9,0-1.7-.3-2.6-.3s-1.7-.3-2.6-.9ZM248.5,284.1c.6,0,.9.3,1.1.3.3.3.9.3,1.1.6.9.3,1.4.9,2,1.4-.9-.3-1.7-.6-2.3-.9-.3-.3-.9-.3-1.1-.6,0-.3-.6-.6-.9-.9h0ZM247.1,286.3c.9.3,1.4.6,2,1.1.6.6,1.1.9,1.7,1.7-.9-.3-1.4-.6-2-1.1l-1.7-1.7ZM244.5,267c0,.9-.3,2-.6,2.8s-.6,1.7-1.1,2.6c0-.9.3-2,.6-2.8s.6-2,1.1-2.6ZM240.8,271.8c-.3-.9,0-2,0-2.8s.3-2,.6-2.8c.3.9,0,2,0,2.8s-.3,2-.6,2.8ZM237.6,266.1c.3.9.6,2,.9,2.8.3.9.3,2,.3,2.8-.3-.9-.6-1.7-.9-2.8,0-.6-.3-.9-.3-1.4v-1.4ZM234.5,267.3c.6.9.9,1.7,1.1,2.6s.6,2,.9,2.8c-.6-.9-.9-1.7-1.1-2.6-.6-.9-.9-2-.9-2.8ZM231.9,268.7c.6.6,1.4,1.4,2,2.3s1.1,1.7,1.4,2.6c-.6-.6-1.4-1.4-2-2.3s-1.1-1.4-1.4-2.6ZM229.1,271.2c.9.6,2,1.1,2.6,2,.9.6,1.7,1.4,2.3,2.3-.9-.6-2-1.1-2.6-2-.9-.9-1.7-1.4-2.3-2.3ZM228.2,274.1c.9.3,1.4.6,2.3.9.6.3,1.4.9,2,1.4-.9-.3-1.4-.6-2.3-.9-.9-.3-1.4-.9-2-1.4ZM226.8,276.9c.9,0,1.4,0,2.3.3s1.4.3,2,.9c-.9,0-1.4,0-2.3-.3s-1.1-.3-2-.9ZM226.2,280.4c.9-.3,1.7-.3,2.3-.3s1.7,0,2.3.3c-.9.3-1.7.3-2.3.3s-1.4-.3-2.3-.3ZM226.5,282.9c.6-.3,1.4-.6,2.3-.6.9-.3,1.4-.3,2.3-.3-.6.3-1.4.6-2.3.6-.6.3-1.4.3-2.3.3ZM226.8,285.5c.9-.6,1.7-.9,2.6-.9s1.7-.6,2.6-.6c-.9.6-1.7.9-2.6.9-.9.3-1.7.6-2.6.6ZM228.2,288.1c.6-.6,1.4-.9,2.3-1.4.9-.3,1.4-.6,2.3-.9-.6.6-1.4.9-2.3,1.4-.6.3-1.4.6-2.3.9ZM230.5,290.6c.3-.6.9-1.1,1.4-1.7s1.1-1.1,1.7-1.4c-.3.6-.9,1.1-1.4,1.7s-1.1,1.1-1.7,1.4ZM233.1,292.9c.3-.9.6-2,1.1-2.6.6-.9.9-1.7,1.7-2.6-.3.9-.6,2-1.1,2.6-.6,1.1-1.1,2-1.7,2.6ZM236.2,294c0-.9,0-1.4.3-2.3s.6-1.4.9-2.3c0,.9,0,1.4-.3,2.3,0,.9-.3,1.4-.9,2.3ZM243.9,288.9c.6.6.6,1.4.9,2,.3.9.6,1.4.6,2.3-.6-.6-.6-1.4-.9-2-.3-.6-.6-1.4-.6-2.3ZM245.9,288.1c.6.6,1.1,1.1,1.4,1.7.6.6.9,1.1,1.1,2-.6-.6-1.1-1.1-1.4-1.7-.6-.6-.9-1.1-1.1-2ZM241.6,289.8c.3.6.3,1.4.6,2.3v2.3c-.3-.6-.3-1.4-.6-2.3v-2.3ZM239.6,290.1c.3.6.3,1.4.3,2,0,.9,0,1.4-.3,2.3-.3-.9-.3-1.4-.3-2.3s.3-1.4.3-2Z"/>
                    <path id="SvgjsPath5815" class="cls-16" d="M240.2,272.4c4.6,0,8.3,3.7,8.3,8.3s-3.7,8.3-8.3,8.3-8.3-3.7-8.3-8.3,3.4-8.3,8.3-8.3Z"/>
                    <path id="SvgjsPath5816" class="cls-27" d="M237.9,273.8l-1.7-1.7c-.6-.6-1.4-.9-2-.9s-1.7.3-2,.9c-.6.6-.9,1.4-.9,2.3s.3,1.4.9,2l1.7,1.7c.6.6,1.4.9,2,.9s1.7-.3,2-.9c1.1-1.1,1.1-3.1,0-4.3ZM245.9,288.1c2.6,0,2.6-4.3,0-4.3s-2.8,4.3,0,4.3Z"/>
                  </g>
                </g>
              </g>
              <g id="svga-group-eyesfront-left">
                <path id="SvgjsPath5468" class="cls-12" d="M221.7,291.5c13.1,3.7,31.1,1.4,37.9.6s9.4-3.1,9.4-3.1c0,0-9.1-7.4-15.1-10-6-2.6-18-4.8-30.2-2.6-9.1,1.7-12.5,5.1-13.7,7.1,0-18,13.7-32.8,30.2-32.8s30.2,14.8,30.2,32.8-13.4,32.8-30.2,32.8-28.5-12.8-30.2-29.6c.9,1.4,3.4,2.3,11.7,4.8h0Z"/>
                <path id="SvgjsPath5469" class="cls-15" d="M268.7,287.5c-3.4-9.4-11.7-16-21.4-17.7-11.1-2-21.4,2.8-30.5,8.3-.3,0-.6-.3-.3-.3,15.7-13.4,46.7-14,52.7,10-.3-.3-.6,0-.6-.3h0Z"/>
                <path id="SvgjsPath5470" class="cls-16" d="M269,289.5c-15.1-12.5-35.3-17.7-53.9-8.8-.9.3-1.4.9-2.3,1.1-2.8,3.7-2.6,6,1.1,6.3,2,.6,4,1.1,6,1.4,5.1,1.1,10.5,1.7,16,2,9.7.6,19.1-.3,28.5-1.1.6,0,.6.6,0,.9-12.5,4-26.2,3.7-39,2-4.6-.6-24.8-2.6-16.8-12.3,2.8-3.4,9.1-4.8,13.4-5.7,6-1.4,12-1.7,18-1.1,10.8,1.4,21.9,6.6,29.4,14.8.6.3,0,.9-.3.6h0Z"/>
              </g>
            </g>
          </g>
          <g id="svga-group-eyes-right-move">
            <g id="svga-group-eyes-right">
              <g id="svga-group-eyesback-right">
                <path id="SvgjsPath5461" class="cls-27" d="M331,288.9s2.6,2.3,9.4,3.1,24.8,3.1,37.9-.6c13.1-3.7,12-4.3,12.3-6,.3-1.4-2-6.8-14.2-9.1-12.3-2.3-24.2.3-30.2,2.6-5.7,2.6-15.1,10-15.1,10h0Z"/>
              </g>
              <g id="svga-group-eyesiriswrapper-right">
                <g id="svga-group-eyesiriscontrol-right">
                  <g id="svga-group-eyesiris-right">
                    <path id="SvgjsPath5817" class="cls-21" d="M359.8,265.8c8.3,0,14.8,6.6,14.8,14.8s-6.6,14.8-14.8,14.8-14.8-6.6-14.8-14.8,6.8-14.8,14.8-14.8Z"/>
                    <path id="SvgjsPath5818" class="cls-20" d="M359.8,266.7c7.7,0,14,6.3,14,14s-6.3,14-14,14-14-6.3-14-14,6.3-14,14-14M359.8,265.3c-8.5,0-15.7,6.8-15.7,15.7s6.8,15.7,15.7,15.7,15.7-6.8,15.7-15.7-6.8-15.7-15.7-15.7Z"/>
                    <path id="SvgjsPath5819" class="cls-7" d="M367.5,267.8c-.3.9-.9,2-1.4,2.8s-1.1,1.7-2,2.6c.3-.9.9-2,1.4-2.8.6-1.1,1.1-2,2-2.6ZM369.5,269.5l-1.7,2.6c-.6.9-1.4,1.7-2.3,2.3l1.7-2.6c.9-.9,1.4-1.7,2.3-2.3ZM366.9,275.2c.6-.9,1.1-1.4,1.7-2s1.4-1.1,2.3-1.4c-.6.9-1.1,1.4-1.7,2-.9.6-1.4,1.1-2.3,1.4ZM367.8,276.9c.9-.6,1.7-.9,2.6-1.1s1.7-.6,2.8-.9c-.9.6-1.7.9-2.6,1.1-1.1.6-2,.9-2.8.9ZM368.6,278.4c.9-.3,1.7-.6,2.6-.6s1.7-.3,2.6-.3c-.9.3-1.7.6-2.6.6-.9.3-1.7.6-2.6.3ZM368.9,280.4c.6,0,.9-.3,1.4-.3h1.4c.9,0,1.7.3,2.6.6-.9.3-1.7,0-2.6,0s-.9,0-1.1-.3c-.9.3-1.4.3-1.7,0ZM368.3,282.1c.9,0,1.7.3,2.6.3l2.6.9c-.9,0-1.7-.3-2.6-.3s-1.7-.3-2.6-.9ZM368.3,284.1c.6,0,.9.3,1.1.3.3.3.9.3,1.1.6.9.3,1.4.9,2,1.4-.9-.3-1.7-.6-2.3-.9-.3-.3-.9-.3-1.1-.6,0-.3-.6-.6-.9-.9h0ZM366.9,286.3c.9.3,1.4.6,2,1.1.6.6,1.1.9,1.7,1.7-.9-.3-1.4-.6-2-1.1l-1.7-1.7ZM364.3,267c0,.9-.3,2-.6,2.8s-.6,1.7-1.1,2.6c0-.9.3-2,.6-2.8s.6-2,1.1-2.6ZM360.6,271.8c-.3-.9,0-2,0-2.8s.3-2,.6-2.8c.3.9,0,2,0,2.8s-.3,2-.6,2.8ZM357.5,266.1c.3.9.6,2,.9,2.8.3.9.3,2,.3,2.8-.3-.9-.6-1.7-.9-2.8,0-.6-.3-.9-.3-1.4v-1.4ZM354.4,267.3c.6.9.9,1.7,1.1,2.6s.6,2,.9,2.8c-.6-.9-.9-1.7-1.1-2.6-.6-.9-.9-2-.9-2.8ZM351.8,268.7c.6.6,1.4,1.4,2,2.3s1.1,1.7,1.4,2.6c-.6-.6-1.4-1.4-2-2.3s-1.1-1.4-1.4-2.6ZM349,271.2c.9.6,2,1.1,2.6,2,.9.6,1.7,1.4,2.3,2.3-.9-.6-2-1.1-2.6-2-.9-.9-1.7-1.4-2.3-2.3ZM348.1,274.1c.9.3,1.4.6,2.3.9.6.3,1.4.9,2,1.4-.9-.3-1.4-.6-2.3-.9-.9-.3-1.4-.9-2-1.4ZM346.7,276.9c.9,0,1.4,0,2.3.3s1.4.3,2,.9c-.9,0-1.4,0-2.3-.3s-1.1-.3-2-.9ZM346.1,280.4c.9-.3,1.7-.3,2.3-.3s1.7,0,2.3.3c-.9.3-1.7.3-2.3.3s-1.4-.3-2.3-.3ZM346.4,282.9c.6-.3,1.4-.6,2.3-.6.9-.3,1.4-.3,2.3-.3-.6.3-1.4.6-2.3.6-.6.3-1.4.3-2.3.3ZM346.7,285.5c.9-.6,1.7-.9,2.6-.9s1.7-.6,2.6-.6c-.9.6-1.7.9-2.6.9-.9.3-1.7.6-2.6.6ZM348.1,288.1c.6-.6,1.4-.9,2.3-1.4.9-.3,1.4-.6,2.3-.9-.6.6-1.4.9-2.3,1.4-.9.3-1.4.6-2.3.9ZM350.4,290.6c.3-.6.9-1.1,1.4-1.7s1.1-1.1,1.7-1.4c-.3.6-.9,1.1-1.4,1.7s-1.1,1.1-1.7,1.4ZM352.9,292.9c.3-.9.6-2,1.1-2.6.6-.9.9-1.7,1.7-2.6-.3.9-.6,2-1.1,2.6-.6,1.1-1.1,2-1.7,2.6ZM356.1,294c0-.9,0-1.4.3-2.3s.6-1.4.9-2.3c0,.9,0,1.4-.3,2.3s-.3,1.4-.9,2.3ZM363.8,288.9c.6.6.6,1.4.9,2,.3.9.6,1.4.6,2.3-.6-.6-.6-1.4-.9-2-.3-.6-.6-1.4-.6-2.3ZM365.8,288.1c.6.6,1.1,1.1,1.4,1.7.6.6.9,1.1,1.1,2-.6-.6-1.1-1.1-1.4-1.7-.6-.6-.9-1.1-1.1-2ZM361.5,289.8c.3.6.3,1.4.6,2.3v2.3c-.3-.6-.3-1.4-.6-2.3v-2.3ZM359.5,290.1c.3.9.3,1.4.3,2.3s0,1.4-.3,2.3c-.3-.9-.3-1.4-.3-2.3s.3-1.7.3-2.3Z"/>
                    <path id="SvgjsPath5820" class="cls-16" d="M359.8,272.4c4.6,0,8.3,3.7,8.3,8.3s-3.7,8.3-8.3,8.3-8.3-3.7-8.3-8.3,3.7-8.3,8.3-8.3Z"/>
                    <path id="SvgjsPath5821" class="cls-27" d="M357.8,273.8l-1.7-1.7c-.6-.6-1.4-.9-2-.9s-1.7.3-2,.9c-.6.6-.9,1.4-.9,2,0,.9.3,1.4.9,2l1.7,1.7c.6.6,1.4.9,2,.9s1.7-.3,2-.9c1.1-.9,1.1-2.8,0-4h0ZM365.5,288.1c2.6,0,2.6-4.3,0-4.3s-2.6,4.3,0,4.3Z"/>
                  </g>
                </g>
              </g>
              <g id="svga-group-eyesfront-right">
                <path id="SvgjsPath5471" class="cls-12" d="M378.3,291.5c-13.1,3.7-31.1,1.4-37.9.6s-9.4-3.1-9.4-3.1c0,0,9.1-7.4,15.1-10,6-2.6,18-4.8,30.2-2.6,9.1,1.7,12.5,5.1,13.7,7.1,0-18-13.7-32.8-30.2-32.8s-30.2,14.8-30.2,32.8,13.4,32.8,30.2,32.8,28.5-12.8,30.2-29.6c-.9,1.4-3.4,2.3-11.7,4.8h0Z"/>
                <path id="SvgjsPath5474" class="cls-15" d="M331.3,287.5c3.4-9.4,11.7-16,21.4-17.7,11.1-2,21.4,2.8,30.5,8.3.3,0,.6-.3.3-.3-15.7-13.4-46.7-14-52.7,10,.3-.3.6,0,.6-.3h0Z"/>
                <path id="SvgjsPath5475" class="cls-16" d="M331,289.5c15.1-12.5,35.3-17.7,53.9-8.8.9.3,1.4.9,2.3,1.1,2.8,3.7,2.6,6-1.1,6.3-2,.6-4,1.1-6,1.4-5.1,1.1-10.5,1.7-16,2-9.7.6-19.1-.3-28.5-1.1-.6,0-.6.6,0,.9,12.5,4,26.2,3.7,39,2,4.6-.6,24.8-2.6,16.8-12.3-2.8-3.4-9.1-4.8-13.4-5.7-6-1.4-12-1.7-18-1.1-10.8,1.4-21.9,6.6-29.4,14.8-.6.3,0,.9.3.6h0Z"/>
              </g>
            </g>
          </g>
          <g id="svga-group-eyebrows-left-move">
            <g id="svga-group-eyebrows-left-rotate">
              <g id="svga-group-eyebrows-left">
                <path id="SvgjsPath6461" class="cls-18" d="M206.8,254.4c2.7-.4,5.6-.6,8.3-.8,0-.3.3-.3.5-.3,5.6-1.2,10.6-3.9,15.8-6.2,1.8-.9,3.7-1.6,5.8-2,2-2,4.7-3.3,7.3-4.5,1-.9,2.3-1.5,3.4-1.8,2.1-.9,4.2-1.9,6.6-2.1s.5,0,.8-.3c1.6-.6,2.9-1,4.8-.9,1.8-1.5,4.1,0,5.8,1.8q.3,0,.3.3c5.3,2.6,8,10.6,3.4,15.2-2.3,2.3-5.7,3.4-8.9,3.8-1.9.4-4,.5-6.2.4-4.5,2.2-10.7,2.1-15.3,2.4s-7.8.2-11.4-.9h-1.3c-2.7.3-5.9.5-7.9-1-3.8,0-7.9-.3-11.4-.9-1.7-.4-1.5-2.1-.4-2.1h0Z"/>
                <path id="SvgjsPath6462" class="cls-1" d="M262,237.2c-.3-.5.2-1.1.8-.6,4.3,3.5,9.5,12.4,4.4,17.3-.3.3-.5,0-.6-.2-.2-3,1-5.2,0-8.4-.7-2.9-3.1-5.5-4.6-8.1h0ZM251.2,237.9c7.6,1.1,13.4,9.9,12.5,17.3,0,.5-.8.3-.8,0-.5-3.5-1.3-7-3.6-10-2.1-3.1-5.2-4.5-8.3-6.5-.6-.2-.3-1.1.2-.8h0ZM243.7,243.3c7.1.9,13.9,6.1,17.3,12.4.3.5-.2.8-.5.6-4.7-5.9-10.1-9.4-17-11.9-.6-.5-.3-1.1.2-1.1h0ZM235.4,248.7c7-.5,15.6,2.8,19.7,8.2.3.5-.2.8-.5.6-2.9-2.2-6-4.2-9.3-5.3-3.3-1.1-6.6-1.5-9.9-2.3-.8-.2-.6-1,0-1.1ZM225.6,250.7c5.9-.7,12,2.2,15.6,6.8.3.3-.2.8-.5.6-4.3-4-9.3-6.2-15.1-6.9-.3-.3-.3-.5,0-.5ZM213.4,254.7c5.4-.6,11.1-.2,15.6,3.3.3.3,0,.8-.5.6-4.5-3-9.6-2.6-15.1-3.1-.5,0-.6-.5,0-.8h0Z"/>
                <path id="SvgjsPath6463" class="cls-14" d="M261.5,258.1c3.4-1,8-2.1,10.5-5.3,5.3-6.6-.9-17.5-8.1-19.8-8.9-2.9-18.1,5-25.4,9-5.8,3.1-11.8,5.6-18.2,7.7-5.8,2-12.3,2.7-18.1,4.7q-.3,0-.6-.2c-1.4-.2-1.5,1.7-.4,1.9,14.6,4.5,30.1,5.1,45.2,4.1,4.9,0,10-.7,15-2.1ZM248.5,241.1c3.8.8,6.1,2.3,8.8,5.6,2.1,2.6,3.3,5.2,4.6,8.1-.8.3-1.6.4-2.4.7-3.6-5.4-11.3-10.9-18.6-11.5,2.1-1.2,4.7-2.7,7-4.2-.3.3,0,1.3.6,1.3h0ZM237.4,245.9c3.6,1.1,7.4,1.4,10.8,3.1,3.6,1.7,6.5,4.2,9.4,7-2.9.7-5.6.9-8.6,1.4-3.5-4.4-10.9-9-16.8-9.2,1.9-.7,3.4-1.6,5.3-2.2h0ZM222.1,252c1.4.5,2.7.6,3.9,1.1,1.7.7,3.1,1.7,4.5,2.7.6.2,1.1,0,.8-.6-.9-1.8-3.2-3.6-5.7-4.5,1.6-.6,3.2-1,4.5-1.6,0,.3,0,.5.3.5,2.8,1.4,6.1,2,8.9,3.5,2.5,1.2,4.8,2.9,6.8,4.4h-1.1c-12.7.9-25.1.4-37.7-1.8,4-.5,8.3-1.9,12-3,1.3-.4,2.1-.7,2.9-.7h0ZM263.7,254.2h-.3c-1.1-4.2-3.2-7.9-6.1-11.2-2-2.3-5.5-5.1-8.6-3.8,6.8-3.7,14.2-5.8,19.3.9,2.1,2.6,3.7,6.5,2,9.9-.7,1.7-2.3,2.6-4.1,3.2,1-5.7-1.4-13.2-6.2-16.4-.6-.5-1.3.6-1,1.1,1.8,2.6,3.8,4.9,4.8,7.8.7,2.7.9,5.4.8,8.1,0,.3-.3.3-.5.3Z"/>
              </g>
            </g>
          </g>
          <g id="svga-group-eyebrows-right-move">
            <g id="svga-group-eyebrows-right-rotate">
              <g id="svga-group-eyebrows-right">
                <path id="SvgjsPath6464" class="cls-18" d="M393.5,247.7c-2.7,0-5.7.5-8.3.8,0-.3-.3-.2-.6-.2-5.7,0-11.1-1.8-16.7-3-2-.6-3.9-.8-6.1-.8-2.4-1.6-5.2-2.3-8-3-1.2-.7-2.6-1-3.7-1.1-2.2-.5-4.5-1-6.9-.7s-.5,0-.8-.2c-1.7-.3-3.1-.4-4.9,0-2.1-1.1-4,.8-5.3,2.9q-.3,0-.2.3c-4.7,3.6-5.8,11.9-.4,15.6,2.7,1.8,6.3,2.2,9.5,2,1.9,0,4.1-.3,6.2-.8,4.8,1.3,10.9,0,15.4-.7s7.7-1.3,11-3.1l1.3-.2c2.7-.4,5.9-.8,7.6-2.6,3.7-.8,7.7-1.8,11-3.1,1.5-.7,1.1-2.3,0-2.2h0Z"/>
                <path id="SvgjsPath6465" class="cls-1" d="M336.1,241.6c.2-.6-.4-1-.9-.4-3.5,4.3-6.9,14-.9,17.8.3.2.5,0,.5-.3-.4-2.9-2-4.9-1.6-8.2.1-3,1.9-6,2.9-8.8h0ZM346.8,240.2c-7.3,2.6-11.2,12.4-8.9,19.4,0,.5.8.2.8-.1-.2-3.5-.1-7.1,1.6-10.6,1.5-3.5,4.2-5.5,6.8-8,.5-.3.1-1.1-.4-.8h0ZM355.2,244c-6.8,2.3-12.5,8.7-14.6,15.5-.2.6.4.8.6.5,3.5-6.7,8.1-11.1,14.4-15,.5-.6.1-1.1-.4-1h0ZM364.4,247.7c-7,.9-14.8,5.8-17.8,11.9-.2.6.4.8.6.5,2.4-2.8,5-5.3,8.1-7.1,3-1.8,6.2-2.7,9.2-4.2.8-.4.4-1.1-.1-1.1ZM374.5,247.7c-5.9.5-11.4,4.5-14,9.7-.2.3.4.8.6.5,3.5-4.8,8-7.9,13.4-9.7.2-.3.2-.6,0-.5ZM387.2,249.3c-5.4.4-10.9,2-14.7,6.3-.2.3.1.8.6.5,4.1-3.8,9.2-4.5,14.2-6,.5,0,.5-.6-.1-.8h0Z"/>
                <path id="SvgjsPath6466" class="cls-14" d="M356.1,261.3c15-2.2,30-5.9,43.5-12.8,1-.7.5-2.2-.8-1.8q-.3,0-.5.3c-6.1-1.1-12.6-.5-18.7-1.1-6.4-.8-13.1-2.1-19.3-4-8-2.5-18.5-8.5-26.6-3.8-6.6,3.6-10.5,15.5-4,21,3.1,2.6,7.5,2.8,11.3,3.1,4.9.2,10-.2,15.1-.9h0ZM350.2,241.4c2.6.8,5.4,1.7,7.7,2.8-6.8,2-13.2,9.1-16,14.9-.8-.2-1.6,0-2.5-.2.7-3.1,1.4-6.2,2.9-8.8,1.7-3.5,3.9-5.4,7.5-7.2.8-.1.9-1.2.4-1.4h0ZM367.5,246.5c-5.8,1.3-12.1,7.3-14.7,12.3-2.9.4-5.7.5-8.7.3,2-3.3,4.6-6.3,7.8-8.7,3-2.3,6.6-3.3,9.9-5.1,1.9.3,3.7.9,5.6,1.2h0ZM380.6,248.5c3.9.3,8.3.8,12.3.6-11.9,4.6-24.1,7.5-36.6,9.2h-1.1c1.9-2,3.6-3.9,5.8-5.5,2.5-2,5.6-3.2,8-5.1.2-.3.2-.6.2-.6,1.7.3,3.4.6,4.7.7-2,1.4-3.9,3.5-4.7,5.5-.2.6.4,1,.9.4,1.2-1.2,2.4-2.5,3.9-3.5,1.3-.7,2.6-1.2,3.6-1.8,1.3-.2,2.2,0,3,.1ZM337,258.6c-.6-2.6-1-5.3-.8-8.1.4-3.3,2-5.7,3.2-8.6.2-.6-.4-1.3-1.2-.9-4.1,4.1-5,11.8-2.9,17.3-1.7-.3-3.4-.9-4.7-2.4-2.3-3-1.5-6.9,0-10.1,3.6-7.8,11.3-6.9,18.7-4.6-3.4-.6-6.2,2.7-7.7,5.4-2.2,3.8-3.6,7.8-3.8,12.2h-.3c0-.2-.3-.2-.6-.2Z"/>
              </g>
            </g>
          </g>
          <g id="svga-group-mustache-single-move">
            <g id="svga-group-mustache-single">
              <path id="SvgjsPath7634" class="cls-13" d="M298.7,365.8c1.2-4.1.5-9.4-7-9.8-7.2-.5-20.9,1-29.8,7.2-8.9,6.2-6.5,11-4.6,12.5,1.9,1.4,14.2-1.2,14.2-1.2l1.7-3.1-.5,2.9s8.4-1,12.7-1.7c4.3-.7,8.6-1.9,9.4-2.4s.5,1.2.5,1.2c0,0,2.6-3.1,3.4-5.5h0ZM303.8,365.8c-1.2-4.1-.5-9.4,7-9.8,7.2-.5,20.9,1,29.8,7.2,8.9,6.2,6.5,11,4.6,12.5-1.9,1.4-14.2-1.2-14.2-1.2l-1.7-3.1.5,2.9s-8.4-1-12.7-1.7-8.6-1.9-9.4-2.4-.5,1.2-.5,1.2c0,0-2.6-3.1-3.4-5.5h0Z"/>
              <path id="SvgjsPath7635" class="cls-25" d="M265.8,362.7c-2.6,1.4-5,3.8-6.7,6.2-1,1.4-3.4,4.3-2.2,6,.2.2.5,0,.5-.2,0-2.2,2.4-5,3.8-6.7,1.4-1.7,3.1-3.1,4.8-4.6.5-.2,0-.7-.2-.7h0ZM267.5,363.6c-3.8,2.4-6.7,6.5-8.4,10.6-.2.2.2.5.5.2,2.2-4.1,5-7.2,8.4-10.3.2-.2-.2-.7-.5-.5ZM274.7,361.9c-4.1,3.1-8.2,7.7-9.1,12.7,0,.5.5.5.7.2,1.7-5.3,5.3-8.6,8.9-12.5.2-.5-.2-.7-.5-.5h0ZM281.2,359.5c-5.5,2.6-9.6,8.2-11,14.2,0,.5.5.5.5.2,2.2-6,5.5-10.3,10.6-13.9.5-.2.2-.7,0-.5ZM281.4,362.7c-3.6,2.4-6.5,6.5-7.9,10.6,0,.2.5.5.5.2,2.2-4.1,4.6-7.2,7.7-10.3.5-.2.2-.7-.2-.5h0ZM283.6,367c-1.9,1.4-3.4,3.6-4.6,5.5-.2.2.2.5.5.2,1.4-1.9,3.1-3.6,4.6-5.5.2-.2-.2-.5-.5-.2ZM289.6,366c-2.2,2.4-4.3,4.6-6.7,6.5-.2.2,0,.7.5.5,2.9-1.4,5.3-3.8,6.7-6.7,0,0-.2-.5-.5-.2h0ZM292.7,367c-1.7,1.7-3.4,3.4-5.5,4.8-.2.2,0,.5.2.5,2.2-1,4.3-2.6,5.5-4.8.2-.5,0-.7-.2-.5ZM296.8,361c-.7,3.6-1.9,6.7-4.3,9.6-.2.2.2.5.5.5,2.6-2.6,4.8-6,4.8-9.8-.2-.5-.7-.5-1-.2h0ZM297.3,366.5c-.7,1.4-1.4,2.9-2.4,4.1-.2.2.2.5.5.2,1-1.2,1.9-2.6,2.2-4.3h-.2ZM279,357.6c-5,.2-10.1,1.9-14.6,4.3-3.6,2.2-8.4,5-9.1,9.6,0,.2.5.5.5.2,2.4-9.1,15.6-12.7,23.3-14.2q.2,0,0,0h0ZM336.6,362.7c2.6,1.4,5,3.8,6.7,6.2,1,1.4,3.4,4.3,2.2,6-.2.2-.5,0-.5-.2,0-2.2-2.4-5-3.8-6.7-1.4-1.7-3.1-3.1-4.8-4.6-.5-.2,0-.7.2-.7h0ZM335,363.6c3.8,2.4,6.7,6.5,8.4,10.6.2.2-.2.5-.5.2-2.2-4.1-5-7.2-8.4-10.3-.2-.2.2-.7.5-.5ZM327.8,361.9c4.1,3.1,8.2,7.7,9.1,12.7,0,.5-.5.5-.7.2-1.7-5.3-5.3-8.6-8.9-12.5-.2-.5.2-.7.5-.5h0ZM321.3,359.5c5.5,2.6,9.6,8.2,11,14.2,0,.5-.5.5-.5.2-2.2-6-5.5-10.3-10.6-13.9-.5-.2-.2-.7,0-.5ZM320.8,362.7c3.6,2.4,6.5,6.5,7.9,10.6,0,.2-.5.5-.5.2-2.2-4.1-4.6-7.2-7.7-10.3-.2-.2,0-.7.2-.5h0ZM318.9,367c1.9,1.4,3.4,3.6,4.6,5.5.2.2-.2.5-.5.2-1.4-1.9-3.1-3.6-4.6-5.5-.2-.2.2-.5.5-.2ZM312.9,366c2.2,2.4,4.3,4.6,6.7,6.5.2.2,0,.7-.5.5-2.9-1.4-5.3-3.8-6.7-6.7,0,0,.2-.5.5-.2h0ZM309.8,367c1.7,1.7,3.4,3.4,5.5,4.8.2.2,0,.5-.2.5-2.2-1-4.3-2.6-5.5-4.8-.2-.5,0-.7.2-.5ZM305.7,361c.7,3.6,1.9,6.7,4.3,9.6.2.2-.2.5-.5.5-2.6-2.6-4.8-6-4.8-9.8.2-.5.7-.5,1-.2h0ZM305.2,366.5c.7,1.4,1.4,2.9,2.4,4.1.2.2-.2.5-.5.2-1-1.2-1.9-2.6-2.2-4.3h.2ZM323.4,357.6c5,.2,10.1,1.9,14.6,4.3,3.6,2.2,8.4,5,9.1,9.6,0,.2-.5.5-.5.2-2.4-9.1-15.6-12.7-23.3-14.2q-.2,0,0,0h0Z"/>
            </g>
          </g>
          <g id="svga-group-nose-single-move">
            <g id="svga-group-nose-single">
              <path id="SvgjsPath4191" class="cls-12" d="M316.6,322.1c.8,2.5,11.2,13.7,11.4,19.7s-6.2,12.1-14.2,6.6c0,0-7.4,5.7-14.2,4.9s-10.6-5.5-10.6-5.5c0,0-6.5,2.5-11.9.6s-6.8-8.5-2.8-14.6c4-6.1,10.8-16.5,12.3-22.3,1.6-5.9,21.3-16.9,30.2,10.6Z"/>
              <path id="SvgjsPath4192" class="cls-26" d="M316.5,320.8c-.5-.6-1.5.2-1.1.8,2.8,4.3,5.8,8.5,8.4,12.9,1.8,3,3.5,6.8,2.3,10.4-2,5.9-7.3,5.6-11.5,3.3,1.6-2,2.5-4.4,2.3-7.1,0-.7-1-1.2-1.4-.6-4.2,5.3-6.9,10.8-14.7,11.1-8.2.3-13.6-6.4-15.8-13.5-.2-.6-1-.5-1.1.2-.2,3.3.8,6.5,2.6,9.2-1.2.2-2.4.5-3.6.5-3.8.2-4.5,0-7-3.3-2.7-3.4-2.7-4.2-1.2-8,.7-1.7,1.7-3.2,2.7-4.8,3.2-5,6.1-10.2,8.2-15.8,4.3-11.2,6.2-23.6,4.1-35.4,0-.5-.9-.4-.9.1,0,9.6-.6,19.1-3.5,28.3-2.9,9.6-8.4,16.8-13,25.4-2.4,4.5-3.4,10.4.7,14.2,4,3.8,10.3,2.6,15,.8,2.8,3.1,6.7,5.2,10.8,5.5,4.7.4,10.7-1.8,14.5-5.6,4.3,4.8,12.7,2.6,14.9-3.6,3.3-9.4-6.9-18.7-12-25.1h0Z"/>
              <path id="SvgjsPath4193" class="cls-5" d="M306.7,329.3c-2.7-2.5-6.9-3.2-9.9-.9-1.1.8-1.7,1.9-2,3-.5.2-1,.5-1.4.9-2.3,2.2-1.3,5.7.6,7.8,1.7,1.8,4.3,2.6,6.7,2.5,2.9-.2,5.5-1.5,7.2-4,1.9-2.8,1.3-6.9-1.2-9.3h0Z"/>
            </g>
          </g>
          <g id="svga-group-hair-front">
            <path id="SvgjsPath7156" class="cls-8" d="M407.4,198.9c-3,9.9-3,15.3-2.7,22.8.3,7.2-3,15.3,3.3,14.4,6.3-.9,13.2-2.1,17.1-12.6s9-24.6,8.7-30c-.3-5.4-11.1-27-11.1-27l-9.9,23.4-5.4,9Z"/>
            <path id="SvgjsPath7157" class="cls-6" d="M431.4,222c1.2-10.8,3-25.5.6-27.9-2.4-2.4-16.8,6.6-18,14.4s-1.2,22.5-1.2,22.5c-2.1,8.1-2.4,12-2.1,17.4s-3,11.7,2.1,10.8c.3,0,.6,0,.6-.3-.9,6.9-.3,11.4.6,16.2.9,6.6-2.1,13.5,3,13.8s8.1-1.8,10.5-11.4c2.4-9.6,3.9-19.2,4.2-28.5.3-7.5.6-18.9-.6-25.2.3-.6.3-1.2.3-1.8ZM186.6,242.4c-1.5-4.8-.9-12-3-15.9s-10.5-19.2-10.5-19.2c-2.7,5.4-6.9,11.7-6.9,21.3s-1.2,13.8.6,18.6c-.3,3.6-.3,7.2,0,9.3.6,3.3,5.4,24.3,10.2,27.3,4.2,2.4,7.2-8.7,6.6-18.6,4.8-8.7,4.5-18.3,3-22.8h0Z"/>
            <path id="SvgjsPath7158" class="cls-8" d="M177.9,183c-2.7,2.4-6.9,9.6-8.1,17.1s-1.2,15,.3,18.6c1.8,3.3,10.8,21.9,16.8,18.9s3.9-9,3.3-18.6.3-11.1-2.1-19.2c-2.4-8.4-10.2-16.8-10.2-16.8h0ZM204.6,71.7c-2.1-7.5,9,4.2,8.7,22.5-.3,18.6,3,31.8,11.4,39s39.6,33.6,39.6,33.6c0,0-7.2,2.1-21.6-2.1s-33-10.5-42.6-22.8-6.9-30.6-2.7-39.6c4.2-8.7,9.9-20.7,7.2-30.6h0ZM358.8,167.7c6.6-1.8,17.4-5.1,22.5-1.8,4.8,3.3,5.1,14.1,15.9,13.8,10.8-.3,20.4-19.5,19.5-28.2-.6-8.7-7.2-23.4-17.7-27.3s-9.3,7.8-10.5,12.3.3,7.5-10.5,15.3c-10.5,8.1-19.2,15.9-19.2,15.9h0Z"/>
            <path id="SvgjsPath7159" class="cls-17" d="M393.9,175.2c-.6,3.3-1.2,13.2,3.3,19.2s1.8,12.9,11.4,9.3c9.6-3.6,20.7-16.2,19.8-25.5-.6-9.3-8.1-31.8-15.9-36-8.1-3.9-8.7,13.8-8.7,13.8l-9.9,19.2h0ZM199.2,120c-5.4,6.3-14.7,8.4-12.6,19.5s16.2,23.1,29.4,24.9,23.1-.3,24.9-1.8-28.8-18.6-28.8-18.6l-12.9-24Z"/>
            <path id="SvgjsPath7160" class="cls-8" d="M188.4,136.5c-3.6,3-7.2,4.5-8.4,13.2-1.2,8.7-1.5,10.2,3.6,20.1,5.4,9.9,6,15.9,13.8,14.1,7.8-1.8,16.5-8.7,15.6-19.5s-8.1-3.9-11.7-13.5-6.3-11.7-6.3-11.7l-6.6-2.7Z"/>
            <path id="SvgjsPath7161" class="cls-6" d="M182.7,156.6c-3.6,4.8-7.8,5.7-8.7,14.7s-3.9,8.7,2.1,19.2c6,10.5,12,23.1,17.7,17.1,5.7-6,4.8-9,5.7-16.2s-1.8-14.7-5.1-21c-3.6-6.6-11.7-13.8-11.7-13.8h0ZM286.2,171.6s-19.2,0-30.3-5.4-34.8-26.1-39.6-40.8,1.2-43.2-2.4-56.7c0,0,4.5,11.4,8.7,17.4s13.2,6,27.6,14.4,27.3,25.5,29.4,38.4,6.6,32.7,6.6,32.7h0Z"/>
            <path id="SvgjsPath7162" class="cls-8" d="M221.1,54.3c-.3-1.5-6,20.1,6,31.8s30.6,24.9,34.5,40.5,2.7,18.3,6.9,27.9,9.6,19.2,17.4,22.8c7.8,3.6,22.2-.6,22.2-3s12.3,10.5,20.4,6.6c8.1-3.9,30.9-31.8,34.2-51.6s-7.2-40.8-20.4-44.1-64.8-7.2-75.6-12.9-15.6-11.1-16.8-15.3c0,0-.9,10.2,9,22.2s29.1,19.8,29.1,19.8c0,0,14.1,3.6,15.9,15,0,0-24.6-19.2-45-26.7s-30-2.7-37.8-33h0Z"/>
            <path id="SvgjsPath7163" class="cls-17" d="M313.5,181.2s-12.6.9-17.4-13.5-2.1-41.7-10.8-56.4-41.7-22.2-50.1-30.9c-8.1-8.7-11.4-27.9-11.4-27.9,0,0,8.1,23.7,20.1,25.2,11.7,1.5,51.9,14.7,65.1,20.7s27.3,30.9,24.6,46.5-7.5,37.8-20.1,36.3h0Z"/>
            <path id="SvgjsPath7164" class="cls-6" d="M331.8,80.1c1.8,0,32.4,8.7,47.7,13.5,15.3,4.8,51,30.9,13.2,53.4s-24,26.4-60.9,32.7c-10.2,1.8,10.8-16.8,18.9-33,8.1-16.2,7.5-43.8,3-49.8s-21.9-16.8-21.9-16.8h0Z"/>
            <path id="SvgjsPath7165" class="cls-9" d="M288.9,176.7c-10.5-9-16.5-20.1-19.2-33.6-1.8-9.6-.9-20.4-5.1-29.1-2.7-5.4-6.6-9-11.4-12.3-13.2-9.3-23.7-15-29.4-31.5-.3-.6-1.2-.3-.9.3,2.4,9,6.6,16.8,13.8,22.8,12.6,11.1,25.8,14.4,28.5,33.9,2.4,18.9,4.8,40.5,23.7,50.4-.3,0,.3-.6,0-.9h0ZM296.4,174.9c-18.3-8.1-24.6-25.2-26.1-43.8,0-.6-.9-.6-.9,0-.6,18.6,8.1,38.4,26.7,44.7.6,0,.9-.6.3-.9h0ZM306.9,176.4c-10.5-12-13.2-25.2-12.9-40.8.3-8.7,1.5-17.7-3.6-25.5-4.2-6.6-11.1-9.3-17.7-12.6-11.1-5.4-21.9-10.8-33-15.3-.3,0-.6.3-.3.6,10.5,6,21.6,11.1,32.4,16.5,8.4,4.2,15.6,7.2,18.9,18,1.8,5.7.6,12.6.6,18.3-.6,16.5,3.3,29.7,15,41.4.3.6,1.2-.3.6-.6ZM317.7,175.5c-11.1-9.6-4.8-20.7-4.5-33,0-7.8-2.1-14.7-6-21.3-.3-.6-.9,0-.6.3,3.3,7.2,5.1,14.7,4.8,22.5-.3,5.4-2.4,10.5-2.4,15.9-.3,6.9,3,12,8.4,15.9.3.6.6,0,.3-.3ZM372.6,98.7c-.6-.3-.9.6-.3.9,2.4.9,4.8,1.5,7.2,2.4v.3c22.8,19.8-8.1,43.8-23.1,54.3-.6.3,0,1.2.6.9,15.9-8.4,48-37.5,24.3-54.9,9.3,3.9,11.4,6,14.1,16.5,2.4,9.6,1.2,14.7-6,22.2-3.9,4.2-9.3,7.2-14.4,10.2-12.6,7.5-23.7,17.4-36.6,24.6-.3,0,0,.6.3.3,13.2-6,24.3-16.5,36.9-24,8.4-5.1,17.1-10.5,21.3-19.5,9-19.2-8.1-30-24.3-34.2h0ZM341.1,88.8c-.3,0-.6.6,0,.6,13.8,3,29.4,6.3,31.5,23.1,1.5,12-6.3,23.4-14.4,31.2-10.5,9.9-22.2,17.7-24.6,33-.3,1.2,1.5,1.8,1.8.6,4.5-25.8,38.1-32.7,39.6-60.9,1.2-20.4-16.8-26.4-33.9-27.6h0ZM337.8,113.4c-12.6-28.5-52.2-25.8-74.1-43.5-.3-.3-.9.3-.6.6,21.6,20.1,56.7,16.8,72.9,43.8.9.9,2.4,0,1.8-.9h0ZM415.2,156.3c-.3-.6-1.2-.6-1.2,0,.3,15.9-18.9,25.5-13.5,42,.3.6,1.2.3.9-.3-3.9-16.2,17.4-25.2,13.8-41.7h0ZM424.5,178.5c0-.6-.9-.6-1.2,0-1.8,5.4-3,10.8-5.7,15.9-2.4,4.2-5.7,7.5-7.8,11.7-3,6-3.3,12-1.5,18.3.3.6,1.2.3.9-.3-1.8-12,4.2-17.7,9.9-27.3,3.3-5.7,4.8-12,5.4-18.3h0ZM426.6,184.5c0-.9-1.2-.6-1.5.3-.6,6.6-1.2,12.3-3.6,18.3-.3.6.6,1.2.9.6,3-5.7,5.1-12.6,4.2-19.2h0ZM426.6,219.6c0-.6-.9-.6-1.2-.3-1.8,9-4.8,17.1-7.5,25.8-1.8,5.7-2.4,10.8,0,16.2.3.9,1.8.3,1.5-.6-3-8.4.9-15.3,3.6-23.1,2.4-5.7,3.6-11.7,3.6-18h0ZM426,243.6c-1.5,3.3-1.8,7.5-1.8,11.1s1.2.6,1.2,0c0-3.6.9-6.9,1.5-10.5,0-.9-.6-1.5-.9-.6h0ZM260.7,159.3c-13.5-4.8-24.6-11.7-31.8-24.6-7.5-13.2-6.6-27-6.9-41.7,0-.9-1.5-.9-1.5,0-2.7,29.1,8.4,60,39.9,67.2.9.3.9-.6.3-.9ZM234.9,153.3c-8.1-5.1-16.5-14.1-21-22.5-5.7-10.2-5.4-21.9-5.1-33.3,0-.9-1.2-.9-1.2,0-1.5,23.1,5.1,45,27,56.7.3.3.9-.6.3-.9h0ZM223.8,153.6c-11.4-5.4-20.1-13.2-25.2-25.2-.3-.6-1.5-.6-1.2.3,3.6,12,13.2,23.1,25.8,26.1.6.3,1.2-.9.6-1.2h0ZM210.9,158.4c-5.1-2.1-9.9-4.5-14.4-7.5-.3-.3-.6.3-.3.6,4.5,3,9.3,5.7,14.7,7.5.3-.3.3-.6,0-.6ZM198,172.8c-4.8-4.5-9.6-8.4-13.2-13.8-.3-.6-1.2,0-.9.6,3.6,5.4,8.1,10.8,13.5,14.1.3,0,.9-.6.6-.9h0ZM364.8,110.7c-1.2-10.5-9.3-18.6-19.5-20.1-.6,0-.6.6-.3.6,12.3,4.2,21.3,15.3,17.1,29.1-2.4,7.8-9,13.8-13.8,20.1-.3.3.3.6.6.3,7.8-8.7,17.4-17.1,15.9-30ZM334.2,100.8c-.6-.6-1.2.3-.6.6,16.8,19.5,2.4,42.9-4.2,63.6-.3.6.6.9.9.3,7.8-19.8,22.5-46.5,3.9-64.5h0ZM284.1,98.1c-.6,0-.9.6-.3.9,26.7,7.5,11.7,43.2,20.1,62.1.3.6.9,0,.9-.3-5.4-19.2,6.6-56.7-20.7-62.7Z"/>
          </g>
        </g>
      </g>
    </g>
    <rect id="svga-credit-rect" class="cls-4" y="555" width="600" height="45"/>
    <g id="svga-credit-text" class="cls-29">
      <text class="cls-28" transform="translate(100.2 586.8)"><tspan x="0" y="0">Created on AvatarMaker.com</tspan></text>
    </g>
  </g>
</svg>