<?xml version="1.0" encoding="UTF-8"?>
<svg id="Layer_1" data-name="Layer 1" xmlns="http://www.w3.org/2000/svg" version="1.1" viewBox="0 0 600 600">
  <defs>
    <style>
      .cls-1 {
        fill: #f5f7ff;
      }

      .cls-1, .cls-2, .cls-3, .cls-4, .cls-5, .cls-6, .cls-7, .cls-8, .cls-9, .cls-10, .cls-11, .cls-12, .cls-13, .cls-14, .cls-15, .cls-16, .cls-17, .cls-18, .cls-19, .cls-20, .cls-21, .cls-22, .cls-23, .cls-24, .cls-25 {
        stroke-width: 0px;
      }

      .cls-2 {
        fill: #ecf0f1;
        opacity: .5;
      }

      .cls-2, .cls-26, .cls-8, .cls-27 {
        isolation: isolate;
      }

      .cls-2, .cls-27 {
        display: none;
      }

      .cls-3 {
        fill: #253984;
      }

      .cls-4 {
        fill: #322f2f;
      }

      .cls-5 {
        fill: #6777b2;
      }

      .cls-6 {
        fill: #4e688d;
      }

      .cls-7 {
        fill: #f0b399;
      }

      .cls-26 {
        fill: #333;
        font-family: AvenirNext-Regular, 'Avenir Next';
        font-size: 30px;
      }

      .cls-8 {
        opacity: .6;
      }

      .cls-8, .cls-10 {
        fill: #e09879;
      }

      .cls-9 {
        fill: #18355f;
      }

      .cls-11 {
        fill: #ffac97;
      }

      .cls-12 {
        fill: #543c32;
      }

      .cls-13 {
        fill: #e27459;
      }

      .cls-14 {
        fill: #000;
      }

      .cls-15 {
        fill: #ffd0bc;
      }

      .cls-16 {
        fill: #d17f5b;
      }

      .cls-17 {
        fill: #f18f77;
      }

      .cls-18 {
        fill: #ced5f0;
      }

      .cls-19 {
        fill: #39557e;
      }

      .cls-20 {
        fill: #634e45;
      }

      .cls-21 {
        fill: #4e60a3;
      }

      .cls-22 {
        fill: #ffd9c9;
      }

      .cls-23 {
        fill: #fff;
      }

      .cls-24 {
        fill: #efefef;
      }

      .cls-25 {
        fill: #452c22;
      }
    </style>
  </defs>
  <g id="svga-group-wrapper">
    <g id="svga-group-backs-single">
      <path id="SvgjsPath12153" class="cls-1" d="M0,0h600v600H0V0Z"/>
      <path id="SvgjsPath12154" class="cls-18" d="M0,0v30.3l229.5,269.7L0,0ZM0,102.3v47.7l229.5,174.9L0,102.3ZM0,213.6v40.8l229.5,100.2L0,213.6ZM114.9,0h-51.6l201.6,324.9L114.9,0ZM223.8,0h-40.8l81.6,270L223.8,0ZM0,324.9v29.7l229.5,29.7L0,324.9ZM0,432v40.8l229.5-66.3L0,432ZM0,539.1v60.9l264.9-193.5L0,539.1ZM114.9,600h49.2l79.5-127.2-128.7,127.2ZM370.5,300L600,30.3V0l-229.5,300ZM600,150v-47.7l-229.5,222.6,229.5-174.9ZM600,254.4v-40.8l-229.5,141,229.5-100.2ZM536.7,0h-51.6l-150,324.9L536.7,0ZM417,0h-40.8l-40.8,270L417,0ZM600,354.6v-29.7l-229.5,59.1,229.5-29.4ZM600,472.8v-40.8l-229.5-25.5,229.5,66.3ZM600,600v-60.9l-264.9-132.6,264.9,193.5ZM435.9,600h49.2l-129-127.2,79.8,127.2ZM335.1,0h-70.2l35.1,300L335.1,0ZM229.5,600h35.1l19.2-175.5-54.3,175.5ZM335.1,600h35.1l-54.6-175.5,19.5,175.5ZM284.1,600h31.8l-15.9-127.2-15.9,127.2h0Z"/>
    </g>
    <g id="svga-group-humanwrap-move">
      <g id="svga-group-humanwrap">
        <g id="svga-group-humanbody-back">
          <path id="SvgjsPath12234" class="cls-15" d="M505.5,658.5l-5.1-64.5s2.1-27-26.4-45.9-70.2-30.3-88.5-42.6c-18.3-12.3-27.6-13.5-27-50.7s2.7-120.9,2.7-120.9h-122.4s2.1,83.7,2.7,120.9c.6,37.2-8.7,38.4-27,50.7-18.3,12.3-60,23.7-88.5,42.6s-26.4,45.9-26.4,45.9l-4.8,64.5h410.7Z"/>
        </g>
        <g id="svga-group-chinshadow-single">
          <path id="SvgjsPath12660" class="cls-8" d="M241.2,466.2c17.7,17.4,37.8,27.9,58.8,27.9s41.1-10.5,58.8-27.9c-.3-3.3-.3-7.2-.3-11.4.6-37.2,2.7-120.9,2.7-120.9h-122.4s2.1,83.7,2.7,120.9c0,4.2,0,8.1-.3,11.4Z"/>
        </g>
        <g id="svga-group-humanbody-front">
          <path id="SvgjsPath12235" class="cls-10" d="M221.4,527.7c15.3,8.7,35.4,15.6,52.8,17.1,1.2,0,1.2-1.8.3-2.1-8.4-3.3-17.7-5.1-26.4-7.8-8.7-2.7-17.4-6-26.4-8.1-.3-.3-.9.6-.3.9h0ZM327,546.3c15.9-1.8,33.9-9,47.7-17.4.9-.6.3-1.8-.6-1.5-7.8,2.7-15.6,6-23.4,8.7-7.8,2.7-16.2,4.5-24,7.5-1.5.3-1.5,2.7.3,2.7h0Z"/>
          <path id="SvgjsPath12236" class="cls-16" d="M505.2,658.2l-6.3-64.2c0-6.6-1.5-13.5-4.5-19.8-2.7-6.3-6.9-11.7-11.7-16.5s-10.5-8.4-16.5-12-12.3-6.6-18.6-9.3c-12.6-5.7-25.8-10.8-38.7-16.2-6.6-2.7-12.9-5.7-19.2-9-3.3-1.8-6.3-3.6-9-5.7-3-1.8-6-3.6-9-5.7s-6-4.5-8.4-7.8c-2.4-3-3.9-6.6-5.1-10.2-2.1-7.2-2.4-14.4-2.4-21.6,0-14.1.6-28.2.9-42.3.6-28.2,1.8-56.1,2.7-84l1.8,1.8-61.2-.6-61.2-.3.9-.9,2.1,84c.3,14.1.9,27.9,1.2,42,0,7.2-.3,14.1-2.4,21.3-.9,3.6-2.7,6.9-4.8,9.9-2.4,3-5.1,5.4-8.1,7.5s-6,3.9-8.7,6c-2.7,1.8-5.7,3.9-9,5.7-6.3,3.6-12.6,6.3-19.2,9.3-12.9,5.7-25.8,10.8-38.4,16.8-6.3,3-12.6,6.3-18.3,9.6-6,3.6-11.4,7.2-16.2,12-4.8,4.8-8.7,10.2-11.4,16.2-1.2,3-2.4,6.3-3,9.3-.6,3.3-1.2,6.6-.9,9.6v.6l-4.5,64.5-3-3.3,102,.3c33.9,0,68.1.3,102.3.6l102.6.9,103.2,1.5h0ZM505.8,658.8l-102,1.2-102.6.9c-34.2.3-68.7.6-103.2.6l-103.2.3h-3.3l.3-3.3,5.1-64.5v.3c-.3-15.3,6.6-29.4,17.1-39.9,5.1-5.1,11.4-9.3,17.4-12.9s12.6-6.6,18.9-9.6c12.9-6,26.1-11.1,39-16.2,6.3-2.7,12.9-5.4,18.9-8.7,3-1.5,5.7-3.3,9-5.4,3-1.8,6-3.6,8.7-5.7,2.7-1.8,5.4-4.2,7.2-6.6,2.1-2.7,3.6-5.7,4.5-8.7,1.8-6.3,2.4-13.5,2.4-20.4,0-13.8-.3-27.9-.6-42l-1.8-84v-.9h.9l61.2-.3,61.2-.6h1.8v1.8c-.3,27.9-.6,56.1-1.2,84-.3,14.1-.6,28.2-.6,42,.3,6.9.6,13.8,2.4,20.1.9,3.3,2.4,6,4.2,8.7,1.8,2.4,4.2,4.8,7.2,6.6,2.7,1.8,5.7,3.9,8.7,5.7,3,2.1,5.7,3.9,8.7,5.4,6,3.3,12.3,6.3,18.9,9,12.9,5.4,25.8,10.8,38.7,16.8,6.3,3,12.6,6.3,18.6,9.9s12,7.8,17.1,12.9c10.2,10.2,16.8,24.3,16.2,39v-.3l4.2,64.8h0ZM167.4,657.6l5.7-41.4.3,41.4h-6ZM433.2,657.6l-5.7-41.4-.3,41.4h6Z"/>
        </g>
        <g id="svga-group-clothes-single">
          <path id="SvgjsPath12385" class="cls-24" d="M367.2,660l8.1-80.4s-42.9,48-75,57.3c0,0-49.5-27.9-78.9-57.3l11.7,80.4h134.1,0Z"/>
          <path id="SvgjsPath12386" class="cls-9" d="M375.9,578.7c-.6-.6-1.2-.3-1.8,0-10.9,11.5-22.4,22.4-34.5,32.7-6,5.1-12.3,9.9-18.9,14.4-6.6,4.2-13.5,8.1-20.7,10.5-6.9-3.9-13.8-8.1-20.7-12.6s-13.5-9-20.1-13.8c-13.2-9.6-25.8-19.8-37.2-31.2-.3-.3-.6-.3-.9-.3-.6,0-.9.6-.9,1.2,1.8,13.5,3.6,26.7,5.4,40.2,1.8,13.5,3.6,26.7,5.7,40.2,0,.6.9,1.2,1.5,1.2h33.9l33.6-.3,33.6-.3,33.3-.6,4.8-39.9,4.5-40.5c0-.3-.3-.6-.6-.9h0ZM370.2,619.2l-3.3,40.5-33.9-.6-33.6-.3-33.6-.3h-32.1c-1.8-12.9-3.9-25.8-5.7-39-1.8-12.3-3.6-24.6-5.7-36.9,11.1,10.5,23.4,19.8,35.7,28.5,6.6,4.8,13.5,9.3,20.4,13.5s13.8,8.7,21,12.9h.3c7.8-2.4,14.7-6,21.6-10.2s13.2-9,19.5-13.8c6.3-5.1,12.3-10.2,18-15.9,4.8-4.5,9.6-9.6,14.1-14.4-.6,12-1.5,24-2.7,36h0Z"/>
          <path id="SvgjsPath12387" class="cls-19" d="M227.1,503.7s3.6-11.1,5.1-19.2c1.8-8.1,1.2-27.9,1.2-27.9,0,0-5.7,12.3-13.8,19.2s-39.6,27.3-39.6,27.3l6.9,4.8s-73.8,26.1-78.9,29.7-5.7,11.1-5.7,11.1l-6.3,1.8c-12.3,50.4-12.3,109.8-12.3,109.8h163.5s-6.9-49.8-9.9-69c-2.7-19.5-10.2-87.6-10.2-87.6h0ZM505.2,550.2l-6.3-1.8s-.6-7.5-5.7-11.1-78.9-29.7-78.9-29.7l6.9-4.8s-31.2-20.4-39.6-27.3c-8.1-6.9-13.8-19.2-13.8-19.2,0,0-.6,19.8,1.2,27.9s5.1,19.2,5.1,19.2c0,0-7.5,67.8-10.5,87s-9.9,69-9.9,69h163.5c0,.6,0-58.5-12-109.2Z"/>
          <path id="SvgjsPath12388" class="cls-6" d="M420.9,537c-5.4-5.7-12.6-9.6-18.6-15s-10.8-11.7-16.2-17.7c-.6-.6-1.8.3-1.2.9,3.9,7.5,9.3,14.1,15.3,20.1s11.7,11.7,18.9,14.1c-15.6,28.5-25.2,63.6-28.8,95.7,0,.6.9.9,1.2.3,3.6-16.5,6.6-33,11.7-49.2,4.8-16.2,12.3-31.2,18.3-47.1.3-.3,0-.6-.3-.9.3-.3,0-.6-.3-1.2h0ZM414.9,501.3c-6.3-3.6-12.9-6.6-18.9-10.8-6.6-4.5-12.6-9.9-18.3-15.6-.6-.6-1.2.3-.6.6,9.3,11.7,22.5,23.4,37.2,27.3.9.6,1.5-.9.6-1.5ZM471.6,532.8c-17.1-7.2-34.8-13.8-52.5-19.2-.6-.3-.9.6-.3.9,10.5,5.1,21.3,9.9,32.1,14.4,13.8,5.7,30.6,9.3,38.1,23.4.6,1.2,2.4.3,2.1-.9-1.8-10.5-10.5-15-19.5-18.6h0ZM500.1,558c-.3-1.2-2.1-.9-2.1.3,2.1,16.2,5.7,31.8,7.5,48s1.2,32.7,3.3,48.6c0,1.2,1.5,1.2,1.8,0,3.6-29.7-1.2-68.4-10.5-96.9h0ZM222.3,507.3c1.5-3,1.8-6.6,2.4-9.9.9-3.6,2.1-7.2,3-10.8.3-.6-.6-.9-.9-.3-2.1,3-3.3,6.3-4.8,9.6-1.2,3.3-2.7,7.2-2.4,10.8.3,1.2,2.1,2.1,2.7.6h0ZM221.4,512.1c0-.3-.6-.3-.6,0-.3,19.5,3.6,39.6,6.6,59.1,3,21.3,6.3,42.9,12,63.9,0,.3.3,0,.3,0-2.1-19.8-5.4-39.3-8.4-58.8-3.6-21-4.5-43.2-9.9-64.2h0ZM206.1,512.1c-8.4,9.3-16.2,17.7-26.4,24.9-1.2.9-.9,2.7.3,3,4.2,13.2,10.2,25.5,14.4,38.7,4.2,13.5,6.9,27.6,10.5,41.1.3.9,1.5.6,1.5-.3-1.5-26.1-9.6-57.6-23.7-80.1,9.9-6.9,19.5-15.6,25.2-26.1,0-1.2-1.2-2.1-1.8-1.2ZM108.3,545.4c3.9,17.1,11.7,34.2,17.7,50.7.3.9,1.5.6,1.5-.3-3.3-16.8-7.8-36.6-16.8-51.3-1.2-1.2-2.7-.3-2.4.9h0Z"/>
          <path id="SvgjsPath12389" class="cls-9" d="M242.1,601.2c-.9-6.6-1.8-12.9-2.7-19.5-3.3-25.8-6.6-51.9-10.2-77.7,1.2-3.6,2.1-7.5,3-11.1.3-.9.6-1.8.6-2.7.9-1.2,2.7-3.3,3.9-6,1.8-4.2,3.3-11.4,3.6-18.6s0-14.4,0-14.4c0,0-7.2,3.3-7.5,5.4-2.7,5.4-5.7,10.2-9.6,14.7-3.6,4.5-8.7,7.8-13.5,11.4-9,6.3-18,12.3-27.6,18-.9.6-1.8.9-2.7,1.5l-.3.3c-.6.6-.3,1.5.3,1.8,1.2.9,2.4,1.8,3.6,2.4l.6.6c-14.4,4.8-28.8,9.6-43.2,14.7-7.5,2.7-15.3,5.4-22.8,8.4l-5.7,2.4-3,1.2c-.9.6-2.1.9-3,1.8-2.1,1.5-3.6,3.6-4.5,5.7-.6,1.5-1.2,3.3-1.5,4.8l-4.8,1.2c-.9.3-1.5.9-1.8,1.8-4.2,18-6.6,36.6-8.4,54.9-.6,9.3-1.5,18.3-1.5,27.6s-.3,9.3-.3,13.8v13.8l81,1.8,41.4.6c13.8.3,27.6.3,41.4.3h.6c1.8-.3,3-1.8,2.7-3.6l-5.4-39-2.7-18.3h0ZM84,659.7c.3-.3,0-.9.3-1.5v-1.8l.3-3.3.3-6.9c.3-4.5.6-9.3,1.2-13.8.9-9.3,1.8-18.3,3-27.3s2.7-18.3,4.2-27.3c1.5-8.7,3.3-17.1,5.4-25.5l4.8-1.2h.3c1.5,3.6,3.3,7.2,4.5,11.1l2.7,6.6,2.4,6.9c3,9,5.7,18.3,7.8,27.6,2.4,9.3,4.2,18.6,6,28.2.9,4.8,1.5,9.6,2.1,14.4.6,4.2,1.2,8.7,1.5,13.2l-46.8.6h0ZM207,657.3l-40.5.6-36,.9c0-9.3-.6-18.6-1.8-27.6-1.2-9.6-3-19.2-5.1-28.5-2.4-9.3-5.1-18.6-8.7-27.6-3-8.4-6.9-16.2-11.4-24,.6-.3,1.2-1.2,1.2-1.8.3-3.3,1.8-6.9,4.2-8.7.6-.6,1.2-.6,2.1-1.2l2.7-1.2,5.7-2.4,22.5-8.7,45-17.1c3.6,1.8,7.5,3.3,11.7,4.5-1.5,1.2-3,2.7-4.5,3.9-3.6,3-7.5,6-11.1,9-3.9,2.7-7.8,5.4-11.7,7.8-1.2.6-1.5,2.1-1.2,3.3,3.9,9.9,7.8,19.8,11.4,29.7,3.6,9.9,6.9,20.1,10.5,30.3,3.3,10.2,6.3,20.4,9.3,30.6,2.7,9.3,4.8,18.9,7.2,28.5-.6-.3-.9-.3-1.5-.3h0ZM208.8,657.3c-.9-9.9-2.1-19.5-3.9-29.1-2.1-10.5-4.5-21-7.5-31.5s-6.3-20.7-9.9-30.9c-3.6-9.3-7.2-18.6-11.4-27.9,3.6-2.4,6.6-4.8,9.9-7.5,3.6-3,7.2-6.3,10.8-9.9,6.9-6.9,13.5-13.8,19.5-21.3-5.7,5.1-11.1,9.9-16.8,14.7-3.6-2.7-7.2-4.8-11.1-6.9,0,0,0-.3-.3-.3l-3.3-2.1c-.6-.3-1.2-.9-2.1-1.2.3-.3.6-.3.9-.6,9-6,18-12.3,27-18.6,4.8-3.6,9.9-6.9,14.1-11.4,3-3.6,5.7-7.5,8.1-11.4,0,6.6-.3,13.2-.9,19.5-.6,3.9-1.5,7.5-2.7,11.4s-2.4,7.5-3.6,11.4v.6c2.4,26.1,5.4,52.2,8.4,78.3.6,6.6,1.5,13.2,2.4,19.5l2.7,19.5,5.1,35.4c-12,0-23.7,0-35.4.3h0ZM517.5,632.4c-.3-9.3-.9-18.3-1.8-27.6-1.5-18.3-4.2-36.9-8.4-54.9-.3-.9-.9-1.5-1.8-1.8l-4.8-1.2c-.3-1.8-.6-3.3-1.5-4.8-.9-2.1-2.4-4.2-4.5-5.7-.9-.9-2.1-1.2-3.3-1.8l-3-1.2-5.7-2.4c-7.5-3-15.3-5.7-22.8-8.4-14.4-5.1-28.8-9.9-43.2-14.7l.6-.6c1.2-.9,2.4-1.5,3.6-2.4.6-.3.9-1.2.3-1.8,0-.3-.3-.3-.3-.3-.9-.6-1.8-1.2-2.7-1.5-9.3-5.7-18.6-11.7-27.3-18-4.8-3.6-9.9-6.9-13.5-11.4-3.9-4.5-6.9-9.6-9.6-14.7,0-.3-.3-.3-.3-.3-1.5-1.8-7.2-3.3-7.2-3.3-.3,8.7-.3,22.2,1.5,29.1,1.2,5.1,5.4,10.8,7.2,13.5.9,3,1.5,6,2.4,8.7-3.6,25.8-6.9,51.6-10.2,77.7-.9,6.6-1.8,12.9-2.7,19.5l-3,19.5-5.4,39c-.3,1.8.9,3.3,2.7,3.6h.6c13.8,0,27.6,0,41.4-.3l41.4-.6,81-1.8c.3-.9,0-1.5.3-1.8v-12c.3-6.3.3-10.8,0-15.3h0ZM357.3,656.7l5.1-35.4,2.7-19.5c.9-6.6,1.8-12.9,2.4-19.5,3-26.1,5.7-52.2,8.4-78.3v-.6c-1.2-3.6-2.4-7.5-3.6-11.4-.9-3.9-2.1-7.5-2.7-11.4-.6-6.3-.9-12.9-.9-19.5,2.4,4.2,5.1,7.8,8.1,11.4,3.9,4.8,9.3,8.1,14.1,11.4,9,6.3,18,12.3,27,18.6.3.3.6.3.9.6-.6.3-1.2.9-2.1,1.2l-3.3,2.1-.3.3c-3.9,2.1-7.5,4.2-11.1,6.9-5.7-4.8-11.4-9.6-16.8-14.7,6,7.5,12.6,14.7,19.5,21.3,3.3,3.3,6.9,6.6,10.8,9.9,3.3,2.7,6.3,5.1,9.9,7.5-4.2,9.3-7.8,18.3-11.4,27.9-3.6,10.2-7.2,20.4-9.9,30.9-3,10.2-5.4,21-7.5,31.5-1.8,9.6-3.3,19.5-3.9,29.1-12,0-23.7,0-35.4-.3h0ZM434.7,657.9l-40.5-.6h-1.5c2.4-9.6,4.5-18.9,7.2-28.5,2.7-10.2,6-20.7,9.3-30.6,3.3-10.2,6.6-20.4,10.5-30.3,3.6-9.9,7.5-20.1,11.7-29.7.6-1.2,0-2.7-1.2-3.3-3.9-2.1-7.8-4.8-11.7-7.8-3.9-2.7-7.5-5.7-11.1-9-1.5-1.2-3-2.7-4.5-3.9,3.9-1.2,7.8-3,11.7-4.5l45,17.1,22.5,8.7,5.7,2.4,2.7,1.2c.9.3,1.5.6,2.1,1.2,2.4,1.8,3.9,5.4,4.2,8.7,0,.9.6,1.5,1.2,1.8-4.2,7.8-8.1,15.6-11.4,24-3.6,9-6.3,18.3-8.7,27.6-2.1,9.3-4.2,18.9-5.1,28.5-1.2,9.3-1.8,18.3-1.8,27.6l-36.3-.6h0ZM470.7,658.8c.6-4.5.9-8.7,1.8-13.2.6-4.8,1.5-9.6,2.1-14.4,1.8-9.6,3.6-18.9,5.7-28.2,2.1-9.3,4.8-18.6,7.8-27.6l2.4-6.9,2.7-6.6c1.2-3.6,3-7.2,4.5-11.1h.3l4.8,1.2c1.8,8.4,3.9,16.8,5.4,25.5,1.5,9,3,18,4.2,27.3,1.2,9,2.1,18.3,2.7,27.3.3,4.5.9,9.3,1.2,13.8l.3,6.9.3,3.3v1.8c0,.6,0,1.2.3,1.5l-46.5-.6h0Z"/>
        </g>
        <g id="svga-group-head">
          <g id="svga-group-ears-left-move">
            <g id="svga-group-ears-left">
              <path id="SvgjsPath12178" class="cls-15" d="M193.2,292.2s-12.6-13.2-16.2-17.4c-3.9-4.2-8.7-13.2-14.1-11.7s-3.6,7.8-3.9,16.2c-.3,8.7.9,25.8,6.3,35.1s8.1,12.6,9.9,22.5,7.8,11.7,11.4,9,12-19.8,12.3-28.8c.3-8.7-3.3-21-5.7-24.9h0Z"/>
              <path id="SvgjsPath12179" class="cls-7" d="M195.9,298.2c.6,2.1,1.2,4.2,1.8,6.6,1.2,4.5,1.8,9,1.8,13.8s-.6,4.5-.9,6.6c-.6,2.1-1.2,3.9-1.8,6-1.5,3.9-3,7.2-4.8,10.5-.9,1.8-1.8,3.3-3,4.8-.6.6-1.2,1.5-2.1,2.1s-1.8.9-2.7.9c-1.8.3-3.9-.3-5.7-1.8-1.8-1.5-3.3-3.9-3.9-6.3l-.6-1.8-.3-1.8c-.3-1.2-.3-2.1-.6-3.3-.3-2.1-.9-4.2-1.8-6-1.5-3.9-3.6-7.5-5.7-11.4-1.2-1.8-2.1-3.9-3-6.3-.9-2.1-1.2-4.5-1.8-6.6-.9-4.5-1.5-9-2.1-13.5-.3-4.5-.6-9-.6-13.2s-.3-4.2-.3-6.6,0-2.4.3-3.6c.3-1.2.6-2.4,1.2-3.3.6-.9,1.5-1.5,2.4-1.8s1.8-.6,2.7-.3c2.1.3,3.9,1.5,5.4,3,3,3,5.4,6.9,7.8,9.6,5.4,6.3,10.5,12.6,15.9,18.3.9,1.2,1.8,3.3,2.4,5.4h0ZM176.4,276c-3-3-5.4-6.3-8.1-8.7-1.2-1.2-2.7-2.1-3.9-2.1s-2.7.3-3.3,1.2c-.9.9-1.2,2.7-1.2,4.8v6.6c0,2.4-.3,4.2-.3,6.6s0,4.2.3,6.6c.3,4.5.9,8.7,2.1,13.2,1.2,4.2,2.7,8.4,5.1,11.7,2.1,3.6,4.8,6.9,6.6,11.4.9,2.1,1.8,4.5,2.4,6.6.3,1.2.6,2.4.9,3.3l.3,1.5.3,1.5c.6,1.8,1.5,3.3,2.7,4.2s2.4,1.2,3.6.9c.6,0,1.2-.3,1.8-.6.6-.3.9-.9,1.5-1.5.9-1.2,1.8-2.7,2.7-4.2,1.8-3,3.3-6.3,4.8-9.9,1.5-3.6,2.7-6.9,3.3-10.8.6-3.9,0-8.4-.6-12.9-.3-2.1-.9-4.5-1.5-6.6s-1.5-4.2-2.4-6c-5.7-6.3-11.4-11.4-17.1-16.8Z"/>
              <path id="SvgjsPath12180" class="cls-10" d="M160.2,276.6c1.5-5.4,6-2.7,8.7,1.2,5.1,7.5,9,18.6,10.2,28.2,0,.3-.3.6-.3.3-.3.3-.6.3-.6-.3-3.3-1.2-4.5-.6-3.6,2.1,0,.9.3,1.8.9,2.4.6,1.5,1.5,3,2.4,4.2,1.5,2.4,3.3,4.2,4.8,6.6.6.9,0,1.5-.6,1.2-3.9-2.7-10.8-12.3-9-18.6.6-2.4,2.7-3,4.2-1.8-3-10.2-11.1-33.9-16.2-24.9-.3.3-.9-.3-.9-.6h0Z"/>
              <path id="SvgjsPath12181" class="cls-10" d="M168.3,277.8c-3,5.7-3.9,12.3-2.4,20.1.9,4.2,8.4,26.7,13.8,23.7.6-.3,1.2.9.6,1.5-5.7,5.1-12-12.6-13.8-18.3-3.3-9.6-3.9-21,1.5-27.3,0-.3.6,0,.3.3Z"/>
            </g>
          </g>
          <g id="svga-group-ears-right-move">
            <g id="svga-group-ears-right">
              <path id="SvgjsPath12182" class="cls-15" d="M406.8,292.2s12.6-13.2,16.2-17.4c3.9-4.2,8.7-13.2,14.1-11.7s3.6,7.8,3.9,16.2c.3,8.7-.9,25.8-6.3,35.1s-8.1,12.6-9.9,22.5-7.8,11.7-11.4,9-12-19.8-12.3-28.8c-.3-8.7,3.3-21,5.7-24.9h0Z"/>
              <path id="SvgjsPath12183" class="cls-7" d="M406.8,292.2c5.4-5.7,10.5-12,15.9-18.3,2.4-3,4.5-6.9,7.8-9.6,1.5-1.5,3.3-2.7,5.4-3,.9,0,1.8,0,2.7.3.9.3,1.8.9,2.4,1.8.6.9,1.2,2.1,1.2,3.3.3,1.2.3,2.4.3,3.6,0,2.4-.3,4.5-.3,6.6,0,4.2-.3,9-.6,13.2-.3,4.5-.9,9-2.1,13.5-.6,2.1-1.2,4.5-1.8,6.6-.9,2.1-1.8,4.2-3,6.3-2.1,3.9-4.2,7.5-5.7,11.4-.9,1.8-1.2,3.9-1.8,6-.3.9-.3,2.1-.6,3.3l-.3,1.8-.6,1.8c-.9,2.4-2.1,4.8-3.9,6.3s-3.9,2.1-5.7,1.8c-.9,0-1.8-.3-2.7-.9-.9-.6-1.5-1.2-2.1-2.1-1.2-1.5-2.1-3-3-4.8-1.8-3.3-3.6-6.9-4.8-10.5-.6-1.8-1.2-3.9-1.8-6-.6-2.1-.9-4.2-.9-6.6,0-4.8.9-9.3,1.8-13.8.6-2.1,1.2-4.5,1.8-6.6.3-1.5,1.2-3.6,2.4-5.4h0ZM406.8,292.5c-.9,1.8-1.8,3.9-2.4,6s-1.2,4.2-1.5,6.6c-.6,4.2-1.2,9-.6,12.9s2.1,7.5,3.3,10.8c1.5,3.3,3,6.9,4.8,9.9s1.8,3,2.7,4.2c.6.6.9,1.2,1.5,1.5s1.2.6,1.8.6c1.2.3,2.4,0,3.6-.9s2.1-2.4,2.7-4.2l.3-1.5.3-1.5c.3-1.2.6-2.4.9-3.3.6-2.4,1.2-4.5,2.4-6.6,1.8-4.2,4.5-7.8,6.6-11.4,2.4-3.3,3.9-7.5,5.1-11.7s1.8-8.7,2.1-13.2c0-2.1.3-4.5.3-6.6s-.3-4.2-.3-6.6v-6.6c0-2.1-.3-3.9-1.2-4.8-.9-.9-2.1-1.2-3.3-1.2s-2.7.9-3.9,2.1c-2.7,2.4-5.1,5.7-8.1,8.7-6,5.7-11.7,10.8-17.1,16.8h0Z"/>
              <path id="SvgjsPath12184" class="cls-10" d="M439.8,276.6c-1.5-5.4-6-2.7-8.7,1.2-5.1,7.5-9,18.6-10.2,28.2,0,.3.3.6.3.3.3.3.6.3.6-.3,3.3-1.2,4.5-.6,3.6,2.1,0,.9-.3,1.8-.9,2.4-.6,1.5-1.5,3-2.4,4.2-1.5,2.4-3.3,4.2-4.8,6.6-.6.9,0,1.5.6,1.2,3.9-2.7,10.8-12.3,9-18.6-.6-2.4-2.7-3-4.2-1.8,3-10.2,11.1-33.9,16.2-24.9.3.3.9-.3.9-.6h0Z"/>
              <path id="SvgjsPath12185" class="cls-10" d="M431.7,277.8c3,5.7,3.9,12.3,2.4,20.1-.9,4.2-8.4,26.7-13.8,23.7-.6-.3-1.2.9-.6,1.5,5.7,5.1,12-12.6,13.8-18.3,3.3-9.6,3.9-21-1.5-27.3,0-.3-.6,0-.3.3Z"/>
            </g>
          </g>
          <g id="svga-group-faceshape-wrap">
            <g id="svga-group-faceshape-single">
              <path id="SvgjsPath12650" class="cls-15" d="M423,265.2c0,90.9-56.7,195.6-123,195.6s-123-104.7-123-195.6,56.7-141,123-141,123,49.8,123,141h0Z"/>
              <path id="SvgjsPath12651" class="cls-16" d="M300,123.9c-66.3,0-123.3,50.1-123.3,141s57,196.5,123.3,196.5,123.3-105.6,123.3-196.5-57-141-123.3-141h0ZM384.6,164.7l2.4,2.4c.9.9,1.5,1.8,2.4,2.7.9.9,1.5,1.8,2.4,2.7l2.1,2.7c.6.9,1.5,1.8,2.1,2.7l2.1,3,.9,1.5.9,1.5c1.2,2.1,2.7,3.9,3.6,6l1.8,3c.6.9,1.2,2.1,1.5,3l1.5,3.3,1.5,3.3c.6,1.2.9,2.1,1.5,3.3l1.2,3.3c6.9,17.7,9.6,37.2,9.9,56.1,0,19.2-2.7,38.4-7.8,56.7-2.4,9.3-5.7,18.3-9.3,27-3.6,8.7-7.5,17.4-12,25.8s-9.3,16.5-14.4,24.3c-2.7,3.9-5.4,7.8-8.1,11.4-2.7,3.6-5.7,7.2-9,10.8-6,6.9-12.9,13.2-20.1,18.9-7.2,5.4-15,9.9-23.4,12.9s-8.4,2.7-12.9,3c-4.5.6-8.7.6-13.2.3-9-.6-17.7-3.6-25.8-7.8-8.1-4.2-15.9-9.9-22.8-16.2-6.9-6.3-13.2-13.5-18.9-21.3s-10.8-15.9-15-24.3c-4.5-8.4-8.4-17.1-11.7-26.1-1.8-4.5-3.3-9-4.8-13.5s-2.7-9-3.9-13.8c-2.4-9.3-4.2-18.6-5.4-27.9-1.2-9.3-2.1-18.9-2.4-28.2,0-4.8,0-9.3.3-14.1,0-2.4.3-4.8.3-6.9l.6-6.9c.9-9.3,2.7-18.6,5.1-27.3,2.4-9,5.4-17.7,9.6-25.8.6-1.2.9-2.1,1.5-3l1.5-3c1.2-2.1,2.4-3.9,3.6-6,1.2-1.8,2.4-3.9,3.9-5.7l2.1-2.7.9-1.5,1.2-1.2c5.7-7.2,12.3-13.5,19.5-18.9s15-9.9,23.4-13.5,17.1-6,25.8-7.5c2.1-.6,4.5-.6,6.6-.9,1.2-.3,2.4-.3,3.3-.3l3.3-.3c2.4,0,4.5-.3,6.9-.3h6.9l3.3.3c1.2,0,2.4.3,3.3.3s2.4.3,3.3.3l3.3.6,1.8.3,1.8.3,3.3.6c1.2.3,2.1.6,3.3.9s2.1.6,3.3.9c4.2,1.2,8.7,2.7,12.9,4.5s8.4,3.6,12.3,6c8.1,4.5,15.6,9.9,22.2,16.2l1.2,1.2,1.5.9h0Z"/>
            </g>
          </g>
          <g id="svga-group-mouth-single-move">
            <g id="svga-group-mouth-single">
              <path id="SvgjsPath12163" class="cls-17" d="M261.9,392.7s8.7-2.4,14.1-4.5,11.7-3.9,15.3-2.7,8.7,4.5,11.1,4.5c2.4-.3,6.6-2.7,9.9-3.9,3.3-1.2,9.6-.3,17.4,3,7.8,3.3,13.5,4.5,13.5,4.5,0,0-18.6,12.9-25.5,15.3-5.1,1.8-24.3.3-29.1-.3s-16.5-7.8-20.1-10.5-6.6-5.4-6.6-5.4h0Z"/>
              <path id="SvgjsPath12164" class="cls-13" d="M255.3,393c6.3,3.6,13.5,3,20.4,2.1,5.1-.6,9.9-.9,14.7,1.2,3,1.2,5.7,3.6,9,4.2,6.3.9,12-4.8,18-6,9.3-1.5,19.2.6,28.5.3,3,0,2.4-4.5-.6-4.2-8.1,1.2-16.2-.6-24.3.6-8.1,1.2-16.8,9.6-24.9,6.3-5.7-2.4-9.6-5.1-16.2-5.7-8.1-.9-15.9,0-23.7-2.1-1.5-.3-2.4,2.4-.9,3.3h0Z"/>
              <path id="SvgjsPath12165" class="cls-11" d="M331.2,397.8c-3.9,2.1-7.5,4.5-11.7,6-3.6,1.2-7.5,2.1-11.4,2.7-.6,0-.3.9,0,.9,8.4.6,18-2.4,24-8.4.3-.6-.3-1.5-.9-1.2h0Z"/>
              <path id="SvgjsPath12166" class="cls-11" d="M311.7,388.5c3.6-.6,6.6-.3,10.2.3.6,0,.6-.6.3-.9-3.3-1.8-7.2-1.5-10.5-.3-.9,0-.6.9,0,.9Z"/>
            </g>
          </g>
          <g id="svga-group-eyes-left-move">
            <g id="svga-group-eyes-left">
              <g id="svga-group-eyesback-left">
                <path id="SvgjsPath12313" class="cls-23" d="M272.7,303.9s-.9-7.5-3-11.4-11.1-13.2-21-15c-14.7-3-27.9,5.1-27.9,5.1,0,0,0,7.2,4.5,12.3,4.2,5.1,11.7,7.8,14.7,8.1s13.8.9,19.5,0c3.9-.6,8.4-.6,10.2,0,1.5.6,3,.9,3,.9h0Z"/>
              </g>
              <g id="svga-group-eyesiriswrapper-left">
                <g id="svga-group-eyesiriscontrol-left">
                  <g id="svga-group-eyesiris-left">
                    <path id="SvgjsPath12251" class="cls-21" d="M246,273c9,0,16.2,7.2,16.2,16.2s-7.2,16.2-16.2,16.2-16.2-7.2-16.2-16.2,7.2-16.2,16.2-16.2Z"/>
                    <path id="SvgjsPath12252" class="cls-3" d="M246,273.9c8.4,0,15.6,6.9,15.6,15.6s-6.9,15.6-15.6,15.6-15.6-6.9-15.6-15.6,6.9-15.6,15.6-15.6M246,272.4c-9.3,0-17.1,7.8-17.1,17.1s7.8,17.1,17.1,17.1,17.1-7.8,17.1-17.1-7.8-17.1-17.1-17.1Z"/>
                    <path id="SvgjsPath12253" class="cls-5" d="M237.3,294c0,3.9,1.5,7.5,4.2,10.2,1.5.6,3,.6,4.5.6,8.4,0,15.6-6.9,15.6-15.6s-.9-6-2.7-8.4c-2.1-1.2-4.5-1.8-6.9-1.8-8.1,0-14.7,6.6-14.7,15h0Z"/>
                    <path id="SvgjsPath12254" class="cls-14" d="M246,280.8c4.5,0,8.4,3.9,8.4,8.4s-3.9,8.4-8.4,8.4-8.4-3.9-8.4-8.4,3.9-8.4,8.4-8.4Z"/>
                    <path id="SvgjsPath12255" class="cls-23" d="M242.1,280.8c1.5,0,3,1.2,3,3s-1.2,3-3,3-3-1.2-3-3,1.5-3,3-3ZM251.7,294c.6,0,1.2.6,1.2,1.2s-.6,1.2-1.2,1.2-1.2-.6-1.2-1.2.6-1.2,1.2-1.2Z"/>
                    <path id="SvgjsPath12256" class="cls-3" d="M246,304.8c.9,0,1.5,0,2.4-.3-.6,0-.9-.6-1.2-1.2-.3.9-.9,1.2-1.2,1.5-.9,0-1.5-.6-1.5-1.2-.3.6-1.2.9-1.8.6-.6-.3-1.2-.9-1.2-1.5-.6.6-1.2.6-1.8.3s-.9-.9-.9-1.5c-.6.6-1.5.3-2.1,0s-.6-1.5-.3-2.1c-.6.6-1.5.3-2.1,0-.6-.6-.6-1.5,0-2.1-.9.3-1.5-.3-2.1-.9,2.4,5.1,7.8,8.4,13.8,8.4h0ZM231.9,295.8s0-.3,0,0c0-.3,0,0,0,0ZM258.9,297.9c-.3.3-.9.6-1.5.6.3,1.2-.9,2.4-2.4,2.4.3.6,0,1.2-.6,1.8-.6.3-1.2.3-1.8,0,0,.6-.3,1.2-.9,1.5-.6.3-1.5,0-1.8-.6,0,.6-.3,1.2-.6,1.5,3.9-1.5,7.5-3.9,9.6-7.2ZM253.2,276.3c.9-.3,1.8.6,1.5,1.5.9-.6,2.4.9,1.8,1.8.6-.3,1.2,0,1.2.6.3.6.3,1.2-.3,1.5.6,0,1.5.3,1.8.9s.3,1.5-.3,2.1c.6,0,1.2.6,1.5,1.2.3.6,0,1.5-.6,1.8.6.3.9.9.9,1.5s-.3,1.2-.9,1.5c.6.3.9.9.9,1.5s-.6,1.2-1.2,1.2c.9.6.3,2.4-.6,2.4.3.3.3.9.3,1.5,1.5-2.4,2.1-5.1,2.1-7.8,0-6.3-3.6-11.4-8.7-14.1.3,0,.6.6.6.9h0ZM251.4,275.4c.3-.3.6-.3.9,0-1.5-.6-3-1.2-4.5-1.2v.3c1.2-.6,2.7,0,3.6.9ZM234.6,296.7c.6,0,.9-.3,1.2-.6.6-.3.9-.6,1.5-.9v-.3c-.6.3-.9.3-1.2.6-.6.6-1.2.9-1.5,1.2ZM231,292.2c.3,0,.9,0,1.2-.3.6,0,.9-.3,1.5-.3s0-.3,0-.3c-.6,0-.9,0-1.5.3-.3,0-.9,0-1.2.6,0-.3,0,0,0,0ZM232.5,284.7c1.2.6,2.4.9,3.6,1.2,0,0,.3,0,0-.3-.9-.6-2.4-.9-3.6-.9,0-.3,0,0,0,0ZM233.1,282.3c.6.6,1.2.9,2.1,1.2,0,0,.3,0,0-.3-.6-.3-1.5-.6-2.1-.9,0-.3-.3,0,0,0ZM244.5,302.4c.3-.9.6-2.1.6-3,0,0-.3-.3-.3,0-.3.9-.3,2.1-.3,3-.3,0,0,0,0,0ZM255,290.1c.9.3,2.1.3,3.3.6v-.3c-.9,0-2.1-.3-3.3-.3ZM255.9,288c.9,0,2.1.3,3,0v-.3c-1.2,0-2.1,0-3,.3ZM256.2,279.9c-.9.6-2.1,1.5-2.7,2.4,0,0,0,.3,0,0,.9-.9,2.1-1.5,2.7-2.4.3,0,.3-.3,0,0ZM247.5,276c-.3.9-.6,1.5-.6,2.4s.3.3.3,0c.3-.9.6-1.5.3-2.4q.3-.3,0,0ZM238.8,276.9c.3.6.6,1.5.9,2.1h.3c-.3-.9-.6-1.5-1.2-2.1q0-.3,0,0Z"/>
                  </g>
                </g>
              </g>
              <g id="svga-group-eyesfront-left">
                <path id="SvgjsPath12321" class="cls-15" d="M212.2,294.1c0,20.7,14.8,37.5,33.1,37.5s33.1-16.8,33.1-37.5-14.8-37.5-33.1-37.5-33.1,16.8-33.1,37.5h0ZM220.8,282.8s13.3-8.1,28-5.2c9.9,1.9,18.6,11.2,20.8,15.1,2.2,3.8,3.1,11.5,3.1,11.5,0,0-1.6-.4-3.3-1-1.7-.5-6.2-.6-10.2.1-5.7,1-16.4.5-19.3.1-3-.4-10.5-3.2-14.8-8.2-4.2-5.1-4.3-12.3-4.3-12.3Z"/>
                <path id="SvgjsPath12322" class="cls-4" d="M219.8,283.9c-.3,1.3-.4,2.5-.2,3.8-1.7,0-3.6.2-4.8,1.3-.4.4,0,1,.5.9.9-.2,1.7-.6,2.6-.8.6-.2,1.3-.2,1.9-.2.2.6.4,1.3.7,1.9-.5.2-1,.4-1.5.6-1.1.5-2.2,1.3-3,2.3-.3.5.3.8.7.7,1-.5,2-1.1,3.1-1.7.5-.2,1-.4,1.5-.5.5.8,1,1.6,1.7,2.4-1.2.7-2.3,1.7-2.7,3.1,0,.3.3.6.6.5,1.1-.7,2-1.7,2.9-2.6,3.3,3.7,8,6.5,11.8,7.7,5.6,1.9,11.8,2.2,17.7,1.9,5.5-.3,14.2-3.4,19.3-.6.2.1.4,0,.5,0h0c0-.1,0-.2,0-.3s0,0,0,0c-.3-12.2-7.9-22.5-19.2-26.9-6.2-2.5-13.1-3.1-19.7-2.1-7.8,1.2-14.6,5-22.6,4.3-.7,0-1,.9-.5,1.3,2.7,2.6,5.7,3.4,8.7,3.2h0ZM221.8,283.7c6-1,12.3-4.6,18.3-5,15.4-1.1,30.2,9,32.1,24.7-7.2-2.5-15.4-.3-22.8-.5-6-.1-12.4-1-17.7-4-6.6-3.8-7.8-8.8-9.9-15.2Z"/>
              </g>
            </g>
          </g>
          <g id="svga-group-eyes-right-move">
            <g id="svga-group-eyes-right">
              <g id="svga-group-eyesback-right">
                <path id="SvgjsPath12314" class="cls-23" d="M327.3,303.9s.9-7.5,3-11.4,11.1-13.2,21-15c14.7-3,27.9,5.1,27.9,5.1,0,0,0,7.2-4.5,12.3-4.2,5.1-11.7,7.8-14.7,8.1s-13.8.9-19.5,0c-3.9-.6-8.4-.6-10.2,0-1.5.6-3,.9-3,.9h0Z"/>
              </g>
              <g id="svga-group-eyesiriswrapper-right">
                <g id="svga-group-eyesiriscontrol-right">
                  <g id="svga-group-eyesiris-right">
                    <path id="SvgjsPath12257" class="cls-21" d="M354,273c9,0,16.2,7.2,16.2,16.2s-7.2,16.2-16.2,16.2-16.2-7.2-16.2-16.2,7.2-16.2,16.2-16.2Z"/>
                    <path id="SvgjsPath12258" class="cls-3" d="M354,273.9c8.4,0,15.6,6.9,15.6,15.6s-6.9,15.6-15.6,15.6-15.6-6.9-15.6-15.6,7.2-15.6,15.6-15.6M354,272.4c-9.3,0-17.1,7.8-17.1,17.1s7.8,17.1,17.1,17.1,17.1-7.8,17.1-17.1-7.5-17.1-17.1-17.1Z"/>
                    <path id="SvgjsPath12259" class="cls-5" d="M345.3,294c0,3.9,1.5,7.5,4.2,10.2,1.5.6,3,.6,4.5.6,8.4,0,15.6-6.9,15.6-15.6s-.9-6-2.7-8.4c-2.1-.9-4.2-1.8-6.9-1.8-8.1,0-14.7,6.6-14.7,15h0Z"/>
                    <path id="SvgjsPath12260" class="cls-14" d="M354,280.8c4.5,0,8.4,3.9,8.4,8.4s-3.9,8.4-8.4,8.4-8.4-3.9-8.4-8.4,3.9-8.4,8.4-8.4Z"/>
                    <path id="SvgjsPath12261" class="cls-23" d="M350.4,280.8c1.5,0,3,1.2,3,3s-1.2,3-3,3-3-1.2-3-3,1.2-3,3-3ZM360,294c.6,0,1.2.6,1.2,1.2s-.6,1.2-1.2,1.2-1.2-.6-1.2-1.2.6-1.2,1.2-1.2Z"/>
                    <path id="SvgjsPath12262" class="cls-3" d="M354,304.8c.9,0,1.5,0,2.4-.3-.6,0-.9-.6-1.2-1.2,0,.9-.6,1.2-1.2,1.5-.9,0-1.5-.6-1.5-1.2-.3.6-1.2.9-1.8.6-.6-.3-1.2-.9-1.2-1.5-.6.6-1.2.6-1.8.3s-.9-.9-.9-1.5c-.6.6-1.5.3-2.1,0s-.6-1.5-.3-2.1c-.6.6-1.5.3-2.1,0-.6-.6-.6-1.5,0-2.1-.6,0-1.5-.3-2.1-.9,2.7,5.1,7.8,8.4,13.8,8.4h0ZM339.9,295.8s0-.3,0,0c0-.3,0,0,0,0ZM366.9,297.9c-.3.3-.9.6-1.5.6.3,1.2-.9,2.4-2.4,2.4.3.6,0,1.2-.6,1.8-.6.3-1.2.3-1.8,0,0,.6-.3,1.2-.9,1.5-.6.3-1.5,0-1.8-.6,0,.6-.3,1.2-.6,1.5,4.2-1.5,7.5-3.9,9.6-7.2ZM361.2,276.3c.9-.3,1.8.6,1.5,1.5.9-.6,2.4.9,1.8,1.8.6-.3,1.2,0,1.2.6.3.6.3,1.2-.3,1.5.6,0,1.5.3,1.8.9s.3,1.5-.3,2.1c.6,0,1.2.6,1.5,1.2.3.6,0,1.5-.6,1.8.6.3.9.9.9,1.5s-.3,1.2-.9,1.5c.6.3.9.9.9,1.5s-.6,1.2-1.2,1.2c.9.6.3,2.4-.6,2.4.3.3.3.9.3,1.5,1.5-2.4,2.1-5.1,2.1-7.8,0-6.3-3.6-11.4-8.7-14.1.6,0,.6.6.6.9h0ZM359.7,275.4c.3-.3.6-.3.9,0-1.5-.6-3-1.2-4.5-1.2v.3c1.2-.6,2.7,0,3.6.9ZM342.9,296.7c.6,0,.9-.3,1.2-.6.6-.3.9-.6,1.5-.9v-.3c-.6.3-.9.3-1.2.6-.6.6-1.2.9-1.5,1.2-.3,0,0,0,0,0ZM339.3,292.2c.3,0,.9,0,1.2-.3.6,0,.9-.3,1.5-.3s0-.3,0-.3c-.6,0-.9,0-1.5.3-.6,0-.9,0-1.2.6-.3-.3-.3,0,0,0ZM340.8,284.7c1.2.6,2.4.9,3.6,1.2,0,0,.3,0,0-.3-1.2-.6-2.4-.9-3.6-.9,0-.3-.3,0,0,0ZM341.1,282.3c.6.6,1.2.9,2.1,1.2,0,0,.3,0,0-.3s-1.2-.6-2.1-.9c0-.3,0,0,0,0ZM352.5,302.4c.3-.9.6-2.1.6-3,0,0-.3-.3-.3,0,0,.9-.3,2.1-.3,3ZM363.3,290.1c.9.3,2.1.3,3.3.6v-.3c-1.2,0-2.4-.3-3.3-.3ZM363.9,288c.9,0,2.1.3,3,0v-.3c-.9,0-1.8,0-3,.3ZM364.5,279.9c-.9.6-2.1,1.5-2.7,2.4,0,0,0,.3,0,0,.9-.9,1.8-1.5,2.7-2.4.3,0,0-.3,0,0ZM355.8,276c-.3.9-.6,1.5-.6,2.4s.3.3.3,0c.3-.9.3-1.5.3-2.4.3-.3,0-.3,0,0ZM347.1,276.9c.3.6.6,1.5.9,2.1h.3c-.3-.9-.9-1.5-1.2-2.1q0-.3,0,0Z"/>
                  </g>
                </g>
              </g>
              <g id="svga-group-eyesfront-right">
                <path id="SvgjsPath12323" class="cls-15" d="M354.8,256.6c-18.2,0-33.1,16.8-33.1,37.5s14.8,37.5,33.1,37.5,33.1-16.8,33.1-37.5-14.8-37.5-33.1-37.5h0ZM374.8,295c-4.3,5-11.8,7.8-14.8,8.2-3,.4-13.7.9-19.3-.1-4-.7-8.5-.6-10.2-.1-1.7.5-3.3,1-3.3,1,0,0,.9-7.6,3.1-11.5,2.2-3.8,11-13.1,20.8-15.1,14.8-2.9,28,5.2,28,5.2,0,0,0,7.3-4.3,12.3h0Z"/>
                <path id="SvgjsPath12326" class="cls-4" d="M388.9,280.7c.4-.5.1-1.4-.5-1.3-8,.7-14.9-3.2-22.6-4.3-6.6-1-13.5-.4-19.7,2.1-11.3,4.4-18.9,14.7-19.2,26.9,0,0,0,0,0,0,0,0,0,.1,0,.2h0c.1.2.3.3.5.1,5.1-2.8,13.7.3,19.3.6,5.9.3,12.1,0,17.7-1.9,3.8-1.2,8.4-4,11.8-7.7.9.9,1.8,1.9,2.9,2.6.3.2.7-.1.6-.5-.4-1.3-1.5-2.4-2.7-3.1.6-.8,1.2-1.6,1.7-2.4.5.2,1,.3,1.5.5,1,.5,2,1.2,3.1,1.7.4.2,1-.2.7-.7-.8-1-1.8-1.8-3-2.3-.5-.2-1-.5-1.5-.6.3-.6.5-1.3.7-1.9.6,0,1.3,0,1.9.2.9.2,1.7.6,2.6.8.5,0,.9-.5.5-.9-1.1-1.2-3.1-1.4-4.8-1.3.2-1.2.1-2.5-.2-3.8,3.1,0,6-.7,8.7-3.2h0ZM368.3,298.9c-5.3,3.1-11.7,3.9-17.7,4-7.4.2-15.6-2-22.8.5,2-15.7,16.7-25.8,32.1-24.7,5.9.4,12.3,4.1,18.3,5-2,6.4-3.2,11.4-9.9,15.2Z"/>
              </g>
            </g>
          </g>
          <g id="svga-group-eyebrows-left-move">
            <g id="svga-group-eyebrows-left-rotate">
              <g id="svga-group-eyebrows-left">
                <path id="SvgjsPath12367" class="cls-12" d="M218.7,252.6c.3-.6,1.2-.9,1.8-1.2s1.2-.6,1.8-.6c1.2-.6,2.4-1.2,3.6-1.5,1.5-.3,3.6-1.5,5.1-.6,4.8-1.8,11.1-.6,15.3,1.8,5.7.6,11.7,2.4,15.9,5.4.3.3.6.6.6.9.9.3,1.5.6,2.4.9,3,1.2,6.3,2.1,9.3,3.6.3,0,.6.3.9.3.9.3,1.2,2.1.6,2.4-.3.3-.3.6-.6.9-2.4,1.8-5.4.6-7.8-.3-2.1-.9-4.5-1.8-6-3.6-2.4-.9-4.2-2.1-6.3-3.3-.3,0-.6-.3-.9-.3-3.6-.6-7.5-2.1-11.1-3.9-2.1-.3-3.9-.9-6-.9-2.7-.3-5.4.6-8.4-.3h-.3c-.6.3-1.2.3-1.8.6-2.4.6-4.5,1.2-6.9,1.2s-.6-.3-.6-.6h-.3s-.6-.3-.3-.9h0Z"/>
                <path id="SvgjsPath12368" class="cls-20" d="M232.2,246.9c9.3-.6,18.6,4.5,27,7.8,5.1,2.1,15.6,2.7,17.7,9,.3.9-.9,1.2-1.5.6-2.7-3.6-7.2-4.2-11.4-5.4-3.6-1.2-6.9-2.4-10.5-3.9-7.2-3-14.4-4.8-21.9-6.6-.3-.3,0-1.2.6-1.5h0Z"/>
                <path id="SvgjsPath12369" class="cls-25" d="M279.9,263.7c.9-4.2-5.4-5.7-8.4-6.9-7.2-3-14.7-6.3-22.2-8.4-4.5-1.2-9.3-2.1-13.8-2.1s-6.9.3-10.5,1.5c-6,1.8-11.7,5.4-16.8,9.3-2.7,1.5-5.4,3.6-7.5,5.7-.3.3,0,.9.6.6,0,0,.3,0,.3-.3,0,.3.3.3.6.3,4.5-2.1,8.4-4.8,12.9-6.6s9.3-3,14.1-3.3h2.1c5.7,0,11.1,1.2,16.2,3.6,7.2,3.3,13.8,7.8,21,10.5,1.2.6,2.7.6,4.2.6,3.3,0,6.6-1.2,7.2-4.5h0ZM235.5,249c4.8,0,9.6,1.2,14.4,2.7,6,2.1,12,4.8,18,7.2,1.2.6,7.2,2.1,7.8,3.6.6,1.8-.6,2.4-2.4,2.7-.9,0-1.8-.3-2.4-.3-1.8-.6-3.6-1.8-5.1-2.7-9.3-4.8-18.9-10.5-29.4-11.1h-3c-3.3,0-6.9.3-10.5.9,1.5-.6,3-1.2,4.8-1.8,2.4-.9,5.1-1.2,7.8-1.2h0Z"/>
              </g>
            </g>
          </g>
          <g id="svga-group-eyebrows-right-move">
            <g id="svga-group-eyebrows-right-rotate">
              <g id="svga-group-eyebrows-right">
                <path id="SvgjsPath12370" class="cls-12" d="M381.3,252.6c-.3-.6-1.2-.9-1.8-1.2s-1.2-.6-1.8-.6c-1.2-.6-2.4-1.2-3.6-1.5-1.5-.3-3.6-1.5-5.1-.6-4.8-1.8-11.1-.6-15.3,1.8-5.7.6-11.7,2.4-15.9,5.4-.3.3-.6.6-.6.9-.9.3-1.5.6-2.4.9-3,1.2-6.3,2.1-9.3,3.6-.3,0-.6.3-.9.3-.9.3-1.2,2.1-.6,2.4.3.3.3.6.6.9,2.4,1.8,5.4.6,7.8-.3,2.1-.9,4.5-1.8,6-3.6,2.4-.9,4.2-2.1,6.3-3.3.3,0,.6-.3.9-.3,3.6-.6,7.5-2.1,11.1-3.9,2.1-.3,3.9-.9,6-.9,2.7-.3,5.4.6,8.4-.3h.3c.6.3,1.2.3,1.8.6,2.4.6,4.5,1.2,6.9,1.2s.6-.3.6-.6h.3s.6-.3.3-.9h0Z"/>
                <path id="SvgjsPath12371" class="cls-20" d="M367.8,246.9c-9.3-.6-18.6,4.5-27,7.8-5.1,2.1-15.6,2.7-17.7,9-.3.9.9,1.2,1.5.6,2.7-3.6,7.2-4.2,11.4-5.4,3.6-1.2,6.9-2.4,10.5-3.9,7.2-3,14.4-4.8,21.9-6.6.3-.3,0-1.2-.6-1.5h0Z"/>
                <path id="SvgjsPath12372" class="cls-25" d="M327,267.9c1.5,0,3-.3,4.2-.6,7.2-2.7,14.1-7.2,21-10.5,5.4-2.4,10.8-3.6,16.2-3.6h2.1c4.8.3,9.6,1.5,13.8,3.3,4.5,1.8,8.7,4.8,12.9,6.6.3,0,.6,0,.6-.3,0,0,.3,0,.3.3.6.3.9-.3.6-.6-2.1-2.1-4.8-4.2-7.5-5.7-5.1-3.9-10.8-7.2-16.8-9.3-3.3-1.2-6.9-1.5-10.5-1.5s-9.3.9-13.8,2.1c-7.5,2.1-15,5.4-22.2,8.4-2.7,1.2-9.3,2.7-8.4,6.9,1.2,3.6,4.5,4.8,7.5,4.5h0ZM372.6,250.2c1.5.6,3.3.9,4.8,1.8-3.6-.6-6.9-.9-10.5-.9h-3c-10.5.6-20.4,6.6-29.4,11.1-1.8.9-3.3,2.1-5.1,2.7-.6.3-1.5.3-2.4.3-1.5,0-3-.6-2.4-2.7.6-1.5,6.6-3,7.8-3.6,6-2.4,12-5.1,18-7.2,4.8-1.5,9.6-2.7,14.4-2.7s5.1.3,7.8,1.2h0Z"/>
              </g>
            </g>
          </g>
          <g id="svga-group-nose-single-move">
            <g id="svga-group-nose-single">
              <path id="SvgjsPath12353" class="cls-16" d="M293.2,280.1c-2.4,10-2.7,20.7-3.8,30.9-1.1,10.9-3.2,22.2-3.1,33.2,0,.9,1.3,1.1,1.6.2,2.2-10,2.5-20.7,3.5-30.9,1.1-10.9,3.2-22.2,2.8-33.2,0-.6-.8-.7-1-.2Z"/>
              <path id="SvgjsPath12354" class="cls-16" d="M284.1,338.4c-2.9,3.9-5.4,8.2-7.6,12.6-1.4,2.8-3.1,6.2-2.2,9.5,1.5,5.4,8.4,7.1,12.8,4.5,1.3-.8.7-2.8-.8-2.8-2.6,0-5.7.8-7.7-1.4-2.5-2.7,0-7.5,1.1-10.2,1.7-4,3.7-7.8,5.2-11.8.2-.6-.6-.8-.9-.4h0Z"/>
              <path id="SvgjsPath12355" class="cls-16" d="M283.7,360.6c8.1-.6,9.6,9.6,17.3,9.8,6.6.2,7.1-9.7,13.4-9.4.7,0,1-1,.4-1.3-7.1-4.2-8.4,8.2-15,7.4-3.9-.5-6.6-6.2-10.1-7.8-2.4-1.1-4.1-1-6.4,0-.6.3-.3,1.4.4,1.3h0Z"/>
              <path id="SvgjsPath12356" class="cls-16" d="M312.2,365.2c5.3,1.2,11.5-.5,12.8-6.4s-.4-5.9-1.9-8.4c-2.5-4.1-5.8-7.6-8.2-11.8-.4-.7-1.4-.4-1.4.4-.3,4.8,3.2,8.1,5.8,11.8,2.3,3.4,4.3,8.1.4,11.4-1.8,1.5-5.2,1.3-7.4,1.7-.7.2-.7,1.3,0,1.4h0Z"/>
              <path id="SvgjsPath12357" class="cls-22" d="M307,349.2c-1.2-2.1-4.2-2.4-5.9-.8s-.7.8-.8,1c-.2.2-.6.8-.6.8-.2.3-.4.6-.5.9l-.3.8s0,0,0,.2c-.2.2-.4.4-.5.6-.5.5-1,1.1-1.4,1.7-1.2,1.9-.2,4,1.4,5.2,2.5,1.9,6.1.4,7.8-1.7,2.1-2.5,2.7-5.8,1-8.7Z"/>
            </g>
          </g>
          <g id="svga-group-hair-front">
            <path id="SvgjsPath12805" class="cls-25" d="M231.3,146.4s-18.6-5.4-15.3-42,50.1-50.4,88.2-50.4,70.8,14.7,79.5,41.4c8.7,26.7,1.5,48.3-10.8,51.6s-141.6-.6-141.6-.6h0Z"/>
            <path id="SvgjsPath12806" class="cls-12" d="M404.1,164.7c-32.7-54.6-104.1-50.4-104.1-50.4,0,0-74.1-2.7-107.1,51.6-30.6,51-21.6,98.1-21.6,98.1,0,0,6.6,6.6,10.5,30.6.3,2.4,4.5,2.1,5.1-.6,1.5-7.8.6-24.6,5.7-46.8,8.4-35.4,36.6-65.7,66.9-74.4,16.2-4.8,67.5-2.7,83.7,1.8,30.3,9,54.3,36.3,62.7,71.7,5.1,21.9,5.1,39.9,6.6,47.7.6,2.4,4.5,3,5.1.6,4.2-24,10.8-29.4,10.8-29.4,0,0,6.6-49.8-24.3-100.5h0ZM387,108c-.6-3.9-1.5-8.4-3-12.6-8.7-26.7-41.4-41.4-79.5-41.4s-21.3.9-31.8,3.3c-8.7,5.1-15.9,12.3-14.7,22.2,3.3,24,25.2,25.2,57,27.9,25.8,2.1,62.4,21.3,72,.6Z"/>
            <path id="SvgjsPath12807" class="cls-25" d="M192.3,193.8c.9-14.7,5.1-28.5,11.1-41.7-3.6,4.2-7.2,8.7-10.2,13.8-16.8,27.6-21.6,54.3-22.8,72.9,1.5,17.7,6.6,36.6,17.4,49.2.3-4.5.6-10.2,1.2-17.1-5.4-15-11.1-29.1-11.4-46.8-.3-16.8,3.6-31.8,9.6-46.2-5.7,21.9-5.1,46.5,6.6,63,0,.3.3.3.6.6.9-3,2.1-6,3.3-9-2.7-12.9-6.3-25.2-5.4-38.7h0ZM212.1,143.7c-2.7,2.4-5.4,4.8-7.8,7.5-7.2,21.9-10.2,48.3-.6,68.4,1.2-2.4,2.7-4.5,4.2-6.9-.6-10.5-2.4-20.7-2.1-31.5.3-12.6,2.7-25.2,6.3-37.5h0ZM216.6,177c0-13.8,2.4-27.3,5.4-40.8-1.8,1.2-3.3,2.4-5.1,3.6-7.8,20.4-10.5,45.3-4.5,66.6,2.1-2.4,3.9-4.8,6-7.2-.9-7.5-1.8-14.7-1.8-22.2h0ZM236.4,128.1c-2.7,1.2-5.4,2.7-7.8,3.9-9.3,19.2-13.8,45-8.4,65.7,2.7-2.7,5.1-5.1,8.1-7.5-1.2-6.6-2.1-13.2-1.8-20.1.3-15,4.5-28.5,9.9-42ZM250.5,122.4c-2.4.9-5.1,1.8-7.5,2.7-9,17.1-12.9,39.9-5.7,57.9,2.1-1.5,4.2-2.7,6.3-3.9-2.4-20.1-2.4-37.2,6.9-56.7h0ZM255.6,120.9c-3.9,17.7-6.3,36.3-2.4,54,1.2-.3,2.1-.9,3.3-1.2,0-17.4-.9-34.5,2.1-51.9,0-.6-.3-1.2-.6-1.5-.9,0-1.5.3-2.4.6h0ZM274.2,116.4c-1.5.3-3,.6-4.8.9-3.3,17.4-3,36.3.6,53.7,1.5,0,3.3-.3,4.8-.3-.3-18.3-.9-36-.6-54.3h0ZM288.3,115.5c0-.3,0-.6-.3-.6-.9,0-1.5,0-2.4.3v.6c-1.5,18-1.5,36.9,3,54.6h3c-1.2-18.6-3.3-36.6-3.3-54.9ZM311.7,140.1c.6,10.2.6,20.4,1.5,30.6.9,0,2.1,0,3,.3,1.8-19.2-3-37.5-3-56.1-.9,0-1.8,0-2.7-.3-.9,8.4.6,17.1,1.2,25.5ZM335.4,123.3c1.2,16.8,0,33-2.4,49.5,1.5.3,2.7.6,4.2.6,2.7-16.5,2.7-33.3.9-50.1,0-1.8-2.7-1.8-2.7,0ZM368.4,147c.3,12.9-2.1,24.3-7.5,35.4,1.2.6,2.4,1.5,3.6,2.4,6.9-11.4,9.3-24.9,6.3-38.1,0-1.5-2.4-1.2-2.4.3h0ZM388.2,146.1c-.3-1.8-2.7-1.2-2.7.3-1.2,16.8-3,32.7-7.8,48.6l2.7,2.7c7.2-15.6,11.1-33.9,7.8-51.6h0ZM384.3,202.5c.9,1.2,2.1,2.4,3,3.9,9.6-11.7,15.9-26.4,17.1-41.4v-.3c-1.8-2.7-3.3-5.4-5.4-7.8-2.1,16.5-6.3,31.2-14.7,45.6h0ZM404.4,165c-.6,8.4-.9,16.5-3.3,24.6-2.1,6.6-5.4,15.6-10.5,21.6.9,1.5,2.1,3.3,3,4.8,5.4-4.5,9-12.6,11.7-18.3,3-6.6,4.8-14.1,5.4-21.6-2.1-3.9-4.2-7.5-6.3-11.1h0ZM410.7,179.7c-3,12.6-5.1,30.3-14.4,41.1.9,1.5,1.5,3.3,2.4,4.8,5.1-4.5,8.4-11.4,10.8-17.1,3.3-7.5,5.4-15.3,5.1-23.4-.9-2.1-1.8-4.5-3-6.6-.3,0-.9.6-.9,1.2ZM409.8,270.6c9-18.3,12.6-39.9,13.5-60.3-1.8-6.6-3.9-13.5-6.6-20.7-2.1,17.4-4.2,33.6-13.2,48.9.6,2.1,1.2,4.5,1.8,6.6,3.9-5.1,6.9-10.5,9.6-16.2-2.1,8.7-4.8,17.1-7.5,25.8,1.2,5.7,1.8,11.1,2.4,15.9h0ZM417.3,294.6c4.2-24,10.8-29.4,10.8-29.4,0,0,1.2-8.1.3-20.7h-.3c0-.6.3-1.5.3-2.4-.3-5.7-1.2-12.3-2.4-19.5-2.7,11.4-4.5,23.1-8.1,34.5-2.1,6.9-4.8,13.2-7.5,19.8.6,5.4.9,9.9,1.2,13.5.9-1.5,1.8-2.7,2.4-4.2-.6,2.1-1.5,4.5-2.1,6.6,0,.3,0,.6.3,1.2.3,2.1,3.3,2.7,4.5,1.5,0-.3.3-.3.3-.6.3,0,.3-.3.3-.3h0ZM269.1,78.3c.6-8.7,3.9-16.2,9.6-22.2l-4.5.9c-5.1,6.3-7.8,15-8.1,23.1-.3,4.5.3,11.7,2.4,18,1.2.9,2.7,1.5,4.2,2.1-3.3-6.9-3.9-16.2-3.6-21.9h0ZM341.7,112.8c9.9-10.5,19.8-31.2,16.8-46.5-1.2-.6-2.4-1.5-3.6-2.1,5.4,14.7-5.7,35.4-15.3,47.7.9.6,1.5.9,2.1.9h0ZM377.4,83.1c2.4,6,2.1,12.3-3.3,18.6-6.6,7.2-15.6,12-25.2,13.2,2.4.6,4.8.9,6.9,1.5,10.5-2.1,21.3-10.5,24.9-19.5.6-1.8,1.2-3.9,1.2-5.7-.9-3-2.7-5.7-4.5-8.1h0ZM293.1,54.3c-.9,0-1.8,0-3,.3-4.8,16.2-2.4,36.6,5.1,51,.9,0,1.5.3,2.4.3-6.9-15.3-9-34.8-4.5-51.6h0ZM328.8,109.8c10.2-15.3,14.4-35.4,7.2-52.2l-3.6-.9c7.2,17.7,3.6,35.1-5.7,52.5.6.3,1.5.3,2.1.6h0ZM314.7,107.4h.6c1.2-14.7,2.1-37.8-5.1-53.4h-3.6c7.8,15.3,6.6,37.2,6.6,53.4h1.5Z"/>
            <path id="SvgjsPath12808" class="cls-20" d="M359.7,129.6c0-.6-1.5-.6-1.2.3,1.5,12.3.3,23.7-1.5,36,0,.9,1.2,1.2,1.5.3,3.6-11.7,3-24.6,1.2-36.6h0ZM356.7,132c0-.6-.9-.6-.9,0-.6,11.4-1.8,22.5-2.7,33.6,0,.9,1.2.9,1.2.3,2.7-11.1,3.3-23.1,2.4-33.9ZM352.2,132c0-.6-1.2-.9-1.2,0,0,9.9-1.2,19.5-2.1,29.4,0,.9,1.2.9,1.5.3,2.4-9.6,2.4-20.1,1.8-29.7ZM346.2,132.9c0-.6-.9-.6-.9,0,.3,8.4-.6,16.5-.6,24.9s1.2,1.2,1.5.3c1.2-8.4.9-17.1,0-25.2h0ZM340.2,130.2c0-.3-.6-.3-.6,0,.9,6.9.9,13.5.9,20.4s.6.6.6,0c.6-6.6,0-13.5-.9-20.4ZM330.6,125.7c0-1.2-2.1-1.2-2.1,0,0,13.8-1.5,27.6-1.8,41.1,0,.9,1.5,1.2,1.8.3,3.3-13.5,3.3-27.6,2.1-41.4ZM324.3,126.3c0-.6-1.2-.6-1.2,0,0,12.3-.9,24.3-.9,36.6s1.2.9,1.2.3c1.8-12.3,1.5-24.6.9-36.9ZM318,128.7c0-.6-1.2-.6-1.2,0-.3,11.1-1.2,21.9-.6,33,0,.9,1.2.9,1.2,0,1.2-10.8.6-21.9.6-33ZM304.5,126.3c0-.9-1.2-.9-1.2,0-.9,12-1.2,24.6.3,36.6,0,1.2,1.8,1.2,1.8,0,.3-12.3-.6-24.6-.9-36.6h0ZM299.1,129.3c0-.9-1.2-.9-1.2,0-.3,10.5-1.2,21.6.3,32.4,0,.9,1.5.6,1.5-.3.3-10.8-.9-21.3-.6-32.1ZM293.1,129.9c0-1.2-1.5-.9-1.8,0-1.2,9.6-1.8,19.8,0,29.1.3.9,1.8.6,1.8-.3,0-9.6-.6-19.2,0-28.8h0ZM280.5,130.8c-1.5,11.1-2.4,22.5-.9,33.6,0,.9,1.5.9,1.5,0,0-11.1-.3-22.5.6-33.6,0-.6-1.2-.9-1.2,0h0ZM261.9,128.7c-1.2,11.4-2.1,23.1-.6,34.5,0,.6,1.2.9,1.2,0,.3-11.4.3-23.1.6-34.5,0-.9-1.2-.6-1.2,0ZM252,131.7c-2.1,11.1-3.3,23.1-2.4,34.2,0,1.2,1.8,1.2,1.8,0,.6-11.4.9-22.8,1.8-34.2,0-.6-1.2-.6-1.2,0h0ZM246.9,137.7c-2.4,9.9-3.9,20.7-2.7,30.6,0,.9,1.2.9,1.5,0,.6-10.2,1.2-20.1,2.4-30.3,0-.6-.9-.9-1.2-.3h0ZM233.4,137.1c.3-.9-.9-1.2-1.2-.3-4.5,12.3-6,25.2-3.6,38.1.3.6,1.2.6,1.2-.3-.3-12.9.6-25.2,3.6-37.5h0ZM365.7,141.6c0-1.2-1.8-1.2-1.8,0-.3,11.4-1.8,22.8-2.4,34.2,0,.9,1.5,1.2,1.5.3,3-11.4,3.3-23.4,2.7-34.5ZM377.4,142.2c0-.6-1.2-.6-1.2.3.6,12.3-.3,23.7-2.4,36-.3.9,1.2,1.2,1.5.3,3.6-11.7,4.2-24.3,2.1-36.6h0ZM380.7,155.1c0-.6-.9-.6-.9,0-.3,10.8-2.1,21.3-4.2,31.8,0,.6.9.9.9.3,3.6-10.2,4.8-21,4.2-32.1h0ZM394.2,155.7c0-.9-1.2-.9-1.2,0-1.2,12.3-3.9,23.4-7.2,35.4-.3.9.9,1.2,1.2.6,6-10.5,8.1-24,7.2-36ZM400.8,177.9c-1.5,8.1-3.9,15.9-6.9,23.4-.3.6.6.9,1.2.6,4.2-7.2,6.3-15.3,7.5-23.7,0-1.2-1.8-1.2-1.8-.3h0ZM402.9,196.8c-.9,1.8-1.8,3.6-2.4,5.7,0,.3.6.6.6.3l2.7-5.4c.6-.9-.6-1.5-.9-.6h0ZM411.6,196.8c-2.1,10.2-5.1,19.5-7.8,29.4-.3.9.9,1.2,1.2.6,5.1-8.7,7.5-19.8,7.8-30,.3-.6-.9-.9-1.2,0ZM414.9,209.4c-3.3,8.4-7.2,16.8-9.6,25.5-.3.9,1.2,1.8,1.8.6,3.9-8.1,6.6-17.1,9.6-25.8.3-.9-1.5-1.5-1.8-.3ZM414.6,231.3c-.9,2.7-2.4,5.4-2.7,8.4,0,.6.9,1.2,1.2.6,1.5-2.4,2.4-5.4,3.6-8.1.6-1.8-1.5-2.1-2.1-.9ZM371.4,80.4c-2.4,6.3-5.1,12.3-9,17.7-3.9,5.4-9.3,9.3-13.8,14.4-.6.6,0,1.2.9.9,12-5.1,21-20.4,23.4-32.7.3-.9-1.2-1.5-1.5-.3h0ZM365.7,82.2c-3.9,9.3-9.3,16.8-14.7,25.2-.6.9.6,1.8,1.5,1.2,6.9-6.9,11.7-16.5,14.4-25.8-.3-.6-.9-1.2-1.2-.6ZM346.2,69.3c-.6,10.8-3.3,20.4-6.6,30.6-.3.9,1.2,1.5,1.5.6,5.4-9.3,7.2-20.7,6.9-31.5.3-.9-1.5-.9-1.8.3h0ZM340.5,75c-.3,7.5-2.4,13.8-4.8,20.7-.3.9.9,1.5,1.5.6,3.6-6.3,4.8-14.1,4.8-21.3s-1.5-1.2-1.5,0ZM327.9,65.7c-.6-.3-1.2.6-.6,1.2,2.4,2.4.6,12.6.3,15.6-.6,5.4-1.8,11.1-2.7,16.5-.3.9.9,1.2,1.5.3,2.7-7.5,3.9-15,4.2-22.8,0-3,1.2-9.6-2.7-10.8h0ZM321.6,71.1c-.3-.9-1.2-.3-1.2.3,1.5,11.1,0,21.3-2.1,32.1-.3.9,1.2,1.2,1.5.3,3.9-10.2,3.9-21.6,1.8-32.7ZM308.7,66.6c0-.9-1.5-1.2-1.5-.3-1.8,12-2.4,24.6.6,36.6.3.6,1.2.6,1.2-.3-.6-12-1.5-23.7-.3-36ZM302.4,64.8c0-.9-1.2-.6-1.2,0-1.2,10.8-1.5,22.8,1.5,33.3.3.6,1.2.6,1.2-.3-.3-11.1-2.1-21.9-1.5-33ZM296.1,66.6c0-.9-1.2-.9-1.5,0-1.2,10.5-1.2,21.3,2.1,31.8.3.9,1.5.6,1.5-.3-1.8-10.5-3-20.7-2.1-31.5ZM283.2,69c.3-.9-1.2-1.5-1.5-.3-2.4,9.3-2.4,19.8.9,28.8.3.9,1.8.6,1.5-.3-1.5-9.9-2.4-18.6-.9-28.2ZM275.7,70.2c0-.6-.9-.6-1.2,0-1.2,10.2-.3,19.8,3.9,29.4.3.6,1.2,0,.9-.3-2.7-9.6-3.9-19.2-3.6-29.1h0ZM260.7,69.9c-4.8,9-6,19.8-1.2,29.4.3.9,1.8.3,1.5-.6-2.7-9.3-3.3-18.6,1.2-27.9.6-1.2-.9-2.1-1.5-.9ZM254.1,73.2c0-.9-1.2-.9-1.2,0-.9,9.6-.3,19.5,3.6,28.5.3.9,1.5.3,1.2-.6-2.4-9.3-4.2-18.3-3.6-27.9Z"/>
          </g>
        </g>
      </g>
    </g>
    <rect id="svga-credit-rect" class="cls-2" y="555" width="600" height="45"/>
    <g id="svga-credit-text" class="cls-27">
      <text class="cls-26" transform="translate(100.2 586.8)"><tspan x="0" y="0">Created on AvatarMaker.com</tspan></text>
    </g>
  </g>
</svg>