<svg xmlns="http://www.w3.org/2000/svg" version="1.1" width="600px" height="600px" viewBox="0 0 200 200" style="overflow:hidden!important;"><defs id="SvgjsDefs3072"></defs><g id="svga-group-wrapper"><g id="svga-group-backs-single"><path id="SvgjsPath8162" d="M0 0h200v200H0V0z" fill="#f5f7ff" stroke-width="none" opacity="1" stroke="none"></path></g><g id="svga-group-humanwrap-move" transform="matrix(1,0,0,1,0,0)"><g id="svga-group-humanwrap" transform="matrix(1,0,0,1,0,0)"><g id="svga-group-hair-back-move" transform="matrix(1,0,0,1,0,0)"><g id="svga-group-hair-back" transform="matrix(1,0,0,1,0,0)"></g></g><g id="svga-group-humanbody-back"><path id="SvgjsPath3473" d="M166.5 181.1c-10.9-6.6-27.6-8.4-35-12.1-4.9-2.5-9.1-4.7-8.9-17.8s1.9-42.4 1.9-42.4H75.4s1.6 29.4 1.9 42.4-4.2 15.6-8.9 17.8c-7.4 3.5-24.1 5.4-35 12.1-10.8 6.6-10 18.9-10 18.9v19.7h153.3V200c-.1 0 .7-12.3-10.2-18.9z" fill="#d6a998" stroke-width="none" opacity="1" stroke="none"></path></g><g id="svga-group-chinshadow-single"><path id="SvgjsPath3861" d="M77.2 155.2c5.1 2.8 7.7 4.2 9.6 6.5 2.6 3.2 10.3 4.4 13.2 4.4 3 0 10.7-1.2 13.2-4.4 1.9-2.3 4.5-3.7 9.5-6.4-.1-1.2-.1-2.6-.1-4.1.2-13.1 1.9-42.4 1.9-42.4H75.4s1.6 29.4 1.9 42.4c0 1.5 0 2.8-.1 4z" fill="#b7765e" stroke-width="none" opacity="0.65" stroke="none"></path></g><g id="svga-group-humanbody-front"><path id="SvgjsPath3474" d="M78.7 156.8c.5 4.8 1.7 9.4 3.1 13.9.8 2.3 1.6 4.6 2.6 6.9.8 2 1.7 4.2 3.1 5.9.3.4 1 0 .9-.5-.5-2.2-1.6-4.3-2.4-6.4-.9-2.2-1.7-4.4-2.5-6.6-1.5-4.4-2.8-8.9-4.1-13.3-.2-.4-.8-.3-.7.1zm41.3-1c-1.3 8.2-3.9 16.1-5.4 24.2-.1.4.4.5.6.2 3.1-7.7 4.1-16.1 5.1-24.3-.1-.2-.3-.2-.3-.1zm-25.8 11.9c-.9 3.6 1.9 8.6 6.2 7.6.5-.1.4-.8 0-1-1.4-.5-2.9-.9-3.9-2.1-1.1-1.2-1.5-2.9-1.4-4.5 0-.4-.8-.5-.9 0z" fill="#b7765e" stroke-width="none" opacity="1" stroke="none"></path><path id="SvgjsPath3475" d="M177.3 219.7c-.1-6.6-.3-13.1-.3-19.7l-.3-.3c.1 0 .1 0 .2.1s.1.2.1.1v-1.4c0-.5-.1-.9-.1-1.4-.1-.9-.3-1.9-.5-2.8-.5-1.8-1.1-3.6-2-5.3-1.7-3.4-4.4-6.2-7.7-8.1-3.6-2.2-7.6-3.8-11.6-5.1-4-1.3-8.1-2.4-12.1-3.5-4-1.2-8.1-2.2-11.8-4.2-1.9-1-3.6-2.1-4.8-3.6-1.2-1.6-1.9-3.5-2.3-5.5-.8-4-.4-8.2-.3-12.4l.7-12.6 1.5-25.2.1-1.4h-1.4c-8.2 0-16.4 0-24.6.1l-24.6.3h-.9l.1.9c.8 11.9 1.6 23.8 2.1 35.7.1 3 .3 6 .2 8.9-.1 2.9-.4 5.9-1.6 8.6-.6 1.3-1.4 2.5-2.4 3.5s-2.3 1.8-3.6 2.4c-2.6 1.3-5.4 2.2-8.3 3-5.8 1.5-11.6 2.8-17.3 4.7-2.8.9-5.7 2-8.4 3.4-1.3.7-2.7 1.4-4 2.4-1.3.9-2.4 1.9-3.5 3.1-2.1 2.3-3.6 5.2-4.5 8.1-.5 1.5-.8 3-1 4.6-.1.8-.1 1.6-.1 2.4v2.3l-.2 17.9v1.3h1.4l38.3.2c12.8.1 25.5.1 38.3 0 12.8-.1 25.6-.1 38.3-.3 12.8-.2 25.6-.5 38.3-.7h.6v-.5zm-77.2-1.6H61.8l-37 .2-.1-16.6v-2.2c0-.7 0-1.4.1-2.1.1-1.4.4-2.8.8-4.2.8-2.7 2.1-5.3 3.9-7.5.9-1.1 2-2.1 3.1-2.9 1.1-.9 2.4-1.6 3.7-2.3 2.6-1.4 5.3-2.5 8.1-3.5 5.6-2 11.4-3.4 17.1-5.1 2.9-.8 5.8-1.7 8.5-3.1 1.3-.7 2.7-1.5 3.8-2.6 1.1-1.1 2-2.4 2.6-3.9 1.2-2.9 1.5-5.9 1.6-8.9 0-3-.1-6-.2-9l-1.3-34.8 23.5.4c7.7.1 15.4.1 23.1.1-.4 7.9-.8 15.9-1.1 23.8-.2 4.2-.2 8.4-.3 12.6 0 4.2-.2 8.5.8 12.8.5 2.1 1.3 4.2 2.8 6 1.4 1.7 3.4 2.9 5.3 3.8 3.9 1.9 8 2.8 12.1 3.8s8.2 2 12.2 3.3c4 1.3 7.9 2.8 11.5 5 3.2 1.9 5.8 4.7 7.5 8 .9 1.6 1.5 3.4 1.9 5.2.2.9.4 1.8.4 2.7.1.5.1.9.1 1.4V200l-.3 19c-12.6-.2-25.1-.5-37.7-.7-12.7-.1-25.5-.1-38.2-.2z" fill="#a86045" stroke-width="none" opacity="1" stroke="none"></path></g><g id="svga-group-clothes-single"><path id="SvgjsPath8027" d="M180.3 220.1c0-17.5-1.6-28.7-1.6-28.7-3.2-15.2-22.5-16.1-31.1-18.5-2.8-.8-13.9-4.5-13.9-4.5-4-8.6-9.1-13.4-9.1-13.4s1.1 16.6-4.8 20.7c-2.8 1.9-8.9 3.1-11.2 5-2.4 2-5.9 10.2-5.9 10.2s-8.5-12.5-10.7-12.3c-4.7.5-8 0-9.2-.4-6.7-2-6.7-23.4-6.7-23.4s-6.5 4.6-9.4 12.4c-3.2 1.4-11 3.2-15 4.7-8.3 3.1-27.5 5.6-30.5 19.6 0 0-1.6 11.2-1.6 28.7l160.7-.1z" fill="#565f61" stroke-width="none" opacity="1" stroke="none"></path><path id="SvgjsPath8028" d="M180.6 210.1c0-3.3-.1-6.7-.3-10-.1-1.7-.2-3.3-.3-5l-.2-2.5-.1-1.3c-.1-.4-.2-.9-.3-1.3-.9-3.4-2.8-6.5-5.4-8.9-2.6-2.3-5.7-4-8.9-5.1-3.2-1.2-6.5-2-9.8-2.7 0 0-17.5-4.4-20.3-5.9-1.1-2.4-2.4-4.7-3.9-6.9-.8-1.2-1.6-2.3-2.5-3.4-.9-1.1-1.7-1.9-2.8-2.9-.2-.2-1-.7-1.3-.7-.7-.1-1 .6-1.1 1.3v.1c-.4 3.8-.6 14.2-1.3 15.9-.8 1.7-1.8 3.2-3.2 4-1.5.9-3.4 1.5-5.2 2.2-.9.3-1.9.7-2.8 1.1-1 .4-1.9.9-2.9 1.6-1 .9-1.5 1.7-2.1 2.6-.6.9-1.1 1.8-1.5 2.6l-1.8 3.6c-2.2-3-4.4-6-7-8.7-.4-.4-.8-.8-1.3-1.2-.2-.2-.5-.4-.8-.6-.3-.2-.6-.4-1.2-.4h-.6l-.4.1-.8.1c-.5.1-1.1.1-1.6.1-1.1 0-2.1 0-3.2-.1-1-.1-2.2-.2-3-.5-.8-.3-1.6-1-2.2-1.8-.6-.8-1.2-1.7-1.7-2.6-1-1.9-1.6-13.9-2.3-18.2 0-.1-.1-.1-.1-.2-.2-.2-.5-.2-.7-.1-1.1.8-2.1 1.7-3 2.7s-1.8 2-2.6 3c-.8 1.1-1.5 2.2-2.2 3.3-.7 1.1-1.2 2.2-1.7 3.4-3.8 1.7-10.8 3-14.7 4.4-4 1.4-8.1 2.3-12.2 3.6-4.1 1.3-8.2 2.9-11.8 5.5-1.8 1.3-3.4 2.9-4.8 4.7-1.3 1.8-2.3 4-2.8 6.2v.1c-.3 2.4-.6 4.8-.8 7.2-.2 2.4-.4 4.8-.5 7.2-.1 2.4-.3 4.8-.3 7.2-.1 2.4-.1 4.8-.1 7.2 0 .8.6 1.4 1.4 1.4l40.5.2c13.5 0 27-.1 40.4-.2l40.2-.5 19.9-.3 19.8-.4c.2-3.5.2-6.9.2-10.2zM120.2 177c1-.6 1.9-1.5 2.5-2.4.7-.9 1.2-1.8 1.7-2.8.9-1.9.9-10.8 1.3-13.9.2.3.4.5.7.8.8 1 2.7 3 3.4 4.1 3.5 5.5 5.5 12.6 5.7 14 0 0 2.7 12.7 3.1 17.1-1.7-.8-3.4-1.8-4.9-2.8-2.1-1.4-4.1-2.9-6.1-4.4-2-1.6-3.9-3.1-5.8-4.9-.9-.9-1.8-1.8-2.9-2.5-.7-.4-1.5-.8-2.4-.9 1.2-.2 2.5-.7 3.7-1.4zm-22.1 19.1c-.6-1.7-1.3-3.3-2.2-4.9-.8-1.5-1.7-3-2.8-4.3.4 0 .8.1 1.2.1.9.1 1.9.1 2.8.2h1.7c1 1.4 1.9 2.7 2.8 4.1-1.2 1.4-2.3 2.9-3.4 4.4 0 .2 0 .2-.1.4zm-9.2-16.5c.6 0 1.1 0 1.7-.1l.8-.1H92s.2.1.3.2c.2.1.4.3.5.4.4.3.7.7 1.1 1.1 1.6 1.8 3.2 3.8 4.6 5.8-1.4-.2-2.8-.5-4.3-.7-1.8-.3-3.7-.6-5.5-1-1.8-.4-3.6-.8-5.4-1.3-1.7-.5-3.4-.9-5-1.5l.1-.1c.8-1 1.7-1.9 2.7-2.6.5-.3 1-.6 1.5-.8 1 .3 1.8.4 2.8.5 1.3.2 2.4.2 3.5.2zm-21.7-12.3c.5-1.2 1-2.4 1.6-3.5.6-1.1 1.3-2.2 2.1-3.2s1.6-2 2.6-2.9c.7-.7 1.5-1.4 2.2-2 .1 6.3.8 15.8 1.8 17.9.5 1 1.1 2 1.8 2.9.7.9 1.6 1.8 2.8 2.3.2.1.3.1.5.1-.5.2-1 .4-1.4.7-1.1.6-2 1.6-2.9 2.5-1.8 1.7-3.8 3.3-5.8 4.9s-4 3.1-6.1 4.4c-1.6 1-3.3 2-5 2.8 2.2-18.3 5.7-26.8 5.8-26.9zm-7.7 51.2-38.5.2c0-4.3.1-8.6.2-12.9.1-2.4.2-4.8.4-7.1.2-2.4.4-4.7.6-7.1.4-1.9 1.2-3.8 2.3-5.4 1.1-1.6 2.5-3.1 4.2-4.4.3-.2.5-.4.8-.6 1.6 2.9 3.3 5.7 5 8.5 1.8 2.9 3.6 5.8 5.5 8.7.5.8.9 1.4 1.1 2.2.3.8.5 1.6.6 2.4.4 1.6.6 3.3.8 5l.6 5.1c.2 1.7.3 3.4.5 5.1v-5.1l-.3-5.1c-.1-1.7-.4-3.4-.7-5.1-.2-.9-.4-1.7-.6-2.6-.2-.9-.7-1.7-1.2-2.4-1.9-2.9-3.7-5.8-5.7-8.6-1.8-2.7-3.7-5.4-5.6-8.1 3.1-2.2 6.7-3.7 10.3-5 4-1.4 8.1-2.4 12.2-3.9 3.9-1.6 10.1-2.6 13.9-4.4-1.8 4.4-3.9 10.7-6.6 27.8 0 .2 0 .4.1.6.2.5.8.7 1.3.5 2.4-1.2 4.5-2.6 6.6-4.1 2-1.6 4-3.2 5.9-4.9 1.8-1.7 3.7-3.3 5.3-5.2 1.5.9 3.2 1.6 4.8 2.2 1.8.6 3.6 1.1 5.4 1.5 1.4.3 2.8.5 4.1.6.6 1.7 1.3 3.3 2.2 4.8.9 1.6 1.8 3.1 3 4.5-.1.1-.2.3-.2.5-.1.4-.1.7-.2 1.1-.1.7-.1 1.4-.1 2.1v4.1c.1 2.7.2 5.4.4 8.1l.3 4.1c.1.9.2 1.8.3 2.6-13-.2-26-.3-39-.3zm39.9.3h-.7v-6.7l-.2-8.1c0-1.4-.1-2.7-.1-4 0-.7 0-1.3.1-2s.1-1.2.5-1.8c.6-1.2 1.4-2.3 2.2-3.4l.8-1.1c.1.1.2.2.4.3.6.3 1.3 0 1.6-.6.6-1.3 1.3-2.6 1.9-3.9 1.2 0 2.3-.1 3.4-.3 1.4-.2 2.8-.6 4.2-1-1.8 2.4-3.5 4.9-5.2 7.4-.9 1.3-1.8 2.6-2.7 4l-.7 1-.3.5c-.1.1-.3.5-.3.7-.2.9-.2 1.7-.3 2.5-.1 3.2.1 6.4.3 9.6.2 2.4.4 4.8.7 7.1l-5.6-.2zm40.2.5-34.3-.4-.1-2.4-.1-4.8c-.1-3.2-.2-6.4-.1-9.5 0-.8.1-1.6.2-2.3.1-.2 0-.2.2-.4l.3-.5.6-1c.8-1.4 1.7-2.7 2.5-4.1 1.6-2.6 3.1-5.1 4.6-7.8 1.4-.4 2.8-.9 4.1-1.5 1.3-.6 2.7-1.2 3.9-2l-4.2 1.2c-1.4.4-2.8.9-4.2 1.3l-4.2 1.2c-1 .3-2.1.5-3.1.8.2-.3.3-.7.5-1 .5-.9.9-1.7 1.5-2.5.5-.8 1.1-1.6 1.6-2 .6-.4 1.4-.9 2.3-1.2.9-.4 1.8-.7 2.7-1 .6-.2 1.2-.4 1.8-.7.8.2 1.7.6 2.4 1.1 1.1.7 1.9 1.6 2.7 2.6 1.7 1.9 3.6 3.6 5.4 5.3 1.9 1.7 3.8 3.3 5.9 4.9 2.1 1.5 4.2 2.9 6.6 4.1.2.1.4.1.6.1.5-.1.9-.6.8-1.1-.8-5-3.9-22.1-5.7-26.1 2.6 1.4 26.2 7.5 29.2 8.6 2.1.8 4.2 1.7 6.1 2.9-2 2.7-3.9 5.5-5.8 8.3-1.9 2.8-3.8 5.7-5.7 8.6-.4.7-1 1.5-1.2 2.4-.3.9-.5 1.7-.6 2.6-.3 1.7-.6 3.4-.7 5.1l-.3 5.1c0 1.7-.1 3.4 0 5.1.2-1.7.3-3.4.5-5.1l.6-5.1c.2-1.7.5-3.4.9-5l.6-2.4c.2-.8.6-1.4 1.1-2.2 1.8-2.9 3.7-5.8 5.5-8.7 1.8-2.9 3.5-5.8 5.1-8.7.8.5 1.6 1 2.3 1.6 2.4 2 4.2 4.7 5.1 7.8l.3 1.1.2 1.2.3 2.5.5 4.9c.3 3.3.6 6.6.8 9.9l.5 9.9-40.5-.7zm-37.8-21.9c.7 0 1.2.5 1.2 1.2s-.5 1.2-1.2 1.2-1.2-.5-1.2-1.2.5-1.2 1.2-1.2zm9.1-15.2c.7 0 1.2.5 1.2 1.2s-.5 1.2-1.2 1.2-1.2-.5-1.2-1.2.6-1.2 1.2-1.2zM102 216c.7 0 1.2.5 1.2 1.2s-.5 1.2-1.2 1.2-1.2-.5-1.2-1.2.5-1.2 1.2-1.2z" fill="#2e3f42" stroke-width="none" opacity="1" stroke="none"></path></g><g id="svga-group-head" transform="matrix(1,0,0,1,0,0)"><g id="svga-group-ears-left-move" transform="matrix(1,0,0,1,0,0)"><g id="svga-group-ears-left" transform="matrix(1,0,0,1,0,0)"><path id="SvgjsPath4785" d="M58.8 91.7s-2.6-4.9-5.3-5.7-4.4.7-3.9 6.6 5.2 23.2 10.6 22.2c5.4-1.1.9-19.6-1.4-23.1z" fill="#d6a998" stroke-width="none" opacity="1" stroke="none"></path><path id="SvgjsPath4786" d="M59.8 93.6c.3.7.6 1.5.8 2.2.5 1.5 1 3.1 1.4 4.8.4 1.6.7 3.4.9 5.2.1.9.2 1.8.2 2.7 0 .9 0 1.8-.1 2.8-.1.9-.3 1.8-.7 2.5-.3.7-.8 1.2-1.2 1.5-.9.5-1.9.4-2.8-.1-.9-.5-1.8-1.5-2.6-2.7s-1.4-2.5-2-4c-.6-1.4-1.1-3-1.6-4.5s-1-3.1-1.4-4.7-.8-3.3-1.1-5-.5-3.6-.3-5.4c.1-.9.3-1.8.7-2.4s.8-1 1.3-1.2.9-.2 1.4-.1.9.3 1.4.6c.9.6 1.7 1.5 2.5 2.5s1.5 2.2 2.2 3.4c.4.5.7 1.2 1 1.9zm-3.2-5c-.8-.9-1.6-1.6-2.5-1.9-.8-.3-1.7-.4-2.5-.1-.4.2-.7.4-1 .9s-.5 1.1-.6 1.8c-.2 1.4-.2 3.2.1 4.8.2 1.7.5 3.3.9 5 .8 3.2 1.8 6.3 3.1 8.9.6 1.3 1.3 2.5 2 3.5s1.5 1.8 2.3 2.2c.4.2.8.3 1.2.3s.8-.1 1.2-.4c.3-.2.7-.6.9-1.1s.4-1.2.5-1.9c.2-1.4.1-3.1 0-4.8-.1-1.7-.4-3.3-.7-5s-.7-3.3-1.1-4.9c-.4-1.6-1-3.1-1.7-4.3-.6-1-1.3-2.1-2.1-3z" fill="#c78e79" stroke-width="none" opacity="1" stroke="none"></path><path id="SvgjsPath4787" d="M52.4 89.6c2.3 1.5 4.4 5.7 5.4 9.9v.1c0 .3-.2.4-.2.1-.4-1.2-.9-1.2-1.5 0-.1.8-.1 1.5.1 2.3.2.7.4 1.4.7 2 .5 1.2 1.2 2.1 1.8 3.1.2.3 0 .7-.2.6-1.4-1.1-3.4-4.7-3-7.8.2-1.5 1-2.3 1.6-1.7-.8-2.1-1.7-4-2.8-5.5-.6-.8-2-2.7-2.7-2.4-1.3.6-.6 4.8-.5 6.6 0 .3-.2.4-.3.1-.7-3.3-.8-9 1.6-7.4z" fill="#b7765e" stroke-width="none" opacity="1" stroke="none"></path><path id="SvgjsPath4788" d="M58 108.6c-2.4-.9-4.2-4.8-5.2-9-.6-2.6-1.8-8.6.5-8.5.2 0 .3.5.1.6-2.2 1.1.2 9.2.9 11.1 1 2.6 2.2 4.4 3.8 5.4.1.1 0 .5-.1.4z" fill="#b7765e" stroke-width="none" opacity="1" stroke="none"></path></g></g><g id="svga-group-ears-right-move" transform="matrix(1,0,0,1,0,0)"><g id="svga-group-ears-right" transform="matrix(1,0,0,1,0,0)"><path id="SvgjsPath4789" d="M141.2 91.7s2.6-4.9 5.3-5.7 4.4.7 3.9 6.6-5.2 23.2-10.6 22.2c-5.4-1.1-.9-19.6 1.4-23.1z" fill="#d6a998" stroke-width="none" opacity="1" stroke="none"></path><path id="SvgjsPath4790" d="M141.1 91.7c.7-1.2 1.4-2.4 2.2-3.4s1.6-1.9 2.5-2.5c.5-.3.9-.5 1.4-.6s.9-.1 1.4.1.9.5 1.3 1.2c.4.6.6 1.5.7 2.4.2 1.8 0 3.7-.3 5.4-.3 1.7-.7 3.4-1.1 5-.4 1.6-.9 3.2-1.4 4.7s-1 3.1-1.6 4.5-1.3 2.8-2 4c-.8 1.2-1.6 2.2-2.6 2.7-.9.5-1.9.7-2.8.1-.5-.3-.9-.8-1.2-1.5s-.5-1.6-.7-2.5c-.1-.9-.1-1.8-.1-2.8 0-.9.1-1.8.2-2.7.2-1.8.5-3.5.9-5.2s.9-3.2 1.4-4.8c.3-.8.5-1.5.8-2.2.4-.7.7-1.4 1-1.9zm.1.1c-.7 1.2-1.2 2.7-1.7 4.3-.4 1.6-.8 3.2-1.1 4.9-.3 1.7-.5 3.3-.7 5-.1 1.6-.2 3.3 0 4.8.1.7.3 1.4.5 1.9s.6.9.9 1.1c.3.3.8.3 1.2.4.4 0 .8-.1 1.2-.3.8-.4 1.6-1.2 2.3-2.2s1.4-2.2 2-3.5c1.3-2.6 2.3-5.7 3.1-8.9.4-1.6.7-3.3.9-5 .2-1.6.3-3.4.1-4.8-.1-.7-.3-1.3-.6-1.8-.3-.4-.6-.7-1-.9-.8-.3-1.7-.2-2.5.1-.8.4-1.7 1-2.5 1.9-.7.7-1.4 1.8-2.1 3z" fill="#c78e79" stroke-width="none" opacity="1" stroke="none"></path><path id="SvgjsPath4791" d="M147.6 89.6c-2.3 1.5-4.4 5.7-5.4 9.9v.1c0 .3.2.4.2.1.4-1.2.9-1.2 1.5 0 .1.8.1 1.5-.1 2.3-.2.7-.4 1.4-.7 2-.5 1.2-1.2 2.1-1.8 3.1-.2.3 0 .7.2.6 1.4-1.1 3.4-4.7 3-7.8-.2-1.5-1-2.3-1.6-1.7.8-2.1 1.7-4 2.8-5.5.6-.8 2-2.7 2.7-2.4 1.3.6.6 4.8.5 6.6 0 .3.2.4.3.1.7-3.3.8-9-1.6-7.4z" fill="#b7765e" stroke-width="none" opacity="1" stroke="none"></path><path id="SvgjsPath4792" d="M142 108.6c2.4-.9 4.2-4.8 5.2-9 .6-2.5 1.8-8.5-.5-8.5-.2 0-.3.5-.1.6 2.2 1.1-.2 9.2-.9 11.1-1 2.6-2.2 4.4-3.8 5.4-.1.1 0 .5.1.4z" fill="#b7765e" stroke-width="none" opacity="1" stroke="none"></path></g></g><g id="svga-group-faceshape-wrap" transform="matrix(1,0,0,1,0,0)"><g id="svga-group-faceshape-single"><path id="SvgjsPath3851" d="M143.2 82.7v-.3C141.9 52 122.5 35.3 100 35.3S58.1 51.9 56.8 82.4v.3c-.1 2-.3 17.2 1.6 30.7 1.4 9.8 2.7 19.6 12.2 25.4s13.6 7.2 16.1 10.4c2.5 3.1 10.2 4.5 13.2 4.5s10.7-1.2 13.2-4.5c2.5-3.1 6.6-4.7 16.1-10.4 9.6-5.8 10.8-15.5 12.2-25.4 2.1-13.5 1.8-28.7 1.8-30.7z" fill="#d6a998" stroke-width="none" opacity="1" stroke="none"></path><path id="SvgjsPath3852" d="M141.4 113.4c2.1-13.5 1.8-28.7 1.8-30.7v-.3C141.9 52 122.5 35.3 100 35.3S58.1 51.9 56.8 82.4v.3c-.1 2-.3 17.2 1.6 30.7 1.4 9.8 2.7 19.6 12.2 25.4s13.6 7.2 16.1 10.4c2.5 3.1 10.2 4.5 13.2 4.5s10.7-1.2 13.2-4.5c2.5-3.1 6.6-4.7 16.1-10.4 9.6-5.8 10.8-15.5 12.2-25.4zm-15.2 24.4-9 5c-1.5.9-3.1 1.8-4.7 3.2-.4.3-.8.7-1.1 1.1l-.3.3-.2.2-.2.2c-.4.3-.9.7-1.5 1-2.5 1.2-5.8 1.9-8.8 2.1-1.3.1-2.9-.1-4.5-.4-1.5-.3-3.1-.7-4.4-1.2-.7-.3-1.3-.6-1.9-.9-.3-.2-.5-.3-.7-.5s-.2-.2-.6-.7c-1.4-1.6-3.1-2.7-4.6-3.8-3.1-1.8-6.1-3.4-9-5.1-1.5-.8-3-1.7-4.2-2.5-1.3-.9-2.4-1.8-3.4-3-.5-.5-1-1.2-1.4-1.8-.4-.7-.9-1.3-1.2-2-.7-1.4-1.4-2.8-1.9-4.5-1-3.2-1.6-6.4-2.3-9.8-.6-3.3-1.1-6.8-1.5-10.2-.4-3.4-.7-6.8-.9-10.2s-.3-6.9-.3-10.3c0-1.7.1-3.4.3-5.2.1-.8.1-1.7.2-2.5l.4-2.5c.2-.8.2-1.7.4-2.5l.6-2.4c.2-.8.4-1.6.7-2.4l.9-2.4c1.2-3.2 2.8-6.2 4.6-9 .4-.7 1-1.3 1.5-2 .5-.6 1-1.3 1.6-1.9l1.7-1.8.9-.9 1-.8c5-4.4 11-7.4 17.3-8.8 6.3-1.4 13-1.6 19.3-.2l2.4.5c.8.2 1.5.5 2.3.7 1.6.4 3 1.1 4.5 1.7.8.3 1.4.7 2.2 1.1.7.4 1.5.7 2.1 1.2l2 1.4c.3.2.7.4 1 .7l.9.8c5.1 4.2 9.4 9.6 12.1 15.8 2.7 6.3 4.1 13.1 4.4 20 0 3.4 0 6.9-.2 10.3s-.4 6.9-.9 10.3c-.4 3.4-.9 6.8-1.6 10.2-.7 3.4-1.3 6.8-2.3 9.9-1 3.2-2.4 6.1-4.3 8.5-3.1 3.6-6.7 5.5-7.4 6z" fill="#a86045" stroke-width="none" opacity="1" stroke="none"></path></g></g><g id="svga-group-mouth-single-move" transform="matrix(1,0,0,1,0,0)"><g id="svga-group-mouth-single" transform="matrix(1,0,0,1,0,0)"><path id="SvgjsPath4741" d="M100.36 129.39c-.49.05-9.78-2.48-12.1-3.52 0 0 6.49-1.32 8.19-1.56.77-.11 3.58 1.46 3.58 1.46s2.68-1.6 3.45-1.57c1.22.04 9.47.7 9.47.7s-9.34 4.18-12.59 4.49z" fill="#d26d79" stroke-width="none" opacity="1" transform="translate(0 2)" stroke="none"></path><path id="SvgjsPath4742" d="M88.64 126.16s2.22 4.74 3.61 6.45 4.63 2.76 8.5 2.83 6.93-2.13 7.9-3.18 4.11-7.24 4.11-7.24-10.77 4.8-12.51 4.69-8.03-2.3-8.57-2.46-3.04-1.09-3.04-1.09z" fill="#da7c87" stroke-width="none" opacity="1" transform="translate(0 2)" stroke="none"></path><path id="SvgjsPath4743" d="M113.83 124.15c-4.53 1.15-8.14 3.43-13.6 4.82-2.19-.21-4.23-.98-6.26-1.56-2.22-.63-4.39-1.41-6.58-2.13-.26-.09-.42.31-.18.44 2.07 1.14 4.23 2.04 6.46 2.82 2.09.73 4.39 1.64 6.63 1.72.53-.05 1.1-.3 1.27-.35 4.48-1.44 8.35-3.02 12.49-5.23.28-.17.08-.61-.23-.53z" fill="#cb5f6c" stroke-width="none" opacity="1" transform="translate(0 2)" stroke="none"></path></g></g><g id="svga-group-eyes-left-move" transform="matrix(1,0,0,1,0,0)"><g id="svga-group-eyes-left" transform="matrix(0.9499997000000001,0,0,0.9499997000000001,3.976352898501574,4.725028349999988)"><g id="svga-group-eyesback-left"><path id="SvgjsPath5460" d="M90.2 96.4s-.9.8-3.3 1.1-8.7 1.1-13.3-.2c-4.6-1.3-4.2-1.5-4.3-2.1-.1-.5.7-2.4 5-3.2 4.3-.8 8.5.1 10.6.9 2 .9 5.3 3.5 5.3 3.5z" fill="#ffffff" stroke-width="none" opacity="1"></path></g><g id="svga-group-eyesiriswrapper-left" transform="matrix(1,0,0,1,0,0)"><g id="svga-group-eyesiriscontrol-left" transform="matrix(1,0,0,1,0,0)"><g id="svga-group-eyesiris-left" transform="matrix(1,0,0,1,0,0)"><path id="SvgjsPath5812" d="M80.1 88.3c2.9 0 5.2 2.3 5.2 5.2s-2.3 5.2-5.2 5.2-5.2-2.3-5.2-5.2 2.3-5.2 5.2-5.2z" fill="#482a02" stroke-width="none" opacity="1" stroke="none"></path><path id="SvgjsPath5813" d="M80.1 88.6c2.7 0 4.9 2.2 4.9 4.9s-2.2 4.9-4.9 4.9-4.9-2.2-4.9-4.9 2.1-4.9 4.9-4.9m0-.5c-3 0-5.5 2.4-5.5 5.5 0 3 2.4 5.5 5.5 5.5 3 0 5.5-2.4 5.5-5.5s-2.5-5.5-5.5-5.5z" fill="#291800" stroke-width="none" opacity="1" stroke="none"></path><path id="SvgjsPath5814" d="M82.7 89c-.1.3-.3.7-.5 1-.2.3-.4.6-.7.9.1-.3.3-.7.5-1 .2-.4.4-.7.7-.9zm.7.6-.6.9c-.2.3-.5.6-.8.8l.6-.9c.3-.3.5-.6.8-.8zm-.9 2c.2-.3.4-.5.6-.7.2-.2.5-.4.8-.5-.2.3-.4.5-.6.7-.2.2-.5.4-.8.5zm.3.6c.3-.2.6-.3.9-.4.3-.1.6-.2 1-.3-.3.2-.6.3-.9.4-.4.2-.7.3-1 .3zm.3.5c.3-.1.6-.2.9-.2s.6-.1.9-.1c-.3.1-.6.2-.9.2-.3.1-.6.2-.9.1zm.1.7c.2 0 .3-.1.5-.1h.5c.3 0 .6.1.9.2-.3.1-.6 0-.9 0-.2 0-.3 0-.4-.1-.3.1-.5.1-.6 0zm-.2.6c.3 0 .6.1.9.1l.9.3c-.3 0-.6-.1-.9-.1-.3 0-.6-.1-.9-.3zm0 .7c.2 0 .3.1.4.1.1.1.3.1.4.2.3.1.5.3.7.5-.3-.1-.6-.2-.8-.3-.1-.1-.3-.1-.4-.2 0-.1-.2-.2-.3-.3zm-.5.8c.3.1.5.2.7.4.2.2.4.3.6.6-.3-.1-.5-.2-.7-.4l-.6-.6zm-.9-6.8c0 .3-.1.7-.2 1-.1.3-.2.6-.4.9 0-.3.1-.7.2-1 .1-.3.2-.7.4-.9zm-1.3 1.7c-.1-.3 0-.7 0-1 0-.3.1-.7.2-1 .1.3 0 .7 0 1s-.1.7-.2 1zm-1.1-2c.1.3.2.7.3 1 .1.3.1.7.1 1-.1-.3-.2-.6-.3-1 0-.2-.1-.3-.1-.5v-.5zm-1.1.4c.2.3.3.6.4.9.1.3.2.7.3 1-.2-.3-.3-.6-.4-.9-.2-.3-.3-.7-.3-1zm-.9.5c.2.2.5.5.7.8s.4.6.5.9c-.2-.2-.5-.5-.7-.8-.2-.3-.4-.5-.5-.9zm-1 .9c.3.2.7.4.9.7.3.2.6.5.8.8-.3-.2-.7-.4-.9-.7-.3-.3-.6-.5-.8-.8zm-.3 1c.3.1.5.2.8.3.2.1.5.3.7.5-.3-.1-.5-.2-.8-.3-.3-.1-.5-.3-.7-.5zm-.5 1c.3 0 .5 0 .8.1s.5.1.7.3c-.3 0-.5 0-.8-.1s-.4-.1-.7-.3zm-.2 1.2c.3-.1.6-.1.8-.1s.6 0 .8.1c-.3.1-.6.1-.8.1-.2 0-.5-.1-.8-.1zm.1.9c.2-.1.5-.2.8-.2.3-.1.5-.1.8-.1-.2.1-.5.2-.8.2-.2.1-.5.1-.8.1zm.1.9c.3-.2.6-.3.9-.3s.6-.2.9-.2c-.3.2-.6.3-.9.3-.3.1-.6.2-.9.2zm.5.9c.2-.2.5-.3.8-.5.3-.1.5-.2.8-.3-.2.2-.5.3-.8.5-.2.1-.5.2-.8.3zm.8.9c.1-.2.3-.4.5-.6.2-.2.4-.4.6-.5-.1.2-.3.4-.5.6-.2.2-.4.4-.6.5zm.9.8c.1-.3.2-.7.4-.9.2-.3.3-.6.6-.9-.1.3-.2.7-.4.9-.2.4-.4.7-.6.9zm1.1.4c0-.3 0-.5.1-.8.1-.3.2-.5.3-.8 0 .3 0 .5-.1.8 0 .3-.1.5-.3.8zm2.7-1.8c.2.2.2.5.3.7.1.3.2.5.2.8-.2-.2-.2-.5-.3-.7-.1-.2-.2-.5-.2-.8zm.7-.3c.2.2.4.4.5.6.2.2.3.4.4.7-.2-.2-.4-.4-.5-.6-.2-.2-.3-.4-.4-.7zm-1.5.6c.1.2.1.5.2.8v.8c-.1-.2-.1-.5-.2-.8v-.8zm-.7.1c.1.2.1.5.1.7 0 .3 0 .5-.1.8-.1-.3-.1-.5-.1-.8 0-.2.1-.5.1-.7z" fill="#1a0f00" stroke-width="none" opacity="1" stroke="none"></path><path id="SvgjsPath5815" d="M80.1 90.6c1.6 0 2.9 1.3 2.9 2.9s-1.3 2.9-2.9 2.9-2.9-1.3-2.9-2.9 1.2-2.9 2.9-2.9z" fill="#000000" stroke-width="none" opacity="1"></path><path id="SvgjsPath5816" d="m79.3 91.1-.6-.6c-.2-.2-.5-.3-.7-.3-.2 0-.6.1-.7.3-.2.2-.3.5-.3.8 0 .3.1.5.3.7l.6.6c.2.2.5.3.7.3.2 0 .6-.1.7-.3.4-.4.4-1.1 0-1.5zm2.8 5c.9 0 .9-1.5 0-1.5s-1 1.5 0 1.5z" fill="#ffffff" stroke-width="none" opacity="1"></path></g></g></g><g id="svga-group-eyesfront-left"><path id="SvgjsPath5468" d="M73.6 97.3c4.6 1.3 10.9.5 13.3.2 2.4-.3 3.3-1.1 3.3-1.1s-3.2-2.6-5.3-3.5c-2.1-.9-6.3-1.7-10.6-.9-3.2.6-4.4 1.8-4.8 2.5 0-6.3 4.8-11.5 10.6-11.5 5.9 0 10.6 5.2 10.6 11.5S86 106 80.1 106c-5.5 0-10-4.5-10.6-10.4.3.5 1.2.8 4.1 1.7z" fill="#d6a998" stroke-width="none" opacity="1" stroke="none"></path><path id="SvgjsPath5469" d="M90.1 95.9c-1.2-3.3-4.1-5.6-7.5-6.2-3.9-.7-7.5 1-10.7 2.9-.1 0-.2-.1-.1-.1 5.5-4.7 16.4-4.9 18.5 3.5-.1-.1-.2 0-.2-.1z" fill="#c78e79" stroke-width="none" opacity="1" stroke="none"></path><path id="SvgjsPath5470" d="M90.2 96.6c-5.3-4.4-12.4-6.2-18.9-3.1-.3.1-.5.3-.8.4-1 1.3-.9 2.1.4 2.2.7.2 1.4.4 2.1.5 1.8.4 3.7.6 5.6.7 3.4.2 6.7-.1 10-.4.2 0 .2.2 0 .3-4.4 1.4-9.2 1.3-13.7.7-1.6-.2-8.7-.9-5.9-4.3 1-1.2 3.2-1.7 4.7-2 2.1-.5 4.2-.6 6.3-.4 3.8.5 7.7 2.3 10.3 5.2.2.1 0 .3-.1.2z" fill="#000000" stroke-width="none" opacity="1" stroke="none"></path></g></g></g><g id="svga-group-eyes-right-move" transform="matrix(1,0,0,1,0,0)"><g id="svga-group-eyes-right" transform="matrix(0.9499997000000001,0,0,0.9499997000000001,6.0237071014984025,4.725028349999988)"><g id="svga-group-eyesback-right"><path id="SvgjsPath5461" d="M109.8 96.4s.9.8 3.3 1.1 8.7 1.1 13.3-.2c4.6-1.3 4.2-1.5 4.3-2.1.1-.5-.7-2.4-5-3.2-4.3-.8-8.5.1-10.6.9-2 .9-5.3 3.5-5.3 3.5z" fill="#ffffff" stroke-width="none" opacity="1"></path></g><g id="svga-group-eyesiriswrapper-right" transform="matrix(1,0,0,1,0,0)"><g id="svga-group-eyesiriscontrol-right" transform="matrix(1,0,0,1,0,0)"><g id="svga-group-eyesiris-right" transform="matrix(1,0,0,1,0,0)"><path id="SvgjsPath5817" d="M119.9 88.3c2.9 0 5.2 2.3 5.2 5.2s-2.3 5.2-5.2 5.2-5.2-2.3-5.2-5.2 2.4-5.2 5.2-5.2z" fill="#482a02" stroke-width="none" opacity="1" stroke="none"></path><path id="SvgjsPath5818" d="M119.9 88.6c2.7 0 4.9 2.2 4.9 4.9s-2.2 4.9-4.9 4.9-4.9-2.2-4.9-4.9 2.2-4.9 4.9-4.9m0-.5c-3 0-5.5 2.4-5.5 5.5 0 3 2.4 5.5 5.5 5.5 3 0 5.5-2.4 5.5-5.5s-2.4-5.5-5.5-5.5z" fill="#291800" stroke-width="none" opacity="1" stroke="none"></path><path id="SvgjsPath5819" d="M122.6 89c-.1.3-.3.7-.5 1-.2.3-.4.6-.7.9.1-.3.3-.7.5-1 .2-.4.4-.7.7-.9zm.7.6-.6.9c-.2.3-.5.6-.8.8l.6-.9c.3-.3.5-.6.8-.8zm-.9 2c.2-.3.4-.5.6-.7.2-.2.5-.4.8-.5-.2.3-.4.5-.6.7-.3.2-.5.4-.8.5zm.3.6c.3-.2.6-.3.9-.4.3-.1.6-.2 1-.3-.3.2-.6.3-.9.4-.4.2-.7.3-1 .3zm.3.5c.3-.1.6-.2.9-.2s.6-.1.9-.1c-.3.1-.6.2-.9.2-.3.1-.6.2-.9.1zm.1.7c.2 0 .3-.1.5-.1h.5c.3 0 .6.1.9.2-.3.1-.6 0-.9 0-.2 0-.3 0-.4-.1-.3.1-.5.1-.6 0zm-.2.6c.3 0 .6.1.9.1l.9.3c-.3 0-.6-.1-.9-.1-.3 0-.6-.1-.9-.3zm0 .7c.2 0 .3.1.4.1.1.1.3.1.4.2.3.1.5.3.7.5-.3-.1-.6-.2-.8-.3-.1-.1-.3-.1-.4-.2 0-.1-.2-.2-.3-.3zm-.5.8c.3.1.5.2.7.4.2.2.4.3.6.6-.3-.1-.5-.2-.7-.4l-.6-.6zm-.9-6.8c0 .3-.1.7-.2 1-.1.3-.2.6-.4.9 0-.3.1-.7.2-1 .1-.3.2-.7.4-.9zm-1.3 1.7c-.1-.3 0-.7 0-1 0-.3.1-.7.2-1 .1.3 0 .7 0 1s-.1.7-.2 1zm-1.1-2c.1.3.2.7.3 1 .1.3.1.7.1 1-.1-.3-.2-.6-.3-1 0-.2-.1-.3-.1-.5v-.5zm-1.1.4c.2.3.3.6.4.9.1.3.2.7.3 1-.2-.3-.3-.6-.4-.9-.2-.3-.3-.7-.3-1zm-.9.5c.2.2.5.5.7.8s.4.6.5.9c-.2-.2-.5-.5-.7-.8-.2-.3-.4-.5-.5-.9zm-1 .9c.3.2.7.4.9.7.3.2.6.5.8.8-.3-.2-.7-.4-.9-.7-.3-.3-.6-.5-.8-.8zm-.3 1c.3.1.5.2.8.3.2.1.5.3.7.5-.3-.1-.5-.2-.8-.3-.3-.1-.5-.3-.7-.5zm-.5 1c.3 0 .5 0 .8.1s.5.1.7.3c-.3 0-.5 0-.8-.1s-.4-.1-.7-.3zm-.2 1.2c.3-.1.6-.1.8-.1s.6 0 .8.1c-.3.1-.6.1-.8.1-.2 0-.5-.1-.8-.1zm.1.9c.2-.1.5-.2.8-.2.3-.1.5-.1.8-.1-.2.1-.5.2-.8.2-.2.1-.5.1-.8.1zm.1.9c.3-.2.6-.3.9-.3s.6-.2.9-.2c-.3.2-.6.3-.9.3-.3.1-.6.2-.9.2zm.5.9c.2-.2.5-.3.8-.5.3-.1.5-.2.8-.3-.2.2-.5.3-.8.5-.3.1-.5.2-.8.3zm.8.9c.1-.2.3-.4.5-.6.2-.2.4-.4.6-.5-.1.2-.3.4-.5.6-.2.2-.4.4-.6.5zm.9.8c.1-.3.2-.7.4-.9.2-.3.3-.6.6-.9-.1.3-.2.7-.4.9-.2.4-.4.7-.6.9zm1.1.4c0-.3 0-.5.1-.8.1-.3.2-.5.3-.8 0 .3 0 .5-.1.8-.1.3-.1.5-.3.8zm2.7-1.8c.2.2.2.5.3.7.1.3.2.5.2.8-.2-.2-.2-.5-.3-.7-.1-.2-.2-.5-.2-.8zm.7-.3c.2.2.4.4.5.6.2.2.3.4.4.7-.2-.2-.4-.4-.5-.6-.2-.2-.3-.4-.4-.7zm-1.5.6c.1.2.1.5.2.8v.8c-.1-.2-.1-.5-.2-.8v-.8zm-.7.1c.1.3.1.5.1.8 0 .3 0 .5-.1.8-.1-.3-.1-.5-.1-.8 0-.3.1-.6.1-.8z" fill="#1a0f00" stroke-width="none" opacity="1" stroke="none"></path><path id="SvgjsPath5820" d="M119.9 90.6c1.6 0 2.9 1.3 2.9 2.9s-1.3 2.9-2.9 2.9-2.9-1.3-2.9-2.9 1.3-2.9 2.9-2.9z" fill="#000000" stroke-width="none" opacity="1"></path><path id="SvgjsPath5821" d="m119.2 91.1-.6-.6c-.2-.2-.5-.3-.7-.3-.2 0-.6.1-.7.3-.2.2-.3.5-.3.7 0 .3.1.5.3.7l.6.6c.2.2.5.3.7.3.2 0 .6-.1.7-.3.4-.3.4-1 0-1.4zm2.7 5c.9 0 .9-1.5 0-1.5s-.9 1.5 0 1.5z" fill="#ffffff" stroke-width="none" opacity="1"></path></g></g></g><g id="svga-group-eyesfront-right"><path id="SvgjsPath5471" d="M126.4 97.3c-4.6 1.3-10.9.5-13.3.2-2.4-.3-3.3-1.1-3.3-1.1s3.2-2.6 5.3-3.5c2.1-.9 6.3-1.7 10.6-.9 3.2.6 4.4 1.8 4.8 2.5 0-6.3-4.8-11.5-10.6-11.5-5.9 0-10.6 5.2-10.6 11.5S114 106 119.9 106c5.5 0 10-4.5 10.6-10.4-.3.5-1.2.8-4.1 1.7z" fill="#d6a998" stroke-width="none" opacity="1" stroke="none"></path><path id="SvgjsPath5474" d="M109.9 95.9c1.2-3.3 4.1-5.6 7.5-6.2 3.9-.7 7.5 1 10.7 2.9.1 0 .2-.1.1-.1-5.5-4.7-16.4-4.9-18.5 3.5.1-.1.2 0 .2-.1z" fill="#c78e79" stroke-width="none" opacity="1" stroke="none"></path><path id="SvgjsPath5475" d="M109.8 96.6c5.3-4.4 12.4-6.2 18.9-3.1.3.1.5.3.8.4 1 1.3.9 2.1-.4 2.2-.7.2-1.4.4-2.1.5-1.8.4-3.7.6-5.6.7-3.4.2-6.7-.1-10-.4-.2 0-.2.2 0 .3 4.4 1.4 9.2 1.3 13.7.7 1.6-.2 8.7-.9 5.9-4.3-1-1.2-3.2-1.7-4.7-2-2.1-.5-4.2-.6-6.3-.4-3.8.5-7.7 2.3-10.3 5.2-.2.1 0 .3.1.2z" fill="#000000" stroke-width="none" opacity="1" stroke="none"></path></g></g></g><g id="svga-group-facehighlight-single"></g><g id="svga-group-eyebrows-left-move" transform="matrix(1,0,0,1,0,2)"><g id="svga-group-eyebrows-left-rotate" transform="matrix(0.9978589232386035,-0.06540312923014309,0.06540312923014309,0.9978589232386035,-5.135343021084935,5.493719072165462)"><g id="svga-group-eyebrows-left" transform="matrix(0.8999997000000001,0,0,0.8999997000000001,8.031323684963226,8.083299091133114)"><path id="SvgjsPath6461" d="M67.6 82.1c1-.1 2.1-.1 3.1-.1 0-.1.1-.1.2-.1 2.1-.3 4-1.2 6-1.9.7-.3 1.4-.5 2.2-.6.8-.7 1.8-1.1 2.8-1.5.4-.3.9-.5 1.3-.6.8-.3 1.6-.6 2.5-.6.1 0 .2 0 .3-.1.6-.2 1.1-.3 1.8-.2.7-.5 1.5.1 2.1.8.1 0 .1 0 .1.1 1.9 1.1 2.7 4.1.9 5.7-.9.8-2.2 1.1-3.4 1.2-.7.1-1.5.1-2.3 0-1.7.7-4 .5-5.7.5-1.3 0-2.9-.1-4.2-.6h-.5c-1 0-2.2 0-2.9-.6-1.4-.1-2.9-.3-4.2-.6-.6-.2-.5-.8-.1-.8z" fill="#3b3128" stroke-width="none" opacity="1" stroke="none"></path><path id="SvgjsPath6462" d="M88.4 77.1c-.1-.2.1-.4.3-.2 1.5 1.4 3.2 4.8 1.2 6.5-.1.1-.2 0-.2-.1 0-1.1.5-1.9.2-3.1-.2-1.1-1-2.1-1.5-3.1zm-4 0c2.8.6 4.7 4 4.2 6.7 0 .2-.3.1-.3 0-.1-1.3-.3-2.6-1.1-3.8-.7-1.2-1.8-1.8-2.9-2.6-.2-.1-.1-.4.1-.3zm-2.9 1.8c2.6.5 5 2.6 6.1 5 .1.2-.1.3-.2.2-1.6-2.3-3.5-3.7-6-4.8-.2-.2-.1-.4.1-.4zm-3.2 1.8c2.6 0 5.7 1.4 7.1 3.5.1.2-.1.3-.2.2-1-.9-2.1-1.7-3.3-2.2-1.2-.5-2.4-.7-3.6-1.1-.3-.1-.2-.4 0-.4zm-3.7.5c2.2-.1 4.4 1.1 5.6 2.9.1.1-.1.3-.2.2-1.5-1.6-3.3-2.5-5.4-2.9-.1-.1-.1-.2 0-.2zM70 82.4c2-.1 4.1.2 5.7 1.6.1.1 0 .3-.2.2C73.9 83 72 83 70 82.7c-.2 0-.2-.2 0-.3z" fill="#4a423a" stroke-width="none" opacity="1" stroke="none"></path><path id="SvgjsPath6463" d="M87.7 84.8c1.3-.3 3-.6 4-1.7 2.1-2.3.1-6.5-2.5-7.5-3.2-1.3-6.8 1.4-9.6 2.7-2.2 1-4.5 1.8-6.9 2.4-2.2.6-4.6.7-6.8 1.3-.1 0-.1 0-.2-.1-.5-.1-.6.6-.2.7 5.3 2 11 2.6 16.6 2.6 1.8.1 3.7 0 5.6-.4zm-4.4-6.6c1.4.4 2.2 1 3.1 2.3.7 1 1.1 2 1.5 3.1-.3.1-.6.1-.9.2-1.2-2.1-3.9-4.3-6.6-4.7.8-.4 1.8-.9 2.7-1.4-.1.1 0 .5.2.5zm-4.2 1.5c1.3.5 2.7.7 3.9 1.4 1.3.7 2.3 1.7 3.3 2.8-1.1.2-2.1.2-3.2.3-1.2-1.7-3.8-3.6-6-3.8.7-.2 1.3-.5 2-.7zm-5.8 1.9c.5.2 1 .3 1.4.5.6.3 1.1.7 1.6 1.1.2.1.4 0 .3-.2-.3-.7-1.1-1.4-2-1.8.6-.2 1.2-.3 1.7-.5 0 .1 0 .2.1.2 1 .6 2.2.9 3.2 1.5.9.5 1.7 1.2 2.4 1.8h-.4c-4.7 0-9.3-.5-13.9-1.6 1.5-.1 3.1-.5 4.5-.8.5-.1.8-.2 1.1-.2zm15.3 1.8h-.1c-.3-1.6-1-3-2-4.3-.7-.9-1.9-2-3.1-1.6 2.6-1.2 5.4-1.8 7.1.8.7 1 1.2 2.5.5 3.7-.3.6-.9.9-1.6 1.1.5-2.1-.2-4.9-1.9-6.2-.2-.2-.5.2-.4.4.6 1 1.3 1.9 1.6 3 .2 1 .2 2 .1 3 0 .1-.1.1-.2.1z" fill="#2c2219" stroke-width="none" opacity="1" stroke="none"></path></g></g></g><g id="svga-group-eyebrows-right-move" transform="matrix(1,0,0,1,0,2)"><g id="svga-group-eyebrows-right-rotate" transform="matrix(0.9914448613738105,-0.1305261922200516,0.1305261922200516,0.9914448613738105,-9.520564460223255,16.39380732051167)"><g id="svga-group-eyebrows-right" transform="matrix(0.8999997000000001,0,0,0.8999997000000001,11.957495512881849,8.084440833449932)"><path id="SvgjsPath6464" d="M132.4 82.1c-1-.1-2.1-.1-3.1-.1 0-.1-.1-.1-.2-.1-2.1-.3-4-1.2-6-1.9-.7-.3-1.4-.5-2.2-.6-.8-.7-1.8-1.1-2.8-1.5-.4-.3-.9-.5-1.3-.6-.8-.3-1.6-.6-2.5-.6-.1 0-.2 0-.3-.1-.6-.2-1.1-.3-1.8-.2-.7-.5-1.5.1-2.1.8-.1 0-.1 0-.1.1-1.9 1.1-2.7 4.1-.9 5.7.9.8 2.2 1.1 3.4 1.2.7.1 1.5.1 2.3 0 1.7.7 4 .5 5.7.5 1.3 0 2.9-.1 4.2-.6h.5c1 0 2.2 0 2.9-.6 1.4-.1 2.9-.3 4.2-.6.6-.2.5-.8.1-.8z" fill="#3b3128" stroke-width="none" opacity="1" stroke="none"></path><path id="SvgjsPath6465" d="M111.6 77.1c.1-.2-.1-.4-.3-.2-1.5 1.4-3.2 4.8-1.2 6.5.1.1.2 0 .2-.1 0-1.1-.5-1.9-.2-3.1.2-1.1 1-2.1 1.5-3.1zm4 0c-2.8.6-4.7 4-4.2 6.7 0 .2.3.1.3 0 .1-1.3.3-2.6 1.1-3.8.7-1.2 1.8-1.8 2.9-2.6.2-.1.1-.4-.1-.3zm2.9 1.8c-2.6.5-5 2.6-6.1 5-.1.2.1.3.2.2 1.6-2.3 3.5-3.7 6-4.8.2-.2.1-.4-.1-.4zm3.2 1.8c-2.6 0-5.7 1.4-7.1 3.5-.1.2.1.3.2.2 1-.9 2.1-1.7 3.3-2.2 1.2-.5 2.4-.7 3.6-1.1.3-.1.2-.4 0-.4zm3.7.5c-2.2-.1-4.4 1.1-5.6 2.9-.1.1.1.3.2.2 1.5-1.6 3.3-2.5 5.4-2.9.1-.1.1-.2 0-.2zm4.6 1.2c-2-.1-4.1.2-5.7 1.6-.1.1 0 .3.2.2 1.7-1.2 3.6-1.2 5.5-1.5.2 0 .2-.2 0-.3z" fill="#4a423a" stroke-width="none" opacity="1" stroke="none"></path><path id="SvgjsPath6466" d="M118 85.3c5.6-.1 11.3-.7 16.6-2.6.4-.2.3-.8-.2-.7-.1 0-.1 0-.2.1-2.2-.7-4.6-.8-6.8-1.3-2.3-.6-4.7-1.4-6.9-2.4-2.8-1.3-6.4-4-9.6-2.7-2.6 1-4.6 5.2-2.5 7.5 1 1.1 2.6 1.4 4 1.7 1.8.3 3.7.4 5.6.4zm-1.2-7.6c.9.4 1.9.9 2.7 1.4-2.6.4-5.3 2.7-6.6 4.7-.3-.1-.6-.1-.9-.2.4-1.1.8-2.2 1.5-3.1.8-1.2 1.7-1.8 3.1-2.3.3 0 .4-.4.2-.5zm6.1 2.7c-2.2.2-4.8 2.1-6 3.8-1.1 0-2.1-.1-3.2-.3.9-1.1 2-2.1 3.3-2.8 1.2-.7 2.6-.9 3.9-1.4.7.2 1.3.5 2 .7zm4.7 1.4c1.4.3 3 .7 4.5.8-4.6 1.1-9.2 1.6-13.9 1.6h-.4c.8-.7 1.5-1.3 2.4-1.8 1-.6 2.2-.9 3.2-1.5.1-.1.1-.2.1-.2.6.2 1.2.4 1.7.5-.8.4-1.6 1.1-2 1.8-.1.2.1.4.3.2.5-.4 1-.8 1.6-1.1.5-.2 1-.3 1.4-.5.5 0 .8.1 1.1.2zm-16.5 1.6c-.1-1-.1-2 .1-3 .3-1.2 1-2 1.6-3 .1-.2-.1-.5-.4-.4-1.7 1.3-2.4 4.1-1.9 6.2-.6-.2-1.2-.5-1.6-1.1-.7-1.2-.2-2.6.5-3.7 1.7-2.7 4.5-2 7.1-.8-1.2-.4-2.4.7-3.1 1.6-1 1.3-1.7 2.7-2 4.3h-.1c0-.1-.1-.1-.2-.1z" fill="#2c2219" stroke-width="none" opacity="1" stroke="none"></path></g></g></g><g id="svga-group-beardwrap" transform="matrix(1,0,0,1,0,0)"><g id="svga-group-beard-single-move" transform="matrix(1,0,0,1,0,0)"><g id="svga-group-beard-single" transform="matrix(1,0,0,1,0,0)"></g></g></g><g id="svga-group-mustache-single-move" transform="matrix(1,0,0,1,0,1)"><g id="svga-group-mustache-single" transform="matrix(0.7999993000000002,0,0,0.7999993000000002,19.975069149557854,23.807347271957)"><path id="SvgjsPath7634" d="M99.5 121.4c.5-1.7.2-3.9-2.9-4.1-3-.2-8.7.4-12.4 3-3.7 2.6-2.7 4.6-1.9 5.2.8.6 5.9-.5 5.9-.5l.7-1.3-.2 1.2s3.5-.4 5.3-.7c1.8-.3 3.6-.8 3.9-1s.2.5.2.5 1.1-1.3 1.4-2.3zm2.1 0c-.5-1.7-.2-3.9 2.9-4.1 3-.2 8.7.4 12.4 3 3.7 2.6 2.7 4.6 1.9 5.2-.8.6-5.9-.5-5.9-.5l-.7-1.3.2 1.2s-3.5-.4-5.3-.7-3.6-.8-3.9-1-.2.5-.2.5-1.1-1.3-1.4-2.3z" fill="#54473c" stroke-width="none" opacity="1"></path><path id="SvgjsPath7635" d="M85.8 120.1c-1.1.6-2.1 1.6-2.8 2.6-.4.6-1.4 1.8-.9 2.5.1.1.2 0 .2-.1 0-.9 1-2.1 1.6-2.8.6-.7 1.3-1.3 2-1.9.2-.1 0-.3-.1-.3zm.7.4c-1.6 1-2.8 2.7-3.5 4.4-.1.1.1.2.2.1.9-1.7 2.1-3 3.5-4.3.1-.1-.1-.3-.2-.2zm3-.7c-1.7 1.3-3.4 3.2-3.8 5.3 0 .2.2.2.3.1.7-2.2 2.2-3.6 3.7-5.2.1-.2-.1-.3-.2-.2zm2.7-1c-2.3 1.1-4 3.4-4.6 5.9 0 .2.2.2.2.1.9-2.5 2.3-4.3 4.4-5.8.2-.1.1-.3 0-.2zm.1 1.3c-1.5 1-2.7 2.7-3.3 4.4 0 .1.2.2.2.1.9-1.7 1.9-3 3.2-4.3.2-.1.1-.3-.1-.2zm.9 1.8c-.8.6-1.4 1.5-1.9 2.3-.1.1.1.2.2.1.6-.8 1.3-1.5 1.9-2.3.1-.1-.1-.2-.2-.1zm2.5-.4c-.9 1-1.8 1.9-2.8 2.7-.1.1 0 .3.2.2 1.2-.6 2.2-1.6 2.8-2.8 0 0-.1-.2-.2-.1zm1.3.4c-.7.7-1.4 1.4-2.3 2-.1.1 0 .2.1.2.9-.4 1.8-1.1 2.3-2 .1-.2 0-.3-.1-.2zm1.7-2.5c-.3 1.5-.8 2.8-1.8 4-.1.1.1.2.2.2 1.1-1.1 2-2.5 2-4.1-.1-.2-.3-.2-.4-.1zm.2 2.3c-.3.6-.6 1.2-1 1.7-.1.1.1.2.2.1.4-.5.8-1.1.9-1.8h-.1zm-7.6-3.7c-2.1.1-4.2.8-6.1 1.8-1.5.9-3.5 2.1-3.8 4 0 .1.2.2.2.1 1-3.8 6.5-5.3 9.7-5.9.1 0 .1 0 0 0zm24 2.1c1.1.6 2.1 1.6 2.8 2.6.4.6 1.4 1.8.9 2.5-.1.1-.2 0-.2-.1 0-.9-1-2.1-1.6-2.8-.6-.7-1.3-1.3-2-1.9-.2-.1 0-.3.1-.3zm-.7.4c1.6 1 2.8 2.7 3.5 4.4.1.1-.1.2-.2.1-.9-1.7-2.1-3-3.5-4.3-.1-.1.1-.3.2-.2zm-3-.7c1.7 1.3 3.4 3.2 3.8 5.3 0 .2-.2.2-.3.1-.7-2.2-2.2-3.6-3.7-5.2-.1-.2.1-.3.2-.2zm-2.7-1c2.3 1.1 4 3.4 4.6 5.9 0 .2-.2.2-.2.1-.9-2.5-2.3-4.3-4.4-5.8-.2-.1-.1-.3 0-.2zm-.2 1.3c1.5 1 2.7 2.7 3.3 4.4 0 .1-.2.2-.2.1-.9-1.7-1.9-3-3.2-4.3-.1-.1 0-.3.1-.2zm-.8 1.8c.8.6 1.4 1.5 1.9 2.3.1.1-.1.2-.2.1-.6-.8-1.3-1.5-1.9-2.3-.1-.1.1-.2.2-.1zm-2.5-.4c.9 1 1.8 1.9 2.8 2.7.1.1 0 .3-.2.2-1.2-.6-2.2-1.6-2.8-2.8 0 0 .1-.2.2-.1zm-1.3.4c.7.7 1.4 1.4 2.3 2 .1.1 0 .2-.1.2-.9-.4-1.8-1.1-2.3-2-.1-.2 0-.3.1-.2zm-1.7-2.5c.3 1.5.8 2.8 1.8 4 .1.1-.1.2-.2.2-1.1-1.1-2-2.5-2-4.1.1-.2.3-.2.4-.1zm-.2 2.3c.3.6.6 1.2 1 1.7.1.1-.1.2-.2.1-.4-.5-.8-1.1-.9-1.8h.1zm7.6-3.7c2.1.1 4.2.8 6.1 1.8 1.5.9 3.5 2.1 3.8 4 0 .1-.2.2-.2.1-1-3.8-6.5-5.3-9.7-5.9-.1 0-.1 0 0 0z" fill="#45362a" stroke-width="none" opacity="1"></path></g></g><g id="svga-group-nose-single-move" transform="matrix(1,0,0,1,0,0)"><g id="svga-group-nose-single" transform="matrix(1,0,0,1,0,0)"><path id="SvgjsPath4191" d="M105.53 106.38c.26.82 3.73 4.55 3.79 6.57.06 2.02-2.08 4.04-4.74 2.21 0 0-2.46 1.89-4.74 1.64s-3.54-1.83-3.54-1.83-2.15.82-3.98.19c-1.83-.63-2.27-2.84-.95-4.86 1.33-2.02 3.6-5.49 4.1-7.45.52-1.96 7.09-5.62 10.06 3.53z" fill="#d6a998" stroke-width="none" opacity="1" transform="translate(0 1)" stroke="none"></path><path id="SvgjsPath4192" d="M105.49 105.94c-.16-.2-.5.06-.36.28.93 1.43 1.95 2.83 2.81 4.31.59 1 1.18 2.25.77 3.46-.67 1.98-2.42 1.87-3.83 1.11.53-.68.84-1.48.77-2.36-.02-.22-.32-.41-.48-.2-1.4 1.76-2.29 3.6-4.89 3.7-2.75.11-4.52-2.12-5.25-4.51-.06-.21-.35-.16-.36.05-.07 1.1.27 2.16.87 3.06-.4.07-.8.15-1.2.17-1.28.08-1.49-.02-2.33-1.09-.89-1.12-.89-1.4-.4-2.65.23-.58.58-1.08.91-1.61 1.08-1.68 2.04-3.39 2.75-5.26 1.43-3.73 2.05-7.86 1.36-11.81-.03-.17-.29-.12-.29.04-.01 3.2-.21 6.36-1.15 9.44-.97 3.19-2.81 5.59-4.34 8.46-.8 1.49-1.13 3.46.23 4.74 1.35 1.28 3.43.87 5.01.27.94 1.02 2.24 1.72 3.61 1.85 1.55.14 3.58-.61 4.83-1.88 1.45 1.61 4.23.86 4.96-1.19 1.09-3.12-2.3-6.24-4-8.38z" fill="#a86045" stroke-width="none" opacity="1" transform="translate(0 1)" stroke="none"></path><path id="SvgjsPath4193" d="M102.24 108.78c-.89-.83-2.3-1.07-3.3-.3-.36.28-.58.63-.67 1-.17.06-.34.16-.48.3-.76.74-.44 1.9.21 2.59.55.59 1.45.87 2.24.83.97-.05 1.85-.51 2.39-1.33.63-.95.44-2.31-.39-3.09z" fill="#deb7a9" stroke-width="none" opacity="1" transform="translate(0 1)" stroke="none"></path></g></g><g id="svga-group-hair-front" transform="matrix(1,0,0,1,0,0)"><path id="SvgjsPath7156" d="M135.8 66.3c-1 3.3-1 5.1-.9 7.6.1 2.4-1 5.1 1.1 4.8 2.1-.3 4.4-.7 5.7-4.2 1.3-3.5 3-8.2 2.9-10-.1-1.8-3.7-9-3.7-9l-3.3 7.8-1.8 3z" fill="#1f1913" stroke-width="none" opacity="1" stroke="none"></path><path id="SvgjsPath7157" d="M143.8 74c.4-3.6 1-8.5.2-9.3-.8-.8-5.6 2.2-6 4.8s-.4 7.5-.4 7.5c-.7 2.7-.8 4-.7 5.8.1 1.8-1 3.9.7 3.6.1 0 .2 0 .2-.1-.3 2.3-.1 3.8.2 5.4.3 2.2-.7 4.5 1 4.6s2.7-.6 3.5-3.8c.8-3.2 1.3-6.4 1.4-9.5.1-2.5.2-6.3-.2-8.4.1-.2.1-.4.1-.6zm-81.6 6.8c-.5-1.6-.3-4-1-5.3s-3.5-6.4-3.5-6.4c-.9 1.8-2.3 3.9-2.3 7.1 0 2.7-.4 4.6.2 6.2-.1 1.2-.1 2.4 0 3.1.2 1.1 1.8 8.1 3.4 9.1 1.4.8 2.4-2.9 2.2-6.2 1.6-2.9 1.5-6.1 1-7.6z" fill="#18120d" stroke-width="none" opacity="1" stroke="none"></path><path id="SvgjsPath7158" d="M59.3 61c-.9.8-2.3 3.2-2.7 5.7s-.4 5 .1 6.2c.6 1.1 3.6 7.3 5.6 6.3 2-1 1.3-3 1.1-6.2s.1-3.7-.7-6.4c-.8-2.8-3.4-5.6-3.4-5.6zm8.9-37.1c-.7-2.5 3 1.4 2.9 7.5-.1 6.2 1 10.6 3.8 13 2.8 2.4 13.2 11.2 13.2 11.2s-2.4.7-7.2-.7-11-3.5-14.2-7.6-2.3-10.2-.9-13.2c1.4-2.9 3.3-6.9 2.4-10.2zm51.4 32c2.2-.6 5.8-1.7 7.5-.6 1.6 1.1 1.7 4.7 5.3 4.6 3.6-.1 6.8-6.5 6.5-9.4-.2-2.9-2.4-7.8-5.9-9.1-3.5-1.3-3.1 2.6-3.5 4.1-.4 1.5.1 2.5-3.5 5.1-3.5 2.7-6.4 5.3-6.4 5.3z" fill="#1f1913" stroke-width="none" opacity="1" stroke="none"></path><path id="SvgjsPath7159" d="M131.3 58.4c-.2 1.1-.4 4.4 1.1 6.4s.6 4.3 3.8 3.1c3.2-1.2 6.9-5.4 6.6-8.5-.2-3.1-2.7-10.6-5.3-12-2.7-1.3-2.9 4.6-2.9 4.6l-3.3 6.4zM66.4 40c-1.8 2.1-4.9 2.8-4.2 6.5s5.4 7.7 9.8 8.3 7.7-.1 8.3-.6-9.6-6.2-9.6-6.2l-4.3-8z" fill="#27201a" stroke-width="none" opacity="1" stroke="none"></path><path id="SvgjsPath7160" d="M62.8 45.5c-1.2 1-2.4 1.5-2.8 4.4-.4 2.9-.5 3.4 1.2 6.7 1.8 3.3 2 5.3 4.6 4.7 2.6-.6 5.5-2.9 5.2-6.5s-2.7-1.3-3.9-4.5-2.1-3.9-2.1-3.9l-2.2-.9z" fill="#1f1913" stroke-width="none" opacity="1" stroke="none"></path><path id="SvgjsPath7161" d="M60.9 52.2c-1.2 1.6-2.6 1.9-2.9 4.9s-1.3 2.9.7 6.4c2 3.5 4 7.7 5.9 5.7s1.6-3 1.9-5.4c.3-2.4-.6-4.9-1.7-7-1.2-2.2-3.9-4.6-3.9-4.6zm34.5 5s-6.4 0-10.1-1.8c-3.7-1.8-11.6-8.7-13.2-13.6s.4-14.4-.8-18.9c0 0 1.5 3.8 2.9 5.8s4.4 2 9.2 4.8 9.1 8.5 9.8 12.8 2.2 10.9 2.2 10.9z" fill="#18120d" stroke-width="none" opacity="1" stroke="none"></path><path id="SvgjsPath7162" d="M73.7 18.1c-.1-.5-2 6.7 2 10.6S85.9 37 87.2 42.2s.9 6.1 2.3 9.3 3.2 6.4 5.8 7.6c2.6 1.2 7.4-.2 7.4-1s4.1 3.5 6.8 2.2c2.7-1.3 10.3-10.6 11.4-17.2s-2.4-13.6-6.8-14.7-21.6-2.4-25.2-4.3c-3.6-1.9-5.2-3.7-5.6-5.1 0 0-.3 3.4 3 7.4S96 33 96 33s4.7 1.2 5.3 5c0 0-8.2-6.4-15-8.9s-10-.9-12.6-11z" fill="#1f1913" stroke-width="none" opacity="1" stroke="none"></path><path id="SvgjsPath7163" d="M104.5 60.4s-4.2.3-5.8-4.5S98 42 95.1 37.1s-13.9-7.4-16.7-10.3c-2.7-2.9-3.8-9.3-3.8-9.3s2.7 7.9 6.7 8.4c3.9.5 17.3 4.9 21.7 6.9s9.1 10.3 8.2 15.5-2.5 12.6-6.7 12.1z" fill="#27201a" stroke-width="none" opacity="1" stroke="none"></path><path id="SvgjsPath7164" d="M110.6 26.7c.6 0 10.8 2.9 15.9 4.5s17 10.3 4.4 17.8-8 8.8-20.3 10.9c-3.4.6 3.6-5.6 6.3-11 2.7-5.4 2.5-14.6 1-16.6s-7.3-5.6-7.3-5.6z" fill="#18120d" stroke-width="none" opacity="1" stroke="none"></path><path id="SvgjsPath7165" d="M96.3 58.9c-3.5-3-5.5-6.7-6.4-11.2-.6-3.2-.3-6.8-1.7-9.7-.9-1.8-2.2-3-3.8-4.1-4.4-3.1-7.9-5-9.8-10.5-.1-.2-.4-.1-.3.1.8 3 2.2 5.6 4.6 7.6 4.2 3.7 8.6 4.8 9.5 11.3.8 6.3 1.6 13.5 7.9 16.8-.1 0 .1-.2 0-.3zm2.5-.6c-6.1-2.7-8.2-8.4-8.7-14.6 0-.2-.3-.2-.3 0-.2 6.2 2.7 12.8 8.9 14.9.2 0 .3-.2.1-.3zm3.5.5c-3.5-4-4.4-8.4-4.3-13.6.1-2.9.5-5.9-1.2-8.5-1.4-2.2-3.7-3.1-5.9-4.2-3.7-1.8-7.3-3.6-11-5.1-.1 0-.2.1-.1.2 3.5 2 7.2 3.7 10.8 5.5 2.8 1.4 5.2 2.4 6.3 6 .6 1.9.2 4.2.2 6.1-.2 5.5 1.1 9.9 5 13.8.1.2.4-.1.2-.2zm3.6-.3c-3.7-3.2-1.6-6.9-1.5-11 0-2.6-.7-4.9-2-7.1-.1-.2-.3 0-.2.1 1.1 2.4 1.7 4.9 1.6 7.5-.1 1.8-.8 3.5-.8 5.3-.1 2.3 1 4 2.8 5.3.1.2.2 0 .1-.1zm18.3-25.6c-.2-.1-.3.2-.1.3.8.3 1.6.5 2.4.8v.1c7.6 6.6-2.7 14.6-7.7 18.1-.2.1 0 .4.2.3 5.3-2.8 16-12.5 8.1-18.3 3.1 1.3 3.8 2 4.7 5.5.8 3.2.4 4.9-2 7.4-1.3 1.4-3.1 2.4-4.8 3.4-4.2 2.5-7.9 5.8-12.2 8.2-.1 0 0 .2.1.1 4.4-2 8.1-5.5 12.3-8 2.8-1.7 5.7-3.5 7.1-6.5 3-6.4-2.7-10-8.1-11.4zm-10.5-3.3c-.1 0-.2.2 0 .2 4.6 1 9.8 2.1 10.5 7.7.5 4-2.1 7.8-4.8 10.4-3.5 3.3-7.4 5.9-8.2 11-.1.4.5.6.6.2 1.5-8.6 12.7-10.9 13.2-20.3.4-6.8-5.6-8.8-11.3-9.2zm-1.1 8.2c-4.2-9.5-17.4-8.6-24.7-14.5-.1-.1-.3.1-.2.2 7.2 6.7 18.9 5.6 24.3 14.6.3.3.8 0 .6-.3zm25.8 14.3c-.1-.2-.4-.2-.4 0 .1 5.3-6.3 8.5-4.5 14 .1.2.4.1.3-.1-1.3-5.4 5.8-8.4 4.6-13.9zm3.1 7.4c0-.2-.3-.2-.4 0-.6 1.8-1 3.6-1.9 5.3-.8 1.4-1.9 2.5-2.6 3.9-1 2-1.1 4-.5 6.1.1.2.4.1.3-.1-.6-4 1.4-5.9 3.3-9.1 1.1-1.9 1.6-4 1.8-6.1zm.7 2c0-.3-.4-.2-.5.1-.2 2.2-.4 4.1-1.2 6.1-.1.2.2.4.3.2 1-1.9 1.7-4.2 1.4-6.4zm0 11.7c0-.2-.3-.2-.4-.1-.6 3-1.6 5.7-2.5 8.6-.6 1.9-.8 3.6 0 5.4.1.3.6.1.5-.2-1-2.8.3-5.1 1.2-7.7.8-1.9 1.2-3.9 1.2-6zm-.2 8c-.5 1.1-.6 2.5-.6 3.7 0 .2.4.2.4 0 0-1.2.3-2.3.5-3.5 0-.3-.2-.5-.3-.2zM86.9 53.1c-4.5-1.6-8.2-3.9-10.6-8.2-2.5-4.4-2.2-9-2.3-13.9 0-.3-.5-.3-.5 0-.9 9.7 2.8 20 13.3 22.4.3.1.3-.2.1-.3zm-8.6-2c-2.7-1.7-5.5-4.7-7-7.5-1.9-3.4-1.8-7.3-1.7-11.1 0-.3-.4-.3-.4 0-.5 7.7 1.7 15 9 18.9.1.1.3-.2.1-.3zm-3.7.1c-3.8-1.8-6.7-4.4-8.4-8.4-.1-.2-.5-.2-.4.1 1.2 4 4.4 7.7 8.6 8.7.2.1.4-.3.2-.4zm-4.3 1.6c-1.7-.7-3.3-1.5-4.8-2.5-.1-.1-.2.1-.1.2 1.5 1 3.1 1.9 4.9 2.5.1-.1.1-.2 0-.2zM66 57.6c-1.6-1.5-3.2-2.8-4.4-4.6-.1-.2-.4 0-.3.2 1.2 1.8 2.7 3.6 4.5 4.7.1 0 .3-.2.2-.3zm55.6-20.7c-.4-3.5-3.1-6.2-6.5-6.7-.2 0-.2.2-.1.2 4.1 1.4 7.1 5.1 5.7 9.7-.8 2.6-3 4.6-4.6 6.7-.1.1.1.2.2.1 2.6-2.9 5.8-5.7 5.3-10zm-10.2-3.3c-.2-.2-.4.1-.2.2 5.6 6.5.8 14.3-1.4 21.2-.1.2.2.3.3.1 2.6-6.6 7.5-15.5 1.3-21.5zm-16.7-.9c-.2 0-.3.2-.1.3 8.9 2.5 3.9 14.4 6.7 20.7.1.2.3 0 .3-.1-1.8-6.4 2.2-18.9-6.9-20.9z" fill="#362f2a" stroke-width="none" opacity="1" stroke="none"></path></g><g id="svga-group-glasses-single-move" transform="matrix(1,0,0,1,0,0)"><g id="svga-group-glasses-single" transform="matrix(1,0,0,1,0,0)"></g></g></g></g></g><rect id="svga-credit-rect" width="200" height="15" x="0" y="185" fill="#ecf0f1" opacity="0.5" style="display: none;"></rect><text id="svga-credit-text" font-family="Avenir Next, Roboto, Helvetica, Arial, sans-serif" font-size="10px" text-anchor="start" font-weight="400" size="10px" anchor="start" weight="400" fill="#333333" x="33.40447998046875" y="182.60824704170227" style="display: none;"><tspan id="SvgjsTspan3125" dy="13" x="33.40447998046875">Created on AvatarMaker.com</tspan></text></g></svg>