<?xml version="1.0" encoding="UTF-8"?>
<svg id="Layer_1" data-name="Layer 1" xmlns="http://www.w3.org/2000/svg" version="1.1" viewBox="0 0 600 600">
  <defs>
    <style>
      .cls-1 {
        fill: #4a423a;
      }

      .cls-1, .cls-2, .cls-3, .cls-4, .cls-5, .cls-6, .cls-7, .cls-8, .cls-9, .cls-10, .cls-11, .cls-12, .cls-13, .cls-14, .cls-15, .cls-16, .cls-17, .cls-18, .cls-19, .cls-20, .cls-21, .cls-22, .cls-23 {
        stroke-width: 0px;
      }

      .cls-2 {
        fill: #c59878;
      }

      .cls-3 {
        fill: #f5f7ff;
      }

      .cls-4 {
        fill: #ecf0f1;
        opacity: .5;
      }

      .cls-4, .cls-24, .cls-14, .cls-25 {
        isolation: isolate;
      }

      .cls-4, .cls-25 {
        display: none;
      }

      .cls-5 {
        fill: #bf6959;
      }

      .cls-24 {
        fill: #333;
        font-family: AvenirNext-Regular, 'Avenir Next';
        font-size: 30px;
      }

      .cls-6 {
        fill: #e0e0e0;
      }

      .cls-7 {
        fill: #543c32;
      }

      .cls-8 {
        fill: #2c2219;
      }

      .cls-9 {
        fill: #482b04;
      }

      .cls-10, .cls-14 {
        fill: #9e6439;
      }

      .cls-11 {
        fill: #000;
      }

      .cls-12 {
        fill: #3b3128;
      }

      .cls-13 {
        fill: #392100;
      }

      .cls-14 {
        opacity: .6;
      }

      .cls-15 {
        fill: #bd8d6a;
      }

      .cls-16 {
        fill: #67461a;
      }

      .cls-17 {
        fill: #634e45;
      }

      .cls-18 {
        fill: #8f5225;
      }

      .cls-19 {
        fill: #c77667;
      }

      .cls-20 {
        fill: #ae7850;
      }

      .cls-21 {
        fill: #fff;
      }

      .cls-22 {
        fill: #b85d4d;
      }

      .cls-23 {
        fill: #452c22;
      }
    </style>
  </defs>
  <g id="svga-group-wrapper">
    <g id="svga-group-backs-single">
      <path id="SvgjsPath7138" class="cls-3" d="M0,0h600v600H0V0Z"/>
      <path id="SvgjsPath7139" class="cls-21" d="M19.5,48.9C31.5,21.3,60.9,7.5,85.5,15c18,5.7,31.8,22.5,35.4,42.9,0,0,76.2-45.6,125.1,3.3,18.3,18.3,20.1,53.4-14.7,81.6-26.4,21.6-58.5,4.2-58.5,4.2,6,16.8,1.8,34.5-9,42.9-15,11.4-43.5,6.6-56.7-17.4,0,0,7.5,39.6-37.8,46.2-45.6,6.6-43.2-38.7-43.2-38.7,0,0-2.7,13.2-26.1,13.2V39s4.2-.9,9.6,1.5c5.4,2.4,9.9,8.4,9.9,8.4ZM428.1,190.8c-.6-2.1-13.8-29.7-45.6-27-31.8,2.7-22.8,44.4-22.8,44.4,0,0-42.9,1.5-46.5,35.4s36,65.4,88.8,32.4c0,0,41.7,42.3,86.7-2.7,0,0,63,38.1,85.2.6s-25.2-54.9-25.2-54.9c0,0,19.5-47.1-36-36,0,0-9-27-39.6-25.5-30.3,1.2-45,33.3-45,33.3ZM244.8,447s-16.5,20.1-50.4,15.3c-33.9-4.8-36.6-32.7-36.6-32.7,0,0-42.9,37.5-94.8,9s-23.7-78.9-2.1-92.1,60.9-1.5,60.9-1.5c0,0-4.8-14.4,13.8-25.5,18.6-11.1,33.9,5.4,33.9,5.4,0,0,3.6-24.9,42.3-24.3s37.2,36.9,37.2,36.9c0,0,15.3-27.6,49.2-11.1s22.8,42.9,22.8,42.9c0,0,9-11.1,19.5-12.6s22.8,9,21.6,20.7c0,0,26.4-24.3,60.9,16.5s-33.9,84.6-65.7,47.7c0,0-10.5,31.8-60.3,28.5s-52.2-23.1-52.2-23.1ZM462.9,504.3s-8.4-18.6-32.7-18-23.7,29.1-23.7,29.1c0,0-18-17.4-36-4.2s0,33.9,0,33.9c0,0-17.4,1.5-15.9,18.6s38.7,38.7,80.4-.6c0,0,12.6,20.1,33.9,14.7,21.6-5.7,20.7-25.5,20.7-25.5,0,0,29.1,25.5,57.6,7.5s20.1-70.8-26.4-73.5c-46.2-2.7-57.9,18-57.9,18ZM379.5,0s-22.2,11.1-16.5,38.7c5.7,27.6,48.3,24.9,58.8,10.5,0,0-8.4,29.1,22.2,30.3,0,0-.6,50.4,55.2,33s48.9-66.9,48.9-66.9c0,0,7.5,38.7,52.2,38.7V0h-220.8,0ZM0,585.6s57.9,23.7,88.8-28.2-35.4-61.8-46.2-47.1c0,0,4.8-50.1-42.6-39.6v114.9h0Z"/>
    </g>
    <g id="svga-group-humanwrap-move">
      <g id="svga-group-humanwrap">
        <g id="svga-group-humanbody-back">
          <path id="SvgjsPath3473" class="cls-15" d="M499.5,543.3c-32.7-19.8-82.8-25.2-105-36.3-14.7-7.5-27.3-14.1-26.7-53.4s5.7-127.2,5.7-127.2h-147.3s4.8,88.2,5.7,127.2-12.6,46.8-26.7,53.4c-22.2,10.5-72.3,16.2-105,36.3-32.4,19.8-30,56.7-30,56.7v59.1h459.9v-59.1c-.3,0,2.1-36.9-30.6-56.7h0Z"/>
        </g>
        <g id="svga-group-chinshadow-single">
          <path id="SvgjsPath3851" class="cls-14" d="M373.5,326.7h-147.3c.3,5.4,4.8,89.1,5.7,126.9.3,7.8-.3,14.4-.9,19.8,35.7,30.6,69,27,69,27,0,0,33.3,3.6,69-26.7-.9-5.4-1.2-12-1.2-19.8.6-38.4,5.4-121.8,5.7-127.2Z"/>
        </g>
        <g id="svga-group-humanbody-front">
          <path id="SvgjsPath3474" class="cls-10" d="M236.1,470.4c1.5,14.4,5.1,28.2,9.3,41.7,2.4,6.9,4.8,13.8,7.8,20.7,2.4,6,5.1,12.6,9.3,17.7.9,1.2,3,0,2.7-1.5-1.5-6.6-4.8-12.9-7.2-19.2-2.7-6.6-5.1-13.2-7.5-19.8-4.5-13.2-8.4-26.7-12.3-39.9-.6-1.2-2.4-.9-2.1.3h0ZM360,467.4c-3.9,24.6-11.7,48.3-16.2,72.6-.3,1.2,1.2,1.5,1.8.6,9.3-23.1,12.3-48.3,15.3-72.9-.3-.6-.9-.6-.9-.3h0ZM282.6,503.1c-2.7,10.8,5.7,25.8,18.6,22.8,1.5-.3,1.2-2.4,0-3-4.2-1.5-8.7-2.7-11.7-6.3-3.3-3.6-4.5-8.7-4.2-13.5,0-1.2-2.4-1.5-2.7,0h0Z"/>
          <path id="SvgjsPath3475" class="cls-18" d="M531.9,659.1c-.3-19.8-.9-39.3-.9-59.1l-.9-.9q.3,0,.6.3c.3.3.3.6.3.3v-4.2c0-1.5-.3-2.7-.3-4.2-.3-2.7-.9-5.7-1.5-8.4-1.5-5.4-3.3-10.8-6-15.9-5.1-10.2-13.2-18.6-23.1-24.3-10.8-6.6-22.8-11.4-34.8-15.3s-24.3-7.2-36.3-10.5c-12-3.6-24.3-6.6-35.4-12.6-5.7-3-10.8-6.3-14.4-10.8-3.6-4.8-5.7-10.5-6.9-16.5-2.4-12-1.2-24.6-.9-37.2l2.1-37.8,4.5-75.6.3-4.2h-4.2c-24.6,0-49.2,0-73.8.3l-73.8.9h-2.7l.3,2.7c2.4,35.7,4.8,71.4,6.3,107.1.3,9,.9,18,.6,26.7-.3,8.7-1.2,17.7-4.8,25.8-1.8,3.9-4.2,7.5-7.2,10.5s-6.9,5.4-10.8,7.2c-7.8,3.9-16.2,6.6-24.9,9-17.4,4.5-34.8,8.4-51.9,14.1-8.4,2.7-17.1,6-25.2,10.2-3.9,2.1-8.1,4.2-12,7.2-3.9,2.7-7.2,5.7-10.5,9.3-6.3,6.9-10.8,15.6-13.5,24.3-1.5,4.5-2.4,9-3,13.8s-.3,4.8-.3,7.2v6.9l-.6,53.7v3.9h4.2l114.9.6c38.4.3,76.5.3,114.9,0s76.8-.3,114.9-.9c38.4-.6,76.8-1.5,114.9-2.1h1.8v-1.5h0ZM300.3,654.3h-114.9l-111,.6-.3-49.8v-6.6c0-2.1,0-4.2.3-6.3.3-4.2,1.2-8.4,2.4-12.6,2.4-8.1,6.3-15.9,11.7-22.5,2.7-3.3,6-6.3,9.3-8.7,3.3-2.7,7.2-4.8,11.1-6.9,7.8-4.2,15.9-7.5,24.3-10.5,16.8-6,34.2-10.2,51.3-15.3,8.7-2.4,17.4-5.1,25.5-9.3,3.9-2.1,8.1-4.5,11.4-7.8,3.3-3.3,6-7.2,7.8-11.7,3.6-8.7,4.5-17.7,4.8-26.7,0-9-.3-18-.6-27l-3.9-104.4,70.5,1.2c23.1.3,46.2.3,69.3.3-1.2,23.7-2.4,47.7-3.3,71.4-.6,12.6-.6,25.2-.9,37.8,0,12.6-.6,25.5,2.4,38.4,1.5,6.3,3.9,12.6,8.4,18,4.2,5.1,10.2,8.7,15.9,11.4,11.7,5.7,24,8.4,36.3,11.4s24.6,6,36.6,9.9,23.7,8.4,34.5,15c9.6,5.7,17.4,14.1,22.5,24,2.7,4.8,4.5,10.2,5.7,15.6.6,2.7,1.2,5.4,1.2,8.1.3,1.5.3,2.7.3,4.2v4.5l-.9,57c-37.8-.6-75.3-1.5-113.1-2.1-38.1-.3-76.5-.3-114.6-.6h0Z"/>
        </g>
        <g id="svga-group-clothes-single">
          <path id="SvgjsPath3363" class="cls-21" d="M537.9,660.3c0-52.5-4.8-80.1-4.8-80.1-9-42-65.7-54.6-92.1-60.3-45.6-9-60.3-21.6-60.3-21.6,0,0-19.2,48-82.5,48s-80.4-49.8-80.4-49.8c0,0-15.9,12.3-63.6,21.3-26.1,5.7-78.9,20.7-87.9,62.7,0,0-4.8,27.6-4.8,80.1h476.4v-.3Z"/>
          <path id="SvgjsPath3364" class="cls-6" d="M538.8,627.6c-.3-10.8-.6-21.9-1.5-32.7l-.9-8.1c-.3-2.7-.6-5.4-1.2-8.4-1.2-5.7-3.3-10.8-6.3-15.9-5.7-9.9-14.7-17.7-24-23.7-9.6-6-19.8-10.5-30.3-14.1s-21.3-6.3-31.8-8.7c-10.5-2.1-21-4.8-31.2-8.1-5.1-1.8-9.9-3.6-14.7-5.7-2.4-1.2-4.8-2.1-7.2-3.3-1.2-.6-2.4-1.2-3.3-1.8-.9-.6-2.1-1.5-3-1.8-.3-.3-.6-.3-.9-.6-2.1-.9-4.5,0-5.4,2.1-1.5,3.3-3.6,6.9-5.7,10.2-2.4,3.3-4.8,6.3-7.5,9.3-5.4,5.7-11.7,10.8-18.6,15-13.8,8.1-30.3,12-46.5,12.3s-33-3-47.1-11.4-25.8-21.3-32.1-36.3c0,0,0-.3-.3-.3-.6-.6-1.5-.9-2.1-.3-4.2,3-9.3,5.4-14.1,7.2-5.1,2.1-10.2,3.9-15.3,5.4-10.5,3.3-21,5.7-31.5,7.8-21.3,4.5-42.9,10.5-61.8,22.8-9.3,6-18,13.8-23.7,23.7-3,4.8-5.1,10.2-6.6,15.9-.3.6-.3,1.5-.6,2.1l-.3,2.1-.6,4.2-.9,8.1c-2.4,21.9-3.3,43.8-3.6,65.7,0,2.1,1.8,4.2,3.9,4.2l120,.6c39.9,0,80.1-.3,119.7-.6l119.4-.9,110.7-1.8,6.6-1.2c.3-11.4.3-21.9.3-33h0ZM477.3,658.8l-60-.9-119.1-1.5c-39.6-.3-78.9-.6-118.2-.6l-114,.6c0-20.4.3-40.8,2.1-60.9l.9-8.1.3-3.9.3-2.1c0-.6.3-1.2.3-1.8,1.2-4.8,3-9.9,5.4-14.4,5.1-9,12.6-16.8,21.3-22.8s18.6-10.8,28.5-14.7,20.4-6.9,31.2-9,21.3-4.8,31.8-8.1c5.1-1.8,10.5-3.6,15.6-5.7,4.5-1.8,9-3.9,13.5-6.6,3.3,7.5,7.5,14.1,12.6,20.4,5.4,6.6,12,12.3,19.5,16.8,14.7,9.3,32.1,13.2,49.2,13.5,17.1.3,34.8-3,50.1-11.4,7.8-4.2,14.7-9.6,20.7-15.9,5.1-5.4,9.3-10.8,12.9-17.4,1.2.6,2.4,1.5,3.6,2.1,2.4,1.2,5.1,2.7,7.5,3.6,5.1,2.4,10.2,4.2,15.6,6,10.5,3.3,21.3,6,32.1,8.1,21,4.2,42,9.9,60.3,20.7,9,5.4,17.1,12.3,22.8,21,2.7,4.2,4.8,9.3,6.3,14.1.6,2.4.9,5.1,1.2,7.8l.9,8.1c1.2,10.8,2.4,21.6,3,32.4s1.2,21.9,1.8,32.4l-60-1.8h0ZM114.9,565.5c4.2,9.6,7.2,19.5,9.6,29.7,1.2,5.1,2.4,10.2,3.3,15.3.9,5.1,1.8,10.2,2.7,15.6,1.5,9.6,3,19.2,4.2,28.8h.6c.6-9.6.6-19.5,0-29.4-.9-10.5-2.4-21.3-4.8-31.8-1.2-5.1-2.7-10.5-4.5-15.6s-3.9-10.2-6.6-14.7c-2.4-4.8-5.4-9.3-9-13.5-3-3.3-6-6.6-9.6-9.3-.3,0-.3.3-.6.3,3,3.3,5.4,6.9,7.8,10.5,2.4,4.5,4.8,9.3,6.9,14.1ZM469.8,625.8c.9-5.1,1.8-10.5,2.7-15.6.9-5.1,1.8-10.2,3.3-15.3,2.4-10.2,5.4-20.1,9.6-29.7,2.1-4.8,4.5-9.3,7.2-13.8,2.1-3.3,4.5-6.9,7.2-9.9-.3-.3-.6-.3-.6-.6-3.3,2.4-6.3,5.4-9,8.7-3.3,4.2-6.3,8.7-9,13.5s-4.8,9.6-6.6,14.7c-1.8,5.1-3.3,10.2-4.5,15.6-2.4,10.5-3.9,21-4.8,31.8-.6,10.5-.9,21.3,0,31.8,1.5-10.5,3-20.7,4.5-31.2h0ZM348,551.4c-15.6,8.7-33.9,11.7-51.9,10.5-4.5-.3-9-.6-13.5-1.2s-8.7-1.5-13.2-2.7c-4.2-1.2-8.4-2.7-12.6-4.5-3.9-1.8-8.1-3.9-11.7-6.3-7.5-4.8-14.4-10.8-20.1-17.4-6-6.6-11.1-14.1-15-21.9,6,16.8,17.4,32.1,32.7,42.9,7.5,5.4,16.2,9.6,25.2,12.3,4.5,1.2,9.3,2.4,13.8,3,4.8.6,9.3,1.2,14.1,1.2,9.3.3,18.9,0,28.2-2.1s18.3-5.4,26.4-10.2c8.1-4.8,15.3-10.8,21.6-17.4s12-13.8,16.8-21.3c-12,13.5-24.9,26.4-40.8,35.1h0Z"/>
        </g>
        <g id="svga-group-head">
          <g id="svga-group-ears-left-move">
            <g id="svga-group-ears-left">
              <path id="SvgjsPath4729" class="cls-15" d="M176.4,275.1s-7.8-14.7-15.9-17.1-13.2,2.1-11.7,19.8,15.6,69.6,31.8,66.6c16.2-3.3,2.7-58.8-4.2-69.3h0Z"/>
              <path id="SvgjsPath4730" class="cls-20" d="M179.4,280.8c.9,2.1,1.8,4.5,2.4,6.6,1.5,4.5,3,9.3,4.2,14.4,1.2,4.8,2.1,10.2,2.7,15.6.3,2.7.6,5.4.6,8.1s0,5.4-.3,8.4c-.3,2.7-.9,5.4-2.1,7.5-.9,2.1-2.4,3.6-3.6,4.5-2.7,1.5-5.7,1.2-8.4-.3-2.7-1.5-5.4-4.5-7.8-8.1s-4.2-7.5-6-12c-1.8-4.2-3.3-9-4.8-13.5s-3-9.3-4.2-14.1-2.4-9.9-3.3-15-1.5-10.8-.9-16.2c.3-2.7.9-5.4,2.1-7.2s2.4-3,3.9-3.6,2.7-.6,4.2-.3,2.7.9,4.2,1.8c2.7,1.8,5.1,4.5,7.5,7.5s4.5,6.6,6.6,10.2c1.2,1.5,2.1,3.6,3,5.7h0ZM169.8,265.8c-2.4-2.7-4.8-4.8-7.5-5.7-2.4-.9-5.1-1.2-7.5-.3-1.2.6-2.1,1.2-3,2.7s-1.5,3.3-1.8,5.4c-.6,4.2-.6,9.6.3,14.4.6,5.1,1.5,9.9,2.7,15,2.4,9.6,5.4,18.9,9.3,26.7,1.8,3.9,3.9,7.5,6,10.5s4.5,5.4,6.9,6.6c1.2.6,2.4.9,3.6.9s2.4-.3,3.6-1.2c.9-.6,2.1-1.8,2.7-3.3s1.2-3.6,1.5-5.7c.6-4.2.3-9.3,0-14.4-.3-5.1-1.2-9.9-2.1-15s-2.1-9.9-3.3-14.7c-1.2-4.8-3-9.3-5.1-12.9-1.8-3-3.9-6.3-6.3-9h0Z"/>
              <path id="SvgjsPath4731" class="cls-10" d="M157.2,268.8c6.9,4.5,13.2,17.1,16.2,29.7v.3c0,.9-.6,1.2-.6.3-1.2-3.6-2.7-3.6-4.5,0-.3,2.4-.3,4.5.3,6.9.6,2.1,1.2,4.2,2.1,6,1.5,3.6,3.6,6.3,5.4,9.3.6.9,0,2.1-.6,1.8-4.2-3.3-10.2-14.1-9-23.4.6-4.5,3-6.9,4.8-5.1-2.4-6.3-5.1-12-8.4-16.5-1.8-2.4-6-8.1-8.1-7.2-3.9,1.8-1.8,14.4-1.5,19.8,0,.9-.6,1.2-.9.3-2.1-9.9-2.4-27,4.8-22.2h0Z"/>
              <path id="SvgjsPath4732" class="cls-10" d="M174,325.8c-7.2-2.7-12.6-14.4-15.6-27-1.8-7.8-5.4-25.8,1.5-25.5.6,0,.9,1.5.3,1.8-6.6,3.3.6,27.6,2.7,33.3,3,7.8,6.6,13.2,11.4,16.2.3.3,0,1.5-.3,1.2Z"/>
            </g>
          </g>
          <g id="svga-group-ears-right-move">
            <g id="svga-group-ears-right">
              <path id="SvgjsPath4733" class="cls-15" d="M423.6,275.1s7.8-14.7,15.9-17.1,13.2,2.1,11.7,19.8-15.6,69.6-31.8,66.6c-16.2-3.3-2.7-58.8,4.2-69.3h0Z"/>
              <path id="SvgjsPath4734" class="cls-20" d="M423.3,275.1c2.1-3.6,4.2-7.2,6.6-10.2s4.8-5.7,7.5-7.5c1.5-.9,2.7-1.5,4.2-1.8s2.7-.3,4.2.3,2.7,1.5,3.9,3.6c1.2,1.8,1.8,4.5,2.1,7.2.6,5.4,0,11.1-.9,16.2-.9,5.1-2.1,10.2-3.3,15-1.2,4.8-2.7,9.6-4.2,14.1s-3,9.3-4.8,13.5-3.9,8.4-6,12c-2.4,3.6-4.8,6.6-7.8,8.1-2.7,1.5-5.7,2.1-8.4.3-1.5-.9-2.7-2.4-3.6-4.5s-1.5-4.8-2.1-7.5c-.3-2.7-.3-5.4-.3-8.4s.3-5.4.6-8.1c.6-5.4,1.5-10.5,2.7-15.6s2.7-9.6,4.2-14.4c.9-2.4,1.5-4.5,2.4-6.6,1.2-2.1,2.1-4.2,3-5.7h0ZM423.6,275.4c-2.1,3.6-3.6,8.1-5.1,12.9-1.2,4.8-2.4,9.6-3.3,14.7-.9,5.1-1.5,9.9-2.1,15-.3,4.8-.6,9.9,0,14.4.3,2.1.9,4.2,1.5,5.7s1.8,2.7,2.7,3.3c.9.9,2.4.9,3.6,1.2,1.2,0,2.4-.3,3.6-.9,2.4-1.2,4.8-3.6,6.9-6.6s4.2-6.6,6-10.5c3.9-7.8,6.9-17.1,9.3-26.7,1.2-4.8,2.1-9.9,2.7-15,.6-4.8.9-10.2.3-14.4-.3-2.1-.9-3.9-1.8-5.4-.9-1.2-1.8-2.1-3-2.7-2.4-.9-5.1-.6-7.5.3-2.4,1.2-5.1,3-7.5,5.7-2.1,2.1-4.2,5.4-6.3,9h0Z"/>
              <path id="SvgjsPath4735" class="cls-10" d="M442.8,268.8c-6.9,4.5-13.2,17.1-16.2,29.7v.3c0,.9.6,1.2.6.3,1.2-3.6,2.7-3.6,4.5,0,.3,2.4.3,4.5-.3,6.9-.6,2.1-1.2,4.2-2.1,6-1.5,3.6-3.6,6.3-5.4,9.3-.6.9,0,2.1.6,1.8,4.2-3.3,10.2-14.1,9-23.4-.6-4.5-3-6.9-4.8-5.1,2.4-6.3,5.1-12,8.4-16.5,1.8-2.4,6-8.1,8.1-7.2,3.9,1.8,1.8,14.4,1.5,19.8,0,.9.6,1.2.9.3,2.1-9.9,2.4-27-4.8-22.2h0Z"/>
              <path id="SvgjsPath4736" class="cls-10" d="M426,325.8c7.2-2.7,12.6-14.4,15.6-27,1.8-7.5,5.4-25.5-1.5-25.5s-.9,1.5-.3,1.8c6.6,3.3-.6,27.6-2.7,33.3-3,7.8-6.6,13.2-11.4,16.2-.3.3,0,1.5.3,1.2Z"/>
            </g>
          </g>
          <g id="svga-group-faceshape-wrap">
            <g id="svga-group-faceshape-single">
              <path id="SvgjsPath3839" class="cls-15" d="M429.6,246v-.9c-3.9-89.7-62.1-139.2-129.6-139.2s-125.7,49.5-129.3,139.2v.9c0,9,0,90.6,17.1,125.7,45.3,93.3,112.2,89.4,112.2,89.4,0,0,66.9,4.2,112.5-89.4,17.1-35.1,17.1-116.7,17.1-125.7h0Z"/>
              <path id="SvgjsPath3840" class="cls-18" d="M412.5,371.7c17.1-35.1,17.1-116.7,17.1-125.7v-.9c-3.9-89.7-62.1-139.2-129.6-139.2s-125.7,49.5-129.3,139.2v.9c0,9,0,90.6,17.1,125.7,45.3,93.3,112.2,89.4,112.2,89.4,0,0,66.9,4.2,112.5-89.4h0ZM263.1,444c-12.6-5.1-25.5-16.5-35.4-26.4l-7.2-7.5-6.6-8.4c-2.4-2.7-4.2-5.7-6.3-8.7-1.8-3-3.9-5.7-6-9l-5.1-9.3c-1.8-3-3.6-6.3-4.8-9.3-3-6-4.8-12.9-6.9-19.8-3.6-13.8-6-28.2-7.8-42.6-1.8-14.4-3-29.1-3.6-43.5-.3-7.2-.6-14.7,0-21.6.3-3.6.3-7.2.9-10.8l1.8-10.8.3-2.7.6-2.7,1.5-5.1,1.5-5.1c.3-1.8,1.2-3.3,1.8-5.1,1.2-3.3,2.4-6.9,3.9-10.2l4.8-9.6c6.9-12.6,15.9-24,26.4-33.3,10.5-9.3,22.8-16.8,36-21.6s27-7.5,40.8-8.1,27.9.9,41.4,4.5c26.7,7.2,51,23.7,67.8,47.1l6,9c1.8,3,3.3,6.3,5.1,9.6,1.8,3.3,3,6.6,4.5,9.9,1.2,3.3,2.7,6.6,3.6,10.2l3,10.5c.6,3.6,1.5,7.2,2.1,10.8l.9,5.4.6,5.7c.3,4.5.6,11.4.6,15.9-.3,21.3-1.8,42.6-5.4,63.6-1.8,11.4-4.2,22.5-7.5,33.6-.9,2.7-1.5,5.4-2.7,8.1-1.2,2.7-1.8,5.4-3,7.8-2.1,4.8-5.4,9.6-8.1,14.7-1.5,2.4-2.7,4.8-4.5,7.2l-4.8,6.9c-1.8,2.4-3,4.8-4.8,6.9l-5.4,6.3c-3.3,4.5-7.5,8.1-11.1,12.3-1.8,2.1-9.9,9-12.3,10.5,0,0-6.9,5.4-21.9,13.5-3.6,1.8-7.2,3.6-11.1,4.8-12.9,5.1-27.3,11.1-63.6-3.6h0Z"/>
            </g>
          </g>
          <g id="svga-group-mouth-single-move">
            <g id="svga-group-mouth-single">
              <path id="SvgjsPath4599" class="cls-5" d="M264.4,389.5s2.9-6.4,9.9-11.6c6.3-4.7,11.9-7.1,22.1-8.1s19.6,1.7,23.7,3.7c8.9,4.4,15.9,14.8,15.9,14.8,0,0-8.1,5.5-16.5,4.6-8.4-.9-16.1-4.3-21.1-3.1s-17.9,4.4-22.7,4.4c-4.8,0-11.3-4.7-11.3-4.7h0Z"/>
              <path id="SvgjsPath4600" class="cls-19" d="M265.7,390.7s1.1,6.4,9.5,11.7,17.3,5.8,24.8,6c7.5.2,19.1-2.7,24.6-6.3,8.5-5.7,9.8-12.4,9.8-12.1s-6.4,2.4-12.7,2.2c-6.3-.1-17.9-3.8-22.7-2.9s-17.7,4.7-22.1,4.3c-4.4-.4-11.2-2.9-11.2-2.9Z"/>
              <path id="SvgjsPath4601" class="cls-22" d="M261.5,387.3c3.5,4.9,9.1,8,15.1,8.9,8.2,1.1,15-4.1,23-4.2,8.5-.2,16,4.2,24.8,2.9,6.3-.9,12.3-3.5,16.8-8,.9-.9-.2-2.4-1.3-1.8-6,3.6-12.2,6.3-19.4,6.1-6.8-.2-12.9-3.9-19.8-4-6.2,0-11.4,3.4-17.3,4.8-8,1.9-14.9-.4-21.4-5.1-.2-.2-.6.2-.4.5h0Z"/>
            </g>
          </g>
          <g id="svga-group-eyes-left-move">
            <g id="svga-group-eyes-left">
              <g id="svga-group-eyesback-left">
                <path id="SvgjsPath5145" class="cls-21" d="M276.6,292.2s-2.7,2.4-9.9,3.3-26.1,3.3-39.9-.6c-13.8-3.9-12.6-4.5-12.9-6.3-.3-1.5,2.1-7.2,15-9.6,12.9-2.4,25.5.3,31.8,2.7,6,2.7,15.9,10.5,15.9,10.5h0Z"/>
              </g>
              <g id="svga-group-eyesiriswrapper-left">
                <g id="svga-group-eyesiriscontrol-left">
                  <g id="svga-group-eyesiris-left">
                    <path id="SvgjsPath5450" class="cls-16" d="M237.6,269.7c7.5-4.8,17.7-2.7,22.8,4.8,4.8,7.5,2.7,17.7-4.8,22.8-7.5,4.8-17.7,2.7-22.8-4.8s-2.7-17.7,4.8-22.8Z"/>
                    <path id="SvgjsPath5451" class="cls-9" d="M260.4,274.5c1.2,1.8,2.1,3.9,2.4,6,.6,2.1.6,4.5.3,6.6s-1.2,4.5-2.4,6.3-3,3.6-4.8,4.8c-2.1,1.2-4.2,1.8-6.3,2.1s-4.5.3-6.6-.3c-4.2-.9-8.1-3.6-10.8-7.2-1.2-1.8-2.4-3.9-2.7-6s-.6-4.5,0-6.9,1.2-4.5,2.7-6.3c1.2-1.8,3-3.6,4.8-4.8,2.1-1.2,4.2-2.1,6.3-2.4,2.4-.3,4.5-.3,6.6.3,4.5,1.5,8.4,4.2,10.5,7.8h0ZM260.4,274.8l-.9-1.2c-.3-.3-.6-.9-1.2-1.2-.3-.3-.9-.6-1.2-.9-.3-.3-.9-.6-1.2-.9-1.8-1.2-3.9-1.8-5.7-2.1-4.2-.6-8.1.3-11.4,2.4-3.3,2.1-5.7,5.7-6.6,9.6-.9,3.9-.3,8.1,1.8,11.7.9,1.8,2.4,3.3,4.2,4.5s3.6,2.1,5.7,2.4c2.1.3,4.2.3,6.3-.3s3.9-1.5,5.4-2.4c1.8-1.2,3-2.7,4.2-4.2,1.2-1.8,2.1-3.6,2.7-5.4.6-2.1.9-4.2.6-6.3-.9-1.8-1.5-3.9-2.7-5.7h0Z"/>
                    <path id="SvgjsPath5452" class="cls-11" d="M246.6,277.8c3.3,0,5.7,2.7,5.7,5.7s-2.7,5.7-5.7,5.7-5.7-2.7-5.7-5.7,2.4-5.7,5.7-5.7Z"/>
                    <path id="SvgjsPath5453" class="cls-13" d="M246.6,290.1c-3.6,0-6.3-2.7-6.3-6.3s2.7-6.3,6.3-6.3,6.3,2.7,6.3,6.3-2.7,6.3-6.3,6.3ZM246.6,278.4c-3,0-5.4,2.4-5.4,5.4s2.4,5.4,5.4,5.4,5.4-2.4,5.4-5.4-2.4-5.4-5.4-5.4Z"/>
                    <path id="SvgjsPath5454" class="cls-21" d="M239.1,271.5c1.2-.9,3.6.9,5.1,3.3,1.5,2.7,1.8,5.4.3,6-1.2.9-3.6-.9-5.1-3.3-1.5-2.7-1.5-5.4-.3-6ZM250.2,286.5c1.2,0,2.1.9,2.1,2.1s-.9,2.1-2.1,2.1-2.1-.9-2.1-2.1,1.2-2.1,2.1-2.1Z"/>
                  </g>
                </g>
              </g>
              <g id="svga-group-eyesfront-left">
                <path id="SvgjsPath5153" class="cls-15" d="M226.8,294.9c13.8,3.9,32.7,1.5,39.9.6s9.9-3.3,9.9-3.3c0,0-9.6-7.8-15.9-10.5-6.3-2.7-18.9-5.1-31.8-2.7-9.6,1.8-13.2,5.4-14.4,7.5,0-18.9,14.4-34.5,31.8-34.5s31.8,15.6,31.8,34.5-14.1,34.5-31.8,34.5-30-13.5-31.8-31.2c.9,1.5,3.6,2.4,12.3,5.1h0Z"/>
                <path id="SvgjsPath5154" class="cls-20" d="M276.3,290.7c-3.6-9.9-12.3-16.8-22.5-18.6-11.7-2.1-22.5,3-32.1,8.7-.3,0-.6-.3-.3-.3,16.5-14.1,49.2-14.7,55.5,10.5-.3-.3-.6,0-.6-.3h0Z"/>
                <path id="SvgjsPath5155" class="cls-11" d="M276.6,292.8c-15.9-13.2-37.2-18.6-56.7-9.3-.9.3-1.5.9-2.4,1.2-3,3.9-2.7,6.3,1.2,6.6,2.1.6,4.2,1.2,6.3,1.5,5.4,1.2,11.1,1.8,16.8,2.1,10.2.6,20.1-.3,30-1.2.6,0,.6.6,0,.9-13.2,4.2-27.6,3.9-41.1,2.1-4.8-.6-26.1-2.7-17.7-12.9,3-3.6,9.6-5.1,14.1-6,6.3-1.5,12.6-1.8,18.9-1.2,11.4,1.5,23.1,6.9,30.9,15.6.6.3,0,.9-.3.6h0Z"/>
              </g>
            </g>
          </g>
          <g id="svga-group-eyes-right-move">
            <g id="svga-group-eyes-right">
              <g id="svga-group-eyesback-right">
                <path id="SvgjsPath5146" class="cls-21" d="M323.4,292.2s2.7,2.4,9.9,3.3,26.1,3.3,39.9-.6c13.8-3.9,12.6-4.5,12.9-6.3.3-1.5-2.1-7.2-15-9.6-12.9-2.4-25.5.3-31.8,2.7-6,2.7-15.9,10.5-15.9,10.5h0Z"/>
              </g>
              <g id="svga-group-eyesiriswrapper-right">
                <g id="svga-group-eyesiriscontrol-right">
                  <g id="svga-group-eyesiris-right">
                    <path id="SvgjsPath5455" class="cls-16" d="M345,270c7.5-4.8,17.7-2.7,22.8,4.8,4.8,7.5,2.7,17.7-4.8,22.8-7.5,4.8-17.7,2.7-22.8-4.8-5.1-7.8-3-18,4.8-22.8Z"/>
                    <path id="SvgjsPath5456" class="cls-9" d="M367.8,274.5c1.2,1.8,2.1,3.9,2.4,6,.6,2.1.6,4.5.3,6.6s-1.2,4.5-2.4,6.3-3,3.6-4.8,4.8c-2.1,1.2-4.2,1.8-6.3,2.1s-4.5.3-6.6-.3c-4.2-.9-8.1-3.6-10.8-7.2-1.2-1.8-2.4-3.9-2.7-6s-.6-4.5,0-6.9,1.2-4.5,2.7-6.3c1.2-1.8,3-3.6,4.8-4.8,2.1-1.2,4.2-2.1,6.3-2.4,2.4-.3,4.5-.3,6.6.3,4.5,1.5,8.1,4.2,10.5,7.8h0ZM367.5,274.8l-.9-1.2c-.3-.3-.6-.9-1.2-1.2-.3-.3-.9-.6-1.2-.9-.3-.3-.9-.6-1.2-.9-1.8-1.2-3.9-1.8-5.7-2.1-4.2-.6-8.1.3-11.4,2.4-3.3,2.1-5.7,5.7-6.6,9.6-.9,3.9-.3,8.1,1.8,11.7.9,1.8,2.4,3.3,4.2,4.5s3.6,2.1,5.7,2.4c2.1.3,4.2.3,6.3-.3s3.9-1.5,5.4-2.4c1.8-1.2,3-2.7,4.2-4.2,1.2-1.8,2.1-3.6,2.7-5.4.6-2.1.9-4.2.6-6.3-.9-1.8-1.5-3.9-2.7-5.7h0Z"/>
                    <path id="SvgjsPath5457" class="cls-11" d="M353.7,277.8c3.3,0,5.7,2.7,5.7,5.7s-2.7,5.7-5.7,5.7-5.7-2.7-5.7-5.7,2.7-5.7,5.7-5.7Z"/>
                    <path id="SvgjsPath5458" class="cls-13" d="M353.7,290.1c-3.6,0-6.3-2.7-6.3-6.3s2.7-6.3,6.3-6.3,6.3,2.7,6.3,6.3c.3,3.3-2.7,6.3-6.3,6.3ZM353.7,278.4c-3,0-5.4,2.4-5.4,5.4s2.4,5.4,5.4,5.4,5.4-2.4,5.4-5.4-2.4-5.4-5.4-5.4Z"/>
                    <path id="SvgjsPath5459" class="cls-21" d="M346.2,271.5c1.2-.9,3.6.9,5.1,3.3,1.5,2.7,1.8,5.4.3,6s-3.6-.9-5.1-3.3c-1.5-2.7-1.5-5.4-.3-6ZM357.6,286.5c1.2,0,2.1.9,2.1,2.1s-.9,2.1-2.1,2.1-2.1-.9-2.1-2.1.9-2.1,2.1-2.1Z"/>
                  </g>
                </g>
              </g>
              <g id="svga-group-eyesfront-right">
                <path id="SvgjsPath5156" class="cls-15" d="M373.2,294.9c-13.8,3.9-32.7,1.5-39.9.6s-9.9-3.3-9.9-3.3c0,0,9.6-7.8,15.9-10.5,6.3-2.7,18.9-5.1,31.8-2.7,9.6,1.8,13.2,5.4,14.4,7.5,0-18.9-14.4-34.5-31.8-34.5s-31.8,15.6-31.8,34.5,14.1,34.5,31.8,34.5,30-13.5,31.8-31.2c-.9,1.5-3.6,2.4-12.3,5.1h0Z"/>
                <path id="SvgjsPath5159" class="cls-20" d="M323.7,290.7c3.6-9.9,12.3-16.8,22.5-18.6,11.7-2.1,22.5,3,32.1,8.7.3,0,.6-.3.3-.3-16.5-14.1-49.2-14.7-55.5,10.5.3-.3.6,0,.6-.3h0Z"/>
                <path id="SvgjsPath5160" class="cls-11" d="M323.4,292.8c15.9-13.2,37.2-18.6,56.7-9.3.9.3,1.5.9,2.4,1.2,3,3.9,2.7,6.3-1.2,6.6-2.1.6-4.2,1.2-6.3,1.5-5.4,1.2-11.1,1.8-16.8,2.1-10.2.6-20.1-.3-30-1.2-.6,0-.6.6,0,.9,13.2,4.2,27.6,3.9,41.1,2.1,4.8-.6,26.1-2.7,17.7-12.9-3-3.6-9.6-5.1-14.1-6-6.3-1.5-12.6-1.8-18.9-1.2-11.4,1.5-23.1,6.9-30.9,15.6-.6.3,0,.9.3.6h0Z"/>
              </g>
            </g>
          </g>
          <g id="svga-group-eyebrows-left-move">
            <g id="svga-group-eyebrows-left-rotate">
              <g id="svga-group-eyebrows-left">
                <path id="SvgjsPath6497" class="cls-12" d="M204.5,254.6c.1-.9.5-1.9,1-2.6.2-.6.6-1.6,1.1-2.3s1-1.4,1.7-2.2c1-2.9,4.1-5.7,6.2-7.6,2.4-2,4.8-3.7,8-4.3,2.8-1.1,6.1-1.8,8.7-1,1.2-.2,2.1,0,3.1.3,3.2-.9,6.9-.7,10-.7,4.3.1,8.6.2,12.8,1.3,4.1-.8,8.3-1.3,12.4-.8h.6c.3-.2.6,0,.6,0h.3c.3-.1.6.1,1,.4.4.2.2.9.2,1.2v.3c.2.6.3,1.2,0,1.8.3,1.8.3,3.3-.6,5,0,.3.1.6-.1.9,0,1.5,0,3.4-1.3,4.5-.5.7-1.3,1.2-2.2,1.3s-.6.1-.9-.1l-1.8.3c-1.7.9-4.1.8-5.7.8-1.8,0-3.7-.2-5.3-.8-5.5.1-10.8-.4-16.3-.6-4.9-.3-12,1.1-16.6-.8-2,.7-3.7,1.3-5.8,1.7s-2,.7-3.2.6c-.6.1-1.5.3-2.2-.2,0,0-.3,0-.4-.2h-.3c0,0-1,1.5-1,1.5-.7,1.1-1.7,2.5-3.1,3-.2.6-.9.2-1.1-.7h0Z"/>
                <path id="SvgjsPath6498" class="cls-1" d="M265.8,244.6c-.6-1.7-1.3-3.4-2.1-4.8-.1-.6.4-1,.8-.5,2.6,2.6,4.2,7.8,2.8,11.4-.2.6-.8.5-.9-.1-.2-2.4-.2-4.2-.5-6h0ZM254,237c4.3,1.6,7.6,6.5,8.4,10.6s-.7,1.1-.8.5c-1-2-1.9-3.6-3.1-5.2-1.3-1.9-3.3-3-4.9-4.9-1-.4-.2-1.2.4-1h0ZM243.9,236.8c6.9,1.1,13,7.3,15.3,13.3.1.6-.5.7-.8.5-1.7-2.7-3.8-5.4-6.6-7.3-2.6-2.3-5.5-3.2-8.6-5.1-.6-.2,0-1.5.7-1.3ZM229,237.2c7.4.4,15.6,5,19.7,10.6.4.5-.7,1.3-1.1.8-2.9-2.5-5.8-4.7-9.2-6.5-3-1.6-6.6-2.4-9.8-3.6-.6-.2-.5-1.1.4-1.3h0ZM205.4,252.9c3.7-6.2,8.8-14.8,16.9-15.4.6-.1.8.8.2.9-7.6,2-11.3,9.8-16.4,15-.5.4-1.2,0-.7-.5h0Z"/>
                <path id="SvgjsPath6499" class="cls-8" d="M273.9,235.7c-.5-.8-1.6-.6-1.8.3-.3,3.4.5,7.2-1.7,10.4-1.4,2.4-4,3.2-6.7,3.4,0-4.6-1.5-11-5.1-14-.7-.5-1.5,0-1.1.8.4,2.4,2.1,4.5,2.8,6.8s1.4,4.3,1.9,6.7c-.3,0-.6.1-.9-.1-2-5.7-6.1-11.4-11.3-14.7,7.1.2,14.1,0,21-.6.3,0,.5-.7.2-.6-8.2-1.2-16.4-1.2-24.7-1.4-7.4-.1-15.8-1.3-23.2-.2-6.2.9-10.1,4.7-13.5,9.3-3.6,5-7.4,10.9-9.4,16.7l-.5.7c-.2.4-.4,1,0,1.2,0,0,0,.3-.2.4-.4,1.3,1.3,1.9,2,.8.3,0,.6-.1.8-.5,3.7-2.8,6.6-5.5,11.2-7,3.7-1.3,7.9-1.8,11.8-1.9,8.8-.4,17.2.7,25.6,1.6,6.5.6,15.4,2.3,20.5-3.3,4.5-3.9,3.9-10.2,2.4-14.8ZM235.1,247c-1.5,0-3.4,0-5.2,0-.3-3.3-2.2-6.6-4.2-9.3,2.4,1.4,4.8,2.8,7,4.5,2.1,1.4,3.4,3.6,5.5,5.1-1.2,0-2.2-.2-3.1-.3h0ZM211.7,244.1c2.9-3.9,6.4-6.4,10.7-7.8,1,2.2,2.7,4.4,3.4,6.7l1.7,4.3c-.9.2-2.1,0-3,.3-2-2.4-4.8-4.6-8-4.9-.6-.2-.8.8-.4,1.3,1.4,1,3.1,1.9,4.5,2.8.4.5.8.8,1.5,1.3-5.7.8-11.1,2.4-15.5,5.4,1.2-3.3,2.8-6.3,5-9.2h0ZM259.2,249.8c-.6-.2-1.2,0-1.9-.3-1.2,0-2.8-.4-4.1-.5-3.4-4.9-8.2-9.4-13.6-12.1-.6-.2-1.1.5-.8.8,4.3,3.5,8.1,7.3,12.2,11.1-3.5-.6-6.9-.8-10-1.5-1.2-3.1-4.8-5.8-7.3-7.8-2.5-1.7-5.2-3.3-8.1-4.3,1.2-.2,2.4-.2,3.9-.4,6.1-.2,12.2.1,18.4.2v.3c2.7,2.9,5.7,5.6,8.1,8.6,1,2,2,3.9,3.2,5.8h0Z"/>
              </g>
            </g>
          </g>
          <g id="svga-group-eyebrows-right-move">
            <g id="svga-group-eyebrows-right-rotate">
              <g id="svga-group-eyebrows-right">
                <path id="SvgjsPath6500" class="cls-12" d="M395.5,254.7c-.1-.9-.5-1.9-1-2.6-.2-.6-.6-1.6-1.1-2.3s-1-1.4-1.7-2.2c-1-2.9-4.1-5.7-6.2-7.6-2.4-2-4.8-3.7-8-4.3-2.8-1.1-6.1-1.8-8.7-1-1.2-.2-2.1,0-3.1.3-3.2-.9-6.9-.7-10-.7-4.3.1-8.6.2-12.8,1.3-4.1-.8-8.3-1.3-12.4-.8h-.6c-.3-.2-.6,0-.6,0h-.3c-.3-.1-.6.1-1,.4-.4.2-.2.9-.2,1.2v.3c-.2.6-.3,1.2,0,1.8-.3,1.8-.3,3.3.6,5,0,.3-.1.6.1.9,0,1.5,0,3.4,1.3,4.5.5.7,1.3,1.2,2.2,1.3s.6.1.9-.1l1.8.3c1.7.9,4.1.8,5.7.8,1.8,0,3.7-.2,5.3-.8,5.5.1,10.8-.4,16.3-.6,4.9-.3,12,1.1,16.6-.8,2,.7,4,1.4,5.8,1.7s2,.7,3.2.6c.6.1,1.5.3,2.2-.2,0,0,.3,0,.4-.2h.3c0,0,1,1.5,1,1.5.7,1.1,1.7,2.5,3.1,3,.2.6.9.2,1.1-.7h0Z"/>
                <path id="SvgjsPath6501" class="cls-1" d="M334.2,244.6c.6-1.7,1.3-3.4,2.1-4.8.1-.6-.4-1-.8-.5-2.6,2.6-4.2,7.8-2.8,11.4.2.6.8.5.9-.1.2-2.4.2-4.2.5-6h0ZM346,237.1c-4.3,1.6-7.6,6.5-8.4,10.6s.7,1.1.8.5c1-2,1.9-3.6,3.1-5.2,1.3-1.9,3.3-3,4.9-4.9,1-.4.2-1.2-.4-1h0ZM356.1,236.9c-6.9,1.1-13,7.3-15.3,13.3-.1.6.5.7.8.5,1.7-2.7,3.8-5.4,6.6-7.3,2.6-2.3,5.5-3.2,8.6-5.1.6-.2,0-1.5-.7-1.3ZM371,237.2c-7.4.4-15.6,5-19.7,10.6-.4.5.7,1.3,1.1.8,2.9-2.5,5.8-4.7,9.2-6.5,3-1.6,6.6-2.4,9.8-3.6.6-.2.5-1.1-.4-1.3h0ZM394.6,253c-3.7-6.2-8.8-14.8-16.9-15.4-.6-.1-.8.8-.2.9,7.6,2,11.3,9.8,16.4,15,.5.4,1.2,0,.7-.5h0Z"/>
                <path id="SvgjsPath6502" class="cls-8" d="M327.9,250.5c5.1,5.5,13.9,3.9,20.5,3.3,8.7-.8,17.2-2.2,25.6-1.6,3.9.1,8.1.6,11.8,1.9,4.6,1.5,7.5,4.2,11.2,7,.2.4.5.4.8.5.7,1.1,2.4.4,2-.8,0,0,0-.3-.2-.4,0-.3.2-.9,0-1.2l-.5-.7c-1.9-5.9-5.7-11.8-9.4-16.7-3.4-4.6-7.3-8.4-13.5-9.3-7.4-1.1-15.9,0-23.2.2-8.3.3-16.5.2-24.7,1.4-.6.2-.4.5.2.6,6.9.7,13.9.8,21,.6-5.2,3.3-9.3,8.9-11.3,14.7-.3,0-.6-.1-.9.1.7-2.3,1.1-4.4,1.9-6.7s2.4-4.4,2.8-6.8-.7-1.1-1.1-.8c-3.6,3-5.1,9.4-5.1,14-2.7-.2-5-.9-6.7-3.4-1.9-3.1-1.4-7-1.6-10.7-.1-.9-1.3-1.2-1.8-.3-.9,5-1.5,11.3,2.3,15.1h0ZM361.8,247.1c1.8-1.5,3.4-3.6,5.5-5.1,2.2-1.7,4.6-3.1,7-4.5-2,2.7-3.9,6.3-4.2,9.3-1.8,0-3.6,0-5.2,0-1,.4-1.9.5-3.1.3h0ZM393.7,253.1c-4.3-3-10.1-4.7-15.5-5.4.4-.5.8-.8,1.5-1.3,1.5-1.3,3.1-1.9,4.5-2.8.4-.2.5-1.1-.4-1.3-3.1.3-6,2.5-8,4.9-.9-.2-2.1,0-3-.3l1.7-4.3c1-2.2,2.4-4.4,3.4-6.7,4,1.4,7.5,3.9,10.7,7.8,1.9,3.1,3.4,6.1,5,9.2h0ZM344.3,244.4c2.4-3.2,5.4-5.7,8-8.6v-.3c6.2,0,12.3-.4,18.4-.2,1.2,0,2.7.2,3.9.4-2.9,1-5.7,2.6-8.1,4.3-2.5,2-6.1,4.7-7.3,7.8-3.4.3-6.9.8-10,1.5,3.8-3.9,7.8-7.4,12.2-11.1.4-.5-.1-.9-.8-.8-5.4,2.6-10.2,7.2-13.6,12.1-1.2,0-2.8.4-4.1.5-.6.2-1.2,0-1.9.3,1-2.2,2-4.2,3.2-5.8h0Z"/>
              </g>
            </g>
          </g>
          <g id="svga-group-beardwrap">
            <g id="svga-group-beard-single-move">
              <g id="svga-group-beard-single">
                <path id="SvgjsPath6816" class="cls-7" d="M424.5,287c-3.4-10.5-7.7-6-9.1-2s-4.8,34.8-8.3,48.7c-5.1,21.7-31.3,46.5-35.9,43.9s3.1-14-5.1-21.9c-5.4-5.4-39.3,3.1-67,3.4-17.7.3-56.1-11.7-67.8-3.4-8,5.4-4.6,18.8-6,22.2s-22.2-18.8-27.4-30.8c-5.1-12.3-12.3-55.3-13.1-63.8s-7.1-8-8.5-4.6c-1.7,4-7.1,18.2-8.3,36.5-1.4,21.7-1.4,55.9,5.1,79.8,6.6,23.9,22.8,39.6,22.8,39.6l.9-4s15.1,24.8,35.9,35.9c20.8,11.1,55.9,19.4,55.9,19.4l-2.3-6,11.4,7.7,28.8-6.3-4.6,3.7s27.6-.9,63.3-24.2c14.2-10.5,24.8-30.5,27.4-37.9l1.1,5.1s11.7-32.5,14.5-51.6l1.4,2c0-.3,8-51.9-5.1-91.5h0ZM341.6,417.5c-11.7,13.7-78.4,10-89.5-4-8.5-10.5-12.5-43-3.4-43.9,0,0,92.6-1.7,99.7.9,6.8,2.6,4.8,33.6-6.8,47h0Z"/>
                <path id="SvgjsPath6817" class="cls-23" d="M179.4,277.6c.3-.9-.9-1.4-1.4-.9-7.7,12-10.8,27.4-11.4,41.3,0,.6.9.9.9,0,2.3-14,7.1-26.8,12-40.5ZM176.9,304.1c0-.6-.6-.6-.9,0-4,17.7-2.8,36.8,0,54.7,0,.6.9.3.9,0-1.4-18.5-.6-36.2,0-54.7ZM179.1,289.3c-.6,8-1.4,16.2-1.4,24.2s.9.9.9.3c1.1-8,1.4-16.2,1.7-24.2,0-.9-1.1-.9-1.1-.3h0ZM183.4,349.7c-.9-10.5-1.7-21.1-1.4-31.9,0-1.1-1.4-1.1-1.7,0-.3,10.8-.3,21.4,1.7,31.9.6.9,1.7.6,1.4,0ZM185.4,384.5c0,.6,1.1.6,1.1-.3-.6-10.3-1.4-20.2-1.4-30.5s-.9-.6-.9,0c-.9,10.3-.9,20.8,1.1,30.8h0ZM193.1,402.7c-1.7-9.1-3.4-18.2-3.4-27.6s-1.7-1.1-1.7,0c0,9.4.9,19.1,4,27.9.6.6,1.4.3,1.1-.3h0ZM183.4,307.8c-.6-10.8-.6-21.1.6-31.6,0-.6-.9-.6-.9,0-2.3,10.5-2.6,21.7-.6,31.9,0,.6.9.3.9-.3ZM187.4,317.5c-.3-8.3-1.1-16.5-2.3-24.5,0-.6-.9-.6-.9,0,.6,8.3.9,16.5,2,24.8.3.3,1.1.3,1.1-.3h0ZM194,346.9c-1.1-8.5-2.8-17.4-4-25.9,0-.6-1.1-.6-1.1.3.9,8.8,1.7,17.4,4,25.9.3.6,1.4.3,1.1-.3ZM202.2,362.5c-2.3-7.7-4.6-15.1-6-23.1-.3-.9-1.4-.6-1.1.3,1.4,8,3.4,15.7,6.6,23.1,0,.3.6,0,.6-.3ZM209.6,375.4c-2-7.1-4.6-14.2-6.3-21.4-.3-.9-1.7-.6-1.4.3,1.7,7.1,3.7,14.8,6.8,21.4,0,.9.9.3.9-.3h0ZM216.2,384.5c-3.1-7.4-6.6-14.5-9.1-22.5-.3-.6-1.1-.3-1.1.3,2,7.7,4.6,16,9.1,22.5.6.9,1.4.3,1.1-.3ZM222.2,389.9c-2-5.4-4.8-10.3-6.6-15.7-.3-.9-1.7-.6-1.4.3,1.7,5.4,3.7,11.4,6.8,16,.3.6,1.4.3,1.1-.6ZM256.4,425.2c-1.1-1.7-2.3-3.7-3.4-5.4,3.4,4.8,7.1,9.4,11.7,13.1.6.6,1.1-.3.9-.9-4.6-5.7-9.7-10.8-14-16.8-.3-.3-.9-.3-1.1-.3-5.1-11.1-6.8-22.8-8.5-35.6,0-.9-1.4-.9-1.4,0,.6,16.2,2.6,34.5,14.5,47,.9.3,2-.6,1.4-1.1h0ZM268.1,430.6c2.8,4.3,6,8.5,9.7,12,.3.3.9,0,.6-.6-2.8-4.3-6.3-8-9.1-12.3-.3-.6-1.4,0-1.1.9ZM278.6,434.9c-1.1-2-3.1-3.7-4.6-5.4s-2.6-4-3.7-6c-.6-.9-1.7,0-1.1.9,2,4,4.8,9.1,8.5,11.7.6.3,1.4-.3.9-1.1h0ZM288.6,430.9c1.7,8.8,3.4,18,6.6,26.5.3.9,1.1.3,1.1-.3-1.4-8.8-4-17.7-6.3-26.5-.3-1.1-1.7-.9-1.4.3h0ZM300.3,460.9c0-3.7-1.1-7.1-2-10.8-.9-4.6-1.4-9.4-2-14.2,0-.6-.9-.6-.9,0,0,8,.3,18,3.7,25.1.3.6,1.1.3,1.1,0h0ZM303.4,462c-.3-7.7-1.7-15.1-2.8-22.8,0-.9-1.4-.6-1.4.3.9,7.4,1.4,15.4,3.1,22.8,0,.6,1.1.3,1.1-.3ZM337,424.1c-2.6,7.4-6.6,14.5-9.1,22.2-.3.6.6.6.9.3,4.6-6.3,7.4-14.5,10-21.9,0-1.1-1.4-1.4-1.7-.6h0ZM356.4,410.4c-3.7,8.8-7.7,17.7-11.4,26.8-.3.6.6.9.9.3,4.8-8.5,8.5-17.4,12.3-26.5.6-1.4-1.1-1.7-1.7-.6h0ZM266.1,470c.3.3.6-.3.6-.6-6.6-7.4-11.4-14.8-12.5-24.8,0-.6-1.1-.6-.9,0,.6,9.4,4.6,19.4,12.8,25.4h0ZM210.8,430.6c-.9-3.1-2.6-6.3-4-9.1-1.4-3.4-2.8-7.1-3.7-10.8-.3-.6-1.1-.3-.9.3,1.7,6.6,3.7,14.5,8,19.9,0,.3.6,0,.6-.3h0ZM205.1,429.8c.3.3.9-.3.6-.6-3.4-5.4-5.4-12-6.6-18.2,0-.6-.9-.3-.9.3.6,4,1.4,8,2.8,12,1.1,2.3,1.7,5.1,4,6.6h0ZM294.8,473.7c-.9-3.4-2.6-6.6-2.8-10.3,0-.6-1.1-.6-1.1,0,.3,3.4.9,8,3.4,10.8.3,0,.6-.3.6-.6h0ZM298,474.3c0-3.1-1.1-6.6-1.4-9.7,0-.6-1.1-.6-.9,0,.3,3.1.3,7.1,1.7,10,0,.3.3,0,.6-.3h0ZM302.8,472c0-2.6-.9-5.1-1.1-7.4,0-.6-1.1-.6-1.1,0,.3,2.6.3,5.4,1.4,7.7.3.3.9,0,.9-.3h0ZM316.5,476c-3.1,2-6,4.6-9.1,6.6-.6.3-3.7,2-6.3,3.1,1.1-.9,2.3-2,3.1-2.6,2.6-2.3,5.4-4.6,7.4-7.4.3-.3-.3-.9-.6-.6-2.6,2-5.1,4.3-7.7,6.6l-.3.3c3.7-4.3,7.1-9.1,9.7-14.2.3-.3-.3-.9-.6-.6-1.4,1.7-2.8,3.7-4.3,5.7-.3,0-.6,0-.9.3-2.3,2-4.6,3.7-6.6,5.7l-.3.3c-.3-.3-.3-.6-.6-1.1,1.1-1.1,2-2.6,3.1-3.7.9-1.1-.6-2.8-1.7-1.7-1.1,1.4-2.3,2.6-3.4,4l-.3.3c-.6.9-1.4,1.4-2,2.3-.9-2.8-2.3-6-3.4-8.5-.3-.6-.9-.9-1.1-.6-.9-1.4-1.4-2.8-2.3-4.3-1.1-2.8-2.3-5.4-3.1-8.3-.3-.6-1.1-.3-.9.3,1.1,4.6,2.8,9.7,5.7,13.7l2.3,5.4v.3c-.3-.3-.6-.3-.9-.6-.9-.6-2,.3-1.1,1.1,1.1.9,2.3,2,3.4,2.8,0,0,0,.3.3.3-.9.9-2,1.7-2.8,2.6-.6-2.8-2-5.4-3.1-8.3-1.1-3.1-1.7-6-2.6-9.1-.3-1.1-2-.6-2,.6.3.9.3,1.7.6,2.8-1.4-2-2.8-4-3.7-6.3-1.4-2.8-2.6-6-3.7-9.1-.3-.6-1.1-.3-.9.3,1.7,5.7,3.7,13.1,8.8,17.1.9,4,2,8.3,4,11.7-.6-.3-1.1-.6-1.7-1.1-.9-1.7-2-3.1-2.6-4.8-1.4-2.8-2.3-5.7-3.1-8.5-.3-.6-.9-.9-1.4-.6-.6-1.4-1.4-2.8-2-4.3-.6-1.7-1.1-3.7-1.7-5.7-.3-.6-1.1-.3-.9.3.6,3.4,1.7,7.4,3.7,10.5v.6c.9,3.1,1.7,6.8,3.4,10.3,0,0-.3,0-.3-.3-.9-1.4-2-2.8-2.8-4.3-1.1-1.7-2-3.4-3.1-5.4l.6.6c.3.3.6,0,.6-.3-.6-2-2-3.7-2.8-5.4-1.1-2.3-2.3-4.6-2.8-6.8-.3-.6-1.1-.3-.9.3.6,2.3,1.4,4.8,2.6,7.1-.6,0-1.1.6-.9,1.1l.9,1.7c-2.6-4.3-4.6-8.8-6.6-13.7-.3-.6-1.1-.3-.9.3,1.4,3.7,2.8,7.4,4.6,10.8,1.1,2.6,2.3,5.1,4.8,6.6.6,1.4,1.1,2.6,2,4-1.1-.6-2.3-1.4-3.1-2.3-.3,0-.3-.3-.6,0-.6-.9-1.1-1.7-1.7-2.8v-.3c-1.4-3.1-3.4-6-5.1-8.8-1.7-2.8-3.1-6-4.6-9.1-.3-.6-1.1-.3-.9.3,2,5.1,4.3,11.1,8,15.4-.3.3-.3.6,0,.9,1.7,3.1,3.4,6,5.4,8.8-8.8-8-17.1-16-23.9-26.2-.6-.9-2,0-1.4.9,5.7,9.4,13.1,18.8,22.2,25.4-1.1-.6-2.3-.9-3.4-1.4-9.4-9.1-18.5-17.7-26.2-28.5-.9-1.1-2.6,0-1.7,1.1,5.7,8.8,12.8,18,21.1,24.8-.3-.3-.6-.3-1.1-.3-6-4.8-11.7-9.1-16.5-14.5.3-.3.3-.6,0-.9-2.3-3.1-4.6-6.3-7.1-9.4-.3-.3-.3-.6-.6-1.1,0-.3-.3-.3-.6-.3-2-2.3-3.7-4.8-5.4-7.1,1.1,1.4,2.3,2.6,3.4,4l2.6,3.4c.3.3.6,0,.6-.3l.6.6c.6.6,1.7-.3,1.1-.9-9.1-12.5-18.2-24.8-24.2-39.6-.3-.9-2-.6-1.7.3,1.1,3.1,2.3,6,3.4,8.8-.6-.6-1.7,0-1.4.9.6,1.7,1.1,3.4,2,5.1,0,0,0-.3-.3-.3-.3-.9-1.7-.3-1.4.6,3.1,7.4,6.8,14.5,11.1,21.4-3.7-5.4-7.1-11.4-9.7-17.7-.3-.9-2-.3-1.7.6,5.7,14.2,13.7,28.5,25.9,38.5.3.3.9.3.9,0,1.7,2,3.4,3.7,5.4,5.4-.9-.3-1.7-.9-2.8-1.4-4.8-4.6-9.7-8.8-14-14q-.3-.3-.6-.3c-6-7.4-11.7-15.1-15.7-23.9-.6-1.1-2.3-.3-1.7,1.1,4.3,9.7,9.7,19.4,17.7,26.5,1.1,1.1,2.6,2.6,3.7,3.4,1.1,1.1,2.3,2.6,3.4,3.7-2.8-1.4-5.4-3.1-8-5.1-2.8-4.6-6.6-8.5-9.4-13.1-3.1-4.6-5.7-9.1-8.3-14-.6-1.4-2.6-.3-2,1.1,2.8,6,6.3,12.8,10.8,18.5l-1.4-1.4h-.3c-4.6-6.8-9.4-13.7-13.4-21.1-.3-.3-.6-.3-.9-.3-.6-1.4-1.1-2.8-2-4.3-.3-.3-.9-.3-.6.3.6,1.7,1.4,3.4,2,5.1,0,.3.3.6.3.9,1.4,3.4,3.1,6.6,4.8,9.7,2,3.7,4.3,7.4,6.6,10.8-1.7-1.4-3.1-2.8-4.6-4.6v-.3c-3.4-6.3-7.1-12-10.3-18.2-2.3-6.8-4.6-13.4-6-20.5,0-.9-1.4-.6-1.4.3.6,3.4,1.4,6.8,2.3,10.3-.6-.3-1.4.3-1.1,1.1,1.1,3.4,2.3,6.8,3.7,10-.3-.6-.6-1.1-1.1-2-.3-.6-.6-1.1-.6-1.7-1.7-4.6-3.1-9.7-4.6-14.2,0-.3-.3-.3-.3-.6-1.7-6.8-3.1-13.4-3.7-20.5,0-.9-1.4-.9-1.1,0,.6,7.1,1.4,14.5,3.4,21.4,1.4,5.1,2.6,10.8,4.6,16-.3-.3-.3-.6-.6-.9-.9-2.8-2-6-2.8-8.8-1.1-3.7-2.3-7.7-3.1-11.4,0-.3-.3-.6-.6-.6-.6-6.3-2-12.5-2.3-19.1,0-.6-.9-.6-.9,0,0,3.7,0,7.4.6,11.4-.9-5.7-1.7-11.4-1.4-17.4,0-.6-.9-.6-.9,0-.3,5.1-.6,10.8.6,16.2-3.1-6.3-2.6-15.1-3.4-21.9,0-.6-.9-.6-.9,0,.3,4.8.6,9.4.9,14.2-.6-.9-2-.6-2,.6-.9-3.1-.6-7.7-.9-10.3,0-3.7,0-7.4.3-10.8,0-.6-.9-.6-.9,0-.6,5.7-.9,11.1-.3,16.8.3,2,0,5.1,1.7,6.6v4.8c-.9-4-1.7-8-2.3-12l.3-.3c-1.4-8.3-1.4-15.7-.9-23.9,0-.6-.6-.6-.9,0-.6,5.4-1.4,11.4-.9,17.1v5.1c-2-16.2-2.8-32.2-2.3-48.7,0-.6-.9-.6-1.1,0-2,20.5-.9,41.6,4,61.8,0,.6.6.6.9.3,2,11.1,5.4,21.9,11.4,31.1.3.3,1.1.3.9-.3-1.4-4-2.8-8-4-12,.3,0,.3-.3.3-.6-.9-2.6-1.4-5.1-1.7-7.4.9,2.6,2,5.1,3.1,7.7.3.6.3,1.4.6,2.3,0,.3.3.3.6.3,2,4,4.3,8,6.6,11.7.3.6.6.9.9,1.4,0,.3.3.3.6.3,1.7,2.3,3.4,4.3,5.4,6.3.6,1.1,1.4,2,2.3,3.1.3.3.9.3.9-.3,6.6,10,15.1,18.8,26.8,22.5h.6c10,7.1,21.7,11.7,33.6,14.8.6.3.9-.6.3-.9-2.8-1.1-5.4-2.6-8.3-3.7-.6-.6-1.1-.9-1.7-1.4,8,4.6,16.8,8,25.4,10.8.6.6,1.1,1.1,2,1.4.9.3,1.4-.6.9-1.1,0-.3,0-.6-.3-.6-.3-.3-.6-.3-.6-.6-1.7-1.7-3.1-3.7-4.6-5.7l3.4,2.6c1.1,1.7,2.8,3.1,4.6,4.3.6.3,1.1-.3.9-.9-.3-.3-.3-.6-.6-.9.6.6.9,1.1,1.4,1.7.6.6,1.4.3,1.7-.3.6.3,1.1.3,1.7.6l-1.1,1.1c-.6.9.3,2,1.1,1.4,2.6-1.1,4.8-3.1,6.8-5.4q.3.3.6.3h.3c-.6.6-1.1,1.1-1.7,2-.6.6.3,1.4,1.1,1.1,2.3-1.1,4-2.8,5.7-4.6-.3.6-.6.9-1.1,1.4-.3.6,0,1.1.3,1.1-1.7,1.1-3.4,2.6-4.6,4.3q0,.3.3.3h.3c0,.3.3.3.3.3,2.6.9,7.4-2.6,9.4-3.7,3.7-2.3,7.7-4.8,10.5-8.3,0-.3-.6-.9-.9-.6h0ZM184.6,413c-.6-3.7-1.4-7.4-2-11.1,0-.9-1.4-.6-1.4.3.3,1.4.6,2.8.6,4.6-.9-2.3-1.7-4.6-2.6-7.1q0-.3-.3-.3v-5.1c.3,2.8.6,5.4,2.8,7.1h.6c.3,1.1.6,2.6,1.1,3.7.3.6,1.1.6.9-.3,0-.6,0-1.1-.3-1.7.3,2,.6,3.7,1.4,5.4-.3.3-.3.6-.3.9.6,2.8,1.1,6,2,9.1-.6-1.4-1.4-3.4-2.6-5.4h0ZM296.8,481.7c-.3-.3-.3-.6-.6-.6.6-.9,1.4-1.4,2-2.3.3.3.6.6.6.9-.6.6-1.1,1.4-2,2ZM369.8,456.3c6-5.7,9.4-14.5,11.4-22.2.3-.9-.9-1.1-1.1-.3-2.3,8.3-6.3,14.8-10.8,22.2-.3,0,.3.6.6.3ZM381.8,444c-5.7,8.8-12.3,16.5-19.1,23.9-.9.3-1.4.9-2.3,1.1,3.1-3.7,6-7.7,8.5-11.4.6-.9-.6-1.7-1.1-.9-4.6,6.3-10.3,11.4-15.7,16.8-.9.3-1.7.9-2.6,1.1l.6-.6c3.1-2.3,6-4.8,8.8-7.4.9-.9-.3-2.3-1.4-1.4-.6.6-1.4,1.1-2,1.7.6-.9,1.1-1.7,1.7-2.8,0,.3.3.3.6.3,7.7-4.3,13.1-13.1,16-21.4.3-.6-.9-.9-1.1-.3-3.4,8.3-8.8,14-14.8,20.2.3-.6.9-1.1,1.1-1.7.3-.3,0-.9-.3-1.1,1.1-2,2.3-4,3.1-6,.3-.6-.6-.9-.9-.3-2.3,4.8-5.4,8.8-9.1,12.5.3-.3.3-.6.6-1.1,1.7-3.4,3.4-6.6,5.4-10,.6-1.1-.9-2-1.4-1.1-3.1,5.7-7.4,12-9.1,18.2v.3c-.3,0-.3-.3-.6-.3,0-.3-.3-.6-.3-.9,3.1-5.1,5.1-11.1,6.8-17.1,2.3-2.6,4.3-5.4,4.8-8.8,0-.3-.6-.6-.6-.3-.9,1.4-1.7,3.1-2.6,4.8-.3.6-.6,1.1-1.1,1.7,0-.3.3-.6.3-.9.3-1.1-1.4-1.7-1.7-.6-2,7.7-5.1,14.5-8.8,21.4-2.8,2-6,4-8.8,5.7,4.6-3.7,8.5-8.8,11.7-13.7.6-.6-.6-1.4-.9-.6-2,2.8-4.6,5.7-6.8,8.3-.6.3-1.4.6-2,1.1,1.1-1.1,2.3-2.6,3.4-3.7.9-1.1-.9-2.3-1.7-1.1-3.1,3.4-6.6,6.6-10.3,9.4l-3.4,1.7c-.6.3-.6.6-.3.9-2.8,1.7-6,3.4-8.5,5.4-.6.3,0,1.4.6,1.1,5.4-1.4,10.8-4.8,15.4-9.1l3.4-1.7c-.6.6-.9,1.1-1.4,1.7-.6.6.3,1.1.9.9-2.6,1.7-5.1,3.1-7.7,4.8l-.3.3c-.3.6.3,1.4.9,1.1,3.4-1.1,6.8-2.6,10.3-4.3,0,.6.6,1.1.9.9,1.4-.9,3.1-1.7,4.6-2.8.3.3.6.3,1.1.3,1.1-.9,2.3-1.7,3.4-2.8,0,.3.3.6.9.3-.9.9-2,1.7-2.8,2.8-.6.6,0,1.7.9,1.1,1.7-1.1,3.4-2.3,5.1-3.7,0,.6.6,1.1,1.4.9.3,0,.3-.3.6-.3-.3.3-.6.6-.9,1.1-.6.6.3,1.1.9.9,1.7-1.1,3.4-2.6,5.1-4,9.4-4.6,17.7-11.4,22.5-20.2.6-.9-.6-1.7-1.4-.9-4,4.8-8.3,9.1-12.5,12.8,6-6.8,11.1-14.8,15.4-22.2.6-.3-.6-1.1-1.1-.3h0ZM357,474c-.9.6-2,.9-3.1,1.4.9-.9,1.7-1.4,2.6-2.3.9-.3,1.7-.9,2.3-1.1-.3.6-.9,1.4-1.7,2h0ZM311.7,472.5c3.7-5.7,7.7-11.1,10.8-17.1.3-.3-.3-.6-.6-.3-4.6,4.8-8.3,10.8-11.7,16.8-.3.6.9,1.4,1.4.6h0ZM315.4,471.1c2.8-3.4,6.3-6.8,8.5-10.8.3-.3-.3-.6-.6-.3-3.4,3.1-6,7.1-8.8,10.5,0,.3.6,1.1.9.6h0ZM319.4,470.5c3.4-2.3,7.1-5.1,8.8-8.8.3-.3-.3-.6-.6-.3-1.4,1.4-2.6,2.8-4,4.3s-3.1,2.8-4.8,4.3c0,.3.3.9.6.6h0ZM347.6,453.4c-2.8,3.1-5.1,6.6-8.5,9.1-.6.3.3,1.1.6.9,3.4-2.6,6.8-5.7,8.5-9.7.3-.3-.3-.6-.6-.3ZM340.7,456c-3.1,3.1-6,7.1-8.8,10.5-.3.6.3,1.1.6.6,3.1-3.4,6.3-6.8,8.5-10.8.3-.3,0-.6-.3-.3h0ZM333.3,459.1c-2.8,3.4-5.1,7.1-8.8,10-.6.3.3,1.1.6.6,3.4-2.6,6.8-6.3,8.5-10.3.3-.3-.3-.6-.3-.3h0ZM329,466.6c-2.6,4.6-6.8,7.7-10.3,11.4-3.4,2.3-6.8,4.6-9.7,7.4-.6.3,0,1.1.6,1.1,6-2.6,10.8-6.8,16-10.8.9-.6.3-1.7-.6-1.7,2-2,4-4.3,5.1-7.1-.3-.6-1.1-.6-1.1-.3h0ZM389.5,438.6c4.6-7.7,5.1-17.1,5.4-25.6,0-.9-1.1-.9-1.1,0-.9,8.8-2,17.1-4.8,25.4-.3.3.3.6.6.3ZM380.3,446.6c4-5.7,6.3-13.1,7.7-19.7.3-.6-.9-.9-.9-.3-1.7,6.8-4.6,13.1-7.4,19.7-.3.6.6.6.6.3h0ZM411.7,404.7c-2,9.1-4.8,17.7-8,26.2-.3,0-.6.3-.6.6-4.3,9.1-8.5,17.4-14.8,25.1,5.4-10,10-20.5,13.4-31.6.3-1.1-1.1-1.7-1.7-.6-2.6,7.1-5.7,14-8.8,20.8q-.3,0-.6.3c-6.3,10.5-14,19.1-23.4,26.8-.6.6,0,1.7.9,1.1,6.8-3.7,12.8-9.4,17.4-15.7-.6,1.1-1.1,2.6-1.7,4-.6.9-.9,2-1.4,2.8-.3.6.6,1.1,1.1.6.6-.9,1.1-1.7,1.4-2.6,4.3-3.7,8.3-8,11.7-12.8.3.3.9.6,1.1,0,7.7-13.7,12.5-28.8,15.7-44.2,0-1.4-1.4-1.7-1.7-.9h0ZM351,358.5c5.1,7.4,4.6,16.8,6.3,25.4,0,.6.9.3.9,0,.6-8.3-1.4-18.8-6.3-25.9-.6-.3-1.1,0-.9.6ZM357.5,359.4c2.6,13.4,2,26.2,2.6,39.3,0,.6.9.6.9,0,1.4-13.1.9-27.1-2.6-39.6,0-.6-.9-.3-.9.3ZM363.5,441.8c-2.3,3.1-3.7,6.6-6,9.4-.3.3.3.9.9.6,2.3-2.8,4.8-6.3,5.7-9.7.3-.3-.3-.6-.6-.3h0ZM370.1,437.8c-2.3,3.4-3.7,6.8-6.6,10-.6.6.3,1.1.9.9,2.8-2.8,5.7-6.6,6.6-10.3,0-.9-.6-1.1-.9-.6ZM365,356.5c.6,0,.9-.3.9-.9,2.6,6.8,2.6,14.2,1.7,21.7-.3-5.7-1.4-11.4-3.1-16.8-.3-.6-.9-.3-.9.3,2,8.3,2.6,16.5,2.8,24.8-.6,3.7-.9,7.4-1.1,11.1,0,.9,1.1.9,1.1.3,3.4-13.1,6-29.6,0-42.5-.3-.6-1.1-.3-1.1.6l-.3-.3c-13.4-3.1-26.5.3-39.9,2.6-20.8,3.7-39.9-.3-60.4-3.1-.3,0-.6.6-.3.6,16,3.7,31.3,8.8,47.9,7.7,3.4-.3,7.1-.6,10.5-1.1,2.8,0,5.1,2.3,7.4,4.3-8.8-.3-18,.3-26.8,1.4-.3-.3-.6-.6-1.1-.6-5.4.9-10.8,1.1-16,1.4.6-.9,1.4-1.4,1.7-2.6.3-.3-.3-.6-.6-.3-.9.6-1.4,1.4-2,2.3v.6c-1.7,0-3.4,0-5.1.3.6-1.1,1.1-2.6,2-3.7.9-1.1,2-2,3.1-3.1s0-.9-.3-.6c-3.1.9-5.1,4.3-6,7.4-5.4,0-10.8-.3-16.2-.6,2-4,7.4-5.4,10.8-7.4.3-.3.3-.6-.3-.6-4.3.3-10.3,3.4-12,8h-1.7c-1.1,0-2.6-.3-3.7-.3,2.8-3.1,6.8-4.3,10.3-6.3.3-.3,0-.6-.3-.6-4.3.9-8.8,3.1-11.4,6.8-1.4,0-2.6,0-4,.3.9-1.7,2-3.4,3.1-4.8,1.7-1.7,3.7-2.6,5.7-4,.3-.3,0-.6-.3-.6-4.6.9-8.3,5.1-9.7,9.4-2,.3-3.7,1.1-5.4,2.3.6-5.4,6-9.7,9.4-13.7.3-.3,0-.9-.6-.6-4.8,2.3-10.5,9.1-10,15.1l-1.7,1.7c-.3.6.3,1.1.9.6s.9-.6,1.1-.9q0,.3.3.6c.3.6,1.1.3.9-.3,0-.3,0-.6-.3-.9,2.8-1.7,6.3-2.3,9.7-2.3q.3.3.6,0c8-.3,17.1,2.3,23.9,2.6,6.8.3,14,.3,20.5-2.3,16.5,1.1,42.5-6,52.7,8.8.3.3.6.6.9.3,0,2,.3,3.7.3,5.7-3.4,17.1-8.8,32.8-17.7,48.4-.3.6.6,1.1,1.1.6,6.6-9.4,12-19.9,15.1-31.1-.9,4.8-2.3,9.7-3.7,14.2,0,.3,0,.9.6.9-4,9.4-8.8,18.2-14.5,27.4-.3.6.6,1.1.9.6,12.3-15.7,19.9-35.3,23.9-54.7.3-.9-1.1-1.4-1.4-.3-.6,2-.9,4-1.4,5.7.9-6,.9-11.7,0-17.4v-.9c0-.3-.3-.6-.3-.6-.3-1.4-.6-3.1-1.1-4.6,0-.3-.6-.6-.9-.6-1.4-5.4-4.8-10.8-8.5-15.1,7.1,0,13.7-.9,20.2-.6h0ZM338.2,366c-1.7-2.3-4.6-4.3-7.1-5.7-.6-.3-1.1.6-.6.9,1.7.9,3.1,2,4.6,3.4l1.4,1.4c-1.4,0-2.8,0-4.3-.3-1.1-1.1-2.3-2-3.4-3.1l-2.6-1.7,11.1-1.7c4,2,6.6,5.1,9.1,8.8-2.8-1.1-5.4-1.7-8.3-2h0ZM353,375.9c-1.1-3.4-3.4-6-6.3-7.4v-.3c-1.1-4-4.6-7.4-8.3-9.1,2-.3,3.7-.6,5.7-.9v.3c4.6,5.1,6.6,10.8,8.8,17.4ZM372.4,398.4c2.3-4.8,3.4-10.3,3.7-15.4,0-.6-1.1-.6-1.1,0-.6,5.1-2,10.3-3.4,15.1,0,.6.6.9.9.3h0ZM427.9,317.5c.3-12.8-2.6-25.6-7.1-37.6-.3-.9-1.7-.3-1.4.6,3.7,12.3,5.7,24.5,7.1,37.3,0,.9,1.4.6,1.4-.3ZM426.8,291.9c-.3-.9-1.4-.6-1.4.3,3.1,17.7,4.8,35.1,6,52.7,0,.6.9.6.9,0,1.1-18-1.1-35.6-5.4-53h0ZM429.7,345.4c-2.8,22.5-7.1,44.2-11.4,66.4,0,.6.9.9.9.3,7.7-20.8,11.4-44.2,12-66.4,0-.9-1.1-1.1-1.4-.3h0ZM412.6,403c.3.6.9.3.9-.3,0-2.6-.6-5.1-1.1-7.4-.6-2.8-.9-5.7-1.4-8.5-.3-.6-1.1-.6-1.1.3.3,2.6.6,5.4,1.1,8,.3,2.8.6,5.7,1.7,8h0ZM415.1,398.7c.9-4.3-.3-8.8-1.1-13.1-.3-.6-1.1-.3-.9.3.9,4.3.6,8.3,1.1,12.5,0,.9.9,1.1.9.3ZM421.7,356c.6,2.3.9,4.6,1.1,6.8.3,1.7,0,3.7.6,5.4,0,.3.6.3.6,0,1.1-3.7-.6-9.1-1.7-12.5.3-.6-.6-.6-.6.3h0ZM423.1,352.8c1.1,3.4,1.1,7.7,2.8,11.1.3.3.6.3.6-.3.3-3.7-1.7-7.7-2.8-11.1,0-.6-.9-.3-.6.3ZM429.7,331.2c.6-4.6-.9-9.7-2-14-.3-.6-1.1-.3-.9.3,1.1,4.6,1.1,9.4,2.3,14-.3.3.3,0,.6-.3ZM424.8,327.5c1.7,8.3,2.3,16.5,3.7,25.1,0,.6.9.3.9,0,.3-8.3-1.7-17.1-3.7-25.1-.3-.9-.9-.6-.9,0ZM421.4,329.8c2,9.4,3.7,19.4,6,28.8.3.6,1.1.6,1.1-.3-1.1-9.7-3.7-19.4-6-28.8-.3-.6-1.1-.3-1.1.3ZM426.8,323.5c-.3-.6-1.1-.3-.9.3,1.4,6.6,2,13.4,3.7,19.9,0,.6.9.3.9,0,0-6.8-2-13.7-3.7-20.2ZM418.8,368.5c.3,2,.6,4.3.9,6.3.3,1.7.3,3.7.9,5.4.3.6.9.3.9,0,.3-3.7-.9-8.3-1.7-12,0-.6-.9-.3-.9.3ZM420.8,361.7c.3,2.3.6,4.8.6,7.1s0,3.7.3,5.4c0,.6.6.3.9,0,1.1-4,0-9.1-.9-13.1-.3,0-.9.3-.9.6ZM419.1,380.8c-2,16.5-5.1,32.5-8.8,48.7-.3.9.9,1.1,1.1.3,5.4-15.7,8.3-32.2,9.1-49-.3-.6-1.4-.6-1.4,0h0ZM386.3,384.8c.3-4,0-8.3,0-12.5s-.9-.6-.9,0c0,4-.3,8.3,0,12.5,0,.6.9.6.9,0ZM237.8,377.4c-1.1-6.3,2.3-11.1,5.1-16.5.3-.3-.3-.9-.6-.6-4,4.8-7.1,10.8-5.1,17.1-.3.6.6.6.6,0ZM237.3,396.7c.3.3.9.3.9-.3-3.1-9.4-5.4-18.8-6-28.8,0-.9-1.1-.9-1.1,0,.3,10,2.3,19.7,6.3,29.1ZM248.4,444.9c-5.7-10.3-12.3-22.5-16.5-35.3,0,0,.3-.3,0-.6-1.7-6.6-3.7-12.8-5.1-19.7-.9-5.4-.9-11.1-.3-16.5.6,13.7,4,26.8,10.5,39.3.3.6,1.1,0,.9-.6-6.6-14.2-10-29.1-10.3-44.7.9-3.1,1.7-6,3.1-9.1.3-.6-.6-1.1-.9-.6-4.6,7.7-6.3,16.5-6.6,25.9-.9-1.7-1.7-3.4-2.3-5.1-.3-.6-1.1,0-.9.6,1.1,2.6,2.3,5.7,3.4,8.3.6,9.1,2.6,18.2,5.7,27.1-.9-2.3-2-4.3-2.8-6.6-.3-.6-1.4-.3-1.1.3,4.8,12.5,10.8,24.8,19.4,35.1q.3.3.6,0c.6.9,1.4,1.7,2,2.6.6,1.4,1.4.6,1.1-.3h0ZM418,309.5c.3-5.1-.3-10.3-.6-15.4,0-.6-1.1-.6-.9,0,.6,5.1.6,10.3.9,15.4,0,.3.6.3.6,0ZM411.1,366c1.1-12,.9-23.9.6-35.9,0-.9-1.4-.9-1.4,0,0,12-.3,23.9,0,35.9-.3.6.6.6.9,0ZM406.6,371.9c1.1-11.1.6-23.1-.3-34.2,0-.6-.9-.6-1.1,0-.6,11.1-1.4,23.1-.3,34.2.6.9,1.7.9,1.7,0ZM400,379.6c1.1-9.1.9-18.5,1.1-27.9,0-.6-.9-.6-.9,0-.6,9.1-1.7,18.5-1.4,27.9-.3.9.9.9,1.1,0h0ZM393.2,378.8c.9-4,1.1-8.3,1.7-12.5,0-.9-1.1-.9-1.1,0-.6,4-1.1,8.3-1.4,12.5,0,.3.6.6.9,0h0ZM407.4,399.3c0-.6-.9-.6-.9,0,0,7.1-1.7,13.4-2.8,20.2,0,.3.3.6.6.3,2.8-6.3,3.1-13.7,3.1-20.5h0ZM399.2,413c-.6,3.7-1.4,7.4-2.6,11.1-1.1,3.1-2.6,6-3.7,9.4,0,.3.3.6.6.3,4.6-5.4,6-14,6.8-20.8,0-.9-.9-.6-1.1,0ZM402.6,408.1c-.3,2.6-.9,5.4-1.4,8-.6,2-1.1,4-1.1,6.3s.6.6.6.3c2.3-4,2.6-10,2.8-14.5.3-.6-.9-.6-.9,0Z"/>
              </g>
            </g>
          </g>
          <g id="svga-group-nose-single-move">
            <g id="svga-group-nose-single">
              <path id="SvgjsPath4289" class="cls-15" d="M326.5,346.7c-2,1-5.8-.9-8.4-.4-2.5.5-11.8,8.4-14.6,9.3-2.8.9-8.5-1.5-12.7-4.5-4.2-3-9.1-5.2-11.9-4.8s-8.6.8-9.5-3.6,3.1-11.3,5.2-14c2.1-2.7,4-5.4,5.7-6.7,1.8-1.3,15.5-5,26.1-2.8,10.6,2.2,14,5.9,17.6,10.3,3.6,4.3,6.8,14.8,2.5,17.1h0Z"/>
              <path id="SvgjsPath4290" class="cls-18" d="M280.1,321.8c-4.6,3.9-15.6,17.1-10.4,23.7.8,1,1.8,1.5,3,1.8,4.3,1,7.5-.7,11.9,1.4,5.2,2.6,9.3,7.5,15.3,8.3,4.9.7,8.2-2,11.8-4.9,1.9-1.6,4.1-3.7,6.6-4.3,1.9-.4,4,.7,5.9.8,1.4,0,2.5,0,3.7-.8,2.7-2.2,2.1-6.4,1.3-9.3-1.4-5.8-4.5-11-9.1-14.8-.2-.2-.7-.2-.9,0s-.2.7,0,.9c3.1,3.9,6,8,7.4,12.8,1.1,3.7,2.4,7.8-3.5,8.1-1,0-2.4-.7-3.6-.7-2.7,0-5,1.5-7.1,3-5.7,4.2-9.6,8.6-17.1,4.6-6-3.2-10.3-8.3-17.6-7.5-1.2.2-2.4.4-3.6.5-3.3-1.6-4.5-3.8-3.4-6.7.5-2.2,1.6-4.5,2.6-6.5,1.9-3.8,4.5-7,7-10.3,0-.1-.1-.3-.2-.2h0Z"/>
              <path id="SvgjsPath4291" class="cls-18" d="M281.8,327.9c-.7,9.1,7,17.2,16.3,16.2.2,0,.5-.2.5-.5s-.2-.5-.5-.5c-8.6-1-14.8-6.6-15.9-15.3,0-.2-.3-.2-.3,0Z"/>
              <path id="SvgjsPath4292" class="cls-2" d="M306.4,319.2c-3.4-1.4-7.1-2-10.7-1.6-2.8.3-7,2-6.1,5.5,1.2,4.7,7.5,4.1,11.2,5.2,4,1.2,5.4,5,8.9,6.8,1.3.7,2.9.6,3.9-.5,5.5-5.7-1.8-13.2-7.2-15.4h0Z"/>
            </g>
          </g>
          <g id="svga-group-hair-front">
            <path id="SvgjsPath6115" class="cls-7" d="M325.8,150.9s-3.9,12-10.8,14.4-31.2,4.2-32.1-6.3-8.1-48-46.5-34.8c0,0,5.1-15,29.4-25.2s29.4-10.8,51,1.5c21,12.3,15,43.2,9,50.4h0Z"/>
            <path id="SvgjsPath6116" class="cls-23" d="M382.8,177.3s4.8,7.8,11.7,7.8,20.4-12.6,22.8-20.7,5.4-51.3-32.4-68.1-9.6,8.4-9.6,8.4c0,0,32.4,35.4,7.5,72.6h0ZM396.9,179.7s-4.2,3.3-1.2,8.4c2.7,5.4,5.7,12.6,9,27.3s3.3,45.6,3.6,51.3c.3,5.7.3,20.4,5.7,20.7,5.4.3,10.8-2.7,14.1-8.4s4.2-32.4,4.2-41.1-.3-50.7-19.8-67.8l-15.6,9.6h0ZM228.6,209.1s2.4,22.2-19.2,28.5c-21.6,6.3-40.8,12.6-30,24.3,10.8,11.4,15.6,13.8,15.6,13.8,0,0-30-14.1-31.5-28.5-1.5-14.1,24.6-29.1,38.7-33.3,14.1-4.2,26.4-4.8,26.4-4.8ZM255.3,115.2c-15.6-.9-26.4,11.1-31.2,23.1s-2.7,26.1-2.7,26.1c-.3,9.6,14.7,30.3,10.5,21.6-4.2-9.3-1.2-12.9,1.5-19.5,1.8-4.5,11.1-6,16.8-6s.3.3.6.3c10.5,6.6,25.2,2.1,28.2.9s4.8-3.3,5.1-8.1c.6-17.1-13.2-37.5-28.8-38.4h0ZM370.8,135.9s1.8,21.9-9,34.2-47.4.9-42.3-10.5c5.4-11.1,12-27.6,5.7-41.4-6-14.1-18.3-28.8-42.6-24.9,0,0,26.4-7.5,53.7,3.9s32.1,26.1,34.5,38.7h0Z"/>
            <path id="SvgjsPath6117" class="cls-23" d="M202.5,116.7s-33.6,17.7-39.9,42c-6,24.3-11.1,46.5-2.7,61.5,0,0-17.7,18.3,2.7,36.9s27,14.4,29.4,20.4c2.1,6,1.2,6-2.1,8.4,0,0,9,0,9.3-5.1,0,0,2.7-3.3-11.7-15.6-14.4-12-22.5-19.2-19.5-25.8s16.2-17.1,27.9-19.2,29.1-6.3,31.2-13.2-.3-9.9-5.4-17.7-19.8-25.5-20.1-35.1c-.6-9.6.9-37.5.9-37.5h0Z"/>
            <path id="SvgjsPath6118" class="cls-7" d="M362.1,170.1s-1.5,1.8,4.2,7.2c5.7,5.4,15.6,5.7,23.7-1.5,7.8-7.2,16.8-39.9,8.1-60.6s-30-41.4-66-44.4c0,0,.3-7.8-24.6-13.2s-66.3,5.4-86.7,35.4c0,0-24.9,4.2-30.6,34.5s18.9,54.9,28.2,66c9.3,11.1-1.5,19.8-10.8,21-9.3,1.5-48.3,8.7-45.6,26.1s32.4,29.7,33.9,36.9-9.6,8.1-11.4,11.7c-1.8,3.6-3,12.6,11.4,19.5,0,0-7.5-6.3-8.1-11.7s3.3-8.1,7.5-9.9c9.3-4.5,8.1-8.7,6-12.9s-16.2-11.7-20.7-17.4-4.8-14.4,1.8-21,28.5-13.2,38.7-17.1c27.3-10.8,19.5-15.9,17.4-20.7-3.6-7.8-15-13.8-16.8-26.1s.6-36.6,11.7-48.3,31.5-35.1,77.1-32.4,60.6,32.1,62.1,41.4-3.6,24.3-10.5,37.5h0Z"/>
            <path id="SvgjsPath6119" class="cls-17" d="M362.1,170.1c-.9,1.5,28.8-51.6-25.2-69.6s-85.5,4.5-102.3,28.5c-7.8,11.1-16.2,38.4,5.1,61.8,21.3,23.4-39.3,30.9-52.5,45.6s2.1,21.3,13.2,34.2c11.1,13.2-10.2,21.3-10.5,27.3-.6,6,6,11.1,6,11.1,0,0-12-5.4-10.5-14.7,1.5-9,21.3-8.7,15.3-16.8s-37.5-21.6-25.2-39,58.5-18.3,61.5-30.9-23.7-20.1-20.1-47.1,13.2-44.4,36.9-60,75.9-19.8,105.6,7.2c29.7,27,10.5,49.2,2.7,62.4h0ZM186,219.9c-8.4,1.5-18.3,3.9-23.1,12-3.9,6.6-3,15,2.1,20.7.3.3.9,0,.6-.6-4.5-7.2-5.1-16.5,1.2-22.8,5.1-5.1,12.3-6.9,18.9-8.7.9,0,.6-.6.3-.6h0ZM210.6,183c-15.6-15-26.1-33.6-16.8-55.2.3-.9-.6-1.2-1.2-.6-7.5,9.6-7.5,21.6-3,32.7,1.8,4.5,4.5,9,7.8,12.9,6.9,8.7,23.1,17.4,22.8,29.7,0,.6.9.6.9,0,1.8-8.7-4.5-13.5-10.5-19.5h0ZM283.8,60.9c-33,7.2-69.9,26.1-73.5,63.3,0,.6.9.9,1.2,0,7.2-36.9,39-53.1,72.3-63.3,0,.3,0,0,0,0ZM189.9,192.6c-2.7-15-22.5-18.9-20.1-36.3,0-.9-1.2-.9-1.2-.3-7.5,21.3,38.7,34.5,12.3,54.9-.3.3,0,.6.3.6,6-3.9,9.9-11.1,8.7-18.9h0ZM384.3,99c-19.8-25.8-51.9-29.1-81.9-21.3-.6,0-.3.9.3.9,26.1-4.2,54.9-5.4,74.7,15.9,20.7,21.9,27.9,53.7,6.6,77.7-.6.9.3,1.8,1.2,1.2,23.4-19.5,15.3-53.4-.9-74.4h0ZM417.9,149.4c-.3-.6-1.5-.6-1.2.3.9,14.4-6.9,25.5-21,29.1-.6.3-.6,1.5.3,1.2,14.7-.9,25.8-15.9,21.9-30.6h0ZM420.9,187.2c-3,6.3-6,14.4-14.4,14.4s-1.2,1.8,0,1.8c8.7.6,14.7-7.8,15.3-15.9.3-.6-.6-.9-.9-.3h0ZM424.2,193.2c0-.3-.3-.3-.6-.3-.3-.9-.3-2.1-.6-3-.3-.6-.9-.3-.9.3,4.2,23.7.3,45-9.3,66.6-.3.6.6,1.2.9.6,6.3-10.2,9.9-21.3,11.4-33,.6,17.7,0,35.1-2.7,53.4,0,.6.9.9.9.3,6.9-27.3,8.1-57.6.9-84.9h0Z"/>
          </g>
        </g>
      </g>
    </g>
    <rect id="svga-credit-rect" class="cls-4" y="555" width="600" height="45"/>
    <g id="svga-credit-text" class="cls-25">
      <text class="cls-24" transform="translate(100.2 586.8)"><tspan x="0" y="0">Created on AvatarMaker.com</tspan></text>
    </g>
  </g>
</svg>