<?xml version="1.0" encoding="UTF-8"?>
<svg id="Layer_1" data-name="Layer 1" xmlns="http://www.w3.org/2000/svg" version="1.1" viewBox="0 0 600 600">
  <defs>
    <style>
      .cls-1 {
        fill: #f5f7ff;
      }

      .cls-1, .cls-2, .cls-3, .cls-4, .cls-5, .cls-6, .cls-7, .cls-8, .cls-9, .cls-10, .cls-11, .cls-12, .cls-13, .cls-14, .cls-15, .cls-16, .cls-17, .cls-18, .cls-19, .cls-20, .cls-21, .cls-22, .cls-23, .cls-24, .cls-25 {
        stroke-width: 0px;
      }

      .cls-2 {
        fill: #c6717b;
      }

      .cls-3 {
        fill: #ecf0f1;
        opacity: .5;
      }

      .cls-3, .cls-26, .cls-23, .cls-27 {
        isolation: isolate;
      }

      .cls-3, .cls-27 {
        display: none;
      }

      .cls-4 {
        fill: #c99679;
      }

      .cls-5 {
        fill: #160e03;
      }

      .cls-6 {
        fill: #2f1f19;
      }

      .cls-7 {
        fill: #e0bca9;
      }

      .cls-26 {
        fill: #333;
        font-family: AvenirNext-Regular, 'Avenir Next';
        font-size: 30px;
      }

      .cls-8 {
        fill: #3e2e27;
      }

      .cls-9 {
        fill: #be636e;
      }

      .cls-10 {
        fill: #20130e;
      }

      .cls-11 {
        fill: #efe7eb;
      }

      .cls-12 {
        fill: #aa6945;
      }

      .cls-13 {
        fill: #000;
      }

      .cls-14 {
        fill: #432d19;
      }

      .cls-15 {
        fill: #d0a0b8;
      }

      .cls-16 {
        fill: #d8af98;
      }

      .cls-17 {
        fill: #ced5f0;
      }

      .cls-18 {
        fill: #34200e;
      }

      .cls-19, .cls-23 {
        fill: #b97e5d;
      }

      .cls-20 {
        fill: #ce8089;
      }

      .cls-21 {
        fill: #523c27;
      }

      .cls-22 {
        fill: #1e1406;
      }

      .cls-23 {
        opacity: .6;
      }

      .cls-24 {
        fill: #0f0901;
      }

      .cls-25 {
        fill: #fff;
      }
    </style>
  </defs>
  <g id="svga-group-wrapper">
    <g id="svga-group-backs-single">
      <path id="SvgjsPath6981" class="cls-1" d="M0,0h600v600H0V0Z"/>
      <path id="SvgjsPath6982" class="cls-17" d="M0,0h85.8v85.8H0V0ZM171.3,0h85.8v85.8h-85.8V0ZM342.9,0h85.8v85.8h-85.8V0h0ZM514.2,0h85.8v85.8h-85.8V0ZM85.8,85.8h85.8v85.8h-85.8v-85.8ZM257.1,85.8h85.8v85.8h-85.8v-85.8ZM428.7,85.8h85.8v85.8h-85.8v-85.8ZM0,171.3h85.8v85.8H0v-85.8ZM171.3,171.3h85.8v85.8h-85.8v-85.8ZM342.9,171.3h85.8v85.8h-85.8v-85.8h0ZM514.2,171.3h85.8v85.8h-85.8v-85.8ZM85.8,257.1h85.8v85.8h-85.8v-85.8ZM257.1,257.1h85.8v85.8h-85.8v-85.8ZM428.7,257.1h85.8v85.8h-85.8v-85.8ZM0,342.9h85.8v85.8H0v-85.8h0ZM171.3,342.9h85.8v85.8h-85.8v-85.8h0ZM342.9,342.9h85.8v85.8h-85.8v-85.8h0ZM514.2,342.9h85.8v85.8h-85.8v-85.8h0ZM85.8,428.7h85.8v85.8h-85.8v-85.8ZM257.1,428.7h85.8v85.8h-85.8v-85.8ZM428.7,428.7h85.8v85.8h-85.8v-85.8ZM0,514.2h85.8v85.8H0v-85.8ZM171.3,514.2h85.8v85.8h-85.8v-85.8ZM342.9,514.2h85.8v85.8h-85.8v-85.8h0ZM514.2,514.2h85.8v85.8h-85.8v-85.8Z"/>
    </g>
    <g id="svga-group-humanwrap-move">
      <g id="svga-group-humanwrap">
        <g id="svga-group-humanbody-back">
          <path id="SvgjsPath3152" class="cls-16" d="M505.5,658.5l-5.1-64.5s2.1-27-26.4-45.9-70.2-30.3-88.5-42.6c-18.3-12.3-27.6-13.5-27-50.7s2.7-120.9,2.7-120.9h-122.4s2.1,83.7,2.7,120.9c.6,37.2-8.7,38.4-27,50.7-18.3,12.3-60,23.7-88.5,42.6s-26.4,45.9-26.4,45.9l-4.8,64.5h410.7Z"/>
        </g>
        <g id="svga-group-chinshadow-single">
          <path id="SvgjsPath3587" class="cls-23" d="M300,482.7s27.3,1.3,58.5-22c0-1.9,0-3.8,0-5.9.6-37.2,2.7-120.9,2.7-120.9h-122.4s2.1,83.7,2.7,120.9c0,2.1,0,4.1,0,5.9,31.2,23.3,58.5,22,58.5,22Z"/>
        </g>
        <g id="svga-group-humanbody-front">
          <path id="SvgjsPath3153" class="cls-19" d="M221.4,527.7c15.3,8.7,35.4,15.6,52.8,17.1,1.2,0,1.2-1.8.3-2.1-8.4-3.3-17.7-5.1-26.4-7.8-8.7-2.7-17.4-6-26.4-8.1-.3-.3-.9.6-.3.9h0ZM327,546.3c15.9-1.8,33.9-9,47.7-17.4.9-.6.3-1.8-.6-1.5-7.8,2.7-15.6,6-23.4,8.7-7.8,2.7-16.2,4.5-24,7.5-1.5.3-1.5,2.7.3,2.7h0Z"/>
          <path id="SvgjsPath3154" class="cls-12" d="M505.2,658.2l-6.3-64.2c0-6.6-1.5-13.5-4.5-19.8-2.7-6.3-6.9-11.7-11.7-16.5s-10.5-8.4-16.5-12-12.3-6.6-18.6-9.3c-12.6-5.7-25.8-10.8-38.7-16.2-6.6-2.7-12.9-5.7-19.2-9-3.3-1.8-6.3-3.6-9-5.7-3-1.8-6-3.6-9-5.7s-6-4.5-8.4-7.8c-2.4-3-3.9-6.6-5.1-10.2-2.1-7.2-2.4-14.4-2.4-21.6,0-14.1.6-28.2.9-42.3.6-28.2,1.8-56.1,2.7-84l1.8,1.8-61.2-.6-61.2-.3.9-.9,2.1,84c.3,14.1.9,27.9,1.2,42,0,7.2-.3,14.1-2.4,21.3-.9,3.6-2.7,6.9-4.8,9.9-2.4,3-5.1,5.4-8.1,7.5s-6,3.9-8.7,6c-2.7,1.8-5.7,3.9-9,5.7-6.3,3.6-12.6,6.3-19.2,9.3-12.9,5.7-25.8,10.8-38.4,16.8-6.3,3-12.6,6.3-18.3,9.6-6,3.6-11.4,7.2-16.2,12-4.8,4.8-8.7,10.2-11.4,16.2-1.2,3-2.4,6.3-3,9.3-.6,3.3-1.2,6.6-.9,9.6v.6l-4.5,64.5-3-3.3,102,.3c33.9,0,68.1.3,102.3.6l102.6.9,103.2,1.5h0ZM505.8,658.8l-102,1.2-102.6.9c-34.2.3-68.7.6-103.2.6l-103.2.3h-3.3l.3-3.3,5.1-64.5v.3c-.3-15.3,6.6-29.4,17.1-39.9,5.1-5.1,11.4-9.3,17.4-12.9s12.6-6.6,18.9-9.6c12.9-6,26.1-11.1,39-16.2,6.3-2.7,12.9-5.4,18.9-8.7,3-1.5,5.7-3.3,9-5.4,3-1.8,6-3.6,8.7-5.7,2.7-1.8,5.4-4.2,7.2-6.6,2.1-2.7,3.6-5.7,4.5-8.7,1.8-6.3,2.4-13.5,2.4-20.4,0-13.8-.3-27.9-.6-42l-1.8-84v-.9h.9l61.2-.3,61.2-.6h1.8v1.8c-.3,27.9-.6,56.1-1.2,84-.3,14.1-.6,28.2-.6,42,.3,6.9.6,13.8,2.4,20.1.9,3.3,2.4,6,4.2,8.7,1.8,2.4,4.2,4.8,7.2,6.6,2.7,1.8,5.7,3.9,8.7,5.7,3,2.1,5.7,3.9,8.7,5.4,6,3.3,12.3,6.3,18.9,9,12.9,5.4,25.8,10.8,38.7,16.8,6.3,3,12.6,6.3,18.6,9.9s12,7.8,17.1,12.9c10.2,10.2,16.8,24.3,16.2,39v-.3l4.2,64.8h0ZM167.4,657.6l5.7-41.4.3,41.4h-6ZM433.2,657.6l-5.7-41.4-.3,41.4h6Z"/>
        </g>
        <g id="svga-group-clothes-single">
          <path id="SvgjsPath6738" class="cls-11" d="M505.2,587.1c-2.7-22.5-11.4-35.7-28.2-45.3s-62.7-26.1-87-38.7c-19.2-9.9-25.8-22.8-26.4-30.9s0-43.5,0-43.5c0,0-18,15.9-67.5,15.9s-59.1-15.3-59.1-15.3c0,0,.6,34.2,0,42.3s-8.1,21.3-27.3,31.2c-24.3,12.6-69.6,29.1-86.4,38.7s-25.8,22.8-28.5,45.3c-2.7,22.5-8.4,72.9-8.4,72.9h426.9c.3.3-5.7-50.1-8.1-72.6h0ZM297.3,603.6c-18,0-36-11.7-36-25.2s14.1-66.9,14.1-66.9c0,0,29.7,2.4,48,.6,0,0,9.3,45.6,10.5,64.2s-18.6,27.3-36.6,27.3Z"/>
          <path id="SvgjsPath6739" class="cls-15" d="M514.2,659.4v-.6l-.3-1.8-.9-7.8-7.5-62.1c-1.2-9.9-3.6-19.8-9-28.2-5.4-8.4-13.5-14.7-22.2-19.2-17.7-9-36-16.2-54-24.3-9-3.9-18-8.1-26.7-12.6-8.7-4.2-16.8-9.9-22.2-17.4-2.7-3.6-4.8-8.1-5.4-12.3-.3-4.5-.3-9.6-.3-14.4l.3-29.7c0-.6-.3-1.2-.6-1.8-.9-1.2-2.7-1.2-3.9-.3-1.8,1.5-4.2,2.7-6.3,3.9-2.4,1.2-4.8,2.4-7.2,3.3-5.1,1.8-10.2,3.3-15.6,4.5-10.5,2.4-21.3,3.3-32.4,3.6-10.8.3-21.6-.3-32.4-2.7-10.5-2.1-21-5.7-30-11.4-.3-.3-.6-.3-.9-.3-.9,0-1.8.9-1.5,1.8.3,12.9.6,25.8.6,38.7s-.3,6.3-1.5,9c-1.2,3-2.7,5.7-4.5,8.1-3.6,5.1-8.7,9.3-13.8,12.9-5.4,3.6-11.1,6.3-17.1,9-5.7,2.7-11.7,5.4-17.7,7.8l-35.7,15c-6,2.7-12,5.1-17.7,8.1-6,2.7-11.4,6.3-16.5,10.5s-9,9.6-12,15.6-4.8,12.3-5.7,18.9c-3.3,25.8-6.3,51.3-9.6,76.8v.3c0,1.5,1.2,2.4,2.4,2.4l125.1.6c41.7.3,83.4,0,125.1,0,41.7-.3,83.4-.6,125.1-1.5l31.2-.6,15.6-.3h4.5q.3,0,.6-.3c.6-.3.6-1.2.6-1.2h0ZM493.2,658.8l-31.2-.6c-41.7-.6-83.4-1.2-125.1-1.5-41.7,0-83.4-.3-125.1,0l-122.4.6,7.8-74.1c.9-6.3,2.4-12.3,5.1-18s6.3-10.8,11.1-15c4.5-4.2,10.2-7.5,15.9-10.5s11.7-5.7,17.4-8.1l35.7-15.3c6-2.7,11.7-5.1,17.7-7.8,5.7-2.7,11.7-5.4,17.4-9,5.4-3.6,10.5-7.8,14.4-13.2,2.1-2.7,3.6-5.4,4.8-8.7.6-1.5.9-3.3,1.2-4.8.3-1.8.3-3.3.3-4.8.3-12,.3-23.7.3-35.7,9,5.4,18.6,8.7,28.5,11.1,10.8,2.7,22.2,3.6,33.3,3.3,11.1,0,22.2-1.2,33.3-3.3,5.4-1.2,10.8-2.7,16.2-4.5s5.4-2.1,7.8-3.3c.9-.6,2.1-1.2,3-1.8v24.6c0,5.1,0,9.6.6,15s3.3,10.2,6.3,14.4c6.3,8.4,15.3,14.1,24.3,18.3,9,4.2,18,8.1,27.3,11.7l27.3,11.1c9,3.6,18.3,7.5,27,11.7,8.7,4.5,16.8,10.5,22.2,18.6,5.4,8.1,8.1,18,9.3,27.6l6.6,62.1.9,7.8.3,1.8v.3h-19.5ZM513,659.1h-.3.3c.6,0,.3,0,0,0ZM331.8,540c-1.8-9.6-3.9-19.2-6-28.5-.3-1.2-1.5-2.1-2.7-1.8-7.8.9-15.6,1.2-23.7,1.5-8.1.3-15.9,0-24-.3-.6,0-.9.3-.9.6-2.1,9.3-4.8,18.9-7.5,28.2-2.7,9.3-5.4,18.6-6.9,28.2-.6,2.4-.9,4.8-.9,7.2-.3,2.7-.3,5.4.6,8.1.9,2.7,2.1,5.1,3.9,6.9,1.8,2.1,3.6,3.6,5.7,5.4,8.4,5.7,18.3,8.4,27.9,8.4s9.9-.6,14.7-1.5c4.8-1.2,9.6-2.7,13.8-5.4,4.2-2.7,8.1-6.9,9.6-12.3.9-2.7,1.2-5.4,1.2-8.1s-.3-5.1-.6-7.5c-.9-9.9-2.4-19.5-4.2-29.1h0ZM330.6,583.2c-.9,4.2-3.3,8.1-6.9,11.1-6.9,6-17.1,9-26.7,9s-19.2-3.9-26.1-10.2c-3.3-3.3-6-7.2-6.9-11.1-.6-2.1-.3-3.9,0-6.3s.9-4.8,1.2-6.9c1.8-9.3,3.3-18.9,5.1-28.5,1.5-9.3,3.6-18.6,5.7-27.6,7.8.6,15.6,1.2,23.1,1.8,7.2.6,14.4.9,21.9.3,1.5,8.7,3,17.7,4.5,26.4,1.5,9.6,3.3,19.2,4.5,28.5l.9,7.2c0,2.1,0,4.2-.3,6.3h0ZM144,600.9c-2.4-8.7-6.9-16.8-12.3-24.3-5.4-7.2-11.4-14.1-18-19.8,3,3.3,5.7,6.6,8.4,10.2,2.7,3.6,5.4,7.2,7.8,10.8,4.8,7.5,9,15.3,11.1,23.7,2.4,8.4,3.9,17.4,5.4,26.1.6,4.5,1.2,8.7,1.8,13.2.6,4.5.9,8.7,1.5,13.2.3-9-.3-18-1.2-26.7-.6-8.7-2.1-17.7-4.5-26.4h0ZM467.7,576.6c-5.4,7.2-9.9,15.3-12.3,24.3-2.4,8.7-3.9,17.7-4.8,26.7s-1.2,17.7-1.2,26.7c.6-4.5.9-9,1.5-13.2.6-4.5,1.2-8.7,1.8-13.2,1.5-8.7,2.7-17.7,5.4-26.1,2.4-8.4,6.6-16.2,11.1-23.7,2.4-3.6,5.1-7.2,7.8-10.8,2.7-3.6,5.7-6.9,8.4-10.2-6.3,5.7-12.3,12.3-17.7,19.5h0Z"/>
        </g>
        <g id="svga-group-head">
          <g id="svga-group-ears-left-move">
            <g id="svga-group-ears-left">
              <path id="SvgjsPath6062" class="cls-16" d="M192,281.1s-6.9-6.6-15-9.9-17.1,2.1-19.8,10.2,3.6,42,14.1,54.3,17.4,13.2,24.3,6.9c6.9-6,19.2-29.7-3.6-61.5h0Z"/>
              <path id="SvgjsPath6063" class="cls-4" d="M195.6,285.9c1.2,1.8,2.1,3.6,3.3,5.4,1.2,1.8,2.1,3.9,3,5.7.9,2.1,1.8,3.9,2.4,6,.6,2.1,1.5,4.2,1.8,6.6.3,1.2.3,2.4.6,3.3l.3,3.6c0,4.8-.6,9.3-1.8,13.8-1.5,4.5-3.3,8.4-6.3,11.7-.6.9-1.5,1.5-2.1,2.4-.9.6-1.5,1.2-2.4,1.8-1.8,1.2-3.6,2.1-5.7,2.1-2.1.3-4.2,0-6-.9s-3.6-2.1-5.1-3.3-3-2.7-4.5-4.5c-1.5-1.5-2.7-3.3-3.9-5.1-4.5-7.5-7.2-15.9-9.6-24.3-1.2-4.2-2.1-8.4-3-12.9s-1.5-8.7-1.2-13.5c0-1.2.3-2.4.6-3.9.3-.6.3-1.2.6-1.8l.9-1.5c1.2-2.1,2.7-3.6,4.2-5.1,3.3-2.7,7.2-3.9,11.1-3.3,1.8.3,3.9.9,5.4,1.8,1.8.9,3.3,1.8,5.1,3,3.3,2.1,6.3,4.5,9.3,7.2l3,5.7ZM182.4,274.5c-1.8-.9-3.3-1.5-5.1-2.1-1.8-.6-3.3-.9-5.1-.9-3.3.3-6.6,1.5-9.3,3.9-1.2,1.2-2.4,2.4-3.3,4.2-.3.9-.9,1.5-1.2,2.4-.3.9-.6,1.5-.6,2.7-.6,3.9-.3,8.4.3,12.6.6,4.2,1.2,8.7,2.1,12.9,2.1,8.4,5.1,16.8,9.9,23.1,2.4,3,5.4,5.7,8.1,8.1,3,2.1,6.3,3.6,9.3,3s3-.9,4.5-1.8,2.7-2.1,3.9-3.6c2.1-3,4.2-6.3,5.1-10.2,1.2-3.9,1.8-7.8,2.1-12,0-4.2-.3-8.4-1.2-12.6-1.8-8.4-5.4-16.2-10.2-22.8-2.7-3-6-5.1-9.3-6.9h0Z"/>
              <path id="SvgjsPath6064" class="cls-19" d="M167.7,279.9c9,1.5,15,17.1,16.8,27.6.3.3.3.6.6.9.9,1.5-1.2,3.3-2.1,1.8-1.2-2.1-3-4.5-5.1-5.4-3.9-1.5-6,3-5.1,7.5,1.2,5.1,4.5,8.4,7.5,12.3.3.3,0,.9-.3.6-4.8-3-12-13.5-8.7-20.1s6.3-3.9,9.6-1.2c-2.1-6-3.9-12-8.4-16.5s-4.2-3.9-6.3-3.6c-3.6.6-3.6,6-3.9,9.3-.3,4.5.3,9.3.9,14.1,0,.6-.6.6-.6.3-1.8-7.2-5.4-29.4,5.1-27.6h0Z"/>
            </g>
          </g>
          <g id="svga-group-ears-right-move">
            <g id="svga-group-ears-right">
              <path id="SvgjsPath6065" class="cls-16" d="M408,281.1s6.9-6.6,15-9.9,17.1,2.1,19.8,10.2-3.6,42-14.1,54.3-17.4,13.2-24.3,6.9c-6.9-6-19.2-29.7,3.6-61.5Z"/>
              <path id="SvgjsPath6066" class="cls-4" d="M408,280.8c3-2.7,6-5.1,9.3-7.2,1.5-1.2,3.3-2.1,5.1-3,1.8-.9,3.6-1.5,5.4-1.8,3.9-.3,7.8.6,11.1,3.3,1.5,1.2,3,3,4.2,5.1l.9,1.5c.3.6.3,1.2.6,1.8.3,1.2.6,2.7.6,3.9.3,4.8-.6,9.3-1.2,13.5-.9,4.5-1.8,8.7-3,12.9-2.4,8.4-5.1,16.8-9.6,24.3-1.2,1.8-2.4,3.3-3.9,5.1-1.2,1.5-2.7,3-4.5,4.5-1.5,1.2-3.3,2.4-5.1,3.3s-3.9,1.2-6,.9-3.9-1.2-5.7-2.1c-.9-.6-1.8-1.2-2.4-1.8-.9-.6-1.5-1.5-2.1-2.4-2.7-3.3-4.8-7.5-6.3-11.7-1.2-4.5-2.1-9-1.8-13.8l.3-3.6c0-1.2.3-2.4.6-3.3.3-2.4,1.2-4.5,1.8-6.6.9-2.1,1.5-4.2,2.4-6s1.8-3.9,3-5.7,2.1-3.6,3.3-5.4l3-5.7h0ZM408,281.1c-4.8,6.6-8.4,14.7-10.2,22.8-.9,4.2-1.2,8.4-1.2,12.6s.6,8.1,2.1,12c1.2,3.9,3,7.2,5.1,10.2,1.2,1.5,2.4,2.7,3.9,3.6,1.5.9,2.7,1.8,4.5,1.8,3,.6,6.3-.9,9.3-3,3-2.4,5.7-5.1,8.1-8.1,4.8-6.3,7.8-14.7,9.9-23.1,1.2-4.2,1.8-8.4,2.1-12.9.6-4.2.6-8.7.3-12.6,0-.9-.3-1.8-.6-2.7-.3-.9-.6-1.8-1.2-2.4-.9-1.5-2.1-3-3.3-4.2-2.7-2.1-5.7-3.6-9.3-3.9-1.8,0-3.3.3-5.1.9-1.8.6-3.3,1.2-5.1,2.1-3,2.1-6.3,4.2-9.3,6.9h0Z"/>
              <path id="SvgjsPath6067" class="cls-19" d="M432.3,279.9c-9,1.5-15,17.1-16.8,27.6-.3.3-.3.6-.6.9-.9,1.5,1.2,3.3,2.1,1.8,1.2-2.1,3-4.5,5.1-5.4,3.9-1.5,6,3,5.1,7.5-1.2,5.1-4.5,8.4-7.5,12.3-.3.3,0,.9.3.6,4.8-3,12-13.5,8.7-20.1-2.4-4.8-6.3-3.9-9.6-1.2,2.1-6,3.9-12,8.4-16.5s4.2-3.9,6.3-3.6c3.6.6,3.6,6,3.9,9.3.3,4.5-.3,9.3-.9,14.1,0,.6.6.6.6.3,1.8-7.2,5.4-29.4-5.1-27.6h0Z"/>
            </g>
          </g>
          <g id="svga-group-faceshape-wrap">
            <g id="svga-group-faceshape-single">
              <path id="SvgjsPath3576" class="cls-16" d="M423,256.2c-3.6-85.5-58.8-130.5-122.7-130.5s-119.7,45.3-123.3,130.5c0,0-1.2,77.7,16.2,111.9,43.2,85.2,106.9,80.8,106.9,80.8,0,0,63.5,4.3,106.7-80.8,17.4-34.2,16.2-111.9,16.2-111.9h0Z"/>
              <path id="SvgjsPath3577" class="cls-12" d="M406.8,368.1c17.4-34.2,16.5-112,16.5-112-3.6-85.5-59.4-132.2-123.3-132.2s-119.4,47.1-123,132.3c0,0-1.2,77.7,16.2,111.9,43.2,85.2,106.8,82.5,106.8,82.5,0,0,63.6,2.7,106.8-82.5ZM281.7,443.6c-6-1.5-12-3.9-18-6.7-11.7-5.5-22.2-13.3-31.5-22.4-4.8-4.6-9-9.4-13.2-14.6,0,0-9.6-13.3-11.7-16.1-.9-1.5-1.8-2.7-2.7-4.3-.9-1.5-1.8-2.7-2.7-4.3l-5.4-9.7s-2.7-6.4-3.3-7.9-1.2-3-1.5-4.9c-.6-1.5-.9-3.3-1.5-4.9-1.8-6.4-3.3-13-4.5-19.7s-2.4-13.3-3-20.3c-1.8-13.7-2.7-27.3-3.3-41.2v-10l.3-5.2c0-1.8.3-3.3.3-5.2.3-3.3.9-6.7,1.2-10.3.3-1.8.6-3.3.9-5.2,0,0,.9-3.9,1.2-4.9,3-13.3,7.5-26.4,14.4-37.9,1.5-3,3.6-5.8,5.4-8.5l3-3.9c.9-1.2,2.1-2.7,3.3-3.9,4.2-5.2,9-10,14.1-14.2,10.2-8.5,21.9-14.9,34.2-19.4,12.3-4.3,25.2-6.4,38.4-6.7,6.6-.3,33,3.3,33.9,3.6,14.7,3.7,29.1,10.6,39.9,17.9,2.7,1.8,5.4,3.9,7.8,6.1l3.9,3.3,3.6,3.3c4.8,4.9,9,10,12.9,15.5.9,1.5,5.7,8.5,5.7,8.5.9,1.5,4.8,9.1,4.8,9.1,1.5,3,2.7,6.4,4.2,9.4,1.2,3.3,2.4,6.4,3.3,9.7,1.2,3.3,1.8,6.7,2.7,10,.3,1.8,2.1,10,2.1,10l.8,5.8c.3,1.8.5,8.2.5,8.2l.2,2.8s0,26.3-.9,37-1.5,20.3-3.3,30.9c-.9,5.2-2.1,10.6-3.3,15.8-1.2,5.2-2.7,10.3-4.5,15.2s-3.6,9.7-6,14.2l-3.9,6.7c-1.2,2.4-2.7,4.6-4.2,6.7-5.7,8.8-12,17-18.9,24.6s-14.4,14.6-22.5,20.6c-4.2,3-8.4,5.8-12.6,8.2-4.5,2.4-9,4.6-13.5,6.4-1.2.6-6,2.1-7.2,2.4-2.4.6-4.8,1.2-7.2,1.8s-19.9,1.9-32.7-1.6h0Z"/>
            </g>
          </g>
          <g id="svga-group-mouth-single-move">
            <g id="svga-group-mouth-single">
              <path id="SvgjsPath5971" class="cls-2" d="M270,393.3s6,7.8,12,11.4,28.2,3.9,40.2-.6,22.5-19.8,24.3-23.4c0,0-8.7,5.7-21.3,4.5-12.9-.9-41.1,2.4-46.8,4.8s-8.4,3.3-8.4,3.3Z"/>
              <path id="SvgjsPath5972" class="cls-9" d="M351.6,373.8c-1.5-1.2-3-1.8-4.8-1.2-1.2.3-1.2,2.1-.3,2.4.3.3.6.3.9.6l-1.8,1.8c-2.1,2.4-6.9,6.6-15.9,2.4-9-4.2-15.3-5.4-21.3-1.5s-8.1,2.7-13.8.6c-5.7-1.8-12.9,1.2-16.5,5.1-3.6,3.9-6.6,7.8-12.3,6s-2.4,1.5-2.4,1.5c.6.3,4.5,3.3,7.5,4.2,3.3.6,6.3-1.5,13.5-3.6s24.3-3.6,35.7-3.3c16.2.6,20.4-1.8,24.9-5.4,2.1-1.8,3.6-3.3,4.5-4.8.3.6.6,1.2,1.2,1.5.9.6,2.4.3,2.7-.9.6-2.4-.6-4.2-1.8-5.4h0Z"/>
              <path id="SvgjsPath5973" class="cls-20" d="M287.1,397.5c10.2,0,22.2.3,32.4-2.7,1.5-.3,1.5-2.4,0-3-10.2-3-23.1-.3-32.7,3.6-.9.6-.9,2.1.3,2.1Z"/>
            </g>
          </g>
          <g id="svga-group-eyes-left-move">
            <g id="svga-group-eyes-left">
              <g id="svga-group-eyesback-left">
                <path id="SvgjsPath4836" class="cls-25" d="M276.3,294.3s-10.5,8.1-17.7,9.6-18.3,2.4-28.2-.3c-9.6-3-14.7-8.4-14.7-8.4,0,0,4.2-7.8,10.2-10.8s12.3-7.8,25.8-5.7,21.9,11.1,24.6,15.6h0Z"/>
              </g>
              <g id="svga-group-eyesiriswrapper-left">
                <g id="svga-group-eyesiriscontrol-left">
                  <g id="svga-group-eyesiris-left">
                    <path id="SvgjsPath5584" class="cls-24" d="M246,273.6c8.7,0,15.6,6.9,15.6,15.6s-6.9,15.6-15.6,15.6-15.6-6.9-15.6-15.6,6.9-15.6,15.6-15.6Z"/>
                    <path id="SvgjsPath5585" class="cls-13" d="M246,305.4c-9,0-16.2-7.2-16.2-16.2s7.2-16.2,15.9-16.2,16.2,7.2,16.2,16.2c.3,9-6.9,16.2-15.9,16.2ZM245.7,274.8c-8.1,0-14.7,6.6-14.7,14.7s6.6,14.7,14.7,14.7,14.7-6.6,14.7-14.7-6.6-15-14.7-14.7Z"/>
                    <path id="SvgjsPath5586" class="cls-5" d="M246,276c7.2,0,13.2,6,13.2,13.2s-6,13.2-13.2,13.2-13.2-6-13.2-13.2,6-13.2,13.2-13.2Z"/>
                    <path id="SvgjsPath5587" class="cls-22" d="M246,277.8c6.3,0,11.4,5.1,11.4,11.4s-5.1,11.4-11.4,11.4-11.4-5.1-11.4-11.4,5.1-11.4,11.4-11.4Z"/>
                    <path id="SvgjsPath5588" class="cls-13" d="M246,280.8c4.5,0,8.4,3.9,8.4,8.4s-3.9,8.4-8.4,8.4-8.4-3.9-8.4-8.4,3.9-8.4,8.4-8.4Z"/>
                    <path id="SvgjsPath5589" class="cls-25" d="M242.1,280.8c1.5,0,3,1.2,3,3s-1.2,3-3,3-3-1.2-3-3,1.5-3,3-3ZM251.7,294c.6,0,1.2.6,1.2,1.2s-.6,1.2-1.2,1.2-1.2-.6-1.2-1.2c.3-.6.6-1.2,1.2-1.2Z"/>
                  </g>
                </g>
              </g>
              <g id="svga-group-eyesfront-left">
                <path id="SvgjsPath4844" class="cls-16" d="M212.1,294c0,20.7,14.7,37.5,33,37.5s33-16.8,33-37.5-14.7-37.5-33-37.5-33,16.8-33,37.5ZM215.7,295.2s4.2-7.8,10.2-10.8,12.3-7.8,25.8-5.7,21.6,10.8,24.6,15.3c0,0-10.5,8.1-17.7,9.6s-18.3,2.4-28.2-.3c-9.6-2.7-14.7-8.1-14.7-8.1h0Z"/>
                <path id="SvgjsPath4845" class="cls-4" d="M273,289.8s-8.1-10.5-23.4-11.7c-15.3-1.5-28.2,8.4-33.9,17.1,0,0-6,1.5-9.9-2.1,0,0,6,.3,12.9-6.3,6.3-6.3,16.8-12,29.4-10.2,13.5,1.5,19.2,5.4,24.9,13.2Z"/>
                <path id="SvgjsPath4846" class="cls-13" d="M209.7,287.7c-.3-.3,0-.6.3-.6,3.6,2.1,6.6,2.1,9.9.6,1.2-1.5,2.7-2.7,4.2-3.9-3,0-6-1.2-7.8-3.6-.3-.3.3-.6.3-.3,2.7,2.1,5.7,3.3,8.7,3,1.8-1.2,3.3-2.1,5.4-3-1.8-.9-3.3-2.4-3.9-4.5,0-.3.3-.6.6-.3,1.2,1.8,2.7,3.3,4.8,4.2,2.1-.9,4.2-1.5,6.3-1.8-.3-.3-.6-.3-.6-.6-.6-.9-1.5-2.1-1.5-3.3s.6-.6.9-.3c.6.9.6,1.8,1.2,2.7.3.6.6.9,1.2,1.2,14.4-2.1,30.3,4.5,37.8,18,.3.6-.6,1.2-.9.6-6.9-10.5-18.6-17.1-31.5-16.5-11.7.6-21.3,7.2-28.8,16.2,18.6,12.3,40.2,12,58.5-.6.3-.3.9.3.3.6-9.3,8.4-21.6,12-33.3,11.4-.3.3-.6.9-.6,1.2-.3.6-.3.9-.6,1.5-.3.3-.6.3-.6-.3,0-.9.3-1.8.9-2.7-2.4-.3-4.8-.6-7.2-1.2-.3.3-.9.6-1.2,1.2-.3.6-.6,1.2-1.2,1.8-.3.3-.6,0-.6-.3,0-.9.6-1.5.9-2.1.3-.3.6-.6.6-.9-1.8-.6-3.9-1.2-5.7-2.1-.6.3-1.2.6-1.8,1.2l-1.8,1.8c-.3.3-.6,0-.6-.3.6-1.2,1.8-2.4,3.3-3-1.8-.9-3.6-1.8-5.1-3-.6.3-1.2.3-1.8.9-.9.6-1.5,1.2-2.4,1.8-.3.3-.6,0-.6-.3.6-1.5,2.4-2.4,3.9-3-1.2-.9-2.7-1.8-3.9-3l-.3.3c-.3.3-.9,0-.6-.6,0,0,0-.3.3-.3q0-.3.3-.6c.9-1.8,1.8-3.6,3-5.4-3,1.2-6.3.3-8.7-1.8h0Z"/>
              </g>
            </g>
          </g>
          <g id="svga-group-eyes-right-move">
            <g id="svga-group-eyes-right">
              <g id="svga-group-eyesback-right">
                <path id="SvgjsPath4837" class="cls-25" d="M323.7,294.3s10.5,8.1,17.7,9.6,18.3,2.4,28.2-.3c9.6-3,14.7-8.4,14.7-8.4,0,0-4.2-7.8-10.2-10.8s-12.3-7.8-25.8-5.7-21.9,11.1-24.6,15.6h0Z"/>
              </g>
              <g id="svga-group-eyesiriswrapper-right">
                <g id="svga-group-eyesiriscontrol-right">
                  <g id="svga-group-eyesiris-right">
                    <path id="SvgjsPath5590" class="cls-24" d="M354,273.6c8.7,0,15.6,6.9,15.6,15.6s-6.9,15.6-15.6,15.6-15.6-6.9-15.6-15.6,6.9-15.6,15.6-15.6Z"/>
                    <path id="SvgjsPath5591" class="cls-13" d="M354.3,305.4c-9,0-16.2-7.2-16.2-16.2s6.9-16.2,15.9-16.2,16.2,7.2,16.2,16.2c.3,9-6.9,16.2-15.9,16.2ZM354,274.8c-8.1,0-14.7,6.6-14.7,14.7s6.6,14.7,14.7,14.7,14.7-6.6,14.7-14.7-6.6-15-14.7-14.7Z"/>
                    <path id="SvgjsPath5592" class="cls-5" d="M354,276c7.2,0,13.2,6,13.2,13.2s-6,13.2-13.2,13.2-13.2-6-13.2-13.2,6-13.2,13.2-13.2Z"/>
                    <path id="SvgjsPath5593" class="cls-22" d="M354,277.8c6.3,0,11.4,5.1,11.4,11.4s-5.1,11.4-11.4,11.4-11.4-5.1-11.4-11.4,5.1-11.4,11.4-11.4Z"/>
                    <path id="SvgjsPath5594" class="cls-13" d="M354,280.8c4.5,0,8.4,3.9,8.4,8.4s-3.9,8.4-8.4,8.4-8.4-3.9-8.4-8.4,3.9-8.4,8.4-8.4Z"/>
                    <path id="SvgjsPath5595" class="cls-25" d="M350.4,280.8c1.5,0,3,1.2,3,3s-1.2,3-3,3-3-1.2-3-3,1.2-3,3-3ZM360,294c.6,0,1.2.6,1.2,1.2s-.6,1.2-1.2,1.2-1.2-.6-1.2-1.2.6-1.2,1.2-1.2Z"/>
                  </g>
                </g>
              </g>
              <g id="svga-group-eyesfront-right">
                <path id="SvgjsPath4847" class="cls-16" d="M354.9,256.5c-18.3,0-33,16.8-33,37.5s14.7,37.5,33,37.5,33-16.8,33-37.5-15-37.5-33-37.5ZM369.6,303.6c-9.6,3-21,1.8-28.2.3s-17.7-9.6-17.7-9.6c2.7-4.5,10.8-13.2,24.6-15.3,13.5-2.1,20.1,2.7,25.8,5.7,6,3,10.2,10.8,10.2,10.8,0,0-5.1,5.1-14.7,8.1h0Z"/>
                <path id="SvgjsPath4850" class="cls-4" d="M327,289.8s8.1-10.5,23.4-11.7c15.3-1.5,28.2,8.4,33.9,17.1,0,0,6,1.5,9.9-2.1,0,0-6,.3-12.9-6.3-6.3-6.3-16.8-12-29.4-10.2-13.5,1.5-19.2,5.4-24.9,13.2Z"/>
                <path id="SvgjsPath4851" class="cls-13" d="M390.3,287.7c.3-.3,0-.6-.3-.6-3.6,2.1-6.6,2.1-9.9.6-1.2-1.5-2.7-2.7-4.2-3.9,3,0,6-1.2,7.8-3.6.3-.3-.3-.6-.3-.3-2.7,2.1-5.7,3.3-8.7,3-1.8-1.2-3.3-2.1-5.4-3,1.8-.9,3.3-2.4,3.9-4.5,0-.3-.3-.6-.6-.3-1.2,1.8-2.7,3.3-4.8,4.2-2.1-.9-4.2-1.5-6.3-1.8.3-.3.6-.3.6-.6.6-.9,1.5-2.1,1.5-3.3s-.6-.6-.9-.3c-.6.9-.6,1.8-1.2,2.7-.3.6-.6.9-1.2,1.2-14.4-2.1-30.3,4.5-37.8,18-.3.6.6,1.2.9.6,6.9-10.5,18.6-17.1,31.5-16.5,11.7.6,21.3,7.2,28.8,16.2-18.6,12.3-40.2,12-58.5-.6-.3-.3-.9.3-.3.6,9.3,8.4,21.6,12,33.3,11.4.3.3.6.9.6,1.2.3.6.3.9.6,1.5.3.3.6.3.6-.3,0-.9-.3-1.8-.9-2.7,2.4-.3,4.8-.6,7.2-1.2.3.3.9.6,1.2,1.2.3.6.6,1.2,1.2,1.8.3.3.6,0,.6-.3,0-.9-.6-1.5-.9-2.1-.3-.3-.6-.6-.6-.9,1.8-.6,3.9-1.2,5.7-2.1.6.3,1.2.6,1.8,1.2l1.8,1.8c.3.3.6,0,.6-.3-.6-1.2-1.8-2.4-3.3-3,1.8-.9,3.6-1.8,5.1-3,.6.3,1.2.3,1.8.9.9.6,1.5,1.2,2.4,1.8.3.3.6,0,.6-.3-.6-1.5-2.4-2.4-3.9-3,1.2-.9,2.7-1.8,3.9-3l.3.3c.3.3.9,0,.6-.6,0,0,0-.3-.3-.3q0-.3-.3-.6c-.9-1.8-1.8-3.6-3-5.4,3,1.2,6.3.3,8.7-1.8h0Z"/>
              </g>
            </g>
          </g>
          <g id="svga-group-eyebrows-left-move">
            <g id="svga-group-eyebrows-left-rotate">
              <g id="svga-group-eyebrows-left">
                <path id="SvgjsPath5851" class="cls-6" d="M230.1,255.9c2.7-.3,22.5,3.6,26.4,4.2,9.9,1.2,16.5-.9,17.4-2.4s3.3-3.6,1.5-6.9c-1.8-3.3-22.2-5.7-35.4-2.1-26.1,7.2-39.6,22.2-39.6,22.2,7.5-7.5,27-14.7,29.7-15h0Z"/>
                <path id="SvgjsPath5852" class="cls-8" d="M231.6,255.3c3.6,0,7.2-1.2,10.5-2.1.3,0,0-.6-.3-.6-3.3.9-6.9,1.2-10.2,2.1-.3.3-.3.6,0,.6ZM238.5,255.9c-.3,0-.3.6.3.6,3.9-.3,7.8-1.5,11.4-2.4,2.4-.6,4.5-1.5,5.7-3,.3-.3-.3-.6-.6-.3-3.6,3-11.7,3-16.8,5.1h0ZM249.9,257.7c6.9.9,15.3-2.1,18.9-6.6.3-.3-.3-.6-.6-.3-2.4,2.1-4.8,3.6-8.1,4.8s-6.6,1.2-9.9,1.8c-.6,0-.6.3-.3.3h0ZM259.5,258.3c5.4.6,13.2-3.3,13.2-7.5s-.9-.6-.9,0c-.3,2.1-3,3.9-5.1,4.8-2.4,1.2-4.8,1.2-7.2,2.1-.3.3-.3.6,0,.6h0ZM222.9,257.7c2.4-.9,4.8-2.4,7.2-3.6.3-.3,0-.6-.3-.3-2.4,1.2-5.4,2.1-6.9,3.9-.6,0-.3.3,0,0h0Z"/>
                <path id="SvgjsPath5853" class="cls-10" d="M199.8,271.8s.3.3.6,0c2.4-1.8,4.5-3.6,6.6-5.1,2.4-1.5,5.1-2.7,7.5-3.9,5.1-2.4,9.9-4.8,15.6-6.6,11.7.6,49.8,12.6,46.2-5.1v-.6c0-.3-.6-.3-.9,0v.3c-.3-.9-1.2-2.1-2.7-2.4q-.3,0-.3.3s.3,0,.3.3c-1.5-.9-3.9-1.5-5.4-1.2-11.7-3.3-27.9.6-38.4,3.9-12.3,4.2-23.1,10.8-29.4,19.5q0,.3.3.6h0ZM206.4,265.8c15.3-12.6,41.1-23.4,63.3-16.8.3,0,.6,0,.3-.3h.6c1.5.3,2.4.9,3,2.1.3.3.6,0,.6,0,0-.3,0-.6-.3-.9,0,0,.3,0,.3.3.6.6.9,1.2.6,2.1-.3.3-.6.3-.6.6,0,0,0,.3.3.3.6,0,1.2-.3,1.5-.6-1.2,15.3-35.7,1.8-46.5,3.6,0,0-.3,0-.3.3-6,.9-10.8,3.9-15.9,6.3-2.7.6-4.8,1.8-6.9,3h0Z"/>
              </g>
            </g>
          </g>
          <g id="svga-group-eyebrows-right-move">
            <g id="svga-group-eyebrows-right-rotate">
              <g id="svga-group-eyebrows-right">
                <path id="SvgjsPath5854" class="cls-6" d="M399.3,270.9s-13.2-15-39.6-22.2c-13.2-3.6-33.3-1.2-35.4,2.1-1.8,3.3.6,5.4,1.5,6.9s7.5,3.6,17.4,2.4c3.9-.6,23.7-4.5,26.4-4.2,3,.3,22.5,7.5,29.7,15Z"/>
                <path id="SvgjsPath5855" class="cls-8" d="M368.4,254.7c-3.3-.9-6.9-1.2-10.2-2.1-.3,0-.6.3-.3.6,3.3.9,6.9,2.1,10.5,2.1s.3-.3,0-.6ZM344.7,250.2c-.3-.3-.6,0-.6.3,1.2,1.8,3.3,2.4,5.7,3,3.6.9,7.5,2.1,11.4,2.4.3,0,.3-.3.3-.6-5.1-1.5-12.9-1.5-16.8-5.1h0ZM350.1,257.1c-3.3-.6-6.9-.9-9.9-1.8s-5.7-2.7-8.1-4.8c-.3-.3-.9,0-.6.3,3.6,4.5,11.7,7.5,18.9,6.6,0,.3,0,0-.3-.3h0ZM340.5,257.7c-2.4-.6-5.1-.9-7.2-2.1-2.4-1.2-4.8-2.7-5.1-4.8,0-.3-.9-.3-.9,0,.3,4.2,7.8,8.1,13.2,7.5.6,0,.3-.3,0-.6h0ZM377.4,257.7c-1.8-1.5-4.8-2.7-7.2-3.6-.3,0-.6.3-.3.3,2.4,1.2,4.8,2.7,7.5,3.3,0,.3.3,0,0,0Z"/>
                <path id="SvgjsPath5856" class="cls-10" d="M400.5,271.2c-6.3-8.7-17.4-15.6-29.4-19.5-10.5-3.6-26.7-7.2-38.4-3.9-1.5-.3-3.9.3-5.4,1.2,0,0,.3,0,.3-.3l-.3-.3c-1.2.3-2.4,1.2-2.7,2.4v-.3c0-.3-.6-.3-.9,0v.6c-3.3,17.7,34.5,5.7,46.2,5.1,5.7,1.5,10.5,3.9,15.6,6.6,2.7,1.2,5.4,2.4,7.5,3.9,2.4,1.8,4.2,3.6,6.6,5.1h.6q.3-.3.3-.6h0ZM386.7,262.2c-5.1-2.4-9.9-5.4-15.9-6.3l-.3-.3c-10.8-1.8-45,12-46.5-3.6.3.3.9.9,1.5.6.3,0,.3-.3.3-.3,0-.3-.3-.6-.6-.6-.3-.6,0-1.5.6-2.1,0,0,.3,0,.3-.3-.3.3-.3.6-.3.9s.6.3.6,0c.6-.9,1.5-1.8,3-2.1h.6c0,.3.3.3.3.3,22.2-6.3,47.7,4.5,63.3,16.8-2.1-.6-4.2-1.8-6.9-3h0Z"/>
              </g>
            </g>
          </g>
          <g id="svga-group-nose-single-move">
            <g id="svga-group-nose-single">
              <path id="SvgjsPath3990" class="cls-12" d="M314.8,328.7c-.4-.5-1.3.2-1,.8,2.5,3.9,5.3,7.7,7.6,11.7,1.6,2.7,3.2,6.1,2.1,9.4-1.8,5.4-6.5,5-10.3,3,1.4-1.8,2.2-4,2.1-6.4,0-.6-.9-1.1-1.3-.5-3.8,4.8-6.2,9.8-13.2,10-7.4.3-12.2-5.7-14.2-12.2-.2-.6-1-.4-1,.1-.2,3,.8,5.8,2.4,8.3-1.1.2-2.2.4-3.3.5-3.5.2-4,0-6.3-2.9-2.4-3-2.4-3.8-1.1-7.2.6-1.6,1.6-2.9,2.5-4.3,2.9-4.6,5.5-9.2,7.4-14.2,3.9-10.1,5.5-21.3,3.7-32,0-.5-.8-.3-.8.1,0,8.7-.6,17.2-3.1,25.6-2.6,8.6-7.6,15.1-11.8,22.9-2.2,4-3.1,9.4.6,12.8,3.7,3.5,9.3,2.3,13.6.7,2.5,2.8,6.1,4.7,9.8,5,4.2.4,9.7-1.7,13.1-5.1,3.9,4.3,11.5,2.3,13.4-3.2,3-8.5-6.2-16.9-10.8-22.7h0Z"/>
              <path id="SvgjsPath3991" class="cls-7" d="M306,336.4c-2.4-2.2-6.2-2.9-8.9-.8-1,.8-1.6,1.7-1.8,2.7-.5.2-.9.4-1.3.8-2,2-1.2,5.1.6,7,1.5,1.6,3.9,2.3,6.1,2.2,2.6-.2,5-1.4,6.5-3.6,1.7-2.6,1.2-6.3-1-8.4Z"/>
            </g>
          </g>
          <g id="svga-group-hair-front">
            <path id="SvgjsPath6545" class="cls-14" d="M487.8,172.2c-.6-8.4-3.9-17.1-9.6-23.1.6-9-2.7-18-9.3-24.9-1.2-1.2-2.7-2.4-3.9-3.3-2.7-5.4-7.2-10.2-12-13.8-8.4-19.5-25.8-36-45.6-27.3-11.7-7.5-30.6-6.9-35.4,7.2-12.6,4.2-22.5,16.5-21.9,29.1-15.9-7.2-36.9-4.5-51.6,4.5-12.9-8.4-30.3-10.8-46.5-7.8-.9-8.1-4.5-15.9-11.1-21.3-2.4-9-9-17.4-18.3-21-12.9-5.4-25.8-3-36.9,3.6-10.5,3.6-19.8,11.7-24,21.6-4.5,1.5-8.4,3.9-12,6.9-1.8,1.5-3.3,3.3-4.8,5.1h-.3c-12.9,7.2-21.9,21.6-19.2,36.9,0,.9.3,1.8.6,2.7-.3.6-.6,1.5-.9,2.1-9.6,9-16.8,20.1-14.4,33.9,1.2,8.1,6.3,15.3,13.5,18.3.6.9,1.5,1.8,2.1,2.7,3.3,3.3,7.8,5.1,12,4.8,3.6,4.2,8.7,7.2,14.7,8.1,3.3.6,6.6.3,9.6-.6-2.4,20.4,1.5,42.3,11.7,56.1.3.6.9.6,1.2.3,2.1,3.9,4.2,7.8,6.6,11.4-.3,2.7-1.2,5.7-2.4,9-.9,2.7-1.5,5.1-1.2,8.1.6,8.4,7.2,14.7,8.4,23.1,0,.6,1.2.6,1.2,0,1.8-10.5-6.6-19.2-3.6-29.7,1.2-4.2,2.4-8.1,2.4-11.7,1.2-6,0-13.2-1.8-19.8.9-.3,1.5-1.2,1.2-2.1-.3-.6-.3-1.5-.6-2.1.6.6,2.4.6,2.1-.6-.3-3-.9-5.7-1.5-8.7v-1.8c.3-.3.6-.9.6-1.5-.3-2.1-.6-4.2-1.2-6.3.3.3.9.3,1.5.3.3.3.3.6.6.9.6.9,1.8,0,1.5-.9s-.6-1.5-.9-2.4v-1.8c1.2.6,2.7-.3,2.4-1.8-.3-1.2-.6-2.4-1.2-3.6.9.6,2.1-.3,1.8-1.5l-.9-3.6c1.5.6,3.3-.6,2.7-2.4l-.9-2.7,1.2,1.2c.9.9,2.4-.6,2.1-1.5,0-.3-.3-.6-.3-1.2,2.1.9,4.2-1.8,3.3-3.9-.6-1.5-1.5-3.3-2.1-4.8.3.3.3.6.6.9.6.9,2.1.3,1.8-.6,0-.3-.3-.6-.3-.9.3.6.9.9,1.2,1.2,1.2,1.2,3.6,0,3.3-1.5,2.1,1.2,4.8-.9,3.6-3.6-.9-2.1-2.1-4.2-3-6.3l3.6,4.5c.3.6.9.6,1.2.6.3.3.6.6.9,1.2,1.2,1.2,3.6-.3,2.4-1.8-1.5-2.1-3-4.2-4.5-6.6-.3-.3-.3-.6-.6-.9.6.6.9,1.5,1.5,2.1s1.5.9,2.1.6c.9.3,2.4-.9,1.5-2.1-.3-.3-.3-.6-.6-1.2,1.5,1.2,3,2.1,4.5,3s3.9-.9,2.7-2.7c-.6-.6-1.2-1.5-1.5-2.1.6,0,1.2-.6,1.2-1.2.6.3,1.5.6,2.1.9,2.1.6,3.3-2.1,2.1-3.3-.9-.9-1.8-1.8-2.7-2.4,2.1.9,3.9,1.5,6,1.8,1.8.3,2.7-1.8,1.2-3-.3-.3-.6-.6-1.2-.9,1.2.3,2.4.6,3.3.9,2.1.3,3-2.1,1.2-3.3h.6c.6,0,.9,0,1.2-.3.6.6,1.2.9,1.8,1.5,2.1,1.8,5.4-1.2,3.3-3.3-.3,0-.3-.3-.6-.6.9.9,2.1,1.5,3,2.4,1.2.9,2.7-1.2,1.8-2.4l-1.8-1.8c1.5.3,3,.6,4.2.9h.6c-3.6,3-6.6,7.5-7.5,12-.3.9,1.2,1.5,1.5.6,2.4-4.8,5.4-9,10.2-11.7,2.7-1.5,5.4-2.1,7.8-2.4h1.5c-5.1,4.5-9,11.1-10.2,18-.9,5.7,0,11.1.9,16.5,0,10.2,1.5,21,.6,30,0,.6.9.6.9,0,2.1-6.6,2.4-13.2,2.4-20.1,1.5-6,.6-11.7.6-17.4.9-7.2,3-13.8,8.1-20.1,0,0,.3-.3.3-.6,3.9-3.6,8.4-5.1,13.2-5.7-1.8.9-3.3,2.1-4.5,3-5.4,4.8-8.7,12.6-9.6,20.1-2.4,10.8-2.1,22.5-3.3,32.7,0,.6.9.6.9,0,4.5-11.7,5.1-36,13.5-48,5.4-5.7,12.6-7.2,20.1-5.4h.9c.3,0,.6,0,.6.3h.6c.6.3.9.3,1.5.6.9,1.2,2.7,1.8,4.5.9.3.6.9.6,1.2.3,8.4-5.4,23.7-7.5,25.8,6,1.2,7.2-3.9,13.8-2.1,21.3.3.6,1.2.6,1.5,0,2.1-10.5,10.2-21.9.9-31.2h.3c1.5-.3,3-.6,4.8-.9-.6,1.5.9,3.6,2.7,3,3.3-.6,7.2-1.8,11.1-2.7l-2.7,1.8c-2.4,1.5-.9,6.3,2.1,5.1l10.8-4.5c-1.8,1.2-3.9,2.4-5.7,3.9-1.8,1.2-.3,3.6,1.8,3,1.2-.6,2.7-1.2,3.9-1.8.3.9,1.2,1.8,2.4,1.5.3,0,.6,0,.6-.3-.6,1.8.6,3.9,2.7,3,3-1.2,5.4-2.7,8.1-4.5-1.5,1.8-3.3,3.6-4.8,5.4-1.8,1.8.6,4.8,2.7,3.6h.3l-.6.6c-1.5,1.5.6,4.2,2.4,3,1.8-.9,3.6-2.1,5.1-3.3-.3.6-.9,1.2-1.2,1.8-1.2,1.8,1.2,3.3,3,2.1h.3c-.3,1.8,1.8,3.3,3.6,1.8,1.5-1.5,3.3-3,5.1-4.8-1.5,1.8-3.3,3.9-5.1,5.7s.6,4.5,2.4,3.3c2.4-1.5,4.8-3.6,7.2-5.7-1.8,3.3-3.6,6.3-5.1,9.6-.9,1.8,1.2,3.9,3,2.4s3.3-3.3,4.8-5.1c-1.5,2.4-3,4.5-3.9,6.9-.6,1.5.6,3,2.1,2.1.6-.3,1.2-.6,1.8-1.2.3,1.5,2.4,2.4,3.6.9,4.5-5.1,8.4-10.2,11.7-16.5.3-.6.6-.9.9-1.5-.9,2.1-1.8,4.5-2.7,6.6-3,6.3-7.2,12-11.7,17.4-1.2,1.5.3,4.5,2.4,3,2.7-2.1,5.4-4.5,7.8-7.5-2.7,5.1-6,9.6-9.6,13.8-1.5,1.8.9,4.2,2.7,2.7,3.6-3,6.9-6.6,9.3-10.5-2.1,5.4-4.5,10.5-7.2,15.9-.9,1.5,1.2,3.3,2.4,1.8,3.3-3.6,6.3-8.1,9-12.6-2.1,5.1-4.2,9.9-6.6,14.7-.6,1.2.6,2.7,1.8,2.4-.6.9-1.2,1.5-1.8,2.4-1.2,1.8,1.2,3.3,2.7,2.1,1.2-.9,2.7-2.4,3.9-3.6-1.5,3-2.7,6-3.6,9.3-.6,1.8,1.8,3,3,1.8.3-.3.3-.6.6-.6-1.2,2.4-2.1,4.8-3.3,7.2-.6,1.5.6,2.7,1.8,2.1-.3.9-.3,1.5-.6,2.4-.3.9-.9,1.8-1.2,2.7-.3.9-.3,2.1.6,2.7v.6c-1.5,6.6-1.8,13.5-.6,20.1,0,.3.3.6.3.6v1.8c-1.2,5.4-1.2,10.8-.3,16.5,1.8,10.8,6,18.6,3,30-2.1,7.8-4.2,12-1.2,19.8.3.6,1.2.6,1.2-.3-3.3-13.8,7.2-24.3,5.4-37.8-.9-6.9-3.9-13.5-3.6-20.7.3-5.4,1.8-10.2,3.6-15.3,3.6-3.9,6.3-10.2,7.5-15.9,6.3-12,11.4-25.5,12.6-38.7,5.1.9,10.8-.9,14.4-4.8,3.3-3,5.1-7.2,6-11.7,1.5-1.5,2.7-3.3,3.9-5.4,6.3,3,12.3-1.2,16.2-7.2,10.8-5.4,11.7-22.8,10.5-33.3h0ZM121.2,169.2c-1.2,4.8-1.8,9.3-1.5,13.8-1.5-5.1-.6-10.8,1.5-16.5v2.7ZM137.4,132c0-1.2.3-2.4.6-3.6v3c0,.3-.3.3-.6.6ZM147.6,114.9c0,.3-.3.3-.3.6.3-.6.6-1.5,1.2-2.1-.6.6-.9,1.2-.9,1.5h0ZM177.9,265.2c-.3-.9-.9-2.1-1.2-3,.6.9.9,1.8,1.2,3ZM179.7,255.6c.3.9.6,1.8,1.2,2.4.3,1.5.9,2.7,1.2,4.2-.9-2.1-1.8-4.5-2.4-6.6h0ZM186.6,91.2h-3.9.3c1.5-.3,3.3-.6,4.8-.6-.6,0-.9.3-1.2.6h0ZM198.3,81c-1.5-.3-3-.3-4.5-.3.9,0,1.8-.3,2.7-.3h1.8v.6ZM229.2,94.5c-.6,0-.9-.3-1.5-.3q0-.3-.3-.6s1.8.9,1.8.9ZM224.4,82.2c-.6,0-1.2-.3-1.8-.3-.6-.9-1.5-1.8-2.4-2.4,1.5.9,3,1.8,4.2,2.7ZM218.4,78.6c-.6,0-.9-.3-1.5-.3l-.3-.3c.6.3,1.2.3,1.8.6ZM246.3,179.1v-.6c.9.3,1.5-.3,1.5-.9q.3,0,.6.3c-.6.3-1.5.6-2.1,1.2ZM276.9,160.2c.6.3.9.6,1.5.6-.3,0-.9-.3-1.5-.6ZM290.1,130.2c-.3,0-.6-.3-.6-.3h.9s0,.3-.3.3h0ZM325.5,126.9s0-.3,0,0q0-.3,0,0c0-.3,0,0,0,0ZM368.1,95.7c-2.4.9-5.1,2.4-7.2,4.2,2.4-3.6,5.7-6.3,9.3-8.4-.9,1.2-1.5,2.7-2.1,4.2ZM375.6,94.2c.3-.6.6-.9.9-1.2-.3.3-.6.9-.9,1.2ZM392.4,84.3c-2.7-1.2-6-1.5-8.7-1.5s-1.2.3-2.1.3c3-1.8,6.6-2.4,10.2-1.8,1.5.3,3,.6,4.2,1.2-.9.3-2.4.9-3.6,1.8ZM406.5,100.8c-.9-.9-1.5-2.1-2.7-3v-.3s.3,0,.3.3c1.2.9,2.1,1.8,3,3-.3-.3-.6-.3-.6,0h0ZM411,281.4l-.3.3v-.6q.3,0,.3.3ZM420.6,94.2c-1.5-1.5-3.3-2.7-5.1-3.9,2.4,1.2,4.8,2.4,7.2,3.9h-2.1ZM429.3,88.5c-1.5-.9-3-1.8-4.8-2.7,3.9,1.5,7.5,4.2,10.8,7.2-1.8-1.8-3.9-3.3-6-4.5ZM437.1,228.6v-1.8c2.7,0,5.1-.3,7.5-1.2-2.1,2.1-4.8,3.3-7.5,3ZM462.9,180.6c-.9-4.2-1.8-8.7-3.3-13.2,0-.9-.3-1.5-.3-2.4,1.2,2.4,1.8,5.1,2.7,7.8,0,.9.6,4.2.9,7.8h0ZM467.7,134.7v-.3c.3.6.6.9.9,1.5-.3-.3-.6-.9-.9-1.2Z"/>
            <path id="SvgjsPath6546" class="cls-18" d="M455.4,212.4c-1.5,5.1-4.8,9.9-10.8,10.5-5.7.9-10.8-2.4-13.2-7.5v-4.2q0-.3-.3-.3c5.7,3.9,12.3,5.4,17.4-1.8.6-.9-.6-1.8-1.2-.9-12.3,11.7-28.2-13.8-32.7-21.9-6-10.5-9-21.9-7.8-34.2,0-.9-1.5-1.2-1.8-.3-.3,1.8-.6,3.6-.6,5.1-.6-3.6-1.2-7.5-1.2-11.1h2.7c.3,2.1,1.2,4.5,2.7,6.3,2.4,7.2,7.8,13.2,15,15.3,7.2,2.1,16.2-.9,16.2-9.6-.3-13.5-22.2-38.1-34.8-25.5,2.7-9.3,9.6-16.8,21.3-18.6,4.8,5.1,9,10.8,12.6,16.8,3.6,6.3,6.6,12.9,9,19.8,3.3,9.9,10.2,40.8-13.8,36.3-1.2-.3-1.8,1.5-.6,1.8,22.8,8.1,21.6-23.4,17.7-36.9-4.2-14.4-11.7-27.9-21.9-38.7.6-.6.6-1.5-.3-1.8h-1.2c-5.7-5.7-12.3-10.8-19.2-15-.6-.3-1.2.6-.6.9,5.7,4.2,10.8,8.4,15.6,13.2-18.3-1.2-29.7,13.8-29.7,29.4-5.7-2.7-11.1-6.6-14.7-12.6-6-9.3-10.5-30.9,5.7-33,.6,0,.6-.9,0-.9-14.7,1.2-15.9,17.4-11.7,28.5,3.6,10.2,11.4,18,21,21.6v.3c-21.6-.6-39.3-20.1-32.1-43.5.3-.9-1.2-1.2-1.5-.3-4.5,13.5-.9,26.7,7.2,35.7-6.9-5.4-12.3-12-15.3-21-.3-.9-1.8-.6-1.5.6s.6,2.1.9,3.3c-6.9-4.2-15.9-5.7-23.7-2.7-.9.3-.9,2.1.3,2.1,8.4-1.2,15.6-.9,23.4,3.3.3.3.6.3.9,0,.6,1.2.9,2.1,1.5,3.3-11.7-4.5-25.8-4.5-37.2.9-1.2.6-.3,2.4.9,2.1,12.6-3.3,23.4-4.2,36-.9.6,0,.9,0,.9-.3,2.1,3.6,4.8,7.2,7.8,9.9-2.1-.3-4.8-.9-6.6-.3-.9.3-.6,1.5,0,1.8,1.2.3,2.4.3,3.6.6h3.9c.3,0,.6-.3.6-.6,2.7,2.1,5.4,3.9,8.7,5.1.6,0,.9,0,.9-.3,1.2.9,2.7,1.5,3.9,2.4-7.2-1.2-15,.9-21.6,3.9-.6.3-.3,1.5.6,1.2,7.8-2.1,15.3-2.1,23.1-2.4.6,0,.9-.6.9-1.2,4.2,1.5,8.7,2.1,13.5,1.8,1.2,5.7,4.2,11.4,9.3,15.6,0,0,.3,0,.3.3.3.6.3,1.2.6,1.8v.3l-.3-.3c-3.9-1.2-7.2-1.8-10.5-4.2-3.6-2.4-6.3-6-7.8-10.2-.3-.9-1.5-.6-1.2.3.3.6.3,1.5.6,2.1-4.2-.6-9.3-.9-12.9,1.2-.9.6-.6,2.1.6,1.8,4.2-.3,8.4-1.2,12.6-1.2s.6,0,.6-.3c3,6.3,9.3,12.3,16.5,12.6-5.1,4.8-9.9,9.9-14.7,15-.6.6.3,1.5.9.9,5.4-4.8,10.2-9.9,15-15.3.3-.3.3-.6,0-.6h.3c.3,0,.6-.3.9-.6.6,4.2,1.5,8.1,3,12-2.4,7.5-6,13.8-10.5,20.1-.6.6.6,1.5,1.2.9,5.1-4.8,8.7-11.7,10.2-18.6.9,2.1,2.1,4.5,3.3,6.6-1.8,4.2-3.6,8.4-5.7,12.6-2.4,4.5-5.1,8.4-7.5,12.6-.6.9.9,2.1,1.8,1.2,6-6.3,10.8-15,13.2-23.7,1.2,1.8,2.1,3.3,3.3,5.1-3.6,7.5-7.2,15.3-9.9,23.4-.3.9,1.2,1.5,1.5.6,3.6-7.2,6.6-15,9.6-22.5.6.9,1.5,2.1,2.1,3-.6-.3-1.2-.3-1.2.6-1.2,9.3-4.5,17.1-8.4,25.2-.6,1.2.9,2.1,1.8.9,5.7-7.5,7.8-16.8,8.4-26.1v-.3c.3.3.6.6.9,1.2,1.8,2.1,3.9,4.8,6.6,6.9-.9,8.4-3,15.9-5.7,23.7-.3.9.9,1.5,1.5.6,3.6-7.2,6-15,6.3-22.8.3.3.6.6,1.2.9-.3,0-.9,0-.9.6-1.2,12.3-3.9,22.5-8.4,33.9-.3.9,1.2,1.8,1.8.6,4.8-8.1,7.2-18,7.8-27.3.3.6.6.9.9,1.5l-.3.3c-2.7,18.3-7.8,34.5-16.2,51-.6.9.9,1.8,1.5.9l5.4-9c-.6,1.5-1.2,3-1.5,4.5-.3.6.9,1.2,1.2.6,5.1-10.2,8.1-21.6,9.6-33,.9-4.8,1.2-9.3,1.5-14.1,3,3,6.9,4.8,11.4,4.2,6.3-.9,11.7-6.3,12-12.9-.6-1.5-2.1-1.5-2.4-.6h0ZM435.9,153.6c3.9,12.6-8.1,14.1-16.2,9.3-.6-.6-1.5-.9-2.1-1.5,6.6,3.6,16.2,1.8,16.8-6.9,0-.9-1.2-.9-1.5-.3-3,7.8-12,6.6-17.1,1.8-1.5-1.5-3.6-3.6-5.1-6.3-.3-.6-.3-1.2-.3-1.5,0-.6-.6-.9-.9-.9-.3-.3-.3-.9-.3-1.2.9-.3.9-1.8-.3-1.8h-.3c-.3-1.8,0-3.3.9-4.8.3-.6-.6-1.5-1.2-.9-.9,1.2-1.5,2.4-1.8,3.9-.9.3-1.8.6-2.7.6,0-2.4.3-4.5.9-6.9,12.3-12.3,27.6,5.4,31.2,17.4h0ZM398.1,130.2c3.6-8.4,10.5-13.5,18.6-15.9-5.4,3-9.6,7.5-12.6,13.2-2.4,4.8-3.6,9.9-3.6,15-1.5-.3-3-.9-4.2-1.5,0-3.6.3-7.2,1.8-10.8h0ZM396.9,146.7c1.2-.3,2.4-.6,3.6-.6.3,4.2,1.2,8.7,2.4,12.9-2.7-3.9-4.8-7.8-6-12.3ZM480.3,167.7c-.3-.9-1.8-.6-1.8.3.3,12.3,1.2,33.9-16.2,34.2,7.8-8.4,6.3-26.1,5.1-35.4-3.6-28.5-21.3-56.1-47.4-68.7-.9-.3-1.5.6-.6,1.2,16.8,10.5,30.3,24,38.4,42,4.5,9.9,7.2,20.7,7.8,31.5.3,3.6,0,6.9-.3,10.5-.3,3.3-.6,6.6-1.5,9.9-11.4,8.1-20.4,8.4-27.3.9-.9-.6-2.1.3-1.2,1.2,5.7,6.6,15.3,15,24.6,9,.3-.3.6-.3.9-.6l.3.3c20.1,2.4,21.9-22.5,19.2-36.3h0ZM400.5,100.2c-5.7,4.2-8.7,14.4-3,20.1.6.6,2.1,0,1.8-.9-1.2-3-2.4-5.4-2.1-8.4.3-3.6,1.8-6.9,4.2-9.3.6-.6,0-1.8-.9-1.5h0ZM375,95.7c1.8-11.1,11.7-17.1,22.8-14.4,8.7,2.4,14.7,9.3,19.8,16.5.6.9,2.4,0,1.8-.9-5.4-10.5-15.3-19.8-28.2-19.2-9.6.6-17.4,7.8-17.1,17.7,0,.9.9.9.9.3h0ZM385.8,100.8c-3.9,8.1-1.8,19.8,6.9,23.7.9.3,1.8-.6,1.2-1.5-6.3-5.4-9.6-13.2-6-21.3.6-.9-1.2-2.1-2.1-.9h0ZM423.3,209.4c-.3.6-.6.9-.9,1.5-.3.3,0,.6,0,.9-3.6,10.8-7.5,21-12.3,31.5-.6,1.5,1.2,2.4,2.1,1.2,6.9-9.6,11.7-22.5,13.5-34.5,0-1.2-2.1-1.8-2.4-.6h0ZM402,176.4c-3.3,5.1-7.2,9.6-11.4,14.1-.3.6.3,1.2.6.6,4.5-3.9,8.4-9.3,11.7-14.4.6-.6-.3-1.2-.9-.3h0ZM232.5,132.6c-5.1,4.2-10.8,7.5-17.1,10.2-.6.3,0,.9.3.9,6.9-2.4,13.5-5.7,18.9-10.5,4.5.6,9.6,1.5,13.8,1.2q.3,0,.3-.3c12.3,4.2,24.3,9,35.4,15.9.6.3.9-.6.6-.9-10.8-7.8-22.8-14.1-36-17.1h-.3c-.9-.3-2.1-.6-3-.6h-.3c-2.7-.3-5.4-.3-8.1-.3l1.8-1.8c-.3.6,0,1.5.6,1.2,6-.3,11.7,0,17.7.6,1.2,0,1.2-1.5.3-1.8-5.4-2.1-12.6-2.1-18.3-.3-.3,0-.3.3-.3.3.9-.9,1.8-1.8,2.7-3,0,.3.3.9.9.9,3,0,6,0,9.3.3,0,.3.3.3.6.3,13.5.6,25.5,4.2,36.6,12,.6.6,1.2-.6.6-1.2-6.6-5.1-14.4-9-22.5-11.1.3-.3.3-1.2-.3-1.2-7.8-2.4-15.9-2.4-24-1.5.9-.9,1.5-1.8,2.1-3,7.5-1.2,14.4-.6,21.9,0,.9,0,1.2-1.5.3-1.8-6.6-2.4-14.1-2.1-21-.3.9-1.5,1.8-2.7,2.7-4.2.3-.6-.6-1.5-1.2-.6-3.6,6-8.4,11.1-13.5,15.6h-.9c-.6.6-.9,1.5-.6,2.1h0ZM249.9,118.5c9.3,0,18,0,27.3,1.5.9,0,1.2-.9.3-1.5-2.7-1.2-5.7-1.8-8.7-2.4.9,0,1.8,0,2.7-.3.6,0,.6-.9,0-.9-5.7-.6-11.4-.6-17.1,0-.6,0-.6.9,0,1.2-1.5.3-3.3.6-4.8,1.2-.9,0-.6,1.2.3,1.2h0ZM346.5,130.8c2.7.9,6,.9,8.7,1.2.9,0,1.2-1.5.3-1.8-2.7-.6-6-1.5-8.7-1.2-.9.3-1.2,1.5-.3,1.8ZM271.2,122.7c7.2,1.5,14.4,3.6,21,6.6.6.3,1.2-.6.6-1.2-6.9-3.3-14.1-5.4-21.6-6.3-.3.3-.3.9,0,.9ZM117.6,185.4c-2.7-8.7-.3-20.4,8.7-24.6.6-.3.3-1.2-.6-1.2-9.6,2.7-12.9,14.4-11.4,23.4,1.5,9.6,8.4,16.8,17.4,19.5.6.3,1.2-.9.6-1.2-6.6-3-12.6-8.4-14.7-15.9ZM161.1,209.1c-5.7,2.1-12,2.1-17.1-1.8-.9-.6-2.1.6-1.2,1.2,5.1,4.5,12.9,5.7,18.6,1.5.6-.3.6-1.2-.3-.9ZM187.5,84.3c8.7,1.5,15.3,8.4,17.7,16.8.3.6.9.3.9,0-1.2-9.3-9-16.5-18.3-17.7-.6-.3-.9.6-.3.9h0ZM150.6,120.6c-6.9,10.5-1.5,27.9,12.9,27.3,1.2,0,1.8-2.1.3-2.4-4.8-1.5-9-3-12-7.5-3-5.1-2.7-11.4.3-16.2.9-1.5-.9-2.4-1.5-1.2h0ZM177.6,197.4c-3.3,12.6-2.4,25.2,3.3,36.9.3.6,1.2.3.9-.3-3.9-11.7-5.1-23.7-2.7-36.3.3-.9-1.2-1.5-1.5-.3h0ZM165.9,208.2c-.3,2.4-.6,4.8-.6,7.2-.3,0-.3.3-.3.6-1.5,15.3,2.4,31.2,12.9,42.9.6.9,2.1-.3,1.5-1.2-4.8-7.2-8.4-14.1-10.5-21.9,2.1,6,5.4,11.4,9.6,16.2.9.9,2.4-.3,1.5-1.2-8.7-13.2-13.5-26.1-12.6-42.3.3-.9-1.5-1.2-1.5-.3ZM163.8,227.1c0-.6-.9-.3-.9,0,.9,14.7,7.2,29.7,18.6,39,.6.6,1.5-.3.9-.9-9.6-11.1-16.5-22.8-18.6-38.1ZM189.6,183l3.6-5.4c.6-.9-.6-1.5-1.2-.6-.3.3-.3.6-.6.6.3-.6-.3-.9-.6-1.2.3-1.5.9-3,1.5-4.2.3-.6-.9-1.2-1.2-.6-1.2,2.1-2.1,4.5-2.7,6.9-2.1,3-4.2,6-6.6,8.7-6.3,5.1-13.5,8.1-21.9,8.4-15,.3-26.7-10.2-29.1-24.9,0-.9-1.5-.6-1.5.3.9,14.7,11.7,25.5,26.4,27.3,5.7.6,11.1-.3,16.2-2.1-4.2,2.7-9.3,4.8-14.7,5.7-18.3,2.4-34.8-12.3-29.1-31.2.3-.6-.6-.9-.9-.3-6.6,15.3,3.3,31.2,19.2,34.2,10.5,2.1,20.1-.9,27.9-6.6-.9,2.1-1.5,3.9-1.8,6v-1.2c0-.9-1.5-.9-1.5,0-1.2,15.9,2.1,32.1,11.1,45.3.6.6,1.5,0,1.2-.6-5.7-12.6-9.3-24.9-10.5-38.4.3,0,.6,0,.6-.3.9-4.5,1.8-8.7,3.6-12.9,1.5-1.2,2.7-2.4,4.2-3.9-2.4,9-2.1,19.2,1.5,27.6.6,1.2,2.1.3,2.1-.9-1.8-10.5-2.4-19.8-.3-30.3v-.3l2.7-2.7c-.6,7.2.9,14.4,5.1,20.4.6.9,2.1.3,1.8-.9-3.3-7.2-5.1-14.4-4.5-21.9h0ZM195.9,156.3s0-.3-.3-.3v-.3c6.6-5.4,11.7-11.7,15.6-18.9v1.5c0,.6.9.6.9,0,.3-1.2.3-2.7.3-3.9,8.1-17.1,8.1-37.5-1.2-55.2-.3-.6-1.8-.3-1.5.6,6.6,16.2,7.5,32.4,2.7,47.1-.9-10.8-5.4-21.3-12.6-29.4-7.2-7.8-18.3-13.8-27.3-5.4-.9.9.3,2.1,1.2,1.2,12.3-11.1,26.1,6.3,31.2,15.6,3.6,6.6,5.4,13.8,6,21.3-3,7.8-7.8,15.3-14.4,21.9.6-2.4.9-5.1,1.2-7.8,0-.9-1.5-1.2-1.5-.3-.9,6.3-3.3,11.7-6.6,16.5.3-1.8.6-3.6.9-5.1,5.7-9,7.8-20.4,3.6-30.6-.3-.6-1.5-.6-1.2.3,2.4,9.6,2.1,18.9-2.4,27.3,0-2.7-.3-5.1-.9-7.5,0-5.4-1.5-10.5-3.9-15.3,3.3-3,6-6.6,7.8-10.5.3-.6-.6-1.2-.9-.6-2.1,3.3-4.8,6.6-7.8,9.3-5.4-8.7-14.4-15.3-25.8-16.2-.6,0-.6.9,0,.9,11.1,2.7,19.2,9,23.7,17.1,0,0-.3.3-.6.3-6-7.2-15-12-24.6-12.6-.3-6,2.1-12,6.6-16.5s0-.6-.3-.3c-5.1,4.2-8.1,10.5-8.4,16.8-3.3,0-6.6.3-10.2,1.2-.6.3-.3.9.3.9,3.6-.6,6.9-.9,9.9-.6.3,4.8,2.7,9.6,7.2,12.9,6.6,4.8,13.2,4.2,18.6.9,2.4,3.3,4.5,7.2,5.7,11.1.3,5.4-.6,11.1-3,16.8-6,4.5-12.3,8.1-19.2,9.6-13.5-10.5-21.6-26.7-19.2-44.4,0-.9-1.8-1.2-1.8-.3-2.7,17.4,3.9,35.4,18.3,45-5.7.6-11.4-.6-17.4-4.2-16.5-10.2-16.5-31.2-5.4-45.3.6-.9-.3-2.1-1.2-1.2-10.5,9.3-13.2,23.4-8.7,35.4-.6-.3-1.5.3-.9.9,13.2,30,53.4,28.5,66,3,.3,1.8.9,3.6,1.2,5.4,0,0-.3,0-.3.3-3.3,10.5-2.4,22.2,4.2,31.2.6.9,1.8,0,1.2-.6-4.5-9.6-6.6-18.9-4.8-29.4,2.7,9.6,7.5,18.9,14.7,25.2.9.9,2.7-.3,2.1-1.5-7.2-10.2-13.5-20.1-16.8-33.3h0ZM165.3,130.8c-4.5-2.7-7.2-6.9-7.8-11.4,9,1.2,16.8,5.7,22.5,12-4.5,2.4-9.3,2.7-14.7-.6ZM183.3,131.7s.3,0,0,0c.3,0,.3.6.6.6l-.6-.6ZM188.4,156.6c-.3.3-.6.9-.9,1.2-.3.3.3.9.6.6,0,1.5-.3,3.3-.6,5.1-2.1,2.4-4.5,4.5-7.2,6.3,2.4-2.1,4.5-4.5,6-7.5.3-.3,0-.9,0-1.5.9-1.8,1.8-3.9,2.4-6-.3.9-.3,1.5-.3,1.8ZM199.8,160.8c2.1,6.9,5.1,15.3,10.5,20.4.9.9,2.4-.3,1.8-1.2-1.8-3-3.9-6-5.7-9-1.8-3.3-3.6-6.9-4.8-10.5-.6-1.2-2.1-.9-1.8.3h0ZM216.6,164.7c-3.6-3.9-6.9-8.1-11.1-11.1-.9-.6-2.1.6-1.5,1.5,2.4,4.2,6.3,7.8,9.3,11.4,3.6,3.9,6.9,8.4,11.1,11.7,1.2.9,3-.3,2.1-1.5-2.7-4.2-6.6-8.1-9.9-12h0ZM208.2,150.6q-.3,0,0,0c17.4-15.3,37.2-54.6,13.5-70.2-.6-.3-1.5.6-.9,1.2,21.9,20.1-1.5,56.1-18,70.5-.9.9.3,2.4,1.2,1.8l2.7-1.8c0,.3.3.6.6.6,7.8,4.8,14.1,11.1,20.4,17.7.6.9,2.1-.3,1.5-1.2-5.1-8.7-12.6-14.7-21-18.6ZM221.1,144c-.6,0-.6,1.2.3,1.2,8.7-.3,15.6,1.8,23.4,5.4,1.2.6,1.8-.9.9-1.5-6.9-5.4-16.5-6.6-24.6-5.1h0ZM255,145.5c7.5,3,14.4,6.6,21.3,11.1.3.3.6-.3.3-.6-6.6-5.1-13.8-8.7-21.6-11.4,0-.3-.3-.3-.3-.6-7.2-4.5-16.2-6-24.3-6.3-.9,0-1.2,1.5-.3,1.5,8.4,1.2,15.9,3.9,23.7,6.3.6.3.9,0,1.2,0h0ZM246.3,157.5c-8.7-7.2-20.1-10.5-31.2-10.5s-.9,1.5,0,1.5h.3c-.3.3-.3.9.3,1.2,7.8,3,15.9,6.6,24,9,.6.3,1.2-.9.6-1.2-7.5-3.3-15.6-6.3-23.4-9,12.3,1.2,22.5,6,32.4,13.2.3.3.6,0,.9,0,9.9,5.7,20.7,10.5,31.5,14.1.6.3,1.2-.9.6-1.2-12.9-5.4-24.6-10.8-36-17.1h0ZM228,156.3c-.9-.3-1.5.6-.6,1.2,9.9,6.6,20.7,12,31.5,17.4s1.2-.6.6-.9c-10.5-6-20.7-12.6-31.5-17.7ZM230.1,165c-.9-.3-1.8.6-.9,1.2,4.8,4.5,11.1,7.5,16.5,11.1.6.3,1.2-.6.6-1.2-5.1-3.6-10.2-8.1-16.2-11.1h0ZM354,152.7c-17.1,3.3-37.8,11.1-51.3,22.5-.6.3,0,.9.6.6,8.4-3.6,16.2-9,24.9-12.6,8.4-3.6,17.4-6.3,26.4-9,.9-.3.3-1.8-.6-1.5h0ZM303.6,163.8c13.8-6.9,27-10.8,42-12.9.6,0,.6-1.2-.3-1.2-15,0-30.3,4.8-42.6,13.2-.3.3.3,1.5.9.9h0ZM303.9,155.7c11.7-5.7,23.4-8.7,36-10.8.6,0,.6-1.2-.3-1.2-12.9,0-25.5,4.5-36.6,11.1-.3.3.3,1.2.9.9h0ZM306.3,143.7c11.4-3.9,22.8-6.3,34.2-9,.6,0,.6-1.2-.3-1.2-11.7,1.5-23.4,5.1-34.2,9.6-.3.3,0,.6.3.6ZM371.1,160.8c-12.6,5.7-25.2,11.7-38.1,16.5-.6.3-.6,1.5.3,1.2,13.5-3.9,26.7-9.3,38.7-16.5.6-.6-.3-1.8-.9-1.2ZM378.3,165.6c-8.7,4.5-17.4,9.9-26.4,14.4-.9.3,0,1.5.6,1.2,9.3-3.9,18.3-8.1,26.1-14.4,1.2-.6.6-1.5-.3-1.2h0ZM381.3,175.5c-5.4,3.6-10.8,7.5-16.2,11.1-.9.6,0,2.4.9,1.5,5.4-3.9,10.8-7.8,15.9-12,.6,0,0-.9-.6-.6h0ZM284.1,161.1c-.6-.3-1.2.9-.6,1.2,3.3,2.7,7.5,5.4,11.4,7.5,1.5.6,2.4-1.2,1.2-2.1-3.9-2.7-7.8-5.1-12-6.6h0ZM287.4,171c-.6-.3-.9.6-.3.9,2.1,1.5,5.1,2.7,7.2,4.2.6.3,1.2-.6.6-.9-2.1-1.8-4.8-3.3-7.5-4.2ZM288.6,155.4c-.6,0-1.2.6-.6,1.2,2.1,2.4,5.4,3.6,8.1,5.1.9.6,1.5-.9.9-1.2-2.7-1.8-5.4-4.2-8.4-5.1ZM291.3,154.8c1.2.9,2.7,1.5,3.9,2.1s2.1-1.2.9-1.8c-1.5-.6-2.7-1.5-4.2-1.5s-1.2.6-.6,1.2h0ZM295.2,148.5c.6.6,1.8-.3,1.2-.9-.6-.9-1.2-1.8-1.8-2.4-.6-.3-1.5,0-1.2.6.6,1.2,1.2,1.8,1.8,2.7h0ZM295.2,141.3c-.6-.6-1.2.3-.9.9.6.6.9,1.2,1.5,1.8.6.6,1.8-.3,1.2-1.2-.6-.3-1.2-.9-1.8-1.5h0ZM295.5,135.9l-.9-.9c-.3-.3-.9,0-.6.3,0,.6,0,.9.3,1.5,0,1.2,2.4.3,1.2-.9Z"/>
            <path id="SvgjsPath6547" class="cls-21" d="M180.3,153.6c.3-.6-.6-1.5-.9-.9-6.6,7.2-16.5,11.1-26.1,7.8-10.8-3.6-15.9-16.2-13.5-26.7.3-1.2-1.5-1.5-1.8-.6-7.5,25.8,27.6,43.8,42.3,20.4h0ZM172.5,177.9c.6-.6-.3-1.8-.9-1.2-10.5,6.9-27.9.9-33.3-10.2-.3-.6-1.5-.3-1.2.6,4.5,11.7,25.2,20.7,35.4,10.8h0ZM177.3,177.6c.6-.6-.3-1.8-.9-1.2-8.7,5.4-18,10.8-27.9,4.8-.6-.3-1.2.6-.6,1.2,9.6,6.6,21.6,2.7,29.4-4.8ZM177.3,183.3c.3-.6-.6-1.5-1.2-.9-4.5,5.4-10.2,8.7-17.4,6.6-.9-.3-1.2.9-.3,1.2,6.9,2.1,15.9-.3,18.9-6.9h0ZM170.4,111.3c10.2-4.5,18.6,3.6,21,12.9,1.8,6.3,2.7,17.4-2.1,22.5-.6.6.3,1.8.9,1.2,3.9-2.4,5.1-7.8,5.1-13.5,7.2-12.3-2.7-24-12.6-30.9-.6-.6-1.5.6-.6,1.2,8.7,6.6,16.2,15.9,12.9,26.7-.3-4.8-1.8-9.6-3-12.6-3.9-9-13.5-14.1-22.5-9.3-.6.9,0,2.1.9,1.8h0ZM179.1,99c21,6.3,29.1,26.7,21.9,46.5-.3.9.9,1.5,1.5.6,10.2-20.1-2.1-42.9-23.1-48.3-.9-.3-1.2.9-.3,1.2ZM200.7,78.9c10.2,4.2,11.7,15,12.6,24.9,0,.9,1.2.9,1.5,0,.9-10.8-2.7-22.8-13.8-26.4-.9-.3-1.2,1.2-.3,1.5ZM180,82.2c7.5-3.3,12.9,2.4,18,6.6.6.6,1.8,0,1.2-.9-4.5-6.3-12.6-10.8-20.1-6.9-.6.3,0,1.5.9,1.2ZM229.5,78.9c-.3-.6-.9,0-.6.3,14.7,25.5,5.4,54.6-19.8,68.4-.6.3,0,.9.6.9,27-12.3,35.4-44.1,19.8-69.6h0ZM233.4,127.2c-.3.6.6,1.2.9.6,5.7-5.7,10.8-13.2,9.3-21.6,0-.6-.9-.6-.9,0,.6,8.7-4.5,14.7-9.3,21ZM165.9,141.3c.6,0,.9-.6.3-.9-6.6-3.3-14.4-9-11.7-17.4.3-.9-.9-1.2-1.2-.3-3,8.7,3.9,16.8,12.6,18.6h0ZM162.6,195.9c-13.5,1.5-32.7-2.1-32.4-19.5,0-.6-.9-.6-.9,0-1.2,18.6,18.9,24,33.6,20.7.6-.3.6-1.2-.3-1.2h0ZM206.7,159.3c-.6-.6-1.5,0-1.2.6,4.2,7.5,8.7,15.6,15.3,21.3.6.6,1.5,0,.9-.9-4.8-6.9-10.5-13.5-15-21ZM207.9,168.6c-.3-.6-1.5,0-.9.6,3.9,6.3,7.5,12.6,12,18.3.3.6,1.2,0,.9-.6-3.6-6.3-7.8-12.3-12-18.3ZM199.5,177.9c-.6-.6-1.5,0-.9.6,3.6,6,6.6,12.9,11.1,18.3.6.6,1.5-.3,1.2-.9-3-6.3-7.5-12.3-11.4-18h0ZM190.8,188.4c1.5,6.3,3.9,13.2,7.8,18.3.6.6,1.8.3,1.5-.6-2.4-6-5.7-11.7-8.1-18-.3-.6-1.2-.3-1.2.3h0ZM189.6,194.7c1.5,5.4,3.3,11.1,6.3,15.6.3.6,1.5.3,1.2-.6-1.8-5.4-4.5-10.2-6.3-15.6-.3-.6-1.5,0-1.2.6ZM185.1,203.4c.9,7.2,1.8,15.3,4.8,21.9.3.6,1.5.3,1.2-.6-1.5-7.2-3.9-14.1-5.1-21.6,0-.6-1.2-.3-.9.3h0ZM180.6,212.1c1.2,5.7,2.4,11.7,5.4,16.5.3.6,1.5.3,1.5-.6-1.8-5.4-4.2-10.8-5.7-16.2-.3-.9-1.2-.6-1.2.3h0ZM178.8,224.1c0-.6-1.2-.3-1.2.3.6,4.8,1.8,10.5,4.8,14.4.3.6.9,0,.9-.6-.6-2.4-2.1-4.5-2.7-6.9l-1.8-7.2h0ZM176.4,239.7c-.3-.6-1.2-.3-.9.3.9,3.3,2.4,6.9,5.1,9.6.3.3.9,0,.6-.6-1.8-3.3-3.6-6-4.8-9.3h0ZM253.2,157.5c-.9-.3-1.2.9-.3,1.2,9.3,3.6,18.3,8.7,27.6,12,.6.3.9-.6.6-1.2-8.1-5.4-18.6-8.7-27.9-12h0ZM265.2,154.8c-.6-.3-1.5.6-.6,1.2,3.9,2.1,8.1,4.5,12,6.9-6.6-3.6-14.1-6.3-21.3-9.3-.6-.3-1.2.9-.6,1.5,7.5,3.3,15,7.5,22.8,9.9.6.3,1.2-.6.6-1.2,2.1,1.2,4.5,2.4,6.6,3.3.6.3,1.8-.6.9-1.2-5.7-5.1-13.2-8.1-20.4-11.1h0ZM264,143.7c-.9-.3-1.8.9-.9,1.5,8.4,3.9,16.2,9,24.3,13.5.6.3,1.2-.6.6-.9-6.9-6-15.3-10.2-24-14.1h0ZM271.5,141c-.6-.3-1.2.6-.6.9,6,3.6,12,7.5,18.3,10.5.6.3.9-.3.3-.6-5.7-4.2-12-7.2-18-10.8ZM276.9,141.3c3.9,1.8,7.5,4.2,11.1,6.6.3.3.6-.3.3-.6-3.3-3-7.2-5.1-11.1-6.9-.6,0-.9.6-.3.9ZM288.6,139.8c-4.8-3-10.2-5.1-15.6-6.9-.6-.3-.9.9-.3.9,5.4,2.1,10.2,4.5,15.6,6.6.6.6.9-.3.3-.6ZM276.3,127.2c-.6,0-.9.6-.3.9,5.4,1.5,9.6,4.5,14.4,7.2.6.3,1.2-.6.9-.9-4.2-3.9-9.9-6-15-7.2h0ZM287.4,128.4c.3,0,.6-.3.3-.6-2.7-1.5-6-2.7-9-3.6-.6,0-.6.6-.3.6,3.3,1.2,6,2.7,9,3.6ZM270.6,117.9c-.9,0-1.2.9-.3,1.2,7.8,1.5,15,4.2,22.2,7.2.6.3.9-.3.3-.6-6.9-4.2-14.4-6.3-22.2-7.8h0ZM279.6,119.1c2.1.6,3.9,1.2,5.7,2.1s.9-.6.6-.9c-1.8-1.2-3.6-1.8-5.7-2.4-1.2-.3-1.5.9-.6,1.2h0ZM263.4,171.6c-6.6-3.3-13.5-6.3-20.1-9.6-.9-.6-1.8.9-.9,1.5,6.6,3.6,13.5,6.9,20.7,9.3.6,0,.9-.9.3-1.2h0ZM225,157.8c-.6-.3-1.2.6-.6.9,5.1,4.5,10.8,8.4,17.1,11.1.9.3,1.5-.6.6-1.2-6-3.6-11.7-6.9-17.1-10.8ZM273.6,178.5c-7.5-1.2-15.9,1.5-20.4,7.8-6.9,9.3-.3,18.6-.3,28.5s.9.6.9,0c.9-6.9-2.7-13.2-1.8-20.1,1.5-11.4,11.7-14.4,21.3-15.3.6.3.9-.9.3-.9h0ZM335.7,152.4c-13.8,4.5-27.9,11.7-37.2,23.1-.3.6.3,1.2.6.6,10.8-10.8,24-15.6,37.2-22.5.9-.3.3-1.5-.6-1.2ZM302.7,160.2c6.9-5.1,15-7.2,22.8-10.5.9-.3.6-1.5-.3-1.5-8.4,1.8-16.8,5.1-23.1,11.1-.6.6,0,1.2.6.9ZM328.2,138.6c-7.8,1.8-15.3,5.4-22.2,9-.6.3,0,.9.6.6,7.2-3.3,14.7-5.7,21.9-8.7.6,0,.3-.9-.3-.9ZM328.8,134.1c-9,.9-17.7,4.8-25.2,10.5-.3.3,0,.9.3.6,7.8-4.8,15.9-7.8,24.9-9.9.6-.3.6-1.2,0-1.2ZM304.8,138c7.2-3.9,14.7-6.3,22.2-8.7.6-.3.6-1.2-.3-1.2-7.8,1.5-15.6,5.1-22.2,9.3-.3.3,0,.6.3.6h0ZM322.5,124.8c-7.8,1.8-14.7,5.4-21,10.2-.3.3,0,.9.3.6,6.6-4.2,13.5-7.2,20.7-9.6.9-.6.6-1.5,0-1.2ZM301.2,130.5c8.7-4.8,17.7-7.5,27.3-9.9.3,0,.3-.9,0-.9-9.6.6-19.2,5.1-27.3,10.5-.6,0-.3.3,0,.3ZM302.7,123.6c8.4-3.6,17.1-5.1,26.1-6,.6,0,.6-.9,0-.9-9.3,0-18.3,2.4-26.4,6.3-.3.3,0,.6.3.6h0ZM363.9,155.4c-16.8,3.9-33.6,9.9-49.5,16.2-.6.3-.3,1.2.3,1.2,16.8-4.2,33.9-8.7,49.8-15,1.5-.6.9-2.7-.6-2.4h0ZM371.4,156.3c-15.3,6.6-30,12.3-46.2,16.5-.6.3-.6,1.2.3,1.2,16.2-1.8,33.3-7.2,47.1-16.2.6-.6-.3-1.8-1.2-1.5h0ZM381.9,161.7c-11.1,6.3-21.9,11.7-34.5,14.4-.9.3-.6,1.8.6,1.5,12.6-2.1,24.9-6.6,34.8-14.7.6-.6,0-1.5-.9-1.2h0ZM383.4,169.5c-7.5,4.2-14.1,8.4-22.2,11.4-.9.3-.6,1.8.3,1.5,8.1-2.4,16.5-5.7,22.8-11.4.6-.9-.3-2.1-.9-1.5h0ZM388.8,177.3c.6-.6-.3-1.5-.9-1.2-3,1.5-5.4,3.9-8.1,6-2.7,2.1-5.4,3.9-8.4,5.7-.6.6,0,1.5.6,1.2,5.7-3,12.3-6.6,16.8-11.7ZM400.2,177c.6-.6-.3-1.5-.9-.9-7.2,6-14.1,11.7-22.2,15.9-.9.6,0,2.1.9,1.5,8.4-3.9,16.5-9.3,22.2-16.5ZM402.9,186.9c.3-.6-.3-1.5-1.2-.9-5.1,3.6-9.6,8.4-14.7,12.3-.9.6,0,2.1.9,1.5,5.4-3.9,11.4-7.8,15-12.9h0ZM405.3,193.8c.6-.6-.6-1.2-1.2-.9-5.4,4.2-9.9,9.9-14.7,15-.6.6.3,1.5.9.9,5.1-4.8,10.8-9.6,15-15h0ZM407.1,199.8c.3-.6-.3-1.5-.9-.9-4.5,3.3-8.4,8.1-12.3,12.3-.9.9.6,2.1,1.2,1.2,3.9-3.9,8.7-7.8,12-12.6h0ZM408.6,206.4c.3-.6-.6-1.2-.9-.6-3.3,2.7-6,6.9-8.4,10.2-.3.6.6,1.2,1.2.6,1.5-1.8,3-3.9,4.5-5.7.9-1.5,2.4-3,3.6-4.5h0ZM409.5,224.7c-1.2.9-2.1,2.4-3,3.6s-1.8,2.4-3,3.6c-.6.9.6,2.1,1.2,1.2.9-1.2,2.1-2.7,3-3.9s2.1-2.4,2.7-3.6c.3-.9-.3-1.5-.9-.9h0ZM414.3,230.7c-1.5,2.7-3,5.7-4.8,8.1-.9,1.2,1.2,2.1,1.8.9,1.8-2.7,3.3-5.7,4.2-8.7,0-.6-.9-.9-1.2-.3ZM384.6,128.4c.3-.3.3-.6.3-1.2-6-10.8-9.3-21.9-.6-32.4.9-.9-.6-2.4-1.5-1.5-5.4,5.1-7.5,12.3-6.6,18.9-.9-3.3-1.2-6.9,0-11.1.3-.6-.9-.9-.9-.3-3.6,10.2.9,20.7,8.4,27.9.3,1.2,1.5.3.9-.3h0ZM381.6,134.1c.6.3,1.2-.6.6-1.2-3.3-3.6-6.9-6.6-9.3-11.4-2.7-5.4-4.2-11.4-4.2-17.4s-1.2-.9-1.2,0c-.6,9.9,3,26.4,14.1,30h0ZM381,136.2c.9,0,.9-.9.3-1.2-10.2-4.2-18-19.5-15.6-30.3.3-.9-.9-1.2-1.2-.3-3,10.5,3.6,31.8,16.5,31.8h0ZM364.8,131.7c.6.3,1.2-.6.6-.9-3.6-4.2-6.9-8.1-9.3-13.2-.3-.9-1.8,0-1.5.9,2.4,4.8,5.7,10.2,10.2,13.2ZM423.9,167.1c.9.6,1.8-.6,1.2-1.5-9.9-9-14.4-20.4-9.6-33.6.3-1.2-1.5-1.8-1.8-.6-4.8,12.6-1.8,27.9,10.2,35.7h0ZM436.8,201c-16.5-2.7-27-16.8-23.4-33.6.3-.9-1.2-1.2-1.5-.3-3.6,16.2,5.7,36.3,24.6,35.7.9,0,1.2-1.8.3-1.8ZM442.2,196.2c-11.4,3.6-22.8-14.4-21.9-24.3,0-.6-1.2-.9-1.2-.3-1.2,7.8,2.7,14.4,7.2,20.4,3.9,4.8,10.5,10.5,16.5,6,1.2-.6.6-2.1-.6-1.8h0ZM434.4,129.6c-1.2-1.2-2.1-2.1-3.6-3-.9-.6-1.8.9-1.2,1.5,14.1,11.1,20.7,42,7.8,55.5-.6-.6-1.2-.9-1.8-1.5-2.7-2.7-4.8-6-6.3-9.6-.6-1.2-2.4-.6-1.8.6,2.4,6.6,8.1,14.7,15.3,16.8.9.3,1.8-.9.9-1.5-1.5-1.2-3.3-2.4-4.8-3.6,8.7-6.6,9.6-17.1,7.5-27.3-1.2-5.7-2.7-12-5.4-17.7.3,0,.3-.3.3-.6-1.2-3.6-3.3-6.6-5.7-9.3-.6-.6-.9-.6-1.2-.3h0ZM419.4,88.5c14.7,4.8,20.4,26.7,6.3,35.4-.6.3-.3,1.5.6,1.2,18.6-6,8.1-33.6-6.6-37.5-.6-.3-.9.6-.3.9ZM404.4,116.1c.9.6,2.1-.6,1.5-1.5-1.5-2.1-3.3-3.9-4.5-6.6-.9-2.7-1.2-5.7-.6-8.4.3-1.5-2.1-2.1-2.4-.6-.9,6,.6,13.8,6,17.1ZM464.1,143.7c-.6-.3-1.2-.9-1.8-1.2-1.8-9.9-9-19.2-15.6-26.4-.6-.9-1.8.3-1.2,1.2,3.6,4.5,6.6,9.3,9.3,14.1,1.8,3.3,3,6.6,4.5,9.9-.3,0-.6-.3-1.2-.3-.9-.3-1.5,1.2-.6,1.5,1.2.6,2.1,1.2,3,1.8.3.3.3.9.6,1.2.3.6.9.3,1.2,0,16.8,12.3,11.4,41.1-5.4,52.2-.9.6-.3,2.1.9,1.5,18.6-8.1,23.7-40.2,8.4-53.4v-.6c-2.4-16.2-9.6-33-23.4-42.3-.9-.6-1.5.9-.9,1.5,14.1,9.9,17.4,24.6,22.2,39.3ZM444,195c6.9,1.2,11.7-4.2,14.4-9.9,3.6-8.1,3-16.8-.3-24.9-.6-1.2-2.7-.3-2.1.9,4.2,10.5,2.7,30.6-11.7,32.1-.9,0-1.2,1.8-.3,1.8ZM451.5,217.5c-3,2.1-6.6,3-9.9.6-.6-.6-1.5.3-.9.9,3.3,2.7,8.7,3,11.4-.6.6-.6,0-1.2-.6-.9ZM456.6,208.2c-2.1,1.5-3.9,3.3-6.6,4.2s-5.7,1.2-8.4.3c-1.2-.3-1.8,1.5-.6,1.8,5.4,2.1,14.4,1.2,17.1-4.8.6-.9-.6-2.4-1.5-1.5ZM477,189.6c-1.2,2.7-2.1,5.4-3.9,7.8-1.8,2.7-5.1,6.3-8.7,5.1-1.2-.3-1.8,1.5-.9,1.8,7.8,3.3,15-7.8,15.3-14.4.3-.9-1.2-1.2-1.8-.3ZM457.5,157.8c.9-12-3.3-24-10.2-33.9-.9-1.2-2.7,0-1.8,1.2,6.6,10.2,9.3,20.7,10.8,32.7-.3.9,1.2.9,1.2,0Z"/>
          </g>
        </g>
      </g>
    </g>
    <rect id="svga-credit-rect" class="cls-3" y="555" width="600" height="45"/>
    <g id="svga-credit-text" class="cls-27">
      <text class="cls-26" transform="translate(100.2 586.8)"><tspan x="0" y="0">Created on AvatarMaker.com</tspan></text>
    </g>
  </g>
</svg>