<svg xmlns="http://www.w3.org/2000/svg" version="1.1" width="600px" height="600px" viewBox="0 0 200 200" style="overflow:hidden!important;"><defs id="SvgjsDefs2848"></defs><g id="svga-group-wrapper"><g id="svga-group-backs-single"><path id="SvgjsPath8308" d="M0 0h200v200H0V0z" fill="#f5f7ff" stroke-width="none" opacity="1" stroke="none"></path><path id="SvgjsPath8309" d="M0 0h18.2v200H0V0zm36.4 0h18.2v200H36.4V0zm36.3 0h18.2v200H72.7V0zm36.4 0h18.2v200h-18.2V0zm36.3 0h18.2v200h-18.2V0zm36.4 0H200v200h-18.2V0z" fill="#ced5f0" stroke-width="none" opacity="1" stroke="none"></path></g><g id="svga-group-humanwrap-move" transform="matrix(1,0,0,1,0,0)"><g id="svga-group-humanwrap" transform="matrix(1,0,0,1,0,0)"><g id="svga-group-hair-back-move" transform="matrix(1,0,0,1,0,0)"><g id="svga-group-hair-back" transform="matrix(1,0,0,1,0,0)"><path id="SvgjsPath7628" d="M104.4 32.9S87 15.4 57 33.5s-24.1 62-14.9 79.8 6.2 36.5-6 35.2c0 0 1.3 8.4 15.7 8.7 0 0 6 4.3 15.7 1.4 0 0 1.6 4.3 12.2 1.4s40.6-1.1 40.6-1.1 7 3.8 14.1.8c0 0 11.1 2.7 16-2.2 0 0 11.9 3 16.2-6 0 0-11.6-.3-11.9-10.8s2.2-15.2 8.4-27.9 5.7-40.9-4.6-57.7-28.4-23.8-38.2-24.4-15.9 2.2-15.9 2.2z" fill="#221b23" stroke-width="none" opacity="1" stroke="none"></path><path id="SvgjsPath7629" d="M106.2 35.4s13.8-7.5 35.1 5.4 24.3 44.8 22.7 58.5-15.4 28-13.8 39.4c1.6 11.3 8.6 14 12.9 14 0 0-9.4 4.3-13.8-4.3s-4.1-14.3 2.2-24.8 12.4-22.9 10.5-35.1-7.6-33.7-20.5-43.4c-12.9-9.7-24.2-11-35.3-9.7zm1.1 2.6s21.9-1.1 34.9 13.1c10.6 11.6 14.6 21.5 14.4 42.4-.2 15.3-10.5 29.3-13.5 37.4S140.5 152 148 156c0 0-8.1.2-10.7-11.4s8.4-25.3 11.9-30.4c3.5-5.1 5.2-22.5 3.1-34.2-2.5-13.7-5.9-22.3-20.5-32.1S107.3 38 107.3 38zm-4.8-3.6s-8.1-4-26.3-2.3C58 33.9 42.8 51.3 42.1 71.8s4.3 38.4 11.9 52.5-1 28.8-11.1 28.5c0 0 13.6-8.1 9.6-23s-10.4-18.9-12.4-45.2S44.6 48 53 40.6s24.7-16 49.5-6.2zm-1.3 3.3S80 30.9 63.3 48.3s-18.9 42.4-12.4 56.1 15.9 30.6 14.9 39.9-12.4 12.1-12.4 12.1 10.4-7.6 7.8-21-11.9-25.3-14.9-36.9c-3-11.6-3-25 4-39.7s23.4-30.7 50.9-21.1z" fill="#2a232b" stroke-width="none" opacity="1" stroke="none"></path><path id="SvgjsPath7630" d="M80.8 42.8s-22.6 3-27.4 30.2 4.8 42.1 9.1 49.2c4.3 7.1 9.1 14.4 8.9 22.1S68.1 157 68.1 157s5.8-4.6 6.3-12.4-3.8-18-5.6-22.6c-1.8-4.6-10.1-49.2-3.6-61.3s11-15.7 15.6-17.9zm36.1 2s12 3.8 19.1 12.2 12.4 24.6 9.1 38.8-15.5 37.8-15.7 44.6c-.2 6.8 1.6 13.2 5 19.4 0 0-9.3-4.9-8.8-18.1.5-13.2 7.1-27.6 9.9-36.5 0 0 4.7-23.7-2.3-37.8-7-14.1-17.1-22.8-17.1-22.8l.8.2zM73.9 158s4.4-7.7 3.4-23.1c0 0 3.3 4.3 3.9 13.2.7 8.9-7.3 9.9-7.3 9.9zm50.5-21.6s-2.6 12.2 1.6 22c0 0-5.8-2.6-6.7-10.6-.8-7.9 5.1-11.4 5.1-11.4z" fill="#1b141c" stroke-width="none" opacity="1" stroke="none"></path></g></g><g id="svga-group-humanbody-back"><path id="SvgjsPath3152" d="m168.5 219.5-1.7-21.5s.7-9-8.8-15.3-23.4-10.1-29.5-14.2c-6.1-4.1-9.2-4.5-9-16.9s.9-40.3.9-40.3H79.6s.7 27.9.9 40.3c.2 12.4-2.9 12.8-9 16.9-6.1 4.1-20 7.9-29.5 14.2S33.2 198 33.2 198l-1.6 21.5h136.9z" fill="#eabfad" stroke-width="none" opacity="1" stroke="none"></path></g><g id="svga-group-chinshadow-single"><path id="SvgjsPath7667" d="M83.1 156.9c5 5.2 12.1 7.4 16.9 7.4s12-2.1 16.9-7.4c.86-.92 1.73-1.91 2.61-2.96-.02-.73-.02-1.5-.01-2.34.2-12.4.9-40.3.9-40.3H79.6s.7 27.9.9 40.3c.01.85.01 1.64-.01 2.38.88 1.04 1.76 2.01 2.61 2.92z" fill="#cb896e" stroke-width="none" opacity="0.65"></path></g><g id="svga-group-humanbody-front"><path id="SvgjsPath3153" d="M73.8 175.9c5.1 2.9 11.8 5.2 17.6 5.7.4 0 .4-.6.1-.7-2.8-1.1-5.9-1.7-8.8-2.6-2.9-.9-5.8-2-8.8-2.7-.1-.1-.3.2-.1.3zm35.2 6.2c5.3-.6 11.3-3 15.9-5.8.3-.2.1-.6-.2-.5-2.6.9-5.2 2-7.8 2.9-2.6.9-5.4 1.5-8 2.5-.5.1-.5.9.1.9z" fill="#cb896e" stroke-width="none" opacity="1" stroke="none"></path><path id="SvgjsPath3154" d="m168.4 219.4-2.1-21.4c0-2.2-.5-4.5-1.5-6.6-.9-2.1-2.3-3.9-3.9-5.5s-3.5-2.8-5.5-4c-2-1.2-4.1-2.2-6.2-3.1-4.2-1.9-8.6-3.6-12.9-5.4-2.2-.9-4.3-1.9-6.4-3-1.1-.6-2.1-1.2-3-1.9-1-.6-2-1.2-3-1.9s-2-1.5-2.8-2.6c-.8-1-1.3-2.2-1.7-3.4-.7-2.4-.8-4.8-.8-7.2 0-4.7.2-9.4.3-14.1.2-9.4.6-18.7.9-28l.6.6-20.4-.2-20.4-.1.3-.3.7 28c.1 4.7.3 9.3.4 14 0 2.4-.1 4.7-.8 7.1-.3 1.2-.9 2.3-1.6 3.3-.8 1-1.7 1.8-2.7 2.5s-2 1.3-2.9 2c-.9.6-1.9 1.3-3 1.9-2.1 1.2-4.2 2.1-6.4 3.1-4.3 1.9-8.6 3.6-12.8 5.6-2.1 1-4.2 2.1-6.1 3.2-2 1.2-3.8 2.4-5.4 4-1.6 1.6-2.9 3.4-3.8 5.4-.4 1-.8 2.1-1 3.1-.2 1.1-.4 2.2-.3 3.2v.2l-1.5 21.5-1-1.1 34 .1c11.3 0 22.7.1 34.1.2l34.2.3 34.4.5zm.2.2-34 .4-34.2.3c-11.4.1-22.9.2-34.4.2l-34.4.1h-1.1l.1-1.1 1.7-21.5v.1c-.1-5.1 2.2-9.8 5.7-13.3 1.7-1.7 3.8-3.1 5.8-4.3 2-1.2 4.2-2.2 6.3-3.2 4.3-2 8.7-3.7 13-5.4 2.1-.9 4.3-1.8 6.3-2.9 1-.5 1.9-1.1 3-1.8 1-.6 2-1.2 2.9-1.9.9-.6 1.8-1.4 2.4-2.2.7-.9 1.2-1.9 1.5-2.9.6-2.1.8-4.5.8-6.8 0-4.6-.1-9.3-.2-14l-.6-28v-.3h.3l20.4-.1 20.4-.2h.6v.6c-.1 9.3-.2 18.7-.4 28-.1 4.7-.2 9.4-.2 14 .1 2.3.2 4.6.8 6.7.3 1.1.8 2 1.4 2.9.6.8 1.4 1.6 2.4 2.2.9.6 1.9 1.3 2.9 1.9 1 .7 1.9 1.3 2.9 1.8 2 1.1 4.1 2.1 6.3 3 4.3 1.8 8.6 3.6 12.9 5.6 2.1 1 4.2 2.1 6.2 3.3 2 1.2 4 2.6 5.7 4.3 3.4 3.4 5.6 8.1 5.4 13v-.1l1.4 21.6zm-112.8-.4 1.9-13.8.1 13.8h-2zm88.6 0-1.9-13.8-.1 13.8h2z" fill="#bc7253" stroke-width="none" opacity="1" stroke="none"></path></g><g id="svga-group-clothes-single"><path id="SvgjsPath8165" d="m122.4 220 2.7-26.8s-14.3 16-25 19.1c0 0-16.5-9.3-26.3-19.1l3.9 26.8h44.7z" fill="#efefef" stroke-width="none" opacity="1"></path><path id="SvgjsPath8166" d="M125.3 192.9c-.2-.2-.4-.1-.6 0a147.859 147.859 0 0 1-11.5 10.9c-2 1.7-4.1 3.3-6.3 4.8-2.2 1.4-4.5 2.7-6.9 3.5-2.3-1.3-4.6-2.7-6.9-4.2-2.3-1.5-4.5-3-6.7-4.6-4.4-3.2-8.6-6.6-12.4-10.4-.1-.1-.2-.1-.3-.1-.2 0-.3.2-.3.4.6 4.5 1.2 8.9 1.8 13.4.6 4.5 1.2 8.9 1.9 13.4 0 .2.3.4.5.4h11.3l11.2-.1 11.2-.1 11.1-.2 1.6-13.3 1.5-13.5c0-.1-.1-.2-.2-.3zm-1.9 13.5-1.1 13.5-11.3-.2-11.2-.1-11.2-.1H77.9c-.6-4.3-1.3-8.6-1.9-13-.6-4.1-1.2-8.2-1.9-12.3 3.7 3.5 7.8 6.6 11.9 9.5 2.2 1.6 4.5 3.1 6.8 4.5s4.6 2.9 7 4.3h.1c2.6-.8 4.9-2 7.2-3.4s4.4-3 6.5-4.6c2.1-1.7 4.1-3.4 6-5.3 1.6-1.5 3.2-3.2 4.7-4.8-.2 4-.5 8-.9 12z" fill="#00001d" stroke-width="none" opacity="1" stroke="none"></path><path id="SvgjsPath8167" d="M75.7 167.9s1.2-3.7 1.7-6.4c.6-2.7.4-9.3.4-9.3s-1.9 4.1-4.6 6.4-13.2 9.1-13.2 9.1l2.3 1.6S37.7 178 36 179.2c-1.7 1.2-1.9 3.7-1.9 3.7l-2.1.6c-4.1 16.8-4.1 36.6-4.1 36.6h54.5s-2.3-16.6-3.3-23c-.9-6.5-3.4-29.2-3.4-29.2zm92.7 15.5-2.1-.6s-.2-2.5-1.9-3.7c-1.7-1.2-26.3-9.9-26.3-9.9l2.3-1.6s-10.4-6.8-13.2-9.1c-2.7-2.3-4.6-6.4-4.6-6.4s-.2 6.6.4 9.3 1.7 6.4 1.7 6.4-2.5 22.6-3.5 29c-1 6.4-3.3 23-3.3 23h54.5c0 .2 0-19.5-4-36.4z" fill="#00003c" stroke-width="none" opacity="1" stroke="none"></path><path id="SvgjsPath8168" d="M140.3 179c-1.8-1.9-4.2-3.2-6.2-5-2-1.8-3.6-3.9-5.4-5.9-.2-.2-.6.1-.4.3 1.3 2.5 3.1 4.7 5.1 6.7 1.7 1.7 3.9 3.9 6.3 4.7-5.2 9.5-8.4 21.2-9.6 31.9 0 .2.3.3.4.1 1.2-5.5 2.2-11 3.9-16.4 1.6-5.4 4.1-10.4 6.1-15.7.1-.1 0-.2-.1-.3.1-.1 0-.2-.1-.4zm-2-11.9c-2.1-1.2-4.3-2.2-6.3-3.6-2.2-1.5-4.2-3.3-6.1-5.2-.2-.2-.4.1-.2.2 3.1 3.9 7.5 7.8 12.4 9.1.3.2.5-.3.2-.5zm18.9 10.5c-5.7-2.4-11.6-4.6-17.5-6.4-.2-.1-.3.2-.1.3 3.5 1.7 7.1 3.3 10.7 4.8 4.6 1.9 10.2 3.1 12.7 7.8.2.4.8.1.7-.3-.6-3.5-3.5-5-6.5-6.2zm9.5 8.4c-.1-.4-.7-.3-.7.1.7 5.4 1.9 10.6 2.5 16 .6 5.4.4 10.9 1.1 16.2 0 .4.5.4.6 0 1.2-9.9-.4-22.8-3.5-32.3zm-92.6-16.9c.5-1 .6-2.2.8-3.3.3-1.2.7-2.4 1-3.6.1-.2-.2-.3-.3-.1-.7 1-1.1 2.1-1.6 3.2-.4 1.1-.9 2.4-.8 3.6.1.4.7.7.9.2zm-.3 1.6c0-.1-.2-.1-.2 0-.1 6.5 1.2 13.2 2.2 19.7 1 7.1 2.1 14.3 4 21.3 0 .1.1 0 .1 0-.7-6.6-1.8-13.1-2.8-19.6-1.2-7-1.5-14.4-3.3-21.4zm-5.1 0c-2.8 3.1-5.4 5.9-8.8 8.3-.4.3-.3.9.1 1 1.4 4.4 3.4 8.5 4.8 12.9 1.4 4.5 2.3 9.2 3.5 13.7.1.3.5.2.5-.1-.5-8.7-3.2-19.2-7.9-26.7 3.3-2.3 6.5-5.2 8.4-8.7 0-.4-.4-.7-.6-.4zm-32.6 11.1c1.3 5.7 3.9 11.4 5.9 16.9.1.3.5.2.5-.1-1.1-5.6-2.6-12.2-5.6-17.1-.4-.4-.9-.1-.8.3z" fill="#08084b" stroke-width="none" opacity="1" stroke="none"></path><path id="SvgjsPath8169" d="M80.7 200.4c-.3-2.2-.6-4.3-.9-6.5-1.1-8.6-2.2-17.3-3.4-25.9.4-1.2.7-2.5 1-3.7.1-.3.2-.6.2-.9.3-.4.9-1.1 1.3-2 .6-1.4 1.1-3.8 1.2-6.2s0-4.8 0-4.8-2.4 1.1-2.5 1.8c-.9 1.8-1.9 3.4-3.2 4.9-1.2 1.5-2.9 2.6-4.5 3.8-3 2.1-6 4.1-9.2 6-.3.2-.6.3-.9.5l-.1.1c-.2.2-.1.5.1.6.4.3.8.6 1.2.8l.2.2c-4.8 1.6-9.6 3.2-14.4 4.9-2.5.9-5.1 1.8-7.6 2.8l-1.9.8-1 .4c-.3.2-.7.3-1 .6-.7.5-1.2 1.2-1.5 1.9-.2.5-.4 1.1-.5 1.6l-1.6.4c-.3.1-.5.3-.6.6-1.4 6-2.2 12.2-2.8 18.3-.2 3.1-.5 6.1-.5 9.2 0 1.5-.1 3.1-.1 4.6v4.6l27 .6 13.8.2c4.6.1 9.2.1 13.8.1h.2c.6-.1 1-.6.9-1.2l-1.8-13-.9-6.1zM28 219.9c.1-.1 0-.3.1-.5v-.6l.1-1.1.1-2.3c.1-1.5.2-3.1.4-4.6.3-3.1.6-6.1 1-9.1s.9-6.1 1.4-9.1c.5-2.9 1.1-5.7 1.8-8.5l1.6-.4h.1c.5 1.2 1.1 2.4 1.5 3.7l.9 2.2.8 2.3c1 3 1.9 6.1 2.6 9.2.8 3.1 1.4 6.2 2 9.4.3 1.6.5 3.2.7 4.8.2 1.4.4 2.9.5 4.4l-15.6.2zm41-.8-13.5.2-12 .3c0-3.1-.2-6.2-.6-9.2-.4-3.2-1-6.4-1.7-9.5-.8-3.1-1.7-6.2-2.9-9.2-1-2.8-2.3-5.4-3.8-8 .2-.1.4-.4.4-.6.1-1.1.6-2.3 1.4-2.9.2-.2.4-.2.7-.4l.9-.4 1.9-.8 7.5-2.9 15-5.7c1.2.6 2.5 1.1 3.9 1.5-.5.4-1 .9-1.5 1.3-1.2 1-2.5 2-3.7 3-1.3.9-2.6 1.8-3.9 2.6-.4.2-.5.7-.4 1.1 1.3 3.3 2.6 6.6 3.8 9.9 1.2 3.3 2.3 6.7 3.5 10.1 1.1 3.4 2.1 6.8 3.1 10.2.9 3.1 1.6 6.3 2.4 9.5-.2-.1-.3-.1-.5-.1zm.6 0c-.3-3.3-.7-6.5-1.3-9.7-.7-3.5-1.5-7-2.5-10.5s-2.1-6.9-3.3-10.3c-1.2-3.1-2.4-6.2-3.8-9.3 1.2-.8 2.2-1.6 3.3-2.5 1.2-1 2.4-2.1 3.6-3.3 2.3-2.3 4.5-4.6 6.5-7.1-1.9 1.7-3.7 3.3-5.6 4.9-1.2-.9-2.4-1.6-3.7-2.3 0 0 0-.1-.1-.1l-1.1-.7c-.2-.1-.4-.3-.7-.4.1-.1.2-.1.3-.2 3-2 6-4.1 9-6.2 1.6-1.2 3.3-2.3 4.7-3.8 1-1.2 1.9-2.5 2.7-3.8 0 2.2-.1 4.4-.3 6.5-.2 1.3-.5 2.5-.9 3.8-.4 1.3-.8 2.5-1.2 3.8v.2c.8 8.7 1.8 17.4 2.8 26.1.2 2.2.5 4.4.8 6.5l.9 6.5 1.7 11.8c-4 0-7.9 0-11.8.1zm102.9-8.3c-.1-3.1-.3-6.1-.6-9.2-.5-6.1-1.4-12.3-2.8-18.3-.1-.3-.3-.5-.6-.6l-1.6-.4c-.1-.6-.2-1.1-.5-1.6-.3-.7-.8-1.4-1.5-1.9-.3-.3-.7-.4-1.1-.6l-1-.4-1.9-.8c-2.5-1-5.1-1.9-7.6-2.8-4.8-1.7-9.6-3.3-14.4-4.9l.2-.2c.4-.3.8-.5 1.2-.8.2-.1.3-.4.1-.6 0-.1-.1-.1-.1-.1-.3-.2-.6-.4-.9-.5-3.1-1.9-6.2-3.9-9.1-6-1.6-1.2-3.3-2.3-4.5-3.8-1.3-1.5-2.3-3.2-3.2-4.9 0-.1-.1-.1-.1-.1-.5-.6-2.4-1.1-2.4-1.1-.1 2.9-.1 7.4.5 9.7.4 1.7 1.8 3.6 2.4 4.5.3 1 .5 2 .8 2.9-1.2 8.6-2.3 17.2-3.4 25.9-.3 2.2-.6 4.3-.9 6.5l-1 6.5-1.8 13c-.1.6.3 1.1.9 1.2h.2c4.6 0 9.2 0 13.8-.1l13.8-.2 27-.6c.1-.3 0-.5.1-.6v-4c.1-2.1.1-3.6 0-5.1zm-53.4 8.1 1.7-11.8.9-6.5c.3-2.2.6-4.3.8-6.5 1-8.7 1.9-17.4 2.8-26.1v-.2c-.4-1.2-.8-2.5-1.2-3.8-.3-1.3-.7-2.5-.9-3.8-.2-2.1-.3-4.3-.3-6.5.8 1.4 1.7 2.6 2.7 3.8 1.3 1.6 3.1 2.7 4.7 3.8 3 2.1 6 4.1 9 6.2.1.1.2.1.3.2-.2.1-.4.3-.7.4l-1.1.7-.1.1c-1.3.7-2.5 1.4-3.7 2.3-1.9-1.6-3.8-3.2-5.6-4.9 2 2.5 4.2 4.9 6.5 7.1 1.1 1.1 2.3 2.2 3.6 3.3 1.1.9 2.1 1.7 3.3 2.5-1.4 3.1-2.6 6.1-3.8 9.3-1.2 3.4-2.4 6.8-3.3 10.3-1 3.4-1.8 7-2.5 10.5-.6 3.2-1.1 6.5-1.3 9.7-4 0-7.9 0-11.8-.1zm25.8.4-13.5-.2h-.5c.8-3.2 1.5-6.3 2.4-9.5.9-3.4 2-6.9 3.1-10.2 1.1-3.4 2.2-6.8 3.5-10.1 1.2-3.3 2.5-6.7 3.9-9.9.2-.4 0-.9-.4-1.1-1.3-.7-2.6-1.6-3.9-2.6-1.3-.9-2.5-1.9-3.7-3-.5-.4-1-.9-1.5-1.3 1.3-.4 2.6-1 3.9-1.5l15 5.7 7.5 2.9 1.9.8.9.4c.3.1.5.2.7.4.8.6 1.3 1.8 1.4 2.9 0 .3.2.5.4.6-1.4 2.6-2.7 5.2-3.8 8-1.2 3-2.1 6.1-2.9 9.2-.7 3.1-1.4 6.3-1.7 9.5-.4 3.1-.6 6.1-.6 9.2l-12.1-.2zm12 .3c.2-1.5.3-2.9.6-4.4.2-1.6.5-3.2.7-4.8.6-3.2 1.2-6.3 1.9-9.4.7-3.1 1.6-6.2 2.6-9.2l.8-2.3.9-2.2c.4-1.2 1-2.4 1.5-3.7h.1l1.6.4c.6 2.8 1.3 5.6 1.8 8.5.5 3 1 6 1.4 9.1.4 3 .7 6.1.9 9.1.1 1.5.3 3.1.4 4.6l.1 2.3.1 1.1v.6c0 .2 0 .4.1.5l-15.5-.2z" fill="#00001d" stroke-width="none" opacity="1" stroke="none"></path></g><g id="svga-group-head" transform="matrix(1,0,0,1,0,0)"><g id="svga-group-ears-left-move" transform="matrix(1,0,0,1,0,0)"><g id="svga-group-ears-left" transform="matrix(1,0,0,1,0,0)"><path id="SvgjsPath7945" d="M64.4 97.4S60.2 93 59 91.6c-1.3-1.4-2.9-4.4-4.7-3.9s-1.2 2.6-1.3 5.4c-.1 2.9.3 8.6 2.1 11.7s2.7 4.2 3.3 7.5 2.6 3.9 3.8 3 4-6.6 4.1-9.6c.1-2.9-1.1-7-1.9-8.3z" fill="#eabfad" stroke-width="none" opacity="1"></path><path id="SvgjsPath7946" d="M65.3 99.4c.2.7.4 1.4.6 2.2.4 1.5.6 3 .6 4.6 0 .8-.2 1.5-.3 2.2-.2.7-.4 1.3-.6 2-.5 1.3-1 2.4-1.6 3.5-.3.6-.6 1.1-1 1.6-.2.2-.4.5-.7.7s-.6.3-.9.3c-.6.1-1.3-.1-1.9-.6-.6-.5-1.1-1.3-1.3-2.1l-.2-.6-.1-.6c-.1-.4-.1-.7-.2-1.1-.1-.7-.3-1.4-.6-2-.5-1.3-1.2-2.5-1.9-3.8-.4-.6-.7-1.3-1-2.1-.3-.7-.4-1.5-.6-2.2-.3-1.5-.5-3-.7-4.5-.1-1.5-.2-3-.2-4.4 0-.7-.1-1.4-.1-2.2 0-.4 0-.8.1-1.2.1-.4.2-.8.4-1.1.2-.3.5-.5.8-.6s.6-.2.9-.1c.7.1 1.3.5 1.8 1 1 1 1.8 2.3 2.6 3.2 1.8 2.1 3.5 4.2 5.3 6.1.3.4.6 1.1.8 1.8zM58.8 92c-1-1-1.8-2.1-2.7-2.9-.4-.4-.9-.7-1.3-.7s-.9.1-1.1.4c-.3.3-.4.9-.4 1.6v2.2c0 .8-.1 1.4-.1 2.2 0 .7 0 1.4.1 2.2.1 1.5.3 2.9.7 4.4.4 1.4.9 2.8 1.7 3.9.7 1.2 1.6 2.3 2.2 3.8.3.7.6 1.5.8 2.2.1.4.2.8.3 1.1l.1.5.1.5c.2.6.5 1.1.9 1.4s.8.4 1.2.3c.2 0 .4-.1.6-.2.2-.1.3-.3.5-.5.3-.4.6-.9.9-1.4.6-1 1.1-2.1 1.6-3.3.5-1.2.9-2.3 1.1-3.6.2-1.3 0-2.8-.2-4.3-.1-.7-.3-1.5-.5-2.2s-.5-1.4-.8-2c-1.9-2.1-3.8-3.8-5.7-5.6z" fill="#dba38c" stroke-width="none" opacity="1"></path><path id="SvgjsPath7947" d="M53.4 92.2c.5-1.8 2-.9 2.9.4 1.7 2.5 3 6.2 3.4 9.4 0 .1-.1.2-.1.1-.1.1-.2.1-.2-.1-1.1-.4-1.5-.2-1.2.7 0 .3.1.6.3.8.2.5.5 1 .8 1.4.5.8 1.1 1.4 1.6 2.2.2.3 0 .5-.2.4-1.3-.9-3.6-4.1-3-6.2.2-.8.9-1 1.4-.6-1-3.4-3.7-11.3-5.4-8.3-.1.1-.3-.1-.3-.2z" fill="#cb896e" stroke-width="none" opacity="1"></path><path id="SvgjsPath7948" d="M56.1 92.6c-1 1.9-1.3 4.1-.8 6.7.3 1.4 2.8 8.9 4.6 7.9.2-.1.4.3.2.5-1.9 1.7-4-4.2-4.6-6.1-1.1-3.2-1.3-7 .5-9.1 0-.1.2 0 .1.1z" fill="#cb896e" stroke-width="none" opacity="1"></path></g></g><g id="svga-group-ears-right-move" transform="matrix(1,0,0,1,0,0)"><g id="svga-group-ears-right" transform="matrix(1,0,0,1,0,0)"><path id="SvgjsPath7949" d="M135.6 97.4s4.2-4.4 5.4-5.8c1.3-1.4 2.9-4.4 4.7-3.9s1.2 2.6 1.3 5.4c.1 2.9-.3 8.6-2.1 11.7s-2.7 4.2-3.3 7.5-2.6 3.9-3.8 3-4-6.6-4.1-9.6c-.1-2.9 1.1-7 1.9-8.3z" fill="#eabfad" stroke-width="none" opacity="1"></path><path id="SvgjsPath7950" d="M135.6 97.4c1.8-1.9 3.5-4 5.3-6.1.8-1 1.5-2.3 2.6-3.2.5-.5 1.1-.9 1.8-1 .3 0 .6 0 .9.1.3.1.6.3.8.6.2.3.4.7.4 1.1.1.4.1.8.1 1.2 0 .8-.1 1.5-.1 2.2 0 1.4-.1 3-.2 4.4-.1 1.5-.3 3-.7 4.5-.2.7-.4 1.5-.6 2.2-.3.7-.6 1.4-1 2.1-.7 1.3-1.4 2.5-1.9 3.8-.3.6-.4 1.3-.6 2-.1.3-.1.7-.2 1.1l-.1.6-.2.6c-.3.8-.7 1.6-1.3 2.1s-1.3.7-1.9.6c-.3 0-.6-.1-.9-.3-.3-.2-.5-.4-.7-.7-.4-.5-.7-1-1-1.6-.6-1.1-1.2-2.3-1.6-3.5-.2-.6-.4-1.3-.6-2-.2-.7-.3-1.4-.3-2.2 0-1.6.3-3.1.6-4.6.2-.7.4-1.5.6-2.2.1-.5.4-1.2.8-1.8zm0 .1c-.3.6-.6 1.3-.8 2s-.4 1.4-.5 2.2c-.2 1.4-.4 3-.2 4.3s.7 2.5 1.1 3.6c.5 1.1 1 2.3 1.6 3.3.3.5.6 1 .9 1.4.2.2.3.4.5.5s.4.2.6.2c.4.1.8 0 1.2-.3s.7-.8.9-1.4l.1-.5.1-.5c.1-.4.2-.8.3-1.1.2-.8.4-1.5.8-2.2.6-1.4 1.5-2.6 2.2-3.8.8-1.1 1.3-2.5 1.7-3.9s.6-2.9.7-4.4c0-.7.1-1.5.1-2.2s-.1-1.4-.1-2.2v-2.2c0-.7-.1-1.3-.4-1.6-.3-.3-.7-.4-1.1-.4-.4 0-.9.3-1.3.7-.9.8-1.7 1.9-2.7 2.9-2 1.9-3.9 3.6-5.7 5.6z" fill="#dba38c" stroke-width="none" opacity="1"></path><path id="SvgjsPath7951" d="M146.6 92.2c-.5-1.8-2-.9-2.9.4-1.7 2.5-3 6.2-3.4 9.4 0 .1.1.2.1.1.1.1.2.1.2-.1 1.1-.4 1.5-.2 1.2.7 0 .3-.1.6-.3.8-.2.5-.5 1-.8 1.4-.5.8-1.1 1.4-1.6 2.2-.2.3 0 .5.2.4 1.3-.9 3.6-4.1 3-6.2-.2-.8-.9-1-1.4-.6 1-3.4 3.7-11.3 5.4-8.3.1.1.3-.1.3-.2z" fill="#cb896e" stroke-width="none" opacity="1"></path><path id="SvgjsPath7952" d="M143.9 92.6c1 1.9 1.3 4.1.8 6.7-.3 1.4-2.8 8.9-4.6 7.9-.2-.1-.4.3-.2.5 1.9 1.7 4-4.2 4.6-6.1 1.1-3.2 1.3-7-.5-9.1 0-.1-.2 0-.1.1z" fill="#cb896e" stroke-width="none" opacity="1"></path></g></g><g id="svga-group-faceshape-wrap" transform="matrix(1,0,0,1,0,0)"><g id="svga-group-faceshape-single"><path id="SvgjsPath7657" d="M100.06 41.44C78.66 41.44 60.2 56.9 59 85.4c0 0 .35 20.61 3.05 28.21 1 3 11.92 22.35 21.12 32.05 5 5.2 11.95 7.2 16.75 7.2s11.8-2.52 16.7-7.72c9.3-9.8 19.94-28.25 20.94-31.15 2.7-7.7 3.43-28.59 3.43-28.59-1.19-28.4-19.53-43.96-40.93-43.96z" fill="#eabfad" stroke-width="none" opacity="1"></path><path id="SvgjsPath7658" d="M100 41.3c-21.4 0-39.8 15.6-41 44.1 0 0 0 20.6 2.7 28.2 1 3 12.2 22.7 21.4 32.4 5 5.2 12.1 7.4 16.9 7.4s12-2.2 16.9-7.4c9.3-9.8 20.4-29.5 21.4-32.4 2.7-7.7 2.7-28.2 2.7-28.2-1.2-28.4-19.6-44.1-41-44.1zm30.1 16 .7 1 .6 1c1.6 2.6 2.9 5.4 3.9 8.3l1.1 3.3s1 4.2 1.3 5.7l.2 1.1.1.6.1.6.1 1.1c0 .4.1.8.1 1.1.1.8.1 1.5.2 2.3l.1 2.2-.1 2.3-.1 2.4c-.1 1.6-.1 3.2-.2 4.7-.2 3.2-.4 6.3-.7 9.4l-.1 1.2c0 .4-.1.8-.2 1.1l-.2 1.1-.2 1.1c-.1.8-.3 1.5-.4 2.2-.1.4-.2.7-.3 1s-.2.7-.3.9l-.4.9c-.1.3-1.2 2.4-1.6 3.1-.4.7-.8 1.4-1.1 2.1l-1.2 2.1c-1.6 2.7-3.2 5.5-4.9 8.1-1.7 2.7-3.4 5.3-5.3 7.9-1.8 2.5-3.7 5.1-5.8 7.4-1 1.1-2.1 2.1-3.2 3-1.2.9-2.5 1.7-3.8 2.3-1.3.7-2.8 1.2-4.2 1.6-1.4.4-2.9.6-4.4.7-1.5 0-3-.1-4.5-.4-1.5-.3-3-.7-4.4-1.3s-2.8-1.3-4.1-2.1c-1.3-.9-2.5-1.8-3.5-2.9l-1.6-1.7-1.5-1.8c-1-1.2-2-2.5-2.9-3.8-1.9-2.5-3.7-5.2-5.4-7.9-1.7-2.7-3.3-5.4-4.8-8.2l-1.1-2.1c-.4-.7-.7-1.4-1.1-2.1s-.7-1.4-1-2.1c-.2-.4-.3-.7-.5-1.1s-.3-.7-.4-1c-.4-1.4-.7-2.9-.9-4.4l-.3-2.4c0-.4-.1-.8-.1-1.2l-.1-1.2c-.2-3.1-.3-6.3-.4-9.5 0-1.6-.1-3.2-.1-4.8V85.5c-.02-3.75.7-7.4.7-7.4l.1-.6.2-1.1c1.1-6 3.1-11.9 6.4-17.2 1.6-2.6 3.5-5.1 5.7-7.3s4.7-4.1 7.5-5.7c.7-.4 1.4-.8 2.1-1.1l1.1-.5s1.8-.7 2.2-.8c0 0 1.9-.6 2.2-.7.4-.1 2.6-.7 3.4-.8l2.4-.4a38.663 38.663 0 0 1 9.6 0l2.4.4c.8.1 3.1.7 3.4.8.4.1.8.2 1.1.3 0 0 1.8.7 2.2.8l2.2.9c.7.3 1.4.7 2.1 1.1 2.7 1.5 5.2 3.5 7.5 5.7.3.3.5.6.8.8.3.3.5.6.8.8l.8.9c.3.3.5.6.7.9.4.7.9 1.3 1.3 2z" fill="#bc7253" stroke-width="none" opacity="1"></path></g></g><g id="svga-group-mouth-single-move" transform="matrix(1,0,0,1,0,0)"><g id="svga-group-mouth-single" transform="matrix(1,0,0,1,0,0)"><path id="SvgjsPath4510" d="M95.2 133.6c3.7 1.9 5.4 1.5 7.2 1.3s6.2-2.5 9-5.2c2.7-2.7 3.2-4.2 3.2-4.2-2.5-.5-9.6-2.6-10.7-2.4-.8.1-2.9 1.9-3.6 1.9s-3.1-1.5-3.9-1.6c-.9-.1-2.3.4-4.4 1.1s-6 1.1-6 1.1 5.5 6.1 9.2 8z" fill="#da7c87" stroke-width="none" opacity="1" transform="translate(0 3)" stroke="none"></path><path id="SvgjsPath4511" d="M85.5 125.7c4.9 1.2 10.2 2.1 15.2 2.3 1.8.1 3.7-.3 5.5-.6 3-.5 6.3-.8 9.2-1.8.3-.1.3-.7-.1-.6-4.8.6-9.7 2.4-14.6 2.2-5.1-.2-10.1-1.4-15.2-1.9-.2.1-.2.4 0 .4z" fill="#cb5f6c" stroke-width="none" opacity="1" transform="translate(0 3)" stroke="none"></path></g></g><g id="svga-group-eyes-left-move" transform="matrix(1,0,0,1,0,0)"><g id="svga-group-eyes-left" transform="matrix(1,0,0,1,0,0)"><g id="svga-group-eyesback-left"><path id="SvgjsPath3207" d="M90.9 101.3s-.3-2.5-1-3.8-3.7-4.4-7-5c-4.9-1-9.3 1.7-9.3 1.7s0 2.4 1.5 4.1c1.4 1.7 3.9 2.6 4.9 2.7s4.6.3 6.5 0c1.3-.2 2.8-.2 3.4 0 .5.2 1 .3 1 .3z" fill="#ffffff" stroke-width="none" opacity="1"></path></g><g id="svga-group-eyesiriswrapper-left" transform="matrix(1,0,0,1,0,0)"><g id="svga-group-eyesiriscontrol-left" transform="matrix(1,0,0,1,0,0)"><g id="svga-group-eyesiris-left" transform="matrix(1,0,0,1,0,0)"><path id="SvgjsPath5361" d="M82 91.2c2.9 0 5.2 2.3 5.2 5.2s-2.3 5.2-5.2 5.2-5.2-2.3-5.2-5.2 2.3-5.2 5.2-5.2z" fill="#916e41" stroke-width="none" opacity="1"></path><path id="SvgjsPath5362" d="M82 101.8c-3 0-5.4-2.4-5.4-5.4S79 91 82 91s5.4 2.4 5.4 5.4-2.4 5.4-5.4 5.4zm0-10.3c-2.7 0-4.9 2.2-4.9 4.9s2.2 4.9 4.9 4.9 4.9-2.2 4.9-4.9-2.2-4.9-4.9-4.9z" fill="#724d1c" stroke-width="none" opacity="1"></path><path id="SvgjsPath5363" d="M86.9 96.4c-.6 0-1.3-.1-1.9 0 0-.3 0-.5-.1-.8.7-.1 1.5-.3 2.2-.6.2-.1.1-.3-.1-.3-.7.1-1.5.4-2.2.6 0-.1-.1-.2-.1-.3.3-.1.6-.3.8-.4.4-.2.8-.2 1.1-.4.1-.1.1-.2-.1-.2-.6.1-1.4.4-2 .8 0-.1-.1-.1-.1-.2.2-.2.4-.3.7-.5.3-.2.7-.5 1-.8.1-.1 0-.3-.2-.2-.3.3-.7.5-1 .8-.2.2-.4.3-.6.5l-.3-.3c.5-.6.9-1.2 1.2-1.9.1-.1-.1-.2-.1-.1-.5.5-1 1.2-1.3 1.8-.1-.1-.2-.1-.3-.2.2-.7.3-1.5.3-2.2 0-.2-.2-.2-.3 0-.1.5-.2 1.1-.2 1.6 0 .2-.1.3-.1.5-.2-.1-.3-.1-.5-.1 0-.7-.1-1.5-.3-2.2 0-.1-.1 0-.1 0-.1.7-.1 1.4-.1 2.1h-.4c0-.2-.1-.4-.1-.6-.1-.5-.1-.9-.2-1.4 0-.1-.2-.1-.2 0-.1.6 0 1.3.2 2-.1 0-.2 0-.2.1-.2-.7-.4-1.4-.7-2.1 0-.1-.2-.1-.2 0 .1.7.3 1.4.6 2.1 0 0-.1 0-.1.1-.3-.7-.8-1.3-1.3-1.9-.1-.1-.2 0-.1.1.3.6.7 1.3 1.2 1.9-.1.1-.2.1-.2.2-.1-.1-.2-.3-.3-.4-.3-.4-.7-.9-1.1-1.2-.1-.1-.2 0-.2.1.2.4.6.8.9 1.2.1.2.3.3.4.5-.1.1-.2.2-.3.4-.6-.4-1.2-.9-1.8-1.2-.1 0-.1.1-.1.1.5.5 1.1.9 1.7 1.3-.1.2-.2.3-.2.5-.1 0-.2-.1-.3-.1-.6-.2-1.2-.5-1.7-.7-.1-.1-.2.2-.1.2.5.2 1 .5 1.5.7.2.1.3.1.5.2 0 .1 0 .2-.1.3-.2 0-.3-.1-.5-.1-.5-.1-1.1-.2-1.6-.1-.1 0-.1.2 0 .2.6.2 1.4.3 2.1.4v.4c-.3.1-.6.2-.9.4-.4.2-.8.2-1.1.5-.1.1-.1.3.1.3.4 0 .9-.2 1.3-.4.2-.1.5-.2.7-.3 0 .2.1.3.1.4-.1.1-.2.1-.3.2-.5.3-1 .6-1.4 1-.1.1 0 .3.2.2.6-.3 1.1-.6 1.6-.9.1 0 .1-.1.2-.1.1.1.2.3.2.4-.5.4-1 1-1.5 1.5-.1.1 0 .2.1.1.5-.4 1.1-.9 1.6-1.4l.3.3c-.2.2-.3.4-.4.6-.3.4-.6.8-.9 1.3-.1.1.1.2.2.1.3-.4.7-.8 1-1.2.2-.2.3-.4.5-.6.1 0 .1.1.2.1-.1.2-.1.3-.2.4-.2.4-.5.9-.6 1.4 0 .1.2.2.2.1.3-.4.5-.9.8-1.4.1-.1.1-.2.2-.4h.1c-.3.7-.5 1.4-.6 2.1 0 .1.2.1.2 0 .2-.7.5-1.4.7-2.1.1 0 .2 0 .3.1-.2.7-.2 1.5-.3 2.2 0 .2.3.2.3 0 0-.7.2-1.5.2-2.2h.2c-.1.7-.1 1.4 0 2.1 0 .2.3.2.3 0-.1-.7 0-1.4-.1-2.1.2 0 .4-.1.6-.1.1.3.3.7.4 1 .2.3.2.7.6.9.1 0 .1 0 .1-.1 0-.3-.2-.7-.4-1-.2-.3-.3-.7-.5-1 .1 0 .1-.1.2-.1.1.3.3.6.4.8.2.3.3.8.6 1 .1.1.2 0 .2-.1-.1-.4-.4-.7-.6-1.1-.2-.3-.3-.6-.5-.8.1-.1.2-.1.3-.2.3.6.8 1.2 1.3 1.7.2.2.4-.1.2-.2-.5-.5-.9-1-1.3-1.6.2-.2.4-.4.5-.6.6.4 1.1.8 1.7 1.2.1.1.3-.1.2-.2-.5-.4-1.2-.8-1.8-1.2 0-.1.1-.1.1-.2.6.3 1.3.7 1.9.9.1.1.2-.2.1-.2-.6-.3-1.3-.6-1.9-.8.1-.2.2-.5.2-.8.7.1 1.3.1 2 .1-.2.3-.2-.2-.5-.2z" fill="#724d1c" stroke-width="none" opacity="1"></path><path id="SvgjsPath5364" d="M82 93.6c1.5 0 2.8 1.3 2.8 2.8s-1.3 2.8-2.8 2.8-2.8-1.3-2.8-2.8 1.3-2.8 2.8-2.8z" fill="#000000" stroke-width="none" opacity="1"></path><path id="SvgjsPath5365" d="M80.4 94c.6 0 1.1.5 1.1 1.1s-.5 1.1-1.1 1.1-1.1-.5-1.1-1.1.5-1.1 1.1-1.1zm3.4 4c.3 0 .6.3.6.6s-.3.6-.6.6-.6-.3-.6-.6.3-.6.6-.6z" fill="#ffffff" stroke-width="none" opacity="1"></path></g></g></g><g id="svga-group-eyesfront-left"><path id="SvgjsPath3215" d="M70.73 98.03c0 6.9 4.93 12.5 11.02 12.5s11.02-5.6 11.02-12.5-4.93-12.5-11.02-12.5-11.02 5.59-11.02 12.5zm2.88-3.78s4.42-2.71 9.34-1.75c3.29.64 6.2 3.74 6.95 5.03.75 1.28 1.03 3.82 1.03 3.82s-.53-.14-1.11-.32c-.57-.18-2.05-.19-3.39.04-1.89.32-5.46.18-6.45.04-1-.14-3.49-1.07-4.92-2.75-1.41-1.69-1.45-4.11-1.45-4.11z" fill="#eabfad" stroke-width="none" opacity="1" stroke="none"></path><path id="SvgjsPath3216" d="M73.27 94.64c-.1.42-.12.84-.06 1.25-.57-.03-1.21.05-1.59.44-.14.14.01.33.18.3.3-.05.58-.2.88-.27.21-.05.42-.06.63-.05.06.21.13.42.22.63-.18.06-.35.14-.5.21-.38.17-.75.42-.99.76-.11.15.09.28.22.22.35-.16.68-.38 1.03-.55.15-.07.32-.12.49-.18.16.28.35.54.56.8-.41.24-.78.58-.9 1.03-.03.1.09.21.19.15.36-.24.65-.57.96-.88 1.11 1.22 2.67 2.16 3.92 2.57 1.88.62 3.93.72 5.89.62 1.85-.09 4.72-1.14 6.43-.21.07.04.13.02.17-.02l.03-.03c.01-.02.02-.04.02-.06 0-.01.01-.01.01-.03-.1-4.06-2.64-7.49-6.4-8.97-2.08-.82-4.37-1.02-6.58-.69-2.59.39-4.87 1.66-7.54 1.44-.23-.02-.34.3-.18.44.9.88 1.89 1.13 2.91 1.08zm.67-.07c1.99-.32 4.11-1.54 6.09-1.68 5.13-.36 10.05 3 10.7 8.24-2.39-.82-5.13-.1-7.59-.15-2.01-.04-4.14-.32-5.91-1.34-2.21-1.28-2.61-2.93-3.29-5.07z" fill="#000000" stroke-width="none" opacity="1" stroke="none"></path></g></g></g><g id="svga-group-eyes-right-move" transform="matrix(1,0,0,1,0,0)"><g id="svga-group-eyes-right" transform="matrix(1,0,0,1,0,0)"><g id="svga-group-eyesback-right"><path id="SvgjsPath3208" d="M109.1 101.3s.3-2.5 1-3.8 3.7-4.4 7-5c4.9-1 9.3 1.7 9.3 1.7s0 2.4-1.5 4.1c-1.4 1.7-3.9 2.6-4.9 2.7s-4.6.3-6.5 0c-1.3-.2-2.8-.2-3.4 0-.5.2-1 .3-1 .3z" fill="#ffffff" stroke-width="none" opacity="1"></path></g><g id="svga-group-eyesiriswrapper-right" transform="matrix(1,0,0,1,0,0)"><g id="svga-group-eyesiriscontrol-right" transform="matrix(1,0,0,1,0,0)"><g id="svga-group-eyesiris-right" transform="matrix(1,0,0,1,0,0)"><path id="SvgjsPath5366" d="M118 91.2c2.9 0 5.2 2.3 5.2 5.2s-2.3 5.2-5.2 5.2-5.2-2.3-5.2-5.2 2.3-5.2 5.2-5.2z" fill="#916e41" stroke-width="none" opacity="1"></path><path id="SvgjsPath5367" d="M118 101.8c-3 0-5.4-2.4-5.4-5.4S115 91 118 91s5.4 2.4 5.4 5.4-2.4 5.4-5.4 5.4zm0-10.3c-2.7 0-4.9 2.2-4.9 4.9s2.2 4.9 4.9 4.9 4.9-2.2 4.9-4.9-2.2-4.9-4.9-4.9z" fill="#724d1c" stroke-width="none" opacity="1"></path><path id="SvgjsPath5368" d="M122.9 96.4c-.6 0-1.3-.1-1.9 0 0-.3 0-.5-.1-.8.7-.1 1.5-.3 2.2-.6.2-.1.1-.3-.1-.3-.7.1-1.5.4-2.2.6 0-.1-.1-.2-.1-.3.3-.1.6-.3.8-.4.4-.2.8-.2 1.1-.4.1-.1.1-.2-.1-.2-.6.1-1.4.4-2 .8 0-.1-.1-.1-.1-.2.2-.2.4-.3.7-.5.3-.2.7-.5 1-.8.1-.1 0-.3-.2-.2-.3.3-.7.5-1 .8-.2.2-.4.3-.6.5l-.3-.3c.5-.6.9-1.2 1.2-1.9.1-.1-.1-.2-.1-.1-.5.5-1 1.2-1.3 1.8-.1-.1-.2-.1-.3-.2.2-.7.3-1.5.3-2.2 0-.2-.2-.2-.3 0-.1.5-.2 1.1-.2 1.6 0 .2-.1.3-.1.5-.2-.1-.3-.1-.5-.1 0-.7-.1-1.5-.3-2.2 0-.1-.1 0-.1 0-.1.7-.1 1.4-.1 2.1h-.4c0-.2-.1-.4-.1-.6-.1-.5-.1-.9-.2-1.4 0-.1-.2-.1-.2 0-.1.6 0 1.3.2 2-.1 0-.2 0-.2.1-.2-.7-.4-1.4-.7-2.1 0-.1-.2-.1-.2 0 .1.7.3 1.4.6 2.1 0 0-.1 0-.1.1-.3-.7-.8-1.3-1.3-1.9-.1-.1-.2 0-.1.1.3.6.7 1.3 1.2 1.9-.1.1-.2.1-.2.2-.1-.1-.2-.3-.3-.4-.3-.4-.7-.9-1.1-1.2-.1-.1-.2 0-.2.1.2.4.6.8.9 1.2.1.2.3.3.4.5-.1.1-.2.2-.3.4-.6-.4-1.2-.9-1.8-1.2-.1 0-.1.1-.1.1.5.5 1.1.9 1.7 1.3-.1.2-.2.3-.2.5-.1 0-.2-.1-.3-.1-.6-.2-1.2-.5-1.7-.7-.1-.1-.2.2-.1.2.5.2 1 .5 1.5.7.2.1.3.1.5.2 0 .1 0 .2-.1.3-.2 0-.3-.1-.5-.1-.5-.1-1.1-.2-1.6-.1-.1 0-.1.2 0 .2.6.2 1.4.3 2.1.4v.4c-.3.1-.6.2-.9.4-.4.2-.8.2-1.1.5-.1.1-.1.3.1.3.4 0 .9-.2 1.3-.4.2-.1.5-.2.7-.3 0 .2.1.3.1.4-.1.1-.2.1-.3.2-.5.3-1 .6-1.4 1-.1.1 0 .3.2.2.6-.3 1.1-.6 1.6-.9.1 0 .1-.1.2-.1.1.1.2.3.2.4-.5.4-1 1-1.5 1.5-.1.1 0 .2.1.1.5-.4 1.1-.9 1.6-1.4l.3.3c-.2.2-.3.4-.4.6-.3.4-.6.8-.9 1.3-.1.1.1.2.2.1.3-.4.7-.8 1-1.2.2-.2.3-.4.5-.6.1 0 .1.1.2.1-.1.2-.1.3-.2.4-.2.4-.5.9-.6 1.4 0 .1.2.2.2.1.3-.4.5-.9.8-1.4.1-.1.1-.2.2-.4h.1c-.3.7-.5 1.4-.6 2.1 0 .1.2.1.2 0 .2-.7.5-1.4.7-2.1.1 0 .2 0 .3.1-.2.7-.2 1.5-.3 2.2 0 .2.3.2.3 0 0-.7.2-1.5.2-2.2h.2c-.1.7-.1 1.4 0 2.1 0 .2.3.2.3 0-.1-.7 0-1.4-.1-2.1.2 0 .4-.1.6-.1.1.3.3.7.4 1 .2.3.2.7.6.9.1 0 .1 0 .1-.1 0-.3-.2-.7-.4-1-.2-.3-.3-.7-.5-1 .1 0 .1-.1.2-.1.1.3.3.6.4.8.2.3.3.8.6 1 .1.1.2 0 .2-.1-.1-.4-.4-.7-.6-1.1-.2-.3-.3-.6-.5-.8.1-.1.2-.1.3-.2.3.6.8 1.2 1.3 1.7.2.2.4-.1.2-.2-.5-.5-.9-1-1.3-1.6.2-.2.4-.4.5-.6.6.4 1.1.8 1.7 1.2.1.1.3-.1.2-.2-.5-.4-1.2-.8-1.8-1.2 0-.1.1-.1.1-.2.6.3 1.3.7 1.9.9.1.1.2-.2.1-.2-.6-.3-1.3-.6-1.9-.8.1-.2.2-.5.2-.8.7.1 1.3.1 2 .1-.2.3-.2-.2-.5-.2z" fill="#724d1c" stroke-width="none" opacity="1"></path><path id="SvgjsPath5369" d="M118 93.6c1.5 0 2.8 1.3 2.8 2.8s-1.3 2.8-2.8 2.8-2.8-1.3-2.8-2.8 1.3-2.8 2.8-2.8z" fill="#000000" stroke-width="none" opacity="1"></path><path id="SvgjsPath5370" d="M116.5 94c.6 0 1.1.5 1.1 1.1s-.5 1.1-1.1 1.1-1.1-.5-1.1-1.1.5-1.1 1.1-1.1zm3.4 4c.3 0 .6.3.6.6s-.3.6-.6.6-.6-.3-.6-.6.3-.6.6-.6z" fill="#ffffff" stroke-width="none" opacity="1"></path></g></g></g><g id="svga-group-eyesfront-right"><path id="SvgjsPath3217" d="M118.26 85.53c-6.08 0-11.02 5.6-11.02 12.5s4.93 12.5 11.02 12.5 11.02-5.6 11.02-12.5-4.94-12.5-11.02-12.5zm6.67 12.82c-1.43 1.68-3.92 2.6-4.92 2.75-1 .14-4.56.29-6.45-.04-1.34-.23-2.82-.21-3.39-.04-.57.18-1.11.32-1.11.32s.29-2.53 1.03-3.82c.75-1.28 3.66-4.38 6.95-5.03 4.92-.96 9.34 1.75 9.34 1.75s-.03 2.43-1.45 4.11z" fill="#eabfad" stroke-width="none" opacity="1" stroke="none"></path><path id="SvgjsPath3220" d="M129.64 93.58c.15-.15.04-.46-.18-.44-2.68.22-4.96-1.05-7.54-1.44-2.21-.33-4.49-.13-6.58.69-3.76 1.48-6.31 4.91-6.4 8.97 0 .01.01.02.01.03 0 .02.01.04.02.06l.03.03c.04.04.1.06.17.02 1.71-.93 4.58.11 6.43.21 1.96.1 4.02-.01 5.89-.62 1.25-.41 2.81-1.35 3.92-2.57.31.31.6.64.96.88.1.06.22-.04.19-.15-.12-.45-.5-.79-.9-1.03.21-.26.4-.52.56-.8.17.06.34.11.49.18.35.17.68.39 1.03.55.13.06.33-.07.22-.22-.25-.34-.61-.59-.99-.76-.15-.07-.32-.15-.5-.21.09-.21.17-.42.22-.63.21 0 .42.01.63.05.3.07.58.21.88.27.17.03.31-.16.18-.3-.38-.39-1.02-.48-1.59-.44.06-.41.04-.83-.06-1.25 1.02.03 2.01-.22 2.91-1.08zm-6.87 6.06c-1.77 1.03-3.9 1.3-5.91 1.34-2.46.05-5.21-.67-7.59.15.65-5.24 5.56-8.6 10.7-8.24 1.98.14 4.1 1.36 6.09 1.68-.68 2.14-1.08 3.79-3.29 5.07z" fill="#000000" stroke-width="none" opacity="1" stroke="none"></path></g></g></g><g id="svga-group-facehighlight-single"></g><g id="svga-group-eyebrows-left-move" transform="matrix(1,0,0,1,0,0)"><g id="svga-group-eyebrows-left-rotate" transform="matrix(1,0,0,1,0,0)"><g id="svga-group-eyebrows-left" transform="matrix(1,0,0,1,0,0)"><path id="SvgjsPath5622" d="M72.9 84.2c.1-.2.4-.3.6-.4.2-.1.4-.2.6-.2.4-.2.8-.4 1.2-.5.5-.1 1.2-.5 1.7-.2 1.6-.6 3.7-.2 5.1.6 1.9.2 3.9.8 5.3 1.8.1.1.2.2.2.3.3.1.5.2.8.3 1 .4 2.1.7 3.1 1.2.1 0 .2.1.3.1.3.1.4.7.2.8-.1.1-.1.2-.2.3-.8.6-1.8.2-2.6-.1-.7-.3-1.5-.6-2-1.2-.8-.3-1.4-.7-2.1-1.1-.1 0-.2-.1-.3-.1-1.2-.2-2.5-.7-3.7-1.3-.7-.1-1.3-.3-2-.3-.9-.1-1.8.2-2.8-.1h-.1c-.2.1-.4.1-.6.2-.8.2-1.5.4-2.3.4-.1 0-.2-.1-.2-.2H73s-.2-.1-.1-.3z" fill="#543c32" stroke-width="none" opacity="1" stroke="none"></path><path id="SvgjsPath5623" d="M77.4 82.3c3.1-.2 6.2 1.5 9 2.6 1.7.7 5.2.9 5.9 3 .1.3-.3.4-.5.2-.9-1.2-2.4-1.4-3.8-1.8-1.2-.4-2.3-.8-3.5-1.3-2.4-1-4.8-1.6-7.3-2.2-.1-.1 0-.4.2-.5z" fill="#634e45" stroke-width="none" opacity="1" stroke="none"></path><path id="SvgjsPath5624" d="M93.3 87.9c.3-1.4-1.8-1.9-2.8-2.3-2.4-1-4.9-2.1-7.4-2.8-1.5-.4-3.1-.7-4.6-.7-1.2 0-2.3.1-3.5.5-2 .6-3.9 1.8-5.6 3.1-.9.5-1.8 1.2-2.5 1.9-.1.1 0 .3.2.2 0 0 .1 0 .1-.1 0 .1.1.1.2.1 1.5-.7 2.8-1.6 4.3-2.2 1.5-.6 3.1-1 4.7-1.1h.7c1.9 0 3.7.4 5.4 1.2 2.4 1.1 4.6 2.6 7 3.5.4.2.9.2 1.4.2 1.1 0 2.2-.4 2.4-1.5zM78.5 83c1.6 0 3.2.4 4.8.9 2 .7 4 1.6 6 2.4.4.2 2.4.7 2.6 1.2.2.6-.2.8-.8.9-.3 0-.6-.1-.8-.1-.6-.2-1.2-.6-1.7-.9-3.1-1.6-6.3-3.5-9.8-3.7h-1c-1.1 0-2.3.1-3.5.3.5-.2 1-.4 1.6-.6.8-.3 1.7-.4 2.6-.4z" fill="#452c22" stroke-width="none" opacity="1" stroke="none"></path></g></g></g><g id="svga-group-eyebrows-right-move" transform="matrix(1,0,0,1,0,0)"><g id="svga-group-eyebrows-right-rotate" transform="matrix(1,0,0,1,0,0)"><g id="svga-group-eyebrows-right" transform="matrix(1,0,0,1,0,0)"><path id="SvgjsPath5625" d="M127.1 84.2c-.1-.2-.4-.3-.6-.4-.2-.1-.4-.2-.6-.2-.4-.2-.8-.4-1.2-.5-.5-.1-1.2-.5-1.7-.2-1.6-.6-3.7-.2-5.1.6-1.9.2-3.9.8-5.3 1.8-.1.1-.2.2-.2.3-.3.1-.5.2-.8.3-1 .4-2.1.7-3.1 1.2-.1 0-.2.1-.3.1-.3.1-.4.7-.2.8.1.1.1.2.2.3.8.6 1.8.2 2.6-.1.7-.3 1.5-.6 2-1.2.8-.3 1.4-.7 2.1-1.1.1 0 .2-.1.3-.1 1.2-.2 2.5-.7 3.7-1.3.7-.1 1.3-.3 2-.3.9-.1 1.8.2 2.8-.1h.1c.2.1.4.1.6.2.8.2 1.5.4 2.3.4.1 0 .2-.1.2-.2h.1s.2-.1.1-.3z" fill="#543c32" stroke-width="none" opacity="1" stroke="none"></path><path id="SvgjsPath5626" d="M122.6 82.3c-3.1-.2-6.2 1.5-9 2.6-1.7.7-5.2.9-5.9 3-.1.3.3.4.5.2.9-1.2 2.4-1.4 3.8-1.8 1.2-.4 2.3-.8 3.5-1.3 2.4-1 4.8-1.6 7.3-2.2.1-.1 0-.4-.2-.5z" fill="#634e45" stroke-width="none" opacity="1" stroke="none"></path><path id="SvgjsPath5627" d="M109 89.3c.5 0 1-.1 1.4-.2 2.4-.9 4.7-2.4 7-3.5 1.8-.8 3.6-1.2 5.4-1.2h.7c1.6.1 3.2.5 4.6 1.1 1.5.6 2.9 1.6 4.3 2.2.1 0 .2 0 .2-.1 0 0 .1 0 .1.1.2.1.3-.1.2-.2-.7-.7-1.6-1.4-2.5-1.9-1.7-1.3-3.6-2.4-5.6-3.1-1.1-.4-2.3-.5-3.5-.5-1.6 0-3.1.3-4.6.7-2.5.7-5 1.8-7.4 2.8-.9.4-3.1.9-2.8 2.3.4 1.2 1.5 1.6 2.5 1.5zm15.2-5.9c.5.2 1.1.3 1.6.6-1.2-.2-2.3-.3-3.5-.3h-1c-3.5.2-6.8 2.2-9.8 3.7-.6.3-1.1.7-1.7.9-.2.1-.5.1-.8.1-.5 0-1-.2-.8-.9.2-.5 2.2-1 2.6-1.2 2-.8 4-1.7 6-2.4 1.6-.5 3.2-.9 4.8-.9.8 0 1.7.1 2.6.4z" fill="#452c22" stroke-width="none" opacity="1" stroke="none"></path></g></g></g><g id="svga-group-nose-single-move" transform="matrix(1,0,0,1,0,0)"><g id="svga-group-nose-single" transform="matrix(1,0,0,1,0,0)"><path id="SvgjsPath4049" d="M93.98 107.88c-1.39 1.18-4.68 5.15-3.13 7.12.23.3.53.46.9.54 1.28.3 2.25-.22 3.57.44 1.56.78 2.79 2.24 4.6 2.49 1.47.2 2.48-.6 3.54-1.48.58-.48 1.23-1.13 1.99-1.28.58-.11 1.22.22 1.78.24.43.02.75.03 1.1-.25.82-.65.62-1.92.41-2.79-.43-1.74-1.35-3.31-2.74-4.44a.191.191 0 0 0-.27.27c.94 1.16 1.8 2.4 2.23 3.85.33 1.11.73 2.35-1.04 2.44-.32.02-.73-.21-1.08-.19-.81.02-1.52.45-2.15.91-1.72 1.26-2.89 2.58-5.13 1.37-1.8-.97-3.11-2.49-5.29-2.27-.36.06-.72.11-1.08.16-1-.47-1.35-1.15-1.03-2.02.16-.68.48-1.34.78-1.96.56-1.15 1.35-2.1 2.11-3.11.04-.03-.03-.07-.07-.04z" fill="#bc7253" stroke-width="none" opacity="1" transform="translate(0 2)" stroke="none"></path><path id="SvgjsPath4050" d="M94.51 109.69c-.22 2.72 2.11 5.18 4.89 4.87.17-.02.17-.25 0-.27-2.58-.3-4.46-1.98-4.79-4.6-.01-.07-.1-.07-.1 0z" fill="#bc7253" stroke-width="none" opacity="1" transform="translate(0 2)" stroke="none"></path><path id="SvgjsPath4051" d="M101.91 107.08c-1.01-.42-2.13-.61-3.22-.48-.83.09-2.12.58-1.83 1.67.36 1.4 2.26 1.23 3.36 1.56 1.2.36 1.63 1.5 2.68 2.04.38.2.87.17 1.17-.15 1.65-1.73-.55-3.97-2.16-4.64z" fill="#f2cebf" stroke-width="none" opacity="1" transform="translate(0 2)" stroke="none"></path></g></g><g id="svga-group-hair-front" transform="matrix(1,0,0,1,0,0)"><path id="SvgjsPath7626" d="M105.8 52.5s-.9 15.7-17.9 18.5c-12.8 2.1-27.8 6.8-25.7 20.6 0 0-2.7-.5-4.3-4.3S53.1 66.8 64 54.1s24.8-17.9 42.3-13.6c0 0 15.7 0 26.6 15s11.2 33.6 4.8 40c0 0 3.4-12.5-11.2-18.8C113 71 104 63.6 105.8 52.5z" fill="#2a232b" stroke-width="none" opacity="1" stroke="none"></path><path id="SvgjsPath7627" d="M107.2 44.8s-.9 14.6 7.3 21S133.4 76 136.6 79s3.4 7.1 3.4 7.1 1.6-4.8-2-8.9-18.7-9.2-23.5-14.8c-4.8-5.4-5.9-11.7-7.3-17.6zm2.1.8s3.7 9.1 8.7 13.9 13.3 8.7 16.2 10.5 5.3 5.5 5.3 5.5-.5-2.8-5.9-8-12.1-7.7-17.6-13.2-6.7-8.7-6.7-8.7zm-.5-3.8s10.5 2 18 9.2c7.5 7.3 10.5 14.9 11.9 19.2 0 0-6.8-11.6-13.9-18.3-7.1-6.7-16-10.1-16-10.1zM60.7 87.7s-.9-8 5.7-13c6.6-5 19-3.9 26.2-8.7 7.1-4.8 10.7-11.9 12.1-18.5 0 0-4.8 14.4-27.4 20.5S60.7 87.7 60.7 87.7zM58.1 79s.7-9.6 10.9-13.3c10.1-3.7 21-6.9 27.2-11.8s7.7-10 7.7-10-7 9.1-25 14.8S59.7 69.6 58.1 79zM63 60.5s5.3-11.6 17.6-16 21-2.5 21-2.5-24.7-.2-38.6 18.5z" fill="#3a353a" stroke-width="none" opacity="1" stroke="none"></path></g><g id="svga-group-glasses-single-move" transform="matrix(1,0,0,1,0,0)"><g id="svga-group-glasses-single" transform="matrix(1,0,0,1,0,0)"><path id="SvgjsPath6814" d="M96 95s.3-2.1-3.3-3.3c-2.7-.9-5.6-1.1-7.9-1.1s-9.7-.1-11.6.1-4.7.4-5.7 3.2.3 7.5 4.1 9.8c3.8 2.3 11.6 2.5 16.6 1 5.1-1.5 7.4-5 7.8-9.7z" fill="#ffffff" stroke-width="none" opacity="0.44"></path><path id="SvgjsPath6815" d="M104 95s-.3-2.1 3.3-3.3c2.7-.9 5.6-1.1 7.9-1.1s9.7-.1 11.6.1c1.9.2 4.7.4 5.6 3.2.9 2.8-.3 7.5-4.1 9.8-3.8 2.3-11.6 2.5-16.6 1-5-1.5-7.3-5-7.7-9.7z" fill="#ffffff" stroke-width="none" opacity="0.44"></path><path id="SvgjsPath6816" d="M96 94.4s3.4-1.6 8 0v.9s-4.9-.9-8.1 0l.1-.9z" fill="#070201" stroke-width="none" opacity="1"></path><path id="SvgjsPath6817" d="M80.8 106c-3.9 0-7.3-.7-9.4-2-3.4-2.1-4.7-6-4.5-8.7v-.1h-2.3v-1.9h2.8v-.1c1.2-2.3 3.8-2.6 5.5-2.8h.2c.8-.1 2.7-.1 5.7-.1h6c2.3 0 5.2.1 8 1.1 3.7 1.3 3.6 3.4 3.5 3.7-.5 5.2-3.2 8.6-8 10-2.1.6-4.7.9-7.5.9zm-1.9-15c-3 0-4.9 0-5.7.1H73c-1.9.2-4.3.4-5.2 2.9-.9 2.8.4 7.2 3.9 9.4 2 1.2 5.2 1.9 9 1.9 2.6 0 5.3-.3 7.3-1 4.6-1.4 7.1-4.5 7.5-9.4 0-.2.1-1.8-3.1-2.9-2.7-.9-5.6-1-7.8-1h-5.7zm40.3 15c-2.7 0-5.4-.4-7.5-1-4.8-1.5-7.5-4.8-8-10 0-.2-.2-2.4 3.5-3.7 2.8-.9 5.8-1.1 8-1.1h6c3 0 4.9 0 5.7.1h.2c1.7.2 4.4.4 5.5 2.8v.1h2.8v1.9h-2.3v.1c.2 2.7-1.1 6.6-4.5 8.7-2.1 1.4-5.6 2.1-9.4 2.1zm1.9-15h-5.9c-2.2 0-5.1.1-7.8 1-3.2 1.1-3.1 2.7-3.1 2.9.4 5 2.9 8 7.5 9.4 2 .6 4.7 1 7.3 1 3.8 0 7.1-.7 9-1.9 3.5-2.2 4.9-6.6 3.9-9.4-.8-2.5-3.2-2.7-5.2-2.9h-.2c-.6-.1-2.5-.1-5.5-.1z" fill="#26120b" stroke-width="none" opacity="1"></path><path id="SvgjsPath6818" d="M121.2 90.1v.2c3 0 4.8 0 5.7.1h.2c1.7.2 4.3.4 5.4 2.7l.1.1h2.7V95H133v.2c.2 2.7-1.1 6.5-4.5 8.6-2.1 1.3-5.5 2-9.3 2-2.7 0-5.4-.4-7.5-1-4.8-1.5-7.4-4.8-7.9-9.9 0-.2-.2-2.3 3.5-3.5 2.8-.9 5.7-1.1 8-1.1h6.1l-.2-.2m-2 15.3c3.8 0 7.1-.7 9.1-1.9 3.6-2.2 4.9-6.7 4-9.6-.9-2.6-3.4-2.8-5.3-3h-.2c-.8-.1-2.6-.1-5.7-.1h-5.9c-2.2 0-5.1.1-7.8 1-3.2 1.1-3.2 2.8-3.1 3 .4 5 2.9 8.1 7.6 9.5 2 .8 4.6 1.1 7.3 1.1m2-15.3h-6c-2.3 0-5.2.1-8 1.1-3.8 1.3-3.7 3.5-3.6 3.8.5 5.2 3.2 8.7 8.1 10.1 2.1.7 4.8 1 7.6 1 3.6 0 7.2-.6 9.5-2.1 3.2-2 4.8-5.8 4.6-8.8h2.3V93h-2.8c-1.2-2.4-3.8-2.7-5.6-2.8h-.2c-1.2 0-3.5-.1-5.9-.1zm-2 15.1c-2.6 0-5.2-.3-7.3-1-4.6-1.4-7-4.4-7.4-9.3 0-.1-.1-1.7 3-2.8 2.7-.9 5.5-1 7.7-1h6c2.4 0 4.7 0 5.6.1h.2c1.9.2 4.2.4 5.1 2.8.9 2.7-.4 7.1-3.9 9.3-2.2 1.3-5.6 1.9-9 1.9zM78.8 90.4h6.1c2.2 0 5.2.1 8 1.1 3.6 1.2 3.5 3.3 3.5 3.5-.5 5.1-3.1 8.5-7.9 9.9-2.1.7-4.8 1-7.5 1-3.9 0-7.3-.7-9.3-2-3.3-2.1-4.7-5.9-4.5-8.6v-.2h-2.3v-1.7H67.7l.1-.1c1.1-2.3 3.7-2.5 5.4-2.7h.2c.6-.2 2.4-.2 5.4-.2m2 15c2.7 0 5.3-.3 7.3-1 4.7-1.4 7.1-4.5 7.6-9.6 0-.2.1-1.9-3.2-3-2.7-.9-5.6-1-7.8-1h-5.9c-3 0-4.9 0-5.7.1l-.1.1c-1.9.2-4.4.4-5.3 3-.9 2.8.4 7.3 4 9.6 2 1.1 5.4 1.8 9.1 1.8m-2-15.3c-2.4 0-4.7 0-5.7.1h-.2c-1.8.2-4.4.4-5.6 2.8h-2.8v2.2h2.3c-.2 3 1.3 6.8 4.6 8.8 2.3 1.4 5.9 2.1 9.5 2.1 2.7 0 5.4-.4 7.6-1 4.9-1.5 7.6-4.9 8.1-10.1 0-.2.2-2.5-3.6-3.8-2.8-1-5.8-1.1-8-1.1h-6.2zm2 15.1c-3.4 0-6.8-.6-9-1.9-3.5-2.2-4.8-6.5-3.9-9.3.8-2.4 3.2-2.6 5.1-2.8h.2c.9-.1 3.3-.1 5.6-.1h6c2.2 0 5.1.1 7.7 1 3.1 1.1 3 2.7 3 2.8-.4 4.9-2.9 7.9-7.4 9.3-2 .7-4.6 1-7.3 1z" fill="#070201" stroke-width="none" opacity="1"></path></g></g></g></g></g><rect id="svga-credit-rect" width="200" height="15" x="0" y="185" fill="#ecf0f1" opacity="0.5" style="display: none;"></rect><text id="svga-credit-text" font-family="Avenir Next, Roboto, Helvetica, Arial, sans-serif" font-size="10px" text-anchor="start" font-weight="400" size="10px" anchor="start" weight="400" fill="#333333" x="33.40447998046875" y="182.60824704170227" style="display: none;"><tspan id="SvgjsTspan2896" dy="13" x="33.40447998046875">Created on AvatarMaker.com</tspan></text></g></svg>