<?xml version="1.0" encoding="UTF-8"?>
<svg id="Layer_1" data-name="Layer 1" xmlns="http://www.w3.org/2000/svg" version="1.1" viewBox="0 0 600 600">
  <defs>
    <style>
      .cls-1 {
        fill: #f5f7ff;
      }

      .cls-1, .cls-2, .cls-3, .cls-4, .cls-5, .cls-6, .cls-7, .cls-8, .cls-9, .cls-10, .cls-11, .cls-12, .cls-13, .cls-14, .cls-15, .cls-16, .cls-17, .cls-18, .cls-19, .cls-20, .cls-21, .cls-22, .cls-23, .cls-24, .cls-25, .cls-26, .cls-27, .cls-28, .cls-29 {
        stroke-width: 0px;
      }

      .cls-2 {
        fill: #ecf0f1;
        opacity: .5;
      }

      .cls-2, .cls-5, .cls-30, .cls-31, .cls-28 {
        isolation: isolate;
      }

      .cls-2, .cls-31 {
        display: none;
      }

      .cls-3 {
        fill: #916e41;
      }

      .cls-4 {
        fill: #724d1c;
      }

      .cls-5 {
        opacity: .4;
      }

      .cls-5, .cls-26 {
        fill: #fff;
      }

      .cls-6 {
        fill: #3a353a;
      }

      .cls-30 {
        fill: #333;
        font-family: AvenirNext-Regular, 'Avenir Next';
        font-size: 30px;
      }

      .cls-7 {
        fill: #1b141c;
      }

      .cls-8 {
        fill: #eabfad;
      }

      .cls-9 {
        fill: #543c32;
      }

      .cls-10 {
        fill: #000;
      }

      .cls-11 {
        fill: #08084b;
      }

      .cls-12 {
        fill: #26120b;
      }

      .cls-13 {
        fill: #ced5f0;
      }

      .cls-14 {
        fill: #070201;
      }

      .cls-15 {
        fill: #221b23;
      }

      .cls-16 {
        fill: #cb5f6c;
      }

      .cls-17 {
        fill: #bc7253;
      }

      .cls-18, .cls-28 {
        fill: #cb896e;
      }

      .cls-19 {
        fill: #00003c;
      }

      .cls-20 {
        fill: #00001d;
      }

      .cls-21 {
        fill: #dba38c;
      }

      .cls-22 {
        fill: #da7c87;
      }

      .cls-23 {
        fill: #634e45;
      }

      .cls-24 {
        fill: #f2cebf;
      }

      .cls-25 {
        fill: #2a232b;
      }

      .cls-27 {
        fill: #efefef;
      }

      .cls-28 {
        opacity: .6;
      }

      .cls-29 {
        fill: #452c22;
      }
    </style>
  </defs>
  <g id="svga-group-wrapper">
    <g id="svga-group-backs-single">
      <path id="SvgjsPath8308" class="cls-1" d="M0,0h600v600H0V0Z"/>
      <path id="SvgjsPath8309" class="cls-13" d="M0,0h54.6v600H0V0ZM109.2,0h54.6v600h-54.6V0ZM218.1,0h54.6v600h-54.6V0ZM327.3,0h54.6v600h-54.6V0h0ZM436.2,0h54.6v600h-54.6V0ZM545.4,0h54.6v600h-54.6V0h0Z"/>
    </g>
    <g id="svga-group-humanwrap-move">
      <g id="svga-group-humanwrap">
        <g id="svga-group-hair-back-move">
          <g id="svga-group-hair-back">
            <path id="SvgjsPath7628" class="cls-15" d="M313.2,98.7s-52.2-52.5-142.2,1.8c-90,54.3-72.3,186-44.7,239.4s18.6,109.5-18,105.6c0,0,3.9,25.2,47.1,26.1,0,0,18,12.9,47.1,4.2,0,0,4.8,12.9,36.6,4.2s121.8-3.3,121.8-3.3c0,0,21,11.4,42.3,2.4,0,0,33.3,8.1,48-6.6,0,0,35.7,9,48.6-18,0,0-34.8-.9-35.7-32.4s6.6-45.6,25.2-83.7,17.1-122.7-13.8-173.1-85.2-71.4-114.6-73.2-47.7,6.6-47.7,6.6h0Z"/>
            <path id="SvgjsPath7629" class="cls-25" d="M318.6,106.2s41.4-22.5,105.3,16.2,72.9,134.4,68.1,175.5-46.2,84-41.4,118.2c4.8,33.9,25.8,42,38.7,42,0,0-28.2,12.9-41.4-12.9s-12.3-42.9,6.6-74.4,37.2-68.7,31.5-105.3-22.8-101.1-61.5-130.2-72.6-33-105.9-29.1h0ZM321.9,114s65.7-3.3,104.7,39.3c31.8,34.8,43.8,64.5,43.2,127.2-.6,45.9-31.5,87.9-40.5,112.2s-7.8,63.3,14.7,75.3c0,0-24.3.6-32.1-34.2s25.2-75.9,35.7-91.2,15.6-67.5,9.3-102.6c-7.5-41.1-17.7-66.9-61.5-96.3s-73.5-29.7-73.5-29.7h0ZM307.5,103.2s-24.3-12-78.9-6.9c-54.6,5.4-100.2,57.6-102.3,119.1-2.1,61.5,12.9,115.2,35.7,157.5,22.8,42.3-3,86.4-33.3,85.5,0,0,40.8-24.3,28.8-69s-31.2-56.7-37.2-135.6,13.5-109.8,38.7-132,74.1-48,148.5-18.6h0ZM303.6,113.1s-63.6-20.4-113.7,31.8c-50.1,52.2-56.7,127.2-37.2,168.3s47.7,91.8,44.7,119.7-37.2,36.3-37.2,36.3c0,0,31.2-22.8,23.4-63s-35.7-75.9-44.7-110.7-9-75,12-119.1,70.2-92.1,152.7-63.3h0Z"/>
            <path id="SvgjsPath7630" class="cls-7" d="M242.4,128.4s-67.8,9-82.2,90.6c-14.4,81.6,14.4,126.3,27.3,147.6,12.9,21.3,27.3,43.2,26.7,66.3s-9.9,38.1-9.9,38.1c0,0,17.4-13.8,18.9-37.2s-11.4-54-16.8-67.8c-5.4-13.8-30.3-147.6-10.8-183.9s33-47.1,46.8-53.7h0ZM350.7,134.4s36,11.4,57.3,36.6,37.2,73.8,27.3,116.4-46.5,113.4-47.1,133.8c-.6,20.4,4.8,39.6,15,58.2,0,0-27.9-14.7-26.4-54.3,1.5-39.6,21.3-82.8,29.7-109.5,0,0,14.1-71.1-6.9-113.4-21-42.3-51.3-68.4-51.3-68.4l2.4.6h0ZM221.7,474s13.2-23.1,10.2-69.3c0,0,9.9,12.9,11.7,39.6,2.1,26.7-21.9,29.7-21.9,29.7h0ZM373.2,409.2s-7.8,36.6,4.8,66c0,0-17.4-7.8-20.1-31.8-2.4-23.7,15.3-34.2,15.3-34.2Z"/>
          </g>
        </g>
        <g id="svga-group-humanbody-back">
          <path id="SvgjsPath3152" class="cls-8" d="M505.5,658.5l-5.1-64.5s2.1-27-26.4-45.9-70.2-30.3-88.5-42.6c-18.3-12.3-27.6-13.5-27-50.7s2.7-120.9,2.7-120.9h-122.4s2.1,83.7,2.7,120.9c.6,37.2-8.7,38.4-27,50.7-18.3,12.3-60,23.7-88.5,42.6s-26.4,45.9-26.4,45.9l-4.8,64.5h410.7Z"/>
        </g>
        <g id="svga-group-chinshadow-single">
          <path id="SvgjsPath7667" class="cls-28" d="M249.3,470.7c15,15.6,36.3,22.2,50.7,22.2s36-6.3,50.7-22.2c2.6-2.8,5.2-5.7,7.8-8.9,0-2.2,0-4.5,0-7,.6-37.2,2.7-120.9,2.7-120.9h-122.4s2.1,83.7,2.7,120.9c0,2.6,0,4.9,0,7.1,2.6,3.1,5.3,6,7.8,8.8Z"/>
        </g>
        <g id="svga-group-humanbody-front">
          <path id="SvgjsPath3153" class="cls-18" d="M221.4,527.7c15.3,8.7,35.4,15.6,52.8,17.1,1.2,0,1.2-1.8.3-2.1-8.4-3.3-17.7-5.1-26.4-7.8-8.7-2.7-17.4-6-26.4-8.1-.3-.3-.9.6-.3.9h0ZM327,546.3c15.9-1.8,33.9-9,47.7-17.4.9-.6.3-1.8-.6-1.5-7.8,2.7-15.6,6-23.4,8.7-7.8,2.7-16.2,4.5-24,7.5-1.5.3-1.5,2.7.3,2.7h0Z"/>
          <path id="SvgjsPath3154" class="cls-17" d="M505.2,658.2l-6.3-64.2c0-6.6-1.5-13.5-4.5-19.8-2.7-6.3-6.9-11.7-11.7-16.5s-10.5-8.4-16.5-12-12.3-6.6-18.6-9.3c-12.6-5.7-25.8-10.8-38.7-16.2-6.6-2.7-12.9-5.7-19.2-9-3.3-1.8-6.3-3.6-9-5.7-3-1.8-6-3.6-9-5.7s-6-4.5-8.4-7.8c-2.4-3-3.9-6.6-5.1-10.2-2.1-7.2-2.4-14.4-2.4-21.6,0-14.1.6-28.2.9-42.3.6-28.2,1.8-56.1,2.7-84l1.8,1.8-61.2-.6-61.2-.3.9-.9,2.1,84c.3,14.1.9,27.9,1.2,42,0,7.2-.3,14.1-2.4,21.3-.9,3.6-2.7,6.9-4.8,9.9-2.4,3-5.1,5.4-8.1,7.5s-6,3.9-8.7,6c-2.7,1.8-5.7,3.9-9,5.7-6.3,3.6-12.6,6.3-19.2,9.3-12.9,5.7-25.8,10.8-38.4,16.8-6.3,3-12.6,6.3-18.3,9.6-6,3.6-11.4,7.2-16.2,12-4.8,4.8-8.7,10.2-11.4,16.2-1.2,3-2.4,6.3-3,9.3-.6,3.3-1.2,6.6-.9,9.6v.6l-4.5,64.5-3-3.3,102,.3c33.9,0,68.1.3,102.3.6l102.6.9,103.2,1.5h0ZM505.8,658.8l-102,1.2-102.6.9c-34.2.3-68.7.6-103.2.6l-103.2.3h-3.3l.3-3.3,5.1-64.5v.3c-.3-15.3,6.6-29.4,17.1-39.9,5.1-5.1,11.4-9.3,17.4-12.9s12.6-6.6,18.9-9.6c12.9-6,26.1-11.1,39-16.2,6.3-2.7,12.9-5.4,18.9-8.7,3-1.5,5.7-3.3,9-5.4,3-1.8,6-3.6,8.7-5.7,2.7-1.8,5.4-4.2,7.2-6.6,2.1-2.7,3.6-5.7,4.5-8.7,1.8-6.3,2.4-13.5,2.4-20.4,0-13.8-.3-27.9-.6-42l-1.8-84v-.9h.9l61.2-.3,61.2-.6h1.8v1.8c-.3,27.9-.6,56.1-1.2,84-.3,14.1-.6,28.2-.6,42,.3,6.9.6,13.8,2.4,20.1.9,3.3,2.4,6,4.2,8.7,1.8,2.4,4.2,4.8,7.2,6.6,2.7,1.8,5.7,3.9,8.7,5.7,3,2.1,5.7,3.9,8.7,5.4,6,3.3,12.3,6.3,18.9,9,12.9,5.4,25.8,10.8,38.7,16.8,6.3,3,12.6,6.3,18.6,9.9s12,7.8,17.1,12.9c10.2,10.2,16.8,24.3,16.2,39v-.3l4.2,64.8h0ZM167.4,657.6l5.7-41.4.3,41.4h-6ZM433.2,657.6l-5.7-41.4-.3,41.4h6Z"/>
        </g>
        <g id="svga-group-clothes-single">
          <path id="SvgjsPath8165" class="cls-27" d="M367.2,660l8.1-80.4s-42.9,48-75,57.3c0,0-49.5-27.9-78.9-57.3l11.7,80.4h134.1,0Z"/>
          <path id="SvgjsPath8166" class="cls-20" d="M375.9,578.7c-.6-.6-1.2-.3-1.8,0-10.9,11.5-22.4,22.4-34.5,32.7-6,5.1-12.3,9.9-18.9,14.4-6.6,4.2-13.5,8.1-20.7,10.5-6.9-3.9-13.8-8.1-20.7-12.6s-13.5-9-20.1-13.8c-13.2-9.6-25.8-19.8-37.2-31.2-.3-.3-.6-.3-.9-.3-.6,0-.9.6-.9,1.2,1.8,13.5,3.6,26.7,5.4,40.2,1.8,13.5,3.6,26.7,5.7,40.2,0,.6.9,1.2,1.5,1.2h33.9l33.6-.3,33.6-.3,33.3-.6,4.8-39.9,4.5-40.5c0-.3-.3-.6-.6-.9h0ZM370.2,619.2l-3.3,40.5-33.9-.6-33.6-.3-33.6-.3h-32.1c-1.8-12.9-3.9-25.8-5.7-39-1.8-12.3-3.6-24.6-5.7-36.9,11.1,10.5,23.4,19.8,35.7,28.5,6.6,4.8,13.5,9.3,20.4,13.5s13.8,8.7,21,12.9h.3c7.8-2.4,14.7-6,21.6-10.2s13.2-9,19.5-13.8c6.3-5.1,12.3-10.2,18-15.9,4.8-4.5,9.6-9.6,14.1-14.4-.6,12-1.5,24-2.7,36h0Z"/>
          <path id="SvgjsPath8167" class="cls-19" d="M227.1,503.7s3.6-11.1,5.1-19.2c1.8-8.1,1.2-27.9,1.2-27.9,0,0-5.7,12.3-13.8,19.2s-39.6,27.3-39.6,27.3l6.9,4.8s-73.8,26.1-78.9,29.7-5.7,11.1-5.7,11.1l-6.3,1.8c-12.3,50.4-12.3,109.8-12.3,109.8h163.5s-6.9-49.8-9.9-69c-2.7-19.5-10.2-87.6-10.2-87.6h0ZM505.2,550.2l-6.3-1.8s-.6-7.5-5.7-11.1-78.9-29.7-78.9-29.7l6.9-4.8s-31.2-20.4-39.6-27.3c-8.1-6.9-13.8-19.2-13.8-19.2,0,0-.6,19.8,1.2,27.9s5.1,19.2,5.1,19.2c0,0-7.5,67.8-10.5,87s-9.9,69-9.9,69h163.5c0,.6,0-58.5-12-109.2Z"/>
          <path id="SvgjsPath8168" class="cls-11" d="M420.9,537c-5.4-5.7-12.6-9.6-18.6-15s-10.8-11.7-16.2-17.7c-.6-.6-1.8.3-1.2.9,3.9,7.5,9.3,14.1,15.3,20.1s11.7,11.7,18.9,14.1c-15.6,28.5-25.2,63.6-28.8,95.7,0,.6.9.9,1.2.3,3.6-16.5,6.6-33,11.7-49.2,4.8-16.2,12.3-31.2,18.3-47.1.3-.3,0-.6-.3-.9.3-.3,0-.6-.3-1.2h0ZM414.9,501.3c-6.3-3.6-12.9-6.6-18.9-10.8-6.6-4.5-12.6-9.9-18.3-15.6-.6-.6-1.2.3-.6.6,9.3,11.7,22.5,23.4,37.2,27.3.9.6,1.5-.9.6-1.5ZM471.6,532.8c-17.1-7.2-34.8-13.8-52.5-19.2-.6-.3-.9.6-.3.9,10.5,5.1,21.3,9.9,32.1,14.4,13.8,5.7,30.6,9.3,38.1,23.4.6,1.2,2.4.3,2.1-.9-1.8-10.5-10.5-15-19.5-18.6h0ZM500.1,558c-.3-1.2-2.1-.9-2.1.3,2.1,16.2,5.7,31.8,7.5,48s1.2,32.7,3.3,48.6c0,1.2,1.5,1.2,1.8,0,3.6-29.7-1.2-68.4-10.5-96.9h0ZM222.3,507.3c1.5-3,1.8-6.6,2.4-9.9.9-3.6,2.1-7.2,3-10.8.3-.6-.6-.9-.9-.3-2.1,3-3.3,6.3-4.8,9.6-1.2,3.3-2.7,7.2-2.4,10.8.3,1.2,2.1,2.1,2.7.6h0ZM221.4,512.1c0-.3-.6-.3-.6,0-.3,19.5,3.6,39.6,6.6,59.1,3,21.3,6.3,42.9,12,63.9,0,.3.3,0,.3,0-2.1-19.8-5.4-39.3-8.4-58.8-3.6-21-4.5-43.2-9.9-64.2h0ZM206.1,512.1c-8.4,9.3-16.2,17.7-26.4,24.9-1.2.9-.9,2.7.3,3,4.2,13.2,10.2,25.5,14.4,38.7,4.2,13.5,6.9,27.6,10.5,41.1.3.9,1.5.6,1.5-.3-1.5-26.1-9.6-57.6-23.7-80.1,9.9-6.9,19.5-15.6,25.2-26.1,0-1.2-1.2-2.1-1.8-1.2ZM108.3,545.4c3.9,17.1,11.7,34.2,17.7,50.7.3.9,1.5.6,1.5-.3-3.3-16.8-7.8-36.6-16.8-51.3-1.2-1.2-2.7-.3-2.4.9h0Z"/>
          <path id="SvgjsPath8169" class="cls-20" d="M242.1,601.2c-.9-6.6-1.8-12.9-2.7-19.5-3.3-25.8-6.6-51.9-10.2-77.7,1.2-3.6,2.1-7.5,3-11.1.3-.9.6-1.8.6-2.7.9-1.2,2.7-3.3,3.9-6,1.8-4.2,3.3-11.4,3.6-18.6s0-14.4,0-14.4c0,0-7.2,3.3-7.5,5.4-2.7,5.4-5.7,10.2-9.6,14.7-3.6,4.5-8.7,7.8-13.5,11.4-9,6.3-18,12.3-27.6,18-.9.6-1.8.9-2.7,1.5l-.3.3c-.6.6-.3,1.5.3,1.8,1.2.9,2.4,1.8,3.6,2.4l.6.6c-14.4,4.8-28.8,9.6-43.2,14.7-7.5,2.7-15.3,5.4-22.8,8.4l-5.7,2.4-3,1.2c-.9.6-2.1.9-3,1.8-2.1,1.5-3.6,3.6-4.5,5.7-.6,1.5-1.2,3.3-1.5,4.8l-4.8,1.2c-.9.3-1.5.9-1.8,1.8-4.2,18-6.6,36.6-8.4,54.9-.6,9.3-1.5,18.3-1.5,27.6s-.3,9.3-.3,13.8v13.8l81,1.8,41.4.6c13.8.3,27.6.3,41.4.3h.6c1.8-.3,3-1.8,2.7-3.6l-5.4-39-2.7-18.3h0ZM84,659.7c.3-.3,0-.9.3-1.5v-1.8l.3-3.3.3-6.9c.3-4.5.6-9.3,1.2-13.8.9-9.3,1.8-18.3,3-27.3s2.7-18.3,4.2-27.3c1.5-8.7,3.3-17.1,5.4-25.5l4.8-1.2h.3c1.5,3.6,3.3,7.2,4.5,11.1l2.7,6.6,2.4,6.9c3,9,5.7,18.3,7.8,27.6,2.4,9.3,4.2,18.6,6,28.2.9,4.8,1.5,9.6,2.1,14.4.6,4.2,1.2,8.7,1.5,13.2l-46.8.6h0ZM207,657.3l-40.5.6-36,.9c0-9.3-.6-18.6-1.8-27.6-1.2-9.6-3-19.2-5.1-28.5-2.4-9.3-5.1-18.6-8.7-27.6-3-8.4-6.9-16.2-11.4-24,.6-.3,1.2-1.2,1.2-1.8.3-3.3,1.8-6.9,4.2-8.7.6-.6,1.2-.6,2.1-1.2l2.7-1.2,5.7-2.4,22.5-8.7,45-17.1c3.6,1.8,7.5,3.3,11.7,4.5-1.5,1.2-3,2.7-4.5,3.9-3.6,3-7.5,6-11.1,9-3.9,2.7-7.8,5.4-11.7,7.8-1.2.6-1.5,2.1-1.2,3.3,3.9,9.9,7.8,19.8,11.4,29.7,3.6,9.9,6.9,20.1,10.5,30.3,3.3,10.2,6.3,20.4,9.3,30.6,2.7,9.3,4.8,18.9,7.2,28.5-.6-.3-.9-.3-1.5-.3h0ZM208.8,657.3c-.9-9.9-2.1-19.5-3.9-29.1-2.1-10.5-4.5-21-7.5-31.5s-6.3-20.7-9.9-30.9c-3.6-9.3-7.2-18.6-11.4-27.9,3.6-2.4,6.6-4.8,9.9-7.5,3.6-3,7.2-6.3,10.8-9.9,6.9-6.9,13.5-13.8,19.5-21.3-5.7,5.1-11.1,9.9-16.8,14.7-3.6-2.7-7.2-4.8-11.1-6.9,0,0,0-.3-.3-.3l-3.3-2.1c-.6-.3-1.2-.9-2.1-1.2.3-.3.6-.3.9-.6,9-6,18-12.3,27-18.6,4.8-3.6,9.9-6.9,14.1-11.4,3-3.6,5.7-7.5,8.1-11.4,0,6.6-.3,13.2-.9,19.5-.6,3.9-1.5,7.5-2.7,11.4s-2.4,7.5-3.6,11.4v.6c2.4,26.1,5.4,52.2,8.4,78.3.6,6.6,1.5,13.2,2.4,19.5l2.7,19.5,5.1,35.4c-12,0-23.7,0-35.4.3h0ZM517.5,632.4c-.3-9.3-.9-18.3-1.8-27.6-1.5-18.3-4.2-36.9-8.4-54.9-.3-.9-.9-1.5-1.8-1.8l-4.8-1.2c-.3-1.8-.6-3.3-1.5-4.8-.9-2.1-2.4-4.2-4.5-5.7-.9-.9-2.1-1.2-3.3-1.8l-3-1.2-5.7-2.4c-7.5-3-15.3-5.7-22.8-8.4-14.4-5.1-28.8-9.9-43.2-14.7l.6-.6c1.2-.9,2.4-1.5,3.6-2.4.6-.3.9-1.2.3-1.8,0-.3-.3-.3-.3-.3-.9-.6-1.8-1.2-2.7-1.5-9.3-5.7-18.6-11.7-27.3-18-4.8-3.6-9.9-6.9-13.5-11.4-3.9-4.5-6.9-9.6-9.6-14.7,0-.3-.3-.3-.3-.3-1.5-1.8-7.2-3.3-7.2-3.3-.3,8.7-.3,22.2,1.5,29.1,1.2,5.1,5.4,10.8,7.2,13.5.9,3,1.5,6,2.4,8.7-3.6,25.8-6.9,51.6-10.2,77.7-.9,6.6-1.8,12.9-2.7,19.5l-3,19.5-5.4,39c-.3,1.8.9,3.3,2.7,3.6h.6c13.8,0,27.6,0,41.4-.3l41.4-.6,81-1.8c.3-.9,0-1.5.3-1.8v-12c.3-6.3.3-10.8,0-15.3h0ZM357.3,656.7l5.1-35.4,2.7-19.5c.9-6.6,1.8-12.9,2.4-19.5,3-26.1,5.7-52.2,8.4-78.3v-.6c-1.2-3.6-2.4-7.5-3.6-11.4-.9-3.9-2.1-7.5-2.7-11.4-.6-6.3-.9-12.9-.9-19.5,2.4,4.2,5.1,7.8,8.1,11.4,3.9,4.8,9.3,8.1,14.1,11.4,9,6.3,18,12.3,27,18.6.3.3.6.3.9.6-.6.3-1.2.9-2.1,1.2l-3.3,2.1-.3.3c-3.9,2.1-7.5,4.2-11.1,6.9-5.7-4.8-11.4-9.6-16.8-14.7,6,7.5,12.6,14.7,19.5,21.3,3.3,3.3,6.9,6.6,10.8,9.9,3.3,2.7,6.3,5.1,9.9,7.5-4.2,9.3-7.8,18.3-11.4,27.9-3.6,10.2-7.2,20.4-9.9,30.9-3,10.2-5.4,21-7.5,31.5-1.8,9.6-3.3,19.5-3.9,29.1-12,0-23.7,0-35.4-.3h0ZM434.7,657.9l-40.5-.6h-1.5c2.4-9.6,4.5-18.9,7.2-28.5,2.7-10.2,6-20.7,9.3-30.6,3.3-10.2,6.6-20.4,10.5-30.3,3.6-9.9,7.5-20.1,11.7-29.7.6-1.2,0-2.7-1.2-3.3-3.9-2.1-7.8-4.8-11.7-7.8-3.9-2.7-7.5-5.7-11.1-9-1.5-1.2-3-2.7-4.5-3.9,3.9-1.2,7.8-3,11.7-4.5l45,17.1,22.5,8.7,5.7,2.4,2.7,1.2c.9.3,1.5.6,2.1,1.2,2.4,1.8,3.9,5.4,4.2,8.7,0,.9.6,1.5,1.2,1.8-4.2,7.8-8.1,15.6-11.4,24-3.6,9-6.3,18.3-8.7,27.6-2.1,9.3-4.2,18.9-5.1,28.5-1.2,9.3-1.8,18.3-1.8,27.6l-36.3-.6h0ZM470.7,658.8c.6-4.5.9-8.7,1.8-13.2.6-4.8,1.5-9.6,2.1-14.4,1.8-9.6,3.6-18.9,5.7-28.2,2.1-9.3,4.8-18.6,7.8-27.6l2.4-6.9,2.7-6.6c1.2-3.6,3-7.2,4.5-11.1h.3l4.8,1.2c1.8,8.4,3.9,16.8,5.4,25.5,1.5,9,3,18,4.2,27.3,1.2,9,2.1,18.3,2.7,27.3.3,4.5.9,9.3,1.2,13.8l.3,6.9.3,3.3v1.8c0,.6,0,1.2.3,1.5l-46.5-.6h0Z"/>
        </g>
        <g id="svga-group-head">
          <g id="svga-group-ears-left-move">
            <g id="svga-group-ears-left">
              <path id="SvgjsPath7945" class="cls-8" d="M193.2,292.2s-12.6-13.2-16.2-17.4c-3.9-4.2-8.7-13.2-14.1-11.7s-3.6,7.8-3.9,16.2c-.3,8.7.9,25.8,6.3,35.1s8.1,12.6,9.9,22.5,7.8,11.7,11.4,9,12-19.8,12.3-28.8c.3-8.7-3.3-21-5.7-24.9h0Z"/>
              <path id="SvgjsPath7946" class="cls-21" d="M195.9,298.2c.6,2.1,1.2,4.2,1.8,6.6,1.2,4.5,1.8,9,1.8,13.8s-.6,4.5-.9,6.6c-.6,2.1-1.2,3.9-1.8,6-1.5,3.9-3,7.2-4.8,10.5-.9,1.8-1.8,3.3-3,4.8-.6.6-1.2,1.5-2.1,2.1s-1.8.9-2.7.9c-1.8.3-3.9-.3-5.7-1.8-1.8-1.5-3.3-3.9-3.9-6.3l-.6-1.8-.3-1.8c-.3-1.2-.3-2.1-.6-3.3-.3-2.1-.9-4.2-1.8-6-1.5-3.9-3.6-7.5-5.7-11.4-1.2-1.8-2.1-3.9-3-6.3-.9-2.1-1.2-4.5-1.8-6.6-.9-4.5-1.5-9-2.1-13.5-.3-4.5-.6-9-.6-13.2s-.3-4.2-.3-6.6,0-2.4.3-3.6c.3-1.2.6-2.4,1.2-3.3.6-.9,1.5-1.5,2.4-1.8s1.8-.6,2.7-.3c2.1.3,3.9,1.5,5.4,3,3,3,5.4,6.9,7.8,9.6,5.4,6.3,10.5,12.6,15.9,18.3.9,1.2,1.8,3.3,2.4,5.4h0ZM176.4,276c-3-3-5.4-6.3-8.1-8.7-1.2-1.2-2.7-2.1-3.9-2.1s-2.7.3-3.3,1.2c-.9.9-1.2,2.7-1.2,4.8v6.6c0,2.4-.3,4.2-.3,6.6s0,4.2.3,6.6c.3,4.5.9,8.7,2.1,13.2,1.2,4.2,2.7,8.4,5.1,11.7,2.1,3.6,4.8,6.9,6.6,11.4.9,2.1,1.8,4.5,2.4,6.6.3,1.2.6,2.4.9,3.3l.3,1.5.3,1.5c.6,1.8,1.5,3.3,2.7,4.2s2.4,1.2,3.6.9c.6,0,1.2-.3,1.8-.6.6-.3.9-.9,1.5-1.5.9-1.2,1.8-2.7,2.7-4.2,1.8-3,3.3-6.3,4.8-9.9,1.5-3.6,2.7-6.9,3.3-10.8.6-3.9,0-8.4-.6-12.9-.3-2.1-.9-4.5-1.5-6.6s-1.5-4.2-2.4-6c-5.7-6.3-11.4-11.4-17.1-16.8Z"/>
              <path id="SvgjsPath7947" class="cls-18" d="M160.2,276.6c1.5-5.4,6-2.7,8.7,1.2,5.1,7.5,9,18.6,10.2,28.2,0,.3-.3.6-.3.3-.3.3-.6.3-.6-.3-3.3-1.2-4.5-.6-3.6,2.1,0,.9.3,1.8.9,2.4.6,1.5,1.5,3,2.4,4.2,1.5,2.4,3.3,4.2,4.8,6.6.6.9,0,1.5-.6,1.2-3.9-2.7-10.8-12.3-9-18.6.6-2.4,2.7-3,4.2-1.8-3-10.2-11.1-33.9-16.2-24.9-.3.3-.9-.3-.9-.6h0Z"/>
              <path id="SvgjsPath7948" class="cls-18" d="M168.3,277.8c-3,5.7-3.9,12.3-2.4,20.1.9,4.2,8.4,26.7,13.8,23.7.6-.3,1.2.9.6,1.5-5.7,5.1-12-12.6-13.8-18.3-3.3-9.6-3.9-21,1.5-27.3,0-.3.6,0,.3.3Z"/>
            </g>
          </g>
          <g id="svga-group-ears-right-move">
            <g id="svga-group-ears-right">
              <path id="SvgjsPath7949" class="cls-8" d="M406.8,292.2s12.6-13.2,16.2-17.4c3.9-4.2,8.7-13.2,14.1-11.7s3.6,7.8,3.9,16.2c.3,8.7-.9,25.8-6.3,35.1s-8.1,12.6-9.9,22.5-7.8,11.7-11.4,9-12-19.8-12.3-28.8c-.3-8.7,3.3-21,5.7-24.9h0Z"/>
              <path id="SvgjsPath7950" class="cls-21" d="M406.8,292.2c5.4-5.7,10.5-12,15.9-18.3,2.4-3,4.5-6.9,7.8-9.6,1.5-1.5,3.3-2.7,5.4-3,.9,0,1.8,0,2.7.3.9.3,1.8.9,2.4,1.8.6.9,1.2,2.1,1.2,3.3.3,1.2.3,2.4.3,3.6,0,2.4-.3,4.5-.3,6.6,0,4.2-.3,9-.6,13.2-.3,4.5-.9,9-2.1,13.5-.6,2.1-1.2,4.5-1.8,6.6-.9,2.1-1.8,4.2-3,6.3-2.1,3.9-4.2,7.5-5.7,11.4-.9,1.8-1.2,3.9-1.8,6-.3.9-.3,2.1-.6,3.3l-.3,1.8-.6,1.8c-.9,2.4-2.1,4.8-3.9,6.3s-3.9,2.1-5.7,1.8c-.9,0-1.8-.3-2.7-.9-.9-.6-1.5-1.2-2.1-2.1-1.2-1.5-2.1-3-3-4.8-1.8-3.3-3.6-6.9-4.8-10.5-.6-1.8-1.2-3.9-1.8-6-.6-2.1-.9-4.2-.9-6.6,0-4.8.9-9.3,1.8-13.8.6-2.1,1.2-4.5,1.8-6.6.3-1.5,1.2-3.6,2.4-5.4h0ZM406.8,292.5c-.9,1.8-1.8,3.9-2.4,6s-1.2,4.2-1.5,6.6c-.6,4.2-1.2,9-.6,12.9s2.1,7.5,3.3,10.8c1.5,3.3,3,6.9,4.8,9.9s1.8,3,2.7,4.2c.6.6.9,1.2,1.5,1.5s1.2.6,1.8.6c1.2.3,2.4,0,3.6-.9s2.1-2.4,2.7-4.2l.3-1.5.3-1.5c.3-1.2.6-2.4.9-3.3.6-2.4,1.2-4.5,2.4-6.6,1.8-4.2,4.5-7.8,6.6-11.4,2.4-3.3,3.9-7.5,5.1-11.7s1.8-8.7,2.1-13.2c0-2.1.3-4.5.3-6.6s-.3-4.2-.3-6.6v-6.6c0-2.1-.3-3.9-1.2-4.8-.9-.9-2.1-1.2-3.3-1.2s-2.7.9-3.9,2.1c-2.7,2.4-5.1,5.7-8.1,8.7-6,5.7-11.7,10.8-17.1,16.8h0Z"/>
              <path id="SvgjsPath7951" class="cls-18" d="M439.8,276.6c-1.5-5.4-6-2.7-8.7,1.2-5.1,7.5-9,18.6-10.2,28.2,0,.3.3.6.3.3.3.3.6.3.6-.3,3.3-1.2,4.5-.6,3.6,2.1,0,.9-.3,1.8-.9,2.4-.6,1.5-1.5,3-2.4,4.2-1.5,2.4-3.3,4.2-4.8,6.6-.6.9,0,1.5.6,1.2,3.9-2.7,10.8-12.3,9-18.6-.6-2.4-2.7-3-4.2-1.8,3-10.2,11.1-33.9,16.2-24.9.3.3.9-.3.9-.6h0Z"/>
              <path id="SvgjsPath7952" class="cls-18" d="M431.7,277.8c3,5.7,3.9,12.3,2.4,20.1-.9,4.2-8.4,26.7-13.8,23.7-.6-.3-1.2.9-.6,1.5,5.7,5.1,12-12.6,13.8-18.3,3.3-9.6,3.9-21-1.5-27.3,0-.3-.6,0-.3.3Z"/>
            </g>
          </g>
          <g id="svga-group-faceshape-wrap">
            <g id="svga-group-faceshape-single">
              <path id="SvgjsPath7657" class="cls-8" d="M300.2,124.3c-64.2,0-119.6,46.4-123.2,131.9,0,0,1,61.8,9.1,84.6,3,9,35.8,67.1,63.4,96.2,15,15.6,35.8,21.6,50.2,21.6s35.4-7.6,50.1-23.2c27.9-29.4,59.8-84.8,62.8-93.5,8.1-23.1,10.3-85.8,10.3-85.8-3.6-85.2-58.6-131.9-122.8-131.9h0Z"/>
              <path id="SvgjsPath7658" class="cls-17" d="M300,123.9c-64.2,0-119.4,46.8-123,132.3,0,0,0,61.8,8.1,84.6,3,9,36.6,68.1,64.2,97.2,15,15.6,36.3,22.2,50.7,22.2s36-6.6,50.7-22.2c27.9-29.4,61.2-88.5,64.2-97.2,8.1-23.1,8.1-84.6,8.1-84.6-3.6-85.2-58.8-132.3-123-132.3h0ZM390.3,171.9l2.1,3,1.8,3c4.8,7.8,8.7,16.2,11.7,24.9l3.3,9.9s3,12.6,3.9,17.1l.6,3.3.3,1.8.3,1.8.3,3.3c0,1.2.3,2.4.3,3.3.3,2.4.3,4.5.6,6.9l.3,6.6-.3,6.9-.3,7.2c-.3,4.8-.3,9.6-.6,14.1-.6,9.6-1.2,18.9-2.1,28.2l-.3,3.6c0,1.2-.3,2.4-.6,3.3l-.6,3.3-.6,3.3c-.3,2.4-.9,4.5-1.2,6.6-.3,1.2-.6,2.1-.9,3s-.6,2.1-.9,2.7l-1.2,2.7c-.3.9-3.6,7.2-4.8,9.3-1.2,2.1-2.4,4.2-3.3,6.3l-3.6,6.3c-4.8,8.1-9.6,16.5-14.7,24.3-5.1,8.1-10.2,15.9-15.9,23.7-5.4,7.5-11.1,15.3-17.4,22.2-3,3.3-6.3,6.3-9.6,9-3.6,2.7-7.5,5.1-11.4,6.9-3.9,2.1-8.4,3.6-12.6,4.8-4.2,1.2-8.7,1.8-13.2,2.1-4.5,0-9-.3-13.5-1.2-4.5-.9-9-2.1-13.2-3.9s-8.4-3.9-12.3-6.3c-3.9-2.7-7.5-5.4-10.5-8.7l-4.8-5.1-4.5-5.4c-3-3.6-6-7.5-8.7-11.4-5.7-7.5-11.1-15.6-16.2-23.7-5.1-8.1-9.9-16.2-14.4-24.6l-3.3-6.3c-1.2-2.1-2.1-4.2-3.3-6.3s-2.1-4.2-3-6.3c-.6-1.2-.9-2.1-1.5-3.3s-.9-2.1-1.2-3c-1.2-4.2-2.1-8.7-2.7-13.2l-.9-7.2c0-1.2-.3-2.4-.3-3.6l-.3-3.6c-.6-9.3-.9-18.9-1.2-28.5,0-4.8-.3-9.6-.3-14.4v-14.1c0-11.2,2.1-22.2,2.1-22.2l.3-1.8.6-3.3c3.3-18,9.3-35.7,19.2-51.6,4.8-7.8,10.5-15.3,17.1-21.9s14.1-12.3,22.5-17.1c2.1-1.2,4.2-2.4,6.3-3.3l3.3-1.5s5.4-2.1,6.6-2.4c0,0,5.7-1.8,6.6-2.1,1.2-.3,7.8-2.1,10.2-2.4l7.2-1.2c9.6-1.2,19.2-1.2,28.8,0l7.2,1.2c2.4.3,9.3,2.1,10.2,2.4,1.2.3,2.4.6,3.3.9,0,0,5.4,2.1,6.6,2.4l6.6,2.7c2.1.9,4.2,2.1,6.3,3.3,8.1,4.5,15.6,10.5,22.5,17.1.9.9,1.5,1.8,2.4,2.4.9.9,1.5,1.8,2.4,2.4l2.4,2.7c.9.9,1.5,1.8,2.1,2.7,1.2,2.1,2.7,3.9,3.9,6h0Z"/>
            </g>
          </g>
          <g id="svga-group-mouth-single-move">
            <g id="svga-group-mouth-single">
              <path id="SvgjsPath4510" class="cls-22" d="M285.6,409.8c11.1,5.7,16.2,4.5,21.6,3.9s18.6-7.5,27-15.6c8.1-8.1,9.6-12.6,9.6-12.6-7.5-1.5-28.8-7.8-32.1-7.2-2.4.3-8.7,5.7-10.8,5.7s-9.3-4.5-11.7-4.8c-2.7-.3-6.9,1.2-13.2,3.3s-18,3.3-18,3.3c0,0,16.5,18.3,27.6,24h0Z"/>
              <path id="SvgjsPath4511" class="cls-16" d="M256.5,386.1c14.7,3.6,30.6,6.3,45.6,6.9,5.4.3,11.1-.9,16.5-1.8,9-1.5,18.9-2.4,27.6-5.4.9-.3.9-2.1-.3-1.8-14.4,1.8-29.1,7.2-43.8,6.6-15.3-.6-30.3-4.2-45.6-5.7-.6.3-.6,1.2,0,1.2Z"/>
            </g>
          </g>
          <g id="svga-group-eyes-left-move">
            <g id="svga-group-eyes-left">
              <g id="svga-group-eyesback-left">
                <path id="SvgjsPath3207" class="cls-26" d="M272.7,303.9s-.9-7.5-3-11.4-11.1-13.2-21-15c-14.7-3-27.9,5.1-27.9,5.1,0,0,0,7.2,4.5,12.3,4.2,5.1,11.7,7.8,14.7,8.1s13.8.9,19.5,0c3.9-.6,8.4-.6,10.2,0,1.5.6,3,.9,3,.9h0Z"/>
              </g>
              <g id="svga-group-eyesiriswrapper-left">
                <g id="svga-group-eyesiriscontrol-left">
                  <g id="svga-group-eyesiris-left">
                    <path id="SvgjsPath5361" class="cls-3" d="M246,273.6c8.7,0,15.6,6.9,15.6,15.6s-6.9,15.6-15.6,15.6-15.6-6.9-15.6-15.6,6.9-15.6,15.6-15.6Z"/>
                    <path id="SvgjsPath5362" class="cls-4" d="M246,305.4c-9,0-16.2-7.2-16.2-16.2s7.2-16.2,16.2-16.2,16.2,7.2,16.2,16.2-7.2,16.2-16.2,16.2ZM246,274.5c-8.1,0-14.7,6.6-14.7,14.7s6.6,14.7,14.7,14.7,14.7-6.6,14.7-14.7-6.6-14.7-14.7-14.7Z"/>
                    <path id="SvgjsPath5363" class="cls-4" d="M260.7,289.2c-1.8,0-3.9-.3-5.7,0,0-.9,0-1.5-.3-2.4,2.1-.3,4.5-.9,6.6-1.8.6-.3.3-.9-.3-.9-2.1.3-4.5,1.2-6.6,1.8,0-.3-.3-.6-.3-.9.9-.3,1.8-.9,2.4-1.2,1.2-.6,2.4-.6,3.3-1.2.3-.3.3-.6-.3-.6-1.8.3-4.2,1.2-6,2.4,0-.3-.3-.3-.3-.6.6-.6,1.2-.9,2.1-1.5.9-.6,2.1-1.5,3-2.4s0-.9-.6-.6c-.9.9-2.1,1.5-3,2.4s-1.2.9-1.8,1.5l-.9-.9c1.5-1.8,2.7-3.6,3.6-5.7.3-.3-.3-.6-.3-.3-1.5,1.5-3,3.6-3.9,5.4-.3-.3-.6-.3-.9-.6.6-2.1.9-4.5.9-6.6s-.6-.6-.9,0c-.3,1.5-.6,3.3-.6,4.8s-.3.9-.3,1.5c-.6-.3-.9-.3-1.5-.3,0-2.1-.3-4.5-.9-6.6,0-.3-.3,0-.3,0-.3,2.1-.3,4.2-.3,6.3h-1.2c0-.6-.3-1.2-.3-1.8-.3-1.5-.3-2.7-.6-4.2,0-.3-.6-.3-.6,0-.3,1.8,0,3.9.6,6-.3,0-.6,0-.6.3-.6-2.1-1.2-4.2-2.1-6.3,0-.3-.6-.3-.6,0,.3,2.1.9,4.2,1.8,6.3,0,0-.3,0-.3.3-.9-2.1-2.4-3.9-3.9-5.7-.3-.3-.6,0-.3.3.9,1.8,2.1,3.9,3.6,5.7-.3.3-.6.3-.6.6-.3-.3-.6-.9-.9-1.2-.9-1.2-2.1-2.7-3.3-3.6-.3-.3-.6,0-.6.3.6,1.2,1.8,2.4,2.7,3.6.3.6.9.9,1.2,1.5-.3.3-.6.6-.9,1.2-1.8-1.2-3.6-2.7-5.4-3.6-.3,0-.3.3-.3.3,1.5,1.5,3.3,2.7,5.1,3.9-.3.6-.6.9-.6,1.5-.3,0-.6-.3-.9-.3-1.8-.6-3.6-1.5-5.1-2.1-.3-.3-.6.6-.3.6,1.5.6,3,1.5,4.5,2.1.6.3.9.3,1.5.6,0,.3,0,.6-.3.9-.6,0-.9-.3-1.5-.3-1.5-.3-3.3-.6-4.8-.3-.3,0-.3.6,0,.6,1.8.6,4.2.9,6.3,1.2v1.2c-.9.3-1.8.6-2.7,1.2-1.2.6-2.4.6-3.3,1.5-.3.3-.3.9.3.9,1.2,0,2.7-.6,3.9-1.2.6-.3,1.5-.6,2.1-.9,0,.6.3.9.3,1.2-.3.3-.6.3-.9.6-1.5.9-3,1.8-4.2,3s0,.9.6.6c1.8-.9,3.3-1.8,4.8-2.7.3,0,.3-.3.6-.3.3.3.6.9.6,1.2-1.5,1.2-3,3-4.5,4.5s0,.6.3.3c1.5-1.2,3.3-2.7,4.8-4.2l.9.9c-.6.6-.9,1.2-1.2,1.8-.9,1.2-1.8,2.4-2.7,3.9-.3.3.3.6.6.3.9-1.2,2.1-2.4,3-3.6.6-.6.9-1.2,1.5-1.8.3,0,.3.3.6.3-.3.6-.3.9-.6,1.2-.6,1.2-1.5,2.7-1.8,4.2,0,.3.6.6.6.3.9-1.2,1.5-2.7,2.4-4.2.3-.3.3-.6.6-1.2h.3c-.9,2.1-1.5,4.2-1.8,6.3,0,.3.6.3.6,0,.6-2.1,1.5-4.2,2.1-6.3.3,0,.6,0,.9.3-.6,2.1-.6,4.5-.9,6.6,0,.6.9.6.9,0,0-2.1.6-4.5.6-6.6h.6c-.3,2.1-.3,4.2,0,6.3,0,.6.9.6.9,0-.3-2.1,0-4.2-.3-6.3.6,0,1.2-.3,1.8-.3.3.9.9,2.1,1.2,3,.6.9.6,2.1,1.8,2.7q.3,0,.3-.3c0-.9-.6-2.1-1.2-3-.6-.9-.9-2.1-1.5-3,.3,0,.3-.3.6-.3.3.9.9,1.8,1.2,2.4.6.9.9,2.4,1.8,3,.3.3.6,0,.6-.3-.3-1.2-1.2-2.1-1.8-3.3-.6-.9-.9-1.8-1.5-2.4.3-.3.6-.3.9-.6.9,1.8,2.4,3.6,3.9,5.1s1.2-.3.6-.6c-1.5-1.5-2.7-3-3.9-4.8.6-.6,1.2-1.2,1.5-1.8,1.8,1.2,3.3,2.4,5.1,3.6.3.3.9-.3.6-.6-1.5-1.2-3.6-2.4-5.4-3.6,0-.3.3-.3.3-.6,1.8.9,3.9,2.1,5.7,2.7.3.3.6-.6.3-.6-1.8-.9-3.9-1.8-5.7-2.4.3-.6.6-1.5.6-2.4,2.1.3,3.9.3,6,.3-.6.9-.6-.6-1.5-.6h0Z"/>
                    <path id="SvgjsPath5364" class="cls-10" d="M246,280.8c4.5,0,8.4,3.9,8.4,8.4s-3.9,8.4-8.4,8.4-8.4-3.9-8.4-8.4,3.9-8.4,8.4-8.4Z"/>
                    <path id="SvgjsPath5365" class="cls-26" d="M241.2,282c1.8,0,3.3,1.5,3.3,3.3s-1.5,3.3-3.3,3.3-3.3-1.5-3.3-3.3,1.5-3.3,3.3-3.3ZM251.4,294c.9,0,1.8.9,1.8,1.8s-.9,1.8-1.8,1.8-1.8-.9-1.8-1.8.9-1.8,1.8-1.8Z"/>
                  </g>
                </g>
              </g>
              <g id="svga-group-eyesfront-left">
                <path id="SvgjsPath3215" class="cls-8" d="M212.2,294.1c0,20.7,14.8,37.5,33.1,37.5s33.1-16.8,33.1-37.5-14.8-37.5-33.1-37.5-33.1,16.8-33.1,37.5h0ZM220.8,282.8s13.3-8.1,28-5.2c9.9,1.9,18.6,11.2,20.8,15.1,2.2,3.8,3.1,11.5,3.1,11.5,0,0-1.6-.4-3.3-1-1.7-.5-6.2-.6-10.2.1-5.7,1-16.4.5-19.3.1-3-.4-10.5-3.2-14.8-8.2-4.2-5.1-4.3-12.3-4.3-12.3Z"/>
                <path id="SvgjsPath3216" class="cls-10" d="M219.8,283.9c-.3,1.3-.4,2.5-.2,3.8-1.7,0-3.6.2-4.8,1.3-.4.4,0,1,.5.9.9-.2,1.7-.6,2.6-.8.6-.2,1.3-.2,1.9-.2.2.6.4,1.3.7,1.9-.5.2-1,.4-1.5.6-1.1.5-2.2,1.3-3,2.3-.3.5.3.8.7.7,1-.5,2-1.1,3.1-1.7.5-.2,1-.4,1.5-.5.5.8,1,1.6,1.7,2.4-1.2.7-2.3,1.7-2.7,3.1,0,.3.3.6.6.5,1.1-.7,2-1.7,2.9-2.6,3.3,3.7,8,6.5,11.8,7.7,5.6,1.9,11.8,2.2,17.7,1.9,5.5-.3,14.2-3.4,19.3-.6.2.1.4,0,.5,0h0c0-.1,0-.2,0-.3s0,0,0,0c-.3-12.2-7.9-22.5-19.2-26.9-6.2-2.5-13.1-3.1-19.7-2.1-7.8,1.2-14.6,5-22.6,4.3-.7,0-1,.9-.5,1.3,2.7,2.6,5.7,3.4,8.7,3.2h0ZM221.8,283.7c6-1,12.3-4.6,18.3-5,15.4-1.1,30.2,9,32.1,24.7-7.2-2.5-15.4-.3-22.8-.5-6-.1-12.4-1-17.7-4-6.6-3.8-7.8-8.8-9.9-15.2Z"/>
              </g>
            </g>
          </g>
          <g id="svga-group-eyes-right-move">
            <g id="svga-group-eyes-right">
              <g id="svga-group-eyesback-right">
                <path id="SvgjsPath3208" class="cls-26" d="M327.3,303.9s.9-7.5,3-11.4,11.1-13.2,21-15c14.7-3,27.9,5.1,27.9,5.1,0,0,0,7.2-4.5,12.3-4.2,5.1-11.7,7.8-14.7,8.1s-13.8.9-19.5,0c-3.9-.6-8.4-.6-10.2,0-1.5.6-3,.9-3,.9h0Z"/>
              </g>
              <g id="svga-group-eyesiriswrapper-right">
                <g id="svga-group-eyesiriscontrol-right">
                  <g id="svga-group-eyesiris-right">
                    <path id="SvgjsPath5366" class="cls-3" d="M354,273.6c8.7,0,15.6,6.9,15.6,15.6s-6.9,15.6-15.6,15.6-15.6-6.9-15.6-15.6,6.9-15.6,15.6-15.6Z"/>
                    <path id="SvgjsPath5367" class="cls-4" d="M354,305.4c-9,0-16.2-7.2-16.2-16.2s7.2-16.2,16.2-16.2,16.2,7.2,16.2,16.2-7.2,16.2-16.2,16.2ZM354,274.5c-8.1,0-14.7,6.6-14.7,14.7s6.6,14.7,14.7,14.7,14.7-6.6,14.7-14.7-6.6-14.7-14.7-14.7Z"/>
                    <path id="SvgjsPath5368" class="cls-4" d="M368.7,289.2c-1.8,0-3.9-.3-5.7,0,0-.9,0-1.5-.3-2.4,2.1-.3,4.5-.9,6.6-1.8.6-.3.3-.9-.3-.9-2.1.3-4.5,1.2-6.6,1.8,0-.3-.3-.6-.3-.9.9-.3,1.8-.9,2.4-1.2,1.2-.6,2.4-.6,3.3-1.2.3-.3.3-.6-.3-.6-1.8.3-4.2,1.2-6,2.4,0-.3-.3-.3-.3-.6.6-.6,1.2-.9,2.1-1.5.9-.6,2.1-1.5,3-2.4s0-.9-.6-.6c-.9.9-2.1,1.5-3,2.4s-1.2.9-1.8,1.5l-.9-.9c1.5-1.8,2.7-3.6,3.6-5.7.3-.3-.3-.6-.3-.3-1.5,1.5-3,3.6-3.9,5.4-.3-.3-.6-.3-.9-.6.6-2.1.9-4.5.9-6.6s-.6-.6-.9,0c-.3,1.5-.6,3.3-.6,4.8s-.3.9-.3,1.5c-.6-.3-.9-.3-1.5-.3,0-2.1-.3-4.5-.9-6.6,0-.3-.3,0-.3,0-.3,2.1-.3,4.2-.3,6.3h-1.2c0-.6-.3-1.2-.3-1.8-.3-1.5-.3-2.7-.6-4.2,0-.3-.6-.3-.6,0-.3,1.8,0,3.9.6,6-.3,0-.6,0-.6.3-.6-2.1-1.2-4.2-2.1-6.3,0-.3-.6-.3-.6,0,.3,2.1.9,4.2,1.8,6.3,0,0-.3,0-.3.3-.9-2.1-2.4-3.9-3.9-5.7-.3-.3-.6,0-.3.3.9,1.8,2.1,3.9,3.6,5.7-.3.3-.6.3-.6.6-.3-.3-.6-.9-.9-1.2-.9-1.2-2.1-2.7-3.3-3.6-.3-.3-.6,0-.6.3.6,1.2,1.8,2.4,2.7,3.6.3.6.9.9,1.2,1.5-.3.3-.6.6-.9,1.2-1.8-1.2-3.6-2.7-5.4-3.6-.3,0-.3.3-.3.3,1.5,1.5,3.3,2.7,5.1,3.9-.3.6-.6.9-.6,1.5-.3,0-.6-.3-.9-.3-1.8-.6-3.6-1.5-5.1-2.1-.3-.3-.6.6-.3.6,1.5.6,3,1.5,4.5,2.1.6.3.9.3,1.5.6,0,.3,0,.6-.3.9-.6,0-.9-.3-1.5-.3-1.5-.3-3.3-.6-4.8-.3-.3,0-.3.6,0,.6,1.8.6,4.2.9,6.3,1.2v1.2c-.9.3-1.8.6-2.7,1.2-1.2.6-2.4.6-3.3,1.5-.3.3-.3.9.3.9,1.2,0,2.7-.6,3.9-1.2.6-.3,1.5-.6,2.1-.9,0,.6.3.9.3,1.2-.3.3-.6.3-.9.6-1.5.9-3,1.8-4.2,3s0,.9.6.6c1.8-.9,3.3-1.8,4.8-2.7.3,0,.3-.3.6-.3.3.3.6.9.6,1.2-1.5,1.2-3,3-4.5,4.5s0,.6.3.3c1.5-1.2,3.3-2.7,4.8-4.2l.9.9c-.6.6-.9,1.2-1.2,1.8-.9,1.2-1.8,2.4-2.7,3.9-.3.3.3.6.6.3.9-1.2,2.1-2.4,3-3.6.6-.6.9-1.2,1.5-1.8.3,0,.3.3.6.3-.3.6-.3.9-.6,1.2-.6,1.2-1.5,2.7-1.8,4.2,0,.3.6.6.6.3.9-1.2,1.5-2.7,2.4-4.2.3-.3.3-.6.6-1.2h.3c-.9,2.1-1.5,4.2-1.8,6.3,0,.3.6.3.6,0,.6-2.1,1.5-4.2,2.1-6.3.3,0,.6,0,.9.3-.6,2.1-.6,4.5-.9,6.6,0,.6.9.6.9,0,0-2.1.6-4.5.6-6.6h.6c-.3,2.1-.3,4.2,0,6.3,0,.6.9.6.9,0-.3-2.1,0-4.2-.3-6.3.6,0,1.2-.3,1.8-.3.3.9.9,2.1,1.2,3,.6.9.6,2.1,1.8,2.7q.3,0,.3-.3c0-.9-.6-2.1-1.2-3-.6-.9-.9-2.1-1.5-3,.3,0,.3-.3.6-.3.3.9.9,1.8,1.2,2.4.6.9.9,2.4,1.8,3,.3.3.6,0,.6-.3-.3-1.2-1.2-2.1-1.8-3.3-.6-.9-.9-1.8-1.5-2.4.3-.3.6-.3.9-.6.9,1.8,2.4,3.6,3.9,5.1s1.2-.3.6-.6c-1.5-1.5-2.7-3-3.9-4.8.6-.6,1.2-1.2,1.5-1.8,1.8,1.2,3.3,2.4,5.1,3.6.3.3.9-.3.6-.6-1.5-1.2-3.6-2.4-5.4-3.6,0-.3.3-.3.3-.6,1.8.9,3.9,2.1,5.7,2.7.3.3.6-.6.3-.6-1.8-.9-3.9-1.8-5.7-2.4.3-.6.6-1.5.6-2.4,2.1.3,3.9.3,6,.3-.6.9-.6-.6-1.5-.6h0Z"/>
                    <path id="SvgjsPath5369" class="cls-10" d="M354,280.8c4.5,0,8.4,3.9,8.4,8.4s-3.9,8.4-8.4,8.4-8.4-3.9-8.4-8.4,3.9-8.4,8.4-8.4Z"/>
                    <path id="SvgjsPath5370" class="cls-26" d="M349.5,282c1.8,0,3.3,1.5,3.3,3.3s-1.5,3.3-3.3,3.3-3.3-1.5-3.3-3.3,1.5-3.3,3.3-3.3ZM359.7,294c.9,0,1.8.9,1.8,1.8s-.9,1.8-1.8,1.8-1.8-.9-1.8-1.8.9-1.8,1.8-1.8Z"/>
                  </g>
                </g>
              </g>
              <g id="svga-group-eyesfront-right">
                <path id="SvgjsPath3217" class="cls-8" d="M354.8,256.6c-18.2,0-33.1,16.8-33.1,37.5s14.8,37.5,33.1,37.5,33.1-16.8,33.1-37.5-14.8-37.5-33.1-37.5h0ZM374.8,295c-4.3,5-11.8,7.8-14.8,8.2-3,.4-13.7.9-19.3-.1-4-.7-8.5-.6-10.2-.1-1.7.5-3.3,1-3.3,1,0,0,.9-7.6,3.1-11.5,2.2-3.8,11-13.1,20.8-15.1,14.8-2.9,28,5.2,28,5.2,0,0,0,7.3-4.3,12.3h0Z"/>
                <path id="SvgjsPath3220" class="cls-10" d="M388.9,280.7c.4-.5.1-1.4-.5-1.3-8,.7-14.9-3.2-22.6-4.3-6.6-1-13.5-.4-19.7,2.1-11.3,4.4-18.9,14.7-19.2,26.9,0,0,0,0,0,0,0,0,0,.1,0,.2h0c.1.2.3.3.5.1,5.1-2.8,13.7.3,19.3.6,5.9.3,12.1,0,17.7-1.9,3.8-1.2,8.4-4,11.8-7.7.9.9,1.8,1.9,2.9,2.6.3.2.7-.1.6-.5-.4-1.3-1.5-2.4-2.7-3.1.6-.8,1.2-1.6,1.7-2.4.5.2,1,.3,1.5.5,1,.5,2,1.2,3.1,1.7.4.2,1-.2.7-.7-.8-1-1.8-1.8-3-2.3-.5-.2-1-.5-1.5-.6.3-.6.5-1.3.7-1.9.6,0,1.3,0,1.9.2.9.2,1.7.6,2.6.8.5,0,.9-.5.5-.9-1.1-1.2-3.1-1.4-4.8-1.3.2-1.2.1-2.5-.2-3.8,3.1,0,6-.7,8.7-3.2h0ZM368.3,298.9c-5.3,3.1-11.7,3.9-17.7,4-7.4.2-15.6-2-22.8.5,2-15.7,16.7-25.8,32.1-24.7,5.9.4,12.3,4.1,18.3,5-2,6.4-3.2,11.4-9.9,15.2Z"/>
              </g>
            </g>
          </g>
          <g id="svga-group-eyebrows-left-move">
            <g id="svga-group-eyebrows-left-rotate">
              <g id="svga-group-eyebrows-left">
                <path id="SvgjsPath5622" class="cls-9" d="M218.7,252.6c.3-.6,1.2-.9,1.8-1.2s1.2-.6,1.8-.6c1.2-.6,2.4-1.2,3.6-1.5,1.5-.3,3.6-1.5,5.1-.6,4.8-1.8,11.1-.6,15.3,1.8,5.7.6,11.7,2.4,15.9,5.4.3.3.6.6.6.9.9.3,1.5.6,2.4.9,3,1.2,6.3,2.1,9.3,3.6.3,0,.6.3.9.3.9.3,1.2,2.1.6,2.4-.3.3-.3.6-.6.9-2.4,1.8-5.4.6-7.8-.3-2.1-.9-4.5-1.8-6-3.6-2.4-.9-4.2-2.1-6.3-3.3-.3,0-.6-.3-.9-.3-3.6-.6-7.5-2.1-11.1-3.9-2.1-.3-3.9-.9-6-.9-2.7-.3-5.4.6-8.4-.3h-.3c-.6.3-1.2.3-1.8.6-2.4.6-4.5,1.2-6.9,1.2s-.6-.3-.6-.6h-.3s-.6-.3-.3-.9h0Z"/>
                <path id="SvgjsPath5623" class="cls-23" d="M232.2,246.9c9.3-.6,18.6,4.5,27,7.8,5.1,2.1,15.6,2.7,17.7,9,.3.9-.9,1.2-1.5.6-2.7-3.6-7.2-4.2-11.4-5.4-3.6-1.2-6.9-2.4-10.5-3.9-7.2-3-14.4-4.8-21.9-6.6-.3-.3,0-1.2.6-1.5h0Z"/>
                <path id="SvgjsPath5624" class="cls-29" d="M279.9,263.7c.9-4.2-5.4-5.7-8.4-6.9-7.2-3-14.7-6.3-22.2-8.4-4.5-1.2-9.3-2.1-13.8-2.1s-6.9.3-10.5,1.5c-6,1.8-11.7,5.4-16.8,9.3-2.7,1.5-5.4,3.6-7.5,5.7-.3.3,0,.9.6.6,0,0,.3,0,.3-.3,0,.3.3.3.6.3,4.5-2.1,8.4-4.8,12.9-6.6s9.3-3,14.1-3.3h2.1c5.7,0,11.1,1.2,16.2,3.6,7.2,3.3,13.8,7.8,21,10.5,1.2.6,2.7.6,4.2.6,3.3,0,6.6-1.2,7.2-4.5h0ZM235.5,249c4.8,0,9.6,1.2,14.4,2.7,6,2.1,12,4.8,18,7.2,1.2.6,7.2,2.1,7.8,3.6.6,1.8-.6,2.4-2.4,2.7-.9,0-1.8-.3-2.4-.3-1.8-.6-3.6-1.8-5.1-2.7-9.3-4.8-18.9-10.5-29.4-11.1h-3c-3.3,0-6.9.3-10.5.9,1.5-.6,3-1.2,4.8-1.8,2.4-.9,5.1-1.2,7.8-1.2h0Z"/>
              </g>
            </g>
          </g>
          <g id="svga-group-eyebrows-right-move">
            <g id="svga-group-eyebrows-right-rotate">
              <g id="svga-group-eyebrows-right">
                <path id="SvgjsPath5625" class="cls-9" d="M381.3,252.6c-.3-.6-1.2-.9-1.8-1.2s-1.2-.6-1.8-.6c-1.2-.6-2.4-1.2-3.6-1.5-1.5-.3-3.6-1.5-5.1-.6-4.8-1.8-11.1-.6-15.3,1.8-5.7.6-11.7,2.4-15.9,5.4-.3.3-.6.6-.6.9-.9.3-1.5.6-2.4.9-3,1.2-6.3,2.1-9.3,3.6-.3,0-.6.3-.9.3-.9.3-1.2,2.1-.6,2.4.3.3.3.6.6.9,2.4,1.8,5.4.6,7.8-.3,2.1-.9,4.5-1.8,6-3.6,2.4-.9,4.2-2.1,6.3-3.3.3,0,.6-.3.9-.3,3.6-.6,7.5-2.1,11.1-3.9,2.1-.3,3.9-.9,6-.9,2.7-.3,5.4.6,8.4-.3h.3c.6.3,1.2.3,1.8.6,2.4.6,4.5,1.2,6.9,1.2s.6-.3.6-.6h.3s.6-.3.3-.9h0Z"/>
                <path id="SvgjsPath5626" class="cls-23" d="M367.8,246.9c-9.3-.6-18.6,4.5-27,7.8-5.1,2.1-15.6,2.7-17.7,9-.3.9.9,1.2,1.5.6,2.7-3.6,7.2-4.2,11.4-5.4,3.6-1.2,6.9-2.4,10.5-3.9,7.2-3,14.4-4.8,21.9-6.6.3-.3,0-1.2-.6-1.5h0Z"/>
                <path id="SvgjsPath5627" class="cls-29" d="M327,267.9c1.5,0,3-.3,4.2-.6,7.2-2.7,14.1-7.2,21-10.5,5.4-2.4,10.8-3.6,16.2-3.6h2.1c4.8.3,9.6,1.5,13.8,3.3,4.5,1.8,8.7,4.8,12.9,6.6.3,0,.6,0,.6-.3,0,0,.3,0,.3.3.6.3.9-.3.6-.6-2.1-2.1-4.8-4.2-7.5-5.7-5.1-3.9-10.8-7.2-16.8-9.3-3.3-1.2-6.9-1.5-10.5-1.5s-9.3.9-13.8,2.1c-7.5,2.1-15,5.4-22.2,8.4-2.7,1.2-9.3,2.7-8.4,6.9,1.2,3.6,4.5,4.8,7.5,4.5h0ZM372.6,250.2c1.5.6,3.3.9,4.8,1.8-3.6-.6-6.9-.9-10.5-.9h-3c-10.5.6-20.4,6.6-29.4,11.1-1.8.9-3.3,2.1-5.1,2.7-.6.3-1.5.3-2.4.3-1.5,0-3-.6-2.4-2.7.6-1.5,6.6-3,7.8-3.6,6-2.4,12-5.1,18-7.2,4.8-1.5,9.6-2.7,14.4-2.7s5.1.3,7.8,1.2h0Z"/>
              </g>
            </g>
          </g>
          <g id="svga-group-nose-single-move">
            <g id="svga-group-nose-single">
              <path id="SvgjsPath4049" class="cls-17" d="M281.9,329.6c-4.2,3.5-14,15.5-9.4,21.4.7.9,1.6,1.4,2.7,1.6,3.8.9,6.8-.7,10.7,1.3,4.7,2.3,8.4,6.7,13.8,7.5,4.4.6,7.4-1.8,10.6-4.4,1.7-1.4,3.7-3.4,6-3.8,1.7-.3,3.7.7,5.3.7,1.3,0,2.2,0,3.3-.8,2.5-2,1.9-5.8,1.2-8.4-1.3-5.2-4-9.9-8.2-13.3-.2-.2-.6-.2-.8,0-.2.2-.2.6,0,.8,2.8,3.5,5.4,7.2,6.7,11.5,1,3.3,2.2,7-3.1,7.3-1,0-2.2-.6-3.2-.6-2.4,0-4.6,1.3-6.5,2.7-5.2,3.8-8.7,7.7-15.4,4.1-5.4-2.9-9.3-7.5-15.9-6.8-1.1.2-2.2.3-3.2.5-3-1.4-4-3.5-3.1-6.1.5-2,1.4-4,2.3-5.9,1.7-3.5,4-6.3,6.3-9.3.1,0,0-.2-.2-.1h0Z"/>
              <path id="SvgjsPath4050" class="cls-17" d="M283.5,335.1c-.7,8.2,6.3,15.5,14.7,14.6.5,0,.5-.8,0-.8-7.7-.9-13.4-5.9-14.4-13.8,0-.2-.3-.2-.3,0h0Z"/>
              <path id="SvgjsPath4051" class="cls-24" d="M305.7,327.2c-3-1.3-6.4-1.8-9.7-1.4-2.5.3-6.4,1.7-5.5,5,1.1,4.2,6.8,3.7,10.1,4.7,3.6,1.1,4.9,4.5,8,6.1,1.1.6,2.6.5,3.5-.5,5-5.2-1.7-11.9-6.5-13.9h0Z"/>
            </g>
          </g>
          <g id="svga-group-hair-front">
            <path id="SvgjsPath7626" class="cls-25" d="M317.4,157.5s-2.7,47.1-53.7,55.5c-38.4,6.3-83.4,20.4-77.1,61.8,0,0-8.1-1.5-12.9-12.9s-14.4-61.5,18.3-99.6,74.4-53.7,126.9-40.8c0,0,47.1,0,79.8,45s33.6,100.8,14.4,120c0,0,10.2-37.5-33.6-56.4-40.5-17.1-67.5-39.3-62.1-72.6Z"/>
            <path id="SvgjsPath7627" class="cls-6" d="M321.6,134.4s-2.7,43.8,21.9,63,56.7,30.6,66.3,39.6,10.2,21.3,10.2,21.3c0,0,4.8-14.4-6-26.7s-56.1-27.6-70.5-44.4c-14.4-16.2-17.7-35.1-21.9-52.8h0ZM327.9,136.8s11.1,27.3,26.1,41.7,39.9,26.1,48.6,31.5,15.9,16.5,15.9,16.5c0,0-1.5-8.4-17.7-24s-36.3-23.1-52.8-39.6-20.1-26.1-20.1-26.1h0ZM326.4,125.4s31.5,6,54,27.6c22.5,21.9,31.5,44.7,35.7,57.6,0,0-20.4-34.8-41.7-54.9s-48-30.3-48-30.3h0ZM182.1,263.1s-2.7-24,17.1-39c19.8-15,57-11.7,78.6-26.1,21.3-14.4,32.1-35.7,36.3-55.5,0,0-14.4,43.2-82.2,61.5s-49.8,59.1-49.8,59.1ZM174.3,237s2.1-28.8,32.7-39.9c30.3-11.1,63-20.7,81.6-35.4s23.1-30,23.1-30c0,0-21,27.3-75,44.4s-57.6,32.7-62.4,60.9ZM189,181.5s15.9-34.8,52.8-48,63-7.5,63-7.5c0,0-74.1-.6-115.8,55.5Z"/>
          </g>
          <g id="svga-group-glasses-single-move">
            <g id="svga-group-glasses-single">
              <path id="SvgjsPath6814" class="cls-5" d="M288,285s.9-6.3-9.9-9.9c-8.1-2.7-16.8-3.3-23.7-3.3s-29.1-.3-34.8.3-14.1,1.2-17.1,9.6.9,22.5,12.3,29.4c11.4,6.9,34.8,7.5,49.8,3,15.3-4.5,22.2-15,23.4-29.1Z"/>
              <path id="SvgjsPath6815" class="cls-5" d="M312,285s-.9-6.3,9.9-9.9c8.1-2.7,16.8-3.3,23.7-3.3s29.1-.3,34.8.3c5.7.6,14.1,1.2,16.8,9.6,2.7,8.4-.9,22.5-12.3,29.4s-34.8,7.5-49.8,3-21.9-15-23.1-29.1h0Z"/>
              <path id="SvgjsPath6816" class="cls-14" d="M288,283.2s10.2-4.8,24,0v2.7s-14.7-2.7-24.3,0l.3-2.7Z"/>
              <path id="SvgjsPath6817" class="cls-12" d="M242.4,318c-11.7,0-21.9-2.1-28.2-6-10.2-6.3-14.1-18-13.5-26.1v-.3h-6.9v-5.7h8.4v-.3c3.6-6.9,11.4-7.8,16.5-8.4h.6c2.4-.3,8.1-.3,17.1-.3h18c6.9,0,15.6.3,24,3.3,11.1,3.9,10.8,10.2,10.5,11.1-1.5,15.6-9.6,25.8-24,30-6.3,1.8-14.1,2.7-22.5,2.7h0ZM236.7,273c-9,0-14.7,0-17.1.3h-.6c-5.7.6-12.9,1.2-15.6,8.7-2.7,8.4,1.2,21.6,11.7,28.2,6,3.6,15.6,5.7,27,5.7s15.9-.9,21.9-3c13.8-4.2,21.3-13.5,22.5-28.2,0-.6.3-5.4-9.3-8.7-8.1-2.7-16.8-3-23.4-3h-17.1ZM357.6,318c-8.1,0-16.2-1.2-22.5-3-14.4-4.5-22.5-14.4-24-30,0-.6-.6-7.2,10.5-11.1,8.4-2.7,17.4-3.3,24-3.3h18c9,0,14.7,0,17.1.3h.6c5.1.6,13.2,1.2,16.5,8.4v.3h8.4v5.7h-6.9v.3c.6,8.1-3.3,19.8-13.5,26.1-6.3,4.2-16.8,6.3-28.2,6.3h0ZM363.3,273h-17.7c-6.6,0-15.3.3-23.4,3-9.6,3.3-9.3,8.1-9.3,8.7,1.2,15,8.7,24,22.5,28.2,6,1.8,14.1,3,21.9,3,11.4,0,21.3-2.1,27-5.7,10.5-6.6,14.7-19.8,11.7-28.2-2.4-7.5-9.6-8.1-15.6-8.7h-.6c-1.8-.3-7.5-.3-16.5-.3h0Z"/>
              <path id="SvgjsPath6818" class="cls-14" d="M363.6,270.3v.6c9,0,14.4,0,17.1.3h.6c5.1.6,12.9,1.2,16.2,8.1l.3.3h8.1v5.4h-6.9v.6c.6,8.1-3.3,19.5-13.5,25.8-6.3,3.9-16.5,6-27.9,6s-16.2-1.2-22.5-3c-14.4-4.5-22.2-14.4-23.7-29.7,0-.6-.6-6.9,10.5-10.5,8.4-2.7,17.1-3.3,24-3.3h18.3l-.6-.6M357.6,316.2c11.4,0,21.3-2.1,27.3-5.7,10.8-6.6,14.7-20.1,12-28.8-2.7-7.8-10.2-8.4-15.9-9h-.6c-2.4-.3-7.8-.3-17.1-.3h-17.7c-6.6,0-15.3.3-23.4,3-9.6,3.3-9.6,8.4-9.3,9,1.2,15,8.7,24.3,22.8,28.5,6,2.4,13.8,3.3,21.9,3.3M363.6,270.3h-18c-6.9,0-15.6.3-24,3.3-11.4,3.9-11.1,10.5-10.8,11.4,1.5,15.6,9.6,26.1,24.3,30.3,6.3,2.1,14.4,3,22.8,3s21.6-1.8,28.5-6.3c9.6-6,14.4-17.4,13.8-26.4h6.9v-6.6h-8.4c-3.6-7.2-11.4-8.1-16.8-8.4h-.6c-3.6,0-10.5-.3-17.7-.3h0ZM357.6,315.6c-7.8,0-15.6-.9-21.9-3-13.8-4.2-21-13.2-22.2-27.9,0-.3-.3-5.1,9-8.4,8.1-2.7,16.5-3,23.1-3h18c7.2,0,14.1,0,16.8.3h.6c5.7.6,12.6,1.2,15.3,8.4,2.7,8.1-1.2,21.3-11.7,27.9-6.6,3.9-16.8,5.7-27,5.7h0ZM236.4,271.2h18.3c6.6,0,15.6.3,24,3.3,10.8,3.6,10.5,9.9,10.5,10.5-1.5,15.3-9.3,25.5-23.7,29.7-6.3,2.1-14.4,3-22.5,3-11.7,0-21.9-2.1-27.9-6-9.9-6.3-14.1-17.7-13.5-25.8v-.6h-6.9v-5.1h8.4l.3-.3c3.3-6.9,11.1-7.5,16.2-8.1h.6c1.8-.6,7.2-.6,16.2-.6M242.4,316.2c8.1,0,15.9-.9,21.9-3,14.1-4.2,21.3-13.5,22.8-28.8,0-.6.3-5.7-9.6-9-8.1-2.7-16.8-3-23.4-3h-17.7c-9,0-14.7,0-17.1.3l-.3.3c-5.7.6-13.2,1.2-15.9,9-2.7,8.4,1.2,21.9,12,28.8,6,3.3,16.2,5.4,27.3,5.4M236.4,270.3c-7.2,0-14.1,0-17.1.3h-.6c-5.4.6-13.2,1.2-16.8,8.4h-8.4v6.6h6.9c-.6,9,3.9,20.4,13.8,26.4,6.9,4.2,17.7,6.3,28.5,6.3s16.2-1.2,22.8-3c14.7-4.5,22.8-14.7,24.3-30.3,0-.6.6-7.5-10.8-11.4-8.4-3-17.4-3.3-24-3.3h-18.6ZM242.4,315.6c-10.2,0-20.4-1.8-27-5.7-10.5-6.6-14.4-19.5-11.7-27.9,2.4-7.2,9.6-7.8,15.3-8.4h.6c2.7-.3,9.9-.3,16.8-.3h18c6.6,0,15.3.3,23.1,3,9.3,3.3,9,8.1,9,8.4-1.2,14.7-8.7,23.7-22.2,27.9-6,2.1-13.8,3-21.9,3h0Z"/>
            </g>
          </g>
        </g>
      </g>
    </g>
    <rect id="svga-credit-rect" class="cls-2" y="555" width="600" height="45"/>
    <g id="svga-credit-text" class="cls-31">
      <text class="cls-30" transform="translate(100.2 586.8)"><tspan x="0" y="0">Created on AvatarMaker.com</tspan></text>
    </g>
  </g>
</svg>