<svg width="188" height="70" viewBox="0 0 188 70" fill="none" xmlns="http://www.w3.org/2000/svg">
<g clip-path="url(#clip0_471_800)">
<path d="M58.6878 70H11.2827C5.08017 70 0 64.9198 0 58.6878V11.3122C0 5.08017 5.05063 0 11.2827 0H58.6878C64.9198 0 70 5.08017 70 11.3122V58.7173C70 64.9198 64.9198 70 58.6878 70ZM11.2827 1.18143C5.72996 1.18143 1.18143 5.72996 1.18143 11.2827V58.6878C1.18143 64.27 5.72996 68.8186 11.2827 68.8186H58.6878C64.27 68.8186 68.789 64.27 68.789 58.7173V11.3122C68.8186 5.72996 64.27 1.18143 58.6878 1.18143H11.2827Z" fill="#191B52"/>
<path d="M20.114 53.9029C20.1435 53.135 20.2617 52.3671 20.498 51.5992L18.8735 51.0675C16.9241 55.9114 13.941 57.211 11.5781 57.7722L11.7849 59.4557H24.2195L24.3967 57.7722C21.4136 57.1519 20.114 55.9705 20.114 53.9029Z" fill="#191B52"/>
<path d="M53.5486 52.3671L37.806 10.5148H22.9199V12.2279C24.3967 12.2279 27.0254 13.4388 27.6457 15.1224L40.9959 51.097C41.4389 52.308 42.0296 54.0506 42.0296 55.2025C42.0296 56.0295 41.7638 57.1814 39.4009 57.8312L39.6372 59.5148H58.2153L58.4811 57.8608C57.2701 57.3882 54.9959 56.1477 53.5486 52.3671Z" fill="#191B52"/>
<path d="M102.312 37.6287V30.1561C102.312 26.8481 101.455 22.4768 94.0417 22.4768L93.9531 23.1857C95.6957 23.6878 96.5523 25.3418 96.5523 28.1182V38.2194C96.5523 40.4346 97.9109 41.5865 100.569 41.5865C101.751 41.557 102.932 41.3207 104.025 40.9072L105.265 40.3755L103.907 40.2279C102.607 40.0506 102.282 39.5485 102.312 37.6287Z" fill="#191B52"/>
<path d="M92.831 40.0211C91.177 40.0211 90.0842 38.5148 90.0842 36.1814C90.0842 34.3797 90.7635 32.1055 93.9534 31.5148L93.8943 30.7764C91.6496 30.8059 84.2656 31.3671 84.2656 37.2447C84.2656 40.4937 86.9534 41.6456 89.4935 41.6456C90.9998 41.6456 92.772 41.4979 94.5441 40.3755L94.2192 39.7257C93.7762 39.9325 93.3036 40.0211 92.831 40.0211Z" fill="#191B52"/>
<path d="M89.9072 28.1772C91.5021 28.1772 92.7722 26.8776 92.7722 25.2827C92.7722 23.6878 91.4726 22.4177 89.8777 22.4177C88.2827 22.4177 87.0127 23.7173 87.0127 25.3122C87.0422 26.9072 88.3418 28.1772 89.9072 28.1772Z" fill="#191B52"/>
<path d="M118.085 37.9831V10.692L110.021 11.7257V12.4641C111.351 12.6413 112.266 13.7341 112.266 15.1814V37.8059C112.266 39.7257 111.351 40.2278 110.553 40.4346L110.642 41.1434H119.709L119.798 40.4346C119 40.2278 118.085 39.7553 118.085 37.9831Z" fill="#191B52"/>
<path d="M133.207 17.0718L132.498 16.9536C131.73 19.4346 129.722 22.3291 127.684 22.8903H124.76V24.3376H127.477V36.6836C127.477 38.8102 127.979 41.6456 132.232 41.6456C133.916 41.6456 135.57 41.3207 137.106 40.6414L136.869 39.9621C136.515 40.0507 136.131 40.1097 135.747 40.1097C134.004 40.1097 133.237 39.1646 133.237 37.0675V24.3671H138.671V22.9199H133.207V17.0718Z" fill="#191B52"/>
<path d="M158.578 22.4473C156.983 22.4473 155.713 23.7468 155.713 25.3418C155.713 26.9367 157.012 28.2068 158.607 28.2068C160.173 28.2068 161.443 26.9367 161.472 25.3418C161.472 23.7468 160.173 22.4473 158.578 22.4473Z" fill="#191B52"/>
<path d="M152.76 37.9831V22.4768L144.696 23.5106V24.2194C146.025 24.3966 147.03 25.5781 146.971 26.9367V37.7764C146.971 39.6962 146.055 40.1983 145.257 40.4051L145.346 41.1139H154.295L154.384 40.4051C153.557 40.1688 152.76 39.7258 152.76 37.9831Z" fill="#191B52"/>
<path d="M178.81 22.5063L178.633 23.2152C180.641 24.1308 181.734 27.173 181.734 32.076C181.734 36.8017 180.73 39.8734 178.84 40.9072L179.046 41.5865C185.633 40.8186 187.966 35.8861 187.966 31.9283C187.966 27.7933 185.574 23.1857 178.81 22.5063Z" fill="#191B52"/>
<path d="M175.945 23.2152L175.768 22.5063C170.008 23.0971 166.464 26.7595 166.464 32.135C166.464 38.3376 171.101 41.0844 175.472 41.557L175.679 40.8481C174.586 40.3165 172.785 38.4557 172.785 32.1646C172.725 27.3502 173.877 24.1604 175.945 23.2152Z" fill="#191B52"/>
<path d="M86.4519 59.8692L83.5869 51.8354H85.3295L87.3675 57.7722L89.3169 51.8354H91.03L88.165 59.8692H86.4519Z" fill="#191B52"/>
<path d="M100.304 59.8692H98.5314L97.8225 58.038H94.6031L93.9533 59.8692H92.2402L95.371 51.8354H97.0841L100.304 59.8692ZM97.3204 56.7089L96.2276 53.7257L95.1348 56.7089H97.3204Z" fill="#191B52"/>
<path d="M102.548 57.27L104.113 57.1223C104.202 57.654 104.409 58.038 104.704 58.2742C104.999 58.5105 105.383 58.6582 105.885 58.6582C106.417 58.6582 106.801 58.5401 107.067 58.3333C107.333 58.1266 107.451 57.8607 107.451 57.5654C107.451 57.3882 107.392 57.211 107.274 57.0928C107.155 56.9451 106.978 56.8565 106.683 56.7384C106.506 56.6793 106.063 56.5612 105.383 56.3839C104.527 56.1772 103.906 55.9114 103.552 55.5865C103.05 55.1434 102.814 54.6118 102.814 53.962C102.814 53.5485 102.932 53.1645 103.168 52.8101C103.404 52.4557 103.729 52.1899 104.172 51.9831C104.615 51.8059 105.147 51.7173 105.738 51.7173C106.742 51.7173 107.51 51.924 108.012 52.3671C108.514 52.8101 108.78 53.4008 108.809 54.1392L107.185 54.1983C107.126 53.7848 106.978 53.4894 106.742 53.3122C106.506 53.135 106.181 53.0464 105.708 53.0464C105.236 53.0464 104.881 53.135 104.615 53.3418C104.438 53.4599 104.35 53.6371 104.35 53.8439C104.35 54.0211 104.438 54.1983 104.586 54.3164C104.793 54.4937 105.295 54.6709 106.063 54.8481C106.831 55.0253 107.421 55.2321 107.805 55.4388C108.189 55.6456 108.485 55.9114 108.691 56.2658C108.898 56.6202 109.016 57.0337 109.016 57.5359C109.016 58.0084 108.898 58.4219 108.632 58.8354C108.366 59.2489 108.012 59.5443 107.539 59.7215C107.067 59.9283 106.506 60.0169 105.797 60.0169C104.793 60.0169 103.995 59.7806 103.463 59.308C102.961 58.865 102.636 58.1561 102.548 57.27Z" fill="#191B52"/>
<path d="M111.793 59.8692V53.1941H109.4V51.8354H115.78V53.1941H113.417V59.8692H111.793Z" fill="#191B52"/>
<path d="M122.19 56.9451V55.5865H125.675V58.7764C125.35 59.1012 124.848 59.3966 124.198 59.6329C123.548 59.8692 122.899 60.0169 122.249 60.0169C121.422 60.0169 120.683 59.8396 120.063 59.4852C119.443 59.1308 118.97 58.6287 118.645 57.9789C118.321 57.3291 118.173 56.6202 118.173 55.8523C118.173 55.0253 118.35 54.2869 118.704 53.6371C119.059 52.9873 119.561 52.4852 120.24 52.1308C120.742 51.865 121.392 51.7173 122.16 51.7173C123.164 51.7173 123.932 51.924 124.494 52.3375C125.055 52.751 125.409 53.3418 125.586 54.0802L123.991 54.3755C123.873 53.9915 123.667 53.6666 123.342 53.4304C123.017 53.1941 122.633 53.0759 122.16 53.0759C121.451 53.0759 120.89 53.3122 120.477 53.7553C120.063 54.1983 119.856 54.8776 119.856 55.7637C119.856 56.7088 120.063 57.4177 120.477 57.9198C120.89 58.4219 121.451 58.6287 122.131 58.6287C122.456 58.6287 122.81 58.5696 123.164 58.4219C123.519 58.2742 123.785 58.1266 124.05 57.9494V56.9451H122.19Z" fill="#191B52"/>
<path d="M128.629 55.9114C128.629 55.0844 128.747 54.405 128.983 53.8439C129.161 53.4304 129.426 53.0759 129.722 52.751C130.047 52.4261 130.372 52.1899 130.755 52.0422C131.258 51.8354 131.819 51.7173 132.498 51.7173C133.68 51.7173 134.625 52.0717 135.334 52.8101C136.042 53.5485 136.397 54.5527 136.397 55.8818C136.397 57.1814 136.042 58.1856 135.334 58.924C134.625 59.6624 133.68 60.0169 132.498 60.0169C131.317 60.0169 130.372 59.6624 129.663 58.924C128.983 58.1856 128.629 57.211 128.629 55.9114ZM130.283 55.8523C130.283 56.7679 130.49 57.4472 130.903 57.9198C131.317 58.3924 131.848 58.6287 132.498 58.6287C133.148 58.6287 133.68 58.3924 134.093 57.9198C134.507 57.4472 134.713 56.7679 134.713 55.8228C134.713 54.9072 134.507 54.2278 134.123 53.7553C133.739 53.2827 133.177 53.0759 132.528 53.0759C131.848 53.0759 131.317 53.3122 130.903 53.7553C130.49 54.2574 130.283 54.9367 130.283 55.8523Z" fill="#191B52"/>
<path d="M139.646 59.8692V51.8354H145.582V53.1941H141.27V54.9663H145.287V56.3249H141.27V58.5106H145.759V59.8692H139.646Z" fill="#191B52"/>
<path d="M147.856 51.865H150.81C151.489 51.865 151.991 51.9241 152.346 52.0127C152.818 52.1603 153.232 52.3966 153.557 52.7511C153.882 53.1055 154.148 53.5485 154.325 54.0506C154.502 54.5528 154.591 55.2025 154.591 55.9409C154.591 56.5907 154.502 57.1814 154.354 57.654C154.148 58.2447 153.882 58.7173 153.498 59.0717C153.202 59.3376 152.848 59.5443 152.346 59.7215C151.991 59.8397 151.519 59.8987 150.899 59.8987H147.856V51.865ZM149.481 53.2236V58.5401H150.692C151.135 58.5401 151.46 58.5106 151.667 58.4515C151.932 58.3924 152.139 58.2743 152.316 58.1266C152.494 57.9789 152.641 57.7131 152.73 57.3587C152.848 57.0042 152.907 56.5021 152.907 55.8819C152.907 55.2616 152.848 54.789 152.73 54.4641C152.612 54.1392 152.464 53.8734 152.257 53.6962C152.051 53.519 151.814 53.3713 151.519 53.3122C151.283 53.2532 150.84 53.2236 150.19 53.2236H149.481Z" fill="#191B52"/>
</g>
<defs>
<clipPath id="clip0_471_800">
<rect width="187.966" height="70" fill="white"/>
</clipPath>
</defs>
</svg>
