<svg width="241" height="70" viewBox="0 0 241 70" fill="none" xmlns="http://www.w3.org/2000/svg">
<g clip-path="url(#clip0_471_873)">
<path d="M19.9132 57.5768C19.9425 57.0048 19.8425 56.4335 19.6204 55.9057C19.3983 55.3777 19.0601 54.9067 18.6307 54.5276C17.5885 53.7326 16.294 53.3411 14.9859 53.4254H8.77966V61.5704H15.0405C18.2905 61.5704 19.9156 60.238 19.9156 57.5732L19.9132 57.5768ZM8.77966 47.2749H14.528C17.5732 47.2749 19.0958 45.977 19.0958 43.381C19.0958 40.7851 17.5392 39.4868 14.4259 39.486H8.77966V47.2749ZM26.9725 53.2202C28.2473 54.7999 28.9286 56.7762 28.8981 58.806C28.9691 60.1753 28.7262 61.5428 28.1878 62.8039C27.6495 64.0651 26.8301 65.1864 25.792 66.0824C23.7213 67.8225 20.7552 68.6926 16.8937 68.6926H0V32.4646H16.4749C20.1695 32.4646 23.0261 33.2675 25.0446 34.8731C26.0555 35.6978 26.857 36.7499 27.3834 37.9437C27.9098 39.1374 28.1464 40.4388 28.0736 41.7414C28.1447 43.7083 27.5274 45.6384 26.3283 47.199C25.1779 48.6446 23.565 49.6501 21.7605 50.0465C23.811 50.4736 25.651 51.596 26.969 53.2238" fill="#191B52"/>
<path d="M44.2554 42.8423C42.6065 45.032 41.7147 47.6987 41.7147 50.4397C41.7147 53.1808 42.6065 55.8474 44.2554 58.0371C46.0735 59.8426 48.5318 60.8558 51.094 60.8558C53.6563 60.8558 56.1146 59.8426 57.9327 58.0371C59.5932 55.8586 60.4947 53.1963 60.4994 50.4572C60.504 47.718 59.6117 45.0527 57.9588 42.8684C56.1352 41.0668 53.6764 40.0542 51.113 40.0493C48.5496 40.0445 46.0858 41.0476 44.2554 42.8423ZM60.4278 34.2834C63.1878 35.8445 65.4685 38.1305 67.0232 40.8942C68.6108 43.8353 69.4397 47.1258 69.4352 50.468C69.4307 53.8102 68.5926 57.0984 66.9971 60.0351C65.4348 62.8081 63.1459 65.1028 60.3767 66.672C57.5391 68.2347 54.3525 69.0541 51.113 69.0541C47.8736 69.0541 44.6869 68.2347 41.8493 66.672C39.0799 65.1034 36.7912 62.8087 35.2301 60.0351C33.6302 57.0989 32.792 53.8084 32.792 50.4646C32.792 47.1209 33.6302 43.8304 35.2301 40.8942C36.7978 38.1323 39.0853 35.8474 41.8493 34.2834C44.6961 32.7202 47.8913 31.9006 51.1391 31.9006C54.3869 31.9006 57.5809 32.7202 60.4278 34.2834Z" fill="#191B52"/>
<path d="M83.8344 49.0178H89.2754C90.658 49.1342 92.0334 48.722 93.1242 47.8646C93.5573 47.415 93.8909 46.8792 94.103 46.2921C94.3153 45.705 94.4014 45.0797 94.3557 44.4571C94.39 43.8372 94.2961 43.2169 94.08 42.635C93.8638 42.0529 93.5299 41.5217 93.0993 41.0746C92.0372 40.1763 90.6631 39.7341 89.2766 39.8442H83.8355L83.8344 49.0178ZM93.6889 68.6973L85.8359 55.0141H83.8344V68.6973H75.0547V32.4646H90.0418C92.5533 32.3883 95.0481 32.8971 97.3289 33.9512C99.1916 34.8308 100.747 36.2499 101.794 38.0242C102.806 39.8302 103.32 41.8732 103.282 43.9434C103.351 46.3661 102.58 48.7379 101.101 50.6574C99.4804 52.6065 97.2446 53.9457 94.7615 54.4541L103.385 68.7008L93.6889 68.6973Z" fill="#191B52"/>
<path d="M129.726 58.1391C130.707 57.1358 131.468 55.9379 131.959 54.6228C132.449 53.3076 132.659 51.9043 132.573 50.5032C132.658 49.1024 132.449 47.6993 131.958 46.3843C131.468 45.0693 130.707 43.8717 129.726 42.8685C127.526 40.9488 124.66 39.9727 121.746 40.1515H117.593V60.8573H121.746C124.66 61.0369 127.526 60.0612 129.726 58.1415V58.1391ZM139.169 59.9603C137.656 62.701 135.371 64.9373 132.599 66.392C129.483 67.9908 126.016 68.7838 122.515 68.6985H108.812V32.4646H122.515C126.019 32.3741 129.492 33.1482 132.626 34.7188C135.385 36.1455 137.662 38.3563 139.169 41.0734C140.67 43.9944 141.453 47.2314 141.453 50.5157C141.453 53.8 140.67 57.0369 139.169 59.958" fill="#191B52"/>
<path d="M147.102 32.4646V68.6961H169.683V61.6748H155.878V53.6295H168.143V47.0187H155.878V39.4338H169.683V32.4646H147.102Z" fill="#191B52"/>
<path d="M200.118 63.7759C199.076 65.4419 197.58 66.7757 195.807 67.62C193.65 68.632 191.285 69.1233 188.904 69.0544C185.316 69.2025 181.779 68.1596 178.845 66.0883C177.549 65.1177 176.487 63.8667 175.74 62.4287C174.994 60.9907 174.582 59.4027 174.535 57.7832H183.876C183.945 59.0036 184.465 60.1546 185.337 61.0115C186.21 61.8098 187.359 62.233 188.541 62.1897C189.517 62.2446 190.475 61.9135 191.209 61.2678C191.537 60.9501 191.793 60.5666 191.961 60.1427C192.13 59.7188 192.206 59.264 192.186 58.8083C192.198 58.3833 192.124 57.9602 191.97 57.5641C191.815 57.1679 191.584 56.8068 191.287 56.5019C190.647 55.8594 189.889 55.3463 189.055 54.9903C188.165 54.5988 186.933 54.129 185.359 53.5809C183.437 52.9472 181.559 52.1852 179.739 51.3005C178.241 50.5284 176.955 49.4023 175.992 48.02C174.955 46.3241 174.414 44.3723 174.427 42.3847C174.441 40.3971 175.01 38.4529 176.069 36.7714C177.212 35.1618 178.787 33.9087 180.612 33.1575C182.717 32.2877 184.979 31.8605 187.256 31.9022C190.699 31.7184 194.099 32.7321 196.879 34.771C198.064 35.7328 199.036 36.9317 199.73 38.2907C200.425 39.6499 200.828 41.1392 200.913 42.6632H191.422C191.312 41.596 190.854 40.5948 190.116 39.8158C189.738 39.4569 189.29 39.1787 188.801 38.998C188.311 38.8174 187.79 38.7379 187.269 38.7646C186.366 38.7223 185.479 39.0142 184.777 39.5844C184.45 39.8898 184.195 40.2645 184.03 40.6812C183.866 41.098 183.797 41.5461 183.828 41.9929C183.811 42.8026 184.115 43.5862 184.675 44.1712C185.282 44.797 186.008 45.2934 186.811 45.6305C187.666 46.007 188.898 46.4856 190.506 47.0661C192.46 47.6986 194.364 48.4779 196.201 49.3975C197.712 50.2029 199.012 51.3527 199.997 52.7539C201.123 54.4497 201.681 56.4601 201.588 58.4939C201.602 60.355 201.096 62.1829 200.126 63.7712" fill="#191B52"/>
<path d="M221.285 18.938V0H197.227V24.0242H216.239V42.9622H240.298V18.938H221.285Z" fill="#191B52"/>
</g>
<defs>
<clipPath id="clip0_471_873">
<rect width="240.847" height="70" fill="white"/>
</clipPath>
</defs>
</svg>
