<svg width="58" height="70" viewBox="0 0 58 70" fill="none" xmlns="http://www.w3.org/2000/svg">
<path d="M5.66907 67.1152C5.66907 66.7137 5.38797 66.5063 4.93286 66.5063H4.00256V67.7845H4.93955C5.39466 67.7845 5.65568 67.5436 5.65568 67.1889L5.66907 67.1152ZM5.66907 69.9128L4.75885 68.5743H4.00256V69.9128H3.07227V65.663H5.01317C6.0104 65.663 6.61275 66.1917 6.61275 67.0617C6.62798 67.3535 6.54725 67.6426 6.3829 67.8842C6.21854 68.1258 5.97958 68.3072 5.70253 68.4002L6.73992 69.9195L5.66907 69.9128Z" fill="#191B52"/>
<path d="M8.29883 69.9329V65.6896H11.5047V66.5195H9.22912V67.383H11.2303V68.2129H9.22912V69.103H11.5314V69.9329H8.29883Z" fill="#191B52"/>
<path d="M15.0856 66.7806L14.5167 68.1593H15.6478L15.0856 66.7806ZM16.3773 69.9396L15.9891 68.9892H14.2088L13.8206 69.9396H12.877L14.684 65.6896H15.5407L17.3477 69.9396H16.3773Z" fill="#191B52"/>
<path d="M18.8467 69.9329V65.6896H19.7837V69.0829H21.8986V69.9329H18.8467Z" fill="#191B52"/>
<path d="M26.1084 69.9329V65.6896H29.3142V66.5195H27.0387V67.383H29.0398V68.2129H27.0387V69.103H29.341V69.9329H26.1084Z" fill="#191B52"/>
<path d="M32.5269 69.9999C31.8647 70.0072 31.2232 69.769 30.7266 69.3306L31.2754 68.6613C31.6213 68.9839 32.0742 69.1673 32.547 69.1767C32.9285 69.1767 33.156 69.0294 33.156 68.7818C33.156 68.5408 33.0155 68.4204 32.2994 68.2397C31.4494 68.0188 30.8939 67.7846 30.8939 66.9413C30.8965 66.7547 30.9381 66.5706 31.016 66.401C31.0939 66.2314 31.2065 66.08 31.3464 65.9565C31.4863 65.8329 31.6505 65.74 31.8285 65.6837C32.0064 65.6274 32.1942 65.6089 32.3797 65.6295C32.9535 65.619 33.5127 65.811 33.9592 66.1716L33.4773 66.8409C33.1586 66.6035 32.7766 66.4661 32.3797 66.446C32.0183 66.446 31.8309 66.6133 31.8309 66.8208C31.8309 67.1019 32.0116 67.1956 32.7478 67.383C33.6112 67.6038 34.0863 67.9184 34.0863 68.6546C34.0863 69.4979 33.4171 69.9932 32.5269 69.9932" fill="#191B52"/>
<path d="M37.6671 66.5463V69.9329H36.7302V66.5463H35.4385V65.6896H38.9588V66.5463H37.6671Z" fill="#191B52"/>
<path d="M42.4192 66.7806L41.857 68.1593H42.9546L42.4192 66.7806ZM43.7176 69.9396L43.3294 68.9892H41.5224L41.1342 69.9396H40.1904L41.9975 65.6896H42.8475L44.6545 69.9396H43.7176Z" fill="#191B52"/>
<path d="M48.0812 66.5463V69.9329H47.1442V66.5463H45.8525V65.6896H49.3729V66.5463H48.0812Z" fill="#191B52"/>
<path d="M50.9326 69.9329V65.6896H54.1385V66.5195H51.8629V67.383H53.8641V68.2129H51.8629V69.103H54.1652V69.9329H50.9326Z" fill="#191B52"/>
<path d="M3.07227 55.8445V38.4433H16.1968V41.8432H6.87377V45.377H15.0724V48.7837H6.87377V52.4379H16.3173V55.8445H3.07227Z" fill="#191B52"/>
<path d="M30.037 44.4333C30.037 45.8991 28.9662 46.8963 27.0989 46.8963H23.2238V41.8968H27.0253C28.8926 41.8968 30.037 42.7468 30.037 44.3865V44.4333ZM33.1358 53.9438L31.6567 51.782L30.1843 49.6336C31.3107 49.2669 32.2856 48.5405 32.959 47.566C33.6325 46.5914 33.9674 45.4226 33.9122 44.2393V44.1857C33.9122 40.6051 31.4559 38.4433 27.3532 38.4433H19.3955V54.2985C19.3955 55.4697 20.3459 55.8445 21.5171 55.8445H23.2238V50.2761H26.2355L29.3209 54.8875L29.3744 54.9678C29.563 55.2354 29.8124 55.4544 30.1021 55.6069C30.3918 55.7593 30.7136 55.8407 31.041 55.8445H34.3873L33.1358 53.9438Z" fill="#191B52"/>
<path d="M42.6597 48.5494L44.9553 42.9408L47.2509 48.5494H42.6597ZM46.7557 38.4433H43.2553L37.6066 51.7218L36.3952 54.6198L35.8799 55.8445H38.3228C38.7392 55.8441 39.1462 55.7214 39.4936 55.4918C39.841 55.2622 40.1134 54.9357 40.277 54.5528L41.3278 51.9761H48.6296L50.2091 55.8512H54.1846L46.7557 38.4433Z" fill="#191B52"/>
<path d="M54.165 59.0236H3.07227V62.5039H54.165V59.0236Z" fill="#191B52"/>
<path d="M0 36.817L28.6183 23.8932V0L0 20.5736V36.817Z" fill="#191B52"/>
<path d="M57.2365 36.817L28.6182 23.8932V0L57.2365 20.5736V36.817Z" fill="#191B52"/>
</svg>
