<svg width="70" height="70" viewBox="0 0 70 70" fill="none" xmlns="http://www.w3.org/2000/svg">
<g clip-path="url(#clip0_471_840)">
<mask id="mask0_471_840" style="mask-type:luminance" maskUnits="userSpaceOnUse" x="0" y="0" width="70" height="70">
<path d="M0 0H70V70H0V0Z" fill="white"/>
</mask>
<g mask="url(#mask0_471_840)">
<path d="M35.0001 69.1592C28.2439 69.16 21.6392 67.1572 16.0212 63.4043C10.4032 59.6513 6.02434 54.3166 3.4383 48.0749C0.852252 41.8332 0.175213 34.9648 1.4928 28.3383C2.81038 21.7118 6.06341 15.6248 10.8405 10.8472C15.6176 6.06954 21.7042 2.81579 28.3305 1.49743C34.9569 0.179062 41.8253 0.855293 48.0674 3.4406C54.3094 6.02591 59.6445 10.4042 63.3982 16.0217C67.1518 21.6393 69.1553 28.2437 69.1553 35C69.1457 44.0559 65.5443 52.7383 59.1412 59.1422C52.738 65.5461 44.0561 69.1485 35.0001 69.1592Z" fill="white"/>
<path d="M35 70C28.0777 70 21.3108 67.9473 15.5551 64.1015C9.79934 60.2556 5.3133 54.7893 2.66423 48.3939C0.015165 41.9985 -0.677952 34.9612 0.672531 28.1719C2.02301 21.3825 5.35644 15.1461 10.2513 10.2513C15.1461 5.35644 21.3825 2.02301 28.1719 0.672531C34.9612 -0.677952 41.9985 0.015165 48.3939 2.66423C54.7893 5.3133 60.2556 9.79934 64.1015 15.5551C67.9473 21.3108 70 28.0777 70 35C69.9894 44.2793 66.2985 53.1755 59.737 59.737C53.1755 66.2985 44.2793 69.9894 35 70ZM35 1.68565C28.4111 1.68565 21.9701 3.6395 16.4915 7.30013C11.013 10.9608 6.74304 16.1638 4.22155 22.2512C1.70007 28.3386 1.04033 35.037 2.32577 41.4993C3.61122 47.9617 6.7841 53.8977 11.4432 58.5568C16.1023 63.2159 22.0384 66.3888 28.5007 67.6743C34.9631 68.9597 41.6615 68.3 47.7489 65.7785C53.8363 63.257 59.0393 58.987 62.6999 53.5085C66.3605 48.03 68.3144 41.589 68.3144 35C68.3037 26.1678 64.7904 17.7003 58.5451 11.455C52.2997 5.20961 43.8323 1.69629 35 1.68565Z" fill="#191B52"/>
</g>
<path d="M11.3408 47.9822H12.3265V53.027H11.3408V47.9822ZM17.0897 53.027V50.0862L16.1282 52.0011H15.4604L14.4908 50.0862V53.027H13.5012V47.9822H14.4747L15.7943 50.7098L17.1058 47.9822H18.0753V53.027H17.0897ZM22.8345 53.027V50.0862L21.873 52.0011H21.2052L20.2356 50.0862V53.027H19.25V47.9822H20.2196L21.5391 50.7098L22.8506 47.9822H23.8201V53.027H22.8345Z" fill="#191B52"/>
<mask id="mask1_471_840" style="mask-type:luminance" maskUnits="userSpaceOnUse" x="0" y="0" width="70" height="70">
<path d="M0 0H70V70H0V0Z" fill="white"/>
</mask>
<g mask="url(#mask1_471_840)">
<path d="M27.3205 49.0805C27.2408 48.9928 27.1431 48.9233 27.0341 48.8768C26.9251 48.8303 26.8073 48.8078 26.6889 48.8109C26.5698 48.808 26.4516 48.8306 26.342 48.8771C26.2323 48.9236 26.1339 48.9929 26.0532 49.0805C25.8601 49.2937 25.8119 49.527 25.8119 50.5006C25.8119 51.4741 25.8601 51.7075 26.0532 51.9167C26.1325 52.0059 26.2307 52.0765 26.3407 52.1231C26.4506 52.1697 26.5696 52.1913 26.6889 52.1862C26.8075 52.1907 26.9257 52.1688 27.0349 52.1222C27.1441 52.0756 27.2416 52.0054 27.3205 51.9167C27.5136 51.7034 27.5699 51.4701 27.5699 50.5006C27.5699 49.531 27.5136 49.2937 27.3205 49.0805ZM28.0527 52.5121C27.687 52.8677 27.197 53.0666 26.6869 53.0666C26.1768 53.0666 25.6868 52.8677 25.3211 52.5121C24.8101 52.0011 24.8262 51.3736 24.8262 50.5006C24.8262 49.6276 24.8262 48.996 25.3211 48.4891C25.6877 48.1354 26.1774 47.9377 26.6869 47.9377C27.1964 47.9377 27.686 48.1354 28.0527 48.4891C28.5596 49 28.5555 49.6316 28.5555 50.5006C28.5555 51.3695 28.5555 52.0011 28.0527 52.5121ZM33.6688 49.173C33.5804 49.0653 33.4673 48.9805 33.3391 48.9258C33.2109 48.8712 33.0715 48.8483 32.9326 48.8592H32.1843V52.15H32.9285C33.0673 52.1599 33.2065 52.1365 33.3345 52.082C33.4625 52.0274 33.5757 51.9432 33.6647 51.8362C33.8498 51.6109 33.878 51.2489 33.878 50.4805C33.878 49.7121 33.8498 49.3983 33.6647 49.173M34.3527 52.5443C34.1737 52.7088 33.9638 52.8361 33.7352 52.919C33.5066 53.0019 33.2639 53.0386 33.0211 53.027H31.2027V47.9822H33.0251C33.2677 47.9698 33.5103 48.0058 33.7389 48.088C33.9675 48.1702 34.1775 48.2969 34.3567 48.4609C34.9239 49.0282 34.8676 49.7241 34.8676 50.4724C34.8676 51.2207 34.9239 51.969 34.3567 52.5362" fill="#191B52"/>
</g>
<path d="M37.4938 49.4828L36.8582 51.3172H38.1094L37.4938 49.4828ZM38.6726 53.0391L38.3749 52.146H36.5806L36.2749 53.0391H35.249L37.0835 47.9902H37.8559L39.6984 53.0391H38.6726ZM43.8019 53.027H43.0617L41.3961 47.9822H42.418L43.4318 51.269L44.4456 47.9822H45.4714L43.8019 53.027ZM46.0789 47.9822H47.0645V53.027H46.0789V47.9822ZM51.2283 53.027L49.2289 49.9293V53.027H48.2433V47.9822H49.1203L51.1197 51.0718V47.9822H52.1053V53.027H51.2283Z" fill="#191B52"/>
<mask id="mask2_471_840" style="mask-type:luminance" maskUnits="userSpaceOnUse" x="0" y="0" width="70" height="70">
<path d="M0 0H70V70H0V0Z" fill="white"/>
</mask>
<g mask="url(#mask2_471_840)">
<path d="M54.966 53.0713C54.7135 53.0757 54.4628 53.0288 54.2291 52.9334C53.9953 52.8379 53.7834 52.696 53.6062 52.5161C53.0953 52.0052 53.1114 51.3776 53.1114 50.5046C53.1114 49.6316 53.1114 49 53.6062 48.4931C53.7836 48.3138 53.9956 48.1724 54.2294 48.0777C54.4632 47.9829 54.7138 47.9367 54.966 47.942C55.4234 47.9192 55.8719 48.0738 56.2182 48.3736C56.5644 48.6734 56.7816 49.0952 56.8246 49.5511H55.8229C55.7943 49.3483 55.6919 49.1631 55.5353 49.0309C55.3786 48.8988 55.1788 48.8291 54.974 48.8351C54.8557 48.8301 54.7377 48.8513 54.6286 48.8972C54.5194 48.9431 54.4217 49.0126 54.3424 49.1006C54.1533 49.3098 54.093 49.5511 54.093 50.5247C54.093 51.4983 54.1533 51.7316 54.3424 51.9489C54.422 52.0361 54.5199 52.1048 54.6291 52.15C54.7382 52.1952 54.856 52.2158 54.974 52.2103C55.1791 52.2172 55.3793 52.1478 55.5361 52.0155C55.6929 51.8832 55.7951 51.6975 55.8229 51.4943H56.8246C56.7797 51.9494 56.562 52.3701 56.2162 52.6695C55.8704 52.9689 55.4229 53.1242 54.966 53.1034" fill="#191B52"/>
</g>
<path d="M57.6738 47.9822H58.6595V53.027H57.6738V47.9822Z" fill="#191B52"/>
<path d="M26.2939 43.3075H43.7095V45.0494H26.2939V43.3075Z" fill="#191B52"/>
<mask id="mask3_471_840" style="mask-type:luminance" maskUnits="userSpaceOnUse" x="0" y="0" width="70" height="70">
<path d="M0 0H70V70H0V0Z" fill="white"/>
</mask>
<g mask="url(#mask3_471_840)">
<path d="M35.0319 19.7126C34.8428 19.7126 34.8388 19.9098 34.6899 19.954C34.2192 20.0385 33.2497 19.6523 33.1411 20.1471C33.1548 20.2501 33.1876 20.3497 33.2376 20.4408C33.3462 20.6057 33.5957 20.6339 33.7204 20.7787C33.9442 20.7142 34.1571 20.6166 34.352 20.4891C34.3801 20.0868 34.6899 19.9862 35.0761 19.954C35.0853 19.9129 35.0862 19.8703 35.0786 19.8288C35.071 19.7873 35.0551 19.7478 35.0319 19.7126ZM35.6112 19.2741C35.584 19.3112 35.547 19.3399 35.5043 19.357C35.4617 19.3741 35.415 19.3788 35.3698 19.3707C35.3336 19.2017 35.5388 19.1937 35.6112 19.2741ZM33.5273 19.419C33.8411 19.5276 34.2072 19.419 34.3319 19.7569C34.0261 19.6724 33.648 19.6644 33.5273 19.419ZM57.2307 20.2919C56.76 21.2414 55.1951 21.0965 54.5152 21.8408C53.783 21.9776 53.3083 22.3638 52.5761 22.6172C52.0692 22.7983 51.6508 23.269 51.1238 23.4902C50.6732 23.6753 50.0778 23.7718 49.6192 23.973C49.1606 24.1741 48.7905 24.4799 48.2635 24.508C48.1106 24.5322 48.0543 24.6529 47.9255 24.7011C47.3139 24.7896 46.7228 24.9857 46.1796 25.2805C45.9178 25.4501 45.6419 25.5968 45.3549 25.719C45.4112 25.5178 45.6888 25.5339 45.6928 25.2805C46.1393 25.2805 46.2882 24.9707 46.7106 24.9425C47.0123 24.6488 47.4589 24.6327 47.825 24.508C48.1227 24.4075 48.3721 24.2868 48.7462 24.1661C49.1204 24.0454 49.4261 23.8885 49.8164 23.7316C50.279 23.5385 50.8181 23.4178 51.2687 23.1965C51.5301 23.0678 51.7595 22.8586 51.9968 22.7138C52.2561 22.5625 52.5248 22.4281 52.8014 22.3115C53.0669 22.1908 53.2962 21.9977 53.5778 21.873C54.1652 21.6155 54.8129 21.531 55.2273 21.0684C55.3238 20.9598 55.175 20.7988 55.2273 20.5856C55.4646 20.6218 55.3801 20.9879 55.6296 21.0201C56.2122 20.8985 56.7614 20.6514 57.2388 20.296M34.9313 20.3402C35.06 20.3402 35.0922 20.4046 35.0761 20.5333C34.9514 20.5333 34.871 20.5333 34.883 20.3885C34.9233 20.3885 34.9313 20.3885 34.9313 20.3402ZM54.6118 20.3885C54.6118 20.5011 54.4026 20.4327 54.3704 20.5333C54.3382 20.6339 54.5273 20.6339 54.6118 20.6782C54.4951 20.7385 54.471 20.8914 54.2738 20.8713C54.31 20.6902 54.2135 20.6379 54.2255 20.469C54.3476 20.3988 54.4873 20.3652 54.6278 20.3724M34.5974 20.5172C34.5041 20.8992 34.5041 21.2979 34.5974 21.6799C34.8926 21.659 35.1739 21.5465 35.402 21.358C35.4301 21.5994 35.8687 21.6477 35.7399 21.8891C35.4543 21.8247 35.406 21.6557 35.1083 21.696C34.9353 21.7483 34.9474 21.9856 34.8187 22.0983C34.6256 22.0983 34.5893 21.9414 34.5773 21.7603C34.2595 21.6678 34.3641 21.9977 34.0945 21.9534C33.9095 21.7885 34.2112 21.6638 34.2393 21.4224C34.2836 21.0201 34.0543 20.5736 34.5773 20.5494M16.8037 20.7747C16.8037 20.6701 17.033 20.7747 16.9968 20.8713C16.8439 20.9276 16.8801 20.7948 16.8037 20.7747ZM33.9135 21.1126C33.7687 21.2776 34.0945 21.2615 33.9135 21.1126V21.1126ZM35.9531 21.4063C36.0064 21.4058 36.0591 21.4176 36.107 21.4407C36.155 21.4639 36.197 21.4978 36.2297 21.5399C36.2624 21.5819 36.285 21.6309 36.2956 21.6831C36.3063 21.7353 36.3047 21.7893 36.2911 21.8408C36.2393 21.8371 36.1889 21.8225 36.1431 21.7981C36.0973 21.7736 36.0572 21.7398 36.0253 21.6988C35.9934 21.6579 35.9705 21.6107 35.9581 21.5603C35.9457 21.5099 35.944 21.4574 35.9531 21.4063ZM18.9842 21.6477C19.0566 21.7523 19.2658 21.7241 19.2778 21.8891C19.0445 21.9695 18.9399 21.8207 18.6462 21.8408C18.7066 21.7241 18.96 21.8006 18.9842 21.6477ZM51.5583 21.696H51.6549C51.6549 21.7724 51.6106 21.7805 51.6066 21.8408H51.4939C51.4939 21.7644 51.5422 21.7563 51.5422 21.696M19.4227 21.9373C19.5755 21.8971 19.5715 22.0138 19.6641 22.0339C19.6278 22.1465 19.3623 22.0822 19.4227 21.9373ZM22.7175 23.4419C23.0072 23.3776 23.1761 23.8442 23.3491 24.0695C23.6061 24.1055 23.8438 24.2258 24.025 24.4115C23.3008 24.3753 23.1198 23.8 22.7175 23.4419ZM36.1462 23.8282C36.2951 23.8885 36.3072 24.0856 36.3876 24.2305C36.6129 24.5402 36.9428 24.7414 37.0675 25.1517C36.7255 25.1879 36.7577 24.85 36.4359 24.8621C36.3112 24.9586 36.5445 25.1075 36.4842 25.2965C36.0457 25.2282 36.3273 24.7011 36.1945 24.3793C35.9652 24.3793 36.0658 24.7373 35.7922 24.7172C35.8896 24.42 36.0038 24.1285 36.1342 23.8442M46.3244 24.1661C46.3051 24.2238 46.2639 24.2716 46.2098 24.2994C46.1557 24.3272 46.0929 24.3328 46.0347 24.3149C46.0589 24.1942 46.2158 24.2063 46.3244 24.1661ZM24.0733 24.508C24.2583 24.4236 24.548 24.6488 24.6566 24.7977C24.371 24.7977 24.3146 24.5603 24.0733 24.508ZM45.6928 24.5402H45.7893C45.8135 24.6448 45.721 24.6328 45.6445 24.6368C45.6445 24.5965 45.6928 24.5885 45.6928 24.5402ZM45.4031 24.7977C45.0491 25.2 44.3531 25.2965 43.7537 25.4776C44.0675 25.031 44.9284 25.1316 45.3066 24.7494C45.3629 24.7494 45.3911 24.7494 45.4031 24.7977ZM24.898 24.846C25.3054 24.9161 25.6887 25.0876 26.0123 25.3448C25.7267 25.4655 25.4733 25.1396 25.2882 25.0029C25.1152 25.0029 24.8859 25.0391 24.8859 24.858M37.6468 25.5741C37.6468 25.4896 37.9204 25.4856 37.8399 25.6224C37.7393 25.6425 37.7152 25.5902 37.6468 25.5741ZM31.4916 26.4954C31.3123 26.3177 31.0969 26.1805 30.86 26.0931C30.687 26.0569 30.4577 26.1977 30.329 26.0448C30.5301 25.6908 30.848 26.1172 31.1014 25.9965C31.1738 26.2178 31.5037 26.1776 31.5037 26.4833M32.3164 26.5919C32.0187 26.6161 31.9824 26.3747 31.8778 26.1896C32.0307 26.1414 32.2801 26.3707 32.3164 26.5919ZM39.4893 27.4649C39.1474 27.6178 39.087 27.0626 38.6164 27.2195C38.4434 26.9419 38.0612 26.8736 37.8118 26.6885C37.6428 26.7167 37.3692 26.8896 37.1842 26.7368C37.2606 26.5879 37.51 26.608 37.5865 26.4471C37.8641 26.4471 37.8922 26.7207 38.2664 26.6402C38.5278 26.8454 38.902 26.9419 39.071 27.2195C39.256 27.2598 39.5014 27.2437 39.5054 27.4649M35.2733 26.4954C35.406 26.7569 34.9997 26.8977 34.871 27.0747C34.825 27.0716 34.7804 27.0575 34.7411 27.0334C34.7017 27.0094 34.6688 26.9762 34.6451 26.9367C34.6214 26.8971 34.6076 26.8525 34.6049 26.8064C34.6022 26.7604 34.6106 26.7144 34.6296 26.6724C34.8549 26.8494 35.0721 26.6121 35.2612 26.4793M55.6778 26.5517C55.7945 26.8011 55.8026 26.3827 55.6778 26.5517V26.5517ZM33.5755 26.7368C33.483 26.8333 33.3462 26.7609 33.2376 26.7368C33.2376 26.5879 33.5997 26.4954 33.5755 26.7368ZM35.8043 26.6885C35.9692 26.5598 36.2066 26.7529 36.2428 26.9299C36.0723 26.9048 35.9167 26.8191 35.8043 26.6885ZM32.075 26.9299C32.1756 26.9299 32.1997 26.9621 32.2681 26.9782V27.123C32.2346 27.1538 32.1908 27.1709 32.1454 27.1709C32.0999 27.1709 32.0561 27.1538 32.0227 27.123C32.0227 27.0385 32.083 27.0224 32.075 26.9299ZM22.5727 26.9782C22.9991 27.0586 23.3169 27.5092 23.7353 27.658C24.2422 27.8391 24.7813 27.6983 25.3445 27.7546C25.5992 27.7582 25.8421 27.8623 26.0204 28.0442C25.6985 28.0161 25.429 27.8793 25.1031 27.8511C24.8457 27.827 24.5801 27.8833 24.3267 27.8511C23.6388 27.7586 23.1359 27.3563 22.621 27.1713C22.5808 27.1154 22.5635 27.0463 22.5727 26.9782ZM54.4669 27.123C54.5836 26.9661 54.7244 27.1873 54.8049 27.2195C54.7343 27.3705 54.636 27.507 54.5152 27.6218H53.7911C54.0321 27.5088 54.2979 27.459 54.5635 27.477C54.5635 27.3241 54.5635 27.1833 54.4669 27.135M31.0049 27.2678C31.0934 27.2678 31.1175 27.3523 31.1014 27.4649C30.9526 27.4649 30.9324 27.3402 31.0049 27.2678ZM51.5583 27.4167C51.3089 27.3603 50.8261 27.5333 50.7537 27.3201C50.9911 27.2759 51.4819 27.1873 51.5583 27.4167ZM29.2629 27.3201C29.4131 27.296 29.4775 27.3603 29.456 27.5132C29.3031 27.5347 29.2388 27.4703 29.2629 27.3201ZM50.4439 27.4649C50.0698 27.8672 49.5468 27.2396 48.8347 27.4167C48.9273 27.1994 49.41 27.3764 49.6393 27.3201C49.8083 27.3201 49.8244 27.4891 49.9813 27.5132C50.1382 27.5373 50.3112 27.3724 50.4158 27.4649M40.2658 27.3563C40.3945 27.4006 40.2175 27.5253 40.2175 27.5977C40.0687 27.5373 40.2497 27.4126 40.2658 27.3563ZM30.6669 27.5132C30.7514 27.5132 30.7755 27.5937 30.7635 27.7063C30.679 27.7063 30.6549 27.6218 30.6669 27.5132ZM34.9313 27.6098C35.1445 27.6782 34.9313 27.8954 34.9313 28.0442C34.7824 27.9396 34.9796 27.7707 34.9313 27.6098ZM29.6491 27.7586C29.7457 27.7908 29.7778 27.8873 29.7939 28C29.6572 28 29.6531 27.8833 29.6491 27.7586ZM45.0572 27.8029C44.5623 27.9879 44.0273 28.1327 43.5043 28.2896C43.7658 27.9517 44.337 27.9236 44.7635 27.7546C44.8801 27.7546 44.9083 27.8391 45.0572 27.8029ZM26.306 28.0925C25.9922 28.0402 26.1974 28.2414 26.306 28.0925V28.0925ZM26.837 28.2896C26.837 28.181 27.01 28.2655 27.0784 28.2373C27.0784 28.346 26.9095 28.2615 26.837 28.2896ZM35.5629 28.6276C35.5066 28.7 35.5026 28.8247 35.4181 28.869C35.2692 28.869 35.1526 28.6638 35.225 28.5793C35.2974 28.4948 35.4664 28.5793 35.5629 28.6276ZM34.4968 30.3213C34.5855 30.3494 34.6643 30.4022 34.7241 30.4734C34.784 30.5446 34.8223 30.6314 34.8347 30.7236C34.6014 30.7236 34.5169 30.5586 34.4968 30.3213ZM35.225 30.4218C35.2652 30.4218 35.3095 30.4621 35.3215 30.5184C35.3215 30.7759 35.1405 30.8845 35.1244 31.146C34.7583 31.0052 35.1646 30.5988 35.225 30.4218ZM37.0112 30.8563C37.321 30.8925 37.6991 31.0896 37.5905 31.3914C37.3411 31.331 37.329 31.0373 37.1077 30.9529C37.0232 30.9529 37.0152 30.9167 37.0112 30.8563ZM31.4916 30.9529C31.6687 30.9529 31.7049 31.0977 31.6847 31.2948C31.4635 31.3391 31.4152 31.0534 31.4916 30.9529ZM30.86 31.0011C31.025 31.0454 30.8842 31.0937 30.9083 31.2425C30.7876 31.2425 30.7957 31.0655 30.86 31.0011ZM31.9744 31.0011C32.1031 31.0011 32.1353 31.0695 32.1233 31.1942C31.9945 31.1942 31.9623 31.1299 31.9744 31.0011ZM38.5681 31.2465C38.6847 31.331 38.5962 31.6247 38.5681 31.7293C38.2865 31.7293 38.4554 31.2988 38.5681 31.2465ZM39.3928 31.3391C39.6261 31.4477 39.3566 31.669 39.248 31.7414C39.0347 31.7776 39.0468 31.5845 38.91 31.5483C39.0428 31.4557 39.3123 31.508 39.3928 31.3511M36.971 32.019C36.4641 32.019 36.4077 31.5805 35.9008 31.5845C35.8727 31.5402 35.8445 31.496 35.9008 31.4879C36.4198 31.3149 36.7054 31.7856 36.971 32.019ZM35.3215 31.9224C35.3018 32.0156 35.2515 32.0994 35.1786 32.1607C35.1057 32.2219 35.0144 32.257 34.9192 32.2603C34.823 32.0728 34.6773 31.9151 34.4979 31.8045C34.3185 31.6939 34.1122 31.6345 33.9014 31.6327C34.3842 31.1419 34.7905 32.2804 35.3095 31.9224M31.9744 31.5845C32.1112 31.5845 32.26 31.7293 32.1715 31.8259C31.9905 31.858 31.9583 31.7494 31.9744 31.5845ZM32.9882 31.9224C33.2135 31.8822 33.1853 32.3247 32.9399 32.2121C32.8393 32.1155 32.9399 32.023 32.9882 31.9224ZM32.5577 32.1839C32.6583 32.1839 32.6865 32.2161 32.7508 32.2282C32.7508 32.3448 32.7187 32.4575 32.5577 32.4253V32.1839ZM38.8095 32.3126C38.9261 32.3126 38.9221 32.4414 38.8577 32.5057C38.7491 32.5057 38.7491 32.377 38.8095 32.3126ZM31.9744 32.554C31.9744 32.554 32.079 32.4655 32.1233 32.5057C32.1675 32.546 31.906 32.735 31.9744 32.554ZM38.1819 32.5057C38.0733 32.7511 37.9727 33.0086 37.6468 33.0368C37.7622 32.806 37.9502 32.6194 38.1819 32.5057ZM32.7026 32.9885C32.7026 33.1132 32.5416 33.085 32.4129 33.085C32.3687 32.9121 32.602 33.0167 32.7026 32.9885ZM31.7813 33.2299C31.6646 33.3345 31.4957 33.1977 31.379 33.1333C31.4233 32.9523 31.8095 33.0287 31.7813 33.2299ZM38.2181 33.5718C38.2744 33.5718 38.3026 33.5718 38.3146 33.6201C38.4393 34.119 37.7112 34.2718 37.2968 34.0224C37.5503 33.8494 38.2623 34.1592 38.2181 33.5879M32.3646 33.8615C32.3562 33.8923 32.3369 33.9191 32.3102 33.9368C32.2836 33.9545 32.2515 33.9621 32.2198 33.958C32.1957 33.8575 32.2882 33.8655 32.3646 33.8615ZM34.1066 33.958V34.0586C33.8732 34.1029 34.0181 33.7971 34.1066 33.958ZM32.8474 34.2517C32.9882 34.3523 33.2778 34.308 33.2859 34.5414C33.1652 34.5414 33.0485 34.5414 33.0405 34.6379C32.948 34.5373 32.8112 34.481 32.8474 34.2356M33.7204 34.4931C33.7204 34.6862 33.5957 34.6218 33.479 34.5896C33.5051 34.5514 33.542 34.5218 33.585 34.5046C33.628 34.4874 33.6751 34.4834 33.7204 34.4931ZM35.1244 34.9276C35.1244 35.169 34.8669 35.1207 34.7865 35.2695C34.7865 35.4184 34.9112 35.4023 34.9796 35.4626C34.875 35.5511 34.9434 35.8126 34.7382 35.8006C34.6859 35.7 34.8267 35.2695 34.5934 35.2213C34.7704 35.1408 34.887 34.7908 35.1244 34.9276ZM32.9882 34.9759C33.0526 34.9759 33.0646 35.0603 33.137 35.0764C33.0606 35.4305 33.1129 35.6236 33.0365 35.9454C32.8959 35.77 32.782 35.5748 32.6985 35.3661C32.8152 35.3661 32.8031 35.4546 32.9399 35.4144C32.9399 35.2615 32.9077 35.0563 32.9882 34.9759ZM37.5985 35.169C37.1962 35.169 37.0997 35.4465 37.1158 35.8488C37.0215 35.6452 36.9409 35.4356 36.8744 35.2213C36.987 35.0201 37.4618 34.9276 37.5985 35.169ZM35.3698 35.2213C35.3698 35.4023 35.2049 35.4184 35.0761 35.3661C35.0761 35.1851 35.2411 35.169 35.3698 35.2213ZM34.8347 36.0419C34.9595 36.0098 34.8991 36.1264 34.9313 36.1868C35.0077 36.3356 35.1727 36.4644 35.1767 36.6736C34.9715 36.6374 34.8991 36.4644 34.5934 36.5287C34.6215 36.3115 34.8468 36.2994 34.8347 36.0419ZM35.2733 37.6431C35.1847 37.6431 35.1687 37.7034 35.0801 37.6914C35.0801 37.9368 35.1807 38.0937 35.1767 38.323C35.0801 38.2546 34.8991 38.2747 34.7744 38.2264C34.7744 38.0454 34.8951 37.9569 34.9192 37.7879C34.9434 37.619 34.698 37.6592 34.6778 37.4983C34.7261 37.0115 35.402 37.0115 35.2733 37.6431ZM32.7508 37.3534C32.9359 37.4902 32.8112 37.9368 32.8474 38.2264C32.5698 38.1178 32.6623 37.5868 32.7508 37.3534ZM37.0675 37.3534C37.1238 37.5747 36.8985 37.5063 36.8744 37.6431C36.7618 37.5586 36.8744 37.3011 37.0675 37.3534ZM38.2181 37.981C38.2623 38.0052 38.3026 38.0253 38.3146 38.0776C38.3428 38.2707 38.206 38.2948 38.0732 38.323C38.1296 38.5282 37.9405 38.677 37.8801 38.854C37.8198 39.031 37.8801 39.385 37.6347 39.4373C37.6414 38.8963 37.8494 38.3771 38.2181 37.981Z" fill="#191B52"/>
</g>
<path d="M37.8926 39.4857H38.0374V39.6305H37.8926V39.4857Z" fill="#191B52"/>
<mask id="mask4_471_840" style="mask-type:luminance" maskUnits="userSpaceOnUse" x="0" y="0" width="70" height="70">
<path d="M0 0H70V70H0V0Z" fill="white"/>
</mask>
<g mask="url(#mask4_471_840)">
<path d="M37.4136 39.9201C37.4136 40.077 37.3412 40.2017 37.124 40.1615C37.1232 40.1253 37.1307 40.0894 37.1457 40.0565C37.1607 40.0235 37.183 39.9944 37.2108 39.9712C37.2386 39.948 37.2713 39.9314 37.3064 39.9225C37.3415 39.9137 37.3782 39.9129 37.4136 39.9201ZM56.0682 19.95C56.0682 20.3523 55.2958 20.3 54.8613 20.3523C54.7044 20.0627 54.9941 19.95 55.1027 19.769C55.2336 19.8826 55.3919 19.9602 55.5619 19.9941C55.7319 20.0279 55.9078 20.0169 56.0723 19.9621M51.8481 20.9678C51.7194 21.1448 51.4458 21.1609 51.3171 21.3701C51.2769 21.2132 51.5866 20.992 51.8481 20.9678ZM46.6665 23.7799C46.7912 23.8925 46.5257 24.0253 46.4251 24.0696C46.3527 24.0092 46.6504 23.9127 46.6665 23.7799ZM28.3418 25.8638C28.5309 25.7351 28.5832 26.0891 28.6315 26.2661C28.5832 26.2661 28.3981 26.0207 28.3418 25.8638ZM31.4918 26.7368C31.6184 26.8465 31.7176 26.9842 31.7815 27.1391C31.6447 27.2155 31.5763 27.3523 31.3792 27.3845C31.3349 27.2799 31.2303 27.2397 31.2343 27.0908C31.3349 26.9862 31.3751 27.1552 31.524 27.1391C31.6809 27.0265 31.4797 26.8655 31.4757 26.7368M55.1148 27.6581C55.1389 27.8109 54.8895 27.6943 54.8734 27.8029C54.7648 27.7546 55.0504 27.5454 55.1148 27.6581Z" fill="#191B52"/>
<path d="M60.7472 26.2138C60.7105 26.1189 60.6527 26.0337 60.5782 25.9644C60.2805 25.9644 60.0673 25.9 60.0552 25.6224C59.5443 25.715 59.3271 25.2201 58.8886 25.1356C58.5628 25.1526 58.2394 25.2011 57.923 25.2805C57.4363 25.3328 56.9736 25.1638 56.6116 25.2805C56.3502 25.5693 56.0589 25.8296 55.7426 26.0569C55.2067 26.0894 54.6693 26.0894 54.1334 26.0569C54.057 26.0569 53.9926 26.1494 53.888 26.1535C52.6811 26.2178 50.6093 25.9081 49.1409 26.0086C48.5213 26.0529 47.9782 26.3063 47.5317 26.3023C47.2999 26.2615 47.0732 26.1954 46.8558 26.1052C46.5621 26.0489 46.2322 26.1052 45.9305 26.0569C45.7093 26.0287 45.5041 25.9242 45.3029 25.9121C44.6311 25.8799 43.8024 26.3144 43.4604 25.6224C43.3331 25.6244 43.2068 25.5997 43.0897 25.5498C42.9726 25.4999 42.8672 25.426 42.7805 25.3328C42.0264 25.2237 41.2618 25.2061 40.5035 25.2805C39.8639 25.373 39.0955 25.0351 38.6127 25.3328C38.5725 25.2282 38.3995 25.2523 38.323 25.1839C38.1621 24.6127 39.2483 24.2989 39.8719 24.3793C40.073 24.3793 40.2139 24.6287 40.3587 24.4759C40.5035 24.323 40.1213 24.2908 40.069 24.1822C40.2058 23.8845 40.7047 23.8523 41.2317 23.7799C41.634 23.7397 42.2817 23.6391 42.4386 24.1178C42.4064 24.3471 42.0926 24.2868 42.0041 24.4598C42.4426 24.5764 42.6598 24.142 42.9696 23.9247C43.4684 23.5787 44.1322 23.5224 44.6673 23.1966C45.0696 23.3173 45.311 23.0316 45.5886 22.9552C45.8661 22.8787 46.2604 22.9793 46.5098 22.7621C46.6989 22.7178 46.6828 22.8787 46.7995 22.9069C47.0006 22.6937 47.3345 22.9069 47.5276 22.7138C47.3828 22.5006 47.0047 22.7701 46.723 22.7138C46.9524 22.2471 47.5035 22.054 47.9822 21.8408C48.461 21.6276 49.0162 21.4828 49.342 21.1127C49.7081 21.1127 49.8489 20.9075 50.0702 20.7747C50.4725 20.8431 50.8064 20.5374 51.1845 20.4851C51.6236 20.4725 52.0609 20.424 52.492 20.3402C52.665 20.2839 52.8139 20.1431 52.9788 20.0948C53.0512 20.0747 53.1478 20.123 53.2202 20.0948C53.7271 19.9138 54.1535 19.592 54.6242 19.4673C54.6524 19.2017 54.8334 19.0931 54.8696 18.8356C55.6742 18.554 56.2253 17.9989 56.9535 17.6287C57.3272 17.6323 57.7004 17.5999 58.0679 17.5322C58.0357 17.9948 57.4242 17.6046 57.388 18.015C57.6937 18.2966 57.9512 17.7213 58.4058 17.7253C58.5345 17.6127 58.5788 17.4155 58.8081 17.3874C58.6794 17.6851 58.2932 17.9144 58.0317 18.1598C57.565 18.1598 57.5368 18.3609 57.0662 18.3086C57.046 18.0994 57.3437 18.0431 57.1627 17.8219C56.9173 17.9667 56.8047 18.4414 56.3863 18.2563C56.2736 18.5178 55.8914 18.5058 55.7064 18.6948C56.2213 18.7431 56.9133 18.2925 57.4524 18.5017C57.3679 18.9765 56.7443 18.8276 56.4345 18.904C56.3304 18.9554 56.2485 19.043 56.2041 19.1503C56.1597 19.2576 56.1558 19.3774 56.1932 19.4874C56.3501 19.6402 56.2897 19.2983 56.4828 19.3385C56.5673 19.5437 56.3058 19.765 56.1932 19.9219C56.4024 19.9983 56.5472 19.6 56.7725 19.5196C56.8932 19.6644 56.7443 19.8293 56.8208 19.954C56.9334 19.9017 56.8409 19.6483 56.869 19.5196C56.869 19.3264 56.6558 19.3787 56.6759 19.1776C56.7725 18.9081 57.1466 19.1012 57.2593 19.2259V19.7609C57.3397 19.8293 57.4845 19.7368 57.6616 19.8092C57.8265 19.781 57.8345 19.596 57.9552 19.5196C58.269 19.5517 58.2851 19.2259 58.6794 19.2259C58.6794 19.4351 58.5667 19.5316 58.3414 19.5196C58.1684 19.604 58.1322 19.8253 57.8587 19.8092C57.8104 20.1029 57.384 20.0144 57.3236 20.296C57.532 20.2893 57.7337 20.2206 57.9029 20.0989C57.9834 20.0385 58.0116 19.9219 58.1001 19.8575C58.3656 19.6563 58.8524 19.596 58.8765 19.2259C58.8765 19.1293 58.7759 19.0971 58.7317 19.0328C58.3294 19.0328 58.1363 19.5075 57.7581 19.3747C57.8305 19.1052 58.3857 18.9443 58.7317 18.7914C59.0776 18.6385 59.5725 18.2925 59.134 17.9184C58.8685 17.9184 58.7317 18.2523 58.5024 18.1115C58.6029 17.7092 59.1702 17.7856 59.1822 17.3069C59.0414 16.7678 58.2127 17.0897 57.8748 17.1339C57.5986 17.1136 57.3243 17.1936 57.1024 17.3592C56.8972 17.6046 56.5834 17.5845 56.3299 17.7615C56.0765 17.9385 55.9276 18.1638 55.6983 18.2925C55.4137 18.3815 55.1377 18.496 54.8736 18.6345C54.822 18.8537 54.7408 19.0648 54.6322 19.2621C54.4834 19.2299 54.4552 19.3144 54.3426 19.3144C53.6858 19.7328 52.9658 20.0425 52.2104 20.2316C51.7156 20.3805 50.7903 20.2316 50.4644 20.6339C49.4909 20.8109 48.7707 21.3822 47.8937 21.7483C47.4688 21.8634 47.0574 22.0239 46.6667 22.227C46.5058 22.3397 46.3972 22.5408 46.2322 22.6293C46.0673 22.7178 45.7495 22.6977 45.5041 22.7742C45.2587 22.8506 45.1018 22.9391 44.8282 23.0155C44.3552 23.1328 43.8934 23.2917 43.4483 23.4902C43.2633 23.6021 43.0695 23.6989 42.869 23.7799C42.507 23.8322 42.2374 23.5425 41.8955 23.4902C41.1995 23.3776 40.7207 23.7517 40.057 23.7799C39.9041 24.2104 39.3409 24.1581 38.7495 24.315C38.5041 24.3793 38.3472 24.669 38.0696 24.7494C37.8477 24.6603 37.6484 24.5229 37.4863 24.3471C37.4863 24.2063 37.6874 24.2586 37.8242 24.2466C38.0616 24.0655 38.1863 23.7678 38.6006 23.7638C38.4518 23.615 38.5684 23.2851 38.7937 23.1322C38.7937 22.9954 38.6288 23.0397 38.6972 22.8425C38.8742 22.6535 38.8139 23.1764 38.9868 22.9874C39.2725 22.8184 39.2644 22.3558 39.4736 22.1144C39.4052 21.9132 39.2202 21.8207 39.0713 21.6799C39.1103 21.4527 39.0938 21.2194 39.023 21C39.1532 21.0587 39.2877 21.1071 39.4253 21.1448C39.5058 21.3862 39.2443 21.4345 39.3771 21.5833C39.6707 21.5431 39.7351 21.2333 39.715 21.0483C39.6707 20.646 39.3127 20.7104 38.9868 20.646C38.9868 20.3966 39.1357 20.3081 39.184 20.1109C39.1336 19.9133 39.0118 19.7413 38.842 19.6282C38.9024 19.3747 39.0472 19.3787 39.0391 19.1414C39.0391 18.6989 38.5805 18.6787 38.0696 18.7391C37.9891 18.5822 38.0455 18.4776 38.0696 18.3046C37.8442 17.9137 37.5213 17.5879 37.1322 17.3592C37.0772 17.3333 37.0208 17.3105 36.9633 17.2908V17.2989L36.8627 17.2345C36.592 17.0819 36.2841 17.008 35.9736 17.0213H35.9334C35.7644 17.0213 35.5955 16.9931 35.4265 16.9931C35.406 16.9932 35.386 16.986 35.3702 16.973H34.3524C33.9689 16.9352 33.5817 16.9749 33.2139 17.0897L33.1575 17.1178H33.1294C33.0317 17.164 32.9363 17.215 32.8437 17.2707C32.7794 17.327 32.6386 17.3069 32.6225 17.4155C33.0529 17.4517 33.5478 17.1017 34.0748 17.0736C34.3403 17.0736 34.5535 17.1983 34.8029 17.1219C34.8385 17.1895 34.8571 17.2647 34.8571 17.3411C34.8571 17.4175 34.8385 17.4928 34.8029 17.5604C34.5569 17.4763 34.2958 17.4458 34.037 17.4707C33.7782 17.4957 33.5278 17.5756 33.3024 17.7052C33.073 17.7253 32.9845 17.6006 32.8639 17.7535C32.6707 17.7535 32.7351 17.5282 32.5742 17.5121C32.2753 17.7299 31.9622 17.9275 31.6368 18.1035C31.6368 18.2201 31.5604 18.2885 31.5886 18.4454C31.1998 18.665 30.8933 19.0054 30.7156 19.415C30.5085 19.4995 30.3346 19.6494 30.2206 19.8419C30.1066 20.0343 30.0586 20.2588 30.084 20.481C30.1242 20.7546 30.3696 20.8512 30.4863 21.0604C30.2851 21.181 29.9914 21.2132 29.9995 21.5471C30.2288 21.5471 30.4018 21.1167 30.8041 21.1448C30.7298 21.0497 30.6856 20.9346 30.677 20.8143C30.6684 20.6939 30.6958 20.5737 30.7558 20.469H31.0495C30.9927 20.6089 30.9672 20.7596 30.9748 20.9104C30.9825 21.0612 31.0231 21.2085 31.0937 21.342C30.8187 21.3974 30.5493 21.4782 30.2891 21.5833C30.1322 21.9856 30.2891 22.2874 30.2409 22.6012C30.446 22.7581 30.3495 22.2793 30.6753 22.4081C30.7719 22.3719 30.6472 22.1184 30.8202 22.1627C31.0012 22.3799 30.6271 22.3638 30.7236 22.6494C30.6593 22.6977 30.5426 22.6937 30.5305 22.7943C30.5559 22.8845 30.6078 22.965 30.6796 23.0252C30.7513 23.0855 30.8396 23.1228 30.9328 23.1322C31.0937 22.9753 30.8041 23.0196 30.8363 22.8425C30.8684 22.6655 30.957 22.5448 31.1259 22.5046C31.2949 22.4644 31.2748 22.6454 31.2748 22.7943C31.5845 22.8586 31.7535 23.0879 32.0794 22.9874C32.0659 23.037 32.0422 23.0833 32.0097 23.1232C31.9772 23.163 31.9367 23.1956 31.8908 23.2187C31.8448 23.2419 31.7945 23.2551 31.7432 23.2575C31.6918 23.2599 31.6405 23.2515 31.5926 23.2328C31.4518 23.3856 31.8581 23.5345 31.6891 23.7155C31.4317 23.8604 31.2868 23.6391 31.3512 23.3132C31.1983 23.2891 31.1541 23.3736 31.1058 23.4581C31.1058 23.8604 31.5081 23.8161 31.4478 24.2627C31.1541 24.4598 30.6753 24.2144 30.4299 24.0655C29.9552 24.1299 29.6817 23.796 29.1707 23.6632C28.3661 23.4862 27.465 23.7678 26.757 23.615C26.6403 23.5908 26.5638 23.4742 26.419 23.4219C26.1173 23.3052 25.9081 23.2931 25.7391 23.0196C25.2805 22.915 24.8058 22.8224 24.3351 22.7299C23.9313 22.6773 23.5379 22.5634 23.1684 22.392C22.8265 22.1828 22.6857 21.8046 22.4443 21.6155C22.2878 21.5239 22.1252 21.4433 21.9575 21.3742C21.8087 21.2897 21.6518 21.1408 21.523 21.0805C21.3943 21.0201 21.3501 21.1046 21.2817 21.0805C21.2133 21.0563 21.0966 20.9356 20.988 20.8874C20.8794 20.8391 20.6983 20.8351 20.5857 20.7908C20.452 20.6918 20.3059 20.6107 20.1512 20.5494C20.0373 20.5434 19.9232 20.5434 19.8093 20.5494C19.6644 20.5253 19.5558 20.4287 19.407 20.4046C19.2018 20.3644 18.9524 20.4046 18.7271 20.3563C18.5863 20.3242 18.4857 20.2316 18.3248 20.2115C18.1638 20.1914 18.0914 20.2356 17.9828 20.2115C17.7093 20.1351 17.3753 19.8937 17.0616 19.773C16.8725 19.6966 16.6593 19.6724 16.3857 19.5799C16.1121 19.4874 16.0156 19.2621 15.6093 19.2902C15.4322 18.9644 15.038 18.8598 14.9776 18.4173C14.3905 18.0652 13.8499 17.6408 13.3684 17.154C13.3855 17.1322 13.4059 17.1132 13.4288 17.0977C13.4227 17.083 13.4196 17.0673 13.4196 17.0514C13.4196 17.0356 13.4227 17.0199 13.4288 17.0052C13.4165 16.9859 13.4057 16.9658 13.3966 16.9448C13.2558 16.9127 13.111 16.8845 12.9661 16.8644C12.7835 16.8924 12.5976 16.8924 12.415 16.8644H12.3064C12.0087 16.8644 11.707 16.8644 11.4052 16.8885C11.2543 16.9543 11.1089 17.0323 10.9707 17.1219C10.9707 17.319 10.9707 17.5523 11.1799 17.6489C11.1799 17.8138 10.9184 17.7454 10.8863 17.8902C10.9748 18.031 11.011 18.2201 11.1317 18.3287C11.2443 18.2966 11.1317 18.027 11.2282 17.9868C11.7874 18.0391 12.1776 18.2684 12.2943 18.7632C11.9483 18.8558 11.7432 18.4132 11.3248 18.4253C11.5058 18.6948 11.8558 18.7954 11.9524 19.1494C12.2378 19.2149 12.5145 19.3134 12.7771 19.4431V19.8454C12.3748 19.7006 12.0489 19.5075 11.6627 19.3627C11.546 19.2017 11.5219 18.9604 11.4213 18.7793C10.8661 19.1132 11.7351 19.427 11.8558 19.7006C12.0248 19.6604 12.0449 19.773 12.1978 19.7489C12.407 20.0546 12.8213 20.1512 13.1673 20.3322C13.3363 20.0466 12.9903 20.0305 12.9219 19.8454C13.0104 19.2581 12.5799 19.1856 12.2943 18.9724C12.5478 18.6707 12.9018 19.065 13.119 19.1173C13.0667 20.1994 13.6782 20.5173 14.1891 20.9196C14.9455 21.1328 15.4886 21.5592 16.273 21.7242C16.3372 21.8147 16.4256 21.8853 16.528 21.928C16.6305 21.9707 16.7429 21.9837 16.8524 21.9655C17.8863 22.7902 18.9322 23.6029 20.3926 24.0012C20.4771 24.0937 20.5978 24.154 20.6822 24.2425C21.7492 24.3349 22.7871 24.6385 23.7357 25.1356H24.1702C24.492 25.2724 24.8018 25.4132 25.0955 25.5742C25.1598 25.2362 24.665 25.0713 24.2707 24.9908C24.0656 24.9506 23.8282 24.9908 23.6391 24.9425C23.1689 24.6468 22.6598 24.418 22.1265 24.2627C21.9253 24.2184 21.7001 24.2627 21.4949 24.2144C21.1477 24.1014 20.8077 23.967 20.4771 23.8121C20.0748 23.6673 19.5317 23.5747 19.2702 23.2328C18.1437 22.9351 17.5886 22.0661 16.6512 21.5833C16.4762 21.3477 16.2415 21.163 15.9713 21.0483C15.8868 21.004 15.8426 20.9115 15.7299 21C15.8828 21.3219 16.5064 21.4023 16.5064 21.7282C16.1041 21.6236 15.8868 21.3259 15.392 21.2937C14.9535 20.7908 14.0161 20.7908 13.7426 20.127C14.0564 20.2035 14.3581 20.3443 14.6638 20.127C14.4104 19.8816 13.815 19.9822 13.646 19.5477C13.6138 19.3828 13.7265 19.3707 13.8391 19.3546C13.5078 19.1818 13.1985 18.9697 12.9179 18.723C12.6001 18.723 12.423 18.6023 12.3868 18.3207C12.7248 18.381 12.8575 18.4494 13.0627 18.2201C13.4127 18.3167 13.6179 18.8839 14.0845 18.5621C14.3138 18.5621 14.3179 18.7431 14.519 18.7552C14.4788 18.3086 13.9478 18.5902 13.646 18.4655C13.4449 18.2483 13.2437 18.015 13.0627 17.7856C12.8253 17.7213 12.5478 17.6891 12.5317 17.3833C12.6886 17.2104 12.769 17.4638 12.934 17.4799C13.0989 17.496 13.1472 17.3914 13.2759 17.4316C13.8593 17.6046 14.1851 18.3247 14.7765 18.4977C14.8482 18.8116 15.0155 19.0955 15.2552 19.3104C15.4644 19.4552 15.742 19.3908 16.0276 19.5075C16.1926 19.5719 16.2932 19.7489 16.4661 19.8454C16.7827 19.9762 17.1064 20.089 17.4357 20.1833C17.6047 20.2558 17.7334 20.4207 17.9184 20.477C18.2564 20.5736 18.6426 20.5494 18.9845 20.6219C19.061 20.6219 19.0972 20.6943 19.1817 20.7184C19.584 20.831 20.0949 20.7908 20.4409 20.9115C20.6822 20.996 20.8432 21.169 21.169 21.3138C21.4167 21.4701 21.6886 21.5843 21.9736 21.6517C22.2981 21.967 22.6436 22.26 23.0075 22.5287C23.0558 22.7339 22.7702 22.6132 22.7661 22.7701C22.9955 22.927 23.2087 22.7943 23.5426 22.8184C23.9449 23.0558 24.4156 23.0035 24.8501 23.1081C24.9868 23.1402 25.0874 23.269 25.2524 23.3012C25.3328 23.3213 25.4656 23.277 25.542 23.3012C25.8035 23.3977 26.0207 23.619 26.2702 23.7397C26.6041 23.9006 26.9863 23.9971 27.288 24.1742C27.465 24.2828 27.5776 24.4598 27.7707 24.5161C27.8391 24.315 27.4771 24.1138 27.288 24.0293C27.4087 23.627 27.8995 23.9127 28.2093 23.9328C28.5529 23.9422 28.8944 23.9908 29.2271 24.0776C29.384 24.1259 29.5771 24.1299 29.7098 24.1742C29.8426 24.2184 29.8305 24.2989 29.9029 24.323C30.3622 24.3891 30.8164 24.4858 31.2627 24.6127C31.2064 24.9144 30.8282 24.8862 30.7276 25.1437C30.1564 25.196 29.6213 25.0793 29.1184 25.1437C28.9937 25.1638 28.9052 25.2604 28.7805 25.2885C28.4184 25.381 28.1207 25.2121 27.7627 25.2443C27.3081 25.2805 27.0184 25.6104 26.6001 25.727C26.4351 25.6627 26.3144 25.3569 26.1133 25.4856C26.0207 25.6144 26.3989 25.6828 26.5156 25.7753C26.4029 26.073 26.0328 26.0448 25.7874 25.9684C25.542 25.892 25.4656 25.6023 25.2564 25.6305C25.1317 25.7109 25.4133 25.7914 25.3529 25.9684C24.7012 26.0408 23.7437 25.8356 23.0719 26.0167C22.8989 26.065 22.7983 26.2098 22.6374 26.2098C22.2995 26.2098 21.8328 25.8356 21.3782 25.7753C21.0233 25.7491 20.667 25.7491 20.3121 25.7753C18.9282 25.8397 17.3955 25.3046 16.434 25.8236C15.7095 25.9287 14.9726 25.9124 14.2535 25.7753C13.9035 25.6425 13.7345 25.196 13.3322 25.0954C13.1593 25.0552 12.9299 25.1316 12.7489 25.0954C12.5679 25.0592 12.3184 24.8902 12.069 24.9023C12.1093 24.7655 12.0006 24.7776 12.0207 24.6609C11.7785 24.629 11.5324 24.6454 11.2966 24.7092C11.365 24.9144 11.6345 24.9184 11.9242 24.9023C12.1683 25.1209 12.4724 25.2611 12.7972 25.3046C12.6684 25.5299 12.1495 25.3529 11.9242 25.3569C11.6989 25.3609 11.8075 25.1839 11.6345 25.2081C11.4656 25.1719 11.4495 25.2805 11.2966 25.2604C11.1437 25.2402 11.1478 25.1115 11.0512 25.0632C10.8501 25.0069 10.8621 25.1678 10.7133 25.1598C10.5886 25.0431 10.3874 25.0029 10.3753 24.7575C10.5992 24.7937 10.8274 24.7937 11.0512 24.7575C10.9144 24.5724 10.5684 24.5966 10.3753 24.4678C9.59488 25.0069 10.6811 25.4535 11.3932 25.3891C11.196 25.7512 10.7616 25.4937 10.4236 25.4856C10.0857 25.4776 9.86845 25.5742 9.58281 25.5782C9.45006 25.6345 9.51442 25.6063 9.58281 25.5782L9.5104 25.6023C9.39008 25.7174 9.30141 25.8614 9.25293 26.0207V26.4552C9.25293 26.4874 9.25293 26.5196 9.28511 26.5517C9.29495 26.5752 9.30302 26.5994 9.30925 26.6242C9.33577 26.6491 9.35877 26.6775 9.37764 26.7086C9.44257 26.7407 9.49907 26.7875 9.54258 26.8454C9.88052 27.0425 10.0374 27.4891 10.5403 27.6098C10.9916 27.7148 11.4641 27.6812 11.896 27.5132C12.4393 27.7294 13.0113 27.8649 13.5937 27.9155C13.996 27.9155 14.3138 27.6219 14.6116 27.819C14.6339 27.5768 14.6339 27.333 14.6116 27.0908C14.4057 27.1133 14.2069 27.1791 14.0282 27.2839C13.9035 27.2839 13.8713 27.2196 13.8834 27.0908C13.7748 27.1954 13.6501 27.0425 13.4489 27.0908C13.3644 26.8374 13.0144 26.8494 12.8656 26.6563C12.7811 26.3747 13.2276 26.6322 13.1593 26.3667C13.0909 26.1012 12.7368 26.2339 12.5276 26.1696C12.3184 26.1052 12.2782 26.0006 12.1253 25.9764C11.6599 25.9321 11.1912 26.0156 10.7696 26.2178C10.5461 26.1526 10.3333 26.055 10.138 25.9282C10.1015 25.9846 10.0515 26.0311 9.99245 26.0632C9.93342 26.0953 9.86727 26.1122 9.80006 26.1122C9.73284 26.1122 9.6667 26.0953 9.60766 26.0632C9.54863 26.0311 9.4986 25.9846 9.46213 25.9282C9.46213 25.6868 9.74373 25.8075 9.86442 25.7833C9.99197 25.7282 10.1281 25.6956 10.2667 25.6868C10.5081 25.6868 10.7052 25.8719 10.8943 25.8799C10.9748 25.8799 11.0552 25.8115 11.188 25.7833C11.3207 25.7552 11.4173 25.7833 11.4776 25.7833C11.7432 25.6948 12.1253 25.3127 12.5437 25.6868C12.8455 25.6506 12.946 25.3971 13.1753 25.3971C13.5776 25.3971 13.9357 25.9765 14.3822 26.0247C14.5713 25.9966 14.5029 26.2259 14.6236 26.2661C14.6598 26.2339 14.861 26.1454 14.8167 26.3184C14.9817 26.2862 14.9897 26.1012 15.1064 26.0247C15.3759 25.9684 15.2914 26.2661 15.4483 26.3184C15.5449 25.7994 16.4822 26.1213 16.8041 25.8316C17.2788 25.9161 17.7736 25.7914 18.2604 25.8316C18.8558 25.8839 19.4673 26.081 20.0506 26.073C20.4513 26.028 20.8546 26.0118 21.2575 26.0247C21.6031 26.1378 21.9299 26.3019 22.2271 26.5115C22.2834 26.7328 21.8972 26.5115 21.8851 26.6563C21.873 26.8012 22.215 26.7851 22.3236 26.7529C22.573 26.6845 22.7863 26.3747 23.096 26.2661C24.0173 25.9483 25.1759 26.2943 26.2018 26.2178C26.7006 26.7046 27.3403 26.5316 27.992 26.8012C28.1107 27.312 28.1107 27.8432 27.992 28.354C27.7288 28.4275 27.4506 28.4275 27.1874 28.354C27.115 28.354 27.1874 28.4989 27.0868 28.4989C25.8799 28.4224 24.7253 28.0161 23.4661 28.0121C23.0196 28.0121 22.5328 28.165 22.1064 28.0121C22.1141 27.6702 22.0817 27.3286 22.0098 26.9943C21.7886 27.1713 22.0098 27.827 21.9133 28.0121C20.9478 28.1086 19.9702 28.4425 18.9081 28.3058C18.6828 28.2736 18.4213 28.1569 18.184 28.1086C17.9466 28.0604 17.661 28.0604 17.4075 28.0121C17.1541 27.9638 17.0052 27.8431 16.7759 27.819C16.5143 27.8164 16.2538 27.784 15.9995 27.7224C15.6455 27.5937 15.3799 27.2276 15.0299 27.3845C14.9857 27.3845 15.1788 27.6701 15.0299 27.7868C16.0276 27.9799 16.9891 28.1086 18.0351 28.3219C19.0092 28.5061 20.0022 28.571 20.992 28.515C21.2253 28.515 21.5834 28.3299 21.865 28.4184C22.046 28.4707 21.9616 28.4747 22.2029 28.3701C22.693 28.2388 23.2012 28.1886 23.7075 28.2213C25.0794 28.2977 26.3868 28.9052 27.8753 28.6236C28.0081 28.6879 28.0483 28.8368 28.169 28.9132C28.2817 28.9132 28.1972 28.6839 28.3621 28.7201C28.9455 28.7805 29.0179 29.3558 29.3799 29.6414C29.2794 30.2408 29.923 30.5305 30.0558 31.0454C30.0918 31.3511 30.108 31.6589 30.1041 31.9667C30.1541 32.2814 30.2363 32.5901 30.3495 32.8879C30.3817 32.9724 30.4702 33.0569 30.4943 33.1293C30.5748 33.3908 30.5547 33.7006 30.6391 33.954C30.7542 34.3048 30.9546 34.6214 31.2225 34.8753C31.1289 35.2349 30.981 35.5781 30.784 35.8931C30.7889 36.222 30.74 36.5495 30.6391 36.8627C30.607 37.1684 30.6914 37.4822 30.6391 37.7839C30.5989 38.0052 30.4179 38.1621 30.3495 38.3673C30.2811 38.5724 30.2972 38.7696 30.2529 38.9466C30.2087 39.1236 30.1524 39.3127 30.1041 39.4816C30.0156 39.8115 29.8426 40.1333 29.7742 40.431H30.0116C30.0116 40.3506 30.0397 40.2742 30.0558 40.2058C30.1041 40.0529 30.2047 39.9201 30.2529 39.7713C30.3522 39.1994 30.531 38.6442 30.784 38.1219C31.0696 38.1621 31.1541 38.3994 31.3673 38.5242C31.6248 38.5242 31.6449 38.2506 31.9466 38.2828C31.9225 38.6748 31.9817 39.0676 32.1204 39.4351C32.2591 39.8026 32.4741 40.1366 32.7512 40.415C32.5501 39.731 31.8501 39.1477 32.2202 38.327C32.0834 38.1742 31.7575 38.2104 31.6368 38.0374C31.5001 38.0374 31.4357 38.1259 31.2989 38.1339C31.0937 38.1138 31.0736 37.9046 30.8966 37.8443C30.784 36.7621 30.8322 35.6356 31.5282 35.2253C31.3512 34.823 30.965 34.4207 30.8001 33.9178C30.7236 33.6764 30.7397 33.3868 30.6552 33.1132C30.5345 32.7109 30.2972 32.3931 30.3656 31.7575C30.3656 31.5845 30.6391 31.7092 30.607 31.5161C30.607 31.0776 30.1684 31.1138 30.1725 30.6914C30.3978 30.627 30.3857 30.8 30.4621 30.8845C30.4983 30.623 30.7639 30.8523 30.8966 30.7397C30.9449 30.5627 30.7075 30.6713 30.607 30.6431C30.5927 30.5365 30.6129 30.4282 30.6648 30.334C30.7166 30.2398 30.7973 30.1646 30.8949 30.1196C30.9926 30.0746 31.1021 30.0621 31.2074 30.0839C31.3127 30.1057 31.4082 30.1607 31.4799 30.2408C31.5322 30.5385 31.2345 30.4862 31.1903 30.6793C31.2989 30.8684 31.7616 30.5948 31.8661 30.8724C32.5581 30.6914 33.4512 30.7115 33.9018 30.2931C34.1633 30.3414 34.1914 30.1604 34.4368 30.1925C34.5897 30.2167 34.5736 30.0719 34.6299 29.9994C35.2256 30.0668 35.8247 30.099 36.4242 30.096C36.4886 30.3736 36.2955 30.3897 36.3276 30.631C36.4363 30.7678 36.5127 30.4661 36.7299 30.5345C37.0956 30.6198 37.469 30.6683 37.8443 30.6793C38.0575 30.7155 37.788 31.0535 38.0414 31.1138C38.2707 31.0213 37.957 30.8724 38.0414 30.631C38.2305 30.4661 38.5282 30.4943 38.7696 30.3856C39.011 30.277 39.1397 30.0115 39.3489 30.096C39.6386 30.1966 39.1196 30.2287 39.2524 30.4983C39.4535 30.623 39.4133 30.1563 39.5903 30.096C39.8759 30.096 39.6748 30.4299 39.6868 30.5828C39.7398 30.8223 39.7721 31.0659 39.7834 31.3109C39.2282 32.2402 39.0593 33.5558 38.7173 34.7023C38.5322 34.7305 38.5202 34.5776 38.3794 34.5575C38.522 34.9653 38.6191 35.3876 38.669 35.8167C38.669 35.9293 38.6207 36.046 38.6207 36.1546C38.6585 36.3519 38.7082 36.5467 38.7696 36.7379V37.5144C38.7769 37.728 38.7254 37.9395 38.6207 38.1259C38.5966 38.315 38.7937 38.2787 38.8621 38.3713C38.9078 39.0407 38.9199 39.7121 38.8983 40.3828H39.1116C39.084 40.1427 39.1158 39.8996 39.2041 39.6747C39.2805 39.6747 39.2886 39.719 39.3489 39.723C39.4052 39.9 39.4937 40.1253 39.5621 40.3828H39.8276C39.8282 40.3734 39.8282 40.364 39.8276 40.3546C39.6184 39.5178 39.023 38.8379 39.023 37.7356C39.023 37.454 39.1437 37.1885 39.1236 36.931C39.1035 36.6736 38.9627 36.5287 38.9305 36.3035C38.8621 35.8529 39.007 35.3862 38.8299 34.9437C39.1081 34.4203 39.2584 33.8386 39.2684 33.246C39.3762 33.092 39.4729 32.9307 39.5581 32.7632C39.6184 32.5902 39.5903 32.3247 39.6547 32.1316C39.8504 31.7436 40.0132 31.3399 40.1414 30.9247C40.2058 30.5224 40.0851 30.0799 40.238 29.7621C40.3909 29.4443 40.9742 29.2069 41.1593 28.7925C41.3483 28.7322 41.2759 28.9333 41.4006 28.9374C41.461 28.8529 41.4932 28.7402 41.5937 28.696C41.9437 28.7362 42.3058 28.5753 42.6598 28.5994C42.9213 28.5994 43.1345 28.7604 43.388 28.7925C43.7919 28.7863 44.1951 28.7541 44.5949 28.696H46.3409C46.4847 28.72 46.6297 28.7361 46.7753 28.7443C46.9282 28.7241 47.061 28.5994 47.2139 28.5994C47.5759 28.5994 47.9139 28.8448 48.2799 28.8891C48.7104 28.9454 49.2012 28.8891 49.6357 28.9374C50.1025 29.0062 50.5769 29.0062 51.0437 28.9374C51.4179 28.877 51.7759 28.6879 52.1581 28.6477C52.307 28.6477 52.496 28.6719 52.6409 28.6477C52.7857 28.6236 53.023 28.4747 53.2242 28.4546C53.7834 28.3902 54.4029 28.531 54.9702 28.4546C55.2035 28.4224 55.4288 28.2655 55.646 28.2575C55.9679 28.2575 56.8328 28.5471 57.1506 28.2092C57.3035 28.2092 57.2794 28.342 57.392 28.3581C58.0772 28.0549 58.8242 27.9171 59.5725 27.9558C59.834 27.823 59.8219 27.5535 59.7173 27.2759C59.908 27.253 60.091 27.187 60.2524 27.0828C60.3972 26.8615 60.1679 26.4391 60.6547 26.4954C60.6996 26.4378 60.7387 26.3758 60.7713 26.3104V26.2219M58.6713 18.3609C58.709 18.2812 58.7738 18.2176 58.8542 18.1815C58.9346 18.1453 59.0252 18.1391 59.1098 18.1638C59.0575 18.6627 58.3897 18.546 58.1886 18.892C57.7863 18.892 57.6495 19.1937 57.3638 19.3265C57.3051 19.2231 57.272 19.1073 57.2673 18.9885C57.5087 18.9242 57.569 18.6747 57.8506 18.6506C57.8506 18.4897 57.6092 18.5983 57.7018 18.3609C57.8788 18.3609 58.0397 18.3609 57.9955 18.554C58.2489 18.5178 58.3978 18.377 58.6713 18.3609ZM58.4903 17.2989V17.496C58.3334 17.5242 58.2449 17.496 58.2006 17.3994C58.1564 17.3029 58.3616 17.3029 58.4903 17.2989ZM57.2311 17.3512C57.2593 17.323 57.4604 17.2345 57.4725 17.3512C57.5489 17.5 57.1547 17.5 57.2311 17.3512ZM30.5225 20.7747C30.1483 20.6621 30.4138 20.0586 30.7156 20.0466C30.7397 20.3805 30.5386 20.4851 30.5225 20.7747ZM31.3271 21.0161C31.2707 21.0161 31.2386 21.0161 31.2305 21.0644C31.1058 21.0644 31.134 20.9035 31.1299 20.7747H31.2788C31.3027 20.8096 31.3193 20.849 31.3276 20.8905C31.3359 20.932 31.3357 20.9747 31.3271 21.0161ZM12.2983 17.0897C12.3305 17.5644 11.6748 17.2184 11.6184 17.0414C11.892 17.0092 12.0207 17.1259 12.2983 17.0897ZM11.3771 17.8178C11.4616 17.846 11.6587 17.7575 11.6667 17.8661C11.6989 18.0471 11.3006 17.9828 11.3771 17.8178ZM12.9863 18.0109C12.9863 18.2443 12.6926 18.1638 12.584 18.1558C12.4753 18.1477 12.4753 18.027 12.2943 17.9627C12.1857 17.9265 12.0771 18.0029 12.0006 17.9627C11.7914 17.854 11.4897 17.5604 11.2282 17.4316C11.2041 17.327 11.2604 17.3029 11.2765 17.2345C11.5058 17.1983 11.542 17.3592 11.6788 17.4316C12.3506 17.3874 12.4834 17.8782 12.9863 18.0109ZM12.6966 17.2345C12.5759 17.2345 12.5357 17.4196 12.407 17.2828C12.5719 16.9851 12.9983 17.154 13.3282 17.0897C13.3041 17.4678 12.9259 17.2707 12.6966 17.2345ZM11.7633 26.25C11.9084 26.2742 12.0566 26.2742 12.2018 26.25C12.2539 26.3785 12.2864 26.5141 12.2983 26.6523C12.061 26.6805 12.065 26.4632 11.9564 26.3627C11.8719 26.3627 11.715 26.4109 11.7633 26.2621M11.184 26.6885C11.3972 26.6362 11.4213 26.769 11.5863 26.7851C11.9891 26.7545 12.3941 26.7707 12.7932 26.8333C13.2196 26.9379 13.5173 27.3121 13.9558 27.3684C14.1489 27.3443 14.3581 27.131 14.5391 27.2678V27.5132C14.1097 27.6326 13.6606 27.6639 13.2188 27.6051C12.777 27.5463 12.3517 27.3988 11.9684 27.1713C11.7955 27.1713 11.7955 27.3885 11.6305 27.4167C11.2041 27.1914 10.4799 27.6259 10.2748 27.123C10.5926 27.0224 11.1116 27.123 11.3409 26.9299C11.3771 26.765 11.1437 26.8696 11.196 26.6885M9.73971 26.4471C9.90063 26.4471 10.2748 26.6161 10.2265 26.3023C10.5296 26.3523 10.8229 26.4501 11.0955 26.592C11.015 26.773 10.8581 26.6282 10.9506 26.9299C10.4799 26.7489 9.59488 27.1793 9.74373 26.4471M9.59891 26.2017C9.74373 26.1535 9.68339 26.3104 9.69546 26.3989H9.53454C9.51442 26.2943 9.56672 26.2701 9.58281 26.2017M9.63109 26.4954C9.63109 26.6201 9.63109 26.7046 9.48626 26.6885V26.4954H9.63109ZM37.4139 21.5512C37.5426 21.5512 37.623 21.5512 37.607 21.696C37.4822 21.696 37.3656 21.696 37.4139 21.5512ZM38.9184 22.7581C38.6248 22.8063 38.6167 22.573 38.5161 22.4201C38.3029 22.5529 38.657 22.8224 38.4679 23.096C38.319 23.1322 38.2909 23.0477 38.1782 23.0477C37.9167 23.1121 38.1179 23.6351 37.7397 23.5828C37.7397 23.2207 37.9127 23.0397 37.9851 22.7581C37.9851 22.5448 37.8161 22.4724 37.6432 22.4201C37.619 22.231 37.7317 22.1828 37.6914 21.9816C37.8604 21.8609 38.0937 21.8006 38.1782 21.5793C38.1782 21.2414 37.7437 21.3017 37.6914 20.996C37.9426 20.98 38.1936 21.0299 38.4196 21.1408C38.6087 21.7242 38.2064 21.7362 38.1299 22.1586C38.3794 22.0219 38.3914 21.6477 38.8058 21.6759C38.7495 21.9414 38.9627 21.9414 38.9064 22.2069C38.8299 22.231 38.8621 22.3598 38.7093 22.3075C38.7374 22.4805 39.0432 22.5569 38.9064 22.742M39.0512 21.5793C38.7897 21.6477 38.846 21.3943 38.6127 21.4345C38.6127 20.6862 37.6914 20.9397 37.3535 20.6299C37.3396 20.57 37.3411 20.5076 37.358 20.4484C37.3749 20.3893 37.4066 20.3355 37.4501 20.292C37.5868 20.5736 37.957 20.4086 38.0334 20.6943C38.3995 20.5333 38.669 20.8592 38.9506 20.9356C38.9748 21.173 39.019 21.3902 39.0512 21.6155M36.4845 22.569V22.3759C36.6133 22.3759 36.6937 22.3759 36.6776 22.5207C36.6215 22.5601 36.5527 22.5773 36.4845 22.569ZM36.6294 23.5868V23.8764C36.4564 23.9046 36.4845 23.7316 36.4845 23.5868H36.6294ZM36.6294 22.0822C36.4041 22.1345 36.1587 22.3035 36.2914 22.569C36.2271 22.6173 36.1144 22.6173 36.0501 22.6655C36.0018 23.1523 35.5472 23.2287 35.2736 23.4701C34.8084 23.3775 34.3383 23.3117 33.8656 23.273C33.8409 23.1033 33.876 22.9302 33.9648 22.7835C34.0536 22.6367 34.1906 22.5254 34.3524 22.4684C34.3524 22.6173 34.2397 22.6977 34.3524 22.8063C34.6983 22.5287 35.0845 22.9471 35.3702 22.8546C35.342 22.4925 34.8311 22.6173 34.5656 22.5167C34.7868 22.2753 35.3702 22.4724 35.5834 22.565C35.7202 22.4805 35.6276 22.4362 35.6317 22.2753C35.2535 22.3517 34.0707 22.0339 34.0225 22.6132C33.8173 22.5328 33.6443 22.6776 33.5357 22.4684C33.411 22.5368 33.3989 22.7219 33.3426 22.8707C32.9403 22.8184 32.8719 22.4684 32.7593 22.1425C32.7942 22.1186 32.8335 22.102 32.875 22.0937C32.9165 22.0855 32.9592 22.0856 33.0006 22.0943C32.9805 21.8931 32.7713 21.8287 32.9041 21.6115C33.2581 21.6638 33.1213 22.2029 33.3909 22.3397C33.5317 22.2069 33.2299 22.0822 33.3909 21.9012C33.4552 21.8207 33.6644 21.9012 33.7288 21.8046C33.7047 21.5552 33.5558 21.6477 33.3265 21.6598C33.1776 21.4345 32.9242 21.3379 32.7914 21.0764C32.6909 20.9356 32.4817 20.9035 32.4535 20.6742C32.6627 20.6742 32.5943 20.827 32.7432 20.6742C32.7157 20.3762 32.6509 20.0829 32.5501 19.8012C32.8598 19.8535 32.9524 19.6805 33.1334 19.6081C33.1535 19.4552 32.9805 19.4994 33.0328 19.3144C33.0875 19.2676 33.1524 19.2345 33.2223 19.2177C33.2923 19.2009 33.3652 19.201 33.4351 19.2178C33.596 18.9523 33.5035 18.6908 33.6282 18.4454C34.5294 18.5862 35.684 18.3287 36.4886 18.6385C36.4395 18.8589 36.4219 19.0851 36.4363 19.3104C36.2512 19.4833 35.9253 19.5115 35.7081 19.6523C35.836 19.682 35.9693 19.6799 36.0962 19.6462C36.2231 19.6126 36.3399 19.5484 36.4363 19.4592C36.6052 19.5638 36.8386 19.6081 36.8386 19.8937C36.258 19.943 35.675 19.9592 35.0926 19.942C35.2011 20.2656 35.3483 20.5749 35.5311 20.8632C36.1748 20.815 36.2633 20.2075 36.7903 20.0385C36.919 20.3765 36.7903 21.0805 36.8386 21.35C36.9472 21.2132 37.0156 21.0362 37.2409 21.0081C37.4018 21.1891 37.2409 21.515 37.0478 21.6397C36.8949 21.6397 36.8788 21.515 36.8506 21.3983C36.8064 21.6437 36.6012 21.7282 36.6575 22.0742M36.3679 22.9954H36.2713V22.8104H36.3679V22.9954ZM33.2863 23.7356C33.7087 23.6994 33.8616 23.9328 34.0587 24.1379C34.0868 24.2948 34.0265 24.3632 34.0144 24.4799C34.2437 24.7333 34.6179 24.842 34.4972 25.4494C34.3072 25.5004 34.1096 25.5168 33.9139 25.4977C33.8054 25.3566 33.6683 25.24 33.5116 25.1558C33.5437 24.6006 33.0771 24.3029 33.2702 23.7517M33.2219 25.3609C33.1253 25.6184 32.6104 25.4615 32.3006 25.5058C32.3262 25.3832 32.3927 25.2731 32.4892 25.1934C32.5857 25.1137 32.7065 25.0692 32.8317 25.0673C33.0006 25.0673 33.061 25.3207 33.234 25.3609M32.3167 20.8713C32.5098 20.8713 32.5782 20.9638 32.5581 21.1609C32.5232 21.1848 32.4838 21.2014 32.4423 21.2097C32.4009 21.218 32.3581 21.2178 32.3167 21.2092C32.2202 21.1207 32.2926 20.9799 32.3167 20.8713ZM32.2202 20.115H32.4133V20.3121C32.2443 20.3483 32.1799 20.2839 32.2202 20.115ZM36.388 18.0793C36.4765 18.4293 36.0903 18.3006 35.8529 18.3247C35.8529 18.0592 36.1184 18.0673 36.388 18.0793ZM36.1466 17.8862C36.1667 17.7253 36.5207 17.7575 36.4363 17.9828C36.2834 18.0069 36.2472 17.9144 36.1466 17.8862ZM37.3535 19.0931H37.4983C37.4581 19.4391 37.7558 19.4512 37.8363 19.6764C37.7518 19.8333 37.7196 20.0425 37.434 20.0144C37.434 19.6121 37.096 19.4833 37.3374 19.0931M38.2184 20.4368C38.0343 20.4677 37.8451 20.4335 37.6834 20.3402C37.6834 19.7287 38.1661 20.1632 38.2184 20.4368ZM38.8983 20.5816H38.6207C38.6207 20.1793 38.2184 20.2638 38.1863 19.9017C38.5644 19.8052 38.8259 20.2276 38.9144 20.5816M38.669 19.6121H38.4276C38.4799 19.3466 38.2627 19.3546 38.2828 19.1253C38.5845 19.0971 38.8219 19.3466 38.6851 19.6121M37.2127 18.0592C37.2127 17.8943 37.0156 17.7454 37.1161 17.6247C37.5547 17.6851 37.607 18.1316 37.8403 18.4012C37.7715 18.5383 37.7228 18.6847 37.6955 18.8356C37.8001 18.9242 37.9449 18.9764 37.8926 19.2379C38.0817 19.2742 38.2949 19.4793 38.1822 19.6764C37.7799 19.7931 38.0495 19.2742 37.6955 19.3345C37.7357 19.1696 37.623 19.1494 37.6472 18.9966C37.611 18.904 37.4943 19.1293 37.3093 19.0448C37.3736 18.8035 37.1604 18.8397 37.1644 18.6425C37.0801 18.976 37.0289 19.3169 37.0116 19.6604C36.565 19.6604 36.6093 19.1615 36.7179 18.8558C36.7179 18.6264 36.3759 18.7471 36.4765 18.4213C36.7342 18.387 36.9953 18.387 37.2529 18.4213C37.2771 18.1316 37.1081 18.2845 36.911 18.2724C36.751 18.0924 36.6352 17.8775 36.573 17.6448C36.9753 17.5845 36.9552 17.9747 37.2047 18.0793M36.7179 18.2242C36.5811 18.2242 36.4564 18.2242 36.4765 18.0793C36.6173 18.0793 36.742 18.0793 36.7179 18.2242ZM33.6725 17.7696C33.9702 17.7333 34.5535 17.4155 34.6903 17.9144C34.8158 17.7566 34.9797 17.6337 35.1665 17.5576C35.3532 17.4815 35.5563 17.4547 35.7564 17.4799C35.6759 17.15 35.2495 17.4799 35.0322 17.4799C35.0725 16.8322 36.1506 17.2425 36.5328 17.2828V17.5764C36.4524 17.6569 36.2472 17.6127 36.0983 17.6247C35.9012 17.8701 35.8489 18.0954 35.4667 18.2523C35.3259 18.3127 35.173 18.369 35.0644 18.3046C35.0644 18.0632 35.338 18.0874 35.3581 17.8661C35.1531 17.8493 34.9482 17.9002 34.7748 18.0109C34.638 18.0954 34.6098 18.2764 34.3725 18.3046C34.1351 18.3328 33.8897 18.0552 33.596 18.0592C33.3024 18.0632 33.1575 18.3569 32.8679 18.3046C32.9202 17.9868 33.1656 17.8259 33.6443 17.7696M32.192 18.4012C32.2604 18.3328 32.5943 18.3006 32.5943 18.4494C32.6265 18.6586 32.369 18.5782 32.192 18.5943V18.4012ZM31.8501 19.0287C31.7897 18.8356 32.1799 18.8437 32.2524 18.9322C32.2845 19.1575 31.9345 19.0046 31.8501 19.1253C32.019 19.3466 32.5058 19.246 32.8679 19.2742C32.8679 19.6764 32.5138 19.4713 32.1397 19.5155C31.994 19.3814 31.8318 19.2665 31.657 19.1736C31.5805 18.9845 31.8661 19.1736 31.8501 19.0287ZM31.8018 19.6604H32.0914C32.1478 19.8615 31.7495 19.8615 31.8018 19.6604ZM31.8501 21.696H32.0472C32.0528 21.7118 32.0545 21.7287 32.0522 21.7453C32.05 21.7618 32.0437 21.7776 32.0341 21.7913C32.0244 21.805 32.0116 21.8162 31.9967 21.8239C31.9819 21.8316 31.9654 21.8356 31.9486 21.8356C31.9319 21.8356 31.9154 21.8316 31.9005 21.8239C31.8856 21.8162 31.8728 21.805 31.8632 21.7913C31.8535 21.7776 31.8473 21.7618 31.845 21.7453C31.8427 21.7287 31.8444 21.7118 31.8501 21.696ZM31.8018 20.823H31.9466V20.9678H31.8018V20.823ZM31.8018 22.9069V22.5287C32.0217 22.5019 32.1183 22.5985 32.0914 22.8184C32.0003 22.8649 31.9026 22.8975 31.8018 22.915M31.5121 24.6127C31.554 24.614 31.5951 24.6241 31.6328 24.6422C31.6705 24.6603 31.7041 24.6861 31.7313 24.7179C31.7586 24.7496 31.7789 24.7867 31.791 24.8268C31.8032 24.8669 31.8068 24.909 31.8018 24.9506C31.6167 24.9506 31.3995 24.7535 31.5121 24.6127ZM31.1742 24.9023C31.4518 24.8661 31.492 25.0673 31.8018 24.9989C31.8581 24.9989 32.0311 24.85 31.8983 24.8058C32.2564 24.7092 32.3006 24.319 32.7029 24.2707V24.7012C32.3006 25.1316 31.5322 25.9081 30.8604 25.2805C30.8758 25.1956 30.9102 25.1153 30.9611 25.0456C31.0119 24.976 31.0779 24.9187 31.1541 24.8782M28.1972 28.4184C28.0965 28.0033 28.0965 27.5702 28.1972 27.1552C28.4426 27.2517 28.511 27.5173 28.4868 27.8833C28.5673 28.1609 28.8248 28.2535 28.8891 28.5632C28.6115 28.5632 28.4868 28.4264 28.2133 28.4184M30.1725 29.2109C30.0478 29.2109 30.0558 29.0259 30.1242 28.9655C30.2449 28.9655 30.2368 29.1466 30.1725 29.2109ZM30.2207 30.2287C30.1966 30.0075 30.3656 29.9833 30.5587 29.9833C30.5989 30.2127 30.3213 30.2931 30.2207 30.2287ZM30.5104 29.7902C30.3455 29.7902 30.2127 29.8868 30.2207 29.6454C30.2811 29.5891 30.5265 29.6213 30.5104 29.7902ZM30.3656 28.9173C30.5265 28.8851 30.5426 28.9977 30.5587 29.1104C30.5463 29.1243 30.5312 29.1355 30.5143 29.1434C30.4974 29.1513 30.4791 29.1557 30.4605 29.1562C30.4418 29.1568 30.4233 29.1535 30.406 29.1466C30.3886 29.1397 30.3729 29.1294 30.3597 29.1162C30.3465 29.103 30.3362 29.0873 30.3293 29.07C30.3224 29.0527 30.3192 29.0341 30.3197 29.0155C30.3203 28.9968 30.3246 28.9785 30.3325 28.9616C30.3404 28.9447 30.3516 28.9296 30.3656 28.9173ZM30.8483 29.7902H30.607V29.6454C30.6995 29.5489 30.9047 29.5931 30.8483 29.7902ZM32.3047 30.3736C32.2242 30.4742 32.2001 30.623 32.0633 30.6632C31.8983 30.631 31.8259 30.5144 31.661 30.4701C31.6525 30.2995 31.6945 30.1302 31.7817 29.9833C32.4455 30.1121 33.0489 29.9833 33.8173 29.9833C33.5518 30.3454 32.9604 30.3856 32.3167 30.3856M37.6955 30.2408C37.5466 30.5747 37.257 30.1724 37.0116 30.1724C36.8426 30.281 37.261 30.2086 37.1564 30.4178C36.9294 30.4319 36.7051 30.3633 36.5248 30.2247C36.6978 29.8667 37.1121 30.0799 37.446 30.0759C37.8765 30.0759 38.3552 29.8627 38.8018 30.0276C38.6087 30.2247 37.9087 30.5104 37.6874 30.2247M39.6265 29.7862H39.3851C39.357 29.5489 39.4334 29.4121 39.6748 29.4483C39.6748 29.577 39.6748 29.7259 39.6265 29.7862ZM41.0828 28.5793C41.0828 28.3902 41.0828 28.2454 41.3242 28.2897C41.3242 28.4747 41.2478 28.5673 41.0828 28.5793ZM41.3242 27.3724C40.9696 27.6123 40.6717 27.9267 40.4512 28.2937C40.757 28.2253 40.7087 27.8029 41.0828 27.8069C41.0686 28.0612 40.9645 28.3021 40.7891 28.4868C40.8062 28.5598 40.8085 28.6354 40.7958 28.7093C40.783 28.7832 40.7556 28.8537 40.7151 28.9168C40.6745 28.9798 40.6218 29.0341 40.5598 29.0763C40.4979 29.1186 40.4281 29.1479 40.3547 29.1627C40.2983 29.1627 40.2702 29.1627 40.2581 29.1144C40.2299 28.9454 40.4311 28.9977 40.4029 28.8247C40.1616 28.873 40.1736 29.5971 39.9202 29.7943C39.6828 29.6736 39.8116 29.1908 39.5179 29.1144C39.6989 28.6517 39.7391 28.0443 40.0529 27.7104C39.7731 27.9013 39.555 28.1697 39.4253 28.4828C39.3891 28.5954 39.4253 28.7402 39.4253 28.8851C39.3771 29.2552 39.1156 29.5167 39.023 29.8063C38.5845 29.8707 37.7437 29.9673 37.5667 29.6132C37.1644 30.0879 36.4564 29.6374 36.0662 29.565C35.8851 29.6012 35.9575 29.3799 35.8207 29.3719C35.6799 29.4805 35.9133 29.6293 35.869 29.8063C35.7104 29.8446 35.5449 29.8446 35.3863 29.8063C35.3581 29.6374 35.4587 29.3477 35.2897 29.3236C35.0886 29.3879 35.3903 29.5851 35.338 29.8063C35.2678 29.8555 35.1862 29.8858 35.1009 29.8942C35.0157 29.9027 34.9297 29.889 34.8512 29.8546C34.8512 29.4523 34.984 28.9494 34.6581 28.7885C34.5012 28.9494 34.8753 29.5328 34.6581 29.9029C33.8535 29.8224 32.884 29.9874 32.1357 29.7581C31.9827 29.8218 31.8186 29.8546 31.6529 29.8546C31.4872 29.8546 31.3231 29.8218 31.1702 29.7581C31.0133 29.3316 30.5748 29.1868 30.5868 28.5954C30.442 28.5954 30.5386 28.8368 30.3937 28.8368C30.1081 28.8609 30.0116 28.7 29.8587 28.5954C29.8587 28.8609 29.907 29.4322 29.6173 29.565C29.4334 29.4226 29.285 29.2395 29.1838 29.0301C29.0826 28.8207 29.0313 28.5906 29.034 28.3581C28.8771 28.2736 28.7121 28.1931 28.7443 27.9196C29.0903 27.992 29.0501 28.4546 29.4242 28.5029C29.573 28.2374 29.0983 28.2253 29.1345 27.9196C28.9414 27.8351 28.8932 27.6138 28.5995 27.6299C28.4949 27.2638 28.1972 27.1109 28.1167 26.7086C28.0152 26.7106 27.9145 26.69 27.822 26.6483C27.7294 26.6065 27.6473 26.5447 27.5817 26.4673C27.3602 26.5366 27.1222 26.5313 26.9041 26.452C26.686 26.3728 26.5 26.2241 26.3748 26.0287C27.0024 25.9483 27.1794 25.4012 27.984 25.4977C28.0926 25.4977 28.1409 25.5379 28.1328 25.6425C28.2857 25.6828 28.1972 25.4816 28.3259 25.4977C28.9535 25.4977 29.6736 25.2483 30.5547 25.3529C30.7638 25.6104 31.1863 25.6586 31.4276 25.8839C31.5966 25.8839 31.5845 25.719 31.7173 25.6908C32.542 25.7391 33.2219 25.6667 33.8495 25.7391C33.9793 25.9238 34.047 26.145 34.0426 26.3707C34.2236 26.3224 34.107 25.9684 34.1432 25.7874C34.6098 25.5098 34.7265 26.2178 35.1087 26.0287C35.2455 25.9684 35.0483 25.5822 35.3058 25.6265C35.4547 25.7793 35.2012 26.0287 35.4024 26.1092C35.4949 26.0086 35.4345 25.7552 35.5472 25.6747C36.1711 25.722 36.7986 25.6882 37.4139 25.5742C37.0292 25.5162 36.6394 25.5 36.2512 25.5259C36.2029 25.4615 36.2029 25.3448 36.1547 25.2805C36.0568 25.3917 35.9272 25.4702 35.7833 25.5055C35.6395 25.5407 35.4882 25.531 35.3501 25.4776C35.4547 25.2242 35.4909 24.9104 35.5914 24.673C35.0443 24.9908 34.3322 24.7374 34.3845 24.0414C34.4942 23.9997 34.6073 23.9674 34.7225 23.9448C34.9251 24.1161 35.1859 24.2025 35.4506 24.1862C35.6357 23.9207 35.9495 23.7839 36.0822 23.4621C36.2874 23.4178 36.2874 23.5787 36.2753 23.7517C36.7678 24.2702 37.3623 24.6811 38.0213 24.9586C38.0535 25.196 37.9328 25.2805 38.0213 25.4454C38.2024 25.4816 38.0535 25.1879 38.2627 25.2523C38.4719 25.3167 38.2627 25.6868 38.6006 25.542C38.6006 25.7471 38.488 25.8477 38.2627 25.8316C38.2184 25.6787 38.3391 25.6828 38.3593 25.5902C38.0414 25.5902 38.0374 25.8839 37.957 26.1213C38.0897 26.246 38.1179 25.9966 38.2024 25.9282C38.3633 26.1454 38.2024 26.5196 38.492 26.6563C38.673 26.5155 38.3955 26.4351 38.3955 26.3184C38.3955 25.8799 38.8621 25.9402 38.8782 25.542C39.3207 25.4293 39.7995 25.5983 40.3345 25.542C40.433 25.6589 40.5637 25.7442 40.7105 25.7871C40.8572 25.8301 41.0133 25.8288 41.1593 25.7833C41.107 25.6264 40.8093 25.7109 40.8696 25.4454C40.9558 25.4298 41.0445 25.4347 41.1284 25.4599C41.2123 25.4851 41.289 25.5297 41.3524 25.5902C41.296 26.0931 41.3765 26.9058 41.3524 27.3845M34.5455 25.381C34.5937 25.0753 34.9478 24.7173 35.2736 24.9787C35.2791 25.1463 35.2461 25.3128 35.1771 25.4655C35.0737 25.5121 34.9591 25.5278 34.847 25.5107C34.7349 25.4935 34.6302 25.4443 34.5455 25.369M41.4288 25.5138C41.8316 25.4354 42.2472 25.4521 42.6425 25.5624C43.0377 25.6727 43.4018 25.8737 43.7058 26.1494C43.7541 26.3265 43.5167 26.2178 43.4161 26.246C43.0987 26.4384 42.7562 26.586 42.3983 26.6845C42.284 26.8356 42.1395 26.9612 41.9739 27.0533C41.8084 27.1454 41.6255 27.202 41.4368 27.2196C41.3202 26.6443 41.465 26.1977 41.4368 25.5259M47.592 28.2897C46.874 28.4278 46.1416 28.4765 45.4116 28.4345C45.0746 28.381 44.7347 28.3488 44.3937 28.3379C44.2269 28.3865 44.0653 28.4512 43.911 28.531H43.6656C43.4966 28.5552 43.4966 28.4104 43.4242 28.3379C42.696 28.2213 42.1328 28.4788 41.4368 28.3379C41.3282 28.0483 41.461 27.8029 41.4368 27.465C42.4824 26.8744 43.6048 26.4317 44.7719 26.1494C45.7672 26.2205 46.7557 26.3671 47.7288 26.5879C47.6388 27.1495 47.5904 27.717 47.584 28.2856M58.0035 26.8776C58.0357 27.4971 58.096 28.2132 57.1989 28.0845C57.1989 27.8029 57.5006 27.8391 57.4403 27.5052C57.2391 27.477 57.1024 27.9075 56.9093 28.0362C56.4104 28.1489 55.7909 28.0885 55.5495 27.7948C55.4771 27.5856 55.7386 27.6379 55.7909 27.6983C55.7627 27.5856 55.6943 27.4046 55.7909 27.296C56.3501 27.4448 57.215 27.4609 57.3437 26.8937C57.1064 26.8937 57.0621 27.0989 56.857 27.1351C56.4144 27.1351 56.0886 27.0345 55.988 26.7006H55.7466C55.7827 26.8962 55.7646 27.0979 55.6943 27.2839C55.5937 27.2839 55.5696 27.2477 55.5012 27.2316C55.4467 27.4709 55.4144 27.7146 55.4047 27.9598C55.0949 28.3621 54.1173 28.0845 53.4173 28.1529C53.1357 28.1851 52.8822 28.3621 52.6409 28.3983C52.2386 28.4546 51.8162 28.3098 51.5265 28.5914C50.3196 28.9937 49.3058 28.4385 48.0386 28.5431C47.9983 28.4345 47.8696 28.4224 47.7972 28.35C47.8776 27.6742 47.7248 27.0546 47.8414 26.4109C48.8874 26.1293 50.1426 26.2701 51.4299 26.2661C51.5912 26.2405 51.7537 26.223 51.9167 26.2138C52.3627 26.3154 52.816 26.3814 53.2725 26.4109C53.4978 26.4109 53.7633 26.2862 54.0449 26.2661C54.5437 26.2259 55.0909 26.3707 55.3564 26.1173C56.3058 26.3908 56.2414 25.3569 57.1506 25.4414C57.2432 25.5098 57.2391 25.6747 57.2955 25.7793C57.6978 25.896 57.8506 25.7109 58.265 25.731C58.3414 25.8035 58.3052 25.9805 58.3133 26.1333C58.4661 26.1333 58.6673 26.1012 58.7478 26.1816C58.7478 26.3265 58.5828 26.3425 58.5064 26.427C57.9552 26.2701 57.6696 26.3747 56.9575 26.3305C57.0259 26.5316 57.4845 26.3305 57.6334 26.4753C57.6817 26.8776 57.4765 27.0305 57.6334 27.2799C57.7256 27.1689 57.7945 27.0404 57.836 26.9022C57.8775 26.7639 57.8907 26.6188 57.8748 26.4753C57.9633 26.431 58.2409 26.6322 58.1202 26.8132C58.096 26.8494 58.0196 26.7891 58.0196 26.8615M58.1684 27.7828C58.1121 27.6299 58.1684 27.6741 58.1684 27.4931C58.6351 27.6701 59.5363 26.9379 59.6207 27.7345C59.0978 27.6219 58.7156 27.7908 58.1684 27.7828ZM60.2041 26.9098C59.9788 26.9379 59.6328 27.1351 59.5242 26.8615C59.2868 27.2115 58.4581 27.127 58.2167 26.8615C58.5185 26.1414 59.4478 26.7448 60.2041 26.6201V26.9098ZM59.6207 26.3305C59.4236 26.3305 59.311 26.4431 59.138 26.427C59.117 26.3946 59.0875 26.3684 59.0528 26.3514C59.0181 26.3344 58.9794 26.3272 58.9409 26.3305C58.8961 26.2014 58.8797 26.0642 58.8926 25.9282C58.615 25.9282 58.4903 25.7713 58.3133 25.5902C58.0156 25.5219 57.7299 25.7471 57.5851 25.542C57.7058 25.2805 58.2891 25.4333 58.6512 25.3971C59.0133 25.3609 59.2667 25.3971 59.3794 25.6868C59.5564 25.7512 59.8501 25.6868 59.7817 26.0247C59.5832 26.0529 59.3809 26.0192 59.2024 25.9282C59.315 26.2661 60.1799 25.9805 60.5581 26.2178C60.3529 26.4753 59.9547 26.2902 59.6368 26.3184" fill="#191B52"/>
</g>
</g>
<defs>
<clipPath id="clip0_471_840">
<rect width="70" height="70" fill="white"/>
</clipPath>
</defs>
</svg>
