<svg width="63" height="70" viewBox="0 0 63 70" fill="none" xmlns="http://www.w3.org/2000/svg">
<path d="M1.48434 70L-49.4834 19.0323V0H-29.9135L20.7048 50.7796L1.48434 70Z" fill="#191B52"/>
<path d="M21.8064 49.7043L34.172 37.3387V18.1183H14.9515L2.58594 30.4839L21.8064 49.7043Z" fill="#191B52"/>
<path d="M-7.73655 65.1882C-11.3118 65.1882 -15.9624 63.2796 -15.9624 56.4516C-15.9624 49.6237 -11.3118 47.7151 -7.73655 47.7151C-4.16129 47.7151 0.48925 49.6237 0.48925 56.4516C0.48925 63.2796 -4.16129 65.1882 -7.73655 65.1882ZM-7.73655 43.414C-14.9408 43.414 -20.4247 47.8495 -20.4247 56.4516C-20.4247 65.0538 -14.9408 69.4893 -7.73655 69.4893C-0.532249 69.4893 4.95161 65.0538 4.95161 56.4516C4.95161 47.8495 -0.532249 43.414 -7.73655 43.414ZM-28.8118 43.9248C-29.2419 43.9248 -29.5645 44.1129 -29.7796 44.4355L-37.0914 54.3817L-44.4032 44.4355C-44.6183 44.1129 -44.9409 43.9248 -45.371 43.9248H-48.5968C-48.9194 43.9248 -49.2151 44.2205 -49.2151 44.543V68.3871C-49.2151 68.7097 -48.9194 69.0054 -48.5968 69.0054H-45.371C-45.0484 69.0054 -44.7527 68.7097 -44.7527 68.3871V51.4248L-37.6021 61.3172C-37.4946 61.4516 -37.3602 61.5323 -37.1452 61.5323C-36.957 61.5323 -36.7957 61.4516 -36.6882 61.3172L-29.457 51.4248V68.3871C-29.457 68.7097 -29.1613 69.0054 -28.8387 69.0054H-25.6129C-25.2903 69.0054 -24.9946 68.7097 -24.9946 68.3871V44.543C-24.9946 44.2205 -25.2903 43.9248 -25.6129 43.9248H-28.8118ZM-58.6237 43.9248C-59.0538 43.9248 -59.3763 44.1129 -59.5914 44.4355L-66.9032 54.3817L-74.2151 44.4355C-74.4301 44.1129 -74.7527 43.9248 -75.1828 43.9248H-78.4086C-78.7312 43.9248 -79.0269 44.2205 -79.0269 44.543V68.3871C-79.0269 68.7097 -78.7312 69.0054 -78.4086 69.0054H-75.1828C-74.8602 69.0054 -74.5645 68.7097 -74.5645 68.3871V51.4248L-67.414 61.2903C-67.3065 61.4248 -67.172 61.5054 -66.957 61.5054C-66.7688 61.5054 -66.6075 61.4248 -66.5 61.2903L-59.2688 51.3979V68.3602C-59.2688 68.6828 -58.9731 68.9785 -58.6505 68.9785H-55.4247C-55.1021 68.9785 -54.8064 68.6828 -54.8064 68.3602V44.5162C-54.8064 44.1936 -55.1021 43.8979 -55.4247 43.8979H-58.6237V43.9248ZM-84.5376 44.5162C-84.5376 44.1936 -84.8333 43.8979 -85.1559 43.8979H-88.3817C-88.7043 43.8979 -89 44.1936 -89 44.5162V68.3602C-89 68.6828 -88.7043 68.9785 -88.3817 68.9785H-85.1559C-84.8333 68.9785 -84.5376 68.6828 -84.5376 68.3602V44.5162Z" fill="#191B52"/>
<path d="M47.2904 68.8441C47.2904 69.1667 47.5861 69.4892 47.9356 69.4892H62.3173C62.6399 69.4892 62.9625 69.1935 62.9625 68.8441V66.1559C62.9625 65.8333 62.6668 65.5107 62.3173 65.5107H51.9141V44.0322C51.9141 43.7097 51.6184 43.3871 51.2689 43.3871H47.9087C47.5861 43.3871 47.2635 43.6828 47.2635 44.0322V68.8441H47.2904ZM27.398 68.871C27.5592 69.2742 27.8818 69.4624 28.2851 69.4624H32.0216C32.4248 69.4624 32.7743 69.2742 32.9087 68.871L43.4732 44.0054C43.5808 43.7097 43.3926 43.414 43.0969 43.414H39.3334C38.9302 43.414 38.5808 43.6021 38.4463 44.0054L30.1399 63.7365L21.8334 44.0054C21.6722 43.6021 21.3496 43.414 20.9463 43.414H17.1829C16.8872 43.414 16.6722 43.7097 16.8066 44.0054L27.398 68.871Z" fill="#191B52"/>
</svg>
