<svg width="152" height="70" viewBox="0 0 152 70" fill="none" xmlns="http://www.w3.org/2000/svg">
<path d="M90.4843 70L39.5166 19.0323V0H59.0865L109.705 50.7796L90.4843 70Z" fill="#191B52"/>
<path d="M110.806 49.7043L123.172 37.3387V18.1183H103.952L91.5859 30.4839L110.806 49.7043Z" fill="#191B52"/>
<path d="M81.2635 65.1882C77.6882 65.1882 73.0376 63.2796 73.0376 56.4516C73.0376 49.6237 77.6882 47.7151 81.2635 47.7151C84.8387 47.7151 89.4893 49.6237 89.4893 56.4516C89.4893 63.2796 84.8387 65.1882 81.2635 65.1882ZM81.2635 43.414C74.0592 43.414 68.5753 47.8495 68.5753 56.4516C68.5753 65.0538 74.0592 69.4893 81.2635 69.4893C88.4678 69.4893 93.9516 65.0538 93.9516 56.4516C93.9516 47.8495 88.4678 43.414 81.2635 43.414ZM60.1882 43.9248C59.7581 43.9248 59.4355 44.1129 59.2204 44.4355L51.9086 54.3817L44.5968 44.4355C44.3817 44.1129 44.0591 43.9248 43.629 43.9248H40.4032C40.0806 43.9248 39.7849 44.2205 39.7849 44.543V68.3871C39.7849 68.7097 40.0806 69.0054 40.4032 69.0054H43.629C43.9516 69.0054 44.2473 68.7097 44.2473 68.3871V51.4248L51.3979 61.3172C51.5054 61.4516 51.6398 61.5323 51.8548 61.5323C52.043 61.5323 52.2043 61.4516 52.3118 61.3172L59.543 51.4248V68.3871C59.543 68.7097 59.8387 69.0054 60.1613 69.0054H63.3871C63.7097 69.0054 64.0054 68.7097 64.0054 68.3871V44.543C64.0054 44.2205 63.7097 43.9248 63.3871 43.9248H60.1882ZM30.3763 43.9248C29.9462 43.9248 29.6237 44.1129 29.4086 44.4355L22.0968 54.3817L14.7849 44.4355C14.5699 44.1129 14.2473 43.9248 13.8172 43.9248H10.5914C10.2688 43.9248 9.97312 44.2205 9.97312 44.543V68.3871C9.97312 68.7097 10.2688 69.0054 10.5914 69.0054H13.8172C14.1398 69.0054 14.4355 68.7097 14.4355 68.3871V51.4248L21.586 61.2903C21.6935 61.4248 21.828 61.5054 22.043 61.5054C22.2312 61.5054 22.3925 61.4248 22.5 61.2903L29.7312 51.3979V68.3602C29.7312 68.6828 30.0269 68.9785 30.3495 68.9785H33.5753C33.8979 68.9785 34.1936 68.6828 34.1936 68.3602V44.5162C34.1936 44.1936 33.8979 43.8979 33.5753 43.8979H30.3763V43.9248ZM4.46237 44.5162C4.46237 44.1936 4.16667 43.8979 3.84409 43.8979H0.61828C0.295699 43.8979 0 44.1936 0 44.5162V68.3602C0 68.6828 0.295699 68.9785 0.61828 68.9785H3.84409C4.16667 68.9785 4.46237 68.6828 4.46237 68.3602V44.5162Z" fill="#191B52"/>
<path d="M136.29 68.8441C136.29 69.1667 136.586 69.4892 136.936 69.4892H151.317C151.64 69.4892 151.962 69.1935 151.962 68.8441V66.1559C151.962 65.8333 151.667 65.5107 151.317 65.5107H140.914V44.0322C140.914 43.7097 140.618 43.3871 140.269 43.3871H136.909C136.586 43.3871 136.264 43.6828 136.264 44.0322V68.8441H136.29ZM116.398 68.871C116.559 69.2742 116.882 69.4624 117.285 69.4624H121.022C121.425 69.4624 121.774 69.2742 121.909 68.871L132.473 44.0054C132.581 43.7097 132.393 43.414 132.097 43.414H128.333C127.93 43.414 127.581 43.6021 127.446 44.0054L119.14 63.7365L110.833 44.0054C110.672 43.6021 110.35 43.414 109.946 43.414H106.183C105.887 43.414 105.672 43.7097 105.807 44.0054L116.398 68.871Z" fill="#191B52"/>
</svg>
