<svg width="261" height="70" viewBox="0 0 261 70" fill="none" xmlns="http://www.w3.org/2000/svg">
<path d="M43.6135 6.65195C40.2118 5.36172 36.3263 8.51547 36.3263 8.51547L35.0054 6.83609L32.7491 3.96837C30.8217 1.52173 25.8744 -3.64286 13.9825 4.085C2.09053 11.8129 4.79252 18.4248 6.24847 21.1808L7.94995 24.4094L8.94555 26.2975C8.94555 26.2975 4.48439 28.5637 4.2806 32.1901C4.00561 37.7794 14.6331 42.7255 31.902 31.6524C49.0248 20.3939 48.8309 8.6726 43.6135 6.65195ZM28.8821 27.0304C16.9828 34.7583 12.0637 31.6696 10.6753 29.029L9.8724 27.5006C11.3247 30.2554 15.6103 32.621 27.5084 24.8956C39.4064 17.1702 38.9743 12.3039 37.0457 9.8548L38.1125 11.2052C39.954 13.5524 40.7801 19.2989 28.8808 27.0255" fill="#191B52"/>
<path d="M13.73 42.8863C14.0029 42.9679 14.2851 43.0141 14.5697 43.0238C14.7992 43.0307 15.0265 42.9777 15.2292 42.8701C15.432 42.7625 15.6033 42.6039 15.7261 42.41C15.8317 42.2716 15.9079 42.1131 15.9501 41.9442C15.9923 41.7754 15.9996 41.5997 15.9717 41.4279C15.8689 41.0032 15.6121 40.6317 15.2511 40.3856C13.5032 39.347 11.6894 38.4236 9.8213 37.6211C10.8586 36.9925 13.0254 35.6704 13.4194 35.3806C13.6135 35.2373 13.7704 35.0496 13.8772 34.8333C13.9839 34.617 14.0374 34.3783 14.0333 34.1371C14.022 33.9694 13.9673 33.8076 13.8745 33.6674C13.7817 33.5273 13.6541 33.4138 13.5042 33.3379C12.7921 32.9524 11.0342 33.5073 10.6806 33.6313C10.5579 33.6767 7.63737 34.8294 6.32873 35.5132C4.95134 36.2338 3.4917 39.9106 3.33211 40.3292C3.32956 40.3413 3.32956 40.3539 3.33211 40.366C2.79933 40.9909 2.37211 41.5138 2.26654 41.6464C1.76956 41.8511 1.32018 42.1562 0.946507 42.5425C0.572835 42.9289 0.282914 43.3882 0.0948828 43.8917C-0.0874425 44.5424 -0.00491476 45.2388 0.324447 45.8289C0.315645 45.9018 0.311136 45.9752 0.310944 46.0486C0.607684 49.3457 1.46283 52.5683 2.83984 55.5786C3.21684 56.3826 3.52247 57.2181 3.75318 58.0756C4.00308 59.5841 3.78009 61.133 3.11482 62.5098C3.0812 62.5782 3.072 62.656 3.08875 62.7304C3.1055 62.8048 3.14719 62.8712 3.20689 62.9186C4.011 63.4686 4.93894 63.8107 5.90765 63.9142C6.14999 63.944 6.39392 63.9592 6.63809 63.9596C8.77794 63.8793 10.7999 62.9588 12.2655 61.3976C12.3104 61.3548 12.3421 61.2999 12.3567 61.2396C12.3713 61.1793 12.3682 61.1161 12.3477 61.0575C11.8374 59.656 11.5074 58.1953 11.3656 56.7105C11.5913 55.9634 11.9715 55.272 12.4815 54.6813C12.9677 54.0432 13.395 53.3623 13.7583 52.6471C14.2473 51.0951 14.4222 49.4613 14.2726 47.841C14.323 47.841 14.3782 47.8594 14.4286 47.8594C14.7451 47.8608 15.0549 47.7681 15.3186 47.593C15.5703 47.4004 15.74 47.12 15.7937 46.8076C15.8474 46.4953 15.7812 46.1743 15.6083 45.9087L13.73 42.8863ZM6.62336 36.0927C7.90008 35.4224 10.8783 34.2512 10.893 34.2426C11.6215 33.9483 12.4105 33.835 13.1923 33.9124C13.2469 33.9357 13.2939 33.9738 13.328 34.0224C13.362 34.071 13.3818 34.1281 13.3851 34.1874C13.3816 34.3193 13.3473 34.4486 13.2851 34.5649C13.2229 34.6813 13.1344 34.7815 13.0266 34.8577C12.646 35.1425 10.2362 36.607 8.97547 37.3645C8.95218 37.3622 8.92916 37.3577 8.90672 37.351C8.37844 37.2137 7.82778 37.1853 7.28817 37.2674C6.74857 37.3495 6.23127 37.5404 5.76771 37.8285C5.38173 38.1076 5.02877 38.4296 4.71564 38.7885C5.12489 37.7485 5.77837 36.8221 6.6209 36.0878M6.09302 38.3834C6.4936 38.1341 6.94138 37.9704 7.40825 37.9023C7.87512 37.8343 8.35101 37.8635 8.80606 37.9881C10.2792 38.2226 14.8754 40.9172 14.9024 40.9344C15.111 41.0817 15.2634 41.2956 15.3345 41.5408C15.347 41.6277 15.3412 41.7163 15.3175 41.8008C15.2938 41.8854 15.2528 41.9641 15.197 42.0319C14.8705 42.4861 14.4998 42.4861 13.1997 42.0405C13.1997 42.0405 13.1862 42.0405 13.1813 42.0405L13.158 42.027C13.1445 42.0135 11.5007 40.8239 9.72064 39.6491C9.25282 39.3144 8.69887 39.121 8.12445 39.0916C7.55003 39.0622 6.97923 39.1982 6.47972 39.4833L3.72249 40.889C4.43545 39.9843 5.22976 39.1468 6.09548 38.3871M13.1739 52.3746C12.8283 53.0545 12.4211 53.7013 11.9574 54.3068C11.3706 54.9771 10.95 55.7762 10.7297 56.6393C10.8388 58.1491 11.157 59.6364 11.675 61.0587C7.83747 64.5746 4.67021 63.0561 3.81825 62.5319C4.4699 61.09 4.66853 59.4843 4.38786 57.9271C4.1477 57.0327 3.82976 56.161 3.43769 55.3221C2.08893 52.3825 1.25195 49.2343 0.962809 46.013C0.962809 45.9811 0.981224 42.7169 7.75276 42.4186C7.7707 42.4208 7.78884 42.4208 7.80678 42.4186C8.18996 42.3824 8.57632 42.4348 8.93605 42.5716C9.29577 42.7085 9.61923 42.9262 9.88145 43.2079C10.6411 43.9745 11.2887 44.8445 11.8051 45.7921C12.2692 46.7656 12.91 48.5321 12.6645 49.1337C12.6567 49.1618 12.6423 49.1876 12.6224 49.209C12.6025 49.2304 12.5778 49.2466 12.5503 49.2564C12.4749 49.2817 12.395 49.2907 12.3159 49.2828C12.2367 49.275 12.1602 49.2505 12.0912 49.211C11.3067 48.8206 10.6082 47.1044 10.402 46.4746C10.3789 46.3954 10.3261 46.3281 10.2546 46.2868C9.25885 45.7551 8.32682 45.1118 7.47655 44.3693C7.4388 44.3224 7.38858 44.2872 7.33167 44.2676C7.27476 44.2481 7.21349 44.245 7.15491 44.2588C7.09625 44.2712 7.04221 44.2997 6.99885 44.3411C6.95548 44.3825 6.9245 44.4352 6.90939 44.4933C6.62182 45.2116 6.16395 45.8493 5.57521 46.3515C4.98647 46.8536 4.2845 47.2051 3.52976 47.3757C3.45865 47.4096 3.40227 47.4682 3.37108 47.5405C3.33989 47.6129 3.336 47.6941 3.36015 47.769C3.38429 47.844 3.43483 47.9077 3.50237 47.9482C3.56991 47.9888 3.64987 48.0035 3.7274 47.9895C4.84564 47.6627 5.85446 47.0391 6.64668 46.1849C6.96709 46.4513 9.02458 48.3332 9.13383 53.1173C9.13608 53.202 9.17134 53.2826 9.2321 53.3418C9.29287 53.4009 9.37434 53.434 9.45915 53.434C9.50231 53.4332 9.54487 53.4239 9.58442 53.4066C9.62396 53.3893 9.6597 53.3644 9.68959 53.3332C9.71947 53.3021 9.74291 53.2654 9.75856 53.2251C9.77421 53.1849 9.78177 53.142 9.78079 53.0989C9.65803 47.9944 7.44832 45.9971 7.04075 45.6669C7.15344 45.4995 7.25474 45.3248 7.34397 45.1439C8.12782 45.7525 8.95589 46.302 9.8213 46.7877C10.0091 47.334 10.7359 49.2625 11.7953 49.7904C11.9418 49.8692 12.1031 49.9169 12.2689 49.9304C12.4348 49.944 12.6016 49.923 12.759 49.869C12.8742 49.8296 12.9792 49.7651 13.0665 49.6802C13.1537 49.5953 13.221 49.492 13.2635 49.3779C13.4178 48.7009 13.3617 47.9929 13.1027 47.3487C13.2619 47.4691 13.4326 47.5735 13.6122 47.6605C13.7685 49.2456 13.6189 50.8459 13.1715 52.3746M14.9773 47.0442C14.8622 47.12 14.7325 47.1709 14.5966 47.1937C14.4607 47.2165 14.3215 47.2108 14.1879 47.1768C13.7742 47.0798 13.1224 46.7042 12.3833 45.4741C11.8373 44.4621 11.1457 43.5356 10.3308 42.7243C9.99606 42.3729 9.58473 42.1035 9.12883 41.9372C8.67293 41.7709 8.18478 41.7121 7.70243 41.7655C2.99206 41.9766 1.28567 43.5885 0.664498 44.7719C0.638823 44.5345 0.659248 44.2944 0.724651 44.0648C0.903892 43.6222 1.17375 43.2219 1.51688 42.8898C1.86002 42.5577 2.26884 42.301 2.71707 42.1362L6.8075 40.0296C7.20474 39.8116 7.65545 39.7101 8.10781 39.7368C8.56017 39.7635 8.99581 39.9173 9.36463 40.1806C10.9605 41.2278 12.4398 42.2921 12.7295 42.5033L15.0473 46.2266C15.0608 46.25 15.3407 46.8049 14.9736 47.0442" fill="#191B52"/>
<path d="M251.316 26.2999C251.316 26.2999 251.709 25.5536 252.312 24.4119L254.013 21.1832C255.467 18.4272 258.169 11.8116 246.279 4.08742C234.39 -3.63675 229.44 1.52416 227.513 3.9708L225.251 6.83729L223.932 8.51667C223.932 8.51667 220.046 5.36292 216.645 6.65315C211.426 8.67381 211.232 20.3951 228.367 31.6622C245.63 42.7341 256.257 37.7892 255.989 32.1999C255.785 28.5674 251.324 26.3073 251.324 26.3073M249.589 29.0375C248.197 31.6781 243.28 34.7656 231.381 27.039C219.482 19.3123 220.303 13.5646 222.149 11.2187L223.216 9.86828C221.289 12.3161 220.855 17.1837 232.755 24.9115C244.654 32.6394 248.938 30.2725 250.392 27.5165L249.589 29.0375Z" fill="#191B52"/>
<path d="M260.157 43.8917C259.972 43.3905 259.684 42.9329 259.314 42.5474C258.944 42.162 258.498 41.8569 258.004 41.6513C257.899 41.5187 257.466 40.9945 256.939 40.3709C256.939 40.3574 256.939 40.3439 256.929 40.3341C256.769 39.9167 255.308 36.2387 253.936 35.5181C252.622 34.8343 249.708 33.6767 249.584 33.6362C249.216 33.5134 247.463 32.9573 246.76 33.3428C246.608 33.4168 246.478 33.5297 246.384 33.67C246.29 33.8104 246.234 33.9732 246.223 34.142C246.218 34.3833 246.271 34.6223 246.378 34.8388C246.484 35.0553 246.642 35.2428 246.837 35.3855C247.227 35.6752 249.399 36.9974 250.431 37.6259C248.561 38.4277 246.745 39.3508 244.995 40.3893C244.636 40.6369 244.379 41.0077 244.274 41.4316C244.246 41.6033 244.254 41.779 244.296 41.9479C244.338 42.1168 244.414 42.2752 244.52 42.4136C244.643 42.6071 244.815 42.7654 245.017 42.8729C245.22 42.9805 245.447 43.0337 245.676 43.0275C245.961 43.0184 246.243 42.9722 246.516 42.89L244.643 45.9111C244.47 46.1764 244.404 46.4968 244.456 46.8089C244.509 47.1209 244.677 47.4017 244.928 47.5954C245.193 47.7703 245.505 47.863 245.823 47.8618C245.874 47.8618 245.923 47.8483 245.978 47.8434C245.827 49.4637 246.002 51.0979 246.493 52.6495C246.853 53.3667 247.28 54.0478 247.77 54.6837C248.28 55.2745 248.66 55.9658 248.885 56.7129C248.745 58.198 248.415 59.6589 247.903 61.0599C247.884 61.119 247.882 61.1825 247.897 61.2427C247.913 61.303 247.945 61.3576 247.991 61.4C249.455 62.9604 251.476 63.8809 253.614 63.962C253.858 63.9618 254.102 63.9466 254.345 63.9166C255.314 63.8142 256.242 63.472 257.045 62.921C257.107 62.8751 257.15 62.8086 257.167 62.7337C257.184 62.6587 257.174 62.5801 257.137 62.5122C256.478 61.1338 256.256 59.5861 256.504 58.078C256.735 57.2206 257.041 56.3851 257.417 55.5811C258.795 52.5711 259.649 49.3482 259.943 46.0511C259.942 45.9776 259.938 45.9043 259.929 45.8313C260.094 45.5399 260.2 45.2185 260.239 44.8859C260.279 44.5532 260.251 44.2161 260.159 43.8941M247.231 34.8601C247.122 34.7844 247.032 34.6845 246.968 34.5682C246.904 34.4519 246.868 34.3224 246.862 34.1898C246.867 34.1302 246.887 34.0729 246.922 34.0243C246.957 33.9758 247.005 33.9379 247.06 33.9148C247.841 33.8376 248.628 33.9509 249.356 34.2451C249.37 34.2451 252.348 35.4248 253.629 36.0951C254.47 36.8299 255.122 37.7562 255.529 38.7959C255.218 38.4372 254.866 38.1152 254.482 37.8359C254.018 37.5475 253.5 37.3565 252.959 37.2744C252.419 37.1923 251.867 37.2209 251.338 37.3583C251.316 37.3655 251.293 37.37 251.269 37.3718C250.011 36.6144 247.606 35.1498 247.226 34.865M245.054 42.0355C244.997 41.9683 244.956 41.8897 244.932 41.805C244.908 41.7203 244.903 41.6314 244.917 41.5445C244.986 41.2999 245.136 41.086 245.342 40.938C245.369 40.9245 249.961 38.2299 251.439 37.9918C251.895 37.8673 252.371 37.8381 252.839 37.9061C253.307 37.9742 253.755 38.1379 254.157 38.3871C255.021 39.1473 255.813 39.9847 256.525 40.8889L253.77 39.4747C253.27 39.1894 252.698 39.0534 252.123 39.0828C251.548 39.1122 250.993 39.3057 250.524 39.6405C248.748 40.8153 247.104 42.0048 247.087 42.0183L247.069 42.0319C247.059 42.0319 247.054 42.0319 247.045 42.0319C245.751 42.4775 245.379 42.4775 245.053 42.0233M256.81 55.3171C256.417 56.1599 256.1 57.0352 255.86 57.9332C255.579 59.4904 255.777 61.0962 256.429 62.538C255.585 63.061 252.412 64.5807 248.58 61.0648C249.096 59.6419 249.414 58.1549 249.525 56.6454C249.302 55.7817 248.879 54.9827 248.29 54.313C247.827 53.7082 247.421 53.0612 247.078 52.3807C246.628 50.8525 246.479 49.2517 246.638 47.6666C246.816 47.5805 246.985 47.476 247.142 47.3548C246.886 47.9997 246.83 48.707 246.983 49.3841C247.026 49.4974 247.094 49.6 247.181 49.6848C247.268 49.7695 247.373 49.8344 247.487 49.8751C247.645 49.9293 247.812 49.9503 247.978 49.9368C248.144 49.9233 248.305 49.8755 248.452 49.7965C249.516 49.2687 250.242 47.3413 250.426 46.7938C251.292 46.3102 252.119 45.7606 252.9 45.15C252.989 45.3319 253.092 45.5068 253.208 45.673C252.789 46.0032 250.586 48.0054 250.467 53.105C250.465 53.1478 250.472 53.1906 250.487 53.2307C250.502 53.2708 250.525 53.3075 250.555 53.3387C250.584 53.3699 250.62 53.3949 250.659 53.4123C250.698 53.4297 250.74 53.4392 250.783 53.4401H250.793C250.878 53.4395 250.959 53.4063 251.02 53.3473C251.081 53.2883 251.117 53.2081 251.12 53.1234C251.23 48.3357 253.282 46.4574 253.607 46.191C254.399 47.0467 255.407 47.6716 256.526 47.9993C256.604 48.0133 256.684 47.9986 256.751 47.958C256.819 47.9175 256.869 47.8538 256.893 47.7788C256.918 47.7039 256.914 47.6226 256.882 47.5503C256.851 47.478 256.795 47.4194 256.724 47.3855C255.968 47.2164 255.265 46.8655 254.675 46.3632C254.086 45.8609 253.627 45.2224 253.34 44.503C253.324 44.4455 253.293 44.3933 253.25 44.352C253.207 44.3107 253.153 44.2819 253.095 44.2686C253.036 44.2548 252.975 44.2579 252.918 44.2774C252.861 44.297 252.811 44.3322 252.773 44.3791C251.922 45.1192 250.991 45.7612 249.996 46.2929C249.923 46.3337 249.869 46.401 249.844 46.4807C249.642 47.1093 248.944 48.8267 248.16 49.2171C248.091 49.2566 248.014 49.281 247.935 49.2888C247.856 49.2967 247.776 49.2877 247.701 49.2625C247.672 49.253 247.646 49.237 247.625 49.2156C247.604 49.1943 247.588 49.1684 247.578 49.1398C247.325 48.5382 247.972 46.7705 248.437 45.7982C248.952 44.8493 249.6 43.9791 250.361 43.2141C250.623 42.9323 250.947 42.7146 251.306 42.5778C251.666 42.4409 252.052 42.3885 252.436 42.4247C252.454 42.427 252.473 42.427 252.491 42.4247C259.258 42.723 259.281 45.9848 259.281 46.0192C258.988 49.2407 258.149 52.3889 256.801 55.3294M259.574 44.7854C258.96 43.6008 257.242 41.9901 252.536 41.779C252.054 41.7264 251.567 41.7857 251.111 41.9522C250.656 42.1187 250.245 42.3879 249.91 42.739C249.097 43.5498 248.407 44.4764 247.864 45.4888C247.127 46.7164 246.473 47.0958 246.056 47.1915C245.922 47.2256 245.783 47.2314 245.646 47.2086C245.51 47.1857 245.38 47.1348 245.265 47.059C244.897 46.8208 245.178 46.2647 245.192 46.2414L247.514 42.518C247.804 42.3068 249.286 41.2413 250.875 40.1953C251.244 39.9316 251.68 39.7775 252.132 39.7508C252.585 39.7241 253.035 39.8259 253.433 40.0443L257.527 42.1509C257.975 42.3157 258.384 42.5724 258.727 42.9045C259.07 43.2366 259.34 43.6369 259.519 44.0795C259.583 44.3094 259.602 44.5484 259.574 44.7854Z" fill="#191B52"/>
<path d="M228.328 54.3915C228.268 53.8761 228.323 53.3539 228.489 52.8622C228.655 52.3705 228.927 51.9215 229.286 51.5472C229.646 51.1729 230.083 50.8825 230.568 50.6968C231.052 50.5111 231.572 50.4347 232.089 50.473C233.969 50.473 235.158 51.789 235.158 54.108V62.2581H238.387V53.7335C238.387 49.5965 236.349 47.3094 232.807 47.3094C231.905 47.2912 231.015 47.5137 230.227 47.9541C229.44 48.3945 228.784 49.0369 228.328 49.815V47.6225H225.098V62.2606H228.328V54.3915ZM211.276 53.7323C211.403 52.6936 211.921 51.7424 212.725 51.0726C213.529 50.4028 214.558 50.065 215.602 50.128C216.629 50.0722 217.637 50.4166 218.416 51.0887C219.194 51.7607 219.682 52.7083 219.776 53.7323H211.276ZM222.938 54.8924C223.003 53.9011 222.859 52.9072 222.517 51.9746C222.174 51.0421 221.64 50.1914 220.95 49.4773C220.259 48.7631 219.427 48.2012 218.507 47.8277C217.586 47.4541 216.598 47.2772 215.605 47.3082C214.602 47.2727 213.603 47.4451 212.67 47.8144C211.737 48.1838 210.89 48.7422 210.184 49.4545C209.477 50.1669 208.925 51.0177 208.563 51.9535C208.201 52.8894 208.037 53.89 208.08 54.8924C208.081 56.5758 208.635 58.2123 209.656 59.5505C210.678 60.8887 212.11 61.8545 213.734 62.2996C215.357 62.7447 217.082 62.6444 218.643 62.0141C220.204 61.3839 221.514 60.2585 222.374 58.811C221.527 58.4353 220.556 58.0277 219.74 57.6509C219.319 58.3187 218.729 58.8642 218.031 59.2328C217.333 59.6014 216.55 59.7802 215.76 59.7513C214.688 59.8202 213.629 59.4802 212.798 58.7998C211.966 58.1194 211.422 57.1492 211.277 56.0844H222.906C222.937 55.7714 222.937 55.2386 222.937 54.8936M199.773 55.9285L201.748 56.3987C202.814 56.6442 203.786 57.1831 203.786 58.1174C203.786 59.2161 202.657 59.8741 201.184 59.8741C199.492 59.8741 198.456 59.027 198.3 57.7736H195.323C195.386 60.8427 198.207 62.5699 200.933 62.5699C204.288 62.5699 206.763 60.974 206.763 58.1505C206.763 56.6774 206.106 54.6714 202.939 53.8882L200.682 53.3247C199.898 53.105 199.086 52.76 198.895 52.1953C198.814 51.9812 198.783 51.7512 198.804 51.5231C198.825 51.295 198.899 51.0747 199.018 50.8793C199.283 50.6011 199.605 50.3841 199.962 50.2435C200.319 50.103 200.702 50.0422 201.086 50.0654C201.574 50.0042 202.067 50.1327 202.464 50.4244C202.86 50.716 203.13 51.1486 203.217 51.6331H206.286C206.098 48.4977 203.558 47.3082 200.957 47.3082C198.256 47.3082 195.909 48.9998 195.722 51.1629C195.534 53.5138 196.662 55.0815 199.765 55.9273M187.103 55.9273L189.077 56.3975C190.144 56.643 191.116 57.1819 191.116 58.1161C191.116 59.2149 189.987 59.8729 188.514 59.8729C186.821 59.8729 185.788 59.0258 185.63 57.7724H182.66C182.724 60.8414 185.544 62.5687 188.272 62.5687C191.626 62.5687 194.102 60.9728 194.102 58.1493C194.102 56.6761 193.442 54.6702 190.278 53.887L188.02 53.3235C187.236 53.1038 186.424 52.7588 186.234 52.1941C186.153 51.9799 186.121 51.75 186.143 51.5219C186.164 51.2938 186.237 51.0736 186.357 50.8781C186.621 50.5997 186.944 50.3826 187.301 50.242C187.659 50.1014 188.043 50.0407 188.426 50.0642C188.915 50.0039 189.407 50.1327 189.804 50.4242C190.2 50.7157 190.47 51.1478 190.557 51.6319H193.627C193.439 48.4965 190.9 47.307 188.297 47.307C185.597 47.307 183.252 48.9986 183.063 51.1617C182.875 53.5126 184.004 55.0802 187.107 55.9261M170.525 54.3903C170.466 53.8749 170.521 53.3528 170.687 52.8612C170.853 52.3696 171.125 51.9207 171.484 51.5464C171.844 51.1722 172.281 50.8818 172.765 50.696C173.25 50.5103 173.769 50.4337 174.287 50.4718C176.167 50.4718 177.356 51.7878 177.356 54.1067V62.2569H180.584V53.7335C180.584 49.5965 178.546 47.3094 175.005 47.3094C174.102 47.2908 173.211 47.5133 172.423 47.9539C171.635 48.3945 170.978 49.0374 170.522 49.8162V47.6225H167.294V62.2606H170.522L170.525 54.3903ZM151.813 54.8912C151.797 54.2997 151.903 53.7112 152.123 53.162C152.343 52.6128 152.673 52.1144 153.093 51.6975C153.513 51.2806 154.014 50.954 154.565 50.7377C155.115 50.5214 155.705 50.4201 156.296 50.4398C157.188 50.437 158.061 50.6995 158.804 51.1941C159.546 51.6886 160.125 52.3929 160.466 53.2172C160.808 54.0416 160.896 54.9488 160.72 55.8236C160.545 56.6983 160.113 57.5011 159.48 58.1297C158.846 58.7584 158.041 59.1845 157.165 59.3539C156.289 59.5234 155.382 59.4285 154.56 59.0813C153.738 58.7341 153.038 58.1504 152.549 57.4042C152.06 56.6581 151.803 55.7834 151.813 54.8912ZM160.841 62.2569H164.032V47.6225H160.841V49.691C160.279 48.9204 159.536 48.2999 158.678 47.8846C157.819 47.4692 156.872 47.2716 155.919 47.3094C153.928 47.3599 152.036 48.1862 150.646 49.612C149.256 51.0377 148.478 52.9502 148.478 54.9415C148.478 56.9328 149.256 58.8453 150.646 60.2711C152.036 61.6969 153.928 62.5231 155.919 62.5736C156.874 62.6012 157.821 62.3959 158.678 61.9754C159.536 61.5549 160.278 60.9318 160.841 60.1601V62.2569ZM136.642 69.6226C137.475 69.8219 138.325 69.9476 139.18 69.9982C144.133 69.9982 145.952 66.7377 145.952 62.9149V40.6631H142.597V62.9124C142.597 65.0129 141.688 66.7991 139.18 66.7991C138.432 66.7773 137.687 66.6828 136.956 66.5167L136.642 69.6226ZM134.322 54.6665C134.291 54.4084 134.318 54.1468 134.401 53.9004C134.483 53.654 134.619 53.4289 134.799 53.2412C134.979 53.0535 135.198 52.9079 135.44 52.8147C135.683 52.7216 135.943 52.6832 136.202 52.7023C137.144 52.7023 137.739 53.3603 137.739 54.5204V58.5949H139.352V54.3388C139.352 52.2702 138.335 51.1273 136.563 51.1273C136.112 51.1179 135.666 51.2291 135.272 51.4495C134.878 51.6698 134.55 51.9913 134.322 52.3807V51.2832H132.707V58.6023H134.322V54.6665ZM125.168 54.3363C125.232 53.8169 125.491 53.3412 125.893 53.0063C126.295 52.6714 126.809 52.5025 127.331 52.5342C127.845 52.506 128.349 52.678 128.739 53.0141C129.128 53.3502 129.372 53.8242 129.418 54.3363H125.168ZM130.998 54.9157C131.031 54.4199 130.959 53.9228 130.788 53.4563C130.617 52.9898 130.351 52.5643 130.005 52.2071C129.66 51.8499 129.244 51.569 128.783 51.3824C128.323 51.1958 127.828 51.1076 127.331 51.1236C126.83 51.1061 126.331 51.1924 125.864 51.3771C125.398 51.5619 124.975 51.8411 124.621 52.1972C124.268 52.5533 123.992 52.9786 123.811 53.4465C123.63 53.9143 123.547 54.4145 123.569 54.9157C123.568 55.758 123.844 56.5773 124.354 57.2474C124.865 57.9175 125.581 58.4014 126.393 58.6246C127.205 58.8478 128.068 58.798 128.849 58.4828C129.63 58.1675 130.286 57.6044 130.716 56.8799C130.292 56.6921 129.806 56.4871 129.4 56.3005C129.189 56.6344 128.894 56.9071 128.545 57.0915C128.196 57.2759 127.805 57.3655 127.41 57.3513C126.874 57.3854 126.345 57.2153 125.929 56.875C125.513 56.5347 125.241 56.0497 125.168 55.5173H130.982C130.998 55.3601 130.998 55.095 130.998 54.9219M110.751 54.3952C110.692 53.8798 110.747 53.3576 110.913 52.8659C111.078 52.3742 111.351 51.9252 111.71 51.5509C112.069 51.1765 112.507 50.8862 112.991 50.7005C113.476 50.5148 113.995 50.4384 114.513 50.4767C116.393 50.4767 117.582 51.7927 117.582 54.1116V62.2618H120.81V53.7335C120.81 49.5965 118.773 47.3094 115.231 47.3094C114.328 47.2907 113.437 47.5132 112.649 47.9539C111.861 48.3945 111.205 49.0374 110.749 49.8162V47.6225H107.53V62.2606H110.759L110.751 54.3952ZM93.6997 53.736C93.826 52.6972 94.344 51.7458 95.148 51.0759C95.9519 50.4061 96.9813 50.0684 98.0258 50.1317C99.0527 50.0756 100.061 50.4198 100.84 51.092C101.618 51.7641 102.106 52.7119 102.2 53.736H93.6997ZM105.362 54.8961C105.426 53.9048 105.282 52.911 104.94 51.9785C104.597 51.0461 104.064 50.1955 103.373 49.4814C102.683 48.7672 101.85 48.2053 100.93 47.8317C100.01 47.4581 99.0211 47.281 98.0282 47.3119C97.0256 47.2765 96.0265 47.4491 95.0937 47.8185C94.1609 48.188 93.3146 48.7464 92.6081 49.4587C91.9016 50.171 91.35 51.0218 90.9882 51.9575C90.6263 52.8933 90.4619 53.8938 90.5054 54.8961C90.5053 56.58 91.0584 58.2172 92.0796 59.5561C93.1008 60.895 94.5335 61.8613 96.1575 62.3066C97.7814 62.7518 99.5067 62.6512 101.068 62.0203C102.629 61.3894 103.94 60.2631 104.799 58.8146C103.951 58.439 102.98 58.0314 102.165 57.6546C101.744 58.3224 101.154 58.8678 100.455 59.2364C99.7566 59.605 98.9735 59.7838 98.1841 59.755C97.1118 59.8238 96.0533 59.4838 95.2217 58.8034C94.39 58.123 93.8471 57.1528 93.7021 56.0881H105.33C105.362 55.7751 105.362 55.2411 105.362 54.8961ZM82.1981 55.9322L84.1733 56.4024C85.2389 56.6479 86.21 57.1868 86.21 58.121C86.21 59.2198 85.0818 59.8778 83.6086 59.8778C81.9158 59.8778 80.8821 59.0307 80.7262 57.7773H77.7468C77.8106 60.8464 80.6304 62.5736 83.3582 62.5736C86.7133 62.5736 89.1882 60.9777 89.1882 58.1542C89.1882 56.681 88.5289 54.6751 85.3641 53.8919L83.1078 53.3284C82.3233 53.1087 81.5119 52.7637 81.3216 52.199C81.2403 51.9848 81.2091 51.7549 81.2304 51.5268C81.2516 51.2987 81.3248 51.0785 81.4443 50.883C81.7089 50.6047 82.0312 50.3877 82.3885 50.2471C82.7458 50.1065 83.1296 50.0457 83.5129 50.0691C84.0012 50.0085 84.4941 50.1372 84.8905 50.4288C85.2868 50.7203 85.5565 51.1526 85.644 51.6368H88.7131C88.5253 48.5014 85.9853 47.3119 83.3852 47.3119C80.6845 47.3119 78.3385 49.0035 78.1507 51.1666C77.9616 53.5175 79.0922 55.0851 82.1932 55.931M69.5315 55.931L71.5056 56.4012C72.5723 56.6467 73.5434 57.1856 73.5434 58.1198C73.5434 59.2185 72.414 59.8765 70.9421 59.8765C69.2492 59.8765 68.2143 59.0295 68.0584 57.7761H65.0839C65.1465 60.8451 67.9676 62.5724 70.6953 62.5724C74.0492 62.5724 76.5253 60.9765 76.5253 58.153C76.5253 56.6798 75.8673 54.6739 72.7012 53.8907L70.4437 53.3272C69.6592 53.1075 68.8478 52.7625 68.6575 52.1978C68.576 51.9836 68.5447 51.7537 68.566 51.5255C68.5873 51.2974 68.6606 51.0772 68.7802 50.8818C69.0448 50.6034 69.367 50.3863 69.7244 50.2457C70.0817 50.1051 70.4655 50.0444 70.8488 50.0679C71.3369 50.0073 71.8297 50.1361 72.2259 50.4276C72.622 50.7192 72.8914 51.1515 72.9787 51.6355H76.0477C75.8587 48.5002 73.32 47.3106 70.7187 47.3106C68.0179 47.3106 65.6719 49.0023 65.4841 51.1654C65.2963 53.5162 66.4257 55.0839 69.5279 55.9297M52.9538 54.3915C52.8944 53.8761 52.9495 53.3539 53.1152 52.8622C53.2809 52.3705 53.5531 51.9215 53.9124 51.5472C54.2717 51.1729 54.7093 50.8825 55.1938 50.6968C55.6783 50.5111 56.1978 50.4347 56.7152 50.473C58.5959 50.473 59.7843 51.789 59.7843 54.108V62.2581H63.0129V53.7335C63.0129 49.5965 60.9763 47.3094 57.4334 47.3094C56.5309 47.291 55.6398 47.5136 54.852 47.9542C54.0641 48.3949 53.4081 49.0376 52.9513 49.8162V47.6225H49.7227V62.2606H52.9513L52.9538 54.3915ZM34.2412 54.8924C34.2257 54.3009 34.3312 53.7125 34.5514 53.1632C34.7716 52.614 35.1018 52.1157 35.5217 51.6987C35.9416 51.2818 36.4424 50.9552 36.9931 50.7389C37.5439 50.5226 38.1331 50.4213 38.7245 50.4411C39.6167 50.4382 40.4896 50.7007 41.2322 51.1953C41.9748 51.6899 42.5536 52.3941 42.8949 53.2185C43.2362 54.0428 43.3246 54.9501 43.1489 55.8248C42.9732 56.6996 42.5413 57.5023 41.9081 58.1309C41.275 58.7596 40.4692 59.1857 39.5932 59.3552C38.7172 59.5246 37.8106 59.4297 36.9887 59.0825C36.1668 58.7354 35.4667 58.1516 34.9775 57.4055C34.4883 56.6594 34.232 55.7846 34.2412 54.8924ZM43.2691 62.2581H46.4609V47.6225H43.2691V49.691C42.7074 48.9204 41.9646 48.3001 41.1062 47.8847C40.2479 47.4693 39.3004 47.2718 38.3476 47.3094C36.357 47.3599 34.4648 48.1862 33.0747 49.612C31.6847 51.0377 30.9066 52.9502 30.9066 54.9415C30.9066 56.9328 31.6847 58.8453 33.0747 60.2711C34.4648 61.6969 36.357 62.5231 38.3476 62.5736C39.3023 62.6012 40.2493 62.3959 41.1068 61.9754C41.9643 61.5549 42.7065 60.9318 43.2691 60.1601V62.2581ZM19.0703 69.6238C19.9039 69.8232 20.7534 69.9489 21.609 69.9995C26.5612 69.9995 28.3806 66.7389 28.3806 62.9161V40.6631H25.0267V62.9124C25.0267 65.0129 24.1171 66.7991 21.609 66.7991C20.8601 66.7773 20.1152 66.6828 19.3846 66.5167L19.0703 69.6238Z" fill="#191B52"/>
<path d="M75.1768 20.3914H77.0771L78.3219 24.8108L79.5802 20.3914H81.4671L79.2328 27.0427H77.4233L75.1768 20.3914Z" fill="#191B52"/>
<path d="M85.7941 22.7546C85.7941 22.0487 85.486 21.7271 84.8181 21.7271C84.574 21.7255 84.3332 21.7831 84.1162 21.8949C83.8992 22.0067 83.7125 22.1694 83.5721 22.3691L82.288 21.4705C82.6028 21.0546 83.0169 20.7243 83.4923 20.5098C83.9678 20.2953 84.4895 20.2036 85.0097 20.2429C85.4871 20.1785 85.9729 20.2577 86.4051 20.4704C86.8373 20.6832 87.1965 21.0198 87.4367 21.4374C87.6303 21.9714 87.7089 22.5404 87.6674 23.1069V27.0488H86.2041L86.0887 26.7026C85.5858 27.0835 84.957 27.259 84.3296 27.1937C82.6993 27.1937 82.083 26.6155 82.083 25.0883C82.083 23.4838 82.687 22.983 84.5739 22.983H85.7941V22.7546ZM84.8059 24.2057C84.1123 24.2057 83.8422 24.4364 83.8422 25.0269C83.8422 25.5916 84.0988 25.7844 84.8181 25.7844C85.5756 25.7844 85.7941 25.5536 85.7941 24.7446V24.2057H84.8059Z" fill="#191B52"/>
<path d="M90.0932 25.0392C90.2199 25.282 90.419 25.4793 90.663 25.6036C90.907 25.7279 91.1837 25.7731 91.4546 25.7328C92.2636 25.7328 92.6356 25.502 92.6356 25.0134C92.6356 24.6537 92.4293 24.5003 91.8659 24.4487C91.2139 24.4396 90.5694 24.3089 89.9655 24.0633C89.6639 23.9151 89.4148 23.6782 89.2517 23.3844C89.0887 23.0905 89.0195 22.7538 89.0534 22.4195C89.0534 21.02 89.952 20.2368 91.5442 20.2368C92.0798 20.1837 92.6194 20.2848 93.0994 20.5282C93.5794 20.7716 93.9798 21.1471 94.2536 21.6105L92.8676 22.3937C92.7669 22.167 92.5973 21.9779 92.3828 21.8533C92.1683 21.7288 91.9199 21.6751 91.6731 21.7001C91.1219 21.7001 90.8138 21.9309 90.8138 22.3421C90.8138 22.7276 91.0323 22.8553 91.8278 22.9326C93.8313 23.1254 94.396 23.5869 94.396 25.038C94.396 26.5111 93.4973 27.1826 91.5332 27.1826C90.9821 27.2619 90.4199 27.1746 89.9187 26.932C89.4176 26.6895 89.0004 26.3026 88.7207 25.8212L90.0932 25.0392Z" fill="#191B52"/>
<path d="M95.1631 21.8683V20.3951H95.8825L95.9979 18.5206H97.757V20.3915H99.0792V21.8646H97.757V24.1885C97.757 25.2283 98.0259 25.5499 98.9122 25.5241H99.0669V27.039H98.8459C96.3674 27.039 95.8677 26.5259 95.88 23.997V21.8683H95.1631Z" fill="#191B52"/>
<path d="M103.932 26.8242C103.509 27.0869 103.016 27.2126 102.519 27.1838C100.785 27.1838 100.054 26.2975 100.054 24.1921V23.2285C100.054 21.1231 100.79 20.2368 102.545 20.2368C103.14 20.1946 103.728 20.3832 104.188 20.7634L104.368 20.3951H105.806V26.7898C105.886 27.6271 105.662 28.4651 105.177 29.1517C104.867 29.4742 104.491 29.7242 104.073 29.884C103.656 30.0439 103.209 30.1094 102.763 30.0761C102.243 30.134 101.717 30.0339 101.254 29.7889C100.792 29.5439 100.414 29.1653 100.169 28.7024L101.556 27.9327C101.65 28.1542 101.811 28.341 102.016 28.4674C102.22 28.5938 102.459 28.6536 102.699 28.6386C103.546 28.6386 103.906 28.1635 103.927 27.0083L103.932 26.8242ZM101.916 24.051C101.916 25.2062 102.212 25.6947 102.93 25.6947C103.61 25.6947 103.932 25.2958 103.932 24.4229V22.9977C103.932 22.1248 103.61 21.7271 102.918 21.7271C102.225 21.7271 101.916 22.2279 101.916 23.3709V24.051Z" fill="#191B52"/>
<path d="M107.346 23.2162C107.346 21.1108 108.205 20.238 110.292 20.238C112.379 20.238 113.219 21.1108 113.219 23.2162V24.2179C113.219 26.3233 112.372 27.1838 110.278 27.1838C108.185 27.1838 107.351 26.3245 107.351 24.2179L107.346 23.2162ZM111.339 23.3574C111.339 22.1764 111.045 21.7271 110.287 21.7271C109.53 21.7271 109.222 22.1764 109.222 23.3574V24.0767C109.222 25.2454 109.516 25.6947 110.287 25.6947C111.058 25.6947 111.339 25.2454 111.339 24.0767V23.3574Z" fill="#191B52"/>
<path d="M116.408 24.3579C116.408 25.27 116.832 25.7451 117.636 25.7451C117.899 25.7678 118.164 25.7131 118.396 25.5877C118.629 25.4623 118.82 25.2717 118.946 25.0392L120.32 25.8224C120.027 26.31 119.596 26.6998 119.082 26.9422C118.568 27.1845 117.993 27.2687 117.431 27.1838C115.351 27.1838 114.529 26.2717 114.529 23.9736V23.5501C114.438 22.7186 114.632 21.8809 115.08 21.1746C115.367 20.8376 115.733 20.576 116.145 20.4125C116.556 20.249 117.002 20.1887 117.442 20.2367C119.523 20.2367 120.358 21.1869 120.358 23.5513V24.1897H116.402L116.408 24.3579ZM118.605 22.9203V22.7656C118.605 22.4726 118.488 22.1916 118.281 21.9844C118.074 21.7772 117.793 21.6608 117.5 21.6608C117.207 21.6608 116.926 21.7772 116.718 21.9844C116.511 22.1916 116.395 22.4726 116.395 22.7656V22.9203H118.605Z" fill="#191B52"/>
<path d="M125.804 26.6314C125.772 26.6601 125.737 26.6856 125.701 26.7075C125.252 27.0696 124.678 27.2403 124.105 27.1826C122.333 27.1826 121.602 26.3086 121.602 24.1909V23.2346C121.602 21.1476 122.347 20.2429 124.067 20.2429C124.432 20.2299 124.795 20.2956 125.132 20.4356C125.184 20.4614 125.184 20.4614 125.363 20.5584C125.415 20.5842 125.415 20.5842 125.478 20.6222V17.8748H127.353V27.0402H125.914L125.804 26.6314ZM123.471 24.0534C123.471 25.2086 123.767 25.6972 124.485 25.6972C125.179 25.6972 125.487 25.2982 125.487 24.4254V22.9977C125.487 22.1248 125.165 21.7271 124.473 21.7271C123.781 21.7271 123.471 22.228 123.471 23.3709V24.0534Z" fill="#191B52"/>
<path d="M133.333 24.3579C133.333 25.27 133.756 25.7451 134.561 25.7451C134.824 25.7678 135.088 25.7131 135.321 25.5877C135.554 25.4623 135.745 25.2717 135.87 25.0392L137.244 25.8224C136.952 26.3101 136.521 26.7 136.007 26.9424C135.493 27.1848 134.918 27.2688 134.356 27.1838C132.276 27.1838 131.455 26.2717 131.455 23.9736V23.5501C131.363 22.7186 131.558 21.8809 132.006 21.1746C132.293 20.8377 132.659 20.5761 133.07 20.4126C133.482 20.2492 133.927 20.1888 134.368 20.2367C136.449 20.2367 137.282 21.1869 137.282 23.5513V24.1897H133.333V24.3579ZM135.529 22.9203V22.7656C135.529 22.4726 135.413 22.1916 135.206 21.9844C134.998 21.7772 134.717 21.6608 134.424 21.6608C134.131 21.6608 133.85 21.7772 133.643 21.9844C133.436 22.1916 133.319 22.4726 133.319 22.7656V22.9203H135.529Z" fill="#191B52"/>
<path d="M138.725 20.3914H140.124L140.279 20.8923C140.563 20.6376 140.9 20.4495 141.265 20.3418C141.631 20.2341 142.016 20.2095 142.393 20.2697C142.769 20.3299 143.128 20.4735 143.442 20.69C143.755 20.9065 144.017 21.1903 144.207 21.5208C144.372 22.078 144.437 22.6597 144.4 23.2395V27.0451H142.53V23.4605C142.53 22.2795 142.274 21.8302 141.594 21.8302C140.857 21.8302 140.605 22.293 140.605 23.5894V27.0439H138.725V20.3914Z" fill="#191B52"/>
<path d="M151.975 22.7546C151.975 22.0487 151.666 21.7271 150.999 21.7271C150.755 21.7258 150.514 21.7835 150.297 21.8953C150.081 22.0071 149.894 22.1697 149.754 22.3691L148.47 21.4705C148.784 21.0545 149.198 20.7241 149.674 20.5096C150.149 20.2951 150.671 20.2034 151.191 20.2429C151.669 20.1783 152.155 20.2575 152.587 20.4702C153.019 20.6829 153.378 21.0196 153.618 21.4374C153.812 21.9714 153.891 22.5403 153.849 23.1069V27.0488H152.386L152.27 26.7026C151.767 27.0835 151.139 27.259 150.511 27.1937C148.881 27.1937 148.265 26.6155 148.265 25.0883C148.265 23.4838 148.869 22.9829 150.755 22.9829H151.975V22.7546ZM150.986 24.2056C150.293 24.2056 150.023 24.4364 150.023 25.0269C150.023 25.5916 150.279 25.7843 150.999 25.7843C151.756 25.7843 151.975 25.5536 151.975 24.7446V24.2056H150.986Z" fill="#191B52"/>
<path d="M159.538 26.6314C159.506 26.6602 159.472 26.6857 159.435 26.7075C158.986 27.0697 158.413 27.2404 157.839 27.1826C156.068 27.1826 155.336 26.3086 155.336 24.1909V23.2346C155.336 21.1476 156.081 20.2429 157.801 20.2429C158.166 20.23 158.529 20.2957 158.867 20.4356C158.918 20.4614 158.918 20.4614 159.097 20.5584C159.149 20.5842 159.149 20.5842 159.213 20.6222V17.8748H161.087V27.0402H159.652L159.538 26.6314ZM157.206 24.0534C157.206 25.2086 157.501 25.6972 158.22 25.6972C158.913 25.6972 159.221 25.2982 159.221 24.4254V22.9977C159.221 22.1248 158.9 21.7271 158.207 21.7271C157.515 21.7271 157.206 22.228 157.206 23.3709V24.0534Z" fill="#191B52"/>
<path d="M162.104 20.3914H164.004L165.25 24.8108L166.508 20.3914H168.395L166.161 27.0427H164.351L162.104 20.3914Z" fill="#191B52"/>
<path d="M169.409 17.7729H171.284V19.5321H169.409V17.7729ZM169.409 20.3915H171.284V27.0427H169.409V20.3915Z" fill="#191B52"/>
<path d="M174.71 24.3579C174.71 25.27 175.133 25.7451 175.938 25.7451C176.201 25.7677 176.465 25.7129 176.698 25.5875C176.93 25.4621 177.121 25.2716 177.247 25.0392L178.621 25.8224C178.329 26.3101 177.898 26.7 177.384 26.9424C176.87 27.1848 176.295 27.2688 175.733 27.1838C173.653 27.1838 172.83 26.2717 172.83 23.9736V23.5501C172.739 22.7185 172.934 21.8807 173.383 21.1746C173.67 20.8376 174.036 20.576 174.447 20.4125C174.859 20.249 175.304 20.1887 175.745 20.2367C177.826 20.2367 178.659 21.1869 178.659 23.5513V24.1897H174.705L174.71 24.3579ZM176.905 22.9203V22.7656C176.905 22.4726 176.788 22.1916 176.581 21.9844C176.374 21.7772 176.093 21.6608 175.8 21.6608C175.507 21.6608 175.226 21.7772 175.019 21.9844C174.812 22.1916 174.695 22.4726 174.695 22.7656V22.9203H176.905Z" fill="#191B52"/>
<path d="M180.846 25.0392C180.973 25.282 181.172 25.4793 181.416 25.6036C181.66 25.7279 181.937 25.7731 182.208 25.7328C183.017 25.7328 183.389 25.502 183.389 25.0134C183.389 24.6537 183.184 24.5003 182.618 24.4487C181.966 24.4396 181.322 24.3089 180.718 24.0633C180.417 23.9151 180.168 23.6782 180.005 23.3844C179.842 23.0905 179.772 22.7538 179.806 22.4195C179.806 21.02 180.705 20.2368 182.297 20.2368C182.833 20.1837 183.372 20.2848 183.852 20.5282C184.332 20.7716 184.733 21.1471 185.006 21.6105L183.619 22.3937C183.519 22.1669 183.349 21.9776 183.135 21.8531C182.92 21.7285 182.672 21.6749 182.425 21.7001C181.872 21.7001 181.565 21.9309 181.565 22.3421C181.565 22.7276 181.784 22.8553 182.58 22.9326C184.583 23.1254 185.148 23.5869 185.148 25.038C185.148 26.5111 184.249 27.1826 182.285 27.1826C181.734 27.2618 181.172 27.1745 180.671 26.9319C180.17 26.6893 179.753 26.3025 179.474 25.8212L180.846 25.0392Z" fill="#191B52"/>
</svg>
