<svg width="134" height="70" viewBox="0 0 134 70" fill="none" xmlns="http://www.w3.org/2000/svg">
<path d="M19.8775 39.4421L10.9111 51.9287L1.99016 39.4421H0V54.0874H1.90189V42.446L10.2397 54.0901H11.6012L19.9176 42.446V54.0901H21.8222V39.4421H19.8775ZM35.5607 41.7104L31.2969 48.0634H39.6427L35.5607 41.7104ZM43.4893 54.0901L40.6592 49.6818H30.2456L27.3513 54.0901H25.1044L34.7743 39.4421H36.307L45.6693 54.0874L43.4893 54.0901ZM48.9328 54.0901V39.4421H50.824V52.4905H63.3106V54.0954L48.9328 54.0901ZM66.9057 39.4421H68.8076V54.0901H66.9057V39.4421ZM90.044 54.0901L75.9685 41.8629V54.0901H74.0666V39.4421H75.8829C77.5681 40.9704 79.9301 43.0211 82.9688 45.5944C86.2929 48.4014 88.6254 50.4031 89.9665 51.5997V39.4421H91.8683V54.0874L90.044 54.0901ZM97.13 54.0901V39.4421H112.594V41.047H99.0078V45.6907H111.045V47.2663H99.0078V52.4958H112.749V54.1008L97.13 54.0901ZM130.658 53.4855C128.961 54.0263 127.187 54.2821 125.407 54.2425C123.476 54.297 121.549 54.0331 119.704 53.4615C117.371 52.6394 116.205 51.235 116.205 49.2484V48.4272H118.104V49.1628C118.104 51.4811 120.553 52.6403 125.45 52.6403C126.811 52.6668 128.17 52.5066 129.489 52.1641C131.046 51.7326 131.824 51.0629 131.824 50.1552C131.836 49.8726 131.769 49.5922 131.633 49.3446C131.496 49.0969 131.294 48.8916 131.048 48.7509C130.377 48.4054 129.655 48.1714 128.908 48.0581C128.361 47.9422 126.978 47.7192 124.759 47.3893C123.04 47.1836 121.34 46.8364 119.677 46.3515C117.789 45.6613 116.845 44.6101 116.847 43.1977C116.847 40.5923 119.522 39.2887 124.872 39.2869C127.579 39.2869 129.624 39.6614 131.008 40.4104C131.738 40.7908 132.345 41.3688 132.762 42.0784C133.178 42.788 133.386 43.6005 133.362 44.4228H131.46C131.438 43.7105 131.217 43.0186 130.824 42.4246C130.403 41.9135 129.832 41.5476 129.192 41.3787C127.785 40.993 126.327 40.8279 124.869 40.8892C120.791 40.8892 118.752 41.6596 118.754 43.2004C118.754 43.9137 119.266 44.454 120.29 44.8214C121.597 45.2206 122.941 45.4894 124.302 45.6239C127.844 46.0679 130.213 46.5503 131.409 47.071C132.964 47.7183 133.742 48.7696 133.742 50.2248C133.742 51.6799 132.712 52.7669 130.652 53.4855" fill="#191B52"/>
<path d="M44.3185 69.9953C43.2208 70.0361 42.1295 69.8103 41.138 69.3373C40.6428 69.1173 40.2239 68.7554 39.9344 68.2973C39.6449 67.8393 39.4978 67.3057 39.5117 66.764C39.4979 66.2287 39.6394 65.701 39.9189 65.2444C40.1985 64.7877 40.6043 64.4218 41.0872 64.1907C42.057 63.6956 43.1367 63.4554 44.2249 63.4925C45.0651 63.4728 45.9022 63.6032 46.6966 63.8777C47.1519 64.0378 47.5609 64.3075 47.8874 64.6629C48.214 65.0184 48.448 65.4487 48.569 65.916H47.7023C47.6162 65.6359 47.4735 65.3764 47.283 65.1537C47.0925 64.931 46.8583 64.7498 46.5949 64.6213C45.8558 64.2982 45.0521 64.1499 44.2463 64.188C43.3186 64.1547 42.3978 64.3592 41.5714 64.7818C41.2004 64.967 40.8891 65.253 40.6731 65.6069C40.4572 65.9608 40.3453 66.3685 40.3503 66.7831C40.3554 67.1977 40.4771 67.6025 40.7015 67.9511C40.926 68.2997 41.2442 68.578 41.6195 68.7541C42.4689 69.1465 43.3998 69.33 44.3346 69.2891C45.1178 69.3054 45.8956 69.1549 46.6163 68.8477C47.4054 68.5053 47.7986 68.0185 47.7986 67.3926V67.3712H44.1072V66.6757H48.569C48.6038 66.8809 48.6252 67.0882 48.6332 67.2963C48.6332 68.2396 48.1232 68.953 47.1031 69.4362C46.2283 69.8246 45.2781 70.0138 44.3212 69.9899M56.5484 64.2549H53.1111V66.4938H56.3451C56.8889 66.5054 57.4309 66.4286 57.9501 66.2664C58.5118 66.0604 58.7953 65.7475 58.7953 65.3275C58.7953 64.6142 58.0437 64.2575 56.5404 64.2575M58.4743 66.8228C58.7741 66.9188 59.0353 67.1082 59.2196 67.3633C59.404 67.6184 59.5018 67.9258 59.4988 68.2405V69.9311H58.6616V68.2673C58.6616 67.554 57.9064 67.1973 56.3959 67.1973H53.1111V69.9231H52.2845V63.5594H56.5216C58.592 63.5594 59.6281 64.1398 59.6299 65.3008C59.6266 65.6435 59.5137 65.9761 59.3076 66.25C59.1016 66.5238 58.8134 66.7246 58.485 66.8228M70.3083 64.8193C69.4891 64.4726 68.6095 64.2909 67.72 64.2845C66.8305 64.2781 65.9484 64.4471 65.1243 64.7818C64.7395 64.9422 64.4124 65.2155 64.1861 65.5655C63.9597 65.9155 63.8448 66.3259 63.8563 66.7426C63.8442 67.1492 63.9482 67.5509 64.1562 67.9005C64.3642 68.2502 64.6675 68.5333 65.0306 68.7167C65.8476 69.1351 66.759 69.3351 67.6762 69.2971C68.5611 69.3287 69.4404 69.1452 70.2388 68.7621C70.6247 68.5845 70.9499 68.2974 71.1739 67.9364C71.3979 67.5754 71.5108 67.1565 71.4987 66.7319C71.5121 66.3303 71.4068 65.9337 71.1961 65.5916C70.9853 65.2495 70.6784 64.9772 70.3137 64.8086M70.7844 69.2971C69.8102 69.7478 68.7496 69.9812 67.6762 69.9812C66.6027 69.9812 65.5421 69.7478 64.5679 69.2971C64.0918 69.0626 63.6934 68.696 63.4202 68.2411C63.147 67.7862 63.0105 67.2623 63.0271 66.7319C63.0103 66.2054 63.1494 65.6856 63.4268 65.2378C63.7042 64.79 64.1077 64.4341 64.5866 64.2147C65.5622 63.7939 66.6136 63.5768 67.6762 63.5768C68.7387 63.5768 69.7901 63.7939 70.7657 64.2147C71.2446 64.4341 71.6481 64.79 71.9255 65.2378C72.203 65.6856 72.342 66.2054 72.3252 66.7319C72.3418 67.2623 72.2054 67.7862 71.9321 68.2411C71.6589 68.696 71.2605 69.0626 70.7844 69.2971ZM82.054 69.5646C81.2587 69.8845 80.4037 70.0287 79.5476 69.9873C77.0367 69.9873 75.7812 69.1545 75.7812 67.4889V63.5594H76.6078V67.4889C76.6078 68.6979 77.5886 69.3025 79.5502 69.3025C81.5119 69.3025 82.4882 68.7104 82.4793 67.5263V63.5621H83.3059V67.5156C83.3336 67.9452 83.2286 68.3729 83.0052 68.7409C82.7818 69.1088 82.4506 69.3992 82.0567 69.5727M91.2157 64.2549H87.8907V66.5687H91.2344C91.7567 66.5835 92.277 66.4981 92.7672 66.3172C93.2718 66.1086 93.5251 65.817 93.5268 65.4425C93.5268 64.6454 92.76 64.2477 91.2264 64.2495M91.0097 67.2642H87.8934V69.9231H87.0668V63.5594H91.1515C93.2914 63.5594 94.3659 64.1835 94.3748 65.4318C94.3748 66.1202 93.9611 66.6204 93.1336 66.9325C92.4511 67.1684 91.7317 67.2799 91.0097 67.2615" fill="#191B52"/>
<path d="M23.7217 27.8569H43.7677V30.3981H23.7217V27.8569ZM48.5693 6.66596H50.2491V30.4248H48.5693V6.66596ZM51.4528 6.66596H53.13V30.4248H51.4528V6.66596ZM54.3311 6.66596H56.0083V30.4248H54.3311V6.66596ZM57.2067 6.66596H58.8865V30.4248H57.2067V6.66596ZM60.0822 6.66596H61.7594V30.4248H60.0822V6.66596ZM45.6964 6.66596H47.3736V30.4248H45.6964V6.66596ZM63.7094 6.68201H83.7448V10.4992H63.7094V6.68201ZM63.7094 13.3694H83.7448V17.1865H63.7094V13.3694ZM63.7094 20.0567H83.7448V23.8766H63.7094V20.0567ZM63.7094 26.5515H83.7448V30.3767H63.7094V26.5515ZM63.7094 0H83.7448V3.81715H63.7094V0ZM88.9636 13.3373H90.8735V30.4034H88.9636V13.3373ZM91.8445 13.3373H93.7544V30.4034H91.8445V13.3373ZM94.7228 13.3373H96.6327V30.4034H94.7228V13.3373ZM97.601 13.3373H99.5082V30.4034H97.5983L97.601 13.3373ZM100.474 13.3373H102.384V30.4034H100.474V13.3373ZM85.8981 13.3373H87.808V30.4034H85.8981V13.3373ZM23.7217 23.9809H43.7677V26.5248H23.7217V23.9809ZM23.7511 20.1129H43.7945V22.6514H23.7511V20.1129Z" fill="#191B52"/>
</svg>
