<svg width="110" height="70" viewBox="0 0 110 70" fill="none" xmlns="http://www.w3.org/2000/svg">
<g clip-path="url(#clip0_471_755)">
<path d="M42.6885 9.0825V26.3025H45.6635V10.5875L55.0435 3.68667L64.4235 10.5875V26.3025H67.3985V9.0825L55.0435 0L42.6885 9.0825Z" fill="#191B52"/>
<path d="M0 37.3858H4.12417L7.14583 45.8033L10.1675 37.3858H14.2158L8.82 50.8025H5.39583L0 37.3858Z" fill="#191B52"/>
<path d="M27.6387 48.7142L29.692 46.2584C30.9057 47.2623 32.4278 47.8184 34.0028 47.8334C34.9945 47.8334 35.5253 47.4892 35.5253 46.9234V46.8825C35.5253 46.3342 35.0878 46.025 33.2853 45.6109C30.4503 44.9634 28.2628 44.1642 28.2628 41.4284V41.4167C28.2628 38.9492 30.2228 37.1642 33.4137 37.1642C35.3888 37.0829 37.329 37.7028 38.8912 38.9142L37.0478 41.5159C35.9663 40.7121 34.6669 40.2545 33.3203 40.2034C32.4278 40.2034 31.9903 40.5825 31.9903 41.0609V41.0959C31.9903 41.6792 32.4453 41.9709 34.2887 42.3909C37.3512 43.0559 39.2528 44.0417 39.2528 46.5325V46.5734C39.2528 49.2917 37.1003 50.9017 33.8745 50.9017C31.5987 50.9574 29.3809 50.1795 27.6387 48.7142Z" fill="#191B52"/>
<path d="M44.1003 40.6175H40.1045V37.3858H51.7712V40.6175H47.787V50.6858H44.1003V40.6175Z" fill="#191B52"/>
<path d="M52.5762 44.0766V44.0358C52.5762 40.1566 55.6153 37.1175 59.7395 37.1175C61.725 37.0593 63.6575 37.7626 65.1412 39.0833L63.0003 41.6616C62.13 40.8497 60.9823 40.4011 59.792 40.4075C59.3278 40.4194 58.8705 40.5237 58.447 40.7141C58.0234 40.9046 57.642 41.1774 57.3249 41.5167C57.0079 41.8561 56.7615 42.2551 56.6002 42.6906C56.4389 43.1261 56.3658 43.5893 56.3853 44.0533V44.0941C56.3592 44.5787 56.4341 45.0634 56.6053 45.5175C56.7765 45.9716 57.0402 46.3851 57.3798 46.7317C57.7194 47.0784 58.1273 47.3507 58.5777 47.5313C59.0281 47.7119 59.5112 47.7969 59.9962 47.7808C60.7484 47.8051 61.4905 47.6018 62.1253 47.1975V45.6108H59.5003V42.9158H65.6195V48.9008C63.993 50.2419 61.9468 50.9687 59.8387 50.9541C55.6737 50.9541 52.5762 48.1016 52.5762 44.0766Z" fill="#191B52"/>
<path d="M67.3633 44.0767V44.0358C67.3738 43.1075 67.5688 42.1906 67.937 41.3384C68.3053 40.4863 68.8393 39.7158 69.5081 39.072C70.1769 38.4282 70.9671 37.9238 71.8327 37.5882C72.6983 37.2527 73.6219 37.0927 74.5499 37.1175C78.6333 37.1175 81.6958 40.18 81.6958 44.0008V44.0358C81.6853 44.9641 81.4902 45.881 81.122 46.7332C80.7538 47.5854 80.2197 48.3558 79.5509 48.9997C78.8821 49.6435 78.0919 50.1479 77.2264 50.4834C76.3608 50.8189 75.4371 50.979 74.5091 50.9542C70.4083 50.9542 67.3633 47.8917 67.3633 44.0767ZM77.9333 44.0767V44.0358C77.9513 43.5733 77.8762 43.1119 77.7126 42.679C77.5491 42.246 77.3003 41.8502 76.981 41.5152C76.6617 41.1801 76.2784 40.9125 75.8538 40.7282C75.4292 40.544 74.9719 40.4468 74.5091 40.4425C74.0519 40.4459 73.6001 40.5417 73.1809 40.7242C72.7617 40.9068 72.3838 41.1723 72.0699 41.5047C71.7559 41.8372 71.5126 42.2297 71.3543 42.6586C71.1961 43.0876 71.1263 43.5442 71.1491 44.0008V44.0358C71.1304 44.4966 71.2041 44.9564 71.3659 45.3882C71.5278 45.82 71.7745 46.215 72.0915 46.5499C72.4084 46.8849 72.7893 47.1529 73.2115 47.3383C73.6338 47.5236 74.0889 47.6225 74.5499 47.6292C75.0084 47.6281 75.4618 47.5342 75.883 47.3531C76.3041 47.172 76.6842 46.9075 77.0004 46.5755C77.3165 46.2436 77.5622 45.851 77.7225 45.4216C77.8828 44.9921 77.9546 44.5346 77.9333 44.0767Z" fill="#191B52"/>
<path d="M83.8076 37.3858H94.5001V40.5183H87.4535V42.5366H93.8701V45.4533H87.4535V47.565H94.5993V50.6975H83.8076V37.3858Z" fill="#191B52"/>
<path d="M96.6758 37.3858H101.803C106.557 37.3858 109.311 40.1216 109.311 43.96V44.0008C109.311 47.8391 106.517 50.6858 101.727 50.6858H96.6758V37.3858ZM101.862 47.4191C104.067 47.4191 105.531 46.2 105.531 44.0533V44.0183C105.531 41.8891 104.067 40.6525 101.862 40.6525H100.362V47.4191H101.862Z" fill="#191B52"/>
<path d="M1.16699 56.4667H5.77533C9.95782 56.4667 12.8512 59.3367 12.8512 63.0817V63.1225C12.8512 66.8617 9.93449 69.7725 5.77533 69.7725H1.16699V56.4667ZM5.77533 68.3842C9.14116 68.3842 11.2878 66.1033 11.2878 63.1342V63.0992C11.2878 60.1825 9.14116 57.8492 5.77533 57.8492H2.66033V68.3492L5.77533 68.3842Z" fill="#191B52"/>
<path d="M16.0244 56.4667H25.6669V57.8375H17.5002V62.3758H24.7861V63.7467H17.5002V68.4133H25.7369V69.7842H16.0244V56.4667Z" fill="#191B52"/>
<path d="M27.4688 67.6083L28.5479 66.675C29.3646 67.9117 30.2046 68.5767 31.5929 68.5767C33.0921 68.5767 34.1946 67.4917 34.1946 65.38V56.4667H35.7171V65.3625C35.7546 65.9975 35.6663 66.6336 35.457 67.2343C35.2478 67.8349 34.9218 68.3883 34.4979 68.8625C33.7089 69.5992 32.6602 69.9935 31.5812 69.9592C30.746 69.9827 29.9204 69.7758 29.1949 69.3611C28.4695 68.9465 27.8723 68.34 27.4688 67.6083Z" fill="#191B52"/>
<path d="M38.6807 63.1575V63.1225C38.6753 61.3232 39.3848 59.5955 40.6533 58.3194C41.9217 57.0433 43.6452 56.3233 45.4444 56.3179C47.2437 56.3125 48.9714 57.0221 50.2476 58.2905C51.5237 59.559 52.2436 61.2824 52.249 63.0817V63.1225C52.2513 64.0134 52.0781 64.896 51.7393 65.72C51.4005 66.544 50.9027 67.2931 50.2744 67.9247C49.646 68.5563 48.8994 69.058 48.0772 69.401C47.255 69.7441 46.3733 69.9219 45.4824 69.9242C44.5915 69.9265 43.7088 69.7532 42.8848 69.4144C42.0609 69.0756 41.3117 68.5778 40.6801 67.9495C40.0485 67.3211 39.5469 66.5746 39.2038 65.7523C38.8607 64.9301 38.683 64.0484 38.6807 63.1575ZM50.6915 63.1575V63.1225C50.6915 60.1008 48.4865 57.6275 45.4415 57.6275C42.3965 57.6275 40.2499 60.0833 40.2499 63.0817V63.1225C40.2499 66.1442 42.4549 68.6117 45.4999 68.6117C48.5449 68.6117 50.6915 66.1792 50.6915 63.1575Z" fill="#191B52"/>
<path d="M55.417 56.4667H56.8228L65.2053 67.13V56.4667H66.6695V69.7725H65.4678L56.8812 58.8642V69.7725H55.417V56.4667Z" fill="#191B52"/>
<path d="M69.8545 63.1575V63.1225C69.8545 59.4708 72.532 56.2391 76.5278 56.2391C78.3452 56.156 80.1236 56.7836 81.4862 57.9891L80.5178 59.1558C79.9762 58.6484 79.3399 58.2528 78.6452 57.9916C77.9506 57.7303 77.2112 57.6086 76.4695 57.6333C73.5528 57.6333 71.412 60.1241 71.412 63.0875V63.1283C71.412 66.3016 73.4478 68.6583 76.662 68.6583C78.0534 68.6523 79.4035 68.1845 80.5003 67.3283V64.0208H76.452V62.6675H81.947V67.97C80.4736 69.2773 78.5734 70.0012 76.6037 70.0058C72.4387 70 69.8545 66.9608 69.8545 63.1575Z" fill="#191B52"/>
<path d="M85.3477 56.4667H86.8468V62.3758H94.5002V56.4667H96.0052V69.7725H94.5002V63.7875H86.8468V69.7725H85.3477V56.4667Z" fill="#191B52"/>
<path d="M99.791 56.4667H109.41V57.8375H101.296V62.3758H108.553V63.7467H101.296V68.4133H109.504V69.7842H99.791V56.4667Z" fill="#191B52"/>
<path d="M21.1755 37.4208H17.7571L12.3555 50.82H16.4096L19.4255 42.4025L22.453 50.82H26.5771L21.1755 37.4208Z" fill="#191B52"/>
</g>
<defs>
<clipPath id="clip0_471_755">
<rect width="109.503" height="70" fill="white"/>
</clipPath>
</defs>
</svg>
