<?xml version="1.0" encoding="UTF-8"?>
<svg id="Layer_1" data-name="Layer 1" xmlns="http://www.w3.org/2000/svg" viewBox="0 0 538 239.11">
  <defs>
    <style>
      .cls-1 {
        fill: #fa0;
      }

      .cls-1, .cls-2, .cls-3, .cls-4 {
        stroke-width: 0px;
      }

      .cls-2 {
        fill: #0049ff;
      }

      .cls-3 {
        fill: #00003c;
      }

      .cls-4 {
        fill: #fff;
      }
    </style>
  </defs>
  <path class="cls-4" d="M537,1v237.11H1V1h536M538,0H0v239.11h538V0h0Z"/>
  <path class="cls-3" d="M190.4,144.31c2.22-4.08,5.3-7.24,9.23-9.49,3.93-2.24,8.43-3.37,13.51-3.37,6.53,0,11.94,1.63,16.22,4.89,4.28,3.26,7.15,7.83,8.61,13.71h-14.37c-.76-2.28-2.05-4.06-3.85-5.36-1.81-1.29-4.04-1.94-6.71-1.94-3.8,0-6.82,1.38-9.04,4.13-2.22,2.75-3.33,6.65-3.33,11.72s1.11,8.87,3.33,11.63c2.22,2.75,5.23,4.13,9.04,4.13,5.39,0,8.91-2.4,10.56-7.21h14.37c-1.46,5.69-4.35,10.21-8.66,13.57-4.31,3.36-9.7,5.03-16.17,5.03-5.08,0-9.58-1.12-13.51-3.37-3.93-2.24-7.01-5.41-9.23-9.49-2.22-4.08-3.33-8.84-3.33-14.28s1.11-10.2,3.33-14.28h0Z"/>
  <path class="cls-3" d="M257.47,182.35c-4.06-2.24-7.25-5.42-9.56-9.53-2.32-4.11-3.47-8.85-3.47-14.23s1.19-10.12,3.57-14.23c2.38-4.11,5.63-7.29,9.75-9.53,4.12-2.24,8.72-3.37,13.79-3.37s9.67,1.12,13.79,3.37c4.12,2.24,7.37,5.42,9.75,9.53,2.38,4.12,3.57,8.85,3.57,14.23s-1.22,10.12-3.66,14.23c-2.44,4.12-5.74,7.29-9.89,9.53-4.15,2.24-8.8,3.37-13.94,3.37s-9.64-1.12-13.7-3.37h-.01ZM277.97,172.4c2.13-1.17,3.82-2.92,5.09-5.27,1.27-2.34,1.9-5.19,1.9-8.54,0-4.99-1.32-8.84-3.95-11.53-2.63-2.69-5.85-4.03-9.66-4.03s-6.99,1.34-9.56,4.03c-2.57,2.69-3.85,6.53-3.85,11.53s1.25,8.84,3.76,11.53c2.51,2.69,5.66,4.03,9.47,4.03,2.41,0,4.68-.58,6.8-1.76Z"/>
  <path class="cls-3" d="M321.77,114.66v70.21h-13.32v-70.21h13.32Z"/>
  <path class="cls-3" d="M335.8,123.82c-1.56-1.49-2.33-3.33-2.33-5.55s.77-4.06,2.33-5.55c1.55-1.49,3.51-2.23,5.85-2.23s4.3.74,5.85,2.23c1.55,1.49,2.33,3.34,2.33,5.55s-.78,4.06-2.33,5.55c-1.55,1.49-3.51,2.23-5.85,2.23s-4.3-.74-5.85-2.23ZM348.22,132.31v52.56h-13.31v-52.56h13.31Z"/>
  <path class="cls-3" d="M381.75,133.83c3.01-1.58,6.45-2.38,10.32-2.38,4.5,0,8.58,1.11,12.22,3.32,3.64,2.22,6.53,5.36,8.66,9.44,2.13,4.08,3.19,8.81,3.19,14.18s-1.06,10.14-3.19,14.28c-2.12,4.14-5.01,7.35-8.66,9.63-3.65,2.28-7.72,3.42-12.22,3.42-3.93,0-7.37-.78-10.32-2.32-2.95-1.55-5.31-3.56-7.09-6.03v7.49h-13.32v-70.21h13.32v25.33c1.71-2.53,4.07-4.59,7.09-6.17ZM400.59,150.19c-1.3-2.31-3.01-4.06-5.14-5.27-2.12-1.2-4.42-1.8-6.89-1.8s-4.68.62-6.8,1.85c-2.12,1.23-3.84,3.02-5.14,5.36-1.3,2.34-1.95,5.09-1.95,8.25s.65,5.92,1.95,8.25c1.3,2.34,3.01,4.13,5.14,5.36,2.12,1.23,4.39,1.85,6.8,1.85s4.77-.64,6.89-1.9c2.13-1.26,3.84-3.07,5.14-5.41,1.3-2.34,1.95-5.12,1.95-8.35s-.65-5.9-1.95-8.21h0Z"/>
  <path class="cls-3" d="M445.87,133.92c2.76-1.58,5.91-2.37,9.46-2.37v13.94h-3.52c-4.19,0-7.34.98-9.47,2.94-2.13,1.96-3.19,5.38-3.19,10.25v26.19h-13.32v-52.56h13.32v8.16c1.71-2.78,3.95-4.97,6.71-6.55h0Z"/>
  <path class="cls-3" d="M514.69,132.31l-32.63,77.42h-14.17l11.42-26.19-21.12-51.24h14.94l13.61,36.72,13.79-36.72h14.17,0Z"/>
  <path class="cls-2" d="M237.02,93.33l-47.97,4.72-.02-9.85,47.98,4.6v.54Z"/>
  <path class="cls-2" d="M85.94,221.14l-1.76-6.12c-5.71-19.9-4.4-36.3,3.89-48.75,6.44-9.68,15.79-14.94,23.16-17.75-3.89-2.06-7.72-4.53-11.47-7.42-27.99-21.56-45.52-44.77-52.11-68.99-5.84-21.48-1.41-38.49,1.75-46.72l1.72-4.46,3.9,2.78c25.93,18.5,55.13,40.14,75.19,60.36,1.79,1.81,3.5,3.59,5.12,5.35,1.92-3.11,4.97-7.31,9.2-11.07,7.39-6.58,18.76-11.93,35.91-5.03,13.01,5.23,18.74,21.09,12.45,40.04-6.86,20.67-20.34,35.02-37.95,40.39-1.35.41-2.71.77-4.07,1.07-7.52,10.95-20.1,22.86-34.65,36.65-8.33,7.9-16.94,16.06-25.81,25.12l-4.46,4.55h0ZM120.54,152.28c-4.89.98-18.08,5.7-26.34,18.14-6.16,9.28-7.66,21.48-4.47,36.32,7.42-7.41,14.76-14.36,21.38-20.63,11.9-11.28,22.42-21.24,29.64-30.1-6.23.12-13.94-1.68-20.2-3.73h0ZM122.72,145.54c6.07,2.18,12.18,3.2,18.17,3.06,3.63-.09,6.83-2.3,8.24-5.64.9-2.14,1.47-4.19,1.68-6.18,1.39-13.03-7.08-28.57-25.87-47.51-18.63-18.78-45.55-38.98-70.17-56.63-5.54,18.88-7.45,58.76,49.52,102.62,5.94,4.57,12.11,8,18.3,10.24.06,0,.1-.01.13-.02v.06h0ZM140.47,95.28c13.23,15.86,19.04,29.77,17.7,42.28-.28,2.62-1.01,5.28-2.13,7.98,13.66-5.38,24.17-17.51,29.8-34.5,4.93-14.84.88-27.22-8.2-30.87-10.93-4.4-19.73-3.85-28.21,3.7-4.63,4.12-7.62,8.92-8.98,11.42h0Z"/>
  <path class="cls-1" d="M515.97,183.31c-1.56-1.49-2.33-3.33-2.33-5.55s.77-4.06,2.33-5.55c1.55-1.49,3.54-2.23,5.94-2.23s4.28.74,5.8,2.23c1.52,1.49,2.28,3.34,2.28,5.55s-.76,4.06-2.28,5.55c-1.52,1.49-3.46,2.23-5.8,2.23s-4.39-.74-5.94-2.23Z"/>
  <path class="cls-3" d="M189.96,144.15c2.23-4.1,5.3-7.25,9.25-9.5,3.94-2.25,8.45-3.38,13.52-3.38,6.53,0,11.96,1.64,16.24,4.89s7.17,7.84,8.63,13.73h-14.39c-.77-2.28-2.05-4.07-3.87-5.38-1.82-1.31-4.05-1.95-6.71-1.95-3.82,0-6.84,1.38-9.04,4.12-2.23,2.74-3.33,6.66-3.33,11.73s1.1,8.89,3.33,11.65c2.23,2.74,5.25,4.12,9.04,4.12,5.4,0,8.91-2.41,10.58-7.22h14.39c-1.46,5.71-4.35,10.22-8.66,13.6-4.33,3.35-9.71,5.05-16.19,5.05-5.07,0-9.58-1.13-13.52-3.38s-7.02-5.4-9.25-9.5-3.33-8.86-3.33-14.29,1.1-10.22,3.33-14.29h-.03Z"/>
  <path class="cls-3" d="M257.1,182.26c-4.07-2.25-7.25-5.43-9.58-9.55-2.33-4.12-3.48-8.86-3.48-14.26s1.18-10.14,3.59-14.26c2.38-4.12,5.63-7.3,9.76-9.55s8.73-3.38,13.8-3.38,9.68,1.13,13.8,3.38,7.38,5.43,9.76,9.55c2.38,4.12,3.59,8.86,3.59,14.26s-1.23,10.14-3.66,14.26c-2.46,4.12-5.74,7.3-9.91,9.55-4.15,2.25-8.81,3.38-13.96,3.38s-9.65-1.13-13.73-3.38h.03ZM277.64,172.27c2.13-1.18,3.82-2.92,5.1-5.28,1.28-2.36,1.9-5.2,1.9-8.55,0-4.99-1.33-8.86-3.94-11.55-2.64-2.69-5.86-4.05-9.68-4.05s-6.99,1.36-9.58,4.05c-2.56,2.69-3.87,6.53-3.87,11.55s1.25,8.86,3.76,11.55,5.66,4.05,9.48,4.05c2.41,0,4.69-.59,6.81-1.77h.03Z"/>
  <path class="cls-3" d="M321.51,114.47v70.3h-13.34v-70.3s13.34,0,13.34,0Z"/>
  <path class="cls-3" d="M335.55,123.64c-1.56-1.49-2.33-3.33-2.33-5.56s.77-4.07,2.33-5.56c1.56-1.49,3.51-2.23,5.86-2.23s4.3.74,5.86,2.23,2.33,3.35,2.33,5.56-.77,4.07-2.33,5.56c-1.56,1.49-3.51,2.23-5.86,2.23s-4.3-.74-5.86-2.23ZM347.99,132.14v52.63h-13.34v-52.63h13.34Z"/>
  <path class="cls-3" d="M381.57,133.65c3.02-1.59,6.45-2.38,10.35-2.38,4.51,0,8.58,1.1,12.24,3.33,3.64,2.23,6.53,5.38,8.66,9.45,2.13,4.1,3.2,8.81,3.2,14.21s-1.08,10.14-3.2,14.29c-2.13,4.15-5.02,7.35-8.66,9.65-3.66,2.28-7.73,3.43-12.24,3.43-3.94,0-7.38-.77-10.35-2.33-2.95-1.56-5.33-3.56-7.09-6.04v7.5h-13.34v-70.3h13.34v25.35c1.72-2.54,4.07-4.58,7.09-6.17ZM400.42,150.04c-1.31-2.3-3.02-4.07-5.15-5.28s-4.43-1.79-6.91-1.79-4.69.61-6.81,1.84c-2.13,1.23-3.84,3.02-5.15,5.38-1.31,2.36-1.95,5.1-1.95,8.27s.64,5.92,1.95,8.27c1.31,2.36,3.02,4.12,5.15,5.38,2.13,1.23,4.4,1.84,6.81,1.84s4.76-.64,6.91-1.9c2.13-1.25,3.84-3.07,5.15-5.4,1.31-2.36,1.95-5.12,1.95-8.35s-.67-5.92-1.95-8.22h0v-.05Z"/>
  <path class="cls-3" d="M445.77,133.75c2.77-1.59,5.92-2.38,9.48-2.38v13.96h-3.53c-4.2,0-7.35.97-9.48,2.95-2.13,1.97-3.2,5.38-3.2,10.27v26.22h-13.34v-52.63h13.34v8.17c1.72-2.79,3.94-4.97,6.71-6.56h.03Z"/>
  <path class="cls-3" d="M514.69,132.14l-32.68,77.52h-14.19l11.42-26.22-21.15-51.3h14.96l13.62,36.78,13.8-36.78h14.21Z"/>
  <path class="cls-1" d="M515.97,183.21c-1.56-1.49-2.33-3.33-2.33-5.56s.77-4.07,2.33-5.56c1.56-1.49,3.53-2.23,5.94-2.23s4.28.74,5.81,2.23c1.51,1.49,2.28,3.35,2.28,5.56s-.77,4.07-2.28,5.56c-1.54,1.49-3.46,2.23-5.81,2.23s-4.4-.74-5.94-2.23Z"/>
</svg>