<?xml version="1.0" encoding="UTF-8"?>
<svg xmlns="http://www.w3.org/2000/svg" viewBox="0 0 268.22 268.22">
  <defs>
    <style>
      .cls-1 {
        fill: #0049ff;
      }

      .cls-1, .cls-2 {
        stroke-width: 0px;
      }

      .cls-2 {
        fill: #fff;
      }
    </style>
  </defs>
  <g id="Layer_2" data-name="Layer 2">
    <circle class="cls-2" cx="134.11" cy="134.11" r="134.11"/>
  </g>
  <g id="Laag_1" data-name="Laag 1">
    <g>
      <polygon class="cls-1" points="250.13 113.84 202.12 118.58 202.1 108.69 250.13 113.3 250.13 113.84 250.13 113.84"/>
      <path class="cls-1" d="M98.91,242.12l-1.75-6.14c-5.72-19.97-4.41-36.43,3.89-48.92,6.46-9.72,15.81-15,23.18-17.81-3.89-2.07-7.73-4.55-11.48-7.45-28.03-21.64-45.58-44.94-52.17-69.25-5.85-21.57-1.41-38.64,1.75-46.9l1.71-4.48,3.91,2.79c25.95,18.57,55.19,40.29,75.27,60.58,1.79,1.82,3.5,3.6,5.12,5.37,1.93-3.11,4.98-7.34,9.2-11.11,7.4-6.61,18.78-11.97,35.95-5.05,13.02,5.25,18.76,21.16,12.47,40.19-6.86,20.75-20.36,35.15-38,40.55-1.35.41-2.71.77-4.08,1.07-7.54,10.99-20.12,22.95-34.68,36.78-8.34,7.92-16.96,16.11-25.84,25.22l-4.46,4.57v-.02ZM133.54,173.01c-4.9.99-18.1,5.71-26.37,18.21-6.17,9.32-7.66,21.56-4.48,36.45,7.43-7.43,14.78-14.42,21.4-20.71,11.91-11.32,22.44-21.32,29.67-30.22-6.24.13-13.95-1.69-20.23-3.74h0ZM135.72,166.26c6.07,2.18,12.19,3.22,18.19,3.07,3.63-.09,6.84-2.31,8.25-5.66.9-2.14,1.47-4.21,1.69-6.21,1.39-13.08-7.08-28.68-25.9-47.69-18.67-18.85-45.61-39.13-70.25-56.85-5.55,18.96-7.45,58.98,49.57,103,5.95,4.59,12.12,8.03,18.32,10.28.05,0,.1-.02.13-.02v.06h0ZM153.49,115.8c13.24,15.92,19.06,29.88,17.73,42.43-.28,2.64-1.01,5.3-2.14,8.01,13.67-5.41,24.19-17.57,29.83-34.63,4.93-14.89.88-27.32-8.2-30.98-10.94-4.41-19.75-3.86-28.24,3.71-4.64,4.14-7.62,8.95-8.99,11.46h0Z"/>
    </g>
  </g>
</svg>