<svg width="206" height="90" viewBox="0 0 206 90" fill="none" xmlns="http://www.w3.org/2000/svg">
<path d="M61.8183 56.4269C62.7618 54.6941 64.0672 53.3513 65.7369 52.3983C67.4067 51.4453 69.3178 50.9688 71.4726 50.9688C74.2451 50.9688 76.5422 51.6594 78.3592 53.0432C80.1761 54.427 81.3947 56.3667 82.0148 58.8647H75.9148C75.5915 57.8973 75.0462 57.1392 74.2788 56.5881C73.5115 56.0394 72.5632 55.7626 71.4315 55.7626C69.8173 55.7626 68.536 56.3474 67.5949 57.5146C66.6515 58.6818 66.1809 60.3399 66.1809 62.489C66.1809 64.6381 66.6515 66.2553 67.5949 67.4249C68.536 68.5921 69.8173 69.1769 71.4315 69.1769C73.719 69.1769 75.2151 68.1565 75.9148 66.1157H82.0148C81.3947 68.5319 80.1689 70.4523 78.3399 71.877C76.5084 73.3017 74.2209 74.0117 71.4726 74.0117C69.3178 74.0117 67.4067 73.5351 65.7369 72.5821C64.0672 71.6291 62.7618 70.2863 61.8183 68.5535C60.8748 66.8208 60.4043 64.8017 60.4043 62.4914C60.4043 60.1811 60.8748 58.162 61.8183 56.4293V56.4269Z" fill="#00003C"/>
<path d="M90.2937 72.5797C88.5708 71.6267 87.2171 70.2766 86.2351 68.5319C85.2506 66.7871 84.7607 64.7728 84.7607 62.489C84.7607 60.2052 85.2651 58.1933 86.2761 56.4461C87.2847 54.7013 88.6649 53.3513 90.4167 52.3983C92.1661 51.4453 94.1182 50.9688 96.273 50.9688C98.4278 50.9688 100.377 51.4453 102.129 52.3983C103.879 53.3513 105.259 54.7013 106.27 56.4461C107.279 58.1933 107.785 60.2052 107.785 62.489C107.785 64.7728 107.266 66.7871 106.231 68.5319C105.194 70.2791 103.794 71.6267 102.03 72.5797C100.266 73.5327 98.2951 74.0092 96.1137 74.0092C93.9324 74.0092 92.0214 73.5327 90.2985 72.5797H90.2937ZM98.9972 68.3514C99.8997 67.8556 100.619 67.1096 101.157 66.1157C101.695 65.1218 101.965 63.9137 101.965 62.4914C101.965 60.3712 101.405 58.7396 100.288 57.5964C99.171 56.4557 97.8052 55.8854 96.1885 55.8854C94.5719 55.8854 93.2206 56.4557 92.1299 57.5964C91.0393 58.7372 90.4939 60.3688 90.4939 62.4914C90.4939 64.614 91.0248 66.2457 92.0889 67.3864C93.153 68.5271 94.4922 69.0974 96.1089 69.0974C97.132 69.0974 98.0948 68.8496 98.9972 68.3514Z" fill="#00003C"/>
<path d="M117.594 43.8405V73.6482H111.94V43.8405H117.594Z" fill="#00003C"/>
<path d="M123.552 47.7272C122.891 47.0967 122.562 46.3121 122.562 45.3711C122.562 44.4302 122.891 43.6456 123.552 43.0151C124.211 42.3846 125.041 42.0693 126.035 42.0693C127.029 42.0693 127.859 42.3846 128.518 43.0151C129.176 43.6456 129.507 44.4326 129.507 45.3711C129.507 46.3097 129.176 47.0967 128.518 47.7272C127.859 48.3577 127.029 48.673 126.035 48.673C125.041 48.673 124.211 48.3577 123.552 47.7272ZM128.824 51.3322V73.6483H123.171V51.3322H128.824Z" fill="#00003C"/>
<path d="M143.06 51.9771C144.339 51.3056 145.799 50.9687 147.442 50.9687C149.353 50.9687 151.083 51.438 152.632 52.379C154.179 53.3199 155.405 54.6556 156.307 56.3883C157.21 58.121 157.661 60.1281 157.661 62.4095C157.661 64.691 157.21 66.7125 156.307 68.4717C155.405 70.2309 154.179 71.593 152.632 72.5604C151.083 73.5279 149.353 74.0116 147.442 74.0116C145.772 74.0116 144.312 73.6819 143.06 73.0249C141.808 72.3679 140.804 71.5136 140.051 70.4667V73.6482H134.397V43.8405H140.051V54.5954C140.777 53.5221 141.781 52.6485 143.06 51.9771ZM151.057 58.9248C150.504 57.9454 149.778 57.1993 148.875 56.6891C147.973 56.1789 146.998 55.9238 145.948 55.9238C144.899 55.9238 143.962 56.1862 143.06 56.7084C142.158 57.2306 141.431 57.9911 140.879 58.985C140.326 59.9789 140.051 61.1461 140.051 62.489C140.051 63.8318 140.326 65.0014 140.879 65.9929C141.429 66.9868 142.158 67.7449 143.06 68.2695C143.962 68.7918 144.925 69.0541 145.948 69.0541C146.971 69.0541 147.973 68.7845 148.875 68.2479C149.778 67.7112 150.504 66.9459 151.057 65.952C151.607 64.9581 151.884 63.7765 151.884 62.4071C151.884 61.0378 151.607 59.9019 151.057 58.9224V58.9248Z" fill="#00003C"/>
<path d="M170.281 52.018C171.451 51.3466 172.79 51.0121 174.298 51.0121V56.9322H172.805C171.026 56.9322 169.687 57.3486 168.785 58.1813C167.882 59.0139 167.431 60.4651 167.431 62.5323V73.6507H161.777V51.3346H167.431V54.8C168.157 53.6184 169.108 52.6919 170.278 52.0204L170.281 52.018Z" fill="#00003C"/>
<path d="M199.502 51.3321L185.65 84.201H179.632L184.479 73.0827L175.513 51.3297H181.854L187.631 66.9195L193.487 51.3297H199.505L199.502 51.3321Z" fill="#00003C"/>
<path d="M81.6119 34.7819L61.2465 36.7842L61.2393 32.6016L81.6119 34.5533V34.7819Z" fill="#0049FF"/>
<path d="M17.4679 89.0452L16.7223 86.4485C14.2972 78.0015 14.8522 71.0368 18.3727 65.752C21.109 61.6416 25.0784 59.4083 28.2056 58.2171C26.5551 57.3435 24.9263 56.2918 23.3362 55.0669C11.4523 45.9147 4.00834 36.0598 1.21172 25.7765C-1.26881 16.6556 0.613303 9.43591 1.95491 5.94158L2.68363 4.04761L4.33892 5.22923C15.3469 13.0843 27.7471 22.2725 36.2624 30.8544C37.0225 31.6221 37.7464 32.3777 38.4341 33.1238C39.2497 31.805 40.543 30.0193 42.3383 28.4237C45.4776 25.6297 50.3035 23.3579 57.5834 26.2867C63.1067 28.508 65.5414 35.2391 62.8702 43.2867C59.9578 52.0635 54.2342 58.1545 46.7564 60.4359C46.1846 60.6116 45.6079 60.7608 45.0287 60.8883C41.834 65.5354 36.4965 70.594 30.3193 76.4492C26.7819 79.8016 23.1263 83.267 19.3596 87.1151L17.4679 89.0476V89.0452ZM32.1604 59.8102C30.0828 60.2265 24.4823 62.2288 20.9787 67.5136C18.3655 71.4556 17.7285 76.6345 19.0821 82.9349C22.2335 79.7895 25.3486 76.8367 28.1573 74.175C33.21 69.3859 37.674 65.1552 40.7409 61.3937C38.0963 61.4467 34.8219 60.679 32.1628 59.8102H32.1604ZM33.0846 56.9512C35.6616 57.8753 38.2555 58.3109 40.7988 58.2483C42.3383 58.2098 43.6992 57.2713 44.2952 55.8538C44.6764 54.9465 44.9202 54.0729 45.0094 53.2282C45.5982 47.6979 42.0053 41.0991 34.0256 33.0588C26.1159 25.0858 14.6857 16.5088 4.23516 9.01476C1.88252 17.031 1.07418 33.9637 25.2593 52.5833C27.7833 54.5254 30.3989 55.9814 33.0291 56.9319C33.0532 56.9295 33.0725 56.9271 33.0822 56.9247V56.9512H33.0846ZM40.6203 35.6098C46.2376 42.3433 48.7037 48.2491 48.1366 53.5603C48.0184 54.6746 47.7095 55.8009 47.2318 56.9488C53.0301 54.6626 57.4917 49.5149 59.8854 42.3C61.9774 35.9996 60.257 30.7437 56.4059 29.1938C51.7657 27.3263 48.0305 27.5598 44.4303 30.7629C42.4638 32.5125 41.197 34.5509 40.6178 35.6122L40.6203 35.6098Z" fill="#0049FF"/>
<path d="M200.042 72.984C199.381 72.3535 199.053 71.569 199.053 70.628C199.053 69.687 199.381 68.9025 200.042 68.272C200.701 67.6414 201.543 67.3262 202.566 67.3262C203.589 67.3262 204.383 67.6414 205.03 68.272C205.676 68.9025 206 69.6894 206 70.628C206 71.5665 205.676 72.3535 205.03 72.984C204.383 73.6145 203.563 73.9298 202.566 73.9298C201.569 73.9298 200.701 73.6145 200.042 72.984Z" fill="#FFAA00"/>
</svg>
