<?xml version="1.0" encoding="UTF-8"?>
<svg id="Layer_1" data-name="Layer 1" xmlns="http://www.w3.org/2000/svg" viewBox="0 0 538 239.11">
  <defs>
    <style>
      .cls-1 {
        fill: #fa0;
      }

      .cls-1, .cls-2, .cls-3, .cls-4 {
        stroke-width: 0px;
      }

      .cls-2 {
        fill: #0049ff;
      }

      .cls-3 {
        fill: #00003c;
      }

      .cls-4 {
        fill: #fff;
      }
    </style>
  </defs>
  <path class="cls-4" d="M537,1v237.11H1V1h536M538,0H0v239.11h538V0h0Z"/>
  <path class="cls-3" d="M190.4,144.31c2.22-4.08,5.3-7.24,9.23-9.49,3.93-2.24,8.43-3.37,13.51-3.37,6.53,0,11.94,1.63,16.22,4.89,4.28,3.26,7.15,7.83,8.61,13.71h-14.37c-.76-2.28-2.05-4.06-3.85-5.36-1.81-1.29-4.04-1.94-6.71-1.94-3.8,0-6.82,1.38-9.04,4.13-2.22,2.75-3.33,6.65-3.33,11.72s1.11,8.87,3.33,11.63c2.22,2.75,5.23,4.13,9.04,4.13,5.39,0,8.91-2.4,10.56-7.21h14.37c-1.46,5.69-4.35,10.21-8.66,13.57-4.31,3.36-9.7,5.03-16.17,5.03-5.08,0-9.58-1.12-13.51-3.37-3.93-2.24-7.01-5.41-9.23-9.49-2.22-4.08-3.33-8.84-3.33-14.28s1.11-10.2,3.33-14.28h0Z"/>
  <path class="cls-3" d="M257.47,182.35c-4.06-2.24-7.25-5.42-9.56-9.53-2.32-4.11-3.47-8.85-3.47-14.23s1.19-10.12,3.57-14.23c2.38-4.11,5.63-7.29,9.75-9.53,4.12-2.24,8.72-3.37,13.79-3.37s9.67,1.12,13.79,3.37c4.12,2.24,7.37,5.42,9.75,9.53,2.38,4.12,3.57,8.85,3.57,14.23s-1.22,10.12-3.66,14.23c-2.44,4.12-5.74,7.29-9.89,9.53-4.15,2.24-8.8,3.37-13.94,3.37s-9.64-1.12-13.7-3.37h-.01ZM277.97,172.4c2.13-1.17,3.82-2.92,5.09-5.27,1.27-2.34,1.9-5.19,1.9-8.54,0-4.99-1.32-8.84-3.95-11.53-2.63-2.69-5.85-4.03-9.66-4.03s-6.99,1.34-9.56,4.03c-2.57,2.69-3.85,6.53-3.85,11.53s1.25,8.84,3.76,11.53c2.51,2.69,5.66,4.03,9.47,4.03,2.41,0,4.68-.58,6.8-1.76Z"/>
  <path class="cls-3" d="M321.77,114.66v70.21h-13.32v-70.21h13.32Z"/>
  <path class="cls-3" d="M335.8,123.82c-1.56-1.49-2.33-3.33-2.33-5.55s.77-4.06,2.33-5.55c1.55-1.49,3.51-2.23,5.85-2.23s4.3.74,5.85,2.23c1.55,1.49,2.33,3.34,2.33,5.55s-.78,4.06-2.33,5.55c-1.55,1.49-3.51,2.23-5.85,2.23s-4.3-.74-5.85-2.23ZM348.22,132.31v52.56h-13.31v-52.56h13.31Z"/>
  <path class="cls-3" d="M381.75,133.83c3.01-1.58,6.45-2.38,10.32-2.38,4.5,0,8.58,1.11,12.22,3.32,3.64,2.22,6.53,5.36,8.66,9.44,2.13,4.08,3.19,8.81,3.19,14.18s-1.06,10.14-3.19,14.28c-2.12,4.14-5.01,7.35-8.66,9.63-3.65,2.28-7.72,3.42-12.22,3.42-3.93,0-7.37-.78-10.32-2.32-2.95-1.55-5.31-3.56-7.09-6.03v7.49h-13.32v-70.21h13.32v25.33c1.71-2.53,4.07-4.59,7.09-6.17ZM400.59,150.19c-1.3-2.31-3.01-4.06-5.14-5.27-2.12-1.2-4.42-1.8-6.89-1.8s-4.68.62-6.8,1.85c-2.12,1.23-3.84,3.02-5.14,5.36-1.3,2.34-1.95,5.09-1.95,8.25s.65,5.92,1.95,8.25c1.3,2.34,3.01,4.13,5.14,5.36,2.12,1.23,4.39,1.85,6.8,1.85s4.77-.64,6.89-1.9c2.13-1.26,3.84-3.07,5.14-5.41,1.3-2.34,1.95-5.12,1.95-8.35s-.65-5.9-1.95-8.21h0Z"/>
  <path class="cls-3" d="M445.87,133.92c2.76-1.58,5.91-2.37,9.46-2.37v13.94h-3.52c-4.19,0-7.34.98-9.47,2.94-2.13,1.96-3.19,5.38-3.19,10.25v26.19h-13.32v-52.56h13.32v8.16c1.71-2.78,3.95-4.97,6.71-6.55h0Z"/>
  <path class="cls-3" d="M514.69,132.31l-32.63,77.42h-14.17l11.42-26.19-21.12-51.24h14.94l13.61,36.72,13.79-36.72h14.17,0Z"/>
  <path class="cls-1" d="M515.97,183.31c-1.56-1.49-2.33-3.33-2.33-5.55s.77-4.06,2.33-5.55c1.55-1.49,3.54-2.23,5.94-2.23s4.28.74,5.8,2.23c1.52,1.49,2.28,3.34,2.28,5.55s-.76,4.06-2.28,5.55c-1.52,1.49-3.46,2.23-5.8,2.23s-4.39-.74-5.94-2.23Z"/>
  <g>
    <path class="cls-2" d="M230.14,92.11c-6.22-.61-12.45-1.25-18.69-1.87-5.43-.51-10.88-1-16.31-1.49-.82-.08-1.31-.38-1.61-1.25-2.25-6.45-6.33-11.32-12.68-14.09-3.61-1.56-7.35-2.64-11.24-3.12-8.55-1.1-16.34.77-23.02,6.25-2.89,2.36-5.56,5.1-7.89,7.99-4.17,5.2-7.58,10.96-10.45,17-.97,2.07-1.87,4.17-2.69,6.33,2.28.51,4.84.33,6.58,1.69,1.87-5.15,3.66-9.09,6.94-13.55,3.48-4.74,6.68-9.73,11.4-13.5,7.04-5.63,14.78-6.66,23.23-4.02,3.71,1.15,7.22,2.56,9.76,5.71,2.46,3.1,3.76,6.63,4.28,10.5.18,1.33.23,2.69.33,4.05-.1,6.1-1.82,11.81-4.12,17.36-3.41,8.22-8.14,15.55-14.88,21.49-3.35,2.95-7.12,5.22-11.09,7.25-3.69,1.9-6.58,3.61-10.55,4.25-4.81,4.46-12.06,5.56-19.74,5.22,3.23.82,5.05,1.05,8.37,1.46,1.08.13,2.15.08,3.23.13.38,0,.77.05,1.43.13-.46.61-.77,1-1.08,1.38-6.2,7.35-13.06,14.03-19.98,20.69-9.25,8.91-18.49,17.77-27.74,26.69-.74.72-1.51,1.41-2.46,2.3-.26-1.23-.59-2.25-.69-3.3-.38-3.76-.95-7.53-.97-11.29-.05-15.47,6.86-27.07,19.98-35.06,2.18-1.33,4.74-1.49,7.09-2.43-3.61-.28-8.68-.33-12.24-1.28-4.23,2.36-6.94,3.66-10.32,7.27-7.43,7.96-10.99,17.54-11.58,28.3-.28,5.2-.08,10.4,1,15.49,1.13,5.45,2.54,10.86,3.82,16.26.15,0,.33.03.49.05.33-.38.67-.79,1.02-1.18,4.81-4.84,9.58-9.76,14.47-14.52,8.91-8.66,17.95-17.18,26.89-25.84,7.81-7.58,15.47-15.29,21.82-24.18.28-.41.87-.69,1.36-.82,9.81-2.41,18.36-7.09,25.23-14.47,11.04-11.81,17.72-25.64,18.41-42.05.03-.64.2-.95.87-1.02,3.3-.31,6.58-.64,9.89-.97,4.4-.41,8.81-.82,13.21-1.25,5.51-.54,11.04-1.1,16.54-1.66.28-.03.56-.15.87-.23-2.2-.44-4.35-.61-6.48-.82v.03Z"/>
    <path class="cls-2" d="M8,93.57h3.38c13.62-.08,27.25-.18,40.87-.18,5.43,0,10.86.2,16.29.49,7.02.36,14.01.87,21,1.38,9.14.67,18.23,1.79,27.22,3.64,8.78,1.82,17.52,3.89,25.69,7.73,7.86,3.69,14.7,8.71,19.74,15.9,3.12,4.48,4.89,9.4,4.56,14.93-.26,4.12-2.38,7.3-5.22,10.06-4.46,4.3-9.91,6.97-15.6,9.14-5.05,1.92-10.19,3.61-15.57,4.1-5.12.46-10.3.64-15.42.49-5.84-.18-11.7-.74-17.52-1.36-10.78-1.13-21.31-3.43-31.55-6.94-13.06-4.48-25.02-10.94-35.21-20.36-11.42-10.55-19.05-23.38-22.66-38.54v-.49ZM17.58,100.74c.23.64.36,1.13.56,1.61,4.23,10.53,10.78,19.36,19.34,26.74,10.06,8.66,21.72,14.37,34.32,18.26,14.85,4.61,30.14,6.38,45.61,6.89,5.76.2,11.47-.23,17.13-1.38,7.94-1.64,15.26-4.66,21.64-9.71,2.71-2.15,3.94-5.07,3.41-8.48-.31-1.9-.97-3.79-1.79-5.56-2.74-5.81-7.43-9.81-12.83-13.04-7.73-4.61-16.24-7.2-24.92-9.17-12.19-2.79-24.59-4.1-37.03-5.02-5.76-.44-11.55-.72-17.34-.92-6.71-.26-13.42-.44-20.1-.46-8.99-.05-17.98.08-26.97.13-.28,0-.54.05-1,.13l-.03-.03Z"/>
  </g>
</svg>