<svg width="206" height="86" viewBox="0 0 206 86" fill="none" xmlns="http://www.w3.org/2000/svg">
<path d="M81.6119 30.7819L61.2465 32.7842L61.2393 28.6016L81.6119 30.5533V30.7819Z" fill="#FF3C69"/>
<path d="M17.4679 85.0452L16.7223 82.4485C14.2972 74.0015 14.8522 67.0368 18.3727 61.752C21.109 57.6416 25.0784 55.4083 28.2056 54.2171C26.5551 53.3435 24.9263 52.2918 23.3362 51.0669C11.4523 41.9147 4.00834 32.0598 1.21172 21.7765C-1.26881 12.6556 0.613303 5.43591 1.95491 1.94158L2.68363 0.0476074L4.33892 1.22923C15.3469 9.08427 27.7471 18.2725 36.2624 26.8544C37.0225 27.6221 37.7464 28.3777 38.4341 29.1238C39.2497 27.805 40.543 26.0193 42.3383 24.4237C45.4776 21.6297 50.3035 19.3579 57.5834 22.2867C63.1067 24.508 65.5414 31.2391 62.8702 39.2867C59.9578 48.0635 54.2342 54.1545 46.7564 56.4359C46.1846 56.6116 45.6079 56.7608 45.0287 56.8883C41.834 61.5354 36.4965 66.594 30.3193 72.4492C26.7819 75.8016 23.1263 79.267 19.3596 83.1151L17.4679 85.0476V85.0452ZM32.1604 55.8102C30.0828 56.2265 24.4823 58.2288 20.9787 63.5136C18.3655 67.4556 17.7285 72.6345 19.0821 78.9349C22.2335 75.7895 25.3486 72.8367 28.1573 70.175C33.21 65.3859 37.674 61.1552 40.7409 57.3937C38.0963 57.4467 34.8219 56.679 32.1628 55.8102H32.1604ZM33.0846 52.9512C35.6616 53.8753 38.2555 54.3109 40.7988 54.2483C42.3383 54.2098 43.6992 53.2713 44.2952 51.8538C44.6764 50.9465 44.9202 50.0729 45.0094 49.2282C45.5982 43.6979 42.0053 37.0991 34.0256 29.0588C26.1159 21.0858 14.6857 12.5088 4.23516 5.01476C1.88252 13.031 1.07418 29.9637 25.2593 48.5833C27.7833 50.5254 30.3989 51.9814 33.0291 52.9319C33.0532 52.9295 33.0725 52.9271 33.0822 52.9247V52.9512H33.0846ZM40.6203 31.6098C46.2376 38.3433 48.7037 44.2491 48.1366 49.5603C48.0184 50.6746 47.7095 51.8009 47.2318 52.9488C53.0301 50.6626 57.4917 45.5149 59.8854 38.3C61.9774 31.9996 60.257 26.7437 56.4059 25.1938C51.7657 23.3263 48.0305 23.5598 44.4303 26.7629C42.4638 28.5125 41.197 30.5509 40.6178 31.6122L40.6203 31.6098Z" fill="#FF3C69"/>
<path d="M200.042 68.984C199.381 68.3535 199.053 67.569 199.053 66.628C199.053 65.687 199.381 64.9025 200.042 64.272C200.701 63.6414 201.543 63.3262 202.566 63.3262C203.589 63.3262 204.383 63.6414 205.03 64.272C205.676 64.9025 206 65.6894 206 66.628C206 67.5665 205.676 68.3535 205.03 68.984C204.383 69.6145 203.563 69.9298 202.566 69.9298C201.569 69.9298 200.701 69.6145 200.042 68.984Z" fill="#FF3C69"/>
</svg>
