<?xml version="1.0" encoding="UTF-8"?>
<svg id="Layer_1" data-name="Layer 1" xmlns="http://www.w3.org/2000/svg" viewBox="0 0 203.83 59">
  <defs>
    <style>
      .cls-1 {
        fill: #fa0;
      }

      .cls-1, .cls-2, .cls-3 {
        stroke-width: 0px;
      }

      .cls-2 {
        fill: #0049ff;
      }

      .cls-3 {
        fill: #00003c;
      }
    </style>
  </defs>
  <path class="cls-3" d="M71.05,28.96c.87-1.6,2.07-2.83,3.61-3.71,1.54-.88,3.3-1.32,5.28-1.32,2.55,0,4.67.64,6.34,1.91,1.67,1.27,2.8,3.06,3.37,5.36h-5.62c-.3-.89-.8-1.59-1.51-2.1-.71-.51-1.58-.76-2.62-.76-1.49,0-2.67.54-3.53,1.61-.87,1.07-1.3,2.6-1.3,4.58s.43,3.47,1.3,4.55c.87,1.07,2.05,1.61,3.53,1.61,2.11,0,3.48-.94,4.13-2.82h5.62c-.57,2.23-1.7,3.99-3.38,5.31-1.69,1.31-3.79,1.97-6.32,1.97-1.98,0-3.74-.44-5.28-1.32-1.54-.88-2.74-2.11-3.61-3.71-.87-1.6-1.3-3.46-1.3-5.58s.43-3.99,1.3-5.58h0Z"/>
  <path class="cls-3" d="M97.27,43.84c-1.59-.88-2.83-2.12-3.74-3.73-.91-1.61-1.36-3.46-1.36-5.57s.46-3.96,1.4-5.57c.93-1.61,2.2-2.85,3.81-3.73,1.61-.88,3.41-1.32,5.39-1.32s3.78.44,5.39,1.32c1.61.88,2.88,2.12,3.81,3.73.93,1.61,1.4,3.46,1.4,5.57s-.48,3.96-1.43,5.57c-.96,1.61-2.24,2.85-3.87,3.73-1.62.88-3.44,1.32-5.45,1.32s-3.77-.44-5.36-1.32h0ZM105.29,39.94c.83-.46,1.49-1.14,1.99-2.06.5-.92.74-2.03.74-3.34,0-1.95-.52-3.46-1.54-4.51-1.03-1.05-2.29-1.58-3.78-1.58s-2.73.53-3.74,1.58c-1,1.05-1.51,2.55-1.51,4.51s.49,3.46,1.47,4.51c.98,1.05,2.21,1.58,3.7,1.58.94,0,1.83-.23,2.66-.69Z"/>
  <path class="cls-3" d="M122.42,17.37v27.45h-5.21v-27.45h5.21Z"/>
  <path class="cls-3" d="M127.9,20.95c-.61-.58-.91-1.3-.91-2.17s.3-1.59.91-2.17c.61-.58,1.37-.87,2.29-.87s1.68.29,2.29.87c.61.58.91,1.31.91,2.17s-.3,1.59-.91,2.17c-.61.58-1.37.87-2.29.87s-1.68-.29-2.29-.87ZM132.76,24.27v20.55h-5.21v-20.55h5.21Z"/>
  <path class="cls-3" d="M145.87,24.86c1.18-.62,2.52-.93,4.04-.93,1.76,0,3.35.43,4.78,1.3,1.42.87,2.55,2.1,3.38,3.69.83,1.6,1.25,3.44,1.25,5.55s-.42,3.96-1.25,5.58c-.83,1.62-1.96,2.87-3.38,3.77-1.43.89-3.02,1.34-4.78,1.34-1.54,0-2.88-.3-4.04-.91-1.15-.61-2.08-1.39-2.77-2.36v2.93h-5.21v-27.45h5.21v9.9c.67-.99,1.59-1.79,2.77-2.41ZM153.23,31.26c-.51-.9-1.18-1.59-2.01-2.06-.83-.47-1.73-.7-2.7-.7s-1.83.24-2.66.72c-.83.48-1.5,1.18-2.01,2.1-.51.92-.76,1.99-.76,3.23s.25,2.31.76,3.23c.51.92,1.18,1.61,2.01,2.1.83.48,1.72.72,2.66.72s1.86-.25,2.7-.74c.83-.49,1.5-1.2,2.01-2.11.51-.92.76-2,.76-3.26s-.26-2.31-.76-3.21h0Z"/>
  <path class="cls-3" d="M170.94,24.9c1.08-.62,2.31-.93,3.7-.93v5.45h-1.38c-1.64,0-2.87.38-3.7,1.15-.83.77-1.25,2.1-1.25,4.01v10.24h-5.21v-20.55h5.21v3.19c.67-1.09,1.54-1.94,2.62-2.56h0Z"/>
  <path class="cls-3" d="M197.85,24.27l-12.76,30.27h-5.54l4.46-10.24-8.26-20.03h5.84l5.32,14.36,5.39-14.36h5.54,0Z"/>
  <path class="cls-1" d="M198.35,44.21c-.61-.58-.91-1.3-.91-2.17s.3-1.59.91-2.17c.61-.58,1.38-.87,2.32-.87s1.67.29,2.27.87c.59.58.89,1.31.89,2.17s-.3,1.59-.89,2.17c-.6.58-1.35.87-2.27.87s-1.72-.29-2.32-.87Z"/>
  <g>
    <path class="cls-2" d="M86.74,8.64c-2.43-.24-4.86-.49-7.3-.73-2.12-.2-4.25-.39-6.37-.58-.32-.03-.51-.15-.63-.49-.88-2.52-2.47-4.42-4.95-5.5-1.41-.61-2.87-1.03-4.39-1.22-3.34-.43-6.38.3-8.99,2.44-1.13.92-2.17,1.99-3.08,3.12-1.63,2.03-2.96,4.28-4.08,6.64-.38.81-.73,1.63-1.05,2.47.89.2,1.89.13,2.57.66.73-2.01,1.43-3.55,2.71-5.29,1.36-1.85,2.61-3.8,4.45-5.27,2.75-2.2,5.77-2.6,9.07-1.57,1.45.45,2.82,1,3.81,2.23.96,1.21,1.47,2.59,1.67,4.1.07.52.09,1.05.13,1.58-.04,2.38-.71,4.61-1.61,6.78-1.33,3.21-3.18,6.07-5.81,8.39-1.31,1.15-2.78,2.04-4.33,2.83-1.44.74-2.57,1.41-4.12,1.66-1.88,1.74-4.71,2.17-7.71,2.04,1.26.32,1.97.41,3.27.57.42.05.84.03,1.26.05.15,0,.3.02.56.05-.18.24-.3.39-.42.54-2.42,2.87-5.1,5.48-7.8,8.08-3.61,3.48-7.22,6.94-10.83,10.42-.29.28-.59.55-.96.9-.1-.48-.23-.88-.27-1.29-.15-1.47-.37-2.94-.38-4.41-.02-6.04,2.68-10.57,7.8-13.69.85-.52,1.85-.58,2.77-.95-1.41-.11-3.39-.13-4.78-.5-1.65.92-2.71,1.43-4.03,2.84-2.9,3.11-4.29,6.85-4.52,11.05-.11,2.03-.03,4.06.39,6.05.44,2.13.99,4.24,1.49,6.35.06,0,.13.01.19.02.13-.15.26-.31.4-.46,1.88-1.89,3.74-3.81,5.65-5.67,3.48-3.38,7.01-6.71,10.5-10.09,3.05-2.96,6.04-5.97,8.52-9.44.11-.16.34-.27.53-.32,3.83-.94,7.17-2.77,9.85-5.65,4.31-4.61,6.92-10.01,7.19-16.42.01-.25.08-.37.34-.4,1.29-.12,2.57-.25,3.86-.38,1.72-.16,3.44-.32,5.16-.49,2.15-.21,4.31-.43,6.46-.65.11-.01.22-.06.34-.09-.86-.17-1.7-.24-2.53-.32Z"/>
    <path class="cls-2" d="M0,9.21c.45,0,.89,0,1.32,0,5.32-.03,10.64-.07,15.96-.07,2.12,0,4.24.08,6.36.19,2.74.14,5.47.34,8.2.54,3.57.26,7.12.7,10.63,1.42,3.43.71,6.84,1.52,10.03,3.02,3.07,1.44,5.74,3.4,7.71,6.21,1.22,1.75,1.91,3.67,1.78,5.83-.1,1.61-.93,2.85-2.04,3.93-1.74,1.68-3.87,2.72-6.09,3.57-1.97.75-3.98,1.41-6.08,1.6-2,.18-4.02.25-6.02.19-2.28-.07-4.57-.29-6.84-.53-4.21-.44-8.32-1.34-12.32-2.71-5.1-1.75-9.77-4.27-13.75-7.95C4.39,20.33,1.41,15.32,0,9.4c0-.03,0-.06,0-.19ZM3.74,12.01c.09.25.14.44.22.63,1.65,4.11,4.21,7.56,7.55,10.44,3.93,3.38,8.48,5.61,13.4,7.13,5.8,1.8,11.77,2.49,17.81,2.69,2.25.08,4.48-.09,6.69-.54,3.1-.64,5.96-1.82,8.45-3.79,1.06-.84,1.54-1.98,1.33-3.31-.12-.74-.38-1.48-.7-2.17-1.07-2.27-2.9-3.83-5.01-5.09-3.02-1.8-6.34-2.81-9.73-3.58-4.76-1.09-9.6-1.6-14.46-1.96-2.25-.17-4.51-.28-6.77-.36-2.62-.1-5.24-.17-7.85-.18-3.51-.02-7.02.03-10.53.05-.11,0-.21.02-.39.05Z"/>
  </g>
</svg>